<svg width="33" height="33" viewBox="0 0 33 33" fill="none" xmlns="http://www.w3.org/2000/svg">
<path fill-rule="evenodd" clip-rule="evenodd" d="M21.0774 30.2364V19.8552H24.5624L25.0838 15.81H21.0761V13.2271C21.0761 12.0556 21.4018 11.2567 23.0826 11.2567H25.2245V7.63772C24.1872 7.52733 23.1447 7.47364 22.1015 7.47688C19.0133 7.47688 16.8995 9.36278 16.8995 12.825V15.81H13.4038V19.8552H16.8982V30.2364H4.16062C3.34299 30.2364 2.68085 29.5742 2.68085 28.7566V4.90872C2.68085 4.0911 3.34299 3.42896 4.16062 3.42896H28.0085C28.8261 3.42896 29.4883 4.0911 29.4883 4.90872V28.7566C29.4883 29.5742 28.8261 30.2364 28.0085 30.2364H21.0774Z" fill="#FDF9F7"/>
</svg>
