<svg width="33" height="33" viewBox="0 0 33 33" fill="none" xmlns="http://www.w3.org/2000/svg">
<path d="M17.6316 3.4306C18.6097 3.42685 19.5878 3.43668 20.5656 3.46009L20.8257 3.46948C21.1259 3.4802 21.4221 3.4936 21.78 3.50969C23.2062 3.5767 24.1793 3.80189 25.0331 4.13296C25.9177 4.47341 26.663 4.9345 27.4082 5.67975C28.0896 6.3494 28.617 7.15944 28.9537 8.05354C29.2848 8.90736 29.5099 9.88181 29.577 11.308C29.593 11.6645 29.6064 11.9621 29.6172 12.2623L29.6252 12.5223C29.649 13.4997 29.6593 14.4774 29.656 15.4551L29.6574 16.455V18.2109C29.6607 19.189 29.6504 20.1671 29.6265 21.1449L29.6185 21.405C29.6078 21.7052 29.5944 22.0014 29.5783 22.3593C29.5113 23.7855 29.2834 24.7586 28.9537 25.6124C28.6181 26.5075 28.0906 27.3182 27.4082 27.9875C26.738 28.6689 25.9275 29.1962 25.0331 29.533C24.1793 29.8641 23.2062 30.0892 21.78 30.1563C21.4221 30.1723 21.1259 30.1857 20.8257 30.1965L20.5656 30.2045C19.5878 30.2283 18.6097 30.2386 17.6316 30.2353L16.6316 30.2367H14.8771C13.899 30.24 12.9209 30.2297 11.943 30.2059L11.683 30.1978C11.3648 30.1863 11.0467 30.1729 10.7287 30.1576C9.3025 30.0906 8.32939 29.8627 7.47424 29.533C6.57978 29.197 5.7696 28.6696 5.10044 27.9875C4.41825 27.3177 3.89038 26.5072 3.55365 25.6124C3.22258 24.7586 2.9974 23.7855 2.93038 22.3593C2.91545 22.0413 2.90205 21.7232 2.89017 21.405L2.88346 21.1449C2.85875 20.1671 2.84758 19.189 2.84996 18.2109V15.4551C2.84621 14.4774 2.85605 13.4997 2.87944 12.5223L2.88883 12.2623C2.89955 11.9621 2.91295 11.6645 2.92904 11.308C2.99606 9.88047 3.22124 8.9087 3.55231 8.05354C3.88924 7.15901 4.41814 6.34919 5.10178 5.68109C5.77048 4.99851 6.58016 4.47016 7.47424 4.13296C8.32939 3.80189 9.30116 3.5767 10.7287 3.50969L11.683 3.46948L11.943 3.46277C12.9204 3.43807 13.8981 3.4269 14.8758 3.42926L17.6316 3.4306ZM16.2537 10.1325C15.3657 10.1199 14.484 10.284 13.66 10.6151C12.836 10.9462 12.086 11.4378 11.4536 12.0613C10.8212 12.6848 10.319 13.4278 9.97629 14.2471C9.63354 15.0663 9.45703 15.9456 9.45703 16.8336C9.45703 17.7217 9.63354 18.6009 9.97629 19.4202C10.319 20.2395 10.8212 20.9825 11.4536 21.606C12.086 22.2295 12.836 22.7211 13.66 23.0522C14.484 23.3833 15.3657 23.5474 16.2537 23.5348C18.0311 23.5348 19.7358 22.8287 20.9926 21.5719C22.2494 20.3151 22.9555 18.6104 22.9555 16.833C22.9555 15.0555 22.2494 13.3509 20.9926 12.094C19.7358 10.8372 18.0311 10.1325 16.2537 10.1325ZM16.2537 12.8132C16.7878 12.8034 17.3186 12.9001 17.8149 13.0976C18.3113 13.2952 18.7633 13.5897 19.1445 13.964C19.5258 14.3382 19.8287 14.7847 20.0354 15.2773C20.2422 15.7699 20.3488 16.2987 20.3489 16.833C20.3489 17.3672 20.2426 17.8961 20.036 18.3888C19.8294 18.8814 19.5266 19.328 19.1455 19.7024C18.7644 20.0767 18.3125 20.3714 17.8162 20.5691C17.3199 20.7669 16.7892 20.8638 16.255 20.8541C15.1885 20.8541 14.1658 20.4304 13.4116 19.6763C12.6575 18.9222 12.2339 17.8994 12.2339 16.833C12.2339 15.7665 12.6575 14.7437 13.4116 13.9896C14.1658 13.2355 15.1885 12.8119 16.255 12.8119L16.2537 12.8132ZM23.2906 8.1219C22.8582 8.13921 22.4493 8.32316 22.1494 8.63523C21.8496 8.94729 21.6822 9.36327 21.6822 9.79603C21.6822 10.2288 21.8496 10.6448 22.1494 10.9568C22.4493 11.2689 22.8582 11.4528 23.2906 11.4701C23.735 11.4701 24.1611 11.2936 24.4753 10.9794C24.7896 10.6652 24.9661 10.239 24.9661 9.79469C24.9661 9.35033 24.7896 8.92416 24.4753 8.60995C24.1611 8.29574 23.735 8.11922 23.2906 8.11922V8.1219Z" fill="#FDF9F7"/>
</svg>
