<svg width="33" height="33" viewBox="0 0 33 33" fill="none" xmlns="http://www.w3.org/2000/svg">
<path d="M25.805 4.76953C26.516 4.76953 27.1978 5.05197 27.7005 5.5547C28.2033 6.05744 28.4857 6.7393 28.4857 7.45027V26.2155C28.4857 26.9264 28.2033 27.6083 27.7005 28.111C27.1978 28.6138 26.516 28.8962 25.805 28.8962H7.03978C6.3288 28.8962 5.64695 28.6138 5.14421 28.111C4.64147 27.6083 4.35904 26.9264 4.35904 26.2155V7.45027C4.35904 6.7393 4.64147 6.05744 5.14421 5.5547C5.64695 5.05197 6.3288 4.76953 7.03978 4.76953H25.805ZM25.1348 25.5453V18.4413C25.1348 17.2824 24.6744 16.171 23.855 15.3515C23.0355 14.5321 21.9241 14.0717 20.7652 14.0717C19.6259 14.0717 18.2989 14.7687 17.6555 15.8142V14.3264H13.9159V25.5453H17.6555V18.9373C17.6555 17.9052 18.4865 17.0607 19.5186 17.0607C20.0163 17.0607 20.4936 17.2584 20.8455 17.6104C21.1974 17.9623 21.3952 18.4396 21.3952 18.9373V25.5453H25.1348ZM9.55968 12.222C10.1569 12.222 10.7297 11.9847 11.152 11.5625C11.5743 11.1402 11.8115 10.5674 11.8115 9.97017C11.8115 8.72363 10.8062 7.70494 9.55968 7.70494C8.9589 7.70494 8.38273 7.9436 7.95792 8.36841C7.53311 8.79323 7.29445 9.36939 7.29445 9.97017C7.29445 11.2167 8.31313 12.222 9.55968 12.222ZM11.4228 25.5453V14.3264H7.70997V25.5453H11.4228Z" fill="#FDF9F7"/>
</svg>
