<svg width="33" height="33" viewBox="0 0 33 33" fill="none" xmlns="http://www.w3.org/2000/svg">
<g clip-path="url(#clip0_8088_3893)">
<path fill-rule="evenodd" clip-rule="evenodd" d="M16.5916 6.10986C17.7376 6.10986 18.9131 6.13935 20.0524 6.1876L21.3981 6.25194L22.6862 6.32834L23.8926 6.41011L24.9944 6.49589C26.19 6.58741 27.3151 7.09765 28.1717 7.93684C29.0283 8.77604 29.5616 9.89043 29.6776 11.084L29.7312 11.6536L29.8318 12.8734C29.9256 14.1373 29.9953 15.5152 29.9953 16.8328C29.9953 18.1504 29.9256 19.5283 29.8318 20.7923L29.7312 22.012C29.7138 22.2077 29.6964 22.3967 29.6776 22.5817C29.5615 23.7754 29.0281 24.89 28.1712 25.7292C27.3144 26.5685 26.1889 27.0786 24.993 27.1698L23.8939 27.2542L22.6876 27.3373L21.3981 27.4137L20.0524 27.4781C18.8995 27.5282 17.7456 27.5541 16.5916 27.5558C15.4375 27.5541 14.2837 27.5282 13.1307 27.4781L11.785 27.4137L10.4969 27.3373L9.29058 27.2542L8.18879 27.1698C6.99311 27.0783 5.86801 26.568 5.0114 25.7288C4.1548 24.8896 3.62158 23.7752 3.50553 22.5817L3.45192 22.012L3.35139 20.7923C3.2489 19.4749 3.19436 18.1542 3.18787 16.8328C3.18787 15.5152 3.25757 14.1373 3.35139 12.8734L3.45192 11.6536C3.46934 11.4579 3.48677 11.269 3.50553 11.084C3.62153 9.89064 4.15456 8.77642 5.01089 7.93725C5.86722 7.09808 6.99201 6.58771 8.18745 6.49589L9.28789 6.41011L10.4942 6.32834L11.7837 6.25194L13.1294 6.1876C14.2828 6.13752 15.4371 6.1116 16.5916 6.10986ZM13.9108 13.5824V20.0832C13.9108 20.7025 14.581 21.0885 15.1172 20.7802L20.7467 17.5298C20.8692 17.4593 20.971 17.3578 21.0417 17.2354C21.1125 17.113 21.1497 16.9742 21.1497 16.8328C21.1497 16.6915 21.1125 16.5526 21.0417 16.4303C20.971 16.3079 20.8692 16.2064 20.7467 16.1358L15.1172 12.8868C14.9949 12.8162 14.8561 12.779 14.7149 12.779C14.5737 12.7791 14.435 12.8163 14.3127 12.8869C14.1904 12.9576 14.0889 13.0592 14.0184 13.1815C13.9478 13.3038 13.9107 13.4426 13.9108 13.5838V13.5824Z" fill="#FDF9F7"/>
</g>
<defs>
<clipPath id="clip0_8088_3893">
<rect width="32.1689" height="32.1689" fill="white" transform="translate(0.506714 0.748779)"/>
</clipPath>
</defs>
</svg>
