<svg width="64" height="64" viewBox="0 0 64 64" fill="none" xmlns="http://www.w3.org/2000/svg">
<g filter="url(#filter0_b_8184_2803)">
<rect x="5" y="1" width="55" height="55" rx="27.5" fill="url(#paint0_linear_8184_2803)" fill-opacity="0.4"/>
<g filter="url(#filter1_d_8184_2803)">
<rect x="13" y="9" width="38.1176" height="38.1176" rx="19.0588" fill="url(#paint1_linear_8184_2803)" shape-rendering="crispEdges"/>
<path d="M26.9529 34.9809V32.732L32.7087 27.6242C33.1407 27.2431 33.4456 26.8841 33.6235 26.5474C33.8014 26.2107 33.8904 25.8962 33.8904 25.604C33.8904 25.1847 33.8046 24.8131 33.6331 24.4891C33.4615 24.1587 33.2201 23.9014 32.9088 23.7172C32.5975 23.5266 32.2322 23.4313 31.8129 23.4313C31.3746 23.4313 30.9871 23.5329 30.6504 23.7362C30.32 23.9332 30.0627 24.1968 29.8785 24.5272C29.6942 24.8512 29.6085 25.2038 29.6212 25.5849H26.9529C26.9529 24.6447 27.1594 23.8315 27.5724 23.1454C27.9853 22.4593 28.5602 21.9288 29.2972 21.554C30.0341 21.1792 30.8918 20.9918 31.8701 20.9918C32.7659 20.9918 33.5664 21.1887 34.2715 21.5826C34.9831 21.9701 35.5421 22.5133 35.9487 23.2121C36.3553 23.9109 36.5586 24.7209 36.5586 25.6421C36.5586 26.3219 36.4633 26.8873 36.2727 27.3384C36.0821 27.7831 35.7994 28.196 35.4246 28.5772C35.0498 28.952 34.5892 29.3776 34.0428 29.8541L30.3264 33.1132L30.1167 32.5414H36.5586V34.9809H26.9529Z" fill="white"/>
</g>
</g>
<defs>
<filter id="filter0_b_8184_2803" x="-19" y="-23" width="103" height="103" filterUnits="userSpaceOnUse" color-interpolation-filters="sRGB">
<feFlood flood-opacity="0" result="BackgroundImageFix"/>
<feGaussianBlur in="BackgroundImageFix" stdDeviation="12"/>
<feComposite in2="SourceAlpha" operator="in" result="effect1_backgroundBlur_8184_2803"/>
<feBlend mode="normal" in="SourceGraphic" in2="effect1_backgroundBlur_8184_2803" result="shape"/>
</filter>
<filter id="filter1_d_8184_2803" x="0.538462" y="0.692308" width="63.0408" height="63.0408" filterUnits="userSpaceOnUse" color-interpolation-filters="sRGB">
<feFlood flood-opacity="0" result="BackgroundImageFix"/>
<feColorMatrix in="SourceAlpha" type="matrix" values="0 0 0 0 0 0 0 0 0 0 0 0 0 0 0 0 0 0 127 0" result="hardAlpha"/>
<feOffset dy="4.15385"/>
<feGaussianBlur stdDeviation="6.23077"/>
<feComposite in2="hardAlpha" operator="out"/>
<feColorMatrix type="matrix" values="0 0 0 0 0 0 0 0 0 0 0 0 0 0 0 0 0 0 0.12 0"/>
<feBlend mode="normal" in2="BackgroundImageFix" result="effect1_dropShadow_8184_2803"/>
<feBlend mode="normal" in="SourceGraphic" in2="effect1_dropShadow_8184_2803" result="shape"/>
</filter>
<linearGradient id="paint0_linear_8184_2803" x1="9.51172" y1="0.999988" x2="52.1729" y2="3.72215" gradientUnits="userSpaceOnUse">
<stop stop-color="#C3D0DD"/>
<stop offset="1" stop-color="#BEABC1"/>
</linearGradient>
<linearGradient id="paint1_linear_8184_2803" x1="36.2941" y1="9" x2="29.5326" y2="51.5869" gradientUnits="userSpaceOnUse">
<stop stop-color="#012A59"/>
<stop offset="1" stop-color="#B21450"/>
</linearGradient>
</defs>
</svg>
