<svg width="325" height="65" viewBox="0 0 325 65" fill="none" xmlns="http://www.w3.org/2000/svg">
<rect x="0.5" y="0.5" width="112" height="27" rx="13.5" stroke="#E3E3E3"/>
<path d="M13.284 19.18C12.608 19.18 12.01 19.042 11.49 18.766C10.974 18.486 10.57 18.096 10.278 17.596C9.986 17.092 9.84 16.5 9.84 15.82V10.366L11.112 10.36V15.754C11.112 16.122 11.174 16.446 11.298 16.726C11.422 17.006 11.588 17.24 11.796 17.428C12.004 17.616 12.236 17.758 12.492 17.854C12.752 17.95 13.016 17.998 13.284 17.998C13.556 17.998 13.82 17.95 14.076 17.854C14.336 17.754 14.57 17.61 14.778 17.422C14.986 17.234 15.15 17 15.27 16.72C15.394 16.44 15.456 16.118 15.456 15.754V10.36H16.728V15.82C16.728 16.496 16.582 17.086 16.29 17.59C15.998 18.094 15.592 18.486 15.072 18.766C14.556 19.042 13.96 19.18 13.284 19.18ZM21.1751 19.18C20.5551 19.18 19.9951 19.074 19.4951 18.862C18.9991 18.646 18.5891 18.34 18.2651 17.944C17.9451 17.544 17.7371 17.07 17.6411 16.522L18.9491 16.324C19.0811 16.852 19.3571 17.264 19.7771 17.56C20.1971 17.852 20.6871 17.998 21.2471 17.998C21.5951 17.998 21.9151 17.944 22.2071 17.836C22.4991 17.724 22.7331 17.566 22.9091 17.362C23.0891 17.154 23.1791 16.906 23.1791 16.618C23.1791 16.462 23.1511 16.324 23.0951 16.204C23.0431 16.084 22.9691 15.98 22.8731 15.892C22.7811 15.8 22.6671 15.722 22.5311 15.658C22.3991 15.59 22.2531 15.532 22.0931 15.484L19.8791 14.83C19.6631 14.766 19.4431 14.684 19.2191 14.584C18.9951 14.48 18.7891 14.346 18.6011 14.182C18.4171 14.014 18.2671 13.808 18.1511 13.564C18.0351 13.316 17.9771 13.016 17.9771 12.664C17.9771 12.132 18.1131 11.682 18.3851 11.314C18.6611 10.942 19.0331 10.662 19.5011 10.474C19.9691 10.282 20.4931 10.186 21.0731 10.186C21.6571 10.194 22.1791 10.298 22.6391 10.498C23.1031 10.698 23.4871 10.986 23.7911 11.362C24.0991 11.734 24.3111 12.186 24.4271 12.718L23.0831 12.946C23.0231 12.622 22.8951 12.344 22.6991 12.112C22.5031 11.876 22.2631 11.696 21.9791 11.572C21.6951 11.444 21.3871 11.378 21.0551 11.374C20.7351 11.366 20.4411 11.414 20.1731 11.518C19.9091 11.622 19.6971 11.768 19.5371 11.956C19.3811 12.144 19.3031 12.36 19.3031 12.604C19.3031 12.844 19.3731 13.038 19.5131 13.186C19.6531 13.334 19.8251 13.452 20.0291 13.54C20.2371 13.624 20.4431 13.694 20.6471 13.75L22.2431 14.2C22.4431 14.256 22.6691 14.332 22.9211 14.428C23.1771 14.52 23.4231 14.65 23.6591 14.818C23.8991 14.986 24.0971 15.21 24.2531 15.49C24.4091 15.766 24.4871 16.114 24.4871 16.534C24.4871 16.97 24.3991 17.354 24.2231 17.686C24.0471 18.014 23.8051 18.29 23.4971 18.514C23.1931 18.734 22.8411 18.9 22.4411 19.012C22.0411 19.124 21.6191 19.18 21.1751 19.18ZM28.1681 19V10.36H31.6601C31.7441 10.36 31.8481 10.364 31.9721 10.372C32.0961 10.376 32.2141 10.388 32.3261 10.408C32.8061 10.484 33.2061 10.648 33.5261 10.9C33.8501 11.152 34.0921 11.47 34.2521 11.854C34.4121 12.238 34.4921 12.662 34.4921 13.126C34.4921 13.594 34.4121 14.02 34.2521 14.404C34.0921 14.788 33.8501 15.106 33.5261 15.358C33.2061 15.61 32.8061 15.774 32.3261 15.85C32.2141 15.866 32.0941 15.878 31.9661 15.886C31.8421 15.894 31.7401 15.898 31.6601 15.898H29.4221V19H28.1681ZM29.4221 14.71H31.6121C31.6921 14.71 31.7801 14.706 31.8761 14.698C31.9761 14.69 32.0701 14.676 32.1581 14.656C32.4141 14.596 32.6201 14.486 32.7761 14.326C32.9321 14.162 33.0441 13.974 33.1121 13.762C33.1801 13.55 33.2141 13.338 33.2141 13.126C33.2141 12.914 33.1801 12.704 33.1121 12.496C33.0441 12.284 32.9321 12.098 32.7761 11.938C32.6201 11.774 32.4141 11.662 32.1581 11.602C32.0701 11.578 31.9761 11.562 31.8761 11.554C31.7801 11.546 31.6921 11.542 31.6121 11.542H29.4221V14.71ZM37.3223 19.18C36.8423 19.18 36.4403 19.092 36.1163 18.916C35.7923 18.736 35.5463 18.5 35.3783 18.208C35.2143 17.912 35.1323 17.588 35.1323 17.236C35.1323 16.908 35.1903 16.62 35.3063 16.372C35.4223 16.124 35.5943 15.914 35.8223 15.742C36.0503 15.566 36.3303 15.424 36.6623 15.316C36.9503 15.232 37.2763 15.158 37.6403 15.094C38.0043 15.03 38.3863 14.97 38.7863 14.914C39.1903 14.858 39.5903 14.802 39.9863 14.746L39.5303 14.998C39.5383 14.49 39.4303 14.114 39.2063 13.87C38.9863 13.622 38.6063 13.498 38.0663 13.498C37.7263 13.498 37.4143 13.578 37.1303 13.738C36.8463 13.894 36.6483 14.154 36.5363 14.518L35.3663 14.158C35.5263 13.602 35.8303 13.16 36.2783 12.832C36.7303 12.504 37.3303 12.34 38.0783 12.34C38.6583 12.34 39.1623 12.44 39.5903 12.64C40.0223 12.836 40.3383 13.148 40.5383 13.576C40.6423 13.788 40.7063 14.012 40.7303 14.248C40.7543 14.484 40.7663 14.738 40.7663 15.01V19H39.6563V17.518L39.8723 17.71C39.6043 18.206 39.2623 18.576 38.8463 18.82C38.4343 19.06 37.9263 19.18 37.3223 19.18ZM37.5443 18.154C37.9003 18.154 38.2063 18.092 38.4623 17.968C38.7183 17.84 38.9243 17.678 39.0803 17.482C39.2363 17.286 39.3383 17.082 39.3863 16.87C39.4543 16.678 39.4923 16.462 39.5003 16.222C39.5123 15.982 39.5183 15.79 39.5183 15.646L39.9263 15.796C39.5303 15.856 39.1703 15.91 38.8463 15.958C38.5223 16.006 38.2283 16.054 37.9643 16.102C37.7043 16.146 37.4723 16.2 37.2683 16.264C37.0963 16.324 36.9423 16.396 36.8063 16.48C36.6743 16.564 36.5683 16.666 36.4883 16.786C36.4123 16.906 36.3743 17.052 36.3743 17.224C36.3743 17.392 36.4163 17.548 36.5003 17.692C36.5843 17.832 36.7123 17.944 36.8843 18.028C37.0563 18.112 37.2763 18.154 37.5443 18.154ZM42.8371 21.88L44.0911 18.466L44.1091 19.474L41.2831 12.52H42.5911L44.7031 17.89H44.3191L46.3351 12.52H47.6071L44.0311 21.88H42.8371ZM48.547 19V12.52H49.663V14.092L49.507 13.888C49.587 13.68 49.691 13.49 49.819 13.318C49.947 13.142 50.095 12.998 50.263 12.886C50.427 12.766 50.609 12.674 50.809 12.61C51.013 12.542 51.221 12.502 51.433 12.49C51.645 12.474 51.849 12.484 52.045 12.52V13.696C51.833 13.64 51.597 13.624 51.337 13.648C51.081 13.672 50.845 13.754 50.629 13.894C50.425 14.026 50.263 14.186 50.143 14.374C50.027 14.562 49.943 14.772 49.891 15.004C49.839 15.232 49.813 15.474 49.813 15.73V19H48.547ZM55.8845 19.18C55.2365 19.18 54.6745 19.034 54.1985 18.742C53.7225 18.45 53.3545 18.048 53.0945 17.536C52.8385 17.02 52.7105 16.426 52.7105 15.754C52.7105 15.078 52.8425 14.484 53.1065 13.972C53.3705 13.456 53.7405 13.056 54.2165 12.772C54.6925 12.484 55.2485 12.34 55.8845 12.34C56.5325 12.34 57.0945 12.486 57.5705 12.778C58.0465 13.07 58.4145 13.472 58.6745 13.984C58.9345 14.496 59.0645 15.086 59.0645 15.754C59.0645 16.43 58.9325 17.026 58.6685 17.542C58.4085 18.054 58.0405 18.456 57.5645 18.748C57.0885 19.036 56.5285 19.18 55.8845 19.18ZM55.8845 17.998C56.5045 17.998 56.9665 17.79 57.2705 17.374C57.5785 16.954 57.7325 16.414 57.7325 15.754C57.7325 15.078 57.5765 14.538 57.2645 14.134C56.9565 13.726 56.4965 13.522 55.8845 13.522C55.4645 13.522 55.1185 13.618 54.8465 13.81C54.5745 13.998 54.3725 14.26 54.2405 14.596C54.1085 14.928 54.0425 15.314 54.0425 15.754C54.0425 16.434 54.1985 16.978 54.5105 17.386C54.8225 17.794 55.2805 17.998 55.8845 17.998ZM60.503 19V10.18H61.757V19H60.503ZM63.6788 19V10.18H64.9328V19H63.6788Z" fill="#171717"/>
<path d="M72 1H99C106.18 1 112 6.8203 112 14C112 21.1797 106.18 27 99 27H72V1Z" fill="#E4FFF4"/>
<path d="M82.648 10.186C83.204 10.186 83.706 10.32 84.154 10.588C84.602 10.852 84.958 11.216 85.222 11.68C85.486 12.144 85.618 12.674 85.618 13.27V16.018C85.618 16.65 85.486 17.204 85.222 17.68C84.962 18.152 84.598 18.52 84.13 18.784C83.666 19.048 83.13 19.18 82.522 19.18C82.066 19.18 81.638 19.094 81.238 18.922C80.838 18.75 80.49 18.494 80.194 18.154L81.118 17.296C81.282 17.508 81.488 17.678 81.736 17.806C81.984 17.934 82.246 17.998 82.522 17.998C82.878 17.998 83.192 17.912 83.464 17.74C83.74 17.568 83.954 17.344 84.106 17.068C84.258 16.792 84.334 16.496 84.334 16.18V14.596L84.586 14.872C84.338 15.196 84.03 15.452 83.662 15.64C83.294 15.828 82.9 15.922 82.48 15.922C81.94 15.922 81.46 15.798 81.04 15.55C80.62 15.302 80.288 14.964 80.044 14.536C79.8 14.108 79.678 13.624 79.678 13.084C79.678 12.544 79.814 12.056 80.086 11.62C80.358 11.184 80.718 10.836 81.166 10.576C81.614 10.316 82.108 10.186 82.648 10.186ZM82.648 11.398C82.336 11.398 82.05 11.474 81.79 11.626C81.534 11.774 81.33 11.976 81.178 12.232C81.026 12.488 80.95 12.772 80.95 13.084C80.95 13.396 81.026 13.682 81.178 13.942C81.33 14.198 81.534 14.402 81.79 14.554C82.046 14.706 82.33 14.782 82.642 14.782C82.954 14.782 83.238 14.706 83.494 14.554C83.75 14.402 83.954 14.198 84.106 13.942C84.258 13.682 84.334 13.396 84.334 13.084C84.334 12.776 84.258 12.494 84.106 12.238C83.958 11.982 83.756 11.778 83.5 11.626C83.244 11.474 82.96 11.398 82.648 11.398ZM89.4771 10.36H90.7431L88.4391 19H87.1731L89.4771 10.36ZM93.8148 19V11.74L92.1888 12.73V11.332L93.8148 10.36H95.0928V19H93.8148ZM100.383 19.18C99.7953 19.18 99.2753 19.052 98.8233 18.796C98.3713 18.536 98.0153 18.18 97.7553 17.728C97.4993 17.276 97.3713 16.756 97.3713 16.168V13.192C97.3713 12.604 97.4993 12.084 97.7553 11.632C98.0153 11.18 98.3713 10.826 98.8233 10.57C99.2753 10.31 99.7953 10.18 100.383 10.18C100.971 10.18 101.491 10.31 101.943 10.57C102.395 10.826 102.749 11.18 103.005 11.632C103.265 12.084 103.395 12.604 103.395 13.192V16.168C103.395 16.756 103.265 17.276 103.005 17.728C102.749 18.18 102.395 18.536 101.943 18.796C101.491 19.052 100.971 19.18 100.383 19.18ZM100.383 17.98C100.703 17.98 100.993 17.904 101.253 17.752C101.517 17.596 101.727 17.388 101.883 17.128C102.039 16.864 102.117 16.57 102.117 16.246V13.102C102.117 12.782 102.039 12.492 101.883 12.232C101.727 11.968 101.517 11.76 101.253 11.608C100.993 11.452 100.703 11.374 100.383 11.374C100.063 11.374 99.7713 11.452 99.5073 11.608C99.2473 11.76 99.0393 11.968 98.8833 12.232C98.7273 12.492 98.6493 12.782 98.6493 13.102V16.246C98.6493 16.57 98.7273 16.864 98.8833 17.128C99.0393 17.388 99.2473 17.596 99.5073 17.752C99.7713 17.904 100.063 17.98 100.383 17.98Z" fill="#00BA70"/>
<path d="M72 1V27" stroke="#E2E2E2"/>
<rect x="120.5" y="0.5" width="168" height="27" rx="13.5" stroke="#E3E3E3"/>
<path d="M129.84 19V10.36H133.236C133.784 10.36 134.244 10.472 134.616 10.696C134.988 10.92 135.268 11.21 135.456 11.566C135.644 11.918 135.738 12.29 135.738 12.682C135.738 13.158 135.62 13.566 135.384 13.906C135.152 14.246 134.838 14.478 134.442 14.602L134.43 14.308C134.982 14.444 135.406 14.71 135.702 15.106C135.998 15.498 136.146 15.956 136.146 16.48C136.146 16.988 136.044 17.43 135.84 17.806C135.64 18.182 135.346 18.476 134.958 18.688C134.574 18.896 134.108 19 133.56 19H129.84ZM131.112 17.806H133.368C133.652 17.806 133.906 17.752 134.13 17.644C134.358 17.536 134.536 17.382 134.664 17.182C134.796 16.978 134.862 16.736 134.862 16.456C134.862 16.196 134.804 15.962 134.688 15.754C134.576 15.542 134.412 15.376 134.196 15.256C133.984 15.132 133.734 15.07 133.446 15.07H131.112V17.806ZM131.112 13.888H133.218C133.45 13.888 133.658 13.842 133.842 13.75C134.03 13.654 134.178 13.518 134.286 13.342C134.398 13.162 134.454 12.946 134.454 12.694C134.454 12.358 134.342 12.082 134.118 11.866C133.894 11.65 133.594 11.542 133.218 11.542H131.112V13.888ZM139.17 19.18C138.69 19.18 138.288 19.092 137.964 18.916C137.64 18.736 137.394 18.5 137.226 18.208C137.062 17.912 136.98 17.588 136.98 17.236C136.98 16.908 137.038 16.62 137.154 16.372C137.27 16.124 137.442 15.914 137.67 15.742C137.898 15.566 138.178 15.424 138.51 15.316C138.798 15.232 139.124 15.158 139.488 15.094C139.852 15.03 140.234 14.97 140.634 14.914C141.038 14.858 141.438 14.802 141.834 14.746L141.378 14.998C141.386 14.49 141.278 14.114 141.054 13.87C140.834 13.622 140.454 13.498 139.914 13.498C139.574 13.498 139.262 13.578 138.978 13.738C138.694 13.894 138.496 14.154 138.384 14.518L137.214 14.158C137.374 13.602 137.678 13.16 138.126 12.832C138.578 12.504 139.178 12.34 139.926 12.34C140.506 12.34 141.01 12.44 141.438 12.64C141.87 12.836 142.186 13.148 142.386 13.576C142.49 13.788 142.554 14.012 142.578 14.248C142.602 14.484 142.614 14.738 142.614 15.01V19H141.504V17.518L141.72 17.71C141.452 18.206 141.11 18.576 140.694 18.82C140.282 19.06 139.774 19.18 139.17 19.18ZM139.392 18.154C139.748 18.154 140.054 18.092 140.31 17.968C140.566 17.84 140.772 17.678 140.928 17.482C141.084 17.286 141.186 17.082 141.234 16.87C141.302 16.678 141.34 16.462 141.348 16.222C141.36 15.982 141.366 15.79 141.366 15.646L141.774 15.796C141.378 15.856 141.018 15.91 140.694 15.958C140.37 16.006 140.076 16.054 139.812 16.102C139.552 16.146 139.32 16.2 139.116 16.264C138.944 16.324 138.79 16.396 138.654 16.48C138.522 16.564 138.416 16.666 138.336 16.786C138.26 16.906 138.222 17.052 138.222 17.224C138.222 17.392 138.264 17.548 138.348 17.692C138.432 17.832 138.56 17.944 138.732 18.028C138.904 18.112 139.124 18.154 139.392 18.154ZM148.72 19V15.814C148.72 15.562 148.698 15.304 148.654 15.04C148.614 14.772 148.534 14.524 148.414 14.296C148.298 14.068 148.132 13.884 147.916 13.744C147.704 13.604 147.426 13.534 147.082 13.534C146.858 13.534 146.646 13.572 146.446 13.648C146.246 13.72 146.07 13.838 145.918 14.002C145.77 14.166 145.652 14.382 145.564 14.65C145.48 14.918 145.438 15.244 145.438 15.628L144.658 15.334C144.658 14.746 144.768 14.228 144.988 13.78C145.208 13.328 145.524 12.976 145.936 12.724C146.348 12.472 146.846 12.346 147.43 12.346C147.878 12.346 148.254 12.418 148.558 12.562C148.862 12.706 149.108 12.896 149.296 13.132C149.488 13.364 149.634 13.618 149.734 13.894C149.834 14.17 149.902 14.44 149.938 14.704C149.974 14.968 149.992 15.2 149.992 15.4V19H148.72ZM144.166 19V12.52H145.288V14.392H145.438V19H144.166ZM151.549 19L151.555 10.36H152.827V15.64L155.371 12.52H156.967L154.279 15.76L157.243 19H155.539L152.827 15.88V19H151.549ZM160.25 19V10.36H163.742C163.826 10.36 163.93 10.364 164.054 10.372C164.178 10.376 164.296 10.388 164.408 10.408C164.888 10.484 165.288 10.648 165.608 10.9C165.932 11.152 166.174 11.47 166.334 11.854C166.494 12.238 166.574 12.662 166.574 13.126C166.574 13.814 166.398 14.408 166.046 14.908C165.694 15.404 165.166 15.714 164.462 15.838L163.952 15.898H161.504V19H160.25ZM165.302 19L163.598 15.484L164.864 15.16L166.736 19H165.302ZM161.504 14.71H163.694C163.774 14.71 163.862 14.706 163.958 14.698C164.058 14.69 164.152 14.676 164.24 14.656C164.496 14.596 164.702 14.486 164.858 14.326C165.014 14.162 165.126 13.974 165.194 13.762C165.262 13.55 165.296 13.338 165.296 13.126C165.296 12.914 165.262 12.704 165.194 12.496C165.126 12.284 165.014 12.098 164.858 11.938C164.702 11.774 164.496 11.662 164.24 11.602C164.152 11.578 164.058 11.562 163.958 11.554C163.862 11.546 163.774 11.542 163.694 11.542H161.504V14.71ZM170.929 19.18C170.285 19.18 169.719 19.04 169.231 18.76C168.747 18.476 168.369 18.082 168.097 17.578C167.829 17.07 167.695 16.482 167.695 15.814C167.695 15.106 167.827 14.492 168.091 13.972C168.359 13.452 168.731 13.05 169.207 12.766C169.683 12.482 170.237 12.34 170.869 12.34C171.529 12.34 172.091 12.494 172.555 12.802C173.019 13.106 173.365 13.54 173.593 14.104C173.825 14.668 173.917 15.338 173.869 16.114H172.615V15.658C172.607 14.906 172.463 14.35 172.183 13.99C171.907 13.63 171.485 13.45 170.917 13.45C170.289 13.45 169.817 13.648 169.501 14.044C169.185 14.44 169.027 15.012 169.027 15.76C169.027 16.472 169.185 17.024 169.501 17.416C169.817 17.804 170.273 17.998 170.869 17.998C171.261 17.998 171.599 17.91 171.883 17.734C172.171 17.554 172.395 17.298 172.555 16.966L173.785 17.356C173.533 17.936 173.151 18.386 172.639 18.706C172.127 19.022 171.557 19.18 170.929 19.18ZM168.619 16.114V15.136H173.245V16.114H168.619ZM177.987 19.18C177.323 19.18 176.759 19.032 176.295 18.736C175.831 18.44 175.475 18.034 175.227 17.518C174.983 17.002 174.859 16.416 174.855 15.76C174.859 15.092 174.987 14.502 175.239 13.99C175.491 13.474 175.851 13.07 176.319 12.778C176.787 12.486 177.349 12.34 178.005 12.34C178.713 12.34 179.317 12.516 179.817 12.868C180.321 13.22 180.653 13.702 180.813 14.314L179.565 14.674C179.441 14.31 179.237 14.028 178.953 13.828C178.673 13.624 178.351 13.522 177.987 13.522C177.575 13.522 177.237 13.62 176.973 13.816C176.709 14.008 176.513 14.272 176.385 14.608C176.257 14.944 176.191 15.328 176.187 15.76C176.191 16.428 176.343 16.968 176.643 17.38C176.947 17.792 177.395 17.998 177.987 17.998C178.391 17.998 178.717 17.906 178.965 17.722C179.217 17.534 179.409 17.266 179.541 16.918L180.813 17.218C180.601 17.85 180.251 18.336 179.763 18.676C179.275 19.012 178.683 19.18 177.987 19.18ZM184.674 19.18C184.026 19.18 183.464 19.034 182.988 18.742C182.512 18.45 182.144 18.048 181.884 17.536C181.628 17.02 181.5 16.426 181.5 15.754C181.5 15.078 181.632 14.484 181.896 13.972C182.16 13.456 182.53 13.056 183.006 12.772C183.482 12.484 184.038 12.34 184.674 12.34C185.322 12.34 185.884 12.486 186.36 12.778C186.836 13.07 187.204 13.472 187.464 13.984C187.724 14.496 187.854 15.086 187.854 15.754C187.854 16.43 187.722 17.026 187.458 17.542C187.198 18.054 186.83 18.456 186.354 18.748C185.878 19.036 185.318 19.18 184.674 19.18ZM184.674 17.998C185.294 17.998 185.756 17.79 186.06 17.374C186.368 16.954 186.522 16.414 186.522 15.754C186.522 15.078 186.366 14.538 186.054 14.134C185.746 13.726 185.286 13.522 184.674 13.522C184.254 13.522 183.908 13.618 183.636 13.81C183.364 13.998 183.162 14.26 183.03 14.596C182.898 14.928 182.832 15.314 182.832 15.754C182.832 16.434 182.988 16.978 183.3 17.386C183.612 17.794 184.07 17.998 184.674 17.998ZM193.72 19V15.814C193.72 15.562 193.698 15.304 193.654 15.04C193.614 14.772 193.534 14.524 193.414 14.296C193.298 14.068 193.132 13.884 192.916 13.744C192.704 13.604 192.426 13.534 192.082 13.534C191.858 13.534 191.646 13.572 191.446 13.648C191.246 13.72 191.07 13.838 190.918 14.002C190.77 14.166 190.652 14.382 190.564 14.65C190.48 14.918 190.438 15.244 190.438 15.628L189.658 15.334C189.658 14.746 189.768 14.228 189.988 13.78C190.208 13.328 190.524 12.976 190.936 12.724C191.348 12.472 191.846 12.346 192.43 12.346C192.878 12.346 193.254 12.418 193.558 12.562C193.862 12.706 194.108 12.896 194.296 13.132C194.488 13.364 194.634 13.618 194.734 13.894C194.834 14.17 194.902 14.44 194.938 14.704C194.974 14.968 194.992 15.2 194.992 15.4V19H193.72ZM189.166 19V12.52H190.288V14.392H190.438V19H189.166ZM199.245 19.18C198.581 19.18 198.017 19.032 197.553 18.736C197.089 18.44 196.733 18.034 196.485 17.518C196.241 17.002 196.117 16.416 196.113 15.76C196.117 15.092 196.245 14.502 196.497 13.99C196.749 13.474 197.109 13.07 197.577 12.778C198.045 12.486 198.607 12.34 199.263 12.34C199.971 12.34 200.575 12.516 201.075 12.868C201.579 13.22 201.911 13.702 202.071 14.314L200.823 14.674C200.699 14.31 200.495 14.028 200.211 13.828C199.931 13.624 199.609 13.522 199.245 13.522C198.833 13.522 198.495 13.62 198.231 13.816C197.967 14.008 197.771 14.272 197.643 14.608C197.515 14.944 197.449 15.328 197.445 15.76C197.449 16.428 197.601 16.968 197.901 17.38C198.205 17.792 198.653 17.998 199.245 17.998C199.649 17.998 199.975 17.906 200.223 17.722C200.475 17.534 200.667 17.266 200.799 16.918L202.071 17.218C201.859 17.85 201.509 18.336 201.021 18.676C200.533 19.012 199.941 19.18 199.245 19.18ZM203.237 11.458V10.24H204.491V11.458H203.237ZM203.237 19V12.52H204.491V19H203.237ZM206.413 19V10.18H207.667V19H206.413ZM209.589 11.458V10.24H210.843V11.458H209.589ZM209.589 19V12.52H210.843V19H209.589ZM214.475 19.18C213.995 19.18 213.593 19.092 213.269 18.916C212.945 18.736 212.699 18.5 212.531 18.208C212.367 17.912 212.285 17.588 212.285 17.236C212.285 16.908 212.343 16.62 212.459 16.372C212.575 16.124 212.747 15.914 212.975 15.742C213.203 15.566 213.483 15.424 213.815 15.316C214.103 15.232 214.429 15.158 214.793 15.094C215.157 15.03 215.539 14.97 215.939 14.914C216.343 14.858 216.743 14.802 217.139 14.746L216.683 14.998C216.691 14.49 216.583 14.114 216.359 13.87C216.139 13.622 215.759 13.498 215.219 13.498C214.879 13.498 214.567 13.578 214.283 13.738C213.999 13.894 213.801 14.154 213.689 14.518L212.519 14.158C212.679 13.602 212.983 13.16 213.431 12.832C213.883 12.504 214.483 12.34 215.231 12.34C215.811 12.34 216.315 12.44 216.743 12.64C217.175 12.836 217.491 13.148 217.691 13.576C217.795 13.788 217.859 14.012 217.883 14.248C217.907 14.484 217.919 14.738 217.919 15.01V19H216.809V17.518L217.025 17.71C216.757 18.206 216.415 18.576 215.999 18.82C215.587 19.06 215.079 19.18 214.475 19.18ZM214.697 18.154C215.053 18.154 215.359 18.092 215.615 17.968C215.871 17.84 216.077 17.678 216.233 17.482C216.389 17.286 216.491 17.082 216.539 16.87C216.607 16.678 216.645 16.462 216.653 16.222C216.665 15.982 216.671 15.79 216.671 15.646L217.079 15.796C216.683 15.856 216.323 15.91 215.999 15.958C215.675 16.006 215.381 16.054 215.117 16.102C214.857 16.146 214.625 16.2 214.421 16.264C214.249 16.324 214.095 16.396 213.959 16.48C213.827 16.564 213.721 16.666 213.641 16.786C213.565 16.906 213.527 17.052 213.527 17.224C213.527 17.392 213.569 17.548 213.653 17.692C213.737 17.832 213.865 17.944 214.037 18.028C214.209 18.112 214.429 18.154 214.697 18.154ZM223.185 19C222.777 19.08 222.377 19.114 221.985 19.102C221.593 19.09 221.243 19.014 220.935 18.874C220.627 18.734 220.395 18.514 220.239 18.214C220.099 17.946 220.023 17.674 220.011 17.398C220.003 17.118 219.999 16.802 219.999 16.45V10.72H221.259V16.39C221.259 16.65 221.261 16.876 221.265 17.068C221.273 17.26 221.315 17.422 221.391 17.554C221.535 17.802 221.763 17.944 222.075 17.98C222.391 18.012 222.761 17.998 223.185 17.938V19ZM218.757 13.528V12.52H223.185V13.528H218.757ZM224.671 11.458V10.24H225.925V11.458H224.671ZM224.671 19V12.52H225.925V19H224.671ZM230.541 19.18C229.893 19.18 229.331 19.034 228.855 18.742C228.379 18.45 228.011 18.048 227.751 17.536C227.495 17.02 227.367 16.426 227.367 15.754C227.367 15.078 227.499 14.484 227.763 13.972C228.027 13.456 228.397 13.056 228.873 12.772C229.349 12.484 229.905 12.34 230.541 12.34C231.189 12.34 231.751 12.486 232.227 12.778C232.703 13.07 233.071 13.472 233.331 13.984C233.591 14.496 233.721 15.086 233.721 15.754C233.721 16.43 233.589 17.026 233.325 17.542C233.065 18.054 232.697 18.456 232.221 18.748C231.745 19.036 231.185 19.18 230.541 19.18ZM230.541 17.998C231.161 17.998 231.623 17.79 231.927 17.374C232.235 16.954 232.389 16.414 232.389 15.754C232.389 15.078 232.233 14.538 231.921 14.134C231.613 13.726 231.153 13.522 230.541 13.522C230.121 13.522 229.775 13.618 229.503 13.81C229.231 13.998 229.029 14.26 228.897 14.596C228.765 14.928 228.699 15.314 228.699 15.754C228.699 16.434 228.855 16.978 229.167 17.386C229.479 17.794 229.937 17.998 230.541 17.998ZM239.587 19V15.814C239.587 15.562 239.565 15.304 239.521 15.04C239.481 14.772 239.401 14.524 239.281 14.296C239.165 14.068 238.999 13.884 238.783 13.744C238.571 13.604 238.293 13.534 237.949 13.534C237.725 13.534 237.513 13.572 237.313 13.648C237.113 13.72 236.937 13.838 236.785 14.002C236.637 14.166 236.519 14.382 236.431 14.65C236.347 14.918 236.305 15.244 236.305 15.628L235.525 15.334C235.525 14.746 235.635 14.228 235.855 13.78C236.075 13.328 236.391 12.976 236.803 12.724C237.215 12.472 237.713 12.346 238.297 12.346C238.745 12.346 239.121 12.418 239.425 12.562C239.729 12.706 239.975 12.896 240.163 13.132C240.355 13.364 240.501 13.618 240.601 13.894C240.701 14.17 240.769 14.44 240.805 14.704C240.841 14.968 240.859 15.2 240.859 15.4V19H239.587ZM235.033 19V12.52H236.155V14.392H236.305V19H235.033Z" fill="#171717"/>
<path d="M248 1H275C282.18 1 288 6.8203 288 14C288 21.1797 282.18 27 275 27H248V1Z" fill="#E4FFF4"/>
<path d="M258.648 10.186C259.204 10.186 259.706 10.32 260.154 10.588C260.602 10.852 260.958 11.216 261.222 11.68C261.486 12.144 261.618 12.674 261.618 13.27V16.018C261.618 16.65 261.486 17.204 261.222 17.68C260.962 18.152 260.598 18.52 260.13 18.784C259.666 19.048 259.13 19.18 258.522 19.18C258.066 19.18 257.638 19.094 257.238 18.922C256.838 18.75 256.49 18.494 256.194 18.154L257.118 17.296C257.282 17.508 257.488 17.678 257.736 17.806C257.984 17.934 258.246 17.998 258.522 17.998C258.878 17.998 259.192 17.912 259.464 17.74C259.74 17.568 259.954 17.344 260.106 17.068C260.258 16.792 260.334 16.496 260.334 16.18V14.596L260.586 14.872C260.338 15.196 260.03 15.452 259.662 15.64C259.294 15.828 258.9 15.922 258.48 15.922C257.94 15.922 257.46 15.798 257.04 15.55C256.62 15.302 256.288 14.964 256.044 14.536C255.8 14.108 255.678 13.624 255.678 13.084C255.678 12.544 255.814 12.056 256.086 11.62C256.358 11.184 256.718 10.836 257.166 10.576C257.614 10.316 258.108 10.186 258.648 10.186ZM258.648 11.398C258.336 11.398 258.05 11.474 257.79 11.626C257.534 11.774 257.33 11.976 257.178 12.232C257.026 12.488 256.95 12.772 256.95 13.084C256.95 13.396 257.026 13.682 257.178 13.942C257.33 14.198 257.534 14.402 257.79 14.554C258.046 14.706 258.33 14.782 258.642 14.782C258.954 14.782 259.238 14.706 259.494 14.554C259.75 14.402 259.954 14.198 260.106 13.942C260.258 13.682 260.334 13.396 260.334 13.084C260.334 12.776 260.258 12.494 260.106 12.238C259.958 11.982 259.756 11.778 259.5 11.626C259.244 11.474 258.96 11.398 258.648 11.398ZM265.477 10.36H266.743L264.439 19H263.173L265.477 10.36ZM269.815 19V11.74L268.189 12.73V11.332L269.815 10.36H271.093V19H269.815ZM276.383 19.18C275.795 19.18 275.275 19.052 274.823 18.796C274.371 18.536 274.015 18.18 273.755 17.728C273.499 17.276 273.371 16.756 273.371 16.168V13.192C273.371 12.604 273.499 12.084 273.755 11.632C274.015 11.18 274.371 10.826 274.823 10.57C275.275 10.31 275.795 10.18 276.383 10.18C276.971 10.18 277.491 10.31 277.943 10.57C278.395 10.826 278.749 11.18 279.005 11.632C279.265 12.084 279.395 12.604 279.395 13.192V16.168C279.395 16.756 279.265 17.276 279.005 17.728C278.749 18.18 278.395 18.536 277.943 18.796C277.491 19.052 276.971 19.18 276.383 19.18ZM276.383 17.98C276.703 17.98 276.993 17.904 277.253 17.752C277.517 17.596 277.727 17.388 277.883 17.128C278.039 16.864 278.117 16.57 278.117 16.246V13.102C278.117 12.782 278.039 12.492 277.883 12.232C277.727 11.968 277.517 11.76 277.253 11.608C276.993 11.452 276.703 11.374 276.383 11.374C276.063 11.374 275.771 11.452 275.507 11.608C275.247 11.76 275.039 11.968 274.883 12.232C274.727 12.492 274.649 12.782 274.649 13.102V16.246C274.649 16.57 274.727 16.864 274.883 17.128C275.039 17.388 275.247 17.596 275.507 17.752C275.771 17.904 276.063 17.98 276.383 17.98Z" fill="#00BA70"/>
<path d="M248 1V27" stroke="#E2E2E2"/>
<rect x="296.5" y="0.5" width="162" height="27" rx="13.5" stroke="#E3E3E3"/>
<path d="M312.614 19.174L310.202 16.774L311.006 15.97L313.406 18.37L312.614 19.174ZM309.446 19.18C308.582 19.18 307.846 18.992 307.238 18.616C306.63 18.236 306.164 17.708 305.84 17.032C305.52 16.356 305.36 15.572 305.36 14.68C305.36 13.788 305.52 13.004 305.84 12.328C306.164 11.652 306.63 11.126 307.238 10.75C307.846 10.37 308.582 10.18 309.446 10.18C310.306 10.18 311.04 10.37 311.648 10.75C312.26 11.126 312.726 11.652 313.046 12.328C313.366 13.004 313.526 13.788 313.526 14.68C313.526 15.572 313.366 16.356 313.046 17.032C312.726 17.708 312.26 18.236 311.648 18.616C311.04 18.992 310.306 19.18 309.446 19.18ZM309.446 17.986C310.058 17.994 310.566 17.86 310.97 17.584C311.378 17.304 311.684 16.916 311.888 16.42C312.092 15.92 312.194 15.34 312.194 14.68C312.194 14.02 312.092 13.444 311.888 12.952C311.684 12.456 311.378 12.07 310.97 11.794C310.566 11.518 310.058 11.378 309.446 11.374C308.834 11.366 308.324 11.5 307.916 11.776C307.512 12.052 307.208 12.44 307.004 12.94C306.8 13.44 306.696 14.02 306.692 14.68C306.688 15.34 306.788 15.918 306.992 16.414C307.196 16.906 307.502 17.29 307.91 17.566C308.322 17.842 308.834 17.982 309.446 17.986ZM317.165 19.174C316.717 19.174 316.341 19.102 316.037 18.958C315.733 18.814 315.485 18.626 315.293 18.394C315.105 18.158 314.961 17.902 314.861 17.626C314.761 17.35 314.693 17.08 314.657 16.816C314.621 16.552 314.603 16.32 314.603 16.12V12.52H315.875V15.706C315.875 15.958 315.895 16.218 315.935 16.486C315.979 16.75 316.059 16.996 316.175 17.224C316.295 17.452 316.461 17.636 316.673 17.776C316.889 17.916 317.169 17.986 317.513 17.986C317.737 17.986 317.949 17.95 318.149 17.878C318.349 17.802 318.523 17.682 318.671 17.518C318.823 17.354 318.941 17.138 319.025 16.87C319.113 16.602 319.157 16.276 319.157 15.892L319.937 16.186C319.937 16.774 319.827 17.294 319.607 17.746C319.387 18.194 319.071 18.544 318.659 18.796C318.247 19.048 317.749 19.174 317.165 19.174ZM319.307 19V17.128H319.157V12.52H320.423V19H319.307ZM322.226 11.458V10.24H323.48V11.458H322.226ZM322.226 19V12.52H323.48V19H322.226ZM328.053 19.18C327.389 19.18 326.825 19.032 326.361 18.736C325.897 18.44 325.541 18.034 325.293 17.518C325.049 17.002 324.925 16.416 324.921 15.76C324.925 15.092 325.053 14.502 325.305 13.99C325.557 13.474 325.917 13.07 326.385 12.778C326.853 12.486 327.415 12.34 328.071 12.34C328.779 12.34 329.383 12.516 329.883 12.868C330.387 13.22 330.719 13.702 330.879 14.314L329.631 14.674C329.507 14.31 329.303 14.028 329.019 13.828C328.739 13.624 328.417 13.522 328.053 13.522C327.641 13.522 327.303 13.62 327.039 13.816C326.775 14.008 326.579 14.272 326.451 14.608C326.323 14.944 326.257 15.328 326.253 15.76C326.257 16.428 326.409 16.968 326.709 17.38C327.013 17.792 327.461 17.998 328.053 17.998C328.457 17.998 328.783 17.906 329.031 17.722C329.283 17.534 329.475 17.266 329.607 16.918L330.879 17.218C330.667 17.85 330.317 18.336 329.829 18.676C329.341 19.012 328.749 19.18 328.053 19.18ZM332.096 19L332.102 10.36H333.374V15.64L335.918 12.52H337.514L334.826 15.76L337.79 19H336.086L333.374 15.88V19H332.096ZM341.437 19.18C340.817 19.18 340.297 19.03 339.877 18.73C339.457 18.426 339.139 18.016 338.923 17.5C338.707 16.984 338.599 16.402 338.599 15.754C338.599 15.106 338.705 14.524 338.917 14.008C339.133 13.492 339.449 13.086 339.865 12.79C340.285 12.49 340.801 12.34 341.413 12.34C342.021 12.34 342.545 12.49 342.985 12.79C343.429 13.086 343.771 13.492 344.011 14.008C344.251 14.52 344.371 15.102 344.371 15.754C344.371 16.402 344.251 16.986 344.011 17.506C343.775 18.022 343.437 18.43 342.997 18.73C342.561 19.03 342.041 19.18 341.437 19.18ZM338.389 19V10.36H339.649V14.338H339.505V19H338.389ZM341.263 18.046C341.663 18.046 341.993 17.944 342.253 17.74C342.517 17.536 342.713 17.262 342.841 16.918C342.973 16.57 343.039 16.182 343.039 15.754C343.039 15.33 342.973 14.946 342.841 14.602C342.713 14.258 342.515 13.984 342.247 13.78C341.979 13.576 341.637 13.474 341.221 13.474C340.829 13.474 340.505 13.57 340.249 13.762C339.997 13.954 339.809 14.222 339.685 14.566C339.565 14.91 339.505 15.306 339.505 15.754C339.505 16.202 339.565 16.598 339.685 16.942C339.805 17.286 339.995 17.556 340.255 17.752C340.515 17.948 340.851 18.046 341.263 18.046ZM348.509 19.18C347.861 19.18 347.299 19.034 346.823 18.742C346.347 18.45 345.979 18.048 345.719 17.536C345.463 17.02 345.335 16.426 345.335 15.754C345.335 15.078 345.467 14.484 345.731 13.972C345.995 13.456 346.365 13.056 346.841 12.772C347.317 12.484 347.873 12.34 348.509 12.34C349.157 12.34 349.719 12.486 350.195 12.778C350.671 13.07 351.039 13.472 351.299 13.984C351.559 14.496 351.689 15.086 351.689 15.754C351.689 16.43 351.557 17.026 351.293 17.542C351.033 18.054 350.665 18.456 350.189 18.748C349.713 19.036 349.153 19.18 348.509 19.18ZM348.509 17.998C349.129 17.998 349.591 17.79 349.895 17.374C350.203 16.954 350.357 16.414 350.357 15.754C350.357 15.078 350.201 14.538 349.889 14.134C349.581 13.726 349.121 13.522 348.509 13.522C348.089 13.522 347.743 13.618 347.471 13.81C347.199 13.998 346.997 14.26 346.865 14.596C346.733 14.928 346.667 15.314 346.667 15.754C346.667 16.434 346.823 16.978 347.135 17.386C347.447 17.794 347.905 17.998 348.509 17.998ZM355.822 19.18C355.174 19.18 354.612 19.034 354.136 18.742C353.66 18.45 353.292 18.048 353.032 17.536C352.776 17.02 352.648 16.426 352.648 15.754C352.648 15.078 352.78 14.484 353.044 13.972C353.308 13.456 353.678 13.056 354.154 12.772C354.63 12.484 355.186 12.34 355.822 12.34C356.47 12.34 357.032 12.486 357.508 12.778C357.984 13.07 358.352 13.472 358.612 13.984C358.872 14.496 359.002 15.086 359.002 15.754C359.002 16.43 358.87 17.026 358.606 17.542C358.346 18.054 357.978 18.456 357.502 18.748C357.026 19.036 356.466 19.18 355.822 19.18ZM355.822 17.998C356.442 17.998 356.904 17.79 357.208 17.374C357.516 16.954 357.67 16.414 357.67 15.754C357.67 15.078 357.514 14.538 357.202 14.134C356.894 13.726 356.434 13.522 355.822 13.522C355.402 13.522 355.056 13.618 354.784 13.81C354.512 13.998 354.31 14.26 354.178 14.596C354.046 14.928 353.98 15.314 353.98 15.754C353.98 16.434 354.136 16.978 354.448 17.386C354.76 17.794 355.218 17.998 355.822 17.998ZM360.314 19L360.32 10.36H361.592V15.64L364.136 12.52H365.732L363.044 15.76L366.008 19H364.304L361.592 15.88V19H360.314ZM368.974 19.174C368.186 19.174 367.544 19 367.048 18.652C366.552 18.304 366.248 17.814 366.136 17.182L367.42 16.984C367.5 17.32 367.684 17.586 367.972 17.782C368.264 17.974 368.626 18.07 369.058 18.07C369.45 18.07 369.756 17.99 369.976 17.83C370.2 17.67 370.312 17.45 370.312 17.17C370.312 17.006 370.272 16.874 370.192 16.774C370.116 16.67 369.954 16.572 369.706 16.48C369.458 16.388 369.08 16.274 368.572 16.138C368.016 15.994 367.574 15.84 367.246 15.676C366.922 15.508 366.69 15.314 366.55 15.094C366.414 14.87 366.346 14.6 366.346 14.284C366.346 13.892 366.45 13.55 366.658 13.258C366.866 12.966 367.158 12.74 367.534 12.58C367.914 12.42 368.358 12.34 368.866 12.34C369.362 12.34 369.804 12.418 370.192 12.574C370.58 12.73 370.894 12.952 371.134 13.24C371.374 13.524 371.518 13.858 371.566 14.242L370.282 14.476C370.238 14.164 370.092 13.918 369.844 13.738C369.596 13.558 369.274 13.46 368.878 13.444C368.498 13.428 368.19 13.492 367.954 13.636C367.718 13.776 367.6 13.97 367.6 14.218C367.6 14.362 367.644 14.484 367.732 14.584C367.824 14.684 368 14.78 368.26 14.872C368.52 14.964 368.904 15.074 369.412 15.202C369.956 15.342 370.388 15.498 370.708 15.67C371.028 15.838 371.256 16.04 371.392 16.276C371.532 16.508 371.602 16.79 371.602 17.122C371.602 17.762 371.368 18.264 370.9 18.628C370.436 18.992 369.794 19.174 368.974 19.174ZM378.938 19.18C378.074 19.18 377.338 18.992 376.73 18.616C376.122 18.236 375.656 17.708 375.332 17.032C375.012 16.356 374.852 15.572 374.852 14.68C374.852 13.788 375.012 13.004 375.332 12.328C375.656 11.652 376.122 11.126 376.73 10.75C377.338 10.37 378.074 10.18 378.938 10.18C379.798 10.18 380.532 10.37 381.14 10.75C381.752 11.126 382.218 11.652 382.538 12.328C382.858 13.004 383.018 13.788 383.018 14.68C383.018 15.572 382.858 16.356 382.538 17.032C382.218 17.708 381.752 18.236 381.14 18.616C380.532 18.992 379.798 19.18 378.938 19.18ZM378.938 17.986C379.55 17.994 380.058 17.86 380.462 17.584C380.87 17.304 381.176 16.916 381.38 16.42C381.584 15.92 381.686 15.34 381.686 14.68C381.686 14.02 381.584 13.444 381.38 12.952C381.176 12.456 380.87 12.07 380.462 11.794C380.058 11.518 379.55 11.378 378.938 11.374C378.326 11.366 377.816 11.5 377.408 11.776C377.004 12.052 376.7 12.44 376.496 12.94C376.292 13.44 376.188 14.02 376.184 14.68C376.18 15.34 376.28 15.918 376.484 16.414C376.688 16.906 376.994 17.29 377.402 17.566C377.814 17.842 378.326 17.982 378.938 17.986ZM388.763 19V15.814C388.763 15.562 388.741 15.304 388.697 15.04C388.657 14.772 388.577 14.524 388.457 14.296C388.341 14.068 388.175 13.884 387.959 13.744C387.747 13.604 387.469 13.534 387.125 13.534C386.901 13.534 386.689 13.572 386.489 13.648C386.289 13.72 386.113 13.838 385.961 14.002C385.813 14.166 385.695 14.382 385.607 14.65C385.523 14.918 385.481 15.244 385.481 15.628L384.701 15.334C384.701 14.746 384.811 14.228 385.031 13.78C385.251 13.328 385.567 12.976 385.979 12.724C386.391 12.472 386.889 12.346 387.473 12.346C387.921 12.346 388.297 12.418 388.601 12.562C388.905 12.706 389.151 12.896 389.339 13.132C389.531 13.364 389.677 13.618 389.777 13.894C389.877 14.17 389.945 14.44 389.981 14.704C390.017 14.968 390.035 15.2 390.035 15.4V19H388.763ZM384.209 19V12.52H385.331V14.392H385.481V19H384.209ZM391.718 19V10.18H392.972V19H391.718ZM394.894 11.458V10.24H396.148V11.458H394.894ZM394.894 19V12.52H396.148V19H394.894ZM402.497 19V15.814C402.497 15.562 402.475 15.304 402.431 15.04C402.391 14.772 402.311 14.524 402.191 14.296C402.075 14.068 401.909 13.884 401.693 13.744C401.481 13.604 401.203 13.534 400.859 13.534C400.635 13.534 400.423 13.572 400.223 13.648C400.023 13.72 399.847 13.838 399.695 14.002C399.547 14.166 399.429 14.382 399.341 14.65C399.257 14.918 399.215 15.244 399.215 15.628L398.435 15.334C398.435 14.746 398.545 14.228 398.765 13.78C398.985 13.328 399.301 12.976 399.713 12.724C400.125 12.472 400.623 12.346 401.207 12.346C401.655 12.346 402.031 12.418 402.335 12.562C402.639 12.706 402.885 12.896 403.073 13.132C403.265 13.364 403.411 13.618 403.511 13.894C403.611 14.17 403.679 14.44 403.715 14.704C403.751 14.968 403.769 15.2 403.769 15.4V19H402.497ZM397.943 19V12.52H399.065V14.392H399.215V19H397.943ZM408.124 19.18C407.48 19.18 406.914 19.04 406.426 18.76C405.942 18.476 405.564 18.082 405.292 17.578C405.024 17.07 404.89 16.482 404.89 15.814C404.89 15.106 405.022 14.492 405.286 13.972C405.554 13.452 405.926 13.05 406.402 12.766C406.878 12.482 407.432 12.34 408.064 12.34C408.724 12.34 409.286 12.494 409.75 12.802C410.214 13.106 410.56 13.54 410.788 14.104C411.02 14.668 411.112 15.338 411.064 16.114H409.81V15.658C409.802 14.906 409.658 14.35 409.378 13.99C409.102 13.63 408.68 13.45 408.112 13.45C407.484 13.45 407.012 13.648 406.696 14.044C406.38 14.44 406.222 15.012 406.222 15.76C406.222 16.472 406.38 17.024 406.696 17.416C407.012 17.804 407.468 17.998 408.064 17.998C408.456 17.998 408.794 17.91 409.078 17.734C409.366 17.554 409.59 17.298 409.75 16.966L410.98 17.356C410.728 17.936 410.346 18.386 409.834 18.706C409.322 19.022 408.752 19.18 408.124 19.18ZM405.814 16.114V15.136H410.44V16.114H405.814Z" fill="#171717"/>
<rect x="0.5" y="35.5" width="84" height="27" rx="13.5" stroke="#E3E3E3"/>
<path d="M9.84 54V45.36H14.958V46.614H11.094V49.05H14.238V50.31H11.094V54H9.84ZM18.6774 54.18C18.0294 54.18 17.4674 54.034 16.9914 53.742C16.5154 53.45 16.1474 53.048 15.8874 52.536C15.6314 52.02 15.5034 51.426 15.5034 50.754C15.5034 50.078 15.6354 49.484 15.8994 48.972C16.1634 48.456 16.5334 48.056 17.0094 47.772C17.4854 47.484 18.0414 47.34 18.6774 47.34C19.3254 47.34 19.8874 47.486 20.3634 47.778C20.8394 48.07 21.2074 48.472 21.4674 48.984C21.7274 49.496 21.8574 50.086 21.8574 50.754C21.8574 51.43 21.7254 52.026 21.4614 52.542C21.2014 53.054 20.8334 53.456 20.3574 53.748C19.8814 54.036 19.3214 54.18 18.6774 54.18ZM18.6774 52.998C19.2974 52.998 19.7594 52.79 20.0634 52.374C20.3714 51.954 20.5254 51.414 20.5254 50.754C20.5254 50.078 20.3694 49.538 20.0574 49.134C19.7494 48.726 19.2894 48.522 18.6774 48.522C18.2574 48.522 17.9114 48.618 17.6394 48.81C17.3674 48.998 17.1654 49.26 17.0334 49.596C16.9014 49.928 16.8354 50.314 16.8354 50.754C16.8354 51.434 16.9914 51.978 17.3034 52.386C17.6154 52.794 18.0734 52.998 18.6774 52.998ZM23.1759 54V47.52H24.2919V49.092L24.1359 48.888C24.2159 48.68 24.3199 48.49 24.4479 48.318C24.5759 48.142 24.7239 47.998 24.8919 47.886C25.0559 47.766 25.2379 47.674 25.4379 47.61C25.6419 47.542 25.8499 47.502 26.0619 47.49C26.2739 47.474 26.4779 47.484 26.6739 47.52V48.696C26.4619 48.64 26.2259 48.624 25.9659 48.648C25.7099 48.672 25.4739 48.754 25.2579 48.894C25.0539 49.026 24.8919 49.186 24.7719 49.374C24.6559 49.562 24.5719 49.772 24.5199 50.004C24.4679 50.232 24.4419 50.474 24.4419 50.73V54H23.1759ZM35.5806 54L35.5866 49.962C35.5866 49.494 35.4666 49.13 35.2266 48.87C34.9866 48.606 34.6706 48.474 34.2786 48.474C34.0386 48.474 33.8186 48.53 33.6186 48.642C33.4226 48.75 33.2626 48.914 33.1386 49.134C33.0186 49.35 32.9586 49.622 32.9586 49.95L32.3526 49.644C32.3446 49.188 32.4406 48.788 32.6406 48.444C32.8446 48.1 33.1206 47.834 33.4686 47.646C33.8166 47.454 34.2066 47.358 34.6386 47.358C35.3386 47.358 35.8806 47.568 36.2646 47.988C36.6486 48.408 36.8406 48.966 36.8406 49.662L36.8346 54H35.5806ZM27.8106 54V47.52H28.9266V49.392H29.0706V54H27.8106ZM31.6986 54L31.7046 49.986C31.7046 49.514 31.5846 49.144 31.3446 48.876C31.1086 48.608 30.7906 48.474 30.3906 48.474C29.9946 48.474 29.6746 48.61 29.4306 48.882C29.1906 49.154 29.0706 49.51 29.0706 49.95L28.4706 49.566C28.4706 49.142 28.5726 48.764 28.7766 48.432C28.9806 48.1 29.2566 47.838 29.6046 47.646C29.9526 47.454 30.3466 47.358 30.7866 47.358C31.2466 47.358 31.6386 47.456 31.9626 47.652C32.2866 47.844 32.5326 48.114 32.7006 48.462C32.8726 48.81 32.9586 49.214 32.9586 49.674L32.9526 54H31.6986Z" fill="#171717"/>
<path d="M44 36H71C78.1797 36 84 41.8203 84 49C84 56.1797 78.1797 62 71 62H44V36Z" fill="#E4FFF4"/>
<path d="M54.606 54.18C54.042 54.18 53.542 54.068 53.106 53.844C52.674 53.616 52.334 53.3 52.086 52.896C51.842 52.492 51.72 52.024 51.72 51.492C51.72 50.996 51.836 50.542 52.068 50.13C52.3 49.718 52.646 49.394 53.106 49.158L53.082 49.59C52.714 49.362 52.43 49.078 52.23 48.738C52.034 48.394 51.936 48.01 51.936 47.586C51.936 47.094 52.05 46.668 52.278 46.308C52.506 45.948 52.82 45.67 53.22 45.474C53.624 45.278 54.086 45.18 54.606 45.18C55.126 45.18 55.586 45.278 55.986 45.474C56.386 45.67 56.7 45.948 56.928 46.308C57.156 46.668 57.27 47.094 57.27 47.586C57.27 48.01 57.176 48.392 56.988 48.732C56.8 49.072 56.512 49.358 56.124 49.59L56.106 49.17C56.562 49.394 56.908 49.714 57.144 50.13C57.38 50.542 57.498 50.996 57.498 51.492C57.498 52.024 57.374 52.492 57.126 52.896C56.878 53.3 56.536 53.616 56.1 53.844C55.664 54.068 55.166 54.18 54.606 54.18ZM54.606 52.986C55.07 52.986 55.446 52.86 55.734 52.608C56.022 52.352 56.166 51.98 56.166 51.492C56.166 51.004 56.022 50.632 55.734 50.376C55.45 50.116 55.074 49.986 54.606 49.986C54.138 49.986 53.76 50.116 53.472 50.376C53.188 50.632 53.046 51.004 53.046 51.492C53.046 51.98 53.19 52.352 53.478 52.608C53.766 52.86 54.142 52.986 54.606 52.986ZM54.606 48.786C55.002 48.786 55.322 48.688 55.566 48.492C55.814 48.292 55.938 47.99 55.938 47.586C55.938 47.182 55.814 46.88 55.566 46.68C55.322 46.476 55.002 46.374 54.606 46.374C54.21 46.374 53.888 46.476 53.64 46.68C53.392 46.88 53.268 47.182 53.268 47.586C53.268 47.99 53.392 48.292 53.64 48.492C53.888 48.688 54.21 48.786 54.606 48.786ZM61.2428 45.36H62.5088L60.2048 54H58.9388L61.2428 45.36ZM65.5804 54V46.74L63.9544 47.73V46.332L65.5804 45.36H66.8584V54H65.5804ZM72.1489 54.18C71.5609 54.18 71.0409 54.052 70.5889 53.796C70.1369 53.536 69.7809 53.18 69.5209 52.728C69.2649 52.276 69.1369 51.756 69.1369 51.168V48.192C69.1369 47.604 69.2649 47.084 69.5209 46.632C69.7809 46.18 70.1369 45.826 70.5889 45.57C71.0409 45.31 71.5609 45.18 72.1489 45.18C72.7369 45.18 73.2569 45.31 73.7089 45.57C74.1609 45.826 74.5149 46.18 74.7709 46.632C75.0309 47.084 75.1609 47.604 75.1609 48.192V51.168C75.1609 51.756 75.0309 52.276 74.7709 52.728C74.5149 53.18 74.1609 53.536 73.7089 53.796C73.2569 54.052 72.7369 54.18 72.1489 54.18ZM72.1489 52.98C72.4689 52.98 72.7589 52.904 73.0189 52.752C73.2829 52.596 73.4929 52.388 73.6489 52.128C73.8049 51.864 73.8829 51.57 73.8829 51.246V48.102C73.8829 47.782 73.8049 47.492 73.6489 47.232C73.4929 46.968 73.2829 46.76 73.0189 46.608C72.7589 46.452 72.4689 46.374 72.1489 46.374C71.8289 46.374 71.5369 46.452 71.2729 46.608C71.0129 46.76 70.8049 46.968 70.6489 47.232C70.4929 47.492 70.4149 47.782 70.4149 48.102V51.246C70.4149 51.57 70.4929 51.864 70.6489 52.128C70.8049 52.388 71.0129 52.596 71.2729 52.752C71.5369 52.904 71.8289 52.98 72.1489 52.98Z" fill="#00BA70"/>
<path d="M44 36V62" stroke="#E2E2E2"/>
<rect x="92.5" y="35.5" width="130" height="27" rx="13.5" stroke="#E3E3E3"/>
<path d="M101.84 54V45.36H105.332C105.416 45.36 105.52 45.364 105.644 45.372C105.768 45.376 105.886 45.388 105.998 45.408C106.478 45.484 106.878 45.648 107.198 45.9C107.522 46.152 107.764 46.47 107.924 46.854C108.084 47.238 108.164 47.662 108.164 48.126C108.164 48.594 108.084 49.02 107.924 49.404C107.764 49.788 107.522 50.106 107.198 50.358C106.878 50.61 106.478 50.774 105.998 50.85C105.886 50.866 105.766 50.878 105.638 50.886C105.514 50.894 105.412 50.898 105.332 50.898H103.094V54H101.84ZM103.094 49.71H105.284C105.364 49.71 105.452 49.706 105.548 49.698C105.648 49.69 105.742 49.676 105.83 49.656C106.086 49.596 106.292 49.486 106.448 49.326C106.604 49.162 106.716 48.974 106.784 48.762C106.852 48.55 106.886 48.338 106.886 48.126C106.886 47.914 106.852 47.704 106.784 47.496C106.716 47.284 106.604 47.098 106.448 46.938C106.292 46.774 106.086 46.662 105.83 46.602C105.742 46.578 105.648 46.562 105.548 46.554C105.452 46.546 105.364 46.542 105.284 46.542H103.094V49.71ZM110.994 54.18C110.514 54.18 110.112 54.092 109.788 53.916C109.464 53.736 109.218 53.5 109.05 53.208C108.886 52.912 108.804 52.588 108.804 52.236C108.804 51.908 108.862 51.62 108.978 51.372C109.094 51.124 109.266 50.914 109.494 50.742C109.722 50.566 110.002 50.424 110.334 50.316C110.622 50.232 110.948 50.158 111.312 50.094C111.676 50.03 112.058 49.97 112.458 49.914C112.862 49.858 113.262 49.802 113.658 49.746L113.202 49.998C113.21 49.49 113.102 49.114 112.878 48.87C112.658 48.622 112.278 48.498 111.738 48.498C111.398 48.498 111.086 48.578 110.802 48.738C110.518 48.894 110.32 49.154 110.208 49.518L109.038 49.158C109.198 48.602 109.502 48.16 109.95 47.832C110.402 47.504 111.002 47.34 111.75 47.34C112.33 47.34 112.834 47.44 113.262 47.64C113.694 47.836 114.01 48.148 114.21 48.576C114.314 48.788 114.378 49.012 114.402 49.248C114.426 49.484 114.438 49.738 114.438 50.01V54H113.328V52.518L113.544 52.71C113.276 53.206 112.934 53.576 112.518 53.82C112.106 54.06 111.598 54.18 110.994 54.18ZM111.216 53.154C111.572 53.154 111.878 53.092 112.134 52.968C112.39 52.84 112.596 52.678 112.752 52.482C112.908 52.286 113.01 52.082 113.058 51.87C113.126 51.678 113.164 51.462 113.172 51.222C113.184 50.982 113.19 50.79 113.19 50.646L113.598 50.796C113.202 50.856 112.842 50.91 112.518 50.958C112.194 51.006 111.9 51.054 111.636 51.102C111.376 51.146 111.144 51.2 110.94 51.264C110.768 51.324 110.614 51.396 110.478 51.48C110.346 51.564 110.24 51.666 110.16 51.786C110.084 51.906 110.046 52.052 110.046 52.224C110.046 52.392 110.088 52.548 110.172 52.692C110.256 52.832 110.384 52.944 110.556 53.028C110.728 53.112 110.948 53.154 111.216 53.154ZM116.509 56.88L117.763 53.466L117.781 54.474L114.955 47.52H116.263L118.375 52.89H117.991L120.007 47.52H121.279L117.703 56.88H116.509ZM122.219 54V47.52H123.335V49.092L123.179 48.888C123.259 48.68 123.363 48.49 123.491 48.318C123.619 48.142 123.767 47.998 123.935 47.886C124.099 47.766 124.281 47.674 124.481 47.61C124.685 47.542 124.893 47.502 125.105 47.49C125.317 47.474 125.521 47.484 125.717 47.52V48.696C125.505 48.64 125.269 48.624 125.009 48.648C124.753 48.672 124.517 48.754 124.301 48.894C124.097 49.026 123.935 49.186 123.815 49.374C123.699 49.562 123.615 49.772 123.563 50.004C123.511 50.232 123.485 50.474 123.485 50.73V54H122.219ZM129.556 54.18C128.908 54.18 128.346 54.034 127.87 53.742C127.394 53.45 127.026 53.048 126.766 52.536C126.51 52.02 126.382 51.426 126.382 50.754C126.382 50.078 126.514 49.484 126.778 48.972C127.042 48.456 127.412 48.056 127.888 47.772C128.364 47.484 128.92 47.34 129.556 47.34C130.204 47.34 130.766 47.486 131.242 47.778C131.718 48.07 132.086 48.472 132.346 48.984C132.606 49.496 132.736 50.086 132.736 50.754C132.736 51.43 132.604 52.026 132.34 52.542C132.08 53.054 131.712 53.456 131.236 53.748C130.76 54.036 130.2 54.18 129.556 54.18ZM129.556 52.998C130.176 52.998 130.638 52.79 130.942 52.374C131.25 51.954 131.404 51.414 131.404 50.754C131.404 50.078 131.248 49.538 130.936 49.134C130.628 48.726 130.168 48.522 129.556 48.522C129.136 48.522 128.79 48.618 128.518 48.81C128.246 48.998 128.044 49.26 127.912 49.596C127.78 49.928 127.714 50.314 127.714 50.754C127.714 51.434 127.87 51.978 128.182 52.386C128.494 52.794 128.952 52.998 129.556 52.998ZM134.175 54V45.18H135.429V54H134.175ZM137.351 54V45.18H138.605V54H137.351ZM144.963 54V46.542H142.089V45.36H149.091V46.542H146.217V54H144.963ZM151.037 54.18C150.557 54.18 150.155 54.092 149.831 53.916C149.507 53.736 149.261 53.5 149.093 53.208C148.929 52.912 148.847 52.588 148.847 52.236C148.847 51.908 148.905 51.62 149.021 51.372C149.137 51.124 149.309 50.914 149.537 50.742C149.765 50.566 150.045 50.424 150.377 50.316C150.665 50.232 150.991 50.158 151.355 50.094C151.719 50.03 152.101 49.97 152.501 49.914C152.905 49.858 153.305 49.802 153.701 49.746L153.245 49.998C153.253 49.49 153.145 49.114 152.921 48.87C152.701 48.622 152.321 48.498 151.781 48.498C151.441 48.498 151.129 48.578 150.845 48.738C150.561 48.894 150.363 49.154 150.251 49.518L149.081 49.158C149.241 48.602 149.545 48.16 149.993 47.832C150.445 47.504 151.045 47.34 151.793 47.34C152.373 47.34 152.877 47.44 153.305 47.64C153.737 47.836 154.053 48.148 154.253 48.576C154.357 48.788 154.421 49.012 154.445 49.248C154.469 49.484 154.481 49.738 154.481 50.01V54H153.371V52.518L153.587 52.71C153.319 53.206 152.977 53.576 152.561 53.82C152.149 54.06 151.641 54.18 151.037 54.18ZM151.259 53.154C151.615 53.154 151.921 53.092 152.177 52.968C152.433 52.84 152.639 52.678 152.795 52.482C152.951 52.286 153.053 52.082 153.101 51.87C153.169 51.678 153.207 51.462 153.215 51.222C153.227 50.982 153.233 50.79 153.233 50.646L153.641 50.796C153.245 50.856 152.885 50.91 152.561 50.958C152.237 51.006 151.943 51.054 151.679 51.102C151.419 51.146 151.187 51.2 150.983 51.264C150.811 51.324 150.657 51.396 150.521 51.48C150.389 51.564 150.283 51.666 150.203 51.786C150.127 51.906 150.089 52.052 150.089 52.224C150.089 52.392 150.131 52.548 150.215 52.692C150.299 52.832 150.427 52.944 150.599 53.028C150.771 53.112 150.991 53.154 151.259 53.154ZM155.319 54L157.743 50.724L155.373 47.52H156.861L158.475 49.746L160.071 47.52H161.559L159.189 50.724L161.619 54H160.125L158.475 51.702L156.813 54H155.319ZM165.218 54.18C164.574 54.18 164.008 54.04 163.52 53.76C163.036 53.476 162.658 53.082 162.386 52.578C162.118 52.07 161.984 51.482 161.984 50.814C161.984 50.106 162.116 49.492 162.38 48.972C162.648 48.452 163.02 48.05 163.496 47.766C163.972 47.482 164.526 47.34 165.158 47.34C165.818 47.34 166.38 47.494 166.844 47.802C167.308 48.106 167.654 48.54 167.882 49.104C168.114 49.668 168.206 50.338 168.158 51.114H166.904V50.658C166.896 49.906 166.752 49.35 166.472 48.99C166.196 48.63 165.774 48.45 165.206 48.45C164.578 48.45 164.106 48.648 163.79 49.044C163.474 49.44 163.316 50.012 163.316 50.76C163.316 51.472 163.474 52.024 163.79 52.416C164.106 52.804 164.562 52.998 165.158 52.998C165.55 52.998 165.888 52.91 166.172 52.734C166.46 52.554 166.684 52.298 166.844 51.966L168.074 52.356C167.822 52.936 167.44 53.386 166.928 53.706C166.416 54.022 165.846 54.18 165.218 54.18ZM162.908 51.114V50.136H167.534V51.114H162.908ZM171.982 54.174C171.194 54.174 170.552 54 170.056 53.652C169.56 53.304 169.256 52.814 169.144 52.182L170.428 51.984C170.508 52.32 170.692 52.586 170.98 52.782C171.272 52.974 171.634 53.07 172.066 53.07C172.458 53.07 172.764 52.99 172.984 52.83C173.208 52.67 173.32 52.45 173.32 52.17C173.32 52.006 173.28 51.874 173.2 51.774C173.124 51.67 172.962 51.572 172.714 51.48C172.466 51.388 172.088 51.274 171.58 51.138C171.024 50.994 170.582 50.84 170.254 50.676C169.93 50.508 169.698 50.314 169.558 50.094C169.422 49.87 169.354 49.6 169.354 49.284C169.354 48.892 169.458 48.55 169.666 48.258C169.874 47.966 170.166 47.74 170.542 47.58C170.922 47.42 171.366 47.34 171.874 47.34C172.37 47.34 172.812 47.418 173.2 47.574C173.588 47.73 173.902 47.952 174.142 48.24C174.382 48.524 174.526 48.858 174.574 49.242L173.29 49.476C173.246 49.164 173.1 48.918 172.852 48.738C172.604 48.558 172.282 48.46 171.886 48.444C171.506 48.428 171.198 48.492 170.962 48.636C170.726 48.776 170.608 48.97 170.608 49.218C170.608 49.362 170.652 49.484 170.74 49.584C170.832 49.684 171.008 49.78 171.268 49.872C171.528 49.964 171.912 50.074 172.42 50.202C172.964 50.342 173.396 50.498 173.716 50.67C174.036 50.838 174.264 51.04 174.4 51.276C174.54 51.508 174.61 51.79 174.61 52.122C174.61 52.762 174.376 53.264 173.908 53.628C173.444 53.992 172.802 54.174 171.982 54.174Z" fill="#171717"/>
<path d="M182 36H209C216.18 36 222 41.8203 222 49C222 56.1797 216.18 62 209 62H182V36Z" fill="#E4FFF4"/>
<path d="M192.606 54.18C192.042 54.18 191.542 54.068 191.106 53.844C190.674 53.616 190.334 53.3 190.086 52.896C189.842 52.492 189.72 52.024 189.72 51.492C189.72 50.996 189.836 50.542 190.068 50.13C190.3 49.718 190.646 49.394 191.106 49.158L191.082 49.59C190.714 49.362 190.43 49.078 190.23 48.738C190.034 48.394 189.936 48.01 189.936 47.586C189.936 47.094 190.05 46.668 190.278 46.308C190.506 45.948 190.82 45.67 191.22 45.474C191.624 45.278 192.086 45.18 192.606 45.18C193.126 45.18 193.586 45.278 193.986 45.474C194.386 45.67 194.7 45.948 194.928 46.308C195.156 46.668 195.27 47.094 195.27 47.586C195.27 48.01 195.176 48.392 194.988 48.732C194.8 49.072 194.512 49.358 194.124 49.59L194.106 49.17C194.562 49.394 194.908 49.714 195.144 50.13C195.38 50.542 195.498 50.996 195.498 51.492C195.498 52.024 195.374 52.492 195.126 52.896C194.878 53.3 194.536 53.616 194.1 53.844C193.664 54.068 193.166 54.18 192.606 54.18ZM192.606 52.986C193.07 52.986 193.446 52.86 193.734 52.608C194.022 52.352 194.166 51.98 194.166 51.492C194.166 51.004 194.022 50.632 193.734 50.376C193.45 50.116 193.074 49.986 192.606 49.986C192.138 49.986 191.76 50.116 191.472 50.376C191.188 50.632 191.046 51.004 191.046 51.492C191.046 51.98 191.19 52.352 191.478 52.608C191.766 52.86 192.142 52.986 192.606 52.986ZM192.606 48.786C193.002 48.786 193.322 48.688 193.566 48.492C193.814 48.292 193.938 47.99 193.938 47.586C193.938 47.182 193.814 46.88 193.566 46.68C193.322 46.476 193.002 46.374 192.606 46.374C192.21 46.374 191.888 46.476 191.64 46.68C191.392 46.88 191.268 47.182 191.268 47.586C191.268 47.99 191.392 48.292 191.64 48.492C191.888 48.688 192.21 48.786 192.606 48.786ZM199.243 45.36H200.509L198.205 54H196.939L199.243 45.36ZM203.58 54V46.74L201.954 47.73V46.332L203.58 45.36H204.858V54H203.58ZM210.149 54.18C209.561 54.18 209.041 54.052 208.589 53.796C208.137 53.536 207.781 53.18 207.521 52.728C207.265 52.276 207.137 51.756 207.137 51.168V48.192C207.137 47.604 207.265 47.084 207.521 46.632C207.781 46.18 208.137 45.826 208.589 45.57C209.041 45.31 209.561 45.18 210.149 45.18C210.737 45.18 211.257 45.31 211.709 45.57C212.161 45.826 212.515 46.18 212.771 46.632C213.031 47.084 213.161 47.604 213.161 48.192V51.168C213.161 51.756 213.031 52.276 212.771 52.728C212.515 53.18 212.161 53.536 211.709 53.796C211.257 54.052 210.737 54.18 210.149 54.18ZM210.149 52.98C210.469 52.98 210.759 52.904 211.019 52.752C211.283 52.596 211.493 52.388 211.649 52.128C211.805 51.864 211.883 51.57 211.883 51.246V48.102C211.883 47.782 211.805 47.492 211.649 47.232C211.493 46.968 211.283 46.76 211.019 46.608C210.759 46.452 210.469 46.374 210.149 46.374C209.829 46.374 209.537 46.452 209.273 46.608C209.013 46.76 208.805 46.968 208.649 47.232C208.493 47.492 208.415 47.782 208.415 48.102V51.246C208.415 51.57 208.493 51.864 208.649 52.128C208.805 52.388 209.013 52.596 209.273 52.752C209.537 52.904 209.829 52.98 210.149 52.98Z" fill="#00BA70"/>
<path d="M182 36V62" stroke="#E2E2E2"/>
<rect x="230.5" y="35.5" width="85" height="27" rx="13.5" stroke="#E3E3E3"/>
<path d="M239.84 54V45.36H243.332C243.416 45.36 243.52 45.364 243.644 45.372C243.768 45.376 243.886 45.388 243.998 45.408C244.478 45.484 244.878 45.648 245.198 45.9C245.522 46.152 245.764 46.47 245.924 46.854C246.084 47.238 246.164 47.662 246.164 48.126C246.164 48.814 245.988 49.408 245.636 49.908C245.284 50.404 244.756 50.714 244.052 50.838L243.542 50.898H241.094V54H239.84ZM244.892 54L243.188 50.484L244.454 50.16L246.326 54H244.892ZM241.094 49.71H243.284C243.364 49.71 243.452 49.706 243.548 49.698C243.648 49.69 243.742 49.676 243.83 49.656C244.086 49.596 244.292 49.486 244.448 49.326C244.604 49.162 244.716 48.974 244.784 48.762C244.852 48.55 244.886 48.338 244.886 48.126C244.886 47.914 244.852 47.704 244.784 47.496C244.716 47.284 244.604 47.098 244.448 46.938C244.292 46.774 244.086 46.662 243.83 46.602C243.742 46.578 243.648 46.562 243.548 46.554C243.452 46.546 243.364 46.542 243.284 46.542H241.094V49.71ZM250.063 54.162C249.635 54.162 249.233 54.082 248.857 53.922C248.481 53.758 248.155 53.526 247.879 53.226C247.607 52.926 247.409 52.572 247.285 52.164L248.497 51.828C248.613 52.2 248.815 52.486 249.103 52.686C249.391 52.882 249.711 52.978 250.063 52.974C250.379 52.97 250.657 52.896 250.897 52.752C251.137 52.608 251.325 52.414 251.461 52.17C251.597 51.922 251.665 51.638 251.665 51.318C251.665 50.838 251.515 50.442 251.215 50.13C250.919 49.818 250.531 49.662 250.051 49.662C249.915 49.662 249.775 49.682 249.631 49.722C249.491 49.762 249.359 49.814 249.235 49.878L248.647 48.888L251.695 46.194L251.827 46.554H247.627V45.36H252.823V46.554L250.291 48.99L250.279 48.582C250.823 48.582 251.295 48.704 251.695 48.948C252.095 49.188 252.403 49.516 252.619 49.932C252.839 50.344 252.949 50.806 252.949 51.318C252.949 51.87 252.819 52.36 252.559 52.788C252.303 53.216 251.957 53.552 251.521 53.796C251.089 54.04 250.603 54.162 250.063 54.162ZM257.482 54.18C256.922 54.18 256.418 54.048 255.97 53.784C255.522 53.516 255.166 53.15 254.902 52.686C254.642 52.222 254.512 51.694 254.512 51.102V48.348C254.512 47.72 254.642 47.168 254.902 46.692C255.166 46.216 255.53 45.846 255.994 45.582C256.462 45.318 257 45.186 257.608 45.186C258.064 45.186 258.492 45.272 258.892 45.444C259.292 45.616 259.638 45.872 259.93 46.212L259.012 47.07C258.848 46.858 258.642 46.69 258.394 46.566C258.15 46.438 257.888 46.374 257.608 46.374C257.248 46.374 256.932 46.46 256.66 46.632C256.388 46.8 256.174 47.022 256.018 47.298C255.866 47.574 255.79 47.87 255.79 48.186V49.77L255.544 49.494C255.792 49.17 256.1 48.914 256.468 48.726C256.836 48.538 257.23 48.444 257.65 48.444C258.186 48.444 258.664 48.57 259.084 48.822C259.508 49.07 259.84 49.408 260.08 49.836C260.324 50.264 260.446 50.746 260.446 51.282C260.446 51.822 260.31 52.312 260.038 52.752C259.77 53.188 259.41 53.536 258.958 53.796C258.51 54.052 258.018 54.18 257.482 54.18ZM257.482 52.974C257.794 52.974 258.078 52.898 258.334 52.746C258.59 52.594 258.794 52.39 258.946 52.134C259.098 51.878 259.174 51.594 259.174 51.282C259.174 50.97 259.098 50.686 258.946 50.43C258.798 50.174 258.596 49.97 258.34 49.818C258.084 49.666 257.8 49.59 257.488 49.59C257.176 49.59 256.89 49.666 256.63 49.818C256.374 49.97 256.17 50.174 256.018 50.43C255.866 50.686 255.79 50.97 255.79 51.282C255.79 51.59 255.866 51.872 256.018 52.128C256.17 52.384 256.374 52.59 256.63 52.746C256.886 52.898 257.17 52.974 257.482 52.974ZM264.527 54.18C264.083 54.18 263.669 54.09 263.285 53.91C262.905 53.726 262.579 53.474 262.307 53.154C262.035 52.83 261.841 52.458 261.725 52.038L262.931 51.714C262.999 51.97 263.115 52.192 263.279 52.38C263.447 52.568 263.643 52.714 263.867 52.818C264.091 52.918 264.323 52.968 264.563 52.968C264.879 52.968 265.165 52.892 265.421 52.74C265.681 52.588 265.885 52.384 266.033 52.128C266.185 51.872 266.261 51.59 266.261 51.282C266.261 50.966 266.183 50.68 266.027 50.424C265.875 50.168 265.669 49.966 265.409 49.818C265.153 49.666 264.871 49.59 264.563 49.59C264.211 49.59 263.913 49.66 263.669 49.8C263.425 49.94 263.235 50.102 263.099 50.286L262.007 49.902L262.271 45.36H266.933V46.542H262.913L263.423 46.068L263.213 49.47L262.967 49.152C263.195 48.924 263.467 48.75 263.783 48.63C264.099 48.51 264.413 48.45 264.725 48.45C265.261 48.45 265.739 48.574 266.159 48.822C266.583 49.07 266.917 49.408 267.161 49.836C267.405 50.26 267.527 50.742 267.527 51.282C267.527 51.818 267.389 52.306 267.113 52.746C266.837 53.182 266.471 53.53 266.015 53.79C265.559 54.05 265.063 54.18 264.527 54.18Z" fill="#171717"/>
<path d="M275 36H302C309.18 36 315 41.8203 315 49C315 56.1797 309.18 62 302 62H275V36Z" fill="#E4FFF4"/>
<path d="M285.606 54.18C285.042 54.18 284.542 54.068 284.106 53.844C283.674 53.616 283.334 53.3 283.086 52.896C282.842 52.492 282.72 52.024 282.72 51.492C282.72 50.996 282.836 50.542 283.068 50.13C283.3 49.718 283.646 49.394 284.106 49.158L284.082 49.59C283.714 49.362 283.43 49.078 283.23 48.738C283.034 48.394 282.936 48.01 282.936 47.586C282.936 47.094 283.05 46.668 283.278 46.308C283.506 45.948 283.82 45.67 284.22 45.474C284.624 45.278 285.086 45.18 285.606 45.18C286.126 45.18 286.586 45.278 286.986 45.474C287.386 45.67 287.7 45.948 287.928 46.308C288.156 46.668 288.27 47.094 288.27 47.586C288.27 48.01 288.176 48.392 287.988 48.732C287.8 49.072 287.512 49.358 287.124 49.59L287.106 49.17C287.562 49.394 287.908 49.714 288.144 50.13C288.38 50.542 288.498 50.996 288.498 51.492C288.498 52.024 288.374 52.492 288.126 52.896C287.878 53.3 287.536 53.616 287.1 53.844C286.664 54.068 286.166 54.18 285.606 54.18ZM285.606 52.986C286.07 52.986 286.446 52.86 286.734 52.608C287.022 52.352 287.166 51.98 287.166 51.492C287.166 51.004 287.022 50.632 286.734 50.376C286.45 50.116 286.074 49.986 285.606 49.986C285.138 49.986 284.76 50.116 284.472 50.376C284.188 50.632 284.046 51.004 284.046 51.492C284.046 51.98 284.19 52.352 284.478 52.608C284.766 52.86 285.142 52.986 285.606 52.986ZM285.606 48.786C286.002 48.786 286.322 48.688 286.566 48.492C286.814 48.292 286.938 47.99 286.938 47.586C286.938 47.182 286.814 46.88 286.566 46.68C286.322 46.476 286.002 46.374 285.606 46.374C285.21 46.374 284.888 46.476 284.64 46.68C284.392 46.88 284.268 47.182 284.268 47.586C284.268 47.99 284.392 48.292 284.64 48.492C284.888 48.688 285.21 48.786 285.606 48.786ZM292.243 45.36H293.509L291.205 54H289.939L292.243 45.36ZM296.58 54V46.74L294.954 47.73V46.332L296.58 45.36H297.858V54H296.58ZM303.149 54.18C302.561 54.18 302.041 54.052 301.589 53.796C301.137 53.536 300.781 53.18 300.521 52.728C300.265 52.276 300.137 51.756 300.137 51.168V48.192C300.137 47.604 300.265 47.084 300.521 46.632C300.781 46.18 301.137 45.826 301.589 45.57C302.041 45.31 302.561 45.18 303.149 45.18C303.737 45.18 304.257 45.31 304.709 45.57C305.161 45.826 305.515 46.18 305.771 46.632C306.031 47.084 306.161 47.604 306.161 48.192V51.168C306.161 51.756 306.031 52.276 305.771 52.728C305.515 53.18 305.161 53.536 304.709 53.796C304.257 54.052 303.737 54.18 303.149 54.18ZM303.149 52.98C303.469 52.98 303.759 52.904 304.019 52.752C304.283 52.596 304.493 52.388 304.649 52.128C304.805 51.864 304.883 51.57 304.883 51.246V48.102C304.883 47.782 304.805 47.492 304.649 47.232C304.493 46.968 304.283 46.76 304.019 46.608C303.759 46.452 303.469 46.374 303.149 46.374C302.829 46.374 302.537 46.452 302.273 46.608C302.013 46.76 301.805 46.968 301.649 47.232C301.493 47.492 301.415 47.782 301.415 48.102V51.246C301.415 51.57 301.493 51.864 301.649 52.128C301.805 52.388 302.013 52.596 302.273 52.752C302.537 52.904 302.829 52.98 303.149 52.98Z" fill="#00BA70"/>
<path d="M275 36V62" stroke="#E2E2E2"/>
<rect x="323.5" y="35.5" width="121" height="27" rx="13.5" stroke="#E3E3E3"/>
</svg>
