<svg width="325" height="63" viewBox="0 0 325 63" fill="none" xmlns="http://www.w3.org/2000/svg">
<rect x="0.5" y="0.5" width="131" height="27" rx="13.5" stroke="#E3E3E3"/>
<path d="M91 1H118C125.18 1 131 6.8203 131 14C131 21.1797 125.18 27 118 27H91V1Z" fill="#E4FFF4"/>
<path d="M10.84 19V10.36H11.974L15.106 16.858L18.22 10.36H19.366V18.994H18.178V13.084L15.388 19H14.818L12.022 13.084V19H10.84ZM22.877 19.18C22.397 19.18 21.995 19.092 21.671 18.916C21.347 18.736 21.101 18.5 20.933 18.208C20.769 17.912 20.687 17.588 20.687 17.236C20.687 16.908 20.745 16.62 20.861 16.372C20.977 16.124 21.149 15.914 21.377 15.742C21.605 15.566 21.885 15.424 22.217 15.316C22.505 15.232 22.831 15.158 23.195 15.094C23.559 15.03 23.941 14.97 24.341 14.914C24.745 14.858 25.145 14.802 25.541 14.746L25.085 14.998C25.093 14.49 24.985 14.114 24.761 13.87C24.541 13.622 24.161 13.498 23.621 13.498C23.281 13.498 22.969 13.578 22.685 13.738C22.401 13.894 22.203 14.154 22.091 14.518L20.921 14.158C21.081 13.602 21.385 13.16 21.833 12.832C22.285 12.504 22.885 12.34 23.633 12.34C24.213 12.34 24.717 12.44 25.145 12.64C25.577 12.836 25.893 13.148 26.093 13.576C26.197 13.788 26.261 14.012 26.285 14.248C26.309 14.484 26.321 14.738 26.321 15.01V19H25.211V17.518L25.427 17.71C25.159 18.206 24.817 18.576 24.401 18.82C23.989 19.06 23.481 19.18 22.877 19.18ZM23.099 18.154C23.455 18.154 23.761 18.092 24.017 17.968C24.273 17.84 24.479 17.678 24.635 17.482C24.791 17.286 24.893 17.082 24.941 16.87C25.009 16.678 25.047 16.462 25.055 16.222C25.067 15.982 25.073 15.79 25.073 15.646L25.481 15.796C25.085 15.856 24.725 15.91 24.401 15.958C24.077 16.006 23.783 16.054 23.519 16.102C23.259 16.146 23.027 16.2 22.823 16.264C22.651 16.324 22.497 16.396 22.361 16.48C22.229 16.564 22.123 16.666 22.043 16.786C21.967 16.906 21.929 17.052 21.929 17.224C21.929 17.392 21.971 17.548 22.055 17.692C22.139 17.832 22.267 17.944 22.439 18.028C22.611 18.112 22.831 18.154 23.099 18.154ZM32.4271 19V15.814C32.4271 15.562 32.4051 15.304 32.3611 15.04C32.3211 14.772 32.2411 14.524 32.1211 14.296C32.0051 14.068 31.8391 13.884 31.6231 13.744C31.4111 13.604 31.1331 13.534 30.7891 13.534C30.5651 13.534 30.3531 13.572 30.1531 13.648C29.9531 13.72 29.7771 13.838 29.6251 14.002C29.4771 14.166 29.3591 14.382 29.2711 14.65C29.1871 14.918 29.1451 15.244 29.1451 15.628L28.3651 15.334C28.3651 14.746 28.4751 14.228 28.6951 13.78C28.9151 13.328 29.2311 12.976 29.6431 12.724C30.0551 12.472 30.5531 12.346 31.1371 12.346C31.5851 12.346 31.9611 12.418 32.2651 12.562C32.5691 12.706 32.8151 12.896 33.0031 13.132C33.1951 13.364 33.3411 13.618 33.4411 13.894C33.5411 14.17 33.6091 14.44 33.6451 14.704C33.6811 14.968 33.6991 15.2 33.6991 15.4V19H32.4271ZM27.8731 19V12.52H28.9951V14.392H29.1451V19H27.8731ZM37.0919 19.18C36.6119 19.18 36.2099 19.092 35.8859 18.916C35.5619 18.736 35.3159 18.5 35.1479 18.208C34.9839 17.912 34.9019 17.588 34.9019 17.236C34.9019 16.908 34.9599 16.62 35.0759 16.372C35.1919 16.124 35.3639 15.914 35.5919 15.742C35.8199 15.566 36.0999 15.424 36.4319 15.316C36.7199 15.232 37.0459 15.158 37.4099 15.094C37.7739 15.03 38.1559 14.97 38.5559 14.914C38.9599 14.858 39.3599 14.802 39.7559 14.746L39.2999 14.998C39.3079 14.49 39.1999 14.114 38.9759 13.87C38.7559 13.622 38.3759 13.498 37.8359 13.498C37.4959 13.498 37.1839 13.578 36.8999 13.738C36.6159 13.894 36.4179 14.154 36.3059 14.518L35.1359 14.158C35.2959 13.602 35.5999 13.16 36.0479 12.832C36.4999 12.504 37.0999 12.34 37.8479 12.34C38.4279 12.34 38.9319 12.44 39.3599 12.64C39.7919 12.836 40.1079 13.148 40.3079 13.576C40.4119 13.788 40.4759 14.012 40.4999 14.248C40.5239 14.484 40.5359 14.738 40.5359 15.01V19H39.4259V17.518L39.6419 17.71C39.3739 18.206 39.0319 18.576 38.6159 18.82C38.2039 19.06 37.6959 19.18 37.0919 19.18ZM37.3139 18.154C37.6699 18.154 37.9759 18.092 38.2319 17.968C38.4879 17.84 38.6939 17.678 38.8499 17.482C39.0059 17.286 39.1079 17.082 39.1559 16.87C39.2239 16.678 39.2619 16.462 39.2699 16.222C39.2819 15.982 39.2879 15.79 39.2879 15.646L39.6959 15.796C39.2999 15.856 38.9399 15.91 38.6159 15.958C38.2919 16.006 37.9979 16.054 37.7339 16.102C37.4739 16.146 37.2419 16.2 37.0379 16.264C36.8659 16.324 36.7119 16.396 36.5759 16.48C36.4439 16.564 36.3379 16.666 36.2579 16.786C36.1819 16.906 36.1439 17.052 36.1439 17.224C36.1439 17.392 36.1859 17.548 36.2699 17.692C36.3539 17.832 36.4819 17.944 36.6539 18.028C36.8259 18.112 37.0459 18.154 37.3139 18.154ZM44.7639 22.06C44.4159 22.06 44.0779 22.006 43.7499 21.898C43.4259 21.79 43.1299 21.63 42.8619 21.418C42.5939 21.21 42.3719 20.952 42.1959 20.644L43.3539 20.056C43.4939 20.332 43.6939 20.534 43.9539 20.662C44.2139 20.79 44.4879 20.854 44.7759 20.854C45.1319 20.854 45.4359 20.79 45.6879 20.662C45.9399 20.538 46.1299 20.35 46.2579 20.098C46.3899 19.846 46.4539 19.534 46.4499 19.162V17.35H46.5999V12.52H47.7099V19.174C47.7099 19.346 47.7039 19.51 47.6919 19.666C47.6799 19.822 47.6579 19.978 47.6259 20.134C47.5339 20.57 47.3579 20.93 47.0979 21.214C46.8419 21.498 46.5139 21.71 46.1139 21.85C45.7179 21.99 45.2679 22.06 44.7639 22.06ZM44.6679 19.18C44.0639 19.18 43.5419 19.03 43.1019 18.73C42.6659 18.43 42.3279 18.022 42.0879 17.506C41.8519 16.986 41.7339 16.402 41.7339 15.754C41.7339 15.102 41.8539 14.52 42.0939 14.008C42.3339 13.492 42.6739 13.086 43.1139 12.79C43.5579 12.49 44.0839 12.34 44.6919 12.34C45.3039 12.34 45.8179 12.49 46.2339 12.79C46.6539 13.086 46.9699 13.492 47.1819 14.008C47.3979 14.524 47.5059 15.106 47.5059 15.754C47.5059 16.402 47.3979 16.984 47.1819 17.5C46.9659 18.016 46.6479 18.426 46.2279 18.73C45.8079 19.03 45.2879 19.18 44.6679 19.18ZM44.8419 18.046C45.2539 18.046 45.5899 17.948 45.8499 17.752C46.1099 17.556 46.2999 17.286 46.4199 16.942C46.5399 16.598 46.5999 16.202 46.5999 15.754C46.5999 15.306 46.5379 14.91 46.4139 14.566C46.2939 14.222 46.1059 13.954 45.8499 13.762C45.5979 13.57 45.2759 13.474 44.8839 13.474C44.4679 13.474 44.1259 13.576 43.8579 13.78C43.5899 13.984 43.3899 14.258 43.2579 14.602C43.1299 14.946 43.0659 15.33 43.0659 15.754C43.0659 16.182 43.1299 16.57 43.2579 16.918C43.3899 17.262 43.5859 17.536 43.8459 17.74C44.1099 17.944 44.4419 18.046 44.8419 18.046ZM52.2687 19.18C51.6247 19.18 51.0587 19.04 50.5707 18.76C50.0867 18.476 49.7087 18.082 49.4367 17.578C49.1687 17.07 49.0347 16.482 49.0347 15.814C49.0347 15.106 49.1667 14.492 49.4307 13.972C49.6987 13.452 50.0707 13.05 50.5467 12.766C51.0227 12.482 51.5767 12.34 52.2087 12.34C52.8687 12.34 53.4307 12.494 53.8947 12.802C54.3587 13.106 54.7047 13.54 54.9327 14.104C55.1647 14.668 55.2567 15.338 55.2087 16.114H53.9547V15.658C53.9467 14.906 53.8027 14.35 53.5227 13.99C53.2467 13.63 52.8247 13.45 52.2567 13.45C51.6287 13.45 51.1567 13.648 50.8407 14.044C50.5247 14.44 50.3667 15.012 50.3667 15.76C50.3667 16.472 50.5247 17.024 50.8407 17.416C51.1567 17.804 51.6127 17.998 52.2087 17.998C52.6007 17.998 52.9387 17.91 53.2227 17.734C53.5107 17.554 53.7347 17.298 53.8947 16.966L55.1247 17.356C54.8727 17.936 54.4907 18.386 53.9787 18.706C53.4667 19.022 52.8967 19.18 52.2687 19.18ZM49.9587 16.114V15.136H54.5847V16.114H49.9587ZM64.1431 19L64.1491 14.962C64.1491 14.494 64.0291 14.13 63.7891 13.87C63.5491 13.606 63.2331 13.474 62.8411 13.474C62.6011 13.474 62.3811 13.53 62.1811 13.642C61.9851 13.75 61.8251 13.914 61.7011 14.134C61.5811 14.35 61.5211 14.622 61.5211 14.95L60.9151 14.644C60.9071 14.188 61.0031 13.788 61.2031 13.444C61.4071 13.1 61.6831 12.834 62.0311 12.646C62.3791 12.454 62.7691 12.358 63.2011 12.358C63.9011 12.358 64.4431 12.568 64.8271 12.988C65.2111 13.408 65.4031 13.966 65.4031 14.662L65.3971 19H64.1431ZM56.3731 19V12.52H57.4891V14.392H57.6331V19H56.3731ZM60.2611 19L60.2671 14.986C60.2671 14.514 60.1471 14.144 59.9071 13.876C59.6711 13.608 59.3531 13.474 58.9531 13.474C58.5571 13.474 58.2371 13.61 57.9931 13.882C57.7531 14.154 57.6331 14.51 57.6331 14.95L57.0331 14.566C57.0331 14.142 57.1351 13.764 57.3391 13.432C57.5431 13.1 57.8191 12.838 58.1671 12.646C58.5151 12.454 58.9091 12.358 59.3491 12.358C59.8091 12.358 60.2011 12.456 60.5251 12.652C60.8491 12.844 61.0951 13.114 61.2631 13.462C61.4351 13.81 61.5211 14.214 61.5211 14.674L61.5151 19H60.2611ZM69.7531 19.18C69.1091 19.18 68.5431 19.04 68.0551 18.76C67.5711 18.476 67.1931 18.082 66.9211 17.578C66.6531 17.07 66.5191 16.482 66.5191 15.814C66.5191 15.106 66.6511 14.492 66.9151 13.972C67.1831 13.452 67.5551 13.05 68.0311 12.766C68.5071 12.482 69.0611 12.34 69.6931 12.34C70.3531 12.34 70.9151 12.494 71.3791 12.802C71.8431 13.106 72.1891 13.54 72.4171 14.104C72.6491 14.668 72.7411 15.338 72.6931 16.114H71.4391V15.658C71.4311 14.906 71.2871 14.35 71.0071 13.99C70.7311 13.63 70.3091 13.45 69.7411 13.45C69.1131 13.45 68.6411 13.648 68.3251 14.044C68.0091 14.44 67.8511 15.012 67.8511 15.76C67.8511 16.472 68.0091 17.024 68.3251 17.416C68.6411 17.804 69.0971 17.998 69.6931 17.998C70.0851 17.998 70.4231 17.91 70.7071 17.734C70.9951 17.554 71.2191 17.298 71.3791 16.966L72.6091 17.356C72.3571 17.936 71.9751 18.386 71.4631 18.706C70.9511 19.022 70.3811 19.18 69.7531 19.18ZM67.4431 16.114V15.136H72.0691V16.114H67.4431ZM78.4114 19V15.814C78.4114 15.562 78.3894 15.304 78.3454 15.04C78.3054 14.772 78.2254 14.524 78.1054 14.296C77.9894 14.068 77.8234 13.884 77.6074 13.744C77.3954 13.604 77.1174 13.534 76.7734 13.534C76.5494 13.534 76.3374 13.572 76.1374 13.648C75.9374 13.72 75.7614 13.838 75.6094 14.002C75.4614 14.166 75.3434 14.382 75.2554 14.65C75.1714 14.918 75.1294 15.244 75.1294 15.628L74.3494 15.334C74.3494 14.746 74.4594 14.228 74.6794 13.78C74.8994 13.328 75.2154 12.976 75.6274 12.724C76.0394 12.472 76.5374 12.346 77.1214 12.346C77.5694 12.346 77.9454 12.418 78.2494 12.562C78.5534 12.706 78.7994 12.896 78.9874 13.132C79.1794 13.364 79.3254 13.618 79.4254 13.894C79.5254 14.17 79.5934 14.44 79.6294 14.704C79.6654 14.968 79.6834 15.2 79.6834 15.4V19H78.4114ZM73.8574 19V12.52H74.9794V14.392H75.1294V19H73.8574ZM84.9543 19C84.5463 19.08 84.1463 19.114 83.7543 19.102C83.3623 19.09 83.0123 19.014 82.7043 18.874C82.3963 18.734 82.1643 18.514 82.0083 18.214C81.8683 17.946 81.7923 17.674 81.7803 17.398C81.7723 17.118 81.7683 16.802 81.7683 16.45V10.72H83.0283V16.39C83.0283 16.65 83.0303 16.876 83.0343 17.068C83.0423 17.26 83.0843 17.422 83.1603 17.554C83.3043 17.802 83.5323 17.944 83.8443 17.98C84.1603 18.012 84.5303 17.998 84.9543 17.938V19ZM80.5263 13.528V12.52H84.9543V13.528H80.5263Z" fill="#171717"/>
<path d="M99.648 10.186C100.204 10.186 100.706 10.32 101.154 10.588C101.602 10.852 101.958 11.216 102.222 11.68C102.486 12.144 102.618 12.674 102.618 13.27V16.018C102.618 16.65 102.486 17.204 102.222 17.68C101.962 18.152 101.598 18.52 101.13 18.784C100.666 19.048 100.13 19.18 99.522 19.18C99.066 19.18 98.638 19.094 98.238 18.922C97.838 18.75 97.49 18.494 97.194 18.154L98.118 17.296C98.282 17.508 98.488 17.678 98.736 17.806C98.984 17.934 99.246 17.998 99.522 17.998C99.878 17.998 100.192 17.912 100.464 17.74C100.74 17.568 100.954 17.344 101.106 17.068C101.258 16.792 101.334 16.496 101.334 16.18V14.596L101.586 14.872C101.338 15.196 101.03 15.452 100.662 15.64C100.294 15.828 99.9 15.922 99.48 15.922C98.94 15.922 98.46 15.798 98.04 15.55C97.62 15.302 97.288 14.964 97.044 14.536C96.8 14.108 96.678 13.624 96.678 13.084C96.678 12.544 96.814 12.056 97.086 11.62C97.358 11.184 97.718 10.836 98.166 10.576C98.614 10.316 99.108 10.186 99.648 10.186ZM99.648 11.398C99.336 11.398 99.05 11.474 98.79 11.626C98.534 11.774 98.33 11.976 98.178 12.232C98.026 12.488 97.95 12.772 97.95 13.084C97.95 13.396 98.026 13.682 98.178 13.942C98.33 14.198 98.534 14.402 98.79 14.554C99.046 14.706 99.33 14.782 99.642 14.782C99.954 14.782 100.238 14.706 100.494 14.554C100.75 14.402 100.954 14.198 101.106 13.942C101.258 13.682 101.334 13.396 101.334 13.084C101.334 12.776 101.258 12.494 101.106 12.238C100.958 11.982 100.756 11.778 100.5 11.626C100.244 11.474 99.96 11.398 99.648 11.398ZM106.477 10.36H107.743L105.439 19H104.173L106.477 10.36ZM110.815 19V11.74L109.189 12.73V11.332L110.815 10.36H112.093V19H110.815ZM117.383 19.18C116.795 19.18 116.275 19.052 115.823 18.796C115.371 18.536 115.015 18.18 114.755 17.728C114.499 17.276 114.371 16.756 114.371 16.168V13.192C114.371 12.604 114.499 12.084 114.755 11.632C115.015 11.18 115.371 10.826 115.823 10.57C116.275 10.31 116.795 10.18 117.383 10.18C117.971 10.18 118.491 10.31 118.943 10.57C119.395 10.826 119.749 11.18 120.005 11.632C120.265 12.084 120.395 12.604 120.395 13.192V16.168C120.395 16.756 120.265 17.276 120.005 17.728C119.749 18.18 119.395 18.536 118.943 18.796C118.491 19.052 117.971 19.18 117.383 19.18ZM117.383 17.98C117.703 17.98 117.993 17.904 118.253 17.752C118.517 17.596 118.727 17.388 118.883 17.128C119.039 16.864 119.117 16.57 119.117 16.246V13.102C119.117 12.782 119.039 12.492 118.883 12.232C118.727 11.968 118.517 11.76 118.253 11.608C117.993 11.452 117.703 11.374 117.383 11.374C117.063 11.374 116.771 11.452 116.507 11.608C116.247 11.76 116.039 11.968 115.883 12.232C115.727 12.492 115.649 12.782 115.649 13.102V16.246C115.649 16.57 115.727 16.864 115.883 17.128C116.039 17.388 116.247 17.596 116.507 17.752C116.771 17.904 117.063 17.98 117.383 17.98Z" fill="#00BA70"/>
<path d="M91 1V27" stroke="#E2E2E2"/>
<rect x="139.5" y="0.5" width="148" height="27" rx="13.5" stroke="#E3E3E3"/>
<path d="M247 1H274C281.18 1 287 6.8203 287 14C287 21.1797 281.18 27 274 27H247V1Z" fill="#FFF8EC"/>
<path d="M153.446 19.18C152.582 19.18 151.846 18.992 151.238 18.616C150.63 18.236 150.164 17.708 149.84 17.032C149.52 16.356 149.36 15.572 149.36 14.68C149.36 13.788 149.52 13.004 149.84 12.328C150.164 11.652 150.63 11.126 151.238 10.75C151.846 10.37 152.582 10.18 153.446 10.18C154.442 10.18 155.266 10.432 155.918 10.936C156.574 11.44 157.03 12.118 157.286 12.97L156.014 13.312C155.846 12.708 155.546 12.234 155.114 11.89C154.686 11.546 154.13 11.374 153.446 11.374C152.834 11.374 152.324 11.512 151.916 11.788C151.508 12.064 151.2 12.45 150.992 12.946C150.788 13.442 150.686 14.02 150.686 14.68C150.682 15.34 150.782 15.918 150.986 16.414C151.194 16.91 151.502 17.296 151.91 17.572C152.322 17.848 152.834 17.986 153.446 17.986C154.13 17.986 154.686 17.814 155.114 17.47C155.546 17.122 155.846 16.648 156.014 16.048L157.286 16.39C157.03 17.242 156.574 17.92 155.918 18.424C155.266 18.928 154.442 19.18 153.446 19.18ZM161.42 19.18C160.772 19.18 160.21 19.034 159.734 18.742C159.258 18.45 158.89 18.048 158.63 17.536C158.374 17.02 158.246 16.426 158.246 15.754C158.246 15.078 158.378 14.484 158.642 13.972C158.906 13.456 159.276 13.056 159.752 12.772C160.228 12.484 160.784 12.34 161.42 12.34C162.068 12.34 162.63 12.486 163.106 12.778C163.582 13.07 163.95 13.472 164.21 13.984C164.47 14.496 164.6 15.086 164.6 15.754C164.6 16.43 164.468 17.026 164.204 17.542C163.944 18.054 163.576 18.456 163.1 18.748C162.624 19.036 162.064 19.18 161.42 19.18ZM161.42 17.998C162.04 17.998 162.502 17.79 162.806 17.374C163.114 16.954 163.268 16.414 163.268 15.754C163.268 15.078 163.112 14.538 162.8 14.134C162.492 13.726 162.032 13.522 161.42 13.522C161 13.522 160.654 13.618 160.382 13.81C160.11 13.998 159.908 14.26 159.776 14.596C159.644 14.928 159.578 15.314 159.578 15.754C159.578 16.434 159.734 16.978 160.046 17.386C160.358 17.794 160.816 17.998 161.42 17.998ZM173.682 19L173.688 14.962C173.688 14.494 173.568 14.13 173.328 13.87C173.088 13.606 172.772 13.474 172.38 13.474C172.14 13.474 171.92 13.53 171.72 13.642C171.524 13.75 171.364 13.914 171.24 14.134C171.12 14.35 171.06 14.622 171.06 14.95L170.454 14.644C170.446 14.188 170.542 13.788 170.742 13.444C170.946 13.1 171.222 12.834 171.57 12.646C171.918 12.454 172.308 12.358 172.74 12.358C173.44 12.358 173.982 12.568 174.366 12.988C174.75 13.408 174.942 13.966 174.942 14.662L174.936 19H173.682ZM165.912 19V12.52H167.028V14.392H167.172V19H165.912ZM169.8 19L169.806 14.986C169.806 14.514 169.686 14.144 169.446 13.876C169.21 13.608 168.892 13.474 168.492 13.474C168.096 13.474 167.776 13.61 167.532 13.882C167.292 14.154 167.172 14.51 167.172 14.95L166.572 14.566C166.572 14.142 166.674 13.764 166.878 13.432C167.082 13.1 167.358 12.838 167.706 12.646C168.054 12.454 168.448 12.358 168.888 12.358C169.348 12.358 169.74 12.456 170.064 12.652C170.388 12.844 170.634 13.114 170.802 13.462C170.974 13.81 171.06 14.214 171.06 14.674L171.054 19H169.8ZM184.264 19L184.27 14.962C184.27 14.494 184.15 14.13 183.91 13.87C183.67 13.606 183.354 13.474 182.962 13.474C182.722 13.474 182.502 13.53 182.302 13.642C182.106 13.75 181.946 13.914 181.822 14.134C181.702 14.35 181.642 14.622 181.642 14.95L181.036 14.644C181.028 14.188 181.124 13.788 181.324 13.444C181.528 13.1 181.804 12.834 182.152 12.646C182.5 12.454 182.89 12.358 183.322 12.358C184.022 12.358 184.564 12.568 184.948 12.988C185.332 13.408 185.524 13.966 185.524 14.662L185.518 19H184.264ZM176.494 19V12.52H177.61V14.392H177.754V19H176.494ZM180.382 19L180.388 14.986C180.388 14.514 180.268 14.144 180.028 13.876C179.792 13.608 179.474 13.474 179.074 13.474C178.678 13.474 178.358 13.61 178.114 13.882C177.874 14.154 177.754 14.51 177.754 14.95L177.154 14.566C177.154 14.142 177.256 13.764 177.46 13.432C177.664 13.1 177.94 12.838 178.288 12.646C178.636 12.454 179.03 12.358 179.47 12.358C179.93 12.358 180.322 12.456 180.646 12.652C180.97 12.844 181.216 13.114 181.384 13.462C181.556 13.81 181.642 14.214 181.642 14.674L181.636 19H180.382ZM189.524 19.174C189.076 19.174 188.7 19.102 188.396 18.958C188.092 18.814 187.844 18.626 187.652 18.394C187.464 18.158 187.32 17.902 187.22 17.626C187.12 17.35 187.052 17.08 187.016 16.816C186.98 16.552 186.962 16.32 186.962 16.12V12.52H188.234V15.706C188.234 15.958 188.254 16.218 188.294 16.486C188.338 16.75 188.418 16.996 188.534 17.224C188.654 17.452 188.82 17.636 189.032 17.776C189.248 17.916 189.528 17.986 189.872 17.986C190.096 17.986 190.308 17.95 190.508 17.878C190.708 17.802 190.882 17.682 191.03 17.518C191.182 17.354 191.3 17.138 191.384 16.87C191.472 16.602 191.516 16.276 191.516 15.892L192.296 16.186C192.296 16.774 192.186 17.294 191.966 17.746C191.746 18.194 191.43 18.544 191.018 18.796C190.606 19.048 190.108 19.174 189.524 19.174ZM191.666 19V17.128H191.516V12.52H192.782V19H191.666ZM199.013 19V15.814C199.013 15.562 198.991 15.304 198.947 15.04C198.907 14.772 198.827 14.524 198.707 14.296C198.591 14.068 198.425 13.884 198.209 13.744C197.997 13.604 197.719 13.534 197.375 13.534C197.151 13.534 196.939 13.572 196.739 13.648C196.539 13.72 196.363 13.838 196.211 14.002C196.063 14.166 195.945 14.382 195.857 14.65C195.773 14.918 195.731 15.244 195.731 15.628L194.951 15.334C194.951 14.746 195.061 14.228 195.281 13.78C195.501 13.328 195.817 12.976 196.229 12.724C196.641 12.472 197.139 12.346 197.723 12.346C198.171 12.346 198.547 12.418 198.851 12.562C199.155 12.706 199.401 12.896 199.589 13.132C199.781 13.364 199.927 13.618 200.027 13.894C200.127 14.17 200.195 14.44 200.231 14.704C200.267 14.968 200.285 15.2 200.285 15.4V19H199.013ZM194.459 19V12.52H195.581V14.392H195.731V19H194.459ZM201.968 11.458V10.24H203.222V11.458H201.968ZM201.968 19V12.52H203.222V19H201.968ZM207.796 19.18C207.132 19.18 206.568 19.032 206.104 18.736C205.64 18.44 205.284 18.034 205.036 17.518C204.792 17.002 204.668 16.416 204.664 15.76C204.668 15.092 204.796 14.502 205.048 13.99C205.3 13.474 205.66 13.07 206.128 12.778C206.596 12.486 207.158 12.34 207.814 12.34C208.522 12.34 209.126 12.516 209.626 12.868C210.13 13.22 210.462 13.702 210.622 14.314L209.374 14.674C209.25 14.31 209.046 14.028 208.762 13.828C208.482 13.624 208.16 13.522 207.796 13.522C207.384 13.522 207.046 13.62 206.782 13.816C206.518 14.008 206.322 14.272 206.194 14.608C206.066 14.944 206 15.328 205.996 15.76C206 16.428 206.152 16.968 206.452 17.38C206.756 17.792 207.204 17.998 207.796 17.998C208.2 17.998 208.526 17.906 208.774 17.722C209.026 17.534 209.218 17.266 209.35 16.918L210.622 17.218C210.41 17.85 210.06 18.336 209.572 18.676C209.084 19.012 208.492 19.18 207.796 19.18ZM213.592 19.18C213.112 19.18 212.71 19.092 212.386 18.916C212.062 18.736 211.816 18.5 211.648 18.208C211.484 17.912 211.402 17.588 211.402 17.236C211.402 16.908 211.46 16.62 211.576 16.372C211.692 16.124 211.864 15.914 212.092 15.742C212.32 15.566 212.6 15.424 212.932 15.316C213.22 15.232 213.546 15.158 213.91 15.094C214.274 15.03 214.656 14.97 215.056 14.914C215.46 14.858 215.86 14.802 216.256 14.746L215.8 14.998C215.808 14.49 215.7 14.114 215.476 13.87C215.256 13.622 214.876 13.498 214.336 13.498C213.996 13.498 213.684 13.578 213.4 13.738C213.116 13.894 212.918 14.154 212.806 14.518L211.636 14.158C211.796 13.602 212.1 13.16 212.548 12.832C213 12.504 213.6 12.34 214.348 12.34C214.928 12.34 215.432 12.44 215.86 12.64C216.292 12.836 216.608 13.148 216.808 13.576C216.912 13.788 216.976 14.012 217 14.248C217.024 14.484 217.036 14.738 217.036 15.01V19H215.926V17.518L216.142 17.71C215.874 18.206 215.532 18.576 215.116 18.82C214.704 19.06 214.196 19.18 213.592 19.18ZM213.814 18.154C214.17 18.154 214.476 18.092 214.732 17.968C214.988 17.84 215.194 17.678 215.35 17.482C215.506 17.286 215.608 17.082 215.656 16.87C215.724 16.678 215.762 16.462 215.77 16.222C215.782 15.982 215.788 15.79 215.788 15.646L216.196 15.796C215.8 15.856 215.44 15.91 215.116 15.958C214.792 16.006 214.498 16.054 214.234 16.102C213.974 16.146 213.742 16.2 213.538 16.264C213.366 16.324 213.212 16.396 213.076 16.48C212.944 16.564 212.838 16.666 212.758 16.786C212.682 16.906 212.644 17.052 212.644 17.224C212.644 17.392 212.686 17.548 212.77 17.692C212.854 17.832 212.982 17.944 213.154 18.028C213.326 18.112 213.546 18.154 213.814 18.154ZM222.302 19C221.894 19.08 221.494 19.114 221.102 19.102C220.71 19.09 220.36 19.014 220.052 18.874C219.744 18.734 219.512 18.514 219.356 18.214C219.216 17.946 219.14 17.674 219.128 17.398C219.12 17.118 219.116 16.802 219.116 16.45V10.72H220.376V16.39C220.376 16.65 220.378 16.876 220.382 17.068C220.39 17.26 220.432 17.422 220.508 17.554C220.652 17.802 220.88 17.944 221.192 17.98C221.508 18.012 221.878 17.998 222.302 17.938V19ZM217.874 13.528V12.52H222.302V13.528H217.874ZM223.788 11.458V10.24H225.042V11.458H223.788ZM223.788 19V12.52H225.042V19H223.788ZM229.658 19.18C229.01 19.18 228.448 19.034 227.972 18.742C227.496 18.45 227.128 18.048 226.868 17.536C226.612 17.02 226.484 16.426 226.484 15.754C226.484 15.078 226.616 14.484 226.88 13.972C227.144 13.456 227.514 13.056 227.99 12.772C228.466 12.484 229.022 12.34 229.658 12.34C230.306 12.34 230.868 12.486 231.344 12.778C231.82 13.07 232.188 13.472 232.448 13.984C232.708 14.496 232.838 15.086 232.838 15.754C232.838 16.43 232.706 17.026 232.442 17.542C232.182 18.054 231.814 18.456 231.338 18.748C230.862 19.036 230.302 19.18 229.658 19.18ZM229.658 17.998C230.278 17.998 230.74 17.79 231.044 17.374C231.352 16.954 231.506 16.414 231.506 15.754C231.506 15.078 231.35 14.538 231.038 14.134C230.73 13.726 230.27 13.522 229.658 13.522C229.238 13.522 228.892 13.618 228.62 13.81C228.348 13.998 228.146 14.26 228.014 14.596C227.882 14.928 227.816 15.314 227.816 15.754C227.816 16.434 227.972 16.978 228.284 17.386C228.596 17.794 229.054 17.998 229.658 17.998ZM238.704 19V15.814C238.704 15.562 238.682 15.304 238.638 15.04C238.598 14.772 238.518 14.524 238.398 14.296C238.282 14.068 238.116 13.884 237.9 13.744C237.688 13.604 237.41 13.534 237.066 13.534C236.842 13.534 236.63 13.572 236.43 13.648C236.23 13.72 236.054 13.838 235.902 14.002C235.754 14.166 235.636 14.382 235.548 14.65C235.464 14.918 235.422 15.244 235.422 15.628L234.642 15.334C234.642 14.746 234.752 14.228 234.972 13.78C235.192 13.328 235.508 12.976 235.92 12.724C236.332 12.472 236.83 12.346 237.414 12.346C237.862 12.346 238.238 12.418 238.542 12.562C238.846 12.706 239.092 12.896 239.28 13.132C239.472 13.364 239.618 13.618 239.718 13.894C239.818 14.17 239.886 14.44 239.922 14.704C239.958 14.968 239.976 15.2 239.976 15.4V19H238.704ZM234.15 19V12.52H235.272V14.392H235.422V19H234.15Z" fill="#171717"/>
<path d="M257.402 19.18C256.958 19.18 256.544 19.09 256.16 18.91C255.78 18.726 255.454 18.474 255.182 18.154C254.91 17.83 254.716 17.458 254.6 17.038L255.806 16.714C255.874 16.97 255.99 17.192 256.154 17.38C256.322 17.568 256.518 17.714 256.742 17.818C256.966 17.918 257.198 17.968 257.438 17.968C257.754 17.968 258.04 17.892 258.296 17.74C258.556 17.588 258.76 17.384 258.908 17.128C259.06 16.872 259.136 16.59 259.136 16.282C259.136 15.966 259.058 15.68 258.902 15.424C258.75 15.168 258.544 14.966 258.284 14.818C258.028 14.666 257.746 14.59 257.438 14.59C257.086 14.59 256.788 14.66 256.544 14.8C256.3 14.94 256.11 15.102 255.974 15.286L254.882 14.902L255.146 10.36H259.808V11.542H255.788L256.298 11.068L256.088 14.47L255.842 14.152C256.07 13.924 256.342 13.75 256.658 13.63C256.974 13.51 257.288 13.45 257.6 13.45C258.136 13.45 258.614 13.574 259.034 13.822C259.458 14.07 259.792 14.408 260.036 14.836C260.28 15.26 260.402 15.742 260.402 16.282C260.402 16.818 260.264 17.306 259.988 17.746C259.712 18.182 259.346 18.53 258.89 18.79C258.434 19.05 257.938 19.18 257.402 19.18ZM264.02 10.36H265.286L262.982 19H261.716L264.02 10.36ZM268.358 19V11.74L266.732 12.73V11.332L268.358 10.36H269.636V19H268.358ZM274.926 19.18C274.338 19.18 273.818 19.052 273.366 18.796C272.914 18.536 272.558 18.18 272.298 17.728C272.042 17.276 271.914 16.756 271.914 16.168V13.192C271.914 12.604 272.042 12.084 272.298 11.632C272.558 11.18 272.914 10.826 273.366 10.57C273.818 10.31 274.338 10.18 274.926 10.18C275.514 10.18 276.034 10.31 276.486 10.57C276.938 10.826 277.292 11.18 277.548 11.632C277.808 12.084 277.938 12.604 277.938 13.192V16.168C277.938 16.756 277.808 17.276 277.548 17.728C277.292 18.18 276.938 18.536 276.486 18.796C276.034 19.052 275.514 19.18 274.926 19.18ZM274.926 17.98C275.246 17.98 275.536 17.904 275.796 17.752C276.06 17.596 276.27 17.388 276.426 17.128C276.582 16.864 276.66 16.57 276.66 16.246V13.102C276.66 12.782 276.582 12.492 276.426 12.232C276.27 11.968 276.06 11.76 275.796 11.608C275.536 11.452 275.246 11.374 274.926 11.374C274.606 11.374 274.314 11.452 274.05 11.608C273.79 11.76 273.582 11.968 273.426 12.232C273.27 12.492 273.192 12.782 273.192 13.102V16.246C273.192 16.57 273.27 16.864 273.426 17.128C273.582 17.388 273.79 17.596 274.05 17.752C274.314 17.904 274.606 17.98 274.926 17.98Z" fill="#F1B237"/>
<path d="M247 1V27" stroke="#E2E2E2"/>
<rect x="295.5" y="0.5" width="121" height="27" rx="13.5" stroke="#E3E3E3"/>
<path d="M305.24 19L308.048 10.36H309.854L312.662 19H311.36L308.774 11.116H309.098L306.542 19H305.24ZM306.698 17.05V15.874H311.21V17.05H306.698ZM316.51 19.18C315.846 19.18 315.282 19.032 314.818 18.736C314.354 18.44 313.998 18.034 313.75 17.518C313.506 17.002 313.382 16.416 313.378 15.76C313.382 15.092 313.51 14.502 313.762 13.99C314.014 13.474 314.374 13.07 314.842 12.778C315.31 12.486 315.872 12.34 316.528 12.34C317.236 12.34 317.84 12.516 318.34 12.868C318.844 13.22 319.176 13.702 319.336 14.314L318.088 14.674C317.964 14.31 317.76 14.028 317.476 13.828C317.196 13.624 316.874 13.522 316.51 13.522C316.098 13.522 315.76 13.62 315.496 13.816C315.232 14.008 315.036 14.272 314.908 14.608C314.78 14.944 314.714 15.328 314.71 15.76C314.714 16.428 314.866 16.968 315.166 17.38C315.47 17.792 315.918 17.998 316.51 17.998C316.914 17.998 317.24 17.906 317.488 17.722C317.74 17.534 317.932 17.266 318.064 16.918L319.336 17.218C319.124 17.85 318.774 18.336 318.286 18.676C317.798 19.012 317.206 19.18 316.51 19.18ZM323.155 19.18C322.491 19.18 321.927 19.032 321.463 18.736C320.999 18.44 320.643 18.034 320.395 17.518C320.151 17.002 320.027 16.416 320.023 15.76C320.027 15.092 320.155 14.502 320.407 13.99C320.659 13.474 321.019 13.07 321.487 12.778C321.955 12.486 322.517 12.34 323.173 12.34C323.881 12.34 324.485 12.516 324.985 12.868C325.489 13.22 325.821 13.702 325.981 14.314L324.733 14.674C324.609 14.31 324.405 14.028 324.121 13.828C323.841 13.624 323.519 13.522 323.155 13.522C322.743 13.522 322.405 13.62 322.141 13.816C321.877 14.008 321.681 14.272 321.553 14.608C321.425 14.944 321.359 15.328 321.355 15.76C321.359 16.428 321.511 16.968 321.811 17.38C322.115 17.792 322.563 17.998 323.155 17.998C323.559 17.998 323.885 17.906 324.133 17.722C324.385 17.534 324.577 17.266 324.709 16.918L325.981 17.218C325.769 17.85 325.419 18.336 324.931 18.676C324.443 19.012 323.851 19.18 323.155 19.18ZM329.842 19.18C329.194 19.18 328.632 19.034 328.156 18.742C327.68 18.45 327.312 18.048 327.052 17.536C326.796 17.02 326.668 16.426 326.668 15.754C326.668 15.078 326.8 14.484 327.064 13.972C327.328 13.456 327.698 13.056 328.174 12.772C328.65 12.484 329.206 12.34 329.842 12.34C330.49 12.34 331.052 12.486 331.528 12.778C332.004 13.07 332.372 13.472 332.632 13.984C332.892 14.496 333.022 15.086 333.022 15.754C333.022 16.43 332.89 17.026 332.626 17.542C332.366 18.054 331.998 18.456 331.522 18.748C331.046 19.036 330.486 19.18 329.842 19.18ZM329.842 17.998C330.462 17.998 330.924 17.79 331.228 17.374C331.536 16.954 331.69 16.414 331.69 15.754C331.69 15.078 331.534 14.538 331.222 14.134C330.914 13.726 330.454 13.522 329.842 13.522C329.422 13.522 329.076 13.618 328.804 13.81C328.532 13.998 328.33 14.26 328.198 14.596C328.066 14.928 328 15.314 328 15.754C328 16.434 328.156 16.978 328.468 17.386C328.78 17.794 329.238 17.998 329.842 17.998ZM336.782 19.174C336.334 19.174 335.958 19.102 335.654 18.958C335.35 18.814 335.102 18.626 334.91 18.394C334.722 18.158 334.578 17.902 334.478 17.626C334.378 17.35 334.31 17.08 334.274 16.816C334.238 16.552 334.22 16.32 334.22 16.12V12.52H335.492V15.706C335.492 15.958 335.512 16.218 335.552 16.486C335.596 16.75 335.676 16.996 335.792 17.224C335.912 17.452 336.078 17.636 336.29 17.776C336.506 17.916 336.786 17.986 337.13 17.986C337.354 17.986 337.566 17.95 337.766 17.878C337.966 17.802 338.14 17.682 338.288 17.518C338.44 17.354 338.558 17.138 338.642 16.87C338.73 16.602 338.774 16.276 338.774 15.892L339.554 16.186C339.554 16.774 339.444 17.294 339.224 17.746C339.004 18.194 338.688 18.544 338.276 18.796C337.864 19.048 337.366 19.174 336.782 19.174ZM338.924 19V17.128H338.774V12.52H340.04V19H338.924ZM346.271 19V15.814C346.271 15.562 346.249 15.304 346.205 15.04C346.165 14.772 346.085 14.524 345.965 14.296C345.849 14.068 345.683 13.884 345.467 13.744C345.255 13.604 344.977 13.534 344.633 13.534C344.409 13.534 344.197 13.572 343.997 13.648C343.797 13.72 343.621 13.838 343.469 14.002C343.321 14.166 343.203 14.382 343.115 14.65C343.031 14.918 342.989 15.244 342.989 15.628L342.209 15.334C342.209 14.746 342.319 14.228 342.539 13.78C342.759 13.328 343.075 12.976 343.487 12.724C343.899 12.472 344.397 12.346 344.981 12.346C345.429 12.346 345.805 12.418 346.109 12.562C346.413 12.706 346.659 12.896 346.847 13.132C347.039 13.364 347.185 13.618 347.285 13.894C347.385 14.17 347.453 14.44 347.489 14.704C347.525 14.968 347.543 15.2 347.543 15.4V19H346.271ZM341.717 19V12.52H342.839V14.392H342.989V19H341.717ZM352.814 19C352.406 19.08 352.006 19.114 351.614 19.102C351.222 19.09 350.872 19.014 350.564 18.874C350.256 18.734 350.024 18.514 349.868 18.214C349.728 17.946 349.652 17.674 349.64 17.398C349.632 17.118 349.628 16.802 349.628 16.45V10.72H350.888V16.39C350.888 16.65 350.89 16.876 350.894 17.068C350.902 17.26 350.944 17.422 351.02 17.554C351.164 17.802 351.392 17.944 351.704 17.98C352.02 18.012 352.39 17.998 352.814 17.938V19ZM348.386 13.528V12.52H352.814V13.528H348.386ZM354.3 11.458V10.24H355.554V11.458H354.3ZM354.3 19V12.52H355.554V19H354.3ZM361.904 19V15.814C361.904 15.562 361.882 15.304 361.838 15.04C361.798 14.772 361.718 14.524 361.598 14.296C361.482 14.068 361.316 13.884 361.1 13.744C360.888 13.604 360.61 13.534 360.266 13.534C360.042 13.534 359.83 13.572 359.63 13.648C359.43 13.72 359.254 13.838 359.102 14.002C358.954 14.166 358.836 14.382 358.748 14.65C358.664 14.918 358.622 15.244 358.622 15.628L357.842 15.334C357.842 14.746 357.952 14.228 358.172 13.78C358.392 13.328 358.708 12.976 359.12 12.724C359.532 12.472 360.03 12.346 360.614 12.346C361.062 12.346 361.438 12.418 361.742 12.562C362.046 12.706 362.292 12.896 362.48 13.132C362.672 13.364 362.818 13.618 362.918 13.894C363.018 14.17 363.086 14.44 363.122 14.704C363.158 14.968 363.176 15.2 363.176 15.4V19H361.904ZM357.35 19V12.52H358.472V14.392H358.622V19H357.35ZM367.408 22.06C367.06 22.06 366.722 22.006 366.394 21.898C366.07 21.79 365.774 21.63 365.506 21.418C365.238 21.21 365.016 20.952 364.84 20.644L365.998 20.056C366.138 20.332 366.338 20.534 366.598 20.662C366.858 20.79 367.132 20.854 367.42 20.854C367.776 20.854 368.08 20.79 368.332 20.662C368.584 20.538 368.774 20.35 368.902 20.098C369.034 19.846 369.098 19.534 369.094 19.162V17.35H369.244V12.52H370.354V19.174C370.354 19.346 370.348 19.51 370.336 19.666C370.324 19.822 370.302 19.978 370.27 20.134C370.178 20.57 370.002 20.93 369.742 21.214C369.486 21.498 369.158 21.71 368.758 21.85C368.362 21.99 367.912 22.06 367.408 22.06ZM367.312 19.18C366.708 19.18 366.186 19.03 365.746 18.73C365.31 18.43 364.972 18.022 364.732 17.506C364.496 16.986 364.378 16.402 364.378 15.754C364.378 15.102 364.498 14.52 364.738 14.008C364.978 13.492 365.318 13.086 365.758 12.79C366.202 12.49 366.728 12.34 367.336 12.34C367.948 12.34 368.462 12.49 368.878 12.79C369.298 13.086 369.614 13.492 369.826 14.008C370.042 14.524 370.15 15.106 370.15 15.754C370.15 16.402 370.042 16.984 369.826 17.5C369.61 18.016 369.292 18.426 368.872 18.73C368.452 19.03 367.932 19.18 367.312 19.18ZM367.486 18.046C367.898 18.046 368.234 17.948 368.494 17.752C368.754 17.556 368.944 17.286 369.064 16.942C369.184 16.598 369.244 16.202 369.244 15.754C369.244 15.306 369.182 14.91 369.058 14.566C368.938 14.222 368.75 13.954 368.494 13.762C368.242 13.57 367.92 13.474 367.528 13.474C367.112 13.474 366.77 13.576 366.502 13.78C366.234 13.984 366.034 14.258 365.902 14.602C365.774 14.946 365.71 15.33 365.71 15.754C365.71 16.182 365.774 16.57 365.902 16.918C366.034 17.262 366.23 17.536 366.49 17.74C366.754 17.944 367.086 18.046 367.486 18.046Z" fill="#171717"/>
<rect x="0.5" y="35.5" width="138" height="27" rx="13.5" stroke="#E3E3E3"/>
<path d="M98 36H125C132.18 36 138 41.8203 138 49C138 56.1797 132.18 62 125 62H98V36Z" fill="#E4FFF4"/>
<path d="M14.284 54.18C13.608 54.18 13.01 54.042 12.49 53.766C11.974 53.486 11.57 53.096 11.278 52.596C10.986 52.092 10.84 51.5 10.84 50.82V45.366L12.112 45.36V50.754C12.112 51.122 12.174 51.446 12.298 51.726C12.422 52.006 12.588 52.24 12.796 52.428C13.004 52.616 13.236 52.758 13.492 52.854C13.752 52.95 14.016 52.998 14.284 52.998C14.556 52.998 14.82 52.95 15.076 52.854C15.336 52.754 15.57 52.61 15.778 52.422C15.986 52.234 16.15 52 16.27 51.72C16.394 51.44 16.456 51.118 16.456 50.754V45.36H17.728V50.82C17.728 51.496 17.582 52.086 17.29 52.59C16.998 53.094 16.592 53.486 16.072 53.766C15.556 54.042 14.96 54.18 14.284 54.18ZM22.1751 54.18C21.5551 54.18 20.9951 54.074 20.4951 53.862C19.9991 53.646 19.5891 53.34 19.2651 52.944C18.9451 52.544 18.7371 52.07 18.6411 51.522L19.9491 51.324C20.0811 51.852 20.3571 52.264 20.7771 52.56C21.1971 52.852 21.6871 52.998 22.2471 52.998C22.5951 52.998 22.9151 52.944 23.2071 52.836C23.4991 52.724 23.7331 52.566 23.9091 52.362C24.0891 52.154 24.1791 51.906 24.1791 51.618C24.1791 51.462 24.1511 51.324 24.0951 51.204C24.0431 51.084 23.9691 50.98 23.8731 50.892C23.7811 50.8 23.6671 50.722 23.5311 50.658C23.3991 50.59 23.2531 50.532 23.0931 50.484L20.8791 49.83C20.6631 49.766 20.4431 49.684 20.2191 49.584C19.9951 49.48 19.7891 49.346 19.6011 49.182C19.4171 49.014 19.2671 48.808 19.1511 48.564C19.0351 48.316 18.9771 48.016 18.9771 47.664C18.9771 47.132 19.1131 46.682 19.3851 46.314C19.6611 45.942 20.0331 45.662 20.5011 45.474C20.9691 45.282 21.4931 45.186 22.0731 45.186C22.6571 45.194 23.1791 45.298 23.6391 45.498C24.1031 45.698 24.4871 45.986 24.7911 46.362C25.0991 46.734 25.3111 47.186 25.4271 47.718L24.0831 47.946C24.0231 47.622 23.8951 47.344 23.6991 47.112C23.5031 46.876 23.2631 46.696 22.9791 46.572C22.6951 46.444 22.3871 46.378 22.0551 46.374C21.7351 46.366 21.4411 46.414 21.1731 46.518C20.9091 46.622 20.6971 46.768 20.5371 46.956C20.3811 47.144 20.3031 47.36 20.3031 47.604C20.3031 47.844 20.3731 48.038 20.5131 48.186C20.6531 48.334 20.8251 48.452 21.0291 48.54C21.2371 48.624 21.4431 48.694 21.6471 48.75L23.2431 49.2C23.4431 49.256 23.6691 49.332 23.9211 49.428C24.1771 49.52 24.4231 49.65 24.6591 49.818C24.8991 49.986 25.0971 50.21 25.2531 50.49C25.4091 50.766 25.4871 51.114 25.4871 51.534C25.4871 51.97 25.3991 52.354 25.2231 52.686C25.0471 53.014 24.8051 53.29 24.4971 53.514C24.1931 53.734 23.8411 53.9 23.4411 54.012C23.0411 54.124 22.6191 54.18 22.1751 54.18ZM28.5681 54L31.3761 45.36H33.1821L35.9901 54H34.6881L32.1021 46.116H32.4261L29.8701 54H28.5681ZM30.0261 52.05V50.874H34.5381V52.05H30.0261ZM39.8386 54.18C39.1746 54.18 38.6106 54.032 38.1466 53.736C37.6826 53.44 37.3266 53.034 37.0786 52.518C36.8346 52.002 36.7106 51.416 36.7066 50.76C36.7106 50.092 36.8386 49.502 37.0906 48.99C37.3426 48.474 37.7026 48.07 38.1706 47.778C38.6386 47.486 39.2006 47.34 39.8566 47.34C40.5646 47.34 41.1686 47.516 41.6686 47.868C42.1726 48.22 42.5046 48.702 42.6646 49.314L41.4166 49.674C41.2926 49.31 41.0886 49.028 40.8046 48.828C40.5246 48.624 40.2026 48.522 39.8386 48.522C39.4266 48.522 39.0886 48.62 38.8246 48.816C38.5606 49.008 38.3646 49.272 38.2366 49.608C38.1086 49.944 38.0426 50.328 38.0386 50.76C38.0426 51.428 38.1946 51.968 38.4946 52.38C38.7986 52.792 39.2466 52.998 39.8386 52.998C40.2426 52.998 40.5686 52.906 40.8166 52.722C41.0686 52.534 41.2606 52.266 41.3926 51.918L42.6646 52.218C42.4526 52.85 42.1026 53.336 41.6146 53.676C41.1266 54.012 40.5346 54.18 39.8386 54.18ZM46.4831 54.18C45.8191 54.18 45.2551 54.032 44.7911 53.736C44.3271 53.44 43.9711 53.034 43.7231 52.518C43.4791 52.002 43.3551 51.416 43.3511 50.76C43.3551 50.092 43.4831 49.502 43.7351 48.99C43.9871 48.474 44.3471 48.07 44.8151 47.778C45.2831 47.486 45.8451 47.34 46.5011 47.34C47.2091 47.34 47.8131 47.516 48.3131 47.868C48.8171 48.22 49.1491 48.702 49.3091 49.314L48.0611 49.674C47.9371 49.31 47.7331 49.028 47.4491 48.828C47.1691 48.624 46.8471 48.522 46.4831 48.522C46.0711 48.522 45.7331 48.62 45.4691 48.816C45.2051 49.008 45.0091 49.272 44.8811 49.608C44.7531 49.944 44.6871 50.328 44.6831 50.76C44.6871 51.428 44.8391 51.968 45.1391 52.38C45.4431 52.792 45.8911 52.998 46.4831 52.998C46.8871 52.998 47.2131 52.906 47.4611 52.722C47.7131 52.534 47.9051 52.266 48.0371 51.918L49.3091 52.218C49.0971 52.85 48.7471 53.336 48.2591 53.676C47.7711 54.012 47.1791 54.18 46.4831 54.18ZM53.1696 54.18C52.5216 54.18 51.9596 54.034 51.4836 53.742C51.0076 53.45 50.6396 53.048 50.3796 52.536C50.1236 52.02 49.9956 51.426 49.9956 50.754C49.9956 50.078 50.1276 49.484 50.3916 48.972C50.6556 48.456 51.0256 48.056 51.5016 47.772C51.9776 47.484 52.5336 47.34 53.1696 47.34C53.8176 47.34 54.3796 47.486 54.8556 47.778C55.3316 48.07 55.6996 48.472 55.9596 48.984C56.2196 49.496 56.3496 50.086 56.3496 50.754C56.3496 51.43 56.2176 52.026 55.9536 52.542C55.6936 53.054 55.3256 53.456 54.8496 53.748C54.3736 54.036 53.8136 54.18 53.1696 54.18ZM53.1696 52.998C53.7896 52.998 54.2516 52.79 54.5556 52.374C54.8636 51.954 55.0176 51.414 55.0176 50.754C55.0176 50.078 54.8616 49.538 54.5496 49.134C54.2416 48.726 53.7816 48.522 53.1696 48.522C52.7496 48.522 52.4036 48.618 52.1316 48.81C51.8596 48.998 51.6576 49.26 51.5256 49.596C51.3936 49.928 51.3276 50.314 51.3276 50.754C51.3276 51.434 51.4836 51.978 51.7956 52.386C52.1076 52.794 52.5656 52.998 53.1696 52.998ZM60.1101 54.174C59.6621 54.174 59.2861 54.102 58.9821 53.958C58.6781 53.814 58.4301 53.626 58.2381 53.394C58.0501 53.158 57.9061 52.902 57.8061 52.626C57.7061 52.35 57.6381 52.08 57.6021 51.816C57.5661 51.552 57.5481 51.32 57.5481 51.12V47.52H58.8201V50.706C58.8201 50.958 58.8401 51.218 58.8801 51.486C58.9241 51.75 59.0041 51.996 59.1201 52.224C59.2401 52.452 59.4061 52.636 59.6181 52.776C59.8341 52.916 60.1141 52.986 60.4581 52.986C60.6821 52.986 60.8941 52.95 61.0941 52.878C61.2941 52.802 61.4681 52.682 61.6161 52.518C61.7681 52.354 61.8861 52.138 61.9701 51.87C62.0581 51.602 62.1021 51.276 62.1021 50.892L62.8821 51.186C62.8821 51.774 62.7721 52.294 62.5521 52.746C62.3321 53.194 62.0161 53.544 61.6041 53.796C61.1921 54.048 60.6941 54.174 60.1101 54.174ZM62.2521 54V52.128H62.1021V47.52H63.3681V54H62.2521ZM69.5989 54V50.814C69.5989 50.562 69.5769 50.304 69.5329 50.04C69.4929 49.772 69.4129 49.524 69.2929 49.296C69.1769 49.068 69.0109 48.884 68.7949 48.744C68.5829 48.604 68.3049 48.534 67.9609 48.534C67.7369 48.534 67.5249 48.572 67.3249 48.648C67.1249 48.72 66.9489 48.838 66.7969 49.002C66.6489 49.166 66.5309 49.382 66.4429 49.65C66.3589 49.918 66.3169 50.244 66.3169 50.628L65.5369 50.334C65.5369 49.746 65.6469 49.228 65.8669 48.78C66.0869 48.328 66.4029 47.976 66.8149 47.724C67.2269 47.472 67.7249 47.346 68.3089 47.346C68.7569 47.346 69.1329 47.418 69.4369 47.562C69.7409 47.706 69.9869 47.896 70.1749 48.132C70.3669 48.364 70.5129 48.618 70.6129 48.894C70.7129 49.17 70.7809 49.44 70.8169 49.704C70.8529 49.968 70.8709 50.2 70.8709 50.4V54H69.5989ZM65.0449 54V47.52H66.1669V49.392H66.3169V54H65.0449ZM76.1418 54C75.7338 54.08 75.3338 54.114 74.9418 54.102C74.5498 54.09 74.1998 54.014 73.8918 53.874C73.5838 53.734 73.3518 53.514 73.1958 53.214C73.0558 52.946 72.9798 52.674 72.9678 52.398C72.9598 52.118 72.9558 51.802 72.9558 51.45V45.72H74.2158V51.39C74.2158 51.65 74.2178 51.876 74.2218 52.068C74.2298 52.26 74.2718 52.422 74.3478 52.554C74.4918 52.802 74.7198 52.944 75.0318 52.98C75.3478 53.012 75.7178 52.998 76.1418 52.938V54ZM71.7138 48.528V47.52H76.1418V48.528H71.7138ZM77.628 46.458V45.24H78.882V46.458H77.628ZM77.628 54V47.52H78.882V54H77.628ZM85.2318 54V50.814C85.2318 50.562 85.2098 50.304 85.1658 50.04C85.1258 49.772 85.0458 49.524 84.9258 49.296C84.8098 49.068 84.6438 48.884 84.4278 48.744C84.2158 48.604 83.9378 48.534 83.5938 48.534C83.3698 48.534 83.1578 48.572 82.9578 48.648C82.7578 48.72 82.5818 48.838 82.4298 49.002C82.2818 49.166 82.1638 49.382 82.0758 49.65C81.9918 49.918 81.9498 50.244 81.9498 50.628L81.1698 50.334C81.1698 49.746 81.2798 49.228 81.4998 48.78C81.7198 48.328 82.0358 47.976 82.4478 47.724C82.8598 47.472 83.3578 47.346 83.9418 47.346C84.3898 47.346 84.7658 47.418 85.0698 47.562C85.3738 47.706 85.6198 47.896 85.8078 48.132C85.9998 48.364 86.1458 48.618 86.2458 48.894C86.3458 49.17 86.4138 49.44 86.4498 49.704C86.4858 49.968 86.5038 50.2 86.5038 50.4V54H85.2318ZM80.6778 54V47.52H81.7998V49.392H81.9498V54H80.6778ZM90.7366 57.06C90.3886 57.06 90.0506 57.006 89.7226 56.898C89.3986 56.79 89.1026 56.63 88.8346 56.418C88.5666 56.21 88.3446 55.952 88.1686 55.644L89.3266 55.056C89.4666 55.332 89.6666 55.534 89.9266 55.662C90.1866 55.79 90.4606 55.854 90.7486 55.854C91.1046 55.854 91.4086 55.79 91.6606 55.662C91.9126 55.538 92.1026 55.35 92.2306 55.098C92.3626 54.846 92.4266 54.534 92.4226 54.162V52.35H92.5726V47.52H93.6826V54.174C93.6826 54.346 93.6766 54.51 93.6646 54.666C93.6526 54.822 93.6306 54.978 93.5986 55.134C93.5066 55.57 93.3306 55.93 93.0706 56.214C92.8146 56.498 92.4866 56.71 92.0866 56.85C91.6906 56.99 91.2406 57.06 90.7366 57.06ZM90.6406 54.18C90.0366 54.18 89.5146 54.03 89.0746 53.73C88.6386 53.43 88.3006 53.022 88.0606 52.506C87.8246 51.986 87.7066 51.402 87.7066 50.754C87.7066 50.102 87.8266 49.52 88.0666 49.008C88.3066 48.492 88.6466 48.086 89.0866 47.79C89.5306 47.49 90.0566 47.34 90.6646 47.34C91.2766 47.34 91.7906 47.49 92.2066 47.79C92.6266 48.086 92.9426 48.492 93.1546 49.008C93.3706 49.524 93.4786 50.106 93.4786 50.754C93.4786 51.402 93.3706 51.984 93.1546 52.5C92.9386 53.016 92.6206 53.426 92.2006 53.73C91.7806 54.03 91.2606 54.18 90.6406 54.18ZM90.8146 53.046C91.2266 53.046 91.5626 52.948 91.8226 52.752C92.0826 52.556 92.2726 52.286 92.3926 51.942C92.5126 51.598 92.5726 51.202 92.5726 50.754C92.5726 50.306 92.5106 49.91 92.3866 49.566C92.2666 49.222 92.0786 48.954 91.8226 48.762C91.5706 48.57 91.2486 48.474 90.8566 48.474C90.4406 48.474 90.0986 48.576 89.8306 48.78C89.5626 48.984 89.3626 49.258 89.2306 49.602C89.1026 49.946 89.0386 50.33 89.0386 50.754C89.0386 51.182 89.1026 51.57 89.2306 51.918C89.3626 52.262 89.5586 52.536 89.8186 52.74C90.0826 52.944 90.4146 53.046 90.8146 53.046Z" fill="#171717"/>
<path d="M108.648 45.186C109.204 45.186 109.706 45.32 110.154 45.588C110.602 45.852 110.958 46.216 111.222 46.68C111.486 47.144 111.618 47.674 111.618 48.27V51.018C111.618 51.65 111.486 52.204 111.222 52.68C110.962 53.152 110.598 53.52 110.13 53.784C109.666 54.048 109.13 54.18 108.522 54.18C108.066 54.18 107.638 54.094 107.238 53.922C106.838 53.75 106.49 53.494 106.194 53.154L107.118 52.296C107.282 52.508 107.488 52.678 107.736 52.806C107.984 52.934 108.246 52.998 108.522 52.998C108.878 52.998 109.192 52.912 109.464 52.74C109.74 52.568 109.954 52.344 110.106 52.068C110.258 51.792 110.334 51.496 110.334 51.18V49.596L110.586 49.872C110.338 50.196 110.03 50.452 109.662 50.64C109.294 50.828 108.9 50.922 108.48 50.922C107.94 50.922 107.46 50.798 107.04 50.55C106.62 50.302 106.288 49.964 106.044 49.536C105.8 49.108 105.678 48.624 105.678 48.084C105.678 47.544 105.814 47.056 106.086 46.62C106.358 46.184 106.718 45.836 107.166 45.576C107.614 45.316 108.108 45.186 108.648 45.186ZM108.648 46.398C108.336 46.398 108.05 46.474 107.79 46.626C107.534 46.774 107.33 46.976 107.178 47.232C107.026 47.488 106.95 47.772 106.95 48.084C106.95 48.396 107.026 48.682 107.178 48.942C107.33 49.198 107.534 49.402 107.79 49.554C108.046 49.706 108.33 49.782 108.642 49.782C108.954 49.782 109.238 49.706 109.494 49.554C109.75 49.402 109.954 49.198 110.106 48.942C110.258 48.682 110.334 48.396 110.334 48.084C110.334 47.776 110.258 47.494 110.106 47.238C109.958 46.982 109.756 46.778 109.5 46.626C109.244 46.474 108.96 46.398 108.648 46.398ZM115.477 45.36H116.743L114.439 54H113.173L115.477 45.36ZM119.815 54V46.74L118.189 47.73V46.332L119.815 45.36H121.093V54H119.815ZM126.383 54.18C125.795 54.18 125.275 54.052 124.823 53.796C124.371 53.536 124.015 53.18 123.755 52.728C123.499 52.276 123.371 51.756 123.371 51.168V48.192C123.371 47.604 123.499 47.084 123.755 46.632C124.015 46.18 124.371 45.826 124.823 45.57C125.275 45.31 125.795 45.18 126.383 45.18C126.971 45.18 127.491 45.31 127.943 45.57C128.395 45.826 128.749 46.18 129.005 46.632C129.265 47.084 129.395 47.604 129.395 48.192V51.168C129.395 51.756 129.265 52.276 129.005 52.728C128.749 53.18 128.395 53.536 127.943 53.796C127.491 54.052 126.971 54.18 126.383 54.18ZM126.383 52.98C126.703 52.98 126.993 52.904 127.253 52.752C127.517 52.596 127.727 52.388 127.883 52.128C128.039 51.864 128.117 51.57 128.117 51.246V48.102C128.117 47.782 128.039 47.492 127.883 47.232C127.727 46.968 127.517 46.76 127.253 46.608C126.993 46.452 126.703 46.374 126.383 46.374C126.063 46.374 125.771 46.452 125.507 46.608C125.247 46.76 125.039 46.968 124.883 47.232C124.727 47.492 124.649 47.782 124.649 48.102V51.246C124.649 51.57 124.727 51.864 124.883 52.128C125.039 52.388 125.247 52.596 125.507 52.752C125.771 52.904 126.063 52.98 126.383 52.98Z" fill="#00BA70"/>
<path d="M98 36V62" stroke="#E2E2E2"/>
<rect x="146.5" y="35.5" width="148" height="27" rx="13.5" stroke="#E3E3E3"/>
<path d="M254 36H281C288.18 36 294 41.8203 294 49C294 56.1797 288.18 62 281 62H254V36Z" fill="#E4FFF4"/>
<path d="M160.284 54.18C159.608 54.18 159.01 54.042 158.49 53.766C157.974 53.486 157.57 53.096 157.278 52.596C156.986 52.092 156.84 51.5 156.84 50.82V45.366L158.112 45.36V50.754C158.112 51.122 158.174 51.446 158.298 51.726C158.422 52.006 158.588 52.24 158.796 52.428C159.004 52.616 159.236 52.758 159.492 52.854C159.752 52.95 160.016 52.998 160.284 52.998C160.556 52.998 160.82 52.95 161.076 52.854C161.336 52.754 161.57 52.61 161.778 52.422C161.986 52.234 162.15 52 162.27 51.72C162.394 51.44 162.456 51.118 162.456 50.754V45.36H163.728V50.82C163.728 51.496 163.582 52.086 163.29 52.59C162.998 53.094 162.592 53.486 162.072 53.766C161.556 54.042 160.96 54.18 160.284 54.18ZM165.406 54V45.36H166.66V49.392L170.278 45.36H171.838L168.016 49.578L172.12 54H170.512L166.66 49.872V54H165.406ZM174.533 54L177.341 45.36H179.147L181.955 54H180.653L178.067 46.116H178.391L175.835 54H174.533ZM175.991 52.05V50.874H180.503V52.05H175.991ZM185.803 54.18C185.139 54.18 184.575 54.032 184.111 53.736C183.647 53.44 183.291 53.034 183.043 52.518C182.799 52.002 182.675 51.416 182.671 50.76C182.675 50.092 182.803 49.502 183.055 48.99C183.307 48.474 183.667 48.07 184.135 47.778C184.603 47.486 185.165 47.34 185.821 47.34C186.529 47.34 187.133 47.516 187.633 47.868C188.137 48.22 188.469 48.702 188.629 49.314L187.381 49.674C187.257 49.31 187.053 49.028 186.769 48.828C186.489 48.624 186.167 48.522 185.803 48.522C185.391 48.522 185.053 48.62 184.789 48.816C184.525 49.008 184.329 49.272 184.201 49.608C184.073 49.944 184.007 50.328 184.003 50.76C184.007 51.428 184.159 51.968 184.459 52.38C184.763 52.792 185.211 52.998 185.803 52.998C186.207 52.998 186.533 52.906 186.781 52.722C187.033 52.534 187.225 52.266 187.357 51.918L188.629 52.218C188.417 52.85 188.067 53.336 187.579 53.676C187.091 54.012 186.499 54.18 185.803 54.18ZM192.448 54.18C191.784 54.18 191.22 54.032 190.756 53.736C190.292 53.44 189.936 53.034 189.688 52.518C189.444 52.002 189.32 51.416 189.316 50.76C189.32 50.092 189.448 49.502 189.7 48.99C189.952 48.474 190.312 48.07 190.78 47.778C191.248 47.486 191.81 47.34 192.466 47.34C193.174 47.34 193.778 47.516 194.278 47.868C194.782 48.22 195.114 48.702 195.274 49.314L194.026 49.674C193.902 49.31 193.698 49.028 193.414 48.828C193.134 48.624 192.812 48.522 192.448 48.522C192.036 48.522 191.698 48.62 191.434 48.816C191.17 49.008 190.974 49.272 190.846 49.608C190.718 49.944 190.652 50.328 190.648 50.76C190.652 51.428 190.804 51.968 191.104 52.38C191.408 52.792 191.856 52.998 192.448 52.998C192.852 52.998 193.178 52.906 193.426 52.722C193.678 52.534 193.87 52.266 194.002 51.918L195.274 52.218C195.062 52.85 194.712 53.336 194.224 53.676C193.736 54.012 193.144 54.18 192.448 54.18ZM199.134 54.18C198.486 54.18 197.924 54.034 197.448 53.742C196.972 53.45 196.604 53.048 196.344 52.536C196.088 52.02 195.96 51.426 195.96 50.754C195.96 50.078 196.092 49.484 196.356 48.972C196.62 48.456 196.99 48.056 197.466 47.772C197.942 47.484 198.498 47.34 199.134 47.34C199.782 47.34 200.344 47.486 200.82 47.778C201.296 48.07 201.664 48.472 201.924 48.984C202.184 49.496 202.314 50.086 202.314 50.754C202.314 51.43 202.182 52.026 201.918 52.542C201.658 53.054 201.29 53.456 200.814 53.748C200.338 54.036 199.778 54.18 199.134 54.18ZM199.134 52.998C199.754 52.998 200.216 52.79 200.52 52.374C200.828 51.954 200.982 51.414 200.982 50.754C200.982 50.078 200.826 49.538 200.514 49.134C200.206 48.726 199.746 48.522 199.134 48.522C198.714 48.522 198.368 48.618 198.096 48.81C197.824 48.998 197.622 49.26 197.49 49.596C197.358 49.928 197.292 50.314 197.292 50.754C197.292 51.434 197.448 51.978 197.76 52.386C198.072 52.794 198.53 52.998 199.134 52.998ZM206.075 54.174C205.627 54.174 205.251 54.102 204.947 53.958C204.643 53.814 204.395 53.626 204.203 53.394C204.015 53.158 203.871 52.902 203.771 52.626C203.671 52.35 203.603 52.08 203.567 51.816C203.531 51.552 203.513 51.32 203.513 51.12V47.52H204.785V50.706C204.785 50.958 204.805 51.218 204.845 51.486C204.889 51.75 204.969 51.996 205.085 52.224C205.205 52.452 205.371 52.636 205.583 52.776C205.799 52.916 206.079 52.986 206.423 52.986C206.647 52.986 206.859 52.95 207.059 52.878C207.259 52.802 207.433 52.682 207.581 52.518C207.733 52.354 207.851 52.138 207.935 51.87C208.023 51.602 208.067 51.276 208.067 50.892L208.847 51.186C208.847 51.774 208.737 52.294 208.517 52.746C208.297 53.194 207.981 53.544 207.569 53.796C207.157 54.048 206.659 54.174 206.075 54.174ZM208.217 54V52.128H208.067V47.52H209.333V54H208.217ZM215.564 54V50.814C215.564 50.562 215.542 50.304 215.498 50.04C215.458 49.772 215.378 49.524 215.258 49.296C215.142 49.068 214.976 48.884 214.76 48.744C214.548 48.604 214.27 48.534 213.926 48.534C213.702 48.534 213.49 48.572 213.29 48.648C213.09 48.72 212.914 48.838 212.762 49.002C212.614 49.166 212.496 49.382 212.408 49.65C212.324 49.918 212.282 50.244 212.282 50.628L211.502 50.334C211.502 49.746 211.612 49.228 211.832 48.78C212.052 48.328 212.368 47.976 212.78 47.724C213.192 47.472 213.69 47.346 214.274 47.346C214.722 47.346 215.098 47.418 215.402 47.562C215.706 47.706 215.952 47.896 216.14 48.132C216.332 48.364 216.478 48.618 216.578 48.894C216.678 49.17 216.746 49.44 216.782 49.704C216.818 49.968 216.836 50.2 216.836 50.4V54H215.564ZM211.01 54V47.52H212.132V49.392H212.282V54H211.01ZM222.107 54C221.699 54.08 221.299 54.114 220.907 54.102C220.515 54.09 220.165 54.014 219.857 53.874C219.549 53.734 219.317 53.514 219.161 53.214C219.021 52.946 218.945 52.674 218.933 52.398C218.925 52.118 218.921 51.802 218.921 51.45V45.72H220.181V51.39C220.181 51.65 220.183 51.876 220.187 52.068C220.195 52.26 220.237 52.422 220.313 52.554C220.457 52.802 220.685 52.944 220.997 52.98C221.313 53.012 221.683 52.998 222.107 52.938V54ZM217.679 48.528V47.52H222.107V48.528H217.679ZM223.593 46.458V45.24H224.847V46.458H223.593ZM223.593 54V47.52H224.847V54H223.593ZM231.197 54V50.814C231.197 50.562 231.175 50.304 231.131 50.04C231.091 49.772 231.011 49.524 230.891 49.296C230.775 49.068 230.609 48.884 230.393 48.744C230.181 48.604 229.903 48.534 229.559 48.534C229.335 48.534 229.123 48.572 228.923 48.648C228.723 48.72 228.547 48.838 228.395 49.002C228.247 49.166 228.129 49.382 228.041 49.65C227.957 49.918 227.915 50.244 227.915 50.628L227.135 50.334C227.135 49.746 227.245 49.228 227.465 48.78C227.685 48.328 228.001 47.976 228.413 47.724C228.825 47.472 229.323 47.346 229.907 47.346C230.355 47.346 230.731 47.418 231.035 47.562C231.339 47.706 231.585 47.896 231.773 48.132C231.965 48.364 232.111 48.618 232.211 48.894C232.311 49.17 232.379 49.44 232.415 49.704C232.451 49.968 232.469 50.2 232.469 50.4V54H231.197ZM226.643 54V47.52H227.765V49.392H227.915V54H226.643ZM236.701 57.06C236.353 57.06 236.015 57.006 235.687 56.898C235.363 56.79 235.067 56.63 234.799 56.418C234.531 56.21 234.309 55.952 234.133 55.644L235.291 55.056C235.431 55.332 235.631 55.534 235.891 55.662C236.151 55.79 236.425 55.854 236.713 55.854C237.069 55.854 237.373 55.79 237.625 55.662C237.877 55.538 238.067 55.35 238.195 55.098C238.327 54.846 238.391 54.534 238.387 54.162V52.35H238.537V47.52H239.647V54.174C239.647 54.346 239.641 54.51 239.629 54.666C239.617 54.822 239.595 54.978 239.563 55.134C239.471 55.57 239.295 55.93 239.035 56.214C238.779 56.498 238.451 56.71 238.051 56.85C237.655 56.99 237.205 57.06 236.701 57.06ZM236.605 54.18C236.001 54.18 235.479 54.03 235.039 53.73C234.603 53.43 234.265 53.022 234.025 52.506C233.789 51.986 233.671 51.402 233.671 50.754C233.671 50.102 233.791 49.52 234.031 49.008C234.271 48.492 234.611 48.086 235.051 47.79C235.495 47.49 236.021 47.34 236.629 47.34C237.241 47.34 237.755 47.49 238.171 47.79C238.591 48.086 238.907 48.492 239.119 49.008C239.335 49.524 239.443 50.106 239.443 50.754C239.443 51.402 239.335 51.984 239.119 52.5C238.903 53.016 238.585 53.426 238.165 53.73C237.745 54.03 237.225 54.18 236.605 54.18ZM236.779 53.046C237.191 53.046 237.527 52.948 237.787 52.752C238.047 52.556 238.237 52.286 238.357 51.942C238.477 51.598 238.537 51.202 238.537 50.754C238.537 50.306 238.475 49.91 238.351 49.566C238.231 49.222 238.043 48.954 237.787 48.762C237.535 48.57 237.213 48.474 236.821 48.474C236.405 48.474 236.063 48.576 235.795 48.78C235.527 48.984 235.327 49.258 235.195 49.602C235.067 49.946 235.003 50.33 235.003 50.754C235.003 51.182 235.067 51.57 235.195 51.918C235.327 52.262 235.523 52.536 235.783 52.74C236.047 52.944 236.379 53.046 236.779 53.046Z" fill="#171717"/>
<path d="M264.648 45.186C265.204 45.186 265.706 45.32 266.154 45.588C266.602 45.852 266.958 46.216 267.222 46.68C267.486 47.144 267.618 47.674 267.618 48.27V51.018C267.618 51.65 267.486 52.204 267.222 52.68C266.962 53.152 266.598 53.52 266.13 53.784C265.666 54.048 265.13 54.18 264.522 54.18C264.066 54.18 263.638 54.094 263.238 53.922C262.838 53.75 262.49 53.494 262.194 53.154L263.118 52.296C263.282 52.508 263.488 52.678 263.736 52.806C263.984 52.934 264.246 52.998 264.522 52.998C264.878 52.998 265.192 52.912 265.464 52.74C265.74 52.568 265.954 52.344 266.106 52.068C266.258 51.792 266.334 51.496 266.334 51.18V49.596L266.586 49.872C266.338 50.196 266.03 50.452 265.662 50.64C265.294 50.828 264.9 50.922 264.48 50.922C263.94 50.922 263.46 50.798 263.04 50.55C262.62 50.302 262.288 49.964 262.044 49.536C261.8 49.108 261.678 48.624 261.678 48.084C261.678 47.544 261.814 47.056 262.086 46.62C262.358 46.184 262.718 45.836 263.166 45.576C263.614 45.316 264.108 45.186 264.648 45.186ZM264.648 46.398C264.336 46.398 264.05 46.474 263.79 46.626C263.534 46.774 263.33 46.976 263.178 47.232C263.026 47.488 262.95 47.772 262.95 48.084C262.95 48.396 263.026 48.682 263.178 48.942C263.33 49.198 263.534 49.402 263.79 49.554C264.046 49.706 264.33 49.782 264.642 49.782C264.954 49.782 265.238 49.706 265.494 49.554C265.75 49.402 265.954 49.198 266.106 48.942C266.258 48.682 266.334 48.396 266.334 48.084C266.334 47.776 266.258 47.494 266.106 47.238C265.958 46.982 265.756 46.778 265.5 46.626C265.244 46.474 264.96 46.398 264.648 46.398ZM271.477 45.36H272.743L270.439 54H269.173L271.477 45.36ZM275.815 54V46.74L274.189 47.73V46.332L275.815 45.36H277.093V54H275.815ZM282.383 54.18C281.795 54.18 281.275 54.052 280.823 53.796C280.371 53.536 280.015 53.18 279.755 52.728C279.499 52.276 279.371 51.756 279.371 51.168V48.192C279.371 47.604 279.499 47.084 279.755 46.632C280.015 46.18 280.371 45.826 280.823 45.57C281.275 45.31 281.795 45.18 282.383 45.18C282.971 45.18 283.491 45.31 283.943 45.57C284.395 45.826 284.749 46.18 285.005 46.632C285.265 47.084 285.395 47.604 285.395 48.192V51.168C285.395 51.756 285.265 52.276 285.005 52.728C284.749 53.18 284.395 53.536 283.943 53.796C283.491 54.052 282.971 54.18 282.383 54.18ZM282.383 52.98C282.703 52.98 282.993 52.904 283.253 52.752C283.517 52.596 283.727 52.388 283.883 52.128C284.039 51.864 284.117 51.57 284.117 51.246V48.102C284.117 47.782 284.039 47.492 283.883 47.232C283.727 46.968 283.517 46.76 283.253 46.608C282.993 46.452 282.703 46.374 282.383 46.374C282.063 46.374 281.771 46.452 281.507 46.608C281.247 46.76 281.039 46.968 280.883 47.232C280.727 47.492 280.649 47.782 280.649 48.102V51.246C280.649 51.57 280.727 51.864 280.883 52.128C281.039 52.388 281.247 52.596 281.507 52.752C281.771 52.904 282.063 52.98 282.383 52.98Z" fill="#00BA70"/>
<path d="M254 36V62" stroke="#E2E2E2"/>
<rect x="302.5" y="35.5" width="121" height="27" rx="13.5" stroke="#E3E3E3"/>
<path d="M312.24 54L315.048 45.36H316.854L319.662 54H318.36L315.774 46.116H316.098L313.542 54H312.24ZM313.698 52.05V50.874H318.21V52.05H313.698ZM323.51 54.18C322.846 54.18 322.282 54.032 321.818 53.736C321.354 53.44 320.998 53.034 320.75 52.518C320.506 52.002 320.382 51.416 320.378 50.76C320.382 50.092 320.51 49.502 320.762 48.99C321.014 48.474 321.374 48.07 321.842 47.778C322.31 47.486 322.872 47.34 323.528 47.34C324.236 47.34 324.84 47.516 325.34 47.868C325.844 48.22 326.176 48.702 326.336 49.314L325.088 49.674C324.964 49.31 324.76 49.028 324.476 48.828C324.196 48.624 323.874 48.522 323.51 48.522C323.098 48.522 322.76 48.62 322.496 48.816C322.232 49.008 322.036 49.272 321.908 49.608C321.78 49.944 321.714 50.328 321.71 50.76C321.714 51.428 321.866 51.968 322.166 52.38C322.47 52.792 322.918 52.998 323.51 52.998C323.914 52.998 324.24 52.906 324.488 52.722C324.74 52.534 324.932 52.266 325.064 51.918L326.336 52.218C326.124 52.85 325.774 53.336 325.286 53.676C324.798 54.012 324.206 54.18 323.51 54.18ZM330.155 54.18C329.491 54.18 328.927 54.032 328.463 53.736C327.999 53.44 327.643 53.034 327.395 52.518C327.151 52.002 327.027 51.416 327.023 50.76C327.027 50.092 327.155 49.502 327.407 48.99C327.659 48.474 328.019 48.07 328.487 47.778C328.955 47.486 329.517 47.34 330.173 47.34C330.881 47.34 331.485 47.516 331.985 47.868C332.489 48.22 332.821 48.702 332.981 49.314L331.733 49.674C331.609 49.31 331.405 49.028 331.121 48.828C330.841 48.624 330.519 48.522 330.155 48.522C329.743 48.522 329.405 48.62 329.141 48.816C328.877 49.008 328.681 49.272 328.553 49.608C328.425 49.944 328.359 50.328 328.355 50.76C328.359 51.428 328.511 51.968 328.811 52.38C329.115 52.792 329.563 52.998 330.155 52.998C330.559 52.998 330.885 52.906 331.133 52.722C331.385 52.534 331.577 52.266 331.709 51.918L332.981 52.218C332.769 52.85 332.419 53.336 331.931 53.676C331.443 54.012 330.851 54.18 330.155 54.18ZM336.842 54.18C336.194 54.18 335.632 54.034 335.156 53.742C334.68 53.45 334.312 53.048 334.052 52.536C333.796 52.02 333.668 51.426 333.668 50.754C333.668 50.078 333.8 49.484 334.064 48.972C334.328 48.456 334.698 48.056 335.174 47.772C335.65 47.484 336.206 47.34 336.842 47.34C337.49 47.34 338.052 47.486 338.528 47.778C339.004 48.07 339.372 48.472 339.632 48.984C339.892 49.496 340.022 50.086 340.022 50.754C340.022 51.43 339.89 52.026 339.626 52.542C339.366 53.054 338.998 53.456 338.522 53.748C338.046 54.036 337.486 54.18 336.842 54.18ZM336.842 52.998C337.462 52.998 337.924 52.79 338.228 52.374C338.536 51.954 338.69 51.414 338.69 50.754C338.69 50.078 338.534 49.538 338.222 49.134C337.914 48.726 337.454 48.522 336.842 48.522C336.422 48.522 336.076 48.618 335.804 48.81C335.532 48.998 335.33 49.26 335.198 49.596C335.066 49.928 335 50.314 335 50.754C335 51.434 335.156 51.978 335.468 52.386C335.78 52.794 336.238 52.998 336.842 52.998ZM343.782 54.174C343.334 54.174 342.958 54.102 342.654 53.958C342.35 53.814 342.102 53.626 341.91 53.394C341.722 53.158 341.578 52.902 341.478 52.626C341.378 52.35 341.31 52.08 341.274 51.816C341.238 51.552 341.22 51.32 341.22 51.12V47.52H342.492V50.706C342.492 50.958 342.512 51.218 342.552 51.486C342.596 51.75 342.676 51.996 342.792 52.224C342.912 52.452 343.078 52.636 343.29 52.776C343.506 52.916 343.786 52.986 344.13 52.986C344.354 52.986 344.566 52.95 344.766 52.878C344.966 52.802 345.14 52.682 345.288 52.518C345.44 52.354 345.558 52.138 345.642 51.87C345.73 51.602 345.774 51.276 345.774 50.892L346.554 51.186C346.554 51.774 346.444 52.294 346.224 52.746C346.004 53.194 345.688 53.544 345.276 53.796C344.864 54.048 344.366 54.174 343.782 54.174ZM345.924 54V52.128H345.774V47.52H347.04V54H345.924ZM353.271 54V50.814C353.271 50.562 353.249 50.304 353.205 50.04C353.165 49.772 353.085 49.524 352.965 49.296C352.849 49.068 352.683 48.884 352.467 48.744C352.255 48.604 351.977 48.534 351.633 48.534C351.409 48.534 351.197 48.572 350.997 48.648C350.797 48.72 350.621 48.838 350.469 49.002C350.321 49.166 350.203 49.382 350.115 49.65C350.031 49.918 349.989 50.244 349.989 50.628L349.209 50.334C349.209 49.746 349.319 49.228 349.539 48.78C349.759 48.328 350.075 47.976 350.487 47.724C350.899 47.472 351.397 47.346 351.981 47.346C352.429 47.346 352.805 47.418 353.109 47.562C353.413 47.706 353.659 47.896 353.847 48.132C354.039 48.364 354.185 48.618 354.285 48.894C354.385 49.17 354.453 49.44 354.489 49.704C354.525 49.968 354.543 50.2 354.543 50.4V54H353.271ZM348.717 54V47.52H349.839V49.392H349.989V54H348.717ZM359.814 54C359.406 54.08 359.006 54.114 358.614 54.102C358.222 54.09 357.872 54.014 357.564 53.874C357.256 53.734 357.024 53.514 356.868 53.214C356.728 52.946 356.652 52.674 356.64 52.398C356.632 52.118 356.628 51.802 356.628 51.45V45.72H357.888V51.39C357.888 51.65 357.89 51.876 357.894 52.068C357.902 52.26 357.944 52.422 358.02 52.554C358.164 52.802 358.392 52.944 358.704 52.98C359.02 53.012 359.39 52.998 359.814 52.938V54ZM355.386 48.528V47.52H359.814V48.528H355.386ZM361.3 46.458V45.24H362.554V46.458H361.3ZM361.3 54V47.52H362.554V54H361.3ZM368.904 54V50.814C368.904 50.562 368.882 50.304 368.838 50.04C368.798 49.772 368.718 49.524 368.598 49.296C368.482 49.068 368.316 48.884 368.1 48.744C367.888 48.604 367.61 48.534 367.266 48.534C367.042 48.534 366.83 48.572 366.63 48.648C366.43 48.72 366.254 48.838 366.102 49.002C365.954 49.166 365.836 49.382 365.748 49.65C365.664 49.918 365.622 50.244 365.622 50.628L364.842 50.334C364.842 49.746 364.952 49.228 365.172 48.78C365.392 48.328 365.708 47.976 366.12 47.724C366.532 47.472 367.03 47.346 367.614 47.346C368.062 47.346 368.438 47.418 368.742 47.562C369.046 47.706 369.292 47.896 369.48 48.132C369.672 48.364 369.818 48.618 369.918 48.894C370.018 49.17 370.086 49.44 370.122 49.704C370.158 49.968 370.176 50.2 370.176 50.4V54H368.904ZM364.35 54V47.52H365.472V49.392H365.622V54H364.35ZM374.408 57.06C374.06 57.06 373.722 57.006 373.394 56.898C373.07 56.79 372.774 56.63 372.506 56.418C372.238 56.21 372.016 55.952 371.84 55.644L372.998 55.056C373.138 55.332 373.338 55.534 373.598 55.662C373.858 55.79 374.132 55.854 374.42 55.854C374.776 55.854 375.08 55.79 375.332 55.662C375.584 55.538 375.774 55.35 375.902 55.098C376.034 54.846 376.098 54.534 376.094 54.162V52.35H376.244V47.52H377.354V54.174C377.354 54.346 377.348 54.51 377.336 54.666C377.324 54.822 377.302 54.978 377.27 55.134C377.178 55.57 377.002 55.93 376.742 56.214C376.486 56.498 376.158 56.71 375.758 56.85C375.362 56.99 374.912 57.06 374.408 57.06ZM374.312 54.18C373.708 54.18 373.186 54.03 372.746 53.73C372.31 53.43 371.972 53.022 371.732 52.506C371.496 51.986 371.378 51.402 371.378 50.754C371.378 50.102 371.498 49.52 371.738 49.008C371.978 48.492 372.318 48.086 372.758 47.79C373.202 47.49 373.728 47.34 374.336 47.34C374.948 47.34 375.462 47.49 375.878 47.79C376.298 48.086 376.614 48.492 376.826 49.008C377.042 49.524 377.15 50.106 377.15 50.754C377.15 51.402 377.042 51.984 376.826 52.5C376.61 53.016 376.292 53.426 375.872 53.73C375.452 54.03 374.932 54.18 374.312 54.18ZM374.486 53.046C374.898 53.046 375.234 52.948 375.494 52.752C375.754 52.556 375.944 52.286 376.064 51.942C376.184 51.598 376.244 51.202 376.244 50.754C376.244 50.306 376.182 49.91 376.058 49.566C375.938 49.222 375.75 48.954 375.494 48.762C375.242 48.57 374.92 48.474 374.528 48.474C374.112 48.474 373.77 48.576 373.502 48.78C373.234 48.984 373.034 49.258 372.902 49.602C372.774 49.946 372.71 50.33 372.71 50.754C372.71 51.182 372.774 51.57 372.902 51.918C373.034 52.262 373.23 52.536 373.49 52.74C373.754 52.944 374.086 53.046 374.486 53.046Z" fill="#171717"/>
</svg>
