<svg width="325" height="65" viewBox="0 0 325 65" fill="none" xmlns="http://www.w3.org/2000/svg">
<g clip-path="url(#clip0_10172_13192)">
<rect x="0.5" y="0.5" width="82" height="27" rx="13.5" stroke="#E3E3E3"/>
<path d="M9.12 19L12.066 14.626L9.198 10.36H10.734L12.84 13.564L14.934 10.36H16.476L13.608 14.626L16.548 19H15.012L12.84 15.694L10.662 19H9.12ZM20.1437 19.18C19.4997 19.18 18.9337 19.04 18.4457 18.76C17.9617 18.476 17.5837 18.082 17.3117 17.578C17.0437 17.07 16.9097 16.482 16.9097 15.814C16.9097 15.106 17.0417 14.492 17.3057 13.972C17.5737 13.452 17.9457 13.05 18.4217 12.766C18.8977 12.482 19.4517 12.34 20.0837 12.34C20.7437 12.34 21.3057 12.494 21.7697 12.802C22.2337 13.106 22.5797 13.54 22.8077 14.104C23.0397 14.668 23.1317 15.338 23.0837 16.114H21.8297V15.658C21.8217 14.906 21.6777 14.35 21.3977 13.99C21.1217 13.63 20.6997 13.45 20.1317 13.45C19.5037 13.45 19.0317 13.648 18.7157 14.044C18.3997 14.44 18.2417 15.012 18.2417 15.76C18.2417 16.472 18.3997 17.024 18.7157 17.416C19.0317 17.804 19.4877 17.998 20.0837 17.998C20.4757 17.998 20.8137 17.91 21.0977 17.734C21.3857 17.554 21.6097 17.298 21.7697 16.966L22.9997 17.356C22.7477 17.936 22.3657 18.386 21.8537 18.706C21.3417 19.022 20.7717 19.18 20.1437 19.18ZM17.8337 16.114V15.136H22.4597V16.114H17.8337ZM24.4298 19V12.52H25.5458V14.092L25.3898 13.888C25.4698 13.68 25.5738 13.49 25.7018 13.318C25.8298 13.142 25.9778 12.998 26.1458 12.886C26.3098 12.766 26.4918 12.674 26.6918 12.61C26.8958 12.542 27.1038 12.502 27.3158 12.49C27.5278 12.474 27.7318 12.484 27.9278 12.52V13.696C27.7158 13.64 27.4798 13.624 27.2198 13.648C26.9638 13.672 26.7278 13.754 26.5118 13.894C26.3078 14.026 26.1458 14.186 26.0258 14.374C25.9098 14.562 25.8258 14.772 25.7738 15.004C25.7218 15.232 25.6958 15.474 25.6958 15.73V19H24.4298ZM31.7673 19.18C31.1193 19.18 30.5573 19.034 30.0813 18.742C29.6053 18.45 29.2373 18.048 28.9773 17.536C28.7213 17.02 28.5933 16.426 28.5933 15.754C28.5933 15.078 28.7253 14.484 28.9893 13.972C29.2533 13.456 29.6233 13.056 30.0993 12.772C30.5753 12.484 31.1313 12.34 31.7673 12.34C32.4153 12.34 32.9773 12.486 33.4533 12.778C33.9293 13.07 34.2973 13.472 34.5573 13.984C34.8173 14.496 34.9473 15.086 34.9473 15.754C34.9473 16.43 34.8153 17.026 34.5513 17.542C34.2913 18.054 33.9233 18.456 33.4473 18.748C32.9713 19.036 32.4113 19.18 31.7673 19.18ZM31.7673 17.998C32.3873 17.998 32.8493 17.79 33.1533 17.374C33.4613 16.954 33.6153 16.414 33.6153 15.754C33.6153 15.078 33.4593 14.538 33.1473 14.134C32.8393 13.726 32.3793 13.522 31.7673 13.522C31.3473 13.522 31.0013 13.618 30.7293 13.81C30.4573 13.998 30.2553 14.26 30.1233 14.596C29.9913 14.928 29.9253 15.314 29.9253 15.754C29.9253 16.434 30.0813 16.978 30.3933 17.386C30.7053 17.794 31.1633 17.998 31.7673 17.998Z" fill="#171717"/>
<path d="M42 1H69C76.1797 1 82 6.8203 82 14C82 21.1797 76.1797 27 69 27H42V1Z" fill="#E4FFF4"/>
<path d="M52.606 19.18C52.042 19.18 51.542 19.068 51.106 18.844C50.674 18.616 50.334 18.3 50.086 17.896C49.842 17.492 49.72 17.024 49.72 16.492C49.72 15.996 49.836 15.542 50.068 15.13C50.3 14.718 50.646 14.394 51.106 14.158L51.082 14.59C50.714 14.362 50.43 14.078 50.23 13.738C50.034 13.394 49.936 13.01 49.936 12.586C49.936 12.094 50.05 11.668 50.278 11.308C50.506 10.948 50.82 10.67 51.22 10.474C51.624 10.278 52.086 10.18 52.606 10.18C53.126 10.18 53.586 10.278 53.986 10.474C54.386 10.67 54.7 10.948 54.928 11.308C55.156 11.668 55.27 12.094 55.27 12.586C55.27 13.01 55.176 13.392 54.988 13.732C54.8 14.072 54.512 14.358 54.124 14.59L54.106 14.17C54.562 14.394 54.908 14.714 55.144 15.13C55.38 15.542 55.498 15.996 55.498 16.492C55.498 17.024 55.374 17.492 55.126 17.896C54.878 18.3 54.536 18.616 54.1 18.844C53.664 19.068 53.166 19.18 52.606 19.18ZM52.606 17.986C53.07 17.986 53.446 17.86 53.734 17.608C54.022 17.352 54.166 16.98 54.166 16.492C54.166 16.004 54.022 15.632 53.734 15.376C53.45 15.116 53.074 14.986 52.606 14.986C52.138 14.986 51.76 15.116 51.472 15.376C51.188 15.632 51.046 16.004 51.046 16.492C51.046 16.98 51.19 17.352 51.478 17.608C51.766 17.86 52.142 17.986 52.606 17.986ZM52.606 13.786C53.002 13.786 53.322 13.688 53.566 13.492C53.814 13.292 53.938 12.99 53.938 12.586C53.938 12.182 53.814 11.88 53.566 11.68C53.322 11.476 53.002 11.374 52.606 11.374C52.21 11.374 51.888 11.476 51.64 11.68C51.392 11.88 51.268 12.182 51.268 12.586C51.268 12.99 51.392 13.292 51.64 13.492C51.888 13.688 52.21 13.786 52.606 13.786ZM59.2428 10.36H60.5088L58.2048 19H56.9388L59.2428 10.36ZM63.5804 19V11.74L61.9544 12.73V11.332L63.5804 10.36H64.8584V19H63.5804ZM70.1489 19.18C69.5609 19.18 69.0409 19.052 68.5889 18.796C68.1369 18.536 67.7809 18.18 67.5209 17.728C67.2649 17.276 67.1369 16.756 67.1369 16.168V13.192C67.1369 12.604 67.2649 12.084 67.5209 11.632C67.7809 11.18 68.1369 10.826 68.5889 10.57C69.0409 10.31 69.5609 10.18 70.1489 10.18C70.7369 10.18 71.2569 10.31 71.7089 10.57C72.1609 10.826 72.5149 11.18 72.7709 11.632C73.0309 12.084 73.1609 12.604 73.1609 13.192V16.168C73.1609 16.756 73.0309 17.276 72.7709 17.728C72.5149 18.18 72.1609 18.536 71.7089 18.796C71.2569 19.052 70.7369 19.18 70.1489 19.18ZM70.1489 17.98C70.4689 17.98 70.7589 17.904 71.0189 17.752C71.2829 17.596 71.4929 17.388 71.6489 17.128C71.8049 16.864 71.8829 16.57 71.8829 16.246V13.102C71.8829 12.782 71.8049 12.492 71.6489 12.232C71.4929 11.968 71.2829 11.76 71.0189 11.608C70.7589 11.452 70.4689 11.374 70.1489 11.374C69.8289 11.374 69.5369 11.452 69.2729 11.608C69.0129 11.76 68.8049 11.968 68.6489 12.232C68.4929 12.492 68.4149 12.782 68.4149 13.102V16.246C68.4149 16.57 68.4929 16.864 68.6489 17.128C68.8049 17.388 69.0129 17.596 69.2729 17.752C69.5369 17.904 69.8289 17.98 70.1489 17.98Z" fill="#00BA70"/>
<path d="M42 1V27" stroke="#E2E2E2"/>
<rect x="90.5" y="0.5" width="164" height="27" rx="13.5" stroke="#E3E3E3"/>
<path d="M99.84 19V10.36H100.974L104.106 16.858L107.22 10.36H108.366V18.994H107.178V13.084L104.388 19H103.818L101.022 13.084V19H99.84ZM112.861 19.18C112.213 19.18 111.651 19.034 111.175 18.742C110.699 18.45 110.331 18.048 110.071 17.536C109.815 17.02 109.687 16.426 109.687 15.754C109.687 15.078 109.819 14.484 110.083 13.972C110.347 13.456 110.717 13.056 111.193 12.772C111.669 12.484 112.225 12.34 112.861 12.34C113.509 12.34 114.071 12.486 114.547 12.778C115.023 13.07 115.391 13.472 115.651 13.984C115.911 14.496 116.041 15.086 116.041 15.754C116.041 16.43 115.909 17.026 115.645 17.542C115.385 18.054 115.017 18.456 114.541 18.748C114.065 19.036 113.505 19.18 112.861 19.18ZM112.861 17.998C113.481 17.998 113.943 17.79 114.247 17.374C114.555 16.954 114.709 16.414 114.709 15.754C114.709 15.078 114.553 14.538 114.241 14.134C113.933 13.726 113.473 13.522 112.861 13.522C112.441 13.522 112.095 13.618 111.823 13.81C111.551 13.998 111.349 14.26 111.217 14.596C111.085 14.928 111.019 15.314 111.019 15.754C111.019 16.434 111.175 16.978 111.487 17.386C111.799 17.794 112.257 17.998 112.861 17.998ZM121.908 19V15.814C121.908 15.562 121.886 15.304 121.842 15.04C121.802 14.772 121.722 14.524 121.602 14.296C121.486 14.068 121.32 13.884 121.104 13.744C120.892 13.604 120.614 13.534 120.27 13.534C120.046 13.534 119.834 13.572 119.634 13.648C119.434 13.72 119.258 13.838 119.106 14.002C118.958 14.166 118.84 14.382 118.752 14.65C118.668 14.918 118.626 15.244 118.626 15.628L117.846 15.334C117.846 14.746 117.956 14.228 118.176 13.78C118.396 13.328 118.712 12.976 119.124 12.724C119.536 12.472 120.034 12.346 120.618 12.346C121.066 12.346 121.442 12.418 121.746 12.562C122.05 12.706 122.296 12.896 122.484 13.132C122.676 13.364 122.822 13.618 122.922 13.894C123.022 14.17 123.09 14.44 123.126 14.704C123.162 14.968 123.18 15.2 123.18 15.4V19H121.908ZM117.354 19V12.52H118.476V14.392H118.626V19H117.354ZM128.45 19C128.042 19.08 127.642 19.114 127.25 19.102C126.858 19.09 126.508 19.014 126.2 18.874C125.892 18.734 125.66 18.514 125.504 18.214C125.364 17.946 125.288 17.674 125.276 17.398C125.268 17.118 125.264 16.802 125.264 16.45V10.72H126.524V16.39C126.524 16.65 126.526 16.876 126.53 17.068C126.538 17.26 126.58 17.422 126.656 17.554C126.8 17.802 127.028 17.944 127.34 17.98C127.656 18.012 128.026 17.998 128.45 17.938V19ZM124.022 13.528V12.52H128.45V13.528H124.022ZM134.365 19V15.814C134.365 15.562 134.343 15.304 134.299 15.04C134.259 14.772 134.179 14.524 134.059 14.296C133.943 14.068 133.777 13.884 133.561 13.744C133.349 13.604 133.071 13.534 132.727 13.534C132.503 13.534 132.291 13.572 132.091 13.648C131.891 13.72 131.715 13.838 131.563 14.002C131.415 14.166 131.297 14.382 131.209 14.65C131.125 14.918 131.083 15.244 131.083 15.628L130.303 15.334C130.303 14.746 130.413 14.228 130.633 13.78C130.853 13.328 131.169 12.976 131.581 12.724C131.993 12.472 132.491 12.346 133.075 12.346C133.523 12.346 133.899 12.418 134.203 12.562C134.507 12.706 134.753 12.896 134.941 13.132C135.133 13.364 135.279 13.618 135.379 13.894C135.479 14.17 135.547 14.44 135.583 14.704C135.619 14.968 135.637 15.2 135.637 15.4V19H134.365ZM129.811 19V10.36H130.933V15.022H131.083V19H129.811ZM139.602 19V10.36H145.122V11.542H140.856V13.966H144.402V15.148H140.856V17.818H145.122V19H139.602ZM151.111 19V15.814C151.111 15.562 151.089 15.304 151.045 15.04C151.005 14.772 150.925 14.524 150.805 14.296C150.689 14.068 150.523 13.884 150.307 13.744C150.095 13.604 149.817 13.534 149.473 13.534C149.249 13.534 149.037 13.572 148.837 13.648C148.637 13.72 148.461 13.838 148.309 14.002C148.161 14.166 148.043 14.382 147.955 14.65C147.871 14.918 147.829 15.244 147.829 15.628L147.049 15.334C147.049 14.746 147.159 14.228 147.379 13.78C147.599 13.328 147.915 12.976 148.327 12.724C148.739 12.472 149.237 12.346 149.821 12.346C150.269 12.346 150.645 12.418 150.949 12.562C151.253 12.706 151.499 12.896 151.687 13.132C151.879 13.364 152.025 13.618 152.125 13.894C152.225 14.17 152.293 14.44 152.329 14.704C152.365 14.968 152.383 15.2 152.383 15.4V19H151.111ZM146.557 19V12.52H147.679V14.392H147.829V19H146.557ZM156.437 19.18C155.833 19.18 155.311 19.03 154.871 18.73C154.435 18.43 154.097 18.022 153.857 17.506C153.621 16.986 153.503 16.402 153.503 15.754C153.503 15.102 153.623 14.52 153.863 14.008C154.103 13.492 154.443 13.086 154.883 12.79C155.327 12.49 155.853 12.34 156.461 12.34C157.073 12.34 157.587 12.49 158.003 12.79C158.423 13.086 158.739 13.492 158.951 14.008C159.167 14.524 159.275 15.106 159.275 15.754C159.275 16.402 159.167 16.984 158.951 17.5C158.735 18.016 158.417 18.426 157.997 18.73C157.577 19.03 157.057 19.18 156.437 19.18ZM156.611 18.046C157.023 18.046 157.359 17.948 157.619 17.752C157.879 17.556 158.069 17.286 158.189 16.942C158.309 16.598 158.369 16.202 158.369 15.754C158.369 15.306 158.307 14.91 158.183 14.566C158.063 14.222 157.875 13.954 157.619 13.762C157.367 13.57 157.045 13.474 156.653 13.474C156.237 13.474 155.895 13.576 155.627 13.78C155.359 13.984 155.159 14.258 155.027 14.602C154.899 14.946 154.835 15.33 154.835 15.754C154.835 16.182 154.899 16.57 155.027 16.918C155.159 17.262 155.355 17.536 155.615 17.74C155.879 17.944 156.211 18.046 156.611 18.046ZM158.369 19V14.338H158.225V10.36H159.485V19H158.369ZM167.173 19.18C166.309 19.18 165.573 18.992 164.965 18.616C164.357 18.236 163.891 17.708 163.567 17.032C163.247 16.356 163.087 15.572 163.087 14.68C163.087 13.788 163.247 13.004 163.567 12.328C163.891 11.652 164.357 11.126 164.965 10.75C165.573 10.37 166.309 10.18 167.173 10.18C168.169 10.18 168.993 10.432 169.645 10.936C170.301 11.44 170.757 12.118 171.013 12.97L169.741 13.312C169.573 12.708 169.273 12.234 168.841 11.89C168.413 11.546 167.857 11.374 167.173 11.374C166.561 11.374 166.051 11.512 165.643 11.788C165.235 12.064 164.927 12.45 164.719 12.946C164.515 13.442 164.413 14.02 164.413 14.68C164.409 15.34 164.509 15.918 164.713 16.414C164.921 16.91 165.229 17.296 165.637 17.572C166.049 17.848 166.561 17.986 167.173 17.986C167.857 17.986 168.413 17.814 168.841 17.47C169.273 17.122 169.573 16.648 169.741 16.048L171.013 16.39C170.757 17.242 170.301 17.92 169.645 18.424C168.993 18.928 168.169 19.18 167.173 19.18ZM172.452 19V10.18H173.706V19H172.452ZM178.322 19.18C177.674 19.18 177.112 19.034 176.636 18.742C176.16 18.45 175.792 18.048 175.532 17.536C175.276 17.02 175.148 16.426 175.148 15.754C175.148 15.078 175.28 14.484 175.544 13.972C175.808 13.456 176.178 13.056 176.654 12.772C177.13 12.484 177.686 12.34 178.322 12.34C178.97 12.34 179.532 12.486 180.008 12.778C180.484 13.07 180.852 13.472 181.112 13.984C181.372 14.496 181.502 15.086 181.502 15.754C181.502 16.43 181.37 17.026 181.106 17.542C180.846 18.054 180.478 18.456 180.002 18.748C179.526 19.036 178.966 19.18 178.322 19.18ZM178.322 17.998C178.942 17.998 179.404 17.79 179.708 17.374C180.016 16.954 180.17 16.414 180.17 15.754C180.17 15.078 180.014 14.538 179.702 14.134C179.394 13.726 178.934 13.522 178.322 13.522C177.902 13.522 177.556 13.618 177.284 13.81C177.012 13.998 176.81 14.26 176.678 14.596C176.546 14.928 176.48 15.314 176.48 15.754C176.48 16.434 176.636 16.978 176.948 17.386C177.26 17.794 177.718 17.998 178.322 17.998ZM185.181 19.174C184.393 19.174 183.751 19 183.255 18.652C182.759 18.304 182.455 17.814 182.343 17.182L183.627 16.984C183.707 17.32 183.891 17.586 184.179 17.782C184.471 17.974 184.833 18.07 185.265 18.07C185.657 18.07 185.963 17.99 186.183 17.83C186.407 17.67 186.519 17.45 186.519 17.17C186.519 17.006 186.479 16.874 186.399 16.774C186.323 16.67 186.161 16.572 185.913 16.48C185.665 16.388 185.287 16.274 184.779 16.138C184.223 15.994 183.781 15.84 183.453 15.676C183.129 15.508 182.897 15.314 182.757 15.094C182.621 14.87 182.553 14.6 182.553 14.284C182.553 13.892 182.657 13.55 182.865 13.258C183.073 12.966 183.365 12.74 183.741 12.58C184.121 12.42 184.565 12.34 185.073 12.34C185.569 12.34 186.011 12.418 186.399 12.574C186.787 12.73 187.101 12.952 187.341 13.24C187.581 13.524 187.725 13.858 187.773 14.242L186.489 14.476C186.445 14.164 186.299 13.918 186.051 13.738C185.803 13.558 185.481 13.46 185.085 13.444C184.705 13.428 184.397 13.492 184.161 13.636C183.925 13.776 183.807 13.97 183.807 14.218C183.807 14.362 183.851 14.484 183.939 14.584C184.031 14.684 184.207 14.78 184.467 14.872C184.727 14.964 185.111 15.074 185.619 15.202C186.163 15.342 186.595 15.498 186.915 15.67C187.235 15.838 187.463 16.04 187.599 16.276C187.739 16.508 187.809 16.79 187.809 17.122C187.809 17.762 187.575 18.264 187.107 18.628C186.643 18.992 186.001 19.174 185.181 19.174ZM191.579 19.174C191.131 19.174 190.755 19.102 190.451 18.958C190.147 18.814 189.899 18.626 189.707 18.394C189.519 18.158 189.375 17.902 189.275 17.626C189.175 17.35 189.107 17.08 189.071 16.816C189.035 16.552 189.017 16.32 189.017 16.12V12.52H190.289V15.706C190.289 15.958 190.309 16.218 190.349 16.486C190.393 16.75 190.473 16.996 190.589 17.224C190.709 17.452 190.875 17.636 191.087 17.776C191.303 17.916 191.583 17.986 191.927 17.986C192.151 17.986 192.363 17.95 192.563 17.878C192.763 17.802 192.937 17.682 193.085 17.518C193.237 17.354 193.355 17.138 193.439 16.87C193.527 16.602 193.571 16.276 193.571 15.892L194.351 16.186C194.351 16.774 194.241 17.294 194.021 17.746C193.801 18.194 193.485 18.544 193.073 18.796C192.661 19.048 192.163 19.174 191.579 19.174ZM193.721 19V17.128H193.571V12.52H194.837V19H193.721ZM196.52 19V12.52H197.636V14.092L197.48 13.888C197.56 13.68 197.664 13.49 197.792 13.318C197.92 13.142 198.068 12.998 198.236 12.886C198.4 12.766 198.582 12.674 198.782 12.61C198.986 12.542 199.194 12.502 199.406 12.49C199.618 12.474 199.822 12.484 200.018 12.52V13.696C199.806 13.64 199.57 13.624 199.31 13.648C199.054 13.672 198.818 13.754 198.602 13.894C198.398 14.026 198.236 14.186 198.116 14.374C198 14.562 197.916 14.772 197.864 15.004C197.812 15.232 197.786 15.474 197.786 15.73V19H196.52ZM203.917 19.18C203.273 19.18 202.707 19.04 202.219 18.76C201.735 18.476 201.357 18.082 201.085 17.578C200.817 17.07 200.683 16.482 200.683 15.814C200.683 15.106 200.815 14.492 201.079 13.972C201.347 13.452 201.719 13.05 202.195 12.766C202.671 12.482 203.225 12.34 203.857 12.34C204.517 12.34 205.079 12.494 205.543 12.802C206.007 13.106 206.353 13.54 206.581 14.104C206.813 14.668 206.905 15.338 206.857 16.114H205.603V15.658C205.595 14.906 205.451 14.35 205.171 13.99C204.895 13.63 204.473 13.45 203.905 13.45C203.277 13.45 202.805 13.648 202.489 14.044C202.173 14.44 202.015 15.012 202.015 15.76C202.015 16.472 202.173 17.024 202.489 17.416C202.805 17.804 203.261 17.998 203.857 17.998C204.249 17.998 204.587 17.91 204.871 17.734C205.159 17.554 205.383 17.298 205.543 16.966L206.773 17.356C206.521 17.936 206.139 18.386 205.627 18.706C205.115 19.022 204.545 19.18 203.917 19.18ZM201.607 16.114V15.136H206.233V16.114H201.607Z" fill="#171717"/>
<path d="M214 1H241C248.18 1 254 6.8203 254 14C254 21.1797 248.18 27 241 27H214V1Z" fill="#E4FFF4"/>
<path d="M224.648 10.186C225.204 10.186 225.706 10.32 226.154 10.588C226.602 10.852 226.958 11.216 227.222 11.68C227.486 12.144 227.618 12.674 227.618 13.27V16.018C227.618 16.65 227.486 17.204 227.222 17.68C226.962 18.152 226.598 18.52 226.13 18.784C225.666 19.048 225.13 19.18 224.522 19.18C224.066 19.18 223.638 19.094 223.238 18.922C222.838 18.75 222.49 18.494 222.194 18.154L223.118 17.296C223.282 17.508 223.488 17.678 223.736 17.806C223.984 17.934 224.246 17.998 224.522 17.998C224.878 17.998 225.192 17.912 225.464 17.74C225.74 17.568 225.954 17.344 226.106 17.068C226.258 16.792 226.334 16.496 226.334 16.18V14.596L226.586 14.872C226.338 15.196 226.03 15.452 225.662 15.64C225.294 15.828 224.9 15.922 224.48 15.922C223.94 15.922 223.46 15.798 223.04 15.55C222.62 15.302 222.288 14.964 222.044 14.536C221.8 14.108 221.678 13.624 221.678 13.084C221.678 12.544 221.814 12.056 222.086 11.62C222.358 11.184 222.718 10.836 223.166 10.576C223.614 10.316 224.108 10.186 224.648 10.186ZM224.648 11.398C224.336 11.398 224.05 11.474 223.79 11.626C223.534 11.774 223.33 11.976 223.178 12.232C223.026 12.488 222.95 12.772 222.95 13.084C222.95 13.396 223.026 13.682 223.178 13.942C223.33 14.198 223.534 14.402 223.79 14.554C224.046 14.706 224.33 14.782 224.642 14.782C224.954 14.782 225.238 14.706 225.494 14.554C225.75 14.402 225.954 14.198 226.106 13.942C226.258 13.682 226.334 13.396 226.334 13.084C226.334 12.776 226.258 12.494 226.106 12.238C225.958 11.982 225.756 11.778 225.5 11.626C225.244 11.474 224.96 11.398 224.648 11.398ZM231.477 10.36H232.743L230.439 19H229.173L231.477 10.36ZM235.815 19V11.74L234.189 12.73V11.332L235.815 10.36H237.093V19H235.815ZM242.383 19.18C241.795 19.18 241.275 19.052 240.823 18.796C240.371 18.536 240.015 18.18 239.755 17.728C239.499 17.276 239.371 16.756 239.371 16.168V13.192C239.371 12.604 239.499 12.084 239.755 11.632C240.015 11.18 240.371 10.826 240.823 10.57C241.275 10.31 241.795 10.18 242.383 10.18C242.971 10.18 243.491 10.31 243.943 10.57C244.395 10.826 244.749 11.18 245.005 11.632C245.265 12.084 245.395 12.604 245.395 13.192V16.168C245.395 16.756 245.265 17.276 245.005 17.728C244.749 18.18 244.395 18.536 243.943 18.796C243.491 19.052 242.971 19.18 242.383 19.18ZM242.383 17.98C242.703 17.98 242.993 17.904 243.253 17.752C243.517 17.596 243.727 17.388 243.883 17.128C244.039 16.864 244.117 16.57 244.117 16.246V13.102C244.117 12.782 244.039 12.492 243.883 12.232C243.727 11.968 243.517 11.76 243.253 11.608C242.993 11.452 242.703 11.374 242.383 11.374C242.063 11.374 241.771 11.452 241.507 11.608C241.247 11.76 241.039 11.968 240.883 12.232C240.727 12.492 240.649 12.782 240.649 13.102V16.246C240.649 16.57 240.727 16.864 240.883 17.128C241.039 17.388 241.247 17.596 241.507 17.752C241.771 17.904 242.063 17.98 242.383 17.98Z" fill="#00BA70"/>
<path d="M214 1V27" stroke="#E2E2E2"/>
<rect x="0.5" y="35.5" width="107" height="27" rx="13.5" stroke="#E3E3E3"/>
<path d="M9.96 54V45.36H11.214V54H9.96ZM17.5638 54V50.814C17.5638 50.562 17.5418 50.304 17.4978 50.04C17.4578 49.772 17.3778 49.524 17.2578 49.296C17.1418 49.068 16.9758 48.884 16.7598 48.744C16.5478 48.604 16.2698 48.534 15.9258 48.534C15.7018 48.534 15.4898 48.572 15.2898 48.648C15.0898 48.72 14.9138 48.838 14.7618 49.002C14.6138 49.166 14.4958 49.382 14.4078 49.65C14.3238 49.918 14.2818 50.244 14.2818 50.628L13.5018 50.334C13.5018 49.746 13.6118 49.228 13.8318 48.78C14.0518 48.328 14.3678 47.976 14.7798 47.724C15.1918 47.472 15.6898 47.346 16.2738 47.346C16.7218 47.346 17.0978 47.418 17.4018 47.562C17.7058 47.706 17.9518 47.896 18.1398 48.132C18.3318 48.364 18.4778 48.618 18.5778 48.894C18.6778 49.17 18.7458 49.44 18.7818 49.704C18.8178 49.968 18.8358 50.2 18.8358 50.4V54H17.5638ZM13.0098 54V47.52H14.1318V49.392H14.2818V54H13.0098ZM22.1506 54L19.7986 47.52H21.0646L22.7866 52.428L24.5086 47.52H25.7746L23.4226 54H22.1506ZM29.4353 54.18C28.7873 54.18 28.2253 54.034 27.7493 53.742C27.2733 53.45 26.9053 53.048 26.6453 52.536C26.3893 52.02 26.2613 51.426 26.2613 50.754C26.2613 50.078 26.3933 49.484 26.6573 48.972C26.9213 48.456 27.2913 48.056 27.7673 47.772C28.2433 47.484 28.7993 47.34 29.4353 47.34C30.0833 47.34 30.6453 47.486 31.1213 47.778C31.5973 48.07 31.9653 48.472 32.2253 48.984C32.4853 49.496 32.6153 50.086 32.6153 50.754C32.6153 51.43 32.4833 52.026 32.2193 52.542C31.9593 53.054 31.5913 53.456 31.1153 53.748C30.6393 54.036 30.0793 54.18 29.4353 54.18ZM29.4353 52.998C30.0553 52.998 30.5173 52.79 30.8213 52.374C31.1293 51.954 31.2833 51.414 31.2833 50.754C31.2833 50.078 31.1273 49.538 30.8153 49.134C30.5073 48.726 30.0473 48.522 29.4353 48.522C29.0153 48.522 28.6693 48.618 28.3973 48.81C28.1253 48.998 27.9233 49.26 27.7913 49.596C27.6593 49.928 27.5933 50.314 27.5933 50.754C27.5933 51.434 27.7493 51.978 28.0613 52.386C28.3733 52.794 28.8313 52.998 29.4353 52.998ZM34.0538 46.458V45.24H35.3078V46.458H34.0538ZM34.0538 54V47.52H35.3078V54H34.0538ZM39.8815 54.18C39.2175 54.18 38.6535 54.032 38.1895 53.736C37.7255 53.44 37.3695 53.034 37.1215 52.518C36.8775 52.002 36.7535 51.416 36.7495 50.76C36.7535 50.092 36.8815 49.502 37.1335 48.99C37.3855 48.474 37.7455 48.07 38.2135 47.778C38.6815 47.486 39.2435 47.34 39.8995 47.34C40.6075 47.34 41.2115 47.516 41.7115 47.868C42.2155 48.22 42.5475 48.702 42.7075 49.314L41.4595 49.674C41.3355 49.31 41.1315 49.028 40.8475 48.828C40.5675 48.624 40.2455 48.522 39.8815 48.522C39.4695 48.522 39.1315 48.62 38.8675 48.816C38.6035 49.008 38.4075 49.272 38.2795 49.608C38.1515 49.944 38.0855 50.328 38.0815 50.76C38.0855 51.428 38.2375 51.968 38.5375 52.38C38.8415 52.792 39.2895 52.998 39.8815 52.998C40.2855 52.998 40.6115 52.906 40.8595 52.722C41.1115 52.534 41.3035 52.266 41.4355 51.918L42.7075 52.218C42.4955 52.85 42.1455 53.336 41.6575 53.676C41.1695 54.012 40.5775 54.18 39.8815 54.18ZM43.8741 46.458V45.24H45.1281V46.458H43.8741ZM43.8741 54V47.52H45.1281V54H43.8741ZM51.4778 54V50.814C51.4778 50.562 51.4558 50.304 51.4118 50.04C51.3718 49.772 51.2918 49.524 51.1718 49.296C51.0558 49.068 50.8898 48.884 50.6738 48.744C50.4618 48.604 50.1838 48.534 49.8398 48.534C49.6158 48.534 49.4038 48.572 49.2038 48.648C49.0038 48.72 48.8278 48.838 48.6758 49.002C48.5278 49.166 48.4098 49.382 48.3218 49.65C48.2378 49.918 48.1958 50.244 48.1958 50.628L47.4158 50.334C47.4158 49.746 47.5258 49.228 47.7458 48.78C47.9658 48.328 48.2818 47.976 48.6938 47.724C49.1058 47.472 49.6038 47.346 50.1878 47.346C50.6358 47.346 51.0118 47.418 51.3158 47.562C51.6198 47.706 51.8658 47.896 52.0538 48.132C52.2458 48.364 52.3918 48.618 52.4918 48.894C52.5918 49.17 52.6598 49.44 52.6958 49.704C52.7318 49.968 52.7498 50.2 52.7498 50.4V54H51.4778ZM46.9238 54V47.52H48.0458V49.392H48.1958V54H46.9238ZM56.9827 57.06C56.6347 57.06 56.2967 57.006 55.9687 56.898C55.6447 56.79 55.3487 56.63 55.0807 56.418C54.8127 56.21 54.5907 55.952 54.4147 55.644L55.5727 55.056C55.7127 55.332 55.9127 55.534 56.1727 55.662C56.4327 55.79 56.7067 55.854 56.9947 55.854C57.3507 55.854 57.6547 55.79 57.9067 55.662C58.1587 55.538 58.3487 55.35 58.4767 55.098C58.6087 54.846 58.6727 54.534 58.6687 54.162V52.35H58.8187V47.52H59.9287V54.174C59.9287 54.346 59.9227 54.51 59.9107 54.666C59.8987 54.822 59.8767 54.978 59.8447 55.134C59.7527 55.57 59.5767 55.93 59.3167 56.214C59.0607 56.498 58.7327 56.71 58.3327 56.85C57.9367 56.99 57.4867 57.06 56.9827 57.06ZM56.8867 54.18C56.2827 54.18 55.7607 54.03 55.3207 53.73C54.8847 53.43 54.5467 53.022 54.3067 52.506C54.0707 51.986 53.9527 51.402 53.9527 50.754C53.9527 50.102 54.0727 49.52 54.3127 49.008C54.5527 48.492 54.8927 48.086 55.3327 47.79C55.7767 47.49 56.3027 47.34 56.9107 47.34C57.5227 47.34 58.0367 47.49 58.4527 47.79C58.8727 48.086 59.1887 48.492 59.4007 49.008C59.6167 49.524 59.7247 50.106 59.7247 50.754C59.7247 51.402 59.6167 51.984 59.4007 52.5C59.1847 53.016 58.8667 53.426 58.4467 53.73C58.0267 54.03 57.5067 54.18 56.8867 54.18ZM57.0607 53.046C57.4727 53.046 57.8087 52.948 58.0687 52.752C58.3287 52.556 58.5187 52.286 58.6387 51.942C58.7587 51.598 58.8187 51.202 58.8187 50.754C58.8187 50.306 58.7567 49.91 58.6327 49.566C58.5127 49.222 58.3247 48.954 58.0687 48.762C57.8167 48.57 57.4947 48.474 57.1027 48.474C56.6867 48.474 56.3447 48.576 56.0767 48.78C55.8087 48.984 55.6087 49.258 55.4767 49.602C55.3487 49.946 55.2847 50.33 55.2847 50.754C55.2847 51.182 55.3487 51.57 55.4767 51.918C55.6087 52.262 55.8047 52.536 56.0647 52.74C56.3287 52.944 56.6607 53.046 57.0607 53.046Z" fill="#171717"/>
<path d="M67 36H94C101.18 36 107 41.8203 107 49C107 56.1797 101.18 62 94 62H67V36Z" fill="#E4FFF4"/>
<path d="M77.648 45.186C78.204 45.186 78.706 45.32 79.154 45.588C79.602 45.852 79.958 46.216 80.222 46.68C80.486 47.144 80.618 47.674 80.618 48.27V51.018C80.618 51.65 80.486 52.204 80.222 52.68C79.962 53.152 79.598 53.52 79.13 53.784C78.666 54.048 78.13 54.18 77.522 54.18C77.066 54.18 76.638 54.094 76.238 53.922C75.838 53.75 75.49 53.494 75.194 53.154L76.118 52.296C76.282 52.508 76.488 52.678 76.736 52.806C76.984 52.934 77.246 52.998 77.522 52.998C77.878 52.998 78.192 52.912 78.464 52.74C78.74 52.568 78.954 52.344 79.106 52.068C79.258 51.792 79.334 51.496 79.334 51.18V49.596L79.586 49.872C79.338 50.196 79.03 50.452 78.662 50.64C78.294 50.828 77.9 50.922 77.48 50.922C76.94 50.922 76.46 50.798 76.04 50.55C75.62 50.302 75.288 49.964 75.044 49.536C74.8 49.108 74.678 48.624 74.678 48.084C74.678 47.544 74.814 47.056 75.086 46.62C75.358 46.184 75.718 45.836 76.166 45.576C76.614 45.316 77.108 45.186 77.648 45.186ZM77.648 46.398C77.336 46.398 77.05 46.474 76.79 46.626C76.534 46.774 76.33 46.976 76.178 47.232C76.026 47.488 75.95 47.772 75.95 48.084C75.95 48.396 76.026 48.682 76.178 48.942C76.33 49.198 76.534 49.402 76.79 49.554C77.046 49.706 77.33 49.782 77.642 49.782C77.954 49.782 78.238 49.706 78.494 49.554C78.75 49.402 78.954 49.198 79.106 48.942C79.258 48.682 79.334 48.396 79.334 48.084C79.334 47.776 79.258 47.494 79.106 47.238C78.958 46.982 78.756 46.778 78.5 46.626C78.244 46.474 77.96 46.398 77.648 46.398ZM84.4771 45.36H85.7431L83.4391 54H82.1731L84.4771 45.36ZM88.8148 54V46.74L87.1888 47.73V46.332L88.8148 45.36H90.0928V54H88.8148ZM95.3833 54.18C94.7953 54.18 94.2753 54.052 93.8233 53.796C93.3713 53.536 93.0153 53.18 92.7553 52.728C92.4993 52.276 92.3713 51.756 92.3713 51.168V48.192C92.3713 47.604 92.4993 47.084 92.7553 46.632C93.0153 46.18 93.3713 45.826 93.8233 45.57C94.2753 45.31 94.7953 45.18 95.3833 45.18C95.9713 45.18 96.4913 45.31 96.9433 45.57C97.3953 45.826 97.7493 46.18 98.0052 46.632C98.2653 47.084 98.3953 47.604 98.3953 48.192V51.168C98.3953 51.756 98.2653 52.276 98.0052 52.728C97.7493 53.18 97.3953 53.536 96.9433 53.796C96.4913 54.052 95.9713 54.18 95.3833 54.18ZM95.3833 52.98C95.7033 52.98 95.9933 52.904 96.2533 52.752C96.5173 52.596 96.7273 52.388 96.8833 52.128C97.0393 51.864 97.1173 51.57 97.1173 51.246V48.102C97.1173 47.782 97.0393 47.492 96.8833 47.232C96.7273 46.968 96.5173 46.76 96.2533 46.608C95.9933 46.452 95.7033 46.374 95.3833 46.374C95.0633 46.374 94.7713 46.452 94.5073 46.608C94.2473 46.76 94.0393 46.968 93.8833 47.232C93.7273 47.492 93.6493 47.782 93.6493 48.102V51.246C93.6493 51.57 93.7273 51.864 93.8833 52.128C94.0393 52.388 94.2473 52.596 94.5073 52.752C94.7713 52.904 95.0633 52.98 95.3833 52.98Z" fill="#00BA70"/>
<path d="M67 36V62" stroke="#E2E2E2"/>
<rect x="115.5" y="35.5" width="86" height="27" rx="13.5" stroke="#E3E3E3"/>
<path d="M124.84 54V45.36H130.36V46.542H126.094V48.966H129.64V50.148H126.094V52.818H130.36V54H124.84ZM131.081 54L133.505 50.724L131.135 47.52H132.623L134.237 49.746L135.833 47.52H137.321L134.951 50.724L137.381 54H135.887L134.237 51.702L132.575 54H131.081ZM140.878 54.18C140.214 54.18 139.65 54.032 139.186 53.736C138.722 53.44 138.366 53.034 138.118 52.518C137.874 52.002 137.75 51.416 137.746 50.76C137.75 50.092 137.878 49.502 138.13 48.99C138.382 48.474 138.742 48.07 139.21 47.778C139.678 47.486 140.24 47.34 140.896 47.34C141.604 47.34 142.208 47.516 142.708 47.868C143.212 48.22 143.544 48.702 143.704 49.314L142.456 49.674C142.332 49.31 142.128 49.028 141.844 48.828C141.564 48.624 141.242 48.522 140.878 48.522C140.466 48.522 140.128 48.62 139.864 48.816C139.6 49.008 139.404 49.272 139.276 49.608C139.148 49.944 139.082 50.328 139.078 50.76C139.082 51.428 139.234 51.968 139.534 52.38C139.838 52.792 140.286 52.998 140.878 52.998C141.282 52.998 141.608 52.906 141.856 52.722C142.108 52.534 142.3 52.266 142.432 51.918L143.704 52.218C143.492 52.85 143.142 53.336 142.654 53.676C142.166 54.012 141.574 54.18 140.878 54.18ZM147.624 54.18C146.98 54.18 146.414 54.04 145.926 53.76C145.442 53.476 145.064 53.082 144.792 52.578C144.524 52.07 144.39 51.482 144.39 50.814C144.39 50.106 144.522 49.492 144.786 48.972C145.054 48.452 145.426 48.05 145.902 47.766C146.378 47.482 146.932 47.34 147.564 47.34C148.224 47.34 148.786 47.494 149.25 47.802C149.714 48.106 150.06 48.54 150.288 49.104C150.52 49.668 150.612 50.338 150.564 51.114H149.31V50.658C149.302 49.906 149.158 49.35 148.878 48.99C148.602 48.63 148.18 48.45 147.612 48.45C146.984 48.45 146.512 48.648 146.196 49.044C145.88 49.44 145.722 50.012 145.722 50.76C145.722 51.472 145.88 52.024 146.196 52.416C146.512 52.804 146.968 52.998 147.564 52.998C147.956 52.998 148.294 52.91 148.578 52.734C148.866 52.554 149.09 52.298 149.25 51.966L150.48 52.356C150.228 52.936 149.846 53.386 149.334 53.706C148.822 54.022 148.252 54.18 147.624 54.18ZM145.314 51.114V50.136H149.94V51.114H145.314ZM152.03 54V45.18H153.284V54H152.03Z" fill="#171717"/>
<path d="M161 36H188C195.18 36 201 41.8203 201 49C201 56.1797 195.18 62 188 62H161V36Z" fill="#E4FFF4"/>
<path d="M171.648 45.186C172.204 45.186 172.706 45.32 173.154 45.588C173.602 45.852 173.958 46.216 174.222 46.68C174.486 47.144 174.618 47.674 174.618 48.27V51.018C174.618 51.65 174.486 52.204 174.222 52.68C173.962 53.152 173.598 53.52 173.13 53.784C172.666 54.048 172.13 54.18 171.522 54.18C171.066 54.18 170.638 54.094 170.238 53.922C169.838 53.75 169.49 53.494 169.194 53.154L170.118 52.296C170.282 52.508 170.488 52.678 170.736 52.806C170.984 52.934 171.246 52.998 171.522 52.998C171.878 52.998 172.192 52.912 172.464 52.74C172.74 52.568 172.954 52.344 173.106 52.068C173.258 51.792 173.334 51.496 173.334 51.18V49.596L173.586 49.872C173.338 50.196 173.03 50.452 172.662 50.64C172.294 50.828 171.9 50.922 171.48 50.922C170.94 50.922 170.46 50.798 170.04 50.55C169.62 50.302 169.288 49.964 169.044 49.536C168.8 49.108 168.678 48.624 168.678 48.084C168.678 47.544 168.814 47.056 169.086 46.62C169.358 46.184 169.718 45.836 170.166 45.576C170.614 45.316 171.108 45.186 171.648 45.186ZM171.648 46.398C171.336 46.398 171.05 46.474 170.79 46.626C170.534 46.774 170.33 46.976 170.178 47.232C170.026 47.488 169.95 47.772 169.95 48.084C169.95 48.396 170.026 48.682 170.178 48.942C170.33 49.198 170.534 49.402 170.79 49.554C171.046 49.706 171.33 49.782 171.642 49.782C171.954 49.782 172.238 49.706 172.494 49.554C172.75 49.402 172.954 49.198 173.106 48.942C173.258 48.682 173.334 48.396 173.334 48.084C173.334 47.776 173.258 47.494 173.106 47.238C172.958 46.982 172.756 46.778 172.5 46.626C172.244 46.474 171.96 46.398 171.648 46.398ZM178.477 45.36H179.743L177.439 54H176.173L178.477 45.36ZM182.815 54V46.74L181.189 47.73V46.332L182.815 45.36H184.093V54H182.815ZM189.383 54.18C188.795 54.18 188.275 54.052 187.823 53.796C187.371 53.536 187.015 53.18 186.755 52.728C186.499 52.276 186.371 51.756 186.371 51.168V48.192C186.371 47.604 186.499 47.084 186.755 46.632C187.015 46.18 187.371 45.826 187.823 45.57C188.275 45.31 188.795 45.18 189.383 45.18C189.971 45.18 190.491 45.31 190.943 45.57C191.395 45.826 191.749 46.18 192.005 46.632C192.265 47.084 192.395 47.604 192.395 48.192V51.168C192.395 51.756 192.265 52.276 192.005 52.728C191.749 53.18 191.395 53.536 190.943 53.796C190.491 54.052 189.971 54.18 189.383 54.18ZM189.383 52.98C189.703 52.98 189.993 52.904 190.253 52.752C190.517 52.596 190.727 52.388 190.883 52.128C191.039 51.864 191.117 51.57 191.117 51.246V48.102C191.117 47.782 191.039 47.492 190.883 47.232C190.727 46.968 190.517 46.76 190.253 46.608C189.993 46.452 189.703 46.374 189.383 46.374C189.063 46.374 188.771 46.452 188.507 46.608C188.247 46.76 188.039 46.968 187.883 47.232C187.727 47.492 187.649 47.782 187.649 48.102V51.246C187.649 51.57 187.727 51.864 187.883 52.128C188.039 52.388 188.247 52.596 188.507 52.752C188.771 52.904 189.063 52.98 189.383 52.98Z" fill="#00BA70"/>
<path d="M161 36V62" stroke="#E2E2E2"/>
</g>
<defs>
<clipPath id="clip0_10172_13192">
<rect width="325" height="65" fill="white"/>
</clipPath>
</defs>
</svg>
