<svg width="325" height="65" viewBox="0 0 325 65" fill="none" xmlns="http://www.w3.org/2000/svg">
<rect x="0.5" y="0.5" width="105" height="27" rx="13.5" stroke="#E3E3E3"/>
<path d="M9.24 19L12.048 10.36H13.854L16.662 19H15.36L12.774 11.116H13.098L10.542 19H9.24ZM10.698 17.05V15.874H15.21V17.05H10.698ZM20.5104 19.18C19.8464 19.18 19.2824 19.032 18.8184 18.736C18.3544 18.44 17.9984 18.034 17.7504 17.518C17.5064 17.002 17.3824 16.416 17.3784 15.76C17.3824 15.092 17.5104 14.502 17.7624 13.99C18.0144 13.474 18.3744 13.07 18.8424 12.778C19.3104 12.486 19.8724 12.34 20.5284 12.34C21.2364 12.34 21.8404 12.516 22.3404 12.868C22.8444 13.22 23.1764 13.702 23.3364 14.314L22.0884 14.674C21.9644 14.31 21.7604 14.028 21.4764 13.828C21.1964 13.624 20.8744 13.522 20.5104 13.522C20.0984 13.522 19.7604 13.62 19.4964 13.816C19.2324 14.008 19.0364 14.272 18.9084 14.608C18.7804 14.944 18.7144 15.328 18.7104 15.76C18.7144 16.428 18.8664 16.968 19.1664 17.38C19.4704 17.792 19.9184 17.998 20.5104 17.998C20.9144 17.998 21.2404 17.906 21.4884 17.722C21.7404 17.534 21.9324 17.266 22.0644 16.918L23.3364 17.218C23.1244 17.85 22.7744 18.336 22.2864 18.676C21.7984 19.012 21.2064 19.18 20.5104 19.18ZM27.155 19.18C26.491 19.18 25.927 19.032 25.463 18.736C24.999 18.44 24.643 18.034 24.395 17.518C24.151 17.002 24.027 16.416 24.023 15.76C24.027 15.092 24.155 14.502 24.407 13.99C24.659 13.474 25.019 13.07 25.487 12.778C25.955 12.486 26.517 12.34 27.173 12.34C27.881 12.34 28.485 12.516 28.985 12.868C29.489 13.22 29.821 13.702 29.981 14.314L28.733 14.674C28.609 14.31 28.405 14.028 28.121 13.828C27.841 13.624 27.519 13.522 27.155 13.522C26.743 13.522 26.405 13.62 26.141 13.816C25.877 14.008 25.681 14.272 25.553 14.608C25.425 14.944 25.359 15.328 25.355 15.76C25.359 16.428 25.511 16.968 25.811 17.38C26.115 17.792 26.563 17.998 27.155 17.998C27.559 17.998 27.885 17.906 28.133 17.722C28.385 17.534 28.577 17.266 28.709 16.918L29.981 17.218C29.769 17.85 29.419 18.336 28.931 18.676C28.443 19.012 27.851 19.18 27.155 19.18ZM31.2033 19V12.52H32.3193V14.092L32.1633 13.888C32.2433 13.68 32.3473 13.49 32.4753 13.318C32.6033 13.142 32.7513 12.998 32.9193 12.886C33.0833 12.766 33.2653 12.674 33.4653 12.61C33.6693 12.542 33.8773 12.502 34.0893 12.49C34.3013 12.474 34.5053 12.484 34.7013 12.52V13.696C34.4893 13.64 34.2533 13.624 33.9933 13.648C33.7373 13.672 33.5013 13.754 33.2853 13.894C33.0813 14.026 32.9193 14.186 32.7993 14.374C32.6833 14.562 32.5993 14.772 32.5473 15.004C32.4953 15.232 32.4693 15.474 32.4693 15.73V19H31.2033ZM38.2859 19.174C37.8379 19.174 37.4619 19.102 37.1579 18.958C36.8539 18.814 36.6059 18.626 36.4139 18.394C36.2259 18.158 36.0819 17.902 35.9819 17.626C35.8819 17.35 35.8139 17.08 35.7779 16.816C35.7419 16.552 35.7239 16.32 35.7239 16.12V12.52H36.9959V15.706C36.9959 15.958 37.0159 16.218 37.0559 16.486C37.0999 16.75 37.1799 16.996 37.2959 17.224C37.4159 17.452 37.5819 17.636 37.7939 17.776C38.0099 17.916 38.2899 17.986 38.6339 17.986C38.8579 17.986 39.0699 17.95 39.2699 17.878C39.4699 17.802 39.6439 17.682 39.7919 17.518C39.9439 17.354 40.0619 17.138 40.1459 16.87C40.2339 16.602 40.2779 16.276 40.2779 15.892L41.0579 16.186C41.0579 16.774 40.9479 17.294 40.7279 17.746C40.5079 18.194 40.1919 18.544 39.7799 18.796C39.3679 19.048 38.8699 19.174 38.2859 19.174ZM40.4279 19V17.128H40.2779V12.52H41.5439V19H40.4279ZM45.0567 19.18C44.5767 19.18 44.1747 19.092 43.8507 18.916C43.5267 18.736 43.2807 18.5 43.1127 18.208C42.9487 17.912 42.8667 17.588 42.8667 17.236C42.8667 16.908 42.9247 16.62 43.0407 16.372C43.1567 16.124 43.3287 15.914 43.5567 15.742C43.7847 15.566 44.0647 15.424 44.3967 15.316C44.6847 15.232 45.0107 15.158 45.3747 15.094C45.7387 15.03 46.1207 14.97 46.5207 14.914C46.9247 14.858 47.3247 14.802 47.7207 14.746L47.2647 14.998C47.2727 14.49 47.1647 14.114 46.9407 13.87C46.7207 13.622 46.3407 13.498 45.8007 13.498C45.4607 13.498 45.1487 13.578 44.8647 13.738C44.5807 13.894 44.3827 14.154 44.2707 14.518L43.1007 14.158C43.2607 13.602 43.5647 13.16 44.0127 12.832C44.4647 12.504 45.0647 12.34 45.8127 12.34C46.3927 12.34 46.8967 12.44 47.3247 12.64C47.7567 12.836 48.0727 13.148 48.2727 13.576C48.3767 13.788 48.4407 14.012 48.4647 14.248C48.4887 14.484 48.5007 14.738 48.5007 15.01V19H47.3907V17.518L47.6067 17.71C47.3387 18.206 46.9967 18.576 46.5807 18.82C46.1687 19.06 45.6607 19.18 45.0567 19.18ZM45.2787 18.154C45.6347 18.154 45.9407 18.092 46.1967 17.968C46.4527 17.84 46.6587 17.678 46.8147 17.482C46.9707 17.286 47.0727 17.082 47.1207 16.87C47.1887 16.678 47.2267 16.462 47.2347 16.222C47.2467 15.982 47.2527 15.79 47.2527 15.646L47.6607 15.796C47.2647 15.856 46.9047 15.91 46.5807 15.958C46.2567 16.006 45.9627 16.054 45.6987 16.102C45.4387 16.146 45.2067 16.2 45.0027 16.264C44.8307 16.324 44.6767 16.396 44.5407 16.48C44.4087 16.564 44.3027 16.666 44.2227 16.786C44.1467 16.906 44.1087 17.052 44.1087 17.224C44.1087 17.392 44.1507 17.548 44.2347 17.692C44.3187 17.832 44.4467 17.944 44.6187 18.028C44.7907 18.112 45.0107 18.154 45.2787 18.154ZM50.1788 19V10.18H51.4328V19H50.1788ZM55.7125 19.174C54.9245 19.174 54.2825 19 53.7865 18.652C53.2905 18.304 52.9865 17.814 52.8745 17.182L54.1585 16.984C54.2385 17.32 54.4225 17.586 54.7105 17.782C55.0025 17.974 55.3645 18.07 55.7965 18.07C56.1885 18.07 56.4945 17.99 56.7145 17.83C56.9385 17.67 57.0505 17.45 57.0505 17.17C57.0505 17.006 57.0105 16.874 56.9305 16.774C56.8545 16.67 56.6925 16.572 56.4445 16.48C56.1965 16.388 55.8185 16.274 55.3105 16.138C54.7545 15.994 54.3125 15.84 53.9845 15.676C53.6605 15.508 53.4285 15.314 53.2885 15.094C53.1525 14.87 53.0845 14.6 53.0845 14.284C53.0845 13.892 53.1885 13.55 53.3965 13.258C53.6045 12.966 53.8965 12.74 54.2725 12.58C54.6525 12.42 55.0965 12.34 55.6045 12.34C56.1005 12.34 56.5425 12.418 56.9305 12.574C57.3185 12.73 57.6325 12.952 57.8725 13.24C58.1125 13.524 58.2565 13.858 58.3045 14.242L57.0205 14.476C56.9765 14.164 56.8305 13.918 56.5825 13.738C56.3345 13.558 56.0125 13.46 55.6165 13.444C55.2365 13.428 54.9285 13.492 54.6925 13.636C54.4565 13.776 54.3385 13.97 54.3385 14.218C54.3385 14.362 54.3825 14.484 54.4705 14.584C54.5625 14.684 54.7385 14.78 54.9985 14.872C55.2585 14.964 55.6425 15.074 56.1505 15.202C56.6945 15.342 57.1265 15.498 57.4465 15.67C57.7665 15.838 57.9945 16.04 58.1305 16.276C58.2705 16.508 58.3405 16.79 58.3405 17.122C58.3405 17.762 58.1065 18.264 57.6385 18.628C57.1745 18.992 56.5325 19.174 55.7125 19.174Z" fill="#171717"/>
<path d="M65 1H92C99.1797 1 105 6.8203 105 14C105 21.1797 99.1797 27 92 27H65V1Z" fill="#E4FFF4"/>
<path d="M75.648 10.186C76.204 10.186 76.706 10.32 77.154 10.588C77.602 10.852 77.958 11.216 78.222 11.68C78.486 12.144 78.618 12.674 78.618 13.27V16.018C78.618 16.65 78.486 17.204 78.222 17.68C77.962 18.152 77.598 18.52 77.13 18.784C76.666 19.048 76.13 19.18 75.522 19.18C75.066 19.18 74.638 19.094 74.238 18.922C73.838 18.75 73.49 18.494 73.194 18.154L74.118 17.296C74.282 17.508 74.488 17.678 74.736 17.806C74.984 17.934 75.246 17.998 75.522 17.998C75.878 17.998 76.192 17.912 76.464 17.74C76.74 17.568 76.954 17.344 77.106 17.068C77.258 16.792 77.334 16.496 77.334 16.18V14.596L77.586 14.872C77.338 15.196 77.03 15.452 76.662 15.64C76.294 15.828 75.9 15.922 75.48 15.922C74.94 15.922 74.46 15.798 74.04 15.55C73.62 15.302 73.288 14.964 73.044 14.536C72.8 14.108 72.678 13.624 72.678 13.084C72.678 12.544 72.814 12.056 73.086 11.62C73.358 11.184 73.718 10.836 74.166 10.576C74.614 10.316 75.108 10.186 75.648 10.186ZM75.648 11.398C75.336 11.398 75.05 11.474 74.79 11.626C74.534 11.774 74.33 11.976 74.178 12.232C74.026 12.488 73.95 12.772 73.95 13.084C73.95 13.396 74.026 13.682 74.178 13.942C74.33 14.198 74.534 14.402 74.79 14.554C75.046 14.706 75.33 14.782 75.642 14.782C75.954 14.782 76.238 14.706 76.494 14.554C76.75 14.402 76.954 14.198 77.106 13.942C77.258 13.682 77.334 13.396 77.334 13.084C77.334 12.776 77.258 12.494 77.106 12.238C76.958 11.982 76.756 11.778 76.5 11.626C76.244 11.474 75.96 11.398 75.648 11.398ZM82.4771 10.36H83.7431L81.4391 19H80.1731L82.4771 10.36ZM86.8148 19V11.74L85.1888 12.73V11.332L86.8148 10.36H88.0928V19H86.8148ZM93.3833 19.18C92.7953 19.18 92.2753 19.052 91.8233 18.796C91.3713 18.536 91.0153 18.18 90.7553 17.728C90.4993 17.276 90.3713 16.756 90.3713 16.168V13.192C90.3713 12.604 90.4993 12.084 90.7553 11.632C91.0153 11.18 91.3713 10.826 91.8233 10.57C92.2753 10.31 92.7953 10.18 93.3833 10.18C93.9713 10.18 94.4913 10.31 94.9433 10.57C95.3953 10.826 95.7493 11.18 96.0052 11.632C96.2653 12.084 96.3953 12.604 96.3953 13.192V16.168C96.3953 16.756 96.2653 17.276 96.0052 17.728C95.7493 18.18 95.3953 18.536 94.9433 18.796C94.4913 19.052 93.9713 19.18 93.3833 19.18ZM93.3833 17.98C93.7033 17.98 93.9933 17.904 94.2533 17.752C94.5173 17.596 94.7273 17.388 94.8833 17.128C95.0393 16.864 95.1173 16.57 95.1173 16.246V13.102C95.1173 12.782 95.0393 12.492 94.8833 12.232C94.7273 11.968 94.5173 11.76 94.2533 11.608C93.9933 11.452 93.7033 11.374 93.3833 11.374C93.0633 11.374 92.7713 11.452 92.5073 11.608C92.2473 11.76 92.0393 11.968 91.8833 12.232C91.7273 12.492 91.6493 12.782 91.6493 13.102V16.246C91.6493 16.57 91.7273 16.864 91.8833 17.128C92.0393 17.388 92.2473 17.596 92.5073 17.752C92.7713 17.904 93.0633 17.98 93.3833 17.98Z" fill="#00BA70"/>
<path d="M65 1V27" stroke="#E2E2E2"/>
<rect x="113.5" y="0.5" width="163" height="27" rx="13.5" stroke="#E3E3E3"/>
<path d="M122.96 19V10.36H124.214V19H122.96ZM130.564 19V15.814C130.564 15.562 130.542 15.304 130.498 15.04C130.458 14.772 130.378 14.524 130.258 14.296C130.142 14.068 129.976 13.884 129.76 13.744C129.548 13.604 129.27 13.534 128.926 13.534C128.702 13.534 128.49 13.572 128.29 13.648C128.09 13.72 127.914 13.838 127.762 14.002C127.614 14.166 127.496 14.382 127.408 14.65C127.324 14.918 127.282 15.244 127.282 15.628L126.502 15.334C126.502 14.746 126.612 14.228 126.832 13.78C127.052 13.328 127.368 12.976 127.78 12.724C128.192 12.472 128.69 12.346 129.274 12.346C129.722 12.346 130.098 12.418 130.402 12.562C130.706 12.706 130.952 12.896 131.14 13.132C131.332 13.364 131.478 13.618 131.578 13.894C131.678 14.17 131.746 14.44 131.782 14.704C131.818 14.968 131.836 15.2 131.836 15.4V19H130.564ZM126.01 19V12.52H127.132V14.392H127.282V19H126.01ZM135.151 19L132.799 12.52H134.065L135.787 17.428L137.509 12.52H138.775L136.423 19H135.151ZM142.435 19.18C141.787 19.18 141.225 19.034 140.749 18.742C140.273 18.45 139.905 18.048 139.645 17.536C139.389 17.02 139.261 16.426 139.261 15.754C139.261 15.078 139.393 14.484 139.657 13.972C139.921 13.456 140.291 13.056 140.767 12.772C141.243 12.484 141.799 12.34 142.435 12.34C143.083 12.34 143.645 12.486 144.121 12.778C144.597 13.07 144.965 13.472 145.225 13.984C145.485 14.496 145.615 15.086 145.615 15.754C145.615 16.43 145.483 17.026 145.219 17.542C144.959 18.054 144.591 18.456 144.115 18.748C143.639 19.036 143.079 19.18 142.435 19.18ZM142.435 17.998C143.055 17.998 143.517 17.79 143.821 17.374C144.129 16.954 144.283 16.414 144.283 15.754C144.283 15.078 144.127 14.538 143.815 14.134C143.507 13.726 143.047 13.522 142.435 13.522C142.015 13.522 141.669 13.618 141.397 13.81C141.125 13.998 140.923 14.26 140.791 14.596C140.659 14.928 140.593 15.314 140.593 15.754C140.593 16.434 140.749 16.978 141.061 17.386C141.373 17.794 141.831 17.998 142.435 17.998ZM147.054 11.458V10.24H148.308V11.458H147.054ZM147.054 19V12.52H148.308V19H147.054ZM152.882 19.18C152.218 19.18 151.654 19.032 151.19 18.736C150.726 18.44 150.37 18.034 150.122 17.518C149.878 17.002 149.754 16.416 149.75 15.76C149.754 15.092 149.882 14.502 150.134 13.99C150.386 13.474 150.746 13.07 151.214 12.778C151.682 12.486 152.244 12.34 152.9 12.34C153.608 12.34 154.212 12.516 154.712 12.868C155.216 13.22 155.548 13.702 155.708 14.314L154.46 14.674C154.336 14.31 154.132 14.028 153.848 13.828C153.568 13.624 153.246 13.522 152.882 13.522C152.47 13.522 152.132 13.62 151.868 13.816C151.604 14.008 151.408 14.272 151.28 14.608C151.152 14.944 151.086 15.328 151.082 15.76C151.086 16.428 151.238 16.968 151.538 17.38C151.842 17.792 152.29 17.998 152.882 17.998C153.286 17.998 153.612 17.906 153.86 17.722C154.112 17.534 154.304 17.266 154.436 16.918L155.708 17.218C155.496 17.85 155.146 18.336 154.658 18.676C154.17 19.012 153.578 19.18 152.882 19.18ZM159.628 19.18C158.984 19.18 158.418 19.04 157.93 18.76C157.446 18.476 157.068 18.082 156.796 17.578C156.528 17.07 156.394 16.482 156.394 15.814C156.394 15.106 156.526 14.492 156.79 13.972C157.058 13.452 157.43 13.05 157.906 12.766C158.382 12.482 158.936 12.34 159.568 12.34C160.228 12.34 160.79 12.494 161.254 12.802C161.718 13.106 162.064 13.54 162.292 14.104C162.524 14.668 162.616 15.338 162.568 16.114H161.314V15.658C161.306 14.906 161.162 14.35 160.882 13.99C160.606 13.63 160.184 13.45 159.616 13.45C158.988 13.45 158.516 13.648 158.2 14.044C157.884 14.44 157.726 15.012 157.726 15.76C157.726 16.472 157.884 17.024 158.2 17.416C158.516 17.804 158.972 17.998 159.568 17.998C159.96 17.998 160.298 17.91 160.582 17.734C160.87 17.554 161.094 17.298 161.254 16.966L162.484 17.356C162.232 17.936 161.85 18.386 161.338 18.706C160.826 19.022 160.256 19.18 159.628 19.18ZM157.318 16.114V15.136H161.944V16.114H157.318ZM166.317 19V10.36H169.809C169.893 10.36 169.997 10.364 170.121 10.372C170.245 10.376 170.363 10.388 170.475 10.408C170.955 10.484 171.355 10.648 171.675 10.9C171.999 11.152 172.241 11.47 172.401 11.854C172.561 12.238 172.641 12.662 172.641 13.126C172.641 13.594 172.561 14.02 172.401 14.404C172.241 14.788 171.999 15.106 171.675 15.358C171.355 15.61 170.955 15.774 170.475 15.85C170.363 15.866 170.243 15.878 170.115 15.886C169.991 15.894 169.889 15.898 169.809 15.898H167.571V19H166.317ZM167.571 14.71H169.761C169.841 14.71 169.929 14.706 170.025 14.698C170.125 14.69 170.219 14.676 170.307 14.656C170.563 14.596 170.769 14.486 170.925 14.326C171.081 14.162 171.193 13.974 171.261 13.762C171.329 13.55 171.363 13.338 171.363 13.126C171.363 12.914 171.329 12.704 171.261 12.496C171.193 12.284 171.081 12.098 170.925 11.938C170.769 11.774 170.563 11.662 170.307 11.602C170.219 11.578 170.125 11.562 170.025 11.554C169.929 11.546 169.841 11.542 169.761 11.542H167.571V14.71ZM173.84 19V12.52H174.956V14.092L174.8 13.888C174.88 13.68 174.984 13.49 175.112 13.318C175.24 13.142 175.388 12.998 175.556 12.886C175.72 12.766 175.902 12.674 176.102 12.61C176.306 12.542 176.514 12.502 176.726 12.49C176.938 12.474 177.142 12.484 177.338 12.52V13.696C177.126 13.64 176.89 13.624 176.63 13.648C176.374 13.672 176.138 13.754 175.922 13.894C175.718 14.026 175.556 14.186 175.436 14.374C175.32 14.562 175.236 14.772 175.184 15.004C175.132 15.232 175.106 15.474 175.106 15.73V19H173.84ZM181.177 19.18C180.529 19.18 179.967 19.034 179.491 18.742C179.015 18.45 178.647 18.048 178.387 17.536C178.131 17.02 178.003 16.426 178.003 15.754C178.003 15.078 178.135 14.484 178.399 13.972C178.663 13.456 179.033 13.056 179.509 12.772C179.985 12.484 180.541 12.34 181.177 12.34C181.825 12.34 182.387 12.486 182.863 12.778C183.339 13.07 183.707 13.472 183.967 13.984C184.227 14.496 184.357 15.086 184.357 15.754C184.357 16.43 184.225 17.026 183.961 17.542C183.701 18.054 183.333 18.456 182.857 18.748C182.381 19.036 181.821 19.18 181.177 19.18ZM181.177 17.998C181.797 17.998 182.259 17.79 182.563 17.374C182.871 16.954 183.025 16.414 183.025 15.754C183.025 15.078 182.869 14.538 182.557 14.134C182.249 13.726 181.789 13.522 181.177 13.522C180.757 13.522 180.411 13.618 180.139 13.81C179.867 13.998 179.665 14.26 179.533 14.596C179.401 14.928 179.335 15.314 179.335 15.754C179.335 16.434 179.491 16.978 179.803 17.386C180.115 17.794 180.573 17.998 181.177 17.998ZM188.448 19.18C187.784 19.18 187.22 19.032 186.756 18.736C186.292 18.44 185.936 18.034 185.688 17.518C185.444 17.002 185.32 16.416 185.316 15.76C185.32 15.092 185.448 14.502 185.7 13.99C185.952 13.474 186.312 13.07 186.78 12.778C187.248 12.486 187.81 12.34 188.466 12.34C189.174 12.34 189.778 12.516 190.278 12.868C190.782 13.22 191.114 13.702 191.274 14.314L190.026 14.674C189.902 14.31 189.698 14.028 189.414 13.828C189.134 13.624 188.812 13.522 188.448 13.522C188.036 13.522 187.698 13.62 187.434 13.816C187.17 14.008 186.974 14.272 186.846 14.608C186.718 14.944 186.652 15.328 186.648 15.76C186.652 16.428 186.804 16.968 187.104 17.38C187.408 17.792 187.856 17.998 188.448 17.998C188.852 17.998 189.178 17.906 189.426 17.722C189.678 17.534 189.87 17.266 190.002 16.918L191.274 17.218C191.062 17.85 190.712 18.336 190.224 18.676C189.736 19.012 189.144 19.18 188.448 19.18ZM195.194 19.18C194.55 19.18 193.984 19.04 193.496 18.76C193.012 18.476 192.634 18.082 192.362 17.578C192.094 17.07 191.96 16.482 191.96 15.814C191.96 15.106 192.092 14.492 192.356 13.972C192.624 13.452 192.996 13.05 193.472 12.766C193.948 12.482 194.502 12.34 195.134 12.34C195.794 12.34 196.356 12.494 196.82 12.802C197.284 13.106 197.63 13.54 197.858 14.104C198.09 14.668 198.182 15.338 198.134 16.114H196.88V15.658C196.872 14.906 196.728 14.35 196.448 13.99C196.172 13.63 195.75 13.45 195.182 13.45C194.554 13.45 194.082 13.648 193.766 14.044C193.45 14.44 193.292 15.012 193.292 15.76C193.292 16.472 193.45 17.024 193.766 17.416C194.082 17.804 194.538 17.998 195.134 17.998C195.526 17.998 195.864 17.91 196.148 17.734C196.436 17.554 196.66 17.298 196.82 16.966L198.05 17.356C197.798 17.936 197.416 18.386 196.904 18.706C196.392 19.022 195.822 19.18 195.194 19.18ZM192.884 16.114V15.136H197.51V16.114H192.884ZM201.959 19.174C201.171 19.174 200.529 19 200.033 18.652C199.537 18.304 199.233 17.814 199.121 17.182L200.405 16.984C200.485 17.32 200.669 17.586 200.957 17.782C201.249 17.974 201.611 18.07 202.043 18.07C202.435 18.07 202.741 17.99 202.961 17.83C203.185 17.67 203.297 17.45 203.297 17.17C203.297 17.006 203.257 16.874 203.177 16.774C203.101 16.67 202.939 16.572 202.691 16.48C202.443 16.388 202.065 16.274 201.557 16.138C201.001 15.994 200.559 15.84 200.231 15.676C199.907 15.508 199.675 15.314 199.535 15.094C199.399 14.87 199.331 14.6 199.331 14.284C199.331 13.892 199.435 13.55 199.643 13.258C199.851 12.966 200.143 12.74 200.519 12.58C200.899 12.42 201.343 12.34 201.851 12.34C202.347 12.34 202.789 12.418 203.177 12.574C203.565 12.73 203.879 12.952 204.119 13.24C204.359 13.524 204.503 13.858 204.551 14.242L203.267 14.476C203.223 14.164 203.077 13.918 202.829 13.738C202.581 13.558 202.259 13.46 201.863 13.444C201.483 13.428 201.175 13.492 200.939 13.636C200.703 13.776 200.585 13.97 200.585 14.218C200.585 14.362 200.629 14.484 200.717 14.584C200.809 14.684 200.985 14.78 201.245 14.872C201.505 14.964 201.889 15.074 202.397 15.202C202.941 15.342 203.373 15.498 203.693 15.67C204.013 15.838 204.241 16.04 204.377 16.276C204.517 16.508 204.587 16.79 204.587 17.122C204.587 17.762 204.353 18.264 203.885 18.628C203.421 18.992 202.779 19.174 201.959 19.174ZM208.392 19.174C207.604 19.174 206.962 19 206.466 18.652C205.97 18.304 205.666 17.814 205.554 17.182L206.838 16.984C206.918 17.32 207.102 17.586 207.39 17.782C207.682 17.974 208.044 18.07 208.476 18.07C208.868 18.07 209.174 17.99 209.394 17.83C209.618 17.67 209.73 17.45 209.73 17.17C209.73 17.006 209.69 16.874 209.61 16.774C209.534 16.67 209.372 16.572 209.124 16.48C208.876 16.388 208.498 16.274 207.99 16.138C207.434 15.994 206.992 15.84 206.664 15.676C206.34 15.508 206.108 15.314 205.968 15.094C205.832 14.87 205.764 14.6 205.764 14.284C205.764 13.892 205.868 13.55 206.076 13.258C206.284 12.966 206.576 12.74 206.952 12.58C207.332 12.42 207.776 12.34 208.284 12.34C208.78 12.34 209.222 12.418 209.61 12.574C209.998 12.73 210.312 12.952 210.552 13.24C210.792 13.524 210.936 13.858 210.984 14.242L209.7 14.476C209.656 14.164 209.51 13.918 209.262 13.738C209.014 13.558 208.692 13.46 208.296 13.444C207.916 13.428 207.608 13.492 207.372 13.636C207.136 13.776 207.018 13.97 207.018 14.218C207.018 14.362 207.062 14.484 207.15 14.584C207.242 14.684 207.418 14.78 207.678 14.872C207.938 14.964 208.322 15.074 208.83 15.202C209.374 15.342 209.806 15.498 210.126 15.67C210.446 15.838 210.674 16.04 210.81 16.276C210.95 16.508 211.02 16.79 211.02 17.122C211.02 17.762 210.786 18.264 210.318 18.628C209.854 18.992 209.212 19.174 208.392 19.174ZM212.468 11.458V10.24H213.722V11.458H212.468ZM212.468 19V12.52H213.722V19H212.468ZM220.072 19V15.814C220.072 15.562 220.05 15.304 220.006 15.04C219.966 14.772 219.886 14.524 219.766 14.296C219.65 14.068 219.484 13.884 219.268 13.744C219.056 13.604 218.778 13.534 218.434 13.534C218.21 13.534 217.998 13.572 217.798 13.648C217.598 13.72 217.422 13.838 217.27 14.002C217.122 14.166 217.004 14.382 216.916 14.65C216.832 14.918 216.79 15.244 216.79 15.628L216.01 15.334C216.01 14.746 216.12 14.228 216.34 13.78C216.56 13.328 216.876 12.976 217.288 12.724C217.7 12.472 218.198 12.346 218.782 12.346C219.23 12.346 219.606 12.418 219.91 12.562C220.214 12.706 220.46 12.896 220.648 13.132C220.84 13.364 220.986 13.618 221.086 13.894C221.186 14.17 221.254 14.44 221.29 14.704C221.326 14.968 221.344 15.2 221.344 15.4V19H220.072ZM215.518 19V12.52H216.64V14.392H216.79V19H215.518ZM225.576 22.06C225.228 22.06 224.89 22.006 224.562 21.898C224.238 21.79 223.942 21.63 223.674 21.418C223.406 21.21 223.184 20.952 223.008 20.644L224.166 20.056C224.306 20.332 224.506 20.534 224.766 20.662C225.026 20.79 225.3 20.854 225.588 20.854C225.944 20.854 226.248 20.79 226.5 20.662C226.752 20.538 226.942 20.35 227.07 20.098C227.202 19.846 227.266 19.534 227.262 19.162V17.35H227.412V12.52H228.522V19.174C228.522 19.346 228.516 19.51 228.504 19.666C228.492 19.822 228.47 19.978 228.438 20.134C228.346 20.57 228.17 20.93 227.91 21.214C227.654 21.498 227.326 21.71 226.926 21.85C226.53 21.99 226.08 22.06 225.576 22.06ZM225.48 19.18C224.876 19.18 224.354 19.03 223.914 18.73C223.478 18.43 223.14 18.022 222.9 17.506C222.664 16.986 222.546 16.402 222.546 15.754C222.546 15.102 222.666 14.52 222.906 14.008C223.146 13.492 223.486 13.086 223.926 12.79C224.37 12.49 224.896 12.34 225.504 12.34C226.116 12.34 226.63 12.49 227.046 12.79C227.466 13.086 227.782 13.492 227.994 14.008C228.21 14.524 228.318 15.106 228.318 15.754C228.318 16.402 228.21 16.984 227.994 17.5C227.778 18.016 227.46 18.426 227.04 18.73C226.62 19.03 226.1 19.18 225.48 19.18ZM225.654 18.046C226.066 18.046 226.402 17.948 226.662 17.752C226.922 17.556 227.112 17.286 227.232 16.942C227.352 16.598 227.412 16.202 227.412 15.754C227.412 15.306 227.35 14.91 227.226 14.566C227.106 14.222 226.918 13.954 226.662 13.762C226.41 13.57 226.088 13.474 225.696 13.474C225.28 13.474 224.938 13.576 224.67 13.78C224.402 13.984 224.202 14.258 224.07 14.602C223.942 14.946 223.878 15.33 223.878 15.754C223.878 16.182 223.942 16.57 224.07 16.918C224.202 17.262 224.398 17.536 224.658 17.74C224.922 17.944 225.254 18.046 225.654 18.046Z" fill="#171717"/>
<path d="M236 1H263C270.18 1 276 6.8203 276 14C276 21.1797 270.18 27 263 27H236V1Z" fill="#E4FFF4"/>
<path d="M246.606 19.18C246.042 19.18 245.542 19.068 245.106 18.844C244.674 18.616 244.334 18.3 244.086 17.896C243.842 17.492 243.72 17.024 243.72 16.492C243.72 15.996 243.836 15.542 244.068 15.13C244.3 14.718 244.646 14.394 245.106 14.158L245.082 14.59C244.714 14.362 244.43 14.078 244.23 13.738C244.034 13.394 243.936 13.01 243.936 12.586C243.936 12.094 244.05 11.668 244.278 11.308C244.506 10.948 244.82 10.67 245.22 10.474C245.624 10.278 246.086 10.18 246.606 10.18C247.126 10.18 247.586 10.278 247.986 10.474C248.386 10.67 248.7 10.948 248.928 11.308C249.156 11.668 249.27 12.094 249.27 12.586C249.27 13.01 249.176 13.392 248.988 13.732C248.8 14.072 248.512 14.358 248.124 14.59L248.106 14.17C248.562 14.394 248.908 14.714 249.144 15.13C249.38 15.542 249.498 15.996 249.498 16.492C249.498 17.024 249.374 17.492 249.126 17.896C248.878 18.3 248.536 18.616 248.1 18.844C247.664 19.068 247.166 19.18 246.606 19.18ZM246.606 17.986C247.07 17.986 247.446 17.86 247.734 17.608C248.022 17.352 248.166 16.98 248.166 16.492C248.166 16.004 248.022 15.632 247.734 15.376C247.45 15.116 247.074 14.986 246.606 14.986C246.138 14.986 245.76 15.116 245.472 15.376C245.188 15.632 245.046 16.004 245.046 16.492C245.046 16.98 245.19 17.352 245.478 17.608C245.766 17.86 246.142 17.986 246.606 17.986ZM246.606 13.786C247.002 13.786 247.322 13.688 247.566 13.492C247.814 13.292 247.938 12.99 247.938 12.586C247.938 12.182 247.814 11.88 247.566 11.68C247.322 11.476 247.002 11.374 246.606 11.374C246.21 11.374 245.888 11.476 245.64 11.68C245.392 11.88 245.268 12.182 245.268 12.586C245.268 12.99 245.392 13.292 245.64 13.492C245.888 13.688 246.21 13.786 246.606 13.786ZM253.243 10.36H254.509L252.205 19H250.939L253.243 10.36ZM257.58 19V11.74L255.954 12.73V11.332L257.58 10.36H258.858V19H257.58ZM264.149 19.18C263.561 19.18 263.041 19.052 262.589 18.796C262.137 18.536 261.781 18.18 261.521 17.728C261.265 17.276 261.137 16.756 261.137 16.168V13.192C261.137 12.604 261.265 12.084 261.521 11.632C261.781 11.18 262.137 10.826 262.589 10.57C263.041 10.31 263.561 10.18 264.149 10.18C264.737 10.18 265.257 10.31 265.709 10.57C266.161 10.826 266.515 11.18 266.771 11.632C267.031 12.084 267.161 12.604 267.161 13.192V16.168C267.161 16.756 267.031 17.276 266.771 17.728C266.515 18.18 266.161 18.536 265.709 18.796C265.257 19.052 264.737 19.18 264.149 19.18ZM264.149 17.98C264.469 17.98 264.759 17.904 265.019 17.752C265.283 17.596 265.493 17.388 265.649 17.128C265.805 16.864 265.883 16.57 265.883 16.246V13.102C265.883 12.782 265.805 12.492 265.649 12.232C265.493 11.968 265.283 11.76 265.019 11.608C264.759 11.452 264.469 11.374 264.149 11.374C263.829 11.374 263.537 11.452 263.273 11.608C263.013 11.76 262.805 11.968 262.649 12.232C262.493 12.492 262.415 12.782 262.415 13.102V16.246C262.415 16.57 262.493 16.864 262.649 17.128C262.805 17.388 263.013 17.596 263.273 17.752C263.537 17.904 263.829 17.98 264.149 17.98Z" fill="#00BA70"/>
<path d="M236 1V27" stroke="#E2E2E2"/>
<rect x="284.5" y="0.5" width="141" height="27" rx="13.5" stroke="#E3E3E3"/>
<path d="M295.484 19.174C294.852 19.174 294.32 19.006 293.888 18.67C293.46 18.334 293.164 17.882 293 17.314L294.242 17.02C294.298 17.288 294.44 17.518 294.668 17.71C294.9 17.898 295.158 17.992 295.442 17.992C295.63 17.992 295.826 17.944 296.03 17.848C296.234 17.752 296.386 17.596 296.486 17.38C296.554 17.236 296.594 17.072 296.606 16.888C296.618 16.7 296.624 16.482 296.624 16.234V10.36H297.896V16.234C297.896 16.49 297.894 16.718 297.89 16.918C297.89 17.118 297.87 17.306 297.83 17.482C297.794 17.658 297.722 17.84 297.614 18.028C297.386 18.424 297.086 18.714 296.714 18.898C296.342 19.082 295.932 19.174 295.484 19.174ZM302.513 19.18C301.865 19.18 301.303 19.034 300.827 18.742C300.351 18.45 299.983 18.048 299.723 17.536C299.467 17.02 299.339 16.426 299.339 15.754C299.339 15.078 299.471 14.484 299.735 13.972C299.999 13.456 300.369 13.056 300.845 12.772C301.321 12.484 301.877 12.34 302.513 12.34C303.161 12.34 303.723 12.486 304.199 12.778C304.675 13.07 305.043 13.472 305.303 13.984C305.563 14.496 305.693 15.086 305.693 15.754C305.693 16.43 305.561 17.026 305.297 17.542C305.037 18.054 304.669 18.456 304.193 18.748C303.717 19.036 303.157 19.18 302.513 19.18ZM302.513 17.998C303.133 17.998 303.595 17.79 303.899 17.374C304.207 16.954 304.361 16.414 304.361 15.754C304.361 15.078 304.205 14.538 303.893 14.134C303.585 13.726 303.125 13.522 302.513 13.522C302.093 13.522 301.747 13.618 301.475 13.81C301.203 13.998 301.001 14.26 300.869 14.596C300.737 14.928 300.671 15.314 300.671 15.754C300.671 16.434 300.827 16.978 301.139 17.386C301.451 17.794 301.909 17.998 302.513 17.998ZM309.454 19.174C309.006 19.174 308.63 19.102 308.326 18.958C308.022 18.814 307.774 18.626 307.582 18.394C307.394 18.158 307.25 17.902 307.15 17.626C307.05 17.35 306.982 17.08 306.946 16.816C306.91 16.552 306.892 16.32 306.892 16.12V12.52H308.164V15.706C308.164 15.958 308.184 16.218 308.224 16.486C308.268 16.75 308.348 16.996 308.464 17.224C308.584 17.452 308.75 17.636 308.962 17.776C309.178 17.916 309.458 17.986 309.802 17.986C310.026 17.986 310.238 17.95 310.438 17.878C310.638 17.802 310.812 17.682 310.96 17.518C311.112 17.354 311.23 17.138 311.314 16.87C311.402 16.602 311.446 16.276 311.446 15.892L312.226 16.186C312.226 16.774 312.116 17.294 311.896 17.746C311.676 18.194 311.36 18.544 310.948 18.796C310.536 19.048 310.038 19.174 309.454 19.174ZM311.596 19V17.128H311.446V12.52H312.712V19H311.596ZM314.395 19V12.52H315.511V14.092L315.355 13.888C315.435 13.68 315.539 13.49 315.667 13.318C315.795 13.142 315.943 12.998 316.111 12.886C316.275 12.766 316.457 12.674 316.657 12.61C316.861 12.542 317.069 12.502 317.281 12.49C317.493 12.474 317.697 12.484 317.893 12.52V13.696C317.681 13.64 317.445 13.624 317.185 13.648C316.929 13.672 316.693 13.754 316.477 13.894C316.273 14.026 316.111 14.186 315.991 14.374C315.875 14.562 315.791 14.772 315.739 15.004C315.687 15.232 315.661 15.474 315.661 15.73V19H314.395ZM323.583 19V15.814C323.583 15.562 323.561 15.304 323.517 15.04C323.477 14.772 323.397 14.524 323.277 14.296C323.161 14.068 322.995 13.884 322.779 13.744C322.567 13.604 322.289 13.534 321.945 13.534C321.721 13.534 321.509 13.572 321.309 13.648C321.109 13.72 320.933 13.838 320.781 14.002C320.633 14.166 320.515 14.382 320.427 14.65C320.343 14.918 320.301 15.244 320.301 15.628L319.521 15.334C319.521 14.746 319.631 14.228 319.851 13.78C320.071 13.328 320.387 12.976 320.799 12.724C321.211 12.472 321.709 12.346 322.293 12.346C322.741 12.346 323.117 12.418 323.421 12.562C323.725 12.706 323.971 12.896 324.159 13.132C324.351 13.364 324.497 13.618 324.597 13.894C324.697 14.17 324.765 14.44 324.801 14.704C324.837 14.968 324.855 15.2 324.855 15.4V19H323.583ZM319.029 19V12.52H320.151V14.392H320.301V19H319.029ZM328.248 19.18C327.768 19.18 327.366 19.092 327.042 18.916C326.718 18.736 326.472 18.5 326.304 18.208C326.14 17.912 326.058 17.588 326.058 17.236C326.058 16.908 326.116 16.62 326.232 16.372C326.348 16.124 326.52 15.914 326.748 15.742C326.976 15.566 327.256 15.424 327.588 15.316C327.876 15.232 328.202 15.158 328.566 15.094C328.93 15.03 329.312 14.97 329.712 14.914C330.116 14.858 330.516 14.802 330.912 14.746L330.456 14.998C330.464 14.49 330.356 14.114 330.132 13.87C329.912 13.622 329.532 13.498 328.992 13.498C328.652 13.498 328.34 13.578 328.056 13.738C327.772 13.894 327.574 14.154 327.462 14.518L326.292 14.158C326.452 13.602 326.756 13.16 327.204 12.832C327.656 12.504 328.256 12.34 329.004 12.34C329.584 12.34 330.088 12.44 330.516 12.64C330.948 12.836 331.264 13.148 331.464 13.576C331.568 13.788 331.632 14.012 331.656 14.248C331.68 14.484 331.692 14.738 331.692 15.01V19H330.582V17.518L330.798 17.71C330.53 18.206 330.188 18.576 329.772 18.82C329.36 19.06 328.852 19.18 328.248 19.18ZM328.47 18.154C328.826 18.154 329.132 18.092 329.388 17.968C329.644 17.84 329.85 17.678 330.006 17.482C330.162 17.286 330.264 17.082 330.312 16.87C330.38 16.678 330.418 16.462 330.426 16.222C330.438 15.982 330.444 15.79 330.444 15.646L330.852 15.796C330.456 15.856 330.096 15.91 329.772 15.958C329.448 16.006 329.154 16.054 328.89 16.102C328.63 16.146 328.398 16.2 328.194 16.264C328.022 16.324 327.868 16.396 327.732 16.48C327.6 16.564 327.494 16.666 327.414 16.786C327.338 16.906 327.3 17.052 327.3 17.224C327.3 17.392 327.342 17.548 327.426 17.692C327.51 17.832 327.638 17.944 327.81 18.028C327.982 18.112 328.202 18.154 328.47 18.154ZM333.37 19V10.18H334.624V19H333.37ZM338.828 19V10.36H344.348V11.542H340.082V13.966H343.628V15.148H340.082V17.818H344.348V19H338.828ZM350.337 19V15.814C350.337 15.562 350.315 15.304 350.271 15.04C350.231 14.772 350.151 14.524 350.031 14.296C349.915 14.068 349.749 13.884 349.533 13.744C349.321 13.604 349.043 13.534 348.699 13.534C348.475 13.534 348.263 13.572 348.063 13.648C347.863 13.72 347.687 13.838 347.535 14.002C347.387 14.166 347.269 14.382 347.181 14.65C347.097 14.918 347.055 15.244 347.055 15.628L346.275 15.334C346.275 14.746 346.385 14.228 346.605 13.78C346.825 13.328 347.141 12.976 347.553 12.724C347.965 12.472 348.463 12.346 349.047 12.346C349.495 12.346 349.871 12.418 350.175 12.562C350.479 12.706 350.725 12.896 350.913 13.132C351.105 13.364 351.251 13.618 351.351 13.894C351.451 14.17 351.519 14.44 351.555 14.704C351.591 14.968 351.609 15.2 351.609 15.4V19H350.337ZM345.783 19V12.52H346.905V14.392H347.055V19H345.783ZM356.88 19C356.472 19.08 356.072 19.114 355.68 19.102C355.288 19.09 354.938 19.014 354.63 18.874C354.322 18.734 354.09 18.514 353.934 18.214C353.794 17.946 353.718 17.674 353.706 17.398C353.698 17.118 353.694 16.802 353.694 16.45V10.72H354.954V16.39C354.954 16.65 354.956 16.876 354.96 17.068C354.968 17.26 355.01 17.422 355.086 17.554C355.23 17.802 355.458 17.944 355.77 17.98C356.086 18.012 356.456 17.998 356.88 17.938V19ZM352.452 13.528V12.52H356.88V13.528H352.452ZM358.246 19V12.52H359.362V14.092L359.206 13.888C359.286 13.68 359.39 13.49 359.518 13.318C359.646 13.142 359.794 12.998 359.962 12.886C360.126 12.766 360.308 12.674 360.508 12.61C360.712 12.542 360.92 12.502 361.132 12.49C361.344 12.474 361.548 12.484 361.744 12.52V13.696C361.532 13.64 361.296 13.624 361.036 13.648C360.78 13.672 360.544 13.754 360.328 13.894C360.124 14.026 359.962 14.186 359.842 14.374C359.726 14.562 359.642 14.772 359.59 15.004C359.538 15.232 359.512 15.474 359.512 15.73V19H358.246ZM363.007 11.458V10.24H364.261V11.458H363.007ZM363.007 19V12.52H364.261V19H363.007ZM368.937 19.18C368.293 19.18 367.727 19.04 367.239 18.76C366.755 18.476 366.377 18.082 366.105 17.578C365.837 17.07 365.703 16.482 365.703 15.814C365.703 15.106 365.835 14.492 366.099 13.972C366.367 13.452 366.739 13.05 367.215 12.766C367.691 12.482 368.245 12.34 368.877 12.34C369.537 12.34 370.099 12.494 370.563 12.802C371.027 13.106 371.373 13.54 371.601 14.104C371.833 14.668 371.925 15.338 371.877 16.114H370.623V15.658C370.615 14.906 370.471 14.35 370.191 13.99C369.915 13.63 369.493 13.45 368.925 13.45C368.297 13.45 367.825 13.648 367.509 14.044C367.193 14.44 367.035 15.012 367.035 15.76C367.035 16.472 367.193 17.024 367.509 17.416C367.825 17.804 368.281 17.998 368.877 17.998C369.269 17.998 369.607 17.91 369.891 17.734C370.179 17.554 370.403 17.298 370.563 16.966L371.793 17.356C371.541 17.936 371.159 18.386 370.647 18.706C370.135 19.022 369.565 19.18 368.937 19.18ZM366.627 16.114V15.136H371.253V16.114H366.627ZM375.701 19.174C374.913 19.174 374.271 19 373.775 18.652C373.279 18.304 372.975 17.814 372.863 17.182L374.147 16.984C374.227 17.32 374.411 17.586 374.699 17.782C374.991 17.974 375.353 18.07 375.785 18.07C376.177 18.07 376.483 17.99 376.703 17.83C376.927 17.67 377.039 17.45 377.039 17.17C377.039 17.006 376.999 16.874 376.919 16.774C376.843 16.67 376.681 16.572 376.433 16.48C376.185 16.388 375.807 16.274 375.299 16.138C374.743 15.994 374.301 15.84 373.973 15.676C373.649 15.508 373.417 15.314 373.277 15.094C373.141 14.87 373.073 14.6 373.073 14.284C373.073 13.892 373.177 13.55 373.385 13.258C373.593 12.966 373.885 12.74 374.261 12.58C374.641 12.42 375.085 12.34 375.593 12.34C376.089 12.34 376.531 12.418 376.919 12.574C377.307 12.73 377.621 12.952 377.861 13.24C378.101 13.524 378.245 13.858 378.293 14.242L377.009 14.476C376.965 14.164 376.819 13.918 376.571 13.738C376.323 13.558 376.001 13.46 375.605 13.444C375.225 13.428 374.917 13.492 374.681 13.636C374.445 13.776 374.327 13.97 374.327 14.218C374.327 14.362 374.371 14.484 374.459 14.584C374.551 14.684 374.727 14.78 374.987 14.872C375.247 14.964 375.631 15.074 376.139 15.202C376.683 15.342 377.115 15.498 377.435 15.67C377.755 15.838 377.983 16.04 378.119 16.276C378.259 16.508 378.329 16.79 378.329 17.122C378.329 17.762 378.095 18.264 377.627 18.628C377.163 18.992 376.521 19.174 375.701 19.174Z" fill="#171717"/>
<rect x="0.5" y="35.5" width="152" height="27" rx="13.5" stroke="#E3E3E3"/>
<path d="M9.84 54V45.36H13.332C13.416 45.36 13.52 45.364 13.644 45.372C13.768 45.376 13.886 45.388 13.998 45.408C14.478 45.484 14.878 45.648 15.198 45.9C15.522 46.152 15.764 46.47 15.924 46.854C16.084 47.238 16.164 47.662 16.164 48.126C16.164 48.814 15.988 49.408 15.636 49.908C15.284 50.404 14.756 50.714 14.052 50.838L13.542 50.898H11.094V54H9.84ZM14.892 54L13.188 50.484L14.454 50.16L16.326 54H14.892ZM11.094 49.71H13.284C13.364 49.71 13.452 49.706 13.548 49.698C13.648 49.69 13.742 49.676 13.83 49.656C14.086 49.596 14.292 49.486 14.448 49.326C14.604 49.162 14.716 48.974 14.784 48.762C14.852 48.55 14.886 48.338 14.886 48.126C14.886 47.914 14.852 47.704 14.784 47.496C14.716 47.284 14.604 47.098 14.448 46.938C14.292 46.774 14.086 46.662 13.83 46.602C13.742 46.578 13.648 46.562 13.548 46.554C13.452 46.546 13.364 46.542 13.284 46.542H11.094V49.71ZM20.5187 54.18C19.8747 54.18 19.3087 54.04 18.8207 53.76C18.3367 53.476 17.9587 53.082 17.6867 52.578C17.4187 52.07 17.2847 51.482 17.2847 50.814C17.2847 50.106 17.4167 49.492 17.6807 48.972C17.9487 48.452 18.3207 48.05 18.7967 47.766C19.2727 47.482 19.8267 47.34 20.4587 47.34C21.1187 47.34 21.6807 47.494 22.1447 47.802C22.6087 48.106 22.9547 48.54 23.1827 49.104C23.4147 49.668 23.5067 50.338 23.4587 51.114H22.2047V50.658C22.1967 49.906 22.0527 49.35 21.7727 48.99C21.4967 48.63 21.0747 48.45 20.5067 48.45C19.8787 48.45 19.4067 48.648 19.0907 49.044C18.7747 49.44 18.6167 50.012 18.6167 50.76C18.6167 51.472 18.7747 52.024 19.0907 52.416C19.4067 52.804 19.8627 52.998 20.4587 52.998C20.8507 52.998 21.1887 52.91 21.4727 52.734C21.7607 52.554 21.9847 52.298 22.1447 51.966L23.3747 52.356C23.1227 52.936 22.7407 53.386 22.2287 53.706C21.7167 54.022 21.1467 54.18 20.5187 54.18ZM18.2087 51.114V50.136H22.8347V51.114H18.2087ZM27.5768 54.18C26.9128 54.18 26.3488 54.032 25.8848 53.736C25.4208 53.44 25.0648 53.034 24.8168 52.518C24.5728 52.002 24.4488 51.416 24.4448 50.76C24.4488 50.092 24.5768 49.502 24.8288 48.99C25.0808 48.474 25.4408 48.07 25.9088 47.778C26.3768 47.486 26.9388 47.34 27.5948 47.34C28.3028 47.34 28.9068 47.516 29.4068 47.868C29.9108 48.22 30.2428 48.702 30.4028 49.314L29.1548 49.674C29.0308 49.31 28.8268 49.028 28.5428 48.828C28.2628 48.624 27.9408 48.522 27.5768 48.522C27.1648 48.522 26.8268 48.62 26.5628 48.816C26.2988 49.008 26.1028 49.272 25.9748 49.608C25.8468 49.944 25.7808 50.328 25.7768 50.76C25.7808 51.428 25.9328 51.968 26.2328 52.38C26.5368 52.792 26.9848 52.998 27.5768 52.998C27.9808 52.998 28.3068 52.906 28.5548 52.722C28.8068 52.534 28.9988 52.266 29.1308 51.918L30.4028 52.218C30.1908 52.85 29.8408 53.336 29.3528 53.676C28.8648 54.012 28.2728 54.18 27.5768 54.18ZM34.2634 54.18C33.6154 54.18 33.0534 54.034 32.5774 53.742C32.1014 53.45 31.7334 53.048 31.4734 52.536C31.2174 52.02 31.0894 51.426 31.0894 50.754C31.0894 50.078 31.2214 49.484 31.4854 48.972C31.7494 48.456 32.1194 48.056 32.5954 47.772C33.0714 47.484 33.6274 47.34 34.2634 47.34C34.9114 47.34 35.4734 47.486 35.9494 47.778C36.4254 48.07 36.7934 48.472 37.0534 48.984C37.3134 49.496 37.4434 50.086 37.4434 50.754C37.4434 51.43 37.3114 52.026 37.0474 52.542C36.7874 53.054 36.4194 53.456 35.9434 53.748C35.4674 54.036 34.9074 54.18 34.2634 54.18ZM34.2634 52.998C34.8834 52.998 35.3454 52.79 35.6494 52.374C35.9574 51.954 36.1114 51.414 36.1114 50.754C36.1114 50.078 35.9554 49.538 35.6434 49.134C35.3354 48.726 34.8754 48.522 34.2634 48.522C33.8434 48.522 33.4974 48.618 33.2254 48.81C32.9534 48.998 32.7514 49.26 32.6194 49.596C32.4874 49.928 32.4214 50.314 32.4214 50.754C32.4214 51.434 32.5774 51.978 32.8894 52.386C33.2014 52.794 33.6594 52.998 34.2634 52.998ZM38.7619 54V47.52H39.8779V49.092L39.7219 48.888C39.8019 48.68 39.9059 48.49 40.0339 48.318C40.1619 48.142 40.3099 47.998 40.4779 47.886C40.6419 47.766 40.8239 47.674 41.0239 47.61C41.2279 47.542 41.4359 47.502 41.6479 47.49C41.8599 47.474 42.0639 47.484 42.2599 47.52V48.696C42.0479 48.64 41.8119 48.624 41.5519 48.648C41.2959 48.672 41.0599 48.754 40.8439 48.894C40.6399 49.026 40.4779 49.186 40.3579 49.374C40.2419 49.562 40.1579 49.772 40.1059 50.004C40.0539 50.232 40.0279 50.474 40.0279 50.73V54H38.7619ZM45.8593 54.18C45.2553 54.18 44.7333 54.03 44.2933 53.73C43.8573 53.43 43.5193 53.022 43.2793 52.506C43.0433 51.986 42.9253 51.402 42.9253 50.754C42.9253 50.102 43.0453 49.52 43.2853 49.008C43.5253 48.492 43.8653 48.086 44.3053 47.79C44.7493 47.49 45.2753 47.34 45.8833 47.34C46.4953 47.34 47.0093 47.49 47.4253 47.79C47.8453 48.086 48.1613 48.492 48.3733 49.008C48.5893 49.524 48.6973 50.106 48.6973 50.754C48.6973 51.402 48.5893 51.984 48.3733 52.5C48.1573 53.016 47.8393 53.426 47.4193 53.73C46.9993 54.03 46.4793 54.18 45.8593 54.18ZM46.0333 53.046C46.4453 53.046 46.7813 52.948 47.0413 52.752C47.3013 52.556 47.4913 52.286 47.6113 51.942C47.7313 51.598 47.7913 51.202 47.7913 50.754C47.7913 50.306 47.7293 49.91 47.6053 49.566C47.4853 49.222 47.2973 48.954 47.0413 48.762C46.7893 48.57 46.4673 48.474 46.0753 48.474C45.6593 48.474 45.3173 48.576 45.0493 48.78C44.7813 48.984 44.5813 49.258 44.4493 49.602C44.3213 49.946 44.2573 50.33 44.2573 50.754C44.2573 51.182 44.3213 51.57 44.4493 51.918C44.5813 52.262 44.7773 52.536 45.0373 52.74C45.3013 52.944 45.6333 53.046 46.0333 53.046ZM47.7913 54V49.338H47.6473V45.36H48.9073V54H47.7913ZM56.6964 54C56.2884 54.08 55.8884 54.114 55.4964 54.102C55.1044 54.09 54.7544 54.014 54.4464 53.874C54.1384 53.734 53.9064 53.514 53.7504 53.214C53.6104 52.946 53.5344 52.674 53.5224 52.398C53.5144 52.118 53.5104 51.802 53.5104 51.45V45.72H54.7704V51.39C54.7704 51.65 54.7724 51.876 54.7764 52.068C54.7844 52.26 54.8264 52.422 54.9024 52.554C55.0464 52.802 55.2744 52.944 55.5864 52.98C55.9024 53.012 56.2724 52.998 56.6964 52.938V54ZM52.2684 48.528V47.52H56.6964V48.528H52.2684ZM60.5837 54.18C59.9357 54.18 59.3737 54.034 58.8977 53.742C58.4217 53.45 58.0537 53.048 57.7937 52.536C57.5377 52.02 57.4097 51.426 57.4097 50.754C57.4097 50.078 57.5417 49.484 57.8057 48.972C58.0697 48.456 58.4397 48.056 58.9157 47.772C59.3917 47.484 59.9477 47.34 60.5837 47.34C61.2317 47.34 61.7937 47.486 62.2697 47.778C62.7457 48.07 63.1137 48.472 63.3737 48.984C63.6337 49.496 63.7637 50.086 63.7637 50.754C63.7637 51.43 63.6317 52.026 63.3677 52.542C63.1077 53.054 62.7397 53.456 62.2637 53.748C61.7877 54.036 61.2277 54.18 60.5837 54.18ZM60.5837 52.998C61.2037 52.998 61.6657 52.79 61.9697 52.374C62.2777 51.954 62.4317 51.414 62.4317 50.754C62.4317 50.078 62.2757 49.538 61.9637 49.134C61.6557 48.726 61.1957 48.522 60.5837 48.522C60.1637 48.522 59.8177 48.618 59.5457 48.81C59.2737 48.998 59.0717 49.26 58.9397 49.596C58.8077 49.928 58.7417 50.314 58.7417 50.754C58.7417 51.434 58.8977 51.978 59.2097 52.386C59.5217 52.794 59.9797 52.998 60.5837 52.998ZM67.4845 54V45.36H70.9765C71.0605 45.36 71.1645 45.364 71.2885 45.372C71.4125 45.376 71.5305 45.388 71.6425 45.408C72.1225 45.484 72.5225 45.648 72.8425 45.9C73.1665 46.152 73.4085 46.47 73.5685 46.854C73.7285 47.238 73.8085 47.662 73.8085 48.126C73.8085 48.814 73.6325 49.408 73.2805 49.908C72.9285 50.404 72.4005 50.714 71.6965 50.838L71.1865 50.898H68.7385V54H67.4845ZM72.5365 54L70.8325 50.484L72.0985 50.16L73.9705 54H72.5365ZM68.7385 49.71H70.9285C71.0085 49.71 71.0965 49.706 71.1925 49.698C71.2925 49.69 71.3865 49.676 71.4745 49.656C71.7305 49.596 71.9365 49.486 72.0925 49.326C72.2485 49.162 72.3605 48.974 72.4285 48.762C72.4965 48.55 72.5305 48.338 72.5305 48.126C72.5305 47.914 72.4965 47.704 72.4285 47.496C72.3605 47.284 72.2485 47.098 72.0925 46.938C71.9365 46.774 71.7305 46.662 71.4745 46.602C71.3865 46.578 71.2925 46.562 71.1925 46.554C71.0965 46.546 71.0085 46.542 70.9285 46.542H68.7385V49.71ZM78.1632 54.18C77.5192 54.18 76.9532 54.04 76.4652 53.76C75.9812 53.476 75.6032 53.082 75.3312 52.578C75.0632 52.07 74.9292 51.482 74.9292 50.814C74.9292 50.106 75.0612 49.492 75.3252 48.972C75.5932 48.452 75.9652 48.05 76.4412 47.766C76.9172 47.482 77.4712 47.34 78.1032 47.34C78.7632 47.34 79.3252 47.494 79.7892 47.802C80.2532 48.106 80.5992 48.54 80.8272 49.104C81.0592 49.668 81.1512 50.338 81.1032 51.114H79.8492V50.658C79.8412 49.906 79.6972 49.35 79.4172 48.99C79.1412 48.63 78.7192 48.45 78.1512 48.45C77.5232 48.45 77.0512 48.648 76.7352 49.044C76.4192 49.44 76.2612 50.012 76.2612 50.76C76.2612 51.472 76.4192 52.024 76.7352 52.416C77.0512 52.804 77.5072 52.998 78.1032 52.998C78.4952 52.998 78.8332 52.91 79.1172 52.734C79.4052 52.554 79.6292 52.298 79.7892 51.966L81.0192 52.356C80.7672 52.936 80.3852 53.386 79.8732 53.706C79.3612 54.022 78.7912 54.18 78.1632 54.18ZM75.8532 51.114V50.136H80.4792V51.114H75.8532ZM85.3156 54.18C84.6956 54.18 84.1756 54.03 83.7556 53.73C83.3356 53.426 83.0176 53.016 82.8016 52.5C82.5856 51.984 82.4776 51.402 82.4776 50.754C82.4776 50.106 82.5836 49.524 82.7956 49.008C83.0116 48.492 83.3276 48.086 83.7436 47.79C84.1636 47.49 84.6796 47.34 85.2916 47.34C85.8996 47.34 86.4236 47.49 86.8636 47.79C87.3076 48.086 87.6496 48.492 87.8896 49.008C88.1296 49.52 88.2496 50.102 88.2496 50.754C88.2496 51.402 88.1296 51.986 87.8896 52.506C87.6536 53.022 87.3156 53.43 86.8756 53.73C86.4396 54.03 85.9196 54.18 85.3156 54.18ZM82.2676 56.88V47.52H83.3836V52.182H83.5276V56.88H82.2676ZM85.1416 53.046C85.5416 53.046 85.8716 52.944 86.1316 52.74C86.3956 52.536 86.5916 52.262 86.7196 51.918C86.8516 51.57 86.9176 51.182 86.9176 50.754C86.9176 50.33 86.8516 49.946 86.7196 49.602C86.5916 49.258 86.3936 48.984 86.1256 48.78C85.8576 48.576 85.5156 48.474 85.0996 48.474C84.7076 48.474 84.3836 48.57 84.1276 48.762C83.8756 48.954 83.6876 49.222 83.5636 49.566C83.4436 49.91 83.3836 50.306 83.3836 50.754C83.3836 51.202 83.4436 51.598 83.5636 51.942C83.6836 52.286 83.8736 52.556 84.1336 52.752C84.3936 52.948 84.7296 53.046 85.1416 53.046ZM92.3884 54.18C91.7404 54.18 91.1784 54.034 90.7024 53.742C90.2264 53.45 89.8584 53.048 89.5984 52.536C89.3424 52.02 89.2144 51.426 89.2144 50.754C89.2144 50.078 89.3464 49.484 89.6104 48.972C89.8744 48.456 90.2444 48.056 90.7204 47.772C91.1964 47.484 91.7524 47.34 92.3884 47.34C93.0364 47.34 93.5984 47.486 94.0744 47.778C94.5504 48.07 94.9184 48.472 95.1784 48.984C95.4384 49.496 95.5684 50.086 95.5684 50.754C95.5684 51.43 95.4364 52.026 95.1724 52.542C94.9124 53.054 94.5444 53.456 94.0684 53.748C93.5924 54.036 93.0324 54.18 92.3884 54.18ZM92.3884 52.998C93.0084 52.998 93.4704 52.79 93.7744 52.374C94.0824 51.954 94.2364 51.414 94.2364 50.754C94.2364 50.078 94.0804 49.538 93.7684 49.134C93.4604 48.726 93.0004 48.522 92.3884 48.522C91.9684 48.522 91.6224 48.618 91.3504 48.81C91.0784 48.998 90.8764 49.26 90.7444 49.596C90.6124 49.928 90.5464 50.314 90.5464 50.754C90.5464 51.434 90.7024 51.978 91.0144 52.386C91.3264 52.794 91.7844 52.998 92.3884 52.998ZM96.8869 54V47.52H98.0029V49.092L97.8469 48.888C97.9269 48.68 98.0309 48.49 98.1589 48.318C98.2869 48.142 98.4349 47.998 98.6029 47.886C98.7669 47.766 98.9489 47.674 99.1489 47.61C99.3529 47.542 99.5609 47.502 99.7729 47.49C99.9849 47.474 100.189 47.484 100.385 47.52V48.696C100.173 48.64 99.9369 48.624 99.6769 48.648C99.4209 48.672 99.1849 48.754 98.9689 48.894C98.7649 49.026 98.6029 49.186 98.4829 49.374C98.3669 49.562 98.2829 49.772 98.2309 50.004C98.1789 50.232 98.1529 50.474 98.1529 50.73V54H96.8869ZM105.236 54C104.828 54.08 104.428 54.114 104.036 54.102C103.644 54.09 103.294 54.014 102.986 53.874C102.678 53.734 102.446 53.514 102.29 53.214C102.15 52.946 102.074 52.674 102.062 52.398C102.054 52.118 102.05 51.802 102.05 51.45V45.72H103.31V51.39C103.31 51.65 103.312 51.876 103.316 52.068C103.324 52.26 103.366 52.422 103.442 52.554C103.586 52.802 103.814 52.944 104.126 52.98C104.442 53.012 104.812 52.998 105.236 52.938V54ZM100.808 48.528V47.52H105.236V48.528H100.808Z" fill="#171717"/>
<path d="M112 36H139C146.18 36 152 41.8203 152 49C152 56.1797 146.18 62 139 62H112V36Z" fill="#E4FFF4"/>
<path d="M122.648 45.186C123.204 45.186 123.706 45.32 124.154 45.588C124.602 45.852 124.958 46.216 125.222 46.68C125.486 47.144 125.618 47.674 125.618 48.27V51.018C125.618 51.65 125.486 52.204 125.222 52.68C124.962 53.152 124.598 53.52 124.13 53.784C123.666 54.048 123.13 54.18 122.522 54.18C122.066 54.18 121.638 54.094 121.238 53.922C120.838 53.75 120.49 53.494 120.194 53.154L121.118 52.296C121.282 52.508 121.488 52.678 121.736 52.806C121.984 52.934 122.246 52.998 122.522 52.998C122.878 52.998 123.192 52.912 123.464 52.74C123.74 52.568 123.954 52.344 124.106 52.068C124.258 51.792 124.334 51.496 124.334 51.18V49.596L124.586 49.872C124.338 50.196 124.03 50.452 123.662 50.64C123.294 50.828 122.9 50.922 122.48 50.922C121.94 50.922 121.46 50.798 121.04 50.55C120.62 50.302 120.288 49.964 120.044 49.536C119.8 49.108 119.678 48.624 119.678 48.084C119.678 47.544 119.814 47.056 120.086 46.62C120.358 46.184 120.718 45.836 121.166 45.576C121.614 45.316 122.108 45.186 122.648 45.186ZM122.648 46.398C122.336 46.398 122.05 46.474 121.79 46.626C121.534 46.774 121.33 46.976 121.178 47.232C121.026 47.488 120.95 47.772 120.95 48.084C120.95 48.396 121.026 48.682 121.178 48.942C121.33 49.198 121.534 49.402 121.79 49.554C122.046 49.706 122.33 49.782 122.642 49.782C122.954 49.782 123.238 49.706 123.494 49.554C123.75 49.402 123.954 49.198 124.106 48.942C124.258 48.682 124.334 48.396 124.334 48.084C124.334 47.776 124.258 47.494 124.106 47.238C123.958 46.982 123.756 46.778 123.5 46.626C123.244 46.474 122.96 46.398 122.648 46.398ZM129.477 45.36H130.743L128.439 54H127.173L129.477 45.36ZM133.815 54V46.74L132.189 47.73V46.332L133.815 45.36H135.093V54H133.815ZM140.383 54.18C139.795 54.18 139.275 54.052 138.823 53.796C138.371 53.536 138.015 53.18 137.755 52.728C137.499 52.276 137.371 51.756 137.371 51.168V48.192C137.371 47.604 137.499 47.084 137.755 46.632C138.015 46.18 138.371 45.826 138.823 45.57C139.275 45.31 139.795 45.18 140.383 45.18C140.971 45.18 141.491 45.31 141.943 45.57C142.395 45.826 142.749 46.18 143.005 46.632C143.265 47.084 143.395 47.604 143.395 48.192V51.168C143.395 51.756 143.265 52.276 143.005 52.728C142.749 53.18 142.395 53.536 141.943 53.796C141.491 54.052 140.971 54.18 140.383 54.18ZM140.383 52.98C140.703 52.98 140.993 52.904 141.253 52.752C141.517 52.596 141.727 52.388 141.883 52.128C142.039 51.864 142.117 51.57 142.117 51.246V48.102C142.117 47.782 142.039 47.492 141.883 47.232C141.727 46.968 141.517 46.76 141.253 46.608C140.993 46.452 140.703 46.374 140.383 46.374C140.063 46.374 139.771 46.452 139.507 46.608C139.247 46.76 139.039 46.968 138.883 47.232C138.727 47.492 138.649 47.782 138.649 48.102V51.246C138.649 51.57 138.727 51.864 138.883 52.128C139.039 52.388 139.247 52.596 139.507 52.752C139.771 52.904 140.063 52.98 140.383 52.98Z" fill="#00BA70"/>
<path d="M112 36V62" stroke="#E2E2E2"/>
<rect x="160.5" y="35.5" width="108" height="27" rx="13.5" stroke="#E3E3E3"/>
<path d="M169.84 54V45.36H172.546C172.626 45.36 172.774 45.362 172.99 45.366C173.21 45.37 173.42 45.386 173.62 45.414C174.296 45.498 174.864 45.74 175.324 46.14C175.788 46.54 176.138 47.048 176.374 47.664C176.61 48.276 176.728 48.948 176.728 49.68C176.728 50.416 176.61 51.092 176.374 51.708C176.138 52.32 175.788 52.826 175.324 53.226C174.864 53.622 174.296 53.862 173.62 53.946C173.42 53.974 173.21 53.99 172.99 53.994C172.774 53.998 172.626 54 172.546 54H169.84ZM171.124 52.806H172.546C172.682 52.806 172.844 52.802 173.032 52.794C173.22 52.786 173.386 52.77 173.53 52.746C173.97 52.662 174.326 52.472 174.598 52.176C174.874 51.876 175.076 51.508 175.204 51.072C175.332 50.636 175.396 50.172 175.396 49.68C175.396 49.172 175.33 48.702 175.198 48.27C175.066 47.834 174.862 47.47 174.586 47.178C174.314 46.882 173.962 46.694 173.53 46.614C173.386 46.586 173.218 46.57 173.026 46.566C172.838 46.558 172.678 46.554 172.546 46.554H171.124V52.806ZM180.999 54.18C180.355 54.18 179.789 54.04 179.301 53.76C178.817 53.476 178.439 53.082 178.167 52.578C177.899 52.07 177.765 51.482 177.765 50.814C177.765 50.106 177.897 49.492 178.161 48.972C178.429 48.452 178.801 48.05 179.277 47.766C179.753 47.482 180.307 47.34 180.939 47.34C181.599 47.34 182.161 47.494 182.625 47.802C183.089 48.106 183.435 48.54 183.663 49.104C183.895 49.668 183.987 50.338 183.939 51.114H182.685V50.658C182.677 49.906 182.533 49.35 182.253 48.99C181.977 48.63 181.555 48.45 180.987 48.45C180.359 48.45 179.887 48.648 179.571 49.044C179.255 49.44 179.097 50.012 179.097 50.76C179.097 51.472 179.255 52.024 179.571 52.416C179.887 52.804 180.343 52.998 180.939 52.998C181.331 52.998 181.669 52.91 181.953 52.734C182.241 52.554 182.465 52.298 182.625 51.966L183.855 52.356C183.603 52.936 183.221 53.386 182.709 53.706C182.197 54.022 181.627 54.18 180.999 54.18ZM178.689 51.114V50.136H183.315V51.114H178.689ZM185.879 54V47.292C185.879 47.128 185.885 46.954 185.897 46.77C185.909 46.582 185.943 46.398 185.999 46.218C186.059 46.034 186.157 45.866 186.293 45.714C186.457 45.534 186.637 45.406 186.833 45.33C187.029 45.254 187.223 45.21 187.415 45.198C187.611 45.186 187.791 45.18 187.955 45.18H188.771V46.212H188.015C187.719 46.212 187.497 46.286 187.349 46.434C187.205 46.578 187.133 46.784 187.133 47.052V54H185.879ZM184.805 48.528V47.52H188.771V48.528H184.805ZM192.366 54.18C191.722 54.18 191.156 54.04 190.668 53.76C190.184 53.476 189.806 53.082 189.534 52.578C189.266 52.07 189.132 51.482 189.132 50.814C189.132 50.106 189.264 49.492 189.528 48.972C189.796 48.452 190.168 48.05 190.644 47.766C191.12 47.482 191.674 47.34 192.306 47.34C192.966 47.34 193.528 47.494 193.992 47.802C194.456 48.106 194.802 48.54 195.03 49.104C195.262 49.668 195.354 50.338 195.306 51.114H194.052V50.658C194.044 49.906 193.9 49.35 193.62 48.99C193.344 48.63 192.922 48.45 192.354 48.45C191.726 48.45 191.254 48.648 190.938 49.044C190.622 49.44 190.464 50.012 190.464 50.76C190.464 51.472 190.622 52.024 190.938 52.416C191.254 52.804 191.71 52.998 192.306 52.998C192.698 52.998 193.036 52.91 193.32 52.734C193.608 52.554 193.832 52.298 193.992 51.966L195.222 52.356C194.97 52.936 194.588 53.386 194.076 53.706C193.564 54.022 192.994 54.18 192.366 54.18ZM190.056 51.114V50.136H194.682V51.114H190.056ZM196.653 54V47.52H197.769V49.092L197.613 48.888C197.693 48.68 197.797 48.49 197.925 48.318C198.053 48.142 198.201 47.998 198.369 47.886C198.533 47.766 198.715 47.674 198.915 47.61C199.119 47.542 199.327 47.502 199.539 47.49C199.751 47.474 199.955 47.484 200.151 47.52V48.696C199.939 48.64 199.703 48.624 199.443 48.648C199.187 48.672 198.951 48.754 198.735 48.894C198.531 49.026 198.369 49.186 198.249 49.374C198.133 49.562 198.049 49.772 197.997 50.004C197.945 50.232 197.919 50.474 197.919 50.73V54H196.653ZM201.293 54V47.52H202.409V49.092L202.253 48.888C202.333 48.68 202.437 48.49 202.565 48.318C202.693 48.142 202.841 47.998 203.009 47.886C203.173 47.766 203.355 47.674 203.555 47.61C203.759 47.542 203.967 47.502 204.179 47.49C204.391 47.474 204.595 47.484 204.791 47.52V48.696C204.579 48.64 204.343 48.624 204.083 48.648C203.827 48.672 203.591 48.754 203.375 48.894C203.171 49.026 203.009 49.186 202.889 49.374C202.773 49.562 202.689 49.772 202.637 50.004C202.585 50.232 202.559 50.474 202.559 50.73V54H201.293ZM207.576 54.18C207.096 54.18 206.694 54.092 206.37 53.916C206.046 53.736 205.8 53.5 205.632 53.208C205.468 52.912 205.386 52.588 205.386 52.236C205.386 51.908 205.444 51.62 205.56 51.372C205.676 51.124 205.848 50.914 206.076 50.742C206.304 50.566 206.584 50.424 206.916 50.316C207.204 50.232 207.53 50.158 207.894 50.094C208.258 50.03 208.64 49.97 209.04 49.914C209.444 49.858 209.844 49.802 210.24 49.746L209.784 49.998C209.792 49.49 209.684 49.114 209.46 48.87C209.24 48.622 208.86 48.498 208.32 48.498C207.98 48.498 207.668 48.578 207.384 48.738C207.1 48.894 206.902 49.154 206.79 49.518L205.62 49.158C205.78 48.602 206.084 48.16 206.532 47.832C206.984 47.504 207.584 47.34 208.332 47.34C208.912 47.34 209.416 47.44 209.844 47.64C210.276 47.836 210.592 48.148 210.792 48.576C210.896 48.788 210.96 49.012 210.984 49.248C211.008 49.484 211.02 49.738 211.02 50.01V54H209.91V52.518L210.126 52.71C209.858 53.206 209.516 53.576 209.1 53.82C208.688 54.06 208.18 54.18 207.576 54.18ZM207.798 53.154C208.154 53.154 208.46 53.092 208.716 52.968C208.972 52.84 209.178 52.678 209.334 52.482C209.49 52.286 209.592 52.082 209.64 51.87C209.708 51.678 209.746 51.462 209.754 51.222C209.766 50.982 209.772 50.79 209.772 50.646L210.18 50.796C209.784 50.856 209.424 50.91 209.1 50.958C208.776 51.006 208.482 51.054 208.218 51.102C207.958 51.146 207.726 51.2 207.522 51.264C207.35 51.324 207.196 51.396 207.06 51.48C206.928 51.564 206.822 51.666 206.742 51.786C206.666 51.906 206.628 52.052 206.628 52.224C206.628 52.392 206.67 52.548 206.754 52.692C206.838 52.832 206.966 52.944 207.138 53.028C207.31 53.112 207.53 53.154 207.798 53.154ZM212.698 54V45.18H213.952V54H212.698ZM218.232 54.174C217.444 54.174 216.802 54 216.306 53.652C215.81 53.304 215.506 52.814 215.394 52.182L216.678 51.984C216.758 52.32 216.942 52.586 217.23 52.782C217.522 52.974 217.884 53.07 218.316 53.07C218.708 53.07 219.014 52.99 219.234 52.83C219.458 52.67 219.57 52.45 219.57 52.17C219.57 52.006 219.53 51.874 219.45 51.774C219.374 51.67 219.212 51.572 218.964 51.48C218.716 51.388 218.338 51.274 217.83 51.138C217.274 50.994 216.832 50.84 216.504 50.676C216.18 50.508 215.948 50.314 215.808 50.094C215.672 49.87 215.604 49.6 215.604 49.284C215.604 48.892 215.708 48.55 215.916 48.258C216.124 47.966 216.416 47.74 216.792 47.58C217.172 47.42 217.616 47.34 218.124 47.34C218.62 47.34 219.062 47.418 219.45 47.574C219.838 47.73 220.152 47.952 220.392 48.24C220.632 48.524 220.776 48.858 220.824 49.242L219.54 49.476C219.496 49.164 219.35 48.918 219.102 48.738C218.854 48.558 218.532 48.46 218.136 48.444C217.756 48.428 217.448 48.492 217.212 48.636C216.976 48.776 216.858 48.97 216.858 49.218C216.858 49.362 216.902 49.484 216.99 49.584C217.082 49.684 217.258 49.78 217.518 49.872C217.778 49.964 218.162 50.074 218.67 50.202C219.214 50.342 219.646 50.498 219.966 50.67C220.286 50.838 220.514 51.04 220.65 51.276C220.79 51.508 220.86 51.79 220.86 52.122C220.86 52.762 220.626 53.264 220.158 53.628C219.694 53.992 219.052 54.174 218.232 54.174Z" fill="#171717"/>
<path d="M228 36H255C262.18 36 268 41.8203 268 49C268 56.1797 262.18 62 255 62H228V36Z" fill="#E4FFF4"/>
<path d="M238.648 45.186C239.204 45.186 239.706 45.32 240.154 45.588C240.602 45.852 240.958 46.216 241.222 46.68C241.486 47.144 241.618 47.674 241.618 48.27V51.018C241.618 51.65 241.486 52.204 241.222 52.68C240.962 53.152 240.598 53.52 240.13 53.784C239.666 54.048 239.13 54.18 238.522 54.18C238.066 54.18 237.638 54.094 237.238 53.922C236.838 53.75 236.49 53.494 236.194 53.154L237.118 52.296C237.282 52.508 237.488 52.678 237.736 52.806C237.984 52.934 238.246 52.998 238.522 52.998C238.878 52.998 239.192 52.912 239.464 52.74C239.74 52.568 239.954 52.344 240.106 52.068C240.258 51.792 240.334 51.496 240.334 51.18V49.596L240.586 49.872C240.338 50.196 240.03 50.452 239.662 50.64C239.294 50.828 238.9 50.922 238.48 50.922C237.94 50.922 237.46 50.798 237.04 50.55C236.62 50.302 236.288 49.964 236.044 49.536C235.8 49.108 235.678 48.624 235.678 48.084C235.678 47.544 235.814 47.056 236.086 46.62C236.358 46.184 236.718 45.836 237.166 45.576C237.614 45.316 238.108 45.186 238.648 45.186ZM238.648 46.398C238.336 46.398 238.05 46.474 237.79 46.626C237.534 46.774 237.33 46.976 237.178 47.232C237.026 47.488 236.95 47.772 236.95 48.084C236.95 48.396 237.026 48.682 237.178 48.942C237.33 49.198 237.534 49.402 237.79 49.554C238.046 49.706 238.33 49.782 238.642 49.782C238.954 49.782 239.238 49.706 239.494 49.554C239.75 49.402 239.954 49.198 240.106 48.942C240.258 48.682 240.334 48.396 240.334 48.084C240.334 47.776 240.258 47.494 240.106 47.238C239.958 46.982 239.756 46.778 239.5 46.626C239.244 46.474 238.96 46.398 238.648 46.398ZM245.477 45.36H246.743L244.439 54H243.173L245.477 45.36ZM249.815 54V46.74L248.189 47.73V46.332L249.815 45.36H251.093V54H249.815ZM256.383 54.18C255.795 54.18 255.275 54.052 254.823 53.796C254.371 53.536 254.015 53.18 253.755 52.728C253.499 52.276 253.371 51.756 253.371 51.168V48.192C253.371 47.604 253.499 47.084 253.755 46.632C254.015 46.18 254.371 45.826 254.823 45.57C255.275 45.31 255.795 45.18 256.383 45.18C256.971 45.18 257.491 45.31 257.943 45.57C258.395 45.826 258.749 46.18 259.005 46.632C259.265 47.084 259.395 47.604 259.395 48.192V51.168C259.395 51.756 259.265 52.276 259.005 52.728C258.749 53.18 258.395 53.536 257.943 53.796C257.491 54.052 256.971 54.18 256.383 54.18ZM256.383 52.98C256.703 52.98 256.993 52.904 257.253 52.752C257.517 52.596 257.727 52.388 257.883 52.128C258.039 51.864 258.117 51.57 258.117 51.246V48.102C258.117 47.782 258.039 47.492 257.883 47.232C257.727 46.968 257.517 46.76 257.253 46.608C256.993 46.452 256.703 46.374 256.383 46.374C256.063 46.374 255.771 46.452 255.507 46.608C255.247 46.76 255.039 46.968 254.883 47.232C254.727 47.492 254.649 47.782 254.649 48.102V51.246C254.649 51.57 254.727 51.864 254.883 52.128C255.039 52.388 255.247 52.596 255.507 52.752C255.771 52.904 256.063 52.98 256.383 52.98Z" fill="#00BA70"/>
<path d="M228 36V62" stroke="#E2E2E2"/>
<rect x="276.5" y="35.5" width="121" height="27" rx="13.5" stroke="#E3E3E3"/>
<path d="M286.24 54L289.048 45.36H290.854L293.662 54H292.36L289.774 46.116H290.098L287.542 54H286.24ZM287.698 52.05V50.874H292.21V52.05H287.698ZM297.51 54.18C296.846 54.18 296.282 54.032 295.818 53.736C295.354 53.44 294.998 53.034 294.75 52.518C294.506 52.002 294.382 51.416 294.378 50.76C294.382 50.092 294.51 49.502 294.762 48.99C295.014 48.474 295.374 48.07 295.842 47.778C296.31 47.486 296.872 47.34 297.528 47.34C298.236 47.34 298.84 47.516 299.34 47.868C299.844 48.22 300.176 48.702 300.336 49.314L299.088 49.674C298.964 49.31 298.76 49.028 298.476 48.828C298.196 48.624 297.874 48.522 297.51 48.522C297.098 48.522 296.76 48.62 296.496 48.816C296.232 49.008 296.036 49.272 295.908 49.608C295.78 49.944 295.714 50.328 295.71 50.76C295.714 51.428 295.866 51.968 296.166 52.38C296.47 52.792 296.918 52.998 297.51 52.998C297.914 52.998 298.24 52.906 298.488 52.722C298.74 52.534 298.932 52.266 299.064 51.918L300.336 52.218C300.124 52.85 299.774 53.336 299.286 53.676C298.798 54.012 298.206 54.18 297.51 54.18ZM304.155 54.18C303.491 54.18 302.927 54.032 302.463 53.736C301.999 53.44 301.643 53.034 301.395 52.518C301.151 52.002 301.027 51.416 301.023 50.76C301.027 50.092 301.155 49.502 301.407 48.99C301.659 48.474 302.019 48.07 302.487 47.778C302.955 47.486 303.517 47.34 304.173 47.34C304.881 47.34 305.485 47.516 305.985 47.868C306.489 48.22 306.821 48.702 306.981 49.314L305.733 49.674C305.609 49.31 305.405 49.028 305.121 48.828C304.841 48.624 304.519 48.522 304.155 48.522C303.743 48.522 303.405 48.62 303.141 48.816C302.877 49.008 302.681 49.272 302.553 49.608C302.425 49.944 302.359 50.328 302.355 50.76C302.359 51.428 302.511 51.968 302.811 52.38C303.115 52.792 303.563 52.998 304.155 52.998C304.559 52.998 304.885 52.906 305.133 52.722C305.385 52.534 305.577 52.266 305.709 51.918L306.981 52.218C306.769 52.85 306.419 53.336 305.931 53.676C305.443 54.012 304.851 54.18 304.155 54.18ZM310.842 54.18C310.194 54.18 309.632 54.034 309.156 53.742C308.68 53.45 308.312 53.048 308.052 52.536C307.796 52.02 307.668 51.426 307.668 50.754C307.668 50.078 307.8 49.484 308.064 48.972C308.328 48.456 308.698 48.056 309.174 47.772C309.65 47.484 310.206 47.34 310.842 47.34C311.49 47.34 312.052 47.486 312.528 47.778C313.004 48.07 313.372 48.472 313.632 48.984C313.892 49.496 314.022 50.086 314.022 50.754C314.022 51.43 313.89 52.026 313.626 52.542C313.366 53.054 312.998 53.456 312.522 53.748C312.046 54.036 311.486 54.18 310.842 54.18ZM310.842 52.998C311.462 52.998 311.924 52.79 312.228 52.374C312.536 51.954 312.69 51.414 312.69 50.754C312.69 50.078 312.534 49.538 312.222 49.134C311.914 48.726 311.454 48.522 310.842 48.522C310.422 48.522 310.076 48.618 309.804 48.81C309.532 48.998 309.33 49.26 309.198 49.596C309.066 49.928 309 50.314 309 50.754C309 51.434 309.156 51.978 309.468 52.386C309.78 52.794 310.238 52.998 310.842 52.998ZM317.782 54.174C317.334 54.174 316.958 54.102 316.654 53.958C316.35 53.814 316.102 53.626 315.91 53.394C315.722 53.158 315.578 52.902 315.478 52.626C315.378 52.35 315.31 52.08 315.274 51.816C315.238 51.552 315.22 51.32 315.22 51.12V47.52H316.492V50.706C316.492 50.958 316.512 51.218 316.552 51.486C316.596 51.75 316.676 51.996 316.792 52.224C316.912 52.452 317.078 52.636 317.29 52.776C317.506 52.916 317.786 52.986 318.13 52.986C318.354 52.986 318.566 52.95 318.766 52.878C318.966 52.802 319.14 52.682 319.288 52.518C319.44 52.354 319.558 52.138 319.642 51.87C319.73 51.602 319.774 51.276 319.774 50.892L320.554 51.186C320.554 51.774 320.444 52.294 320.224 52.746C320.004 53.194 319.688 53.544 319.276 53.796C318.864 54.048 318.366 54.174 317.782 54.174ZM319.924 54V52.128H319.774V47.52H321.04V54H319.924ZM327.271 54V50.814C327.271 50.562 327.249 50.304 327.205 50.04C327.165 49.772 327.085 49.524 326.965 49.296C326.849 49.068 326.683 48.884 326.467 48.744C326.255 48.604 325.977 48.534 325.633 48.534C325.409 48.534 325.197 48.572 324.997 48.648C324.797 48.72 324.621 48.838 324.469 49.002C324.321 49.166 324.203 49.382 324.115 49.65C324.031 49.918 323.989 50.244 323.989 50.628L323.209 50.334C323.209 49.746 323.319 49.228 323.539 48.78C323.759 48.328 324.075 47.976 324.487 47.724C324.899 47.472 325.397 47.346 325.981 47.346C326.429 47.346 326.805 47.418 327.109 47.562C327.413 47.706 327.659 47.896 327.847 48.132C328.039 48.364 328.185 48.618 328.285 48.894C328.385 49.17 328.453 49.44 328.489 49.704C328.525 49.968 328.543 50.2 328.543 50.4V54H327.271ZM322.717 54V47.52H323.839V49.392H323.989V54H322.717ZM333.814 54C333.406 54.08 333.006 54.114 332.614 54.102C332.222 54.09 331.872 54.014 331.564 53.874C331.256 53.734 331.024 53.514 330.868 53.214C330.728 52.946 330.652 52.674 330.64 52.398C330.632 52.118 330.628 51.802 330.628 51.45V45.72H331.888V51.39C331.888 51.65 331.89 51.876 331.894 52.068C331.902 52.26 331.944 52.422 332.02 52.554C332.164 52.802 332.392 52.944 332.704 52.98C333.02 53.012 333.39 52.998 333.814 52.938V54ZM329.386 48.528V47.52H333.814V48.528H329.386ZM335.3 46.458V45.24H336.554V46.458H335.3ZM335.3 54V47.52H336.554V54H335.3ZM342.904 54V50.814C342.904 50.562 342.882 50.304 342.838 50.04C342.798 49.772 342.718 49.524 342.598 49.296C342.482 49.068 342.316 48.884 342.1 48.744C341.888 48.604 341.61 48.534 341.266 48.534C341.042 48.534 340.83 48.572 340.63 48.648C340.43 48.72 340.254 48.838 340.102 49.002C339.954 49.166 339.836 49.382 339.748 49.65C339.664 49.918 339.622 50.244 339.622 50.628L338.842 50.334C338.842 49.746 338.952 49.228 339.172 48.78C339.392 48.328 339.708 47.976 340.12 47.724C340.532 47.472 341.03 47.346 341.614 47.346C342.062 47.346 342.438 47.418 342.742 47.562C343.046 47.706 343.292 47.896 343.48 48.132C343.672 48.364 343.818 48.618 343.918 48.894C344.018 49.17 344.086 49.44 344.122 49.704C344.158 49.968 344.176 50.2 344.176 50.4V54H342.904ZM338.35 54V47.52H339.472V49.392H339.622V54H338.35ZM348.408 57.06C348.06 57.06 347.722 57.006 347.394 56.898C347.07 56.79 346.774 56.63 346.506 56.418C346.238 56.21 346.016 55.952 345.84 55.644L346.998 55.056C347.138 55.332 347.338 55.534 347.598 55.662C347.858 55.79 348.132 55.854 348.42 55.854C348.776 55.854 349.08 55.79 349.332 55.662C349.584 55.538 349.774 55.35 349.902 55.098C350.034 54.846 350.098 54.534 350.094 54.162V52.35H350.244V47.52H351.354V54.174C351.354 54.346 351.348 54.51 351.336 54.666C351.324 54.822 351.302 54.978 351.27 55.134C351.178 55.57 351.002 55.93 350.742 56.214C350.486 56.498 350.158 56.71 349.758 56.85C349.362 56.99 348.912 57.06 348.408 57.06ZM348.312 54.18C347.708 54.18 347.186 54.03 346.746 53.73C346.31 53.43 345.972 53.022 345.732 52.506C345.496 51.986 345.378 51.402 345.378 50.754C345.378 50.102 345.498 49.52 345.738 49.008C345.978 48.492 346.318 48.086 346.758 47.79C347.202 47.49 347.728 47.34 348.336 47.34C348.948 47.34 349.462 47.49 349.878 47.79C350.298 48.086 350.614 48.492 350.826 49.008C351.042 49.524 351.15 50.106 351.15 50.754C351.15 51.402 351.042 51.984 350.826 52.5C350.61 53.016 350.292 53.426 349.872 53.73C349.452 54.03 348.932 54.18 348.312 54.18ZM348.486 53.046C348.898 53.046 349.234 52.948 349.494 52.752C349.754 52.556 349.944 52.286 350.064 51.942C350.184 51.598 350.244 51.202 350.244 50.754C350.244 50.306 350.182 49.91 350.058 49.566C349.938 49.222 349.75 48.954 349.494 48.762C349.242 48.57 348.92 48.474 348.528 48.474C348.112 48.474 347.77 48.576 347.502 48.78C347.234 48.984 347.034 49.258 346.902 49.602C346.774 49.946 346.71 50.33 346.71 50.754C346.71 51.182 346.774 51.57 346.902 51.918C347.034 52.262 347.23 52.536 347.49 52.74C347.754 52.944 348.086 53.046 348.486 53.046Z" fill="#171717"/>
</svg>
