<svg width="325" height="65" viewBox="0 0 325 65" fill="none" xmlns="http://www.w3.org/2000/svg">
<g clip-path="url(#clip0_10172_13304)">
<rect x="0.5" y="0.5" width="192" height="27" rx="13.5" stroke="#E3E3E3"/>
<path d="M9.96 19V10.36H11.214V19H9.96ZM17.5638 19V15.814C17.5638 15.562 17.5418 15.304 17.4978 15.04C17.4578 14.772 17.3778 14.524 17.2578 14.296C17.1418 14.068 16.9758 13.884 16.7598 13.744C16.5478 13.604 16.2698 13.534 15.9258 13.534C15.7018 13.534 15.4898 13.572 15.2898 13.648C15.0898 13.72 14.9138 13.838 14.7618 14.002C14.6138 14.166 14.4958 14.382 14.4078 14.65C14.3238 14.918 14.2818 15.244 14.2818 15.628L13.5018 15.334C13.5018 14.746 13.6118 14.228 13.8318 13.78C14.0518 13.328 14.3678 12.976 14.7798 12.724C15.1918 12.472 15.6898 12.346 16.2738 12.346C16.7218 12.346 17.0978 12.418 17.4018 12.562C17.7058 12.706 17.9518 12.896 18.1398 13.132C18.3318 13.364 18.4778 13.618 18.5778 13.894C18.6778 14.17 18.7458 14.44 18.7818 14.704C18.8178 14.968 18.8358 15.2 18.8358 15.4V19H17.5638ZM13.0098 19V12.52H14.1318V14.392H14.2818V19H13.0098ZM24.1066 19C23.6986 19.08 23.2986 19.114 22.9066 19.102C22.5146 19.09 22.1646 19.014 21.8566 18.874C21.5486 18.734 21.3166 18.514 21.1606 18.214C21.0206 17.946 20.9446 17.674 20.9326 17.398C20.9246 17.118 20.9206 16.802 20.9206 16.45V10.72H22.1806V16.39C22.1806 16.65 22.1826 16.876 22.1866 17.068C22.1946 17.26 22.2366 17.422 22.3126 17.554C22.4566 17.802 22.6846 17.944 22.9966 17.98C23.3126 18.012 23.6826 17.998 24.1066 17.938V19ZM19.6786 13.528V12.52H24.1066V13.528H19.6786ZM28.0538 19.18C27.4098 19.18 26.8438 19.04 26.3558 18.76C25.8718 18.476 25.4938 18.082 25.2218 17.578C24.9538 17.07 24.8198 16.482 24.8198 15.814C24.8198 15.106 24.9518 14.492 25.2158 13.972C25.4838 13.452 25.8558 13.05 26.3318 12.766C26.8078 12.482 27.3618 12.34 27.9938 12.34C28.6538 12.34 29.2158 12.494 29.6798 12.802C30.1438 13.106 30.4898 13.54 30.7178 14.104C30.9498 14.668 31.0418 15.338 30.9938 16.114H29.7398V15.658C29.7318 14.906 29.5878 14.35 29.3078 13.99C29.0318 13.63 28.6098 13.45 28.0418 13.45C27.4138 13.45 26.9418 13.648 26.6258 14.044C26.3098 14.44 26.1518 15.012 26.1518 15.76C26.1518 16.472 26.3098 17.024 26.6258 17.416C26.9418 17.804 27.3978 17.998 27.9938 17.998C28.3858 17.998 28.7238 17.91 29.0078 17.734C29.2958 17.554 29.5198 17.298 29.6798 16.966L30.9098 17.356C30.6578 17.936 30.2758 18.386 29.7638 18.706C29.2518 19.022 28.6818 19.18 28.0538 19.18ZM25.7438 16.114V15.136H30.3698V16.114H25.7438ZM32.34 19V12.52H33.456V14.092L33.3 13.888C33.38 13.68 33.484 13.49 33.612 13.318C33.74 13.142 33.888 12.998 34.056 12.886C34.22 12.766 34.402 12.674 34.602 12.61C34.806 12.542 35.014 12.502 35.226 12.49C35.438 12.474 35.642 12.484 35.838 12.52V13.696C35.626 13.64 35.39 13.624 35.13 13.648C34.874 13.672 34.638 13.754 34.422 13.894C34.218 14.026 34.056 14.186 33.936 14.374C33.82 14.562 33.736 14.772 33.684 15.004C33.632 15.232 33.606 15.474 33.606 15.73V19H32.34ZM39.6354 19.18C38.9714 19.18 38.4074 19.032 37.9434 18.736C37.4794 18.44 37.1234 18.034 36.8754 17.518C36.6314 17.002 36.5074 16.416 36.5034 15.76C36.5074 15.092 36.6354 14.502 36.8874 13.99C37.1394 13.474 37.4994 13.07 37.9674 12.778C38.4354 12.486 38.9974 12.34 39.6534 12.34C40.3614 12.34 40.9654 12.516 41.4654 12.868C41.9694 13.22 42.3014 13.702 42.4614 14.314L41.2134 14.674C41.0894 14.31 40.8854 14.028 40.6014 13.828C40.3214 13.624 39.9994 13.522 39.6354 13.522C39.2234 13.522 38.8854 13.62 38.6214 13.816C38.3574 14.008 38.1614 14.272 38.0334 14.608C37.9054 14.944 37.8394 15.328 37.8354 15.76C37.8394 16.428 37.9914 16.968 38.2914 17.38C38.5954 17.792 39.0434 17.998 39.6354 17.998C40.0394 17.998 40.3654 17.906 40.6134 17.722C40.8654 17.534 41.0574 17.266 41.1894 16.918L42.4614 17.218C42.2494 17.85 41.8994 18.336 41.4114 18.676C40.9234 19.012 40.3314 19.18 39.6354 19.18ZM46.322 19.18C45.674 19.18 45.112 19.034 44.636 18.742C44.16 18.45 43.792 18.048 43.532 17.536C43.276 17.02 43.148 16.426 43.148 15.754C43.148 15.078 43.28 14.484 43.544 13.972C43.808 13.456 44.178 13.056 44.654 12.772C45.13 12.484 45.686 12.34 46.322 12.34C46.97 12.34 47.532 12.486 48.008 12.778C48.484 13.07 48.852 13.472 49.112 13.984C49.372 14.496 49.502 15.086 49.502 15.754C49.502 16.43 49.37 17.026 49.106 17.542C48.846 18.054 48.478 18.456 48.002 18.748C47.526 19.036 46.966 19.18 46.322 19.18ZM46.322 17.998C46.942 17.998 47.404 17.79 47.708 17.374C48.016 16.954 48.17 16.414 48.17 15.754C48.17 15.078 48.014 14.538 47.702 14.134C47.394 13.726 46.934 13.522 46.322 13.522C45.902 13.522 45.556 13.618 45.284 13.81C45.012 13.998 44.81 14.26 44.678 14.596C44.546 14.928 44.48 15.314 44.48 15.754C44.48 16.434 44.636 16.978 44.948 17.386C45.26 17.794 45.718 17.998 46.322 17.998ZM58.5845 19L58.5905 14.962C58.5905 14.494 58.4705 14.13 58.2305 13.87C57.9905 13.606 57.6745 13.474 57.2825 13.474C57.0425 13.474 56.8225 13.53 56.6225 13.642C56.4265 13.75 56.2665 13.914 56.1425 14.134C56.0225 14.35 55.9625 14.622 55.9625 14.95L55.3565 14.644C55.3485 14.188 55.4445 13.788 55.6445 13.444C55.8485 13.1 56.1245 12.834 56.4725 12.646C56.8205 12.454 57.2105 12.358 57.6425 12.358C58.3425 12.358 58.8845 12.568 59.2685 12.988C59.6525 13.408 59.8445 13.966 59.8445 14.662L59.8385 19H58.5845ZM50.8145 19V12.52H51.9305V14.392H52.0745V19H50.8145ZM54.7025 19L54.7085 14.986C54.7085 14.514 54.5885 14.144 54.3485 13.876C54.1125 13.608 53.7945 13.474 53.3945 13.474C52.9985 13.474 52.6785 13.61 52.4345 13.882C52.1945 14.154 52.0745 14.51 52.0745 14.95L51.4745 14.566C51.4745 14.142 51.5765 13.764 51.7805 13.432C51.9845 13.1 52.2605 12.838 52.6085 12.646C52.9565 12.454 53.3505 12.358 53.7905 12.358C54.2505 12.358 54.6425 12.456 54.9665 12.652C55.2905 12.844 55.5365 13.114 55.7045 13.462C55.8765 13.81 55.9625 14.214 55.9625 14.674L55.9565 19H54.7025ZM64.4445 19.18C63.8245 19.18 63.3045 19.03 62.8845 18.73C62.4645 18.426 62.1465 18.016 61.9305 17.5C61.7145 16.984 61.6065 16.402 61.6065 15.754C61.6065 15.106 61.7125 14.524 61.9245 14.008C62.1405 13.492 62.4565 13.086 62.8725 12.79C63.2925 12.49 63.8085 12.34 64.4205 12.34C65.0285 12.34 65.5525 12.49 65.9925 12.79C66.4365 13.086 66.7785 13.492 67.0185 14.008C67.2585 14.52 67.3785 15.102 67.3785 15.754C67.3785 16.402 67.2585 16.986 67.0185 17.506C66.7825 18.022 66.4445 18.43 66.0045 18.73C65.5685 19.03 65.0485 19.18 64.4445 19.18ZM61.3965 21.88V12.52H62.5125V17.182H62.6565V21.88H61.3965ZM64.2705 18.046C64.6705 18.046 65.0005 17.944 65.2605 17.74C65.5245 17.536 65.7205 17.262 65.8485 16.918C65.9805 16.57 66.0465 16.182 66.0465 15.754C66.0465 15.33 65.9805 14.946 65.8485 14.602C65.7205 14.258 65.5225 13.984 65.2545 13.78C64.9865 13.576 64.6445 13.474 64.2285 13.474C63.8365 13.474 63.5125 13.57 63.2565 13.762C63.0045 13.954 62.8165 14.222 62.6925 14.566C62.5725 14.91 62.5125 15.306 62.5125 15.754C62.5125 16.202 62.5725 16.598 62.6925 16.942C62.8125 17.286 63.0025 17.556 63.2625 17.752C63.5225 17.948 63.8585 18.046 64.2705 18.046ZM70.5333 19.18C70.0533 19.18 69.6513 19.092 69.3273 18.916C69.0033 18.736 68.7573 18.5 68.5893 18.208C68.4253 17.912 68.3433 17.588 68.3433 17.236C68.3433 16.908 68.4013 16.62 68.5173 16.372C68.6333 16.124 68.8053 15.914 69.0333 15.742C69.2613 15.566 69.5413 15.424 69.8733 15.316C70.1613 15.232 70.4873 15.158 70.8513 15.094C71.2153 15.03 71.5973 14.97 71.9973 14.914C72.4013 14.858 72.8013 14.802 73.1973 14.746L72.7413 14.998C72.7493 14.49 72.6413 14.114 72.4173 13.87C72.1973 13.622 71.8173 13.498 71.2773 13.498C70.9373 13.498 70.6253 13.578 70.3413 13.738C70.0573 13.894 69.8593 14.154 69.7473 14.518L68.5773 14.158C68.7373 13.602 69.0413 13.16 69.4893 12.832C69.9413 12.504 70.5413 12.34 71.2893 12.34C71.8693 12.34 72.3733 12.44 72.8013 12.64C73.2333 12.836 73.5493 13.148 73.7493 13.576C73.8533 13.788 73.9173 14.012 73.9413 14.248C73.9653 14.484 73.9773 14.738 73.9773 15.01V19H72.8673V17.518L73.0833 17.71C72.8153 18.206 72.4733 18.576 72.0573 18.82C71.6453 19.06 71.1373 19.18 70.5333 19.18ZM70.7553 18.154C71.1113 18.154 71.4173 18.092 71.6733 17.968C71.9293 17.84 72.1353 17.678 72.2913 17.482C72.4473 17.286 72.5493 17.082 72.5973 16.87C72.6653 16.678 72.7033 16.462 72.7113 16.222C72.7233 15.982 72.7293 15.79 72.7293 15.646L73.1373 15.796C72.7413 15.856 72.3813 15.91 72.0573 15.958C71.7333 16.006 71.4393 16.054 71.1753 16.102C70.9153 16.146 70.6833 16.2 70.4793 16.264C70.3073 16.324 70.1533 16.396 70.0173 16.48C69.8853 16.564 69.7793 16.666 69.6993 16.786C69.6233 16.906 69.5853 17.052 69.5853 17.224C69.5853 17.392 69.6273 17.548 69.7113 17.692C69.7953 17.832 69.9233 17.944 70.0953 18.028C70.2673 18.112 70.4873 18.154 70.7553 18.154ZM80.0833 19V15.814C80.0833 15.562 80.0613 15.304 80.0173 15.04C79.9773 14.772 79.8973 14.524 79.7773 14.296C79.6613 14.068 79.4953 13.884 79.2793 13.744C79.0673 13.604 78.7893 13.534 78.4453 13.534C78.2213 13.534 78.0093 13.572 77.8093 13.648C77.6093 13.72 77.4333 13.838 77.2813 14.002C77.1333 14.166 77.0153 14.382 76.9273 14.65C76.8433 14.918 76.8013 15.244 76.8013 15.628L76.0213 15.334C76.0213 14.746 76.1313 14.228 76.3513 13.78C76.5713 13.328 76.8873 12.976 77.2993 12.724C77.7113 12.472 78.2093 12.346 78.7933 12.346C79.2413 12.346 79.6173 12.418 79.9213 12.562C80.2253 12.706 80.4713 12.896 80.6593 13.132C80.8513 13.364 80.9973 13.618 81.0973 13.894C81.1973 14.17 81.2653 14.44 81.3013 14.704C81.3373 14.968 81.3553 15.2 81.3553 15.4V19H80.0833ZM75.5293 19V12.52H76.6513V14.392H76.8013V19H75.5293ZM83.5598 21.88L84.8138 18.466L84.8318 19.474L82.0058 12.52H83.3138L85.4258 17.89H85.0418L87.0578 12.52H88.3298L84.7538 21.88H83.5598ZM91.072 19L93.88 10.36H95.686L98.494 19H97.192L94.606 11.116H94.93L92.374 19H91.072ZM92.53 17.05V15.874H97.042V17.05H92.53ZM102.342 19.18C101.678 19.18 101.114 19.032 100.65 18.736C100.186 18.44 99.8305 18.034 99.5825 17.518C99.3385 17.002 99.2145 16.416 99.2105 15.76C99.2145 15.092 99.3425 14.502 99.5945 13.99C99.8465 13.474 100.206 13.07 100.674 12.778C101.142 12.486 101.704 12.34 102.36 12.34C103.068 12.34 103.672 12.516 104.172 12.868C104.676 13.22 105.008 13.702 105.168 14.314L103.92 14.674C103.796 14.31 103.592 14.028 103.308 13.828C103.028 13.624 102.706 13.522 102.342 13.522C101.93 13.522 101.592 13.62 101.328 13.816C101.064 14.008 100.868 14.272 100.74 14.608C100.612 14.944 100.546 15.328 100.542 15.76C100.546 16.428 100.698 16.968 100.998 17.38C101.302 17.792 101.75 17.998 102.342 17.998C102.746 17.998 103.072 17.906 103.32 17.722C103.572 17.534 103.764 17.266 103.896 16.918L105.168 17.218C104.956 17.85 104.606 18.336 104.118 18.676C103.63 19.012 103.038 19.18 102.342 19.18ZM108.987 19.18C108.323 19.18 107.759 19.032 107.295 18.736C106.831 18.44 106.475 18.034 106.227 17.518C105.983 17.002 105.859 16.416 105.855 15.76C105.859 15.092 105.987 14.502 106.239 13.99C106.491 13.474 106.851 13.07 107.319 12.778C107.787 12.486 108.349 12.34 109.005 12.34C109.713 12.34 110.317 12.516 110.817 12.868C111.321 13.22 111.653 13.702 111.813 14.314L110.565 14.674C110.441 14.31 110.237 14.028 109.953 13.828C109.673 13.624 109.351 13.522 108.987 13.522C108.575 13.522 108.237 13.62 107.973 13.816C107.709 14.008 107.513 14.272 107.385 14.608C107.257 14.944 107.191 15.328 107.187 15.76C107.191 16.428 107.343 16.968 107.643 17.38C107.947 17.792 108.395 17.998 108.987 17.998C109.391 17.998 109.717 17.906 109.965 17.722C110.217 17.534 110.409 17.266 110.541 16.918L111.813 17.218C111.601 17.85 111.251 18.336 110.763 18.676C110.275 19.012 109.683 19.18 108.987 19.18ZM115.674 19.18C115.026 19.18 114.464 19.034 113.988 18.742C113.512 18.45 113.144 18.048 112.884 17.536C112.628 17.02 112.5 16.426 112.5 15.754C112.5 15.078 112.632 14.484 112.896 13.972C113.16 13.456 113.53 13.056 114.006 12.772C114.482 12.484 115.038 12.34 115.674 12.34C116.322 12.34 116.884 12.486 117.36 12.778C117.836 13.07 118.204 13.472 118.464 13.984C118.724 14.496 118.854 15.086 118.854 15.754C118.854 16.43 118.722 17.026 118.458 17.542C118.198 18.054 117.83 18.456 117.354 18.748C116.878 19.036 116.318 19.18 115.674 19.18ZM115.674 17.998C116.294 17.998 116.756 17.79 117.06 17.374C117.368 16.954 117.522 16.414 117.522 15.754C117.522 15.078 117.366 14.538 117.054 14.134C116.746 13.726 116.286 13.522 115.674 13.522C115.254 13.522 114.908 13.618 114.636 13.81C114.364 13.998 114.162 14.26 114.03 14.596C113.898 14.928 113.832 15.314 113.832 15.754C113.832 16.434 113.988 16.978 114.3 17.386C114.612 17.794 115.07 17.998 115.674 17.998ZM122.614 19.174C122.166 19.174 121.79 19.102 121.486 18.958C121.182 18.814 120.934 18.626 120.742 18.394C120.554 18.158 120.41 17.902 120.31 17.626C120.21 17.35 120.142 17.08 120.106 16.816C120.07 16.552 120.052 16.32 120.052 16.12V12.52H121.324V15.706C121.324 15.958 121.344 16.218 121.384 16.486C121.428 16.75 121.508 16.996 121.624 17.224C121.744 17.452 121.91 17.636 122.122 17.776C122.338 17.916 122.618 17.986 122.962 17.986C123.186 17.986 123.398 17.95 123.598 17.878C123.798 17.802 123.972 17.682 124.12 17.518C124.272 17.354 124.39 17.138 124.474 16.87C124.562 16.602 124.606 16.276 124.606 15.892L125.386 16.186C125.386 16.774 125.276 17.294 125.056 17.746C124.836 18.194 124.52 18.544 124.108 18.796C123.696 19.048 123.198 19.174 122.614 19.174ZM124.756 19V17.128H124.606V12.52H125.872V19H124.756ZM132.103 19V15.814C132.103 15.562 132.081 15.304 132.037 15.04C131.997 14.772 131.917 14.524 131.797 14.296C131.681 14.068 131.515 13.884 131.299 13.744C131.087 13.604 130.809 13.534 130.465 13.534C130.241 13.534 130.029 13.572 129.829 13.648C129.629 13.72 129.453 13.838 129.301 14.002C129.153 14.166 129.035 14.382 128.947 14.65C128.863 14.918 128.821 15.244 128.821 15.628L128.041 15.334C128.041 14.746 128.151 14.228 128.371 13.78C128.591 13.328 128.907 12.976 129.319 12.724C129.731 12.472 130.229 12.346 130.813 12.346C131.261 12.346 131.637 12.418 131.941 12.562C132.245 12.706 132.491 12.896 132.679 13.132C132.871 13.364 133.017 13.618 133.117 13.894C133.217 14.17 133.285 14.44 133.321 14.704C133.357 14.968 133.375 15.2 133.375 15.4V19H132.103ZM127.549 19V12.52H128.671V14.392H128.821V19H127.549ZM138.646 19C138.238 19.08 137.838 19.114 137.446 19.102C137.054 19.09 136.704 19.014 136.396 18.874C136.088 18.734 135.856 18.514 135.7 18.214C135.56 17.946 135.484 17.674 135.472 17.398C135.464 17.118 135.46 16.802 135.46 16.45V10.72H136.72V16.39C136.72 16.65 136.722 16.876 136.726 17.068C136.734 17.26 136.776 17.422 136.852 17.554C136.996 17.802 137.224 17.944 137.536 17.98C137.852 18.012 138.222 17.998 138.646 17.938V19ZM134.218 13.528V12.52H138.646V13.528H134.218ZM142.49 19.174C141.702 19.174 141.06 19 140.564 18.652C140.068 18.304 139.764 17.814 139.652 17.182L140.936 16.984C141.016 17.32 141.2 17.586 141.488 17.782C141.78 17.974 142.142 18.07 142.574 18.07C142.966 18.07 143.272 17.99 143.492 17.83C143.716 17.67 143.828 17.45 143.828 17.17C143.828 17.006 143.788 16.874 143.708 16.774C143.632 16.67 143.47 16.572 143.222 16.48C142.974 16.388 142.596 16.274 142.088 16.138C141.532 15.994 141.09 15.84 140.762 15.676C140.438 15.508 140.206 15.314 140.066 15.094C139.93 14.87 139.862 14.6 139.862 14.284C139.862 13.892 139.966 13.55 140.174 13.258C140.382 12.966 140.674 12.74 141.05 12.58C141.43 12.42 141.874 12.34 142.382 12.34C142.878 12.34 143.32 12.418 143.708 12.574C144.096 12.73 144.41 12.952 144.65 13.24C144.89 13.524 145.034 13.858 145.082 14.242L143.798 14.476C143.754 14.164 143.608 13.918 143.36 13.738C143.112 13.558 142.79 13.46 142.394 13.444C142.014 13.428 141.706 13.492 141.47 13.636C141.234 13.776 141.116 13.97 141.116 14.218C141.116 14.362 141.16 14.484 141.248 14.584C141.34 14.684 141.516 14.78 141.776 14.872C142.036 14.964 142.42 15.074 142.928 15.202C143.472 15.342 143.904 15.498 144.224 15.67C144.544 15.838 144.772 16.04 144.908 16.276C145.048 16.508 145.118 16.79 145.118 17.122C145.118 17.762 144.884 18.264 144.416 18.628C143.952 18.992 143.31 19.174 142.49 19.174Z" fill="#171717"/>
<path d="M152 1H179C186.18 1 192 6.8203 192 14C192 21.1797 186.18 27 179 27H152V1Z" fill="#E4FFF4"/>
<path d="M162.648 10.186C163.204 10.186 163.706 10.32 164.154 10.588C164.602 10.852 164.958 11.216 165.222 11.68C165.486 12.144 165.618 12.674 165.618 13.27V16.018C165.618 16.65 165.486 17.204 165.222 17.68C164.962 18.152 164.598 18.52 164.13 18.784C163.666 19.048 163.13 19.18 162.522 19.18C162.066 19.18 161.638 19.094 161.238 18.922C160.838 18.75 160.49 18.494 160.194 18.154L161.118 17.296C161.282 17.508 161.488 17.678 161.736 17.806C161.984 17.934 162.246 17.998 162.522 17.998C162.878 17.998 163.192 17.912 163.464 17.74C163.74 17.568 163.954 17.344 164.106 17.068C164.258 16.792 164.334 16.496 164.334 16.18V14.596L164.586 14.872C164.338 15.196 164.03 15.452 163.662 15.64C163.294 15.828 162.9 15.922 162.48 15.922C161.94 15.922 161.46 15.798 161.04 15.55C160.62 15.302 160.288 14.964 160.044 14.536C159.8 14.108 159.678 13.624 159.678 13.084C159.678 12.544 159.814 12.056 160.086 11.62C160.358 11.184 160.718 10.836 161.166 10.576C161.614 10.316 162.108 10.186 162.648 10.186ZM162.648 11.398C162.336 11.398 162.05 11.474 161.79 11.626C161.534 11.774 161.33 11.976 161.178 12.232C161.026 12.488 160.95 12.772 160.95 13.084C160.95 13.396 161.026 13.682 161.178 13.942C161.33 14.198 161.534 14.402 161.79 14.554C162.046 14.706 162.33 14.782 162.642 14.782C162.954 14.782 163.238 14.706 163.494 14.554C163.75 14.402 163.954 14.198 164.106 13.942C164.258 13.682 164.334 13.396 164.334 13.084C164.334 12.776 164.258 12.494 164.106 12.238C163.958 11.982 163.756 11.778 163.5 11.626C163.244 11.474 162.96 11.398 162.648 11.398ZM169.477 10.36H170.743L168.439 19H167.173L169.477 10.36ZM173.815 19V11.74L172.189 12.73V11.332L173.815 10.36H175.093V19H173.815ZM180.383 19.18C179.795 19.18 179.275 19.052 178.823 18.796C178.371 18.536 178.015 18.18 177.755 17.728C177.499 17.276 177.371 16.756 177.371 16.168V13.192C177.371 12.604 177.499 12.084 177.755 11.632C178.015 11.18 178.371 10.826 178.823 10.57C179.275 10.31 179.795 10.18 180.383 10.18C180.971 10.18 181.491 10.31 181.943 10.57C182.395 10.826 182.749 11.18 183.005 11.632C183.265 12.084 183.395 12.604 183.395 13.192V16.168C183.395 16.756 183.265 17.276 183.005 17.728C182.749 18.18 182.395 18.536 181.943 18.796C181.491 19.052 180.971 19.18 180.383 19.18ZM180.383 17.98C180.703 17.98 180.993 17.904 181.253 17.752C181.517 17.596 181.727 17.388 181.883 17.128C182.039 16.864 182.117 16.57 182.117 16.246V13.102C182.117 12.782 182.039 12.492 181.883 12.232C181.727 11.968 181.517 11.76 181.253 11.608C180.993 11.452 180.703 11.374 180.383 11.374C180.063 11.374 179.771 11.452 179.507 11.608C179.247 11.76 179.039 11.968 178.883 12.232C178.727 12.492 178.649 12.782 178.649 13.102V16.246C178.649 16.57 178.727 16.864 178.883 17.128C179.039 17.388 179.247 17.596 179.507 17.752C179.771 17.904 180.063 17.98 180.383 17.98Z" fill="#00BA70"/>
<path d="M152 1V27" stroke="#E2E2E2"/>
<rect x="200.5" y="0.5" width="188" height="27" rx="13.5" stroke="#E3E3E3"/>
<path d="M209.24 19L212.048 10.36H213.854L216.662 19H215.36L212.774 11.116H213.098L210.542 19H209.24ZM210.698 17.05V15.874H215.21V17.05H210.698ZM220.51 19.18C219.846 19.18 219.282 19.032 218.818 18.736C218.354 18.44 217.998 18.034 217.75 17.518C217.506 17.002 217.382 16.416 217.378 15.76C217.382 15.092 217.51 14.502 217.762 13.99C218.014 13.474 218.374 13.07 218.842 12.778C219.31 12.486 219.872 12.34 220.528 12.34C221.236 12.34 221.84 12.516 222.34 12.868C222.844 13.22 223.176 13.702 223.336 14.314L222.088 14.674C221.964 14.31 221.76 14.028 221.476 13.828C221.196 13.624 220.874 13.522 220.51 13.522C220.098 13.522 219.76 13.62 219.496 13.816C219.232 14.008 219.036 14.272 218.908 14.608C218.78 14.944 218.714 15.328 218.71 15.76C218.714 16.428 218.866 16.968 219.166 17.38C219.47 17.792 219.918 17.998 220.51 17.998C220.914 17.998 221.24 17.906 221.488 17.722C221.74 17.534 221.932 17.266 222.064 16.918L223.336 17.218C223.124 17.85 222.774 18.336 222.286 18.676C221.798 19.012 221.206 19.18 220.51 19.18ZM227.155 19.18C226.491 19.18 225.927 19.032 225.463 18.736C224.999 18.44 224.643 18.034 224.395 17.518C224.151 17.002 224.027 16.416 224.023 15.76C224.027 15.092 224.155 14.502 224.407 13.99C224.659 13.474 225.019 13.07 225.487 12.778C225.955 12.486 226.517 12.34 227.173 12.34C227.881 12.34 228.485 12.516 228.985 12.868C229.489 13.22 229.821 13.702 229.981 14.314L228.733 14.674C228.609 14.31 228.405 14.028 228.121 13.828C227.841 13.624 227.519 13.522 227.155 13.522C226.743 13.522 226.405 13.62 226.141 13.816C225.877 14.008 225.681 14.272 225.553 14.608C225.425 14.944 225.359 15.328 225.355 15.76C225.359 16.428 225.511 16.968 225.811 17.38C226.115 17.792 226.563 17.998 227.155 17.998C227.559 17.998 227.885 17.906 228.133 17.722C228.385 17.534 228.577 17.266 228.709 16.918L229.981 17.218C229.769 17.85 229.419 18.336 228.931 18.676C228.443 19.012 227.851 19.18 227.155 19.18ZM233.842 19.18C233.194 19.18 232.632 19.034 232.156 18.742C231.68 18.45 231.312 18.048 231.052 17.536C230.796 17.02 230.668 16.426 230.668 15.754C230.668 15.078 230.8 14.484 231.064 13.972C231.328 13.456 231.698 13.056 232.174 12.772C232.65 12.484 233.206 12.34 233.842 12.34C234.49 12.34 235.052 12.486 235.528 12.778C236.004 13.07 236.372 13.472 236.632 13.984C236.892 14.496 237.022 15.086 237.022 15.754C237.022 16.43 236.89 17.026 236.626 17.542C236.366 18.054 235.998 18.456 235.522 18.748C235.046 19.036 234.486 19.18 233.842 19.18ZM233.842 17.998C234.462 17.998 234.924 17.79 235.228 17.374C235.536 16.954 235.69 16.414 235.69 15.754C235.69 15.078 235.534 14.538 235.222 14.134C234.914 13.726 234.454 13.522 233.842 13.522C233.422 13.522 233.076 13.618 232.804 13.81C232.532 13.998 232.33 14.26 232.198 14.596C232.066 14.928 232 15.314 232 15.754C232 16.434 232.156 16.978 232.468 17.386C232.78 17.794 233.238 17.998 233.842 17.998ZM240.782 19.174C240.334 19.174 239.958 19.102 239.654 18.958C239.35 18.814 239.102 18.626 238.91 18.394C238.722 18.158 238.578 17.902 238.478 17.626C238.378 17.35 238.31 17.08 238.274 16.816C238.238 16.552 238.22 16.32 238.22 16.12V12.52H239.492V15.706C239.492 15.958 239.512 16.218 239.552 16.486C239.596 16.75 239.676 16.996 239.792 17.224C239.912 17.452 240.078 17.636 240.29 17.776C240.506 17.916 240.786 17.986 241.13 17.986C241.354 17.986 241.566 17.95 241.766 17.878C241.966 17.802 242.14 17.682 242.288 17.518C242.44 17.354 242.558 17.138 242.642 16.87C242.73 16.602 242.774 16.276 242.774 15.892L243.554 16.186C243.554 16.774 243.444 17.294 243.224 17.746C243.004 18.194 242.688 18.544 242.276 18.796C241.864 19.048 241.366 19.174 240.782 19.174ZM242.924 19V17.128H242.774V12.52H244.04V19H242.924ZM250.271 19V15.814C250.271 15.562 250.249 15.304 250.205 15.04C250.165 14.772 250.085 14.524 249.965 14.296C249.849 14.068 249.683 13.884 249.467 13.744C249.255 13.604 248.977 13.534 248.633 13.534C248.409 13.534 248.197 13.572 247.997 13.648C247.797 13.72 247.621 13.838 247.469 14.002C247.321 14.166 247.203 14.382 247.115 14.65C247.031 14.918 246.989 15.244 246.989 15.628L246.209 15.334C246.209 14.746 246.319 14.228 246.539 13.78C246.759 13.328 247.075 12.976 247.487 12.724C247.899 12.472 248.397 12.346 248.981 12.346C249.429 12.346 249.805 12.418 250.109 12.562C250.413 12.706 250.659 12.896 250.847 13.132C251.039 13.364 251.185 13.618 251.285 13.894C251.385 14.17 251.453 14.44 251.489 14.704C251.525 14.968 251.543 15.2 251.543 15.4V19H250.271ZM245.717 19V12.52H246.839V14.392H246.989V19H245.717ZM256.814 19C256.406 19.08 256.006 19.114 255.614 19.102C255.222 19.09 254.872 19.014 254.564 18.874C254.256 18.734 254.024 18.514 253.868 18.214C253.728 17.946 253.652 17.674 253.64 17.398C253.632 17.118 253.628 16.802 253.628 16.45V10.72H254.888V16.39C254.888 16.65 254.89 16.876 254.894 17.068C254.902 17.26 254.944 17.422 255.02 17.554C255.164 17.802 255.392 17.944 255.704 17.98C256.02 18.012 256.39 17.998 256.814 17.938V19ZM252.386 13.528V12.52H256.814V13.528H252.386ZM260.582 19V10.36H264.074C264.158 10.36 264.262 10.364 264.386 10.372C264.51 10.376 264.628 10.388 264.74 10.408C265.22 10.484 265.62 10.648 265.94 10.9C266.264 11.152 266.506 11.47 266.666 11.854C266.826 12.238 266.906 12.662 266.906 13.126C266.906 13.814 266.73 14.408 266.378 14.908C266.026 15.404 265.498 15.714 264.794 15.838L264.284 15.898H261.836V19H260.582ZM265.634 19L263.93 15.484L265.196 15.16L267.068 19H265.634ZM261.836 14.71H264.026C264.106 14.71 264.194 14.706 264.29 14.698C264.39 14.69 264.484 14.676 264.572 14.656C264.828 14.596 265.034 14.486 265.19 14.326C265.346 14.162 265.458 13.974 265.526 13.762C265.594 13.55 265.628 13.338 265.628 13.126C265.628 12.914 265.594 12.704 265.526 12.496C265.458 12.284 265.346 12.098 265.19 11.938C265.034 11.774 264.828 11.662 264.572 11.602C264.484 11.578 264.39 11.562 264.29 11.554C264.194 11.546 264.106 11.542 264.026 11.542H261.836V14.71ZM271.261 19.18C270.617 19.18 270.051 19.04 269.563 18.76C269.079 18.476 268.701 18.082 268.429 17.578C268.161 17.07 268.027 16.482 268.027 15.814C268.027 15.106 268.159 14.492 268.423 13.972C268.691 13.452 269.063 13.05 269.539 12.766C270.015 12.482 270.569 12.34 271.201 12.34C271.861 12.34 272.423 12.494 272.887 12.802C273.351 13.106 273.697 13.54 273.925 14.104C274.157 14.668 274.249 15.338 274.201 16.114H272.947V15.658C272.939 14.906 272.795 14.35 272.515 13.99C272.239 13.63 271.817 13.45 271.249 13.45C270.621 13.45 270.149 13.648 269.833 14.044C269.517 14.44 269.359 15.012 269.359 15.76C269.359 16.472 269.517 17.024 269.833 17.416C270.149 17.804 270.605 17.998 271.201 17.998C271.593 17.998 271.931 17.91 272.215 17.734C272.503 17.554 272.727 17.298 272.887 16.966L274.117 17.356C273.865 17.936 273.483 18.386 272.971 18.706C272.459 19.022 271.889 19.18 271.261 19.18ZM268.951 16.114V15.136H273.577V16.114H268.951ZM278.319 19.18C277.655 19.18 277.091 19.032 276.627 18.736C276.163 18.44 275.807 18.034 275.559 17.518C275.315 17.002 275.191 16.416 275.187 15.76C275.191 15.092 275.319 14.502 275.571 13.99C275.823 13.474 276.183 13.07 276.651 12.778C277.119 12.486 277.681 12.34 278.337 12.34C279.045 12.34 279.649 12.516 280.149 12.868C280.653 13.22 280.985 13.702 281.145 14.314L279.897 14.674C279.773 14.31 279.569 14.028 279.285 13.828C279.005 13.624 278.683 13.522 278.319 13.522C277.907 13.522 277.569 13.62 277.305 13.816C277.041 14.008 276.845 14.272 276.717 14.608C276.589 14.944 276.523 15.328 276.519 15.76C276.523 16.428 276.675 16.968 276.975 17.38C277.279 17.792 277.727 17.998 278.319 17.998C278.723 17.998 279.049 17.906 279.297 17.722C279.549 17.534 279.741 17.266 279.873 16.918L281.145 17.218C280.933 17.85 280.583 18.336 280.095 18.676C279.607 19.012 279.015 19.18 278.319 19.18ZM285.006 19.18C284.358 19.18 283.796 19.034 283.32 18.742C282.844 18.45 282.476 18.048 282.216 17.536C281.96 17.02 281.832 16.426 281.832 15.754C281.832 15.078 281.964 14.484 282.228 13.972C282.492 13.456 282.862 13.056 283.338 12.772C283.814 12.484 284.37 12.34 285.006 12.34C285.654 12.34 286.216 12.486 286.692 12.778C287.168 13.07 287.536 13.472 287.796 13.984C288.056 14.496 288.186 15.086 288.186 15.754C288.186 16.43 288.054 17.026 287.79 17.542C287.53 18.054 287.162 18.456 286.686 18.748C286.21 19.036 285.65 19.18 285.006 19.18ZM285.006 17.998C285.626 17.998 286.088 17.79 286.392 17.374C286.7 16.954 286.854 16.414 286.854 15.754C286.854 15.078 286.698 14.538 286.386 14.134C286.078 13.726 285.618 13.522 285.006 13.522C284.586 13.522 284.24 13.618 283.968 13.81C283.696 13.998 283.494 14.26 283.362 14.596C283.23 14.928 283.164 15.314 283.164 15.754C283.164 16.434 283.32 16.978 283.632 17.386C283.944 17.794 284.402 17.998 285.006 17.998ZM294.052 19V15.814C294.052 15.562 294.03 15.304 293.986 15.04C293.946 14.772 293.866 14.524 293.746 14.296C293.63 14.068 293.464 13.884 293.248 13.744C293.036 13.604 292.758 13.534 292.414 13.534C292.19 13.534 291.978 13.572 291.778 13.648C291.578 13.72 291.402 13.838 291.25 14.002C291.102 14.166 290.984 14.382 290.896 14.65C290.812 14.918 290.77 15.244 290.77 15.628L289.99 15.334C289.99 14.746 290.1 14.228 290.32 13.78C290.54 13.328 290.856 12.976 291.268 12.724C291.68 12.472 292.178 12.346 292.762 12.346C293.21 12.346 293.586 12.418 293.89 12.562C294.194 12.706 294.44 12.896 294.628 13.132C294.82 13.364 294.966 13.618 295.066 13.894C295.166 14.17 295.234 14.44 295.27 14.704C295.306 14.968 295.324 15.2 295.324 15.4V19H294.052ZM289.498 19V12.52H290.62V14.392H290.77V19H289.498ZM299.577 19.18C298.913 19.18 298.349 19.032 297.885 18.736C297.421 18.44 297.065 18.034 296.817 17.518C296.573 17.002 296.449 16.416 296.445 15.76C296.449 15.092 296.577 14.502 296.829 13.99C297.081 13.474 297.441 13.07 297.909 12.778C298.377 12.486 298.939 12.34 299.595 12.34C300.303 12.34 300.907 12.516 301.407 12.868C301.911 13.22 302.243 13.702 302.403 14.314L301.155 14.674C301.031 14.31 300.827 14.028 300.543 13.828C300.263 13.624 299.941 13.522 299.577 13.522C299.165 13.522 298.827 13.62 298.563 13.816C298.299 14.008 298.103 14.272 297.975 14.608C297.847 14.944 297.781 15.328 297.777 15.76C297.781 16.428 297.933 16.968 298.233 17.38C298.537 17.792 298.985 17.998 299.577 17.998C299.981 17.998 300.307 17.906 300.555 17.722C300.807 17.534 300.999 17.266 301.131 16.918L302.403 17.218C302.191 17.85 301.841 18.336 301.353 18.676C300.865 19.012 300.273 19.18 299.577 19.18ZM303.569 11.458V10.24H304.823V11.458H303.569ZM303.569 19V12.52H304.823V19H303.569ZM306.745 19V10.18H307.999V19H306.745ZM309.921 11.458V10.24H311.175V11.458H309.921ZM309.921 19V12.52H311.175V19H309.921ZM314.807 19.18C314.327 19.18 313.925 19.092 313.601 18.916C313.277 18.736 313.031 18.5 312.863 18.208C312.699 17.912 312.617 17.588 312.617 17.236C312.617 16.908 312.675 16.62 312.791 16.372C312.907 16.124 313.079 15.914 313.307 15.742C313.535 15.566 313.815 15.424 314.147 15.316C314.435 15.232 314.761 15.158 315.125 15.094C315.489 15.03 315.871 14.97 316.271 14.914C316.675 14.858 317.075 14.802 317.471 14.746L317.015 14.998C317.023 14.49 316.915 14.114 316.691 13.87C316.471 13.622 316.091 13.498 315.551 13.498C315.211 13.498 314.899 13.578 314.615 13.738C314.331 13.894 314.133 14.154 314.021 14.518L312.851 14.158C313.011 13.602 313.315 13.16 313.763 12.832C314.215 12.504 314.815 12.34 315.563 12.34C316.143 12.34 316.647 12.44 317.075 12.64C317.507 12.836 317.823 13.148 318.023 13.576C318.127 13.788 318.191 14.012 318.215 14.248C318.239 14.484 318.251 14.738 318.251 15.01V19H317.141V17.518L317.357 17.71C317.089 18.206 316.747 18.576 316.331 18.82C315.919 19.06 315.411 19.18 314.807 19.18ZM315.029 18.154C315.385 18.154 315.691 18.092 315.947 17.968C316.203 17.84 316.409 17.678 316.565 17.482C316.721 17.286 316.823 17.082 316.871 16.87C316.939 16.678 316.977 16.462 316.985 16.222C316.997 15.982 317.003 15.79 317.003 15.646L317.411 15.796C317.015 15.856 316.655 15.91 316.331 15.958C316.007 16.006 315.713 16.054 315.449 16.102C315.189 16.146 314.957 16.2 314.753 16.264C314.581 16.324 314.427 16.396 314.291 16.48C314.159 16.564 314.053 16.666 313.973 16.786C313.897 16.906 313.859 17.052 313.859 17.224C313.859 17.392 313.901 17.548 313.985 17.692C314.069 17.832 314.197 17.944 314.369 18.028C314.541 18.112 314.761 18.154 315.029 18.154ZM323.517 19C323.109 19.08 322.709 19.114 322.317 19.102C321.925 19.09 321.575 19.014 321.267 18.874C320.959 18.734 320.727 18.514 320.571 18.214C320.431 17.946 320.355 17.674 320.343 17.398C320.335 17.118 320.331 16.802 320.331 16.45V10.72H321.591V16.39C321.591 16.65 321.593 16.876 321.597 17.068C321.605 17.26 321.647 17.422 321.723 17.554C321.867 17.802 322.095 17.944 322.407 17.98C322.723 18.012 323.093 17.998 323.517 17.938V19ZM319.089 13.528V12.52H323.517V13.528H319.089ZM325.003 11.458V10.24H326.257V11.458H325.003ZM325.003 19V12.52H326.257V19H325.003ZM330.873 19.18C330.225 19.18 329.663 19.034 329.187 18.742C328.711 18.45 328.343 18.048 328.083 17.536C327.827 17.02 327.699 16.426 327.699 15.754C327.699 15.078 327.831 14.484 328.095 13.972C328.359 13.456 328.729 13.056 329.205 12.772C329.681 12.484 330.237 12.34 330.873 12.34C331.521 12.34 332.083 12.486 332.559 12.778C333.035 13.07 333.403 13.472 333.663 13.984C333.923 14.496 334.053 15.086 334.053 15.754C334.053 16.43 333.921 17.026 333.657 17.542C333.397 18.054 333.029 18.456 332.553 18.748C332.077 19.036 331.517 19.18 330.873 19.18ZM330.873 17.998C331.493 17.998 331.955 17.79 332.259 17.374C332.567 16.954 332.721 16.414 332.721 15.754C332.721 15.078 332.565 14.538 332.253 14.134C331.945 13.726 331.485 13.522 330.873 13.522C330.453 13.522 330.107 13.618 329.835 13.81C329.563 13.998 329.361 14.26 329.229 14.596C329.097 14.928 329.031 15.314 329.031 15.754C329.031 16.434 329.187 16.978 329.499 17.386C329.811 17.794 330.269 17.998 330.873 17.998ZM339.919 19V15.814C339.919 15.562 339.897 15.304 339.853 15.04C339.813 14.772 339.733 14.524 339.613 14.296C339.497 14.068 339.331 13.884 339.115 13.744C338.903 13.604 338.625 13.534 338.281 13.534C338.057 13.534 337.845 13.572 337.645 13.648C337.445 13.72 337.269 13.838 337.117 14.002C336.969 14.166 336.851 14.382 336.763 14.65C336.679 14.918 336.637 15.244 336.637 15.628L335.857 15.334C335.857 14.746 335.967 14.228 336.187 13.78C336.407 13.328 336.723 12.976 337.135 12.724C337.547 12.472 338.045 12.346 338.629 12.346C339.077 12.346 339.453 12.418 339.757 12.562C340.061 12.706 340.307 12.896 340.495 13.132C340.687 13.364 340.833 13.618 340.933 13.894C341.033 14.17 341.101 14.44 341.137 14.704C341.173 14.968 341.191 15.2 341.191 15.4V19H339.919ZM335.365 19V12.52H336.487V14.392H336.637V19H335.365Z" fill="#171717"/>
<rect x="0.5" y="35.5" width="162" height="27" rx="13.5" stroke="#E3E3E3"/>
<path d="M16.614 54.174L14.202 51.774L15.006 50.97L17.406 53.37L16.614 54.174ZM13.446 54.18C12.582 54.18 11.846 53.992 11.238 53.616C10.63 53.236 10.164 52.708 9.84 52.032C9.52 51.356 9.36 50.572 9.36 49.68C9.36 48.788 9.52 48.004 9.84 47.328C10.164 46.652 10.63 46.126 11.238 45.75C11.846 45.37 12.582 45.18 13.446 45.18C14.306 45.18 15.04 45.37 15.648 45.75C16.26 46.126 16.726 46.652 17.046 47.328C17.366 48.004 17.526 48.788 17.526 49.68C17.526 50.572 17.366 51.356 17.046 52.032C16.726 52.708 16.26 53.236 15.648 53.616C15.04 53.992 14.306 54.18 13.446 54.18ZM13.446 52.986C14.058 52.994 14.566 52.86 14.97 52.584C15.378 52.304 15.684 51.916 15.888 51.42C16.092 50.92 16.194 50.34 16.194 49.68C16.194 49.02 16.092 48.444 15.888 47.952C15.684 47.456 15.378 47.07 14.97 46.794C14.566 46.518 14.058 46.378 13.446 46.374C12.834 46.366 12.324 46.5 11.916 46.776C11.512 47.052 11.208 47.44 11.004 47.94C10.8 48.44 10.696 49.02 10.692 49.68C10.688 50.34 10.788 50.918 10.992 51.414C11.196 51.906 11.502 52.29 11.91 52.566C12.322 52.842 12.834 52.982 13.446 52.986ZM21.1648 54.174C20.7168 54.174 20.3408 54.102 20.0368 53.958C19.7328 53.814 19.4848 53.626 19.2928 53.394C19.1048 53.158 18.9608 52.902 18.8608 52.626C18.7608 52.35 18.6928 52.08 18.6568 51.816C18.6208 51.552 18.6028 51.32 18.6028 51.12V47.52H19.8748V50.706C19.8748 50.958 19.8948 51.218 19.9348 51.486C19.9788 51.75 20.0588 51.996 20.1748 52.224C20.2948 52.452 20.4608 52.636 20.6728 52.776C20.8888 52.916 21.1688 52.986 21.5128 52.986C21.7368 52.986 21.9488 52.95 22.1488 52.878C22.3488 52.802 22.5228 52.682 22.6708 52.518C22.8228 52.354 22.9408 52.138 23.0248 51.87C23.1128 51.602 23.1568 51.276 23.1568 50.892L23.9368 51.186C23.9368 51.774 23.8268 52.294 23.6068 52.746C23.3868 53.194 23.0708 53.544 22.6588 53.796C22.2468 54.048 21.7488 54.174 21.1648 54.174ZM23.3068 54V52.128H23.1568V47.52H24.4228V54H23.3068ZM26.2256 46.458V45.24H27.4796V46.458H26.2256ZM26.2256 54V47.52H27.4796V54H26.2256ZM32.0534 54.18C31.3894 54.18 30.8254 54.032 30.3614 53.736C29.8974 53.44 29.5414 53.034 29.2934 52.518C29.0494 52.002 28.9254 51.416 28.9214 50.76C28.9254 50.092 29.0534 49.502 29.3054 48.99C29.5574 48.474 29.9174 48.07 30.3854 47.778C30.8534 47.486 31.4154 47.34 32.0714 47.34C32.7794 47.34 33.3834 47.516 33.8834 47.868C34.3874 48.22 34.7194 48.702 34.8794 49.314L33.6314 49.674C33.5074 49.31 33.3034 49.028 33.0194 48.828C32.7394 48.624 32.4174 48.522 32.0534 48.522C31.6414 48.522 31.3034 48.62 31.0394 48.816C30.7754 49.008 30.5794 49.272 30.4514 49.608C30.3234 49.944 30.2574 50.328 30.2534 50.76C30.2574 51.428 30.4094 51.968 30.7094 52.38C31.0134 52.792 31.4614 52.998 32.0534 52.998C32.4574 52.998 32.7834 52.906 33.0314 52.722C33.2834 52.534 33.4754 52.266 33.6074 51.918L34.8794 52.218C34.6674 52.85 34.3174 53.336 33.8294 53.676C33.3414 54.012 32.7494 54.18 32.0534 54.18ZM36.0957 54L36.1017 45.36H37.3737V50.64L39.9177 47.52H41.5137L38.8257 50.76L41.7897 54H40.0857L37.3737 50.88V54H36.0957ZM45.4367 54.18C44.8167 54.18 44.2967 54.03 43.8767 53.73C43.4567 53.426 43.1387 53.016 42.9227 52.5C42.7067 51.984 42.5987 51.402 42.5987 50.754C42.5987 50.106 42.7047 49.524 42.9167 49.008C43.1327 48.492 43.4487 48.086 43.8647 47.79C44.2847 47.49 44.8007 47.34 45.4127 47.34C46.0207 47.34 46.5447 47.49 46.9847 47.79C47.4287 48.086 47.7707 48.492 48.0107 49.008C48.2507 49.52 48.3707 50.102 48.3707 50.754C48.3707 51.402 48.2507 51.986 48.0107 52.506C47.7747 53.022 47.4367 53.43 46.9967 53.73C46.5607 54.03 46.0407 54.18 45.4367 54.18ZM42.3887 54V45.36H43.6487V49.338H43.5047V54H42.3887ZM45.2627 53.046C45.6627 53.046 45.9927 52.944 46.2527 52.74C46.5167 52.536 46.7127 52.262 46.8407 51.918C46.9727 51.57 47.0387 51.182 47.0387 50.754C47.0387 50.33 46.9727 49.946 46.8407 49.602C46.7127 49.258 46.5147 48.984 46.2467 48.78C45.9787 48.576 45.6367 48.474 45.2207 48.474C44.8287 48.474 44.5047 48.57 44.2487 48.762C43.9967 48.954 43.8087 49.222 43.6847 49.566C43.5647 49.91 43.5047 50.306 43.5047 50.754C43.5047 51.202 43.5647 51.598 43.6847 51.942C43.8047 52.286 43.9947 52.556 44.2547 52.752C44.5147 52.948 44.8507 53.046 45.2627 53.046ZM52.5095 54.18C51.8615 54.18 51.2995 54.034 50.8235 53.742C50.3475 53.45 49.9795 53.048 49.7195 52.536C49.4635 52.02 49.3355 51.426 49.3355 50.754C49.3355 50.078 49.4675 49.484 49.7315 48.972C49.9955 48.456 50.3655 48.056 50.8415 47.772C51.3175 47.484 51.8735 47.34 52.5095 47.34C53.1575 47.34 53.7195 47.486 54.1955 47.778C54.6715 48.07 55.0395 48.472 55.2995 48.984C55.5595 49.496 55.6895 50.086 55.6895 50.754C55.6895 51.43 55.5575 52.026 55.2935 52.542C55.0335 53.054 54.6655 53.456 54.1895 53.748C53.7135 54.036 53.1535 54.18 52.5095 54.18ZM52.5095 52.998C53.1295 52.998 53.5915 52.79 53.8955 52.374C54.2035 51.954 54.3575 51.414 54.3575 50.754C54.3575 50.078 54.2015 49.538 53.8895 49.134C53.5815 48.726 53.1215 48.522 52.5095 48.522C52.0895 48.522 51.7435 48.618 51.4715 48.81C51.1995 48.998 50.9975 49.26 50.8655 49.596C50.7335 49.928 50.6675 50.314 50.6675 50.754C50.6675 51.434 50.8235 51.978 51.1355 52.386C51.4475 52.794 51.9055 52.998 52.5095 52.998ZM59.822 54.18C59.174 54.18 58.612 54.034 58.136 53.742C57.66 53.45 57.292 53.048 57.032 52.536C56.776 52.02 56.648 51.426 56.648 50.754C56.648 50.078 56.78 49.484 57.044 48.972C57.308 48.456 57.678 48.056 58.154 47.772C58.63 47.484 59.186 47.34 59.822 47.34C60.47 47.34 61.032 47.486 61.508 47.778C61.984 48.07 62.352 48.472 62.612 48.984C62.872 49.496 63.002 50.086 63.002 50.754C63.002 51.43 62.87 52.026 62.606 52.542C62.346 53.054 61.978 53.456 61.502 53.748C61.026 54.036 60.466 54.18 59.822 54.18ZM59.822 52.998C60.442 52.998 60.904 52.79 61.208 52.374C61.516 51.954 61.67 51.414 61.67 50.754C61.67 50.078 61.514 49.538 61.202 49.134C60.894 48.726 60.434 48.522 59.822 48.522C59.402 48.522 59.056 48.618 58.784 48.81C58.512 48.998 58.31 49.26 58.178 49.596C58.046 49.928 57.98 50.314 57.98 50.754C57.98 51.434 58.136 51.978 58.448 52.386C58.76 52.794 59.218 52.998 59.822 52.998ZM64.3145 54L64.3205 45.36H65.5925V50.64L68.1365 47.52H69.7325L67.0445 50.76L70.0085 54H68.3045L65.5925 50.88V54H64.3145ZM72.9743 54.174C72.1863 54.174 71.5443 54 71.0483 53.652C70.5523 53.304 70.2483 52.814 70.1363 52.182L71.4202 51.984C71.5003 52.32 71.6843 52.586 71.9723 52.782C72.2643 52.974 72.6263 53.07 73.0583 53.07C73.4503 53.07 73.7563 52.99 73.9763 52.83C74.2003 52.67 74.3123 52.45 74.3123 52.17C74.3123 52.006 74.2723 51.874 74.1923 51.774C74.1163 51.67 73.9543 51.572 73.7063 51.48C73.4583 51.388 73.0803 51.274 72.5723 51.138C72.0163 50.994 71.5743 50.84 71.2463 50.676C70.9223 50.508 70.6903 50.314 70.5503 50.094C70.4143 49.87 70.3463 49.6 70.3463 49.284C70.3463 48.892 70.4503 48.55 70.6583 48.258C70.8663 47.966 71.1583 47.74 71.5343 47.58C71.9143 47.42 72.3583 47.34 72.8663 47.34C73.3623 47.34 73.8043 47.418 74.1923 47.574C74.5803 47.73 74.8943 47.952 75.1343 48.24C75.3743 48.524 75.5183 48.858 75.5663 49.242L74.2823 49.476C74.2383 49.164 74.0923 48.918 73.8443 48.738C73.5963 48.558 73.2743 48.46 72.8783 48.444C72.4983 48.428 72.1903 48.492 71.9543 48.636C71.7183 48.776 71.6003 48.97 71.6003 49.218C71.6003 49.362 71.6443 49.484 71.7323 49.584C71.8243 49.684 72.0003 49.78 72.2603 49.872C72.5203 49.964 72.9043 50.074 73.4123 50.202C73.9563 50.342 74.3883 50.498 74.7083 50.67C75.0283 50.838 75.2563 51.04 75.3923 51.276C75.5323 51.508 75.6023 51.79 75.6023 52.122C75.6023 52.762 75.3683 53.264 74.9003 53.628C74.4363 53.992 73.7943 54.174 72.9743 54.174ZM82.9382 54.18C82.0742 54.18 81.3382 53.992 80.7302 53.616C80.1222 53.236 79.6562 52.708 79.3322 52.032C79.0122 51.356 78.8522 50.572 78.8522 49.68C78.8522 48.788 79.0122 48.004 79.3322 47.328C79.6562 46.652 80.1222 46.126 80.7302 45.75C81.3382 45.37 82.0742 45.18 82.9382 45.18C83.7982 45.18 84.5322 45.37 85.1402 45.75C85.7522 46.126 86.2182 46.652 86.5382 47.328C86.8582 48.004 87.0182 48.788 87.0182 49.68C87.0182 50.572 86.8582 51.356 86.5382 52.032C86.2182 52.708 85.7522 53.236 85.1402 53.616C84.5322 53.992 83.7982 54.18 82.9382 54.18ZM82.9382 52.986C83.5502 52.994 84.0582 52.86 84.4622 52.584C84.8702 52.304 85.1762 51.916 85.3802 51.42C85.5842 50.92 85.6862 50.34 85.6862 49.68C85.6862 49.02 85.5842 48.444 85.3802 47.952C85.1762 47.456 84.8702 47.07 84.4622 46.794C84.0582 46.518 83.5502 46.378 82.9382 46.374C82.3262 46.366 81.8162 46.5 81.4082 46.776C81.0042 47.052 80.7002 47.44 80.4962 47.94C80.2922 48.44 80.1882 49.02 80.1842 49.68C80.1802 50.34 80.2802 50.918 80.4842 51.414C80.6882 51.906 80.9942 52.29 81.4022 52.566C81.8142 52.842 82.3262 52.982 82.9382 52.986ZM92.763 54V50.814C92.763 50.562 92.741 50.304 92.697 50.04C92.657 49.772 92.577 49.524 92.457 49.296C92.341 49.068 92.175 48.884 91.959 48.744C91.747 48.604 91.469 48.534 91.125 48.534C90.901 48.534 90.689 48.572 90.489 48.648C90.289 48.72 90.113 48.838 89.961 49.002C89.813 49.166 89.695 49.382 89.607 49.65C89.523 49.918 89.481 50.244 89.481 50.628L88.701 50.334C88.701 49.746 88.811 49.228 89.031 48.78C89.251 48.328 89.567 47.976 89.979 47.724C90.391 47.472 90.889 47.346 91.473 47.346C91.921 47.346 92.297 47.418 92.601 47.562C92.905 47.706 93.151 47.896 93.339 48.132C93.531 48.364 93.677 48.618 93.777 48.894C93.877 49.17 93.945 49.44 93.981 49.704C94.017 49.968 94.035 50.2 94.035 50.4V54H92.763ZM88.209 54V47.52H89.331V49.392H89.481V54H88.209ZM95.7178 54V45.18H96.9718V54H95.7178ZM98.8936 46.458V45.24H100.148V46.458H98.8936ZM98.8936 54V47.52H100.148V54H98.8936ZM106.497 54V50.814C106.497 50.562 106.475 50.304 106.431 50.04C106.391 49.772 106.311 49.524 106.191 49.296C106.075 49.068 105.909 48.884 105.693 48.744C105.481 48.604 105.203 48.534 104.859 48.534C104.635 48.534 104.423 48.572 104.223 48.648C104.023 48.72 103.847 48.838 103.695 49.002C103.547 49.166 103.429 49.382 103.341 49.65C103.257 49.918 103.215 50.244 103.215 50.628L102.435 50.334C102.435 49.746 102.545 49.228 102.765 48.78C102.985 48.328 103.301 47.976 103.713 47.724C104.125 47.472 104.623 47.346 105.207 47.346C105.655 47.346 106.031 47.418 106.335 47.562C106.639 47.706 106.885 47.896 107.073 48.132C107.265 48.364 107.411 48.618 107.511 48.894C107.611 49.17 107.679 49.44 107.715 49.704C107.751 49.968 107.769 50.2 107.769 50.4V54H106.497ZM101.943 54V47.52H103.065V49.392H103.215V54H101.943ZM112.124 54.18C111.48 54.18 110.914 54.04 110.426 53.76C109.942 53.476 109.564 53.082 109.292 52.578C109.024 52.07 108.89 51.482 108.89 50.814C108.89 50.106 109.022 49.492 109.286 48.972C109.554 48.452 109.926 48.05 110.402 47.766C110.878 47.482 111.432 47.34 112.064 47.34C112.724 47.34 113.286 47.494 113.75 47.802C114.214 48.106 114.56 48.54 114.788 49.104C115.02 49.668 115.112 50.338 115.064 51.114H113.81V50.658C113.802 49.906 113.658 49.35 113.378 48.99C113.102 48.63 112.68 48.45 112.112 48.45C111.484 48.45 111.012 48.648 110.696 49.044C110.38 49.44 110.222 50.012 110.222 50.76C110.222 51.472 110.38 52.024 110.696 52.416C111.012 52.804 111.468 52.998 112.064 52.998C112.456 52.998 112.794 52.91 113.078 52.734C113.366 52.554 113.59 52.298 113.75 51.966L114.98 52.356C114.728 52.936 114.346 53.386 113.834 53.706C113.322 54.022 112.752 54.18 112.124 54.18ZM109.814 51.114V50.136H114.44V51.114H109.814Z" fill="#171717"/>
<path d="M122 36H149C156.18 36 162 41.8203 162 49C162 56.1797 156.18 62 149 62H122V36Z" fill="#E4FFF4"/>
<path d="M132.606 54.18C132.042 54.18 131.542 54.068 131.106 53.844C130.674 53.616 130.334 53.3 130.086 52.896C129.842 52.492 129.72 52.024 129.72 51.492C129.72 50.996 129.836 50.542 130.068 50.13C130.3 49.718 130.646 49.394 131.106 49.158L131.082 49.59C130.714 49.362 130.43 49.078 130.23 48.738C130.034 48.394 129.936 48.01 129.936 47.586C129.936 47.094 130.05 46.668 130.278 46.308C130.506 45.948 130.82 45.67 131.22 45.474C131.624 45.278 132.086 45.18 132.606 45.18C133.126 45.18 133.586 45.278 133.986 45.474C134.386 45.67 134.7 45.948 134.928 46.308C135.156 46.668 135.27 47.094 135.27 47.586C135.27 48.01 135.176 48.392 134.988 48.732C134.8 49.072 134.512 49.358 134.124 49.59L134.106 49.17C134.562 49.394 134.908 49.714 135.144 50.13C135.38 50.542 135.498 50.996 135.498 51.492C135.498 52.024 135.374 52.492 135.126 52.896C134.878 53.3 134.536 53.616 134.1 53.844C133.664 54.068 133.166 54.18 132.606 54.18ZM132.606 52.986C133.07 52.986 133.446 52.86 133.734 52.608C134.022 52.352 134.166 51.98 134.166 51.492C134.166 51.004 134.022 50.632 133.734 50.376C133.45 50.116 133.074 49.986 132.606 49.986C132.138 49.986 131.76 50.116 131.472 50.376C131.188 50.632 131.046 51.004 131.046 51.492C131.046 51.98 131.19 52.352 131.478 52.608C131.766 52.86 132.142 52.986 132.606 52.986ZM132.606 48.786C133.002 48.786 133.322 48.688 133.566 48.492C133.814 48.292 133.938 47.99 133.938 47.586C133.938 47.182 133.814 46.88 133.566 46.68C133.322 46.476 133.002 46.374 132.606 46.374C132.21 46.374 131.888 46.476 131.64 46.68C131.392 46.88 131.268 47.182 131.268 47.586C131.268 47.99 131.392 48.292 131.64 48.492C131.888 48.688 132.21 48.786 132.606 48.786ZM139.243 45.36H140.509L138.205 54H136.939L139.243 45.36ZM143.58 54V46.74L141.954 47.73V46.332L143.58 45.36H144.858V54H143.58ZM150.149 54.18C149.561 54.18 149.041 54.052 148.589 53.796C148.137 53.536 147.781 53.18 147.521 52.728C147.265 52.276 147.137 51.756 147.137 51.168V48.192C147.137 47.604 147.265 47.084 147.521 46.632C147.781 46.18 148.137 45.826 148.589 45.57C149.041 45.31 149.561 45.18 150.149 45.18C150.737 45.18 151.257 45.31 151.709 45.57C152.161 45.826 152.515 46.18 152.771 46.632C153.031 47.084 153.161 47.604 153.161 48.192V51.168C153.161 51.756 153.031 52.276 152.771 52.728C152.515 53.18 152.161 53.536 151.709 53.796C151.257 54.052 150.737 54.18 150.149 54.18ZM150.149 52.98C150.469 52.98 150.759 52.904 151.019 52.752C151.283 52.596 151.493 52.388 151.649 52.128C151.805 51.864 151.883 51.57 151.883 51.246V48.102C151.883 47.782 151.805 47.492 151.649 47.232C151.493 46.968 151.283 46.76 151.019 46.608C150.759 46.452 150.469 46.374 150.149 46.374C149.829 46.374 149.537 46.452 149.273 46.608C149.013 46.76 148.805 46.968 148.649 47.232C148.493 47.492 148.415 47.782 148.415 48.102V51.246C148.415 51.57 148.493 51.864 148.649 52.128C148.805 52.388 149.013 52.596 149.273 52.752C149.537 52.904 149.829 52.98 150.149 52.98Z" fill="#00BA70"/>
<path d="M122 36V62" stroke="#E2E2E2"/>
<rect x="170.5" y="35.5" width="122" height="27" rx="13.5" stroke="#E3E3E3"/>
<path d="M179.24 54L182.048 45.36H183.854L186.662 54H185.36L182.774 46.116H183.098L180.542 54H179.24ZM180.698 52.05V50.874H185.21V52.05H180.698ZM190.51 54.18C189.846 54.18 189.282 54.032 188.818 53.736C188.354 53.44 187.998 53.034 187.75 52.518C187.506 52.002 187.382 51.416 187.378 50.76C187.382 50.092 187.51 49.502 187.762 48.99C188.014 48.474 188.374 48.07 188.842 47.778C189.31 47.486 189.872 47.34 190.528 47.34C191.236 47.34 191.84 47.516 192.34 47.868C192.844 48.22 193.176 48.702 193.336 49.314L192.088 49.674C191.964 49.31 191.76 49.028 191.476 48.828C191.196 48.624 190.874 48.522 190.51 48.522C190.098 48.522 189.76 48.62 189.496 48.816C189.232 49.008 189.036 49.272 188.908 49.608C188.78 49.944 188.714 50.328 188.71 50.76C188.714 51.428 188.866 51.968 189.166 52.38C189.47 52.792 189.918 52.998 190.51 52.998C190.914 52.998 191.24 52.906 191.488 52.722C191.74 52.534 191.932 52.266 192.064 51.918L193.336 52.218C193.124 52.85 192.774 53.336 192.286 53.676C191.798 54.012 191.206 54.18 190.51 54.18ZM197.155 54.18C196.491 54.18 195.927 54.032 195.463 53.736C194.999 53.44 194.643 53.034 194.395 52.518C194.151 52.002 194.027 51.416 194.023 50.76C194.027 50.092 194.155 49.502 194.407 48.99C194.659 48.474 195.019 48.07 195.487 47.778C195.955 47.486 196.517 47.34 197.173 47.34C197.881 47.34 198.485 47.516 198.985 47.868C199.489 48.22 199.821 48.702 199.981 49.314L198.733 49.674C198.609 49.31 198.405 49.028 198.121 48.828C197.841 48.624 197.519 48.522 197.155 48.522C196.743 48.522 196.405 48.62 196.141 48.816C195.877 49.008 195.681 49.272 195.553 49.608C195.425 49.944 195.359 50.328 195.355 50.76C195.359 51.428 195.511 51.968 195.811 52.38C196.115 52.792 196.563 52.998 197.155 52.998C197.559 52.998 197.885 52.906 198.133 52.722C198.385 52.534 198.577 52.266 198.709 51.918L199.981 52.218C199.769 52.85 199.419 53.336 198.931 53.676C198.443 54.012 197.851 54.18 197.155 54.18ZM203.842 54.18C203.194 54.18 202.632 54.034 202.156 53.742C201.68 53.45 201.312 53.048 201.052 52.536C200.796 52.02 200.668 51.426 200.668 50.754C200.668 50.078 200.8 49.484 201.064 48.972C201.328 48.456 201.698 48.056 202.174 47.772C202.65 47.484 203.206 47.34 203.842 47.34C204.49 47.34 205.052 47.486 205.528 47.778C206.004 48.07 206.372 48.472 206.632 48.984C206.892 49.496 207.022 50.086 207.022 50.754C207.022 51.43 206.89 52.026 206.626 52.542C206.366 53.054 205.998 53.456 205.522 53.748C205.046 54.036 204.486 54.18 203.842 54.18ZM203.842 52.998C204.462 52.998 204.924 52.79 205.228 52.374C205.536 51.954 205.69 51.414 205.69 50.754C205.69 50.078 205.534 49.538 205.222 49.134C204.914 48.726 204.454 48.522 203.842 48.522C203.422 48.522 203.076 48.618 202.804 48.81C202.532 48.998 202.33 49.26 202.198 49.596C202.066 49.928 202 50.314 202 50.754C202 51.434 202.156 51.978 202.468 52.386C202.78 52.794 203.238 52.998 203.842 52.998ZM210.782 54.174C210.334 54.174 209.958 54.102 209.654 53.958C209.35 53.814 209.102 53.626 208.91 53.394C208.722 53.158 208.578 52.902 208.478 52.626C208.378 52.35 208.31 52.08 208.274 51.816C208.238 51.552 208.22 51.32 208.22 51.12V47.52H209.492V50.706C209.492 50.958 209.512 51.218 209.552 51.486C209.596 51.75 209.676 51.996 209.792 52.224C209.912 52.452 210.078 52.636 210.29 52.776C210.506 52.916 210.786 52.986 211.13 52.986C211.354 52.986 211.566 52.95 211.766 52.878C211.966 52.802 212.14 52.682 212.288 52.518C212.44 52.354 212.558 52.138 212.642 51.87C212.73 51.602 212.774 51.276 212.774 50.892L213.554 51.186C213.554 51.774 213.444 52.294 213.224 52.746C213.004 53.194 212.688 53.544 212.276 53.796C211.864 54.048 211.366 54.174 210.782 54.174ZM212.924 54V52.128H212.774V47.52H214.04V54H212.924ZM220.271 54V50.814C220.271 50.562 220.249 50.304 220.205 50.04C220.165 49.772 220.085 49.524 219.965 49.296C219.849 49.068 219.683 48.884 219.467 48.744C219.255 48.604 218.977 48.534 218.633 48.534C218.409 48.534 218.197 48.572 217.997 48.648C217.797 48.72 217.621 48.838 217.469 49.002C217.321 49.166 217.203 49.382 217.115 49.65C217.031 49.918 216.989 50.244 216.989 50.628L216.209 50.334C216.209 49.746 216.319 49.228 216.539 48.78C216.759 48.328 217.075 47.976 217.487 47.724C217.899 47.472 218.397 47.346 218.981 47.346C219.429 47.346 219.805 47.418 220.109 47.562C220.413 47.706 220.659 47.896 220.847 48.132C221.039 48.364 221.185 48.618 221.285 48.894C221.385 49.17 221.453 49.44 221.489 49.704C221.525 49.968 221.543 50.2 221.543 50.4V54H220.271ZM215.717 54V47.52H216.839V49.392H216.989V54H215.717ZM226.814 54C226.406 54.08 226.006 54.114 225.614 54.102C225.222 54.09 224.872 54.014 224.564 53.874C224.256 53.734 224.024 53.514 223.868 53.214C223.728 52.946 223.652 52.674 223.64 52.398C223.632 52.118 223.628 51.802 223.628 51.45V45.72H224.888V51.39C224.888 51.65 224.89 51.876 224.894 52.068C224.902 52.26 224.944 52.422 225.02 52.554C225.164 52.802 225.392 52.944 225.704 52.98C226.02 53.012 226.39 52.998 226.814 52.938V54ZM222.386 48.528V47.52H226.814V48.528H222.386ZM228.3 46.458V45.24H229.554V46.458H228.3ZM228.3 54V47.52H229.554V54H228.3ZM235.904 54V50.814C235.904 50.562 235.882 50.304 235.838 50.04C235.798 49.772 235.718 49.524 235.598 49.296C235.482 49.068 235.316 48.884 235.1 48.744C234.888 48.604 234.61 48.534 234.266 48.534C234.042 48.534 233.83 48.572 233.63 48.648C233.43 48.72 233.254 48.838 233.102 49.002C232.954 49.166 232.836 49.382 232.748 49.65C232.664 49.918 232.622 50.244 232.622 50.628L231.842 50.334C231.842 49.746 231.952 49.228 232.172 48.78C232.392 48.328 232.708 47.976 233.12 47.724C233.532 47.472 234.03 47.346 234.614 47.346C235.062 47.346 235.438 47.418 235.742 47.562C236.046 47.706 236.292 47.896 236.48 48.132C236.672 48.364 236.818 48.618 236.918 48.894C237.018 49.17 237.086 49.44 237.122 49.704C237.158 49.968 237.176 50.2 237.176 50.4V54H235.904ZM231.35 54V47.52H232.472V49.392H232.622V54H231.35ZM241.408 57.06C241.06 57.06 240.722 57.006 240.394 56.898C240.07 56.79 239.774 56.63 239.506 56.418C239.238 56.21 239.016 55.952 238.84 55.644L239.998 55.056C240.138 55.332 240.338 55.534 240.598 55.662C240.858 55.79 241.132 55.854 241.42 55.854C241.776 55.854 242.08 55.79 242.332 55.662C242.584 55.538 242.774 55.35 242.902 55.098C243.034 54.846 243.098 54.534 243.094 54.162V52.35H243.244V47.52H244.354V54.174C244.354 54.346 244.348 54.51 244.336 54.666C244.324 54.822 244.302 54.978 244.27 55.134C244.178 55.57 244.002 55.93 243.742 56.214C243.486 56.498 243.158 56.71 242.758 56.85C242.362 56.99 241.912 57.06 241.408 57.06ZM241.312 54.18C240.708 54.18 240.186 54.03 239.746 53.73C239.31 53.43 238.972 53.022 238.732 52.506C238.496 51.986 238.378 51.402 238.378 50.754C238.378 50.102 238.498 49.52 238.738 49.008C238.978 48.492 239.318 48.086 239.758 47.79C240.202 47.49 240.728 47.34 241.336 47.34C241.948 47.34 242.462 47.49 242.878 47.79C243.298 48.086 243.614 48.492 243.826 49.008C244.042 49.524 244.15 50.106 244.15 50.754C244.15 51.402 244.042 51.984 243.826 52.5C243.61 53.016 243.292 53.426 242.872 53.73C242.452 54.03 241.932 54.18 241.312 54.18ZM241.486 53.046C241.898 53.046 242.234 52.948 242.494 52.752C242.754 52.556 242.944 52.286 243.064 51.942C243.184 51.598 243.244 51.202 243.244 50.754C243.244 50.306 243.182 49.91 243.058 49.566C242.938 49.222 242.75 48.954 242.494 48.762C242.242 48.57 241.92 48.474 241.528 48.474C241.112 48.474 240.77 48.576 240.502 48.78C240.234 48.984 240.034 49.258 239.902 49.602C239.774 49.946 239.71 50.33 239.71 50.754C239.71 51.182 239.774 51.57 239.902 51.918C240.034 52.262 240.23 52.536 240.49 52.74C240.754 52.944 241.086 53.046 241.486 53.046Z" fill="#171717"/>
<path d="M252 36H279C286.18 36 292 41.8203 292 49C292 56.1797 286.18 62 279 62H252V36Z" fill="#E4FFF4"/>
<path d="M262.606 54.18C262.042 54.18 261.542 54.068 261.106 53.844C260.674 53.616 260.334 53.3 260.086 52.896C259.842 52.492 259.72 52.024 259.72 51.492C259.72 50.996 259.836 50.542 260.068 50.13C260.3 49.718 260.646 49.394 261.106 49.158L261.082 49.59C260.714 49.362 260.43 49.078 260.23 48.738C260.034 48.394 259.936 48.01 259.936 47.586C259.936 47.094 260.05 46.668 260.278 46.308C260.506 45.948 260.82 45.67 261.22 45.474C261.624 45.278 262.086 45.18 262.606 45.18C263.126 45.18 263.586 45.278 263.986 45.474C264.386 45.67 264.7 45.948 264.928 46.308C265.156 46.668 265.27 47.094 265.27 47.586C265.27 48.01 265.176 48.392 264.988 48.732C264.8 49.072 264.512 49.358 264.124 49.59L264.106 49.17C264.562 49.394 264.908 49.714 265.144 50.13C265.38 50.542 265.498 50.996 265.498 51.492C265.498 52.024 265.374 52.492 265.126 52.896C264.878 53.3 264.536 53.616 264.1 53.844C263.664 54.068 263.166 54.18 262.606 54.18ZM262.606 52.986C263.07 52.986 263.446 52.86 263.734 52.608C264.022 52.352 264.166 51.98 264.166 51.492C264.166 51.004 264.022 50.632 263.734 50.376C263.45 50.116 263.074 49.986 262.606 49.986C262.138 49.986 261.76 50.116 261.472 50.376C261.188 50.632 261.046 51.004 261.046 51.492C261.046 51.98 261.19 52.352 261.478 52.608C261.766 52.86 262.142 52.986 262.606 52.986ZM262.606 48.786C263.002 48.786 263.322 48.688 263.566 48.492C263.814 48.292 263.938 47.99 263.938 47.586C263.938 47.182 263.814 46.88 263.566 46.68C263.322 46.476 263.002 46.374 262.606 46.374C262.21 46.374 261.888 46.476 261.64 46.68C261.392 46.88 261.268 47.182 261.268 47.586C261.268 47.99 261.392 48.292 261.64 48.492C261.888 48.688 262.21 48.786 262.606 48.786ZM269.243 45.36H270.509L268.205 54H266.939L269.243 45.36ZM273.58 54V46.74L271.954 47.73V46.332L273.58 45.36H274.858V54H273.58ZM280.149 54.18C279.561 54.18 279.041 54.052 278.589 53.796C278.137 53.536 277.781 53.18 277.521 52.728C277.265 52.276 277.137 51.756 277.137 51.168V48.192C277.137 47.604 277.265 47.084 277.521 46.632C277.781 46.18 278.137 45.826 278.589 45.57C279.041 45.31 279.561 45.18 280.149 45.18C280.737 45.18 281.257 45.31 281.709 45.57C282.161 45.826 282.515 46.18 282.771 46.632C283.031 47.084 283.161 47.604 283.161 48.192V51.168C283.161 51.756 283.031 52.276 282.771 52.728C282.515 53.18 282.161 53.536 281.709 53.796C281.257 54.052 280.737 54.18 280.149 54.18ZM280.149 52.98C280.469 52.98 280.759 52.904 281.019 52.752C281.283 52.596 281.493 52.388 281.649 52.128C281.805 51.864 281.883 51.57 281.883 51.246V48.102C281.883 47.782 281.805 47.492 281.649 47.232C281.493 46.968 281.283 46.76 281.019 46.608C280.759 46.452 280.469 46.374 280.149 46.374C279.829 46.374 279.537 46.452 279.273 46.608C279.013 46.76 278.805 46.968 278.649 47.232C278.493 47.492 278.415 47.782 278.415 48.102V51.246C278.415 51.57 278.493 51.864 278.649 52.128C278.805 52.388 279.013 52.596 279.273 52.752C279.537 52.904 279.829 52.98 280.149 52.98Z" fill="#00BA70"/>
<path d="M252 36V62" stroke="#E2E2E2"/>
<rect x="300.5" y="35.5" width="188" height="27" rx="13.5" stroke="#E3E3E3"/>
<path d="M309.24 54L312.048 45.36H313.854L316.662 54H315.36L312.774 46.116H313.098L310.542 54H309.24ZM310.698 52.05V50.874H315.21V52.05H310.698ZM320.51 54.18C319.846 54.18 319.282 54.032 318.818 53.736C318.354 53.44 317.998 53.034 317.75 52.518C317.506 52.002 317.382 51.416 317.378 50.76C317.382 50.092 317.51 49.502 317.762 48.99C318.014 48.474 318.374 48.07 318.842 47.778C319.31 47.486 319.872 47.34 320.528 47.34C321.236 47.34 321.84 47.516 322.34 47.868C322.844 48.22 323.176 48.702 323.336 49.314L322.088 49.674C321.964 49.31 321.76 49.028 321.476 48.828C321.196 48.624 320.874 48.522 320.51 48.522C320.098 48.522 319.76 48.62 319.496 48.816C319.232 49.008 319.036 49.272 318.908 49.608C318.78 49.944 318.714 50.328 318.71 50.76C318.714 51.428 318.866 51.968 319.166 52.38C319.47 52.792 319.918 52.998 320.51 52.998C320.914 52.998 321.24 52.906 321.488 52.722C321.74 52.534 321.932 52.266 322.064 51.918L323.336 52.218C323.124 52.85 322.774 53.336 322.286 53.676C321.798 54.012 321.206 54.18 320.51 54.18ZM327.155 54.18C326.491 54.18 325.927 54.032 325.463 53.736C324.999 53.44 324.643 53.034 324.395 52.518C324.151 52.002 324.027 51.416 324.023 50.76C324.027 50.092 324.155 49.502 324.407 48.99C324.659 48.474 325.019 48.07 325.487 47.778C325.955 47.486 326.517 47.34 327.173 47.34C327.881 47.34 328.485 47.516 328.985 47.868C329.489 48.22 329.821 48.702 329.981 49.314L328.733 49.674C328.609 49.31 328.405 49.028 328.121 48.828C327.841 48.624 327.519 48.522 327.155 48.522C326.743 48.522 326.405 48.62 326.141 48.816C325.877 49.008 325.681 49.272 325.553 49.608C325.425 49.944 325.359 50.328 325.355 50.76C325.359 51.428 325.511 51.968 325.811 52.38C326.115 52.792 326.563 52.998 327.155 52.998C327.559 52.998 327.885 52.906 328.133 52.722C328.385 52.534 328.577 52.266 328.709 51.918L329.981 52.218C329.769 52.85 329.419 53.336 328.931 53.676C328.443 54.012 327.851 54.18 327.155 54.18ZM333.842 54.18C333.194 54.18 332.632 54.034 332.156 53.742C331.68 53.45 331.312 53.048 331.052 52.536C330.796 52.02 330.668 51.426 330.668 50.754C330.668 50.078 330.8 49.484 331.064 48.972C331.328 48.456 331.698 48.056 332.174 47.772C332.65 47.484 333.206 47.34 333.842 47.34C334.49 47.34 335.052 47.486 335.528 47.778C336.004 48.07 336.372 48.472 336.632 48.984C336.892 49.496 337.022 50.086 337.022 50.754C337.022 51.43 336.89 52.026 336.626 52.542C336.366 53.054 335.998 53.456 335.522 53.748C335.046 54.036 334.486 54.18 333.842 54.18ZM333.842 52.998C334.462 52.998 334.924 52.79 335.228 52.374C335.536 51.954 335.69 51.414 335.69 50.754C335.69 50.078 335.534 49.538 335.222 49.134C334.914 48.726 334.454 48.522 333.842 48.522C333.422 48.522 333.076 48.618 332.804 48.81C332.532 48.998 332.33 49.26 332.198 49.596C332.066 49.928 332 50.314 332 50.754C332 51.434 332.156 51.978 332.468 52.386C332.78 52.794 333.238 52.998 333.842 52.998ZM340.782 54.174C340.334 54.174 339.958 54.102 339.654 53.958C339.35 53.814 339.102 53.626 338.91 53.394C338.722 53.158 338.578 52.902 338.478 52.626C338.378 52.35 338.31 52.08 338.274 51.816C338.238 51.552 338.22 51.32 338.22 51.12V47.52H339.492V50.706C339.492 50.958 339.512 51.218 339.552 51.486C339.596 51.75 339.676 51.996 339.792 52.224C339.912 52.452 340.078 52.636 340.29 52.776C340.506 52.916 340.786 52.986 341.13 52.986C341.354 52.986 341.566 52.95 341.766 52.878C341.966 52.802 342.14 52.682 342.288 52.518C342.44 52.354 342.558 52.138 342.642 51.87C342.73 51.602 342.774 51.276 342.774 50.892L343.554 51.186C343.554 51.774 343.444 52.294 343.224 52.746C343.004 53.194 342.688 53.544 342.276 53.796C341.864 54.048 341.366 54.174 340.782 54.174ZM342.924 54V52.128H342.774V47.52H344.04V54H342.924ZM350.271 54V50.814C350.271 50.562 350.249 50.304 350.205 50.04C350.165 49.772 350.085 49.524 349.965 49.296C349.849 49.068 349.683 48.884 349.467 48.744C349.255 48.604 348.977 48.534 348.633 48.534C348.409 48.534 348.197 48.572 347.997 48.648C347.797 48.72 347.621 48.838 347.469 49.002C347.321 49.166 347.203 49.382 347.115 49.65C347.031 49.918 346.989 50.244 346.989 50.628L346.209 50.334C346.209 49.746 346.319 49.228 346.539 48.78C346.759 48.328 347.075 47.976 347.487 47.724C347.899 47.472 348.397 47.346 348.981 47.346C349.429 47.346 349.805 47.418 350.109 47.562C350.413 47.706 350.659 47.896 350.847 48.132C351.039 48.364 351.185 48.618 351.285 48.894C351.385 49.17 351.453 49.44 351.489 49.704C351.525 49.968 351.543 50.2 351.543 50.4V54H350.271ZM345.717 54V47.52H346.839V49.392H346.989V54H345.717ZM356.814 54C356.406 54.08 356.006 54.114 355.614 54.102C355.222 54.09 354.872 54.014 354.564 53.874C354.256 53.734 354.024 53.514 353.868 53.214C353.728 52.946 353.652 52.674 353.64 52.398C353.632 52.118 353.628 51.802 353.628 51.45V45.72H354.888V51.39C354.888 51.65 354.89 51.876 354.894 52.068C354.902 52.26 354.944 52.422 355.02 52.554C355.164 52.802 355.392 52.944 355.704 52.98C356.02 53.012 356.39 52.998 356.814 52.938V54ZM352.386 48.528V47.52H356.814V48.528H352.386ZM358.3 46.458V45.24H359.554V46.458H358.3ZM358.3 54V47.52H359.554V54H358.3ZM365.904 54V50.814C365.904 50.562 365.882 50.304 365.838 50.04C365.798 49.772 365.718 49.524 365.598 49.296C365.482 49.068 365.316 48.884 365.1 48.744C364.888 48.604 364.61 48.534 364.266 48.534C364.042 48.534 363.83 48.572 363.63 48.648C363.43 48.72 363.254 48.838 363.102 49.002C362.954 49.166 362.836 49.382 362.748 49.65C362.664 49.918 362.622 50.244 362.622 50.628L361.842 50.334C361.842 49.746 361.952 49.228 362.172 48.78C362.392 48.328 362.708 47.976 363.12 47.724C363.532 47.472 364.03 47.346 364.614 47.346C365.062 47.346 365.438 47.418 365.742 47.562C366.046 47.706 366.292 47.896 366.48 48.132C366.672 48.364 366.818 48.618 366.918 48.894C367.018 49.17 367.086 49.44 367.122 49.704C367.158 49.968 367.176 50.2 367.176 50.4V54H365.904ZM361.35 54V47.52H362.472V49.392H362.622V54H361.35ZM371.408 57.06C371.06 57.06 370.722 57.006 370.394 56.898C370.07 56.79 369.774 56.63 369.506 56.418C369.238 56.21 369.016 55.952 368.84 55.644L369.998 55.056C370.138 55.332 370.338 55.534 370.598 55.662C370.858 55.79 371.132 55.854 371.42 55.854C371.776 55.854 372.08 55.79 372.332 55.662C372.584 55.538 372.774 55.35 372.902 55.098C373.034 54.846 373.098 54.534 373.094 54.162V52.35H373.244V47.52H374.354V54.174C374.354 54.346 374.348 54.51 374.336 54.666C374.324 54.822 374.302 54.978 374.27 55.134C374.178 55.57 374.002 55.93 373.742 56.214C373.486 56.498 373.158 56.71 372.758 56.85C372.362 56.99 371.912 57.06 371.408 57.06ZM371.312 54.18C370.708 54.18 370.186 54.03 369.746 53.73C369.31 53.43 368.972 53.022 368.732 52.506C368.496 51.986 368.378 51.402 368.378 50.754C368.378 50.102 368.498 49.52 368.738 49.008C368.978 48.492 369.318 48.086 369.758 47.79C370.202 47.49 370.728 47.34 371.336 47.34C371.948 47.34 372.462 47.49 372.878 47.79C373.298 48.086 373.614 48.492 373.826 49.008C374.042 49.524 374.15 50.106 374.15 50.754C374.15 51.402 374.042 51.984 373.826 52.5C373.61 53.016 373.292 53.426 372.872 53.73C372.452 54.03 371.932 54.18 371.312 54.18ZM371.486 53.046C371.898 53.046 372.234 52.948 372.494 52.752C372.754 52.556 372.944 52.286 373.064 51.942C373.184 51.598 373.244 51.202 373.244 50.754C373.244 50.306 373.182 49.91 373.058 49.566C372.938 49.222 372.75 48.954 372.494 48.762C372.242 48.57 371.92 48.474 371.528 48.474C371.112 48.474 370.77 48.576 370.502 48.78C370.234 48.984 370.034 49.258 369.902 49.602C369.774 49.946 369.71 50.33 369.71 50.754C369.71 51.182 369.774 51.57 369.902 51.918C370.034 52.262 370.23 52.536 370.49 52.74C370.754 52.944 371.086 53.046 371.486 53.046ZM378.442 54V45.36H381.934C382.018 45.36 382.122 45.364 382.246 45.372C382.37 45.376 382.488 45.388 382.6 45.408C383.08 45.484 383.48 45.648 383.8 45.9C384.124 46.152 384.366 46.47 384.526 46.854C384.686 47.238 384.766 47.662 384.766 48.126C384.766 48.594 384.686 49.02 384.526 49.404C384.366 49.788 384.124 50.106 383.8 50.358C383.48 50.61 383.08 50.774 382.6 50.85C382.488 50.866 382.368 50.878 382.24 50.886C382.116 50.894 382.014 50.898 381.934 50.898H379.696V54H378.442ZM379.696 49.71H381.886C381.966 49.71 382.054 49.706 382.15 49.698C382.25 49.69 382.344 49.676 382.432 49.656C382.688 49.596 382.894 49.486 383.05 49.326C383.206 49.162 383.318 48.974 383.386 48.762C383.454 48.55 383.488 48.338 383.488 48.126C383.488 47.914 383.454 47.704 383.386 47.496C383.318 47.284 383.206 47.098 383.05 46.938C382.894 46.774 382.688 46.662 382.432 46.602C382.344 46.578 382.25 46.562 382.15 46.554C382.054 46.546 381.966 46.542 381.886 46.542H379.696V49.71ZM385.965 54V47.52H387.081V49.092L386.925 48.888C387.005 48.68 387.109 48.49 387.237 48.318C387.365 48.142 387.513 47.998 387.681 47.886C387.845 47.766 388.027 47.674 388.227 47.61C388.431 47.542 388.639 47.502 388.851 47.49C389.063 47.474 389.267 47.484 389.463 47.52V48.696C389.251 48.64 389.015 48.624 388.755 48.648C388.499 48.672 388.263 48.754 388.047 48.894C387.843 49.026 387.681 49.186 387.561 49.374C387.445 49.562 387.361 49.772 387.309 50.004C387.257 50.232 387.231 50.474 387.231 50.73V54H385.965ZM393.302 54.18C392.654 54.18 392.092 54.034 391.616 53.742C391.14 53.45 390.772 53.048 390.512 52.536C390.256 52.02 390.128 51.426 390.128 50.754C390.128 50.078 390.26 49.484 390.524 48.972C390.788 48.456 391.158 48.056 391.634 47.772C392.11 47.484 392.666 47.34 393.302 47.34C393.95 47.34 394.512 47.486 394.988 47.778C395.464 48.07 395.832 48.472 396.092 48.984C396.352 49.496 396.482 50.086 396.482 50.754C396.482 51.43 396.35 52.026 396.086 52.542C395.826 53.054 395.458 53.456 394.982 53.748C394.506 54.036 393.946 54.18 393.302 54.18ZM393.302 52.998C393.922 52.998 394.384 52.79 394.688 52.374C394.996 51.954 395.15 51.414 395.15 50.754C395.15 50.078 394.994 49.538 394.682 49.134C394.374 48.726 393.914 48.522 393.302 48.522C392.882 48.522 392.536 48.618 392.264 48.81C391.992 48.998 391.79 49.26 391.658 49.596C391.526 49.928 391.46 50.314 391.46 50.754C391.46 51.434 391.616 51.978 391.928 52.386C392.24 52.794 392.698 52.998 393.302 52.998ZM400.573 54.18C399.909 54.18 399.345 54.032 398.881 53.736C398.417 53.44 398.061 53.034 397.813 52.518C397.569 52.002 397.445 51.416 397.441 50.76C397.445 50.092 397.573 49.502 397.825 48.99C398.077 48.474 398.437 48.07 398.905 47.778C399.373 47.486 399.935 47.34 400.591 47.34C401.299 47.34 401.903 47.516 402.403 47.868C402.907 48.22 403.239 48.702 403.399 49.314L402.151 49.674C402.027 49.31 401.823 49.028 401.539 48.828C401.259 48.624 400.937 48.522 400.573 48.522C400.161 48.522 399.823 48.62 399.559 48.816C399.295 49.008 399.099 49.272 398.971 49.608C398.843 49.944 398.777 50.328 398.773 50.76C398.777 51.428 398.929 51.968 399.229 52.38C399.533 52.792 399.981 52.998 400.573 52.998C400.977 52.998 401.303 52.906 401.551 52.722C401.803 52.534 401.995 52.266 402.127 51.918L403.399 52.218C403.187 52.85 402.837 53.336 402.349 53.676C401.861 54.012 401.269 54.18 400.573 54.18ZM407.319 54.18C406.675 54.18 406.109 54.04 405.621 53.76C405.137 53.476 404.759 53.082 404.487 52.578C404.219 52.07 404.085 51.482 404.085 50.814C404.085 50.106 404.217 49.492 404.481 48.972C404.749 48.452 405.121 48.05 405.597 47.766C406.073 47.482 406.627 47.34 407.259 47.34C407.919 47.34 408.481 47.494 408.945 47.802C409.409 48.106 409.755 48.54 409.983 49.104C410.215 49.668 410.307 50.338 410.259 51.114H409.005V50.658C408.997 49.906 408.853 49.35 408.573 48.99C408.297 48.63 407.875 48.45 407.307 48.45C406.679 48.45 406.207 48.648 405.891 49.044C405.575 49.44 405.417 50.012 405.417 50.76C405.417 51.472 405.575 52.024 405.891 52.416C406.207 52.804 406.663 52.998 407.259 52.998C407.651 52.998 407.989 52.91 408.273 52.734C408.561 52.554 408.785 52.298 408.945 51.966L410.175 52.356C409.923 52.936 409.541 53.386 409.029 53.706C408.517 54.022 407.947 54.18 407.319 54.18ZM405.009 51.114V50.136H409.635V51.114H405.009ZM414.084 54.174C413.296 54.174 412.654 54 412.158 53.652C411.662 53.304 411.358 52.814 411.246 52.182L412.53 51.984C412.61 52.32 412.794 52.586 413.082 52.782C413.374 52.974 413.736 53.07 414.168 53.07C414.56 53.07 414.866 52.99 415.086 52.83C415.31 52.67 415.422 52.45 415.422 52.17C415.422 52.006 415.382 51.874 415.302 51.774C415.226 51.67 415.064 51.572 414.816 51.48C414.568 51.388 414.19 51.274 413.682 51.138C413.126 50.994 412.684 50.84 412.356 50.676C412.032 50.508 411.8 50.314 411.66 50.094C411.524 49.87 411.456 49.6 411.456 49.284C411.456 48.892 411.56 48.55 411.768 48.258C411.976 47.966 412.268 47.74 412.644 47.58C413.024 47.42 413.468 47.34 413.976 47.34C414.472 47.34 414.914 47.418 415.302 47.574C415.69 47.73 416.004 47.952 416.244 48.24C416.484 48.524 416.628 48.858 416.676 49.242L415.392 49.476C415.348 49.164 415.202 48.918 414.954 48.738C414.706 48.558 414.384 48.46 413.988 48.444C413.608 48.428 413.3 48.492 413.064 48.636C412.828 48.776 412.71 48.97 412.71 49.218C412.71 49.362 412.754 49.484 412.842 49.584C412.934 49.684 413.11 49.78 413.37 49.872C413.63 49.964 414.014 50.074 414.522 50.202C415.066 50.342 415.498 50.498 415.818 50.67C416.138 50.838 416.366 51.04 416.502 51.276C416.642 51.508 416.712 51.79 416.712 52.122C416.712 52.762 416.478 53.264 416.01 53.628C415.546 53.992 414.904 54.174 414.084 54.174ZM420.517 54.174C419.729 54.174 419.087 54 418.591 53.652C418.095 53.304 417.791 52.814 417.679 52.182L418.963 51.984C419.043 52.32 419.227 52.586 419.515 52.782C419.807 52.974 420.169 53.07 420.601 53.07C420.993 53.07 421.299 52.99 421.519 52.83C421.743 52.67 421.855 52.45 421.855 52.17C421.855 52.006 421.815 51.874 421.735 51.774C421.659 51.67 421.497 51.572 421.249 51.48C421.001 51.388 420.623 51.274 420.115 51.138C419.559 50.994 419.117 50.84 418.789 50.676C418.465 50.508 418.233 50.314 418.093 50.094C417.957 49.87 417.889 49.6 417.889 49.284C417.889 48.892 417.993 48.55 418.201 48.258C418.409 47.966 418.701 47.74 419.077 47.58C419.457 47.42 419.901 47.34 420.409 47.34C420.905 47.34 421.347 47.418 421.735 47.574C422.123 47.73 422.437 47.952 422.677 48.24C422.917 48.524 423.061 48.858 423.109 49.242L421.825 49.476C421.781 49.164 421.635 48.918 421.387 48.738C421.139 48.558 420.817 48.46 420.421 48.444C420.041 48.428 419.733 48.492 419.497 48.636C419.261 48.776 419.143 48.97 419.143 49.218C419.143 49.362 419.187 49.484 419.275 49.584C419.367 49.684 419.543 49.78 419.803 49.872C420.063 49.964 420.447 50.074 420.955 50.202C421.499 50.342 421.931 50.498 422.251 50.67C422.571 50.838 422.799 51.04 422.935 51.276C423.075 51.508 423.145 51.79 423.145 52.122C423.145 52.762 422.911 53.264 422.443 53.628C421.979 53.992 421.337 54.174 420.517 54.174ZM424.593 46.458V45.24H425.847V46.458H424.593ZM424.593 54V47.52H425.847V54H424.593ZM432.197 54V50.814C432.197 50.562 432.175 50.304 432.131 50.04C432.091 49.772 432.011 49.524 431.891 49.296C431.775 49.068 431.609 48.884 431.393 48.744C431.181 48.604 430.903 48.534 430.559 48.534C430.335 48.534 430.123 48.572 429.923 48.648C429.723 48.72 429.547 48.838 429.395 49.002C429.247 49.166 429.129 49.382 429.041 49.65C428.957 49.918 428.915 50.244 428.915 50.628L428.135 50.334C428.135 49.746 428.245 49.228 428.465 48.78C428.685 48.328 429.001 47.976 429.413 47.724C429.825 47.472 430.323 47.346 430.907 47.346C431.355 47.346 431.731 47.418 432.035 47.562C432.339 47.706 432.585 47.896 432.773 48.132C432.965 48.364 433.111 48.618 433.211 48.894C433.311 49.17 433.379 49.44 433.415 49.704C433.451 49.968 433.469 50.2 433.469 50.4V54H432.197ZM427.643 54V47.52H428.765V49.392H428.915V54H427.643ZM437.701 57.06C437.353 57.06 437.015 57.006 436.687 56.898C436.363 56.79 436.067 56.63 435.799 56.418C435.531 56.21 435.309 55.952 435.133 55.644L436.291 55.056C436.431 55.332 436.631 55.534 436.891 55.662C437.151 55.79 437.425 55.854 437.713 55.854C438.069 55.854 438.373 55.79 438.625 55.662C438.877 55.538 439.067 55.35 439.195 55.098C439.327 54.846 439.391 54.534 439.387 54.162V52.35H439.537V47.52H440.647V54.174C440.647 54.346 440.641 54.51 440.629 54.666C440.617 54.822 440.595 54.978 440.563 55.134C440.471 55.57 440.295 55.93 440.035 56.214C439.779 56.498 439.451 56.71 439.051 56.85C438.655 56.99 438.205 57.06 437.701 57.06ZM437.605 54.18C437.001 54.18 436.479 54.03 436.039 53.73C435.603 53.43 435.265 53.022 435.025 52.506C434.789 51.986 434.671 51.402 434.671 50.754C434.671 50.102 434.791 49.52 435.031 49.008C435.271 48.492 435.611 48.086 436.051 47.79C436.495 47.49 437.021 47.34 437.629 47.34C438.241 47.34 438.755 47.49 439.171 47.79C439.591 48.086 439.907 48.492 440.119 49.008C440.335 49.524 440.443 50.106 440.443 50.754C440.443 51.402 440.335 51.984 440.119 52.5C439.903 53.016 439.585 53.426 439.165 53.73C438.745 54.03 438.225 54.18 437.605 54.18ZM437.779 53.046C438.191 53.046 438.527 52.948 438.787 52.752C439.047 52.556 439.237 52.286 439.357 51.942C439.477 51.598 439.537 51.202 439.537 50.754C439.537 50.306 439.475 49.91 439.351 49.566C439.231 49.222 439.043 48.954 438.787 48.762C438.535 48.57 438.213 48.474 437.821 48.474C437.405 48.474 437.063 48.576 436.795 48.78C436.527 48.984 436.327 49.258 436.195 49.602C436.067 49.946 436.003 50.33 436.003 50.754C436.003 51.182 436.067 51.57 436.195 51.918C436.327 52.262 436.523 52.536 436.783 52.74C437.047 52.944 437.379 53.046 437.779 53.046Z" fill="#171717"/>
</g>
<defs>
<clipPath id="clip0_10172_13304">
<rect width="518" height="65" fill="white"/>
</clipPath>
</defs>
</svg>
