<svg width="325" height="65" viewBox="0 0 325 65" fill="none" xmlns="http://www.w3.org/2000/svg">
<g clip-path="url(#clip0_10172_13251)">
<rect x="0.5" y="0.5" width="129" height="27" rx="13.5" stroke="#E3E3E3"/>
<path d="M9.84 19V10.36H13.236C13.784 10.36 14.244 10.472 14.616 10.696C14.988 10.92 15.268 11.21 15.456 11.566C15.644 11.918 15.738 12.29 15.738 12.682C15.738 13.158 15.62 13.566 15.384 13.906C15.152 14.246 14.838 14.478 14.442 14.602L14.43 14.308C14.982 14.444 15.406 14.71 15.702 15.106C15.998 15.498 16.146 15.956 16.146 16.48C16.146 16.988 16.044 17.43 15.84 17.806C15.64 18.182 15.346 18.476 14.958 18.688C14.574 18.896 14.108 19 13.56 19H9.84ZM11.112 17.806H13.368C13.652 17.806 13.906 17.752 14.13 17.644C14.358 17.536 14.536 17.382 14.664 17.182C14.796 16.978 14.862 16.736 14.862 16.456C14.862 16.196 14.804 15.962 14.688 15.754C14.576 15.542 14.412 15.376 14.196 15.256C13.984 15.132 13.734 15.07 13.446 15.07H11.112V17.806ZM11.112 13.888H13.218C13.45 13.888 13.658 13.842 13.842 13.75C14.03 13.654 14.178 13.518 14.286 13.342C14.398 13.162 14.454 12.946 14.454 12.694C14.454 12.358 14.342 12.082 14.118 11.866C13.894 11.65 13.594 11.542 13.218 11.542H11.112V13.888ZM20.154 19.18C19.506 19.18 18.944 19.034 18.468 18.742C17.992 18.45 17.624 18.048 17.364 17.536C17.108 17.02 16.98 16.426 16.98 15.754C16.98 15.078 17.112 14.484 17.376 13.972C17.64 13.456 18.01 13.056 18.486 12.772C18.962 12.484 19.518 12.34 20.154 12.34C20.802 12.34 21.364 12.486 21.84 12.778C22.316 13.07 22.684 13.472 22.944 13.984C23.204 14.496 23.334 15.086 23.334 15.754C23.334 16.43 23.202 17.026 22.938 17.542C22.678 18.054 22.31 18.456 21.834 18.748C21.358 19.036 20.798 19.18 20.154 19.18ZM20.154 17.998C20.774 17.998 21.236 17.79 21.54 17.374C21.848 16.954 22.002 16.414 22.002 15.754C22.002 15.078 21.846 14.538 21.534 14.134C21.226 13.726 20.766 13.522 20.154 13.522C19.734 13.522 19.388 13.618 19.116 13.81C18.844 13.998 18.642 14.26 18.51 14.596C18.378 14.928 18.312 15.314 18.312 15.754C18.312 16.434 18.468 16.978 18.78 17.386C19.092 17.794 19.55 17.998 20.154 17.998ZM27.4665 19.18C26.8185 19.18 26.2565 19.034 25.7805 18.742C25.3045 18.45 24.9365 18.048 24.6765 17.536C24.4205 17.02 24.2925 16.426 24.2925 15.754C24.2925 15.078 24.4245 14.484 24.6885 13.972C24.9525 13.456 25.3225 13.056 25.7985 12.772C26.2745 12.484 26.8305 12.34 27.4665 12.34C28.1145 12.34 28.6765 12.486 29.1525 12.778C29.6285 13.07 29.9965 13.472 30.2565 13.984C30.5165 14.496 30.6465 15.086 30.6465 15.754C30.6465 16.43 30.5145 17.026 30.2505 17.542C29.9905 18.054 29.6225 18.456 29.1465 18.748C28.6705 19.036 28.1105 19.18 27.4665 19.18ZM27.4665 17.998C28.0865 17.998 28.5485 17.79 28.8525 17.374C29.1605 16.954 29.3145 16.414 29.3145 15.754C29.3145 15.078 29.1585 14.538 28.8465 14.134C28.5385 13.726 28.0785 13.522 27.4665 13.522C27.0465 13.522 26.7005 13.618 26.4285 13.81C26.1565 13.998 25.9545 14.26 25.8225 14.596C25.6905 14.928 25.6245 15.314 25.6245 15.754C25.6245 16.434 25.7805 16.978 26.0925 17.386C26.4045 17.794 26.8625 17.998 27.4665 17.998ZM31.959 19L31.965 10.36H33.237V15.64L35.781 12.52H37.377L34.689 15.76L37.653 19H35.949L33.237 15.88V19H31.959ZM38.252 19L38.258 10.36H39.53V15.64L42.074 12.52H43.67L40.982 15.76L43.946 19H42.242L39.53 15.88V19H38.252ZM47.3078 19.18C46.6638 19.18 46.0978 19.04 45.6098 18.76C45.1258 18.476 44.7478 18.082 44.4757 17.578C44.2078 17.07 44.0738 16.482 44.0738 15.814C44.0738 15.106 44.2058 14.492 44.4698 13.972C44.7378 13.452 45.1098 13.05 45.5858 12.766C46.0618 12.482 46.6158 12.34 47.2478 12.34C47.9078 12.34 48.4698 12.494 48.9338 12.802C49.3978 13.106 49.7438 13.54 49.9718 14.104C50.2038 14.668 50.2958 15.338 50.2478 16.114H48.9938V15.658C48.9858 14.906 48.8418 14.35 48.5618 13.99C48.2858 13.63 47.8638 13.45 47.2958 13.45C46.6678 13.45 46.1958 13.648 45.8798 14.044C45.5638 14.44 45.4058 15.012 45.4058 15.76C45.4058 16.472 45.5638 17.024 45.8798 17.416C46.1958 17.804 46.6518 17.998 47.2478 17.998C47.6398 17.998 47.9778 17.91 48.2618 17.734C48.5498 17.554 48.7738 17.298 48.9338 16.966L50.1638 17.356C49.9118 17.936 49.5298 18.386 49.0178 18.706C48.5058 19.022 47.9358 19.18 47.3078 19.18ZM44.9978 16.114V15.136H49.6237V16.114H44.9978ZM54.4679 19.18C53.8239 19.18 53.2579 19.04 52.7699 18.76C52.2859 18.476 51.9079 18.082 51.6359 17.578C51.3679 17.07 51.2339 16.482 51.2339 15.814C51.2339 15.106 51.3659 14.492 51.6299 13.972C51.8979 13.452 52.2699 13.05 52.7459 12.766C53.2219 12.482 53.7759 12.34 54.4079 12.34C55.0679 12.34 55.6299 12.494 56.0939 12.802C56.5579 13.106 56.9039 13.54 57.1319 14.104C57.3639 14.668 57.4559 15.338 57.4079 16.114H56.1539V15.658C56.1459 14.906 56.0019 14.35 55.7219 13.99C55.4459 13.63 55.0239 13.45 54.4559 13.45C53.8279 13.45 53.3559 13.648 53.0399 14.044C52.7239 14.44 52.5659 15.012 52.5659 15.76C52.5659 16.472 52.7239 17.024 53.0399 17.416C53.3559 17.804 53.8119 17.998 54.4079 17.998C54.7999 17.998 55.1379 17.91 55.4219 17.734C55.7099 17.554 55.9339 17.298 56.0939 16.966L57.3239 17.356C57.0719 17.936 56.6899 18.386 56.1779 18.706C55.6659 19.022 55.0959 19.18 54.4679 19.18ZM52.1579 16.114V15.136H56.7839V16.114H52.1579ZM61.6203 19.18C61.0003 19.18 60.4803 19.03 60.0603 18.73C59.6403 18.426 59.3223 18.016 59.1063 17.5C58.8903 16.984 58.7823 16.402 58.7823 15.754C58.7823 15.106 58.8883 14.524 59.1003 14.008C59.3163 13.492 59.6323 13.086 60.0483 12.79C60.4683 12.49 60.9843 12.34 61.5963 12.34C62.2043 12.34 62.7283 12.49 63.1683 12.79C63.6123 13.086 63.9543 13.492 64.1943 14.008C64.4343 14.52 64.5543 15.102 64.5543 15.754C64.5543 16.402 64.4343 16.986 64.1943 17.506C63.9583 18.022 63.6203 18.43 63.1803 18.73C62.7443 19.03 62.2243 19.18 61.6203 19.18ZM58.5723 21.88V12.52H59.6883V17.182H59.8323V21.88H58.5723ZM61.4463 18.046C61.8463 18.046 62.1763 17.944 62.4363 17.74C62.7003 17.536 62.8963 17.262 63.0243 16.918C63.1563 16.57 63.2223 16.182 63.2223 15.754C63.2223 15.33 63.1563 14.946 63.0243 14.602C62.8963 14.258 62.6983 13.984 62.4303 13.78C62.1623 13.576 61.8203 13.474 61.4043 13.474C61.0123 13.474 60.6883 13.57 60.4323 13.762C60.1803 13.954 59.9923 14.222 59.8683 14.566C59.7483 14.91 59.6883 15.306 59.6883 15.754C59.6883 16.202 59.7483 16.598 59.8683 16.942C59.9883 17.286 60.1783 17.556 60.4383 17.752C60.6983 17.948 61.0343 18.046 61.4463 18.046ZM65.9991 11.458V10.24H67.2531V11.458H65.9991ZM65.9991 19V12.52H67.2531V19H65.9991ZM73.6028 19V15.814C73.6028 15.562 73.5808 15.304 73.5368 15.04C73.4968 14.772 73.4168 14.524 73.2968 14.296C73.1808 14.068 73.0148 13.884 72.7988 13.744C72.5868 13.604 72.3088 13.534 71.9648 13.534C71.7408 13.534 71.5288 13.572 71.3288 13.648C71.1288 13.72 70.9528 13.838 70.8008 14.002C70.6528 14.166 70.5348 14.382 70.4468 14.65C70.3628 14.918 70.3208 15.244 70.3208 15.628L69.5408 15.334C69.5408 14.746 69.6508 14.228 69.8708 13.78C70.0908 13.328 70.4068 12.976 70.8188 12.724C71.2308 12.472 71.7288 12.346 72.3128 12.346C72.7608 12.346 73.1368 12.418 73.4408 12.562C73.7448 12.706 73.9908 12.896 74.1788 13.132C74.3708 13.364 74.5168 13.618 74.6168 13.894C74.7168 14.17 74.7848 14.44 74.8208 14.704C74.8568 14.968 74.8748 15.2 74.8748 15.4V19H73.6028ZM69.0488 19V12.52H70.1708V14.392H70.3208V19H69.0488ZM79.1077 22.06C78.7597 22.06 78.4217 22.006 78.0937 21.898C77.7697 21.79 77.4737 21.63 77.2057 21.418C76.9377 21.21 76.7157 20.952 76.5397 20.644L77.6977 20.056C77.8377 20.332 78.0377 20.534 78.2977 20.662C78.5577 20.79 78.8317 20.854 79.1197 20.854C79.4757 20.854 79.7797 20.79 80.0317 20.662C80.2837 20.538 80.4737 20.35 80.6017 20.098C80.7337 19.846 80.7977 19.534 80.7937 19.162V17.35H80.9437V12.52H82.0537V19.174C82.0537 19.346 82.0477 19.51 82.0357 19.666C82.0237 19.822 82.0017 19.978 81.9697 20.134C81.8777 20.57 81.7017 20.93 81.4417 21.214C81.1857 21.498 80.8577 21.71 80.4577 21.85C80.0617 21.99 79.6117 22.06 79.1077 22.06ZM79.0117 19.18C78.4077 19.18 77.8857 19.03 77.4457 18.73C77.0097 18.43 76.6717 18.022 76.4317 17.506C76.1957 16.986 76.0777 16.402 76.0777 15.754C76.0777 15.102 76.1977 14.52 76.4377 14.008C76.6777 13.492 77.0177 13.086 77.4577 12.79C77.9017 12.49 78.4277 12.34 79.0357 12.34C79.6477 12.34 80.1617 12.49 80.5777 12.79C80.9977 13.086 81.3137 13.492 81.5257 14.008C81.7417 14.524 81.8497 15.106 81.8497 15.754C81.8497 16.402 81.7417 16.984 81.5257 17.5C81.3097 18.016 80.9917 18.426 80.5717 18.73C80.1517 19.03 79.6317 19.18 79.0117 19.18ZM79.1857 18.046C79.5977 18.046 79.9337 17.948 80.1937 17.752C80.4537 17.556 80.6437 17.286 80.7637 16.942C80.8837 16.598 80.9437 16.202 80.9437 15.754C80.9437 15.306 80.8817 14.91 80.7577 14.566C80.6377 14.222 80.4497 13.954 80.1937 13.762C79.9417 13.57 79.6197 13.474 79.2277 13.474C78.8117 13.474 78.4697 13.576 78.2017 13.78C77.9337 13.984 77.7337 14.258 77.6017 14.602C77.4737 14.946 77.4097 15.33 77.4097 15.754C77.4097 16.182 77.4737 16.57 77.6017 16.918C77.7337 17.262 77.9297 17.536 78.1897 17.74C78.4537 17.944 78.7857 18.046 79.1857 18.046Z" fill="#171717"/>
<path d="M89 1H116C123.18 1 129 6.8203 129 14C129 21.1797 123.18 27 116 27H89V1Z" fill="#E4FFF4"/>
<path d="M99.606 19.18C99.042 19.18 98.542 19.068 98.106 18.844C97.674 18.616 97.334 18.3 97.086 17.896C96.842 17.492 96.72 17.024 96.72 16.492C96.72 15.996 96.836 15.542 97.068 15.13C97.3 14.718 97.646 14.394 98.106 14.158L98.082 14.59C97.714 14.362 97.43 14.078 97.23 13.738C97.034 13.394 96.936 13.01 96.936 12.586C96.936 12.094 97.05 11.668 97.278 11.308C97.506 10.948 97.82 10.67 98.22 10.474C98.624 10.278 99.086 10.18 99.606 10.18C100.126 10.18 100.586 10.278 100.986 10.474C101.386 10.67 101.7 10.948 101.928 11.308C102.156 11.668 102.27 12.094 102.27 12.586C102.27 13.01 102.176 13.392 101.988 13.732C101.8 14.072 101.512 14.358 101.124 14.59L101.106 14.17C101.562 14.394 101.908 14.714 102.144 15.13C102.38 15.542 102.498 15.996 102.498 16.492C102.498 17.024 102.374 17.492 102.126 17.896C101.878 18.3 101.536 18.616 101.1 18.844C100.664 19.068 100.166 19.18 99.606 19.18ZM99.606 17.986C100.07 17.986 100.446 17.86 100.734 17.608C101.022 17.352 101.166 16.98 101.166 16.492C101.166 16.004 101.022 15.632 100.734 15.376C100.45 15.116 100.074 14.986 99.606 14.986C99.138 14.986 98.76 15.116 98.472 15.376C98.188 15.632 98.046 16.004 98.046 16.492C98.046 16.98 98.19 17.352 98.478 17.608C98.766 17.86 99.142 17.986 99.606 17.986ZM99.606 13.786C100.002 13.786 100.322 13.688 100.566 13.492C100.814 13.292 100.938 12.99 100.938 12.586C100.938 12.182 100.814 11.88 100.566 11.68C100.322 11.476 100.002 11.374 99.606 11.374C99.21 11.374 98.888 11.476 98.64 11.68C98.392 11.88 98.268 12.182 98.268 12.586C98.268 12.99 98.392 13.292 98.64 13.492C98.888 13.688 99.21 13.786 99.606 13.786ZM106.243 10.36H107.509L105.205 19H103.939L106.243 10.36ZM110.58 19V11.74L108.954 12.73V11.332L110.58 10.36H111.858V19H110.58ZM117.149 19.18C116.561 19.18 116.041 19.052 115.589 18.796C115.137 18.536 114.781 18.18 114.521 17.728C114.265 17.276 114.137 16.756 114.137 16.168V13.192C114.137 12.604 114.265 12.084 114.521 11.632C114.781 11.18 115.137 10.826 115.589 10.57C116.041 10.31 116.561 10.18 117.149 10.18C117.737 10.18 118.257 10.31 118.709 10.57C119.161 10.826 119.515 11.18 119.771 11.632C120.031 12.084 120.161 12.604 120.161 13.192V16.168C120.161 16.756 120.031 17.276 119.771 17.728C119.515 18.18 119.161 18.536 118.709 18.796C118.257 19.052 117.737 19.18 117.149 19.18ZM117.149 17.98C117.469 17.98 117.759 17.904 118.019 17.752C118.283 17.596 118.493 17.388 118.649 17.128C118.805 16.864 118.883 16.57 118.883 16.246V13.102C118.883 12.782 118.805 12.492 118.649 12.232C118.493 11.968 118.283 11.76 118.019 11.608C117.759 11.452 117.469 11.374 117.149 11.374C116.829 11.374 116.537 11.452 116.273 11.608C116.013 11.76 115.805 11.968 115.649 12.232C115.493 12.492 115.415 12.782 115.415 13.102V16.246C115.415 16.57 115.493 16.864 115.649 17.128C115.805 17.388 116.013 17.596 116.273 17.752C116.537 17.904 116.829 17.98 117.149 17.98Z" fill="#00BA70"/>
<path d="M89 1V27" stroke="#E2E2E2"/>
<rect x="137.5" y="0.5" width="163" height="27" rx="13.5" stroke="#E3E3E3"/>
<path d="M146.84 19V10.36H150.332C150.416 10.36 150.52 10.364 150.644 10.372C150.768 10.376 150.886 10.388 150.998 10.408C151.478 10.484 151.878 10.648 152.198 10.9C152.522 11.152 152.764 11.47 152.924 11.854C153.084 12.238 153.164 12.662 153.164 13.126C153.164 13.594 153.084 14.02 152.924 14.404C152.764 14.788 152.522 15.106 152.198 15.358C151.878 15.61 151.478 15.774 150.998 15.85C150.886 15.866 150.766 15.878 150.638 15.886C150.514 15.894 150.412 15.898 150.332 15.898H148.094V19H146.84ZM148.094 14.71H150.284C150.364 14.71 150.452 14.706 150.548 14.698C150.648 14.69 150.742 14.676 150.83 14.656C151.086 14.596 151.292 14.486 151.448 14.326C151.604 14.162 151.716 13.974 151.784 13.762C151.852 13.55 151.886 13.338 151.886 13.126C151.886 12.914 151.852 12.704 151.784 12.496C151.716 12.284 151.604 12.098 151.448 11.938C151.292 11.774 151.086 11.662 150.83 11.602C150.742 11.578 150.648 11.562 150.548 11.554C150.452 11.546 150.364 11.542 150.284 11.542H148.094V14.71ZM155.994 19.18C155.514 19.18 155.112 19.092 154.788 18.916C154.464 18.736 154.218 18.5 154.05 18.208C153.886 17.912 153.804 17.588 153.804 17.236C153.804 16.908 153.862 16.62 153.978 16.372C154.094 16.124 154.266 15.914 154.494 15.742C154.722 15.566 155.002 15.424 155.334 15.316C155.622 15.232 155.948 15.158 156.312 15.094C156.676 15.03 157.058 14.97 157.458 14.914C157.862 14.858 158.262 14.802 158.658 14.746L158.202 14.998C158.21 14.49 158.102 14.114 157.878 13.87C157.658 13.622 157.278 13.498 156.738 13.498C156.398 13.498 156.086 13.578 155.802 13.738C155.518 13.894 155.32 14.154 155.208 14.518L154.038 14.158C154.198 13.602 154.502 13.16 154.95 12.832C155.402 12.504 156.002 12.34 156.75 12.34C157.33 12.34 157.834 12.44 158.262 12.64C158.694 12.836 159.01 13.148 159.21 13.576C159.314 13.788 159.378 14.012 159.402 14.248C159.426 14.484 159.438 14.738 159.438 15.01V19H158.328V17.518L158.544 17.71C158.276 18.206 157.934 18.576 157.518 18.82C157.106 19.06 156.598 19.18 155.994 19.18ZM156.216 18.154C156.572 18.154 156.878 18.092 157.134 17.968C157.39 17.84 157.596 17.678 157.752 17.482C157.908 17.286 158.01 17.082 158.058 16.87C158.126 16.678 158.164 16.462 158.172 16.222C158.184 15.982 158.19 15.79 158.19 15.646L158.598 15.796C158.202 15.856 157.842 15.91 157.518 15.958C157.194 16.006 156.9 16.054 156.636 16.102C156.376 16.146 156.144 16.2 155.94 16.264C155.768 16.324 155.614 16.396 155.478 16.48C155.346 16.564 155.24 16.666 155.16 16.786C155.084 16.906 155.046 17.052 155.046 17.224C155.046 17.392 155.088 17.548 155.172 17.692C155.256 17.832 155.384 17.944 155.556 18.028C155.728 18.112 155.948 18.154 156.216 18.154ZM161.509 21.88L162.763 18.466L162.781 19.474L159.955 12.52H161.263L163.375 17.89H162.991L165.007 12.52H166.279L162.703 21.88H161.509ZM167.219 19V12.52H168.335V14.092L168.179 13.888C168.259 13.68 168.363 13.49 168.491 13.318C168.619 13.142 168.767 12.998 168.935 12.886C169.099 12.766 169.281 12.674 169.481 12.61C169.685 12.542 169.893 12.502 170.105 12.49C170.317 12.474 170.521 12.484 170.717 12.52V13.696C170.505 13.64 170.269 13.624 170.009 13.648C169.753 13.672 169.517 13.754 169.301 13.894C169.097 14.026 168.935 14.186 168.815 14.374C168.699 14.562 168.615 14.772 168.563 15.004C168.511 15.232 168.485 15.474 168.485 15.73V19H167.219ZM174.556 19.18C173.908 19.18 173.346 19.034 172.87 18.742C172.394 18.45 172.026 18.048 171.766 17.536C171.51 17.02 171.382 16.426 171.382 15.754C171.382 15.078 171.514 14.484 171.778 13.972C172.042 13.456 172.412 13.056 172.888 12.772C173.364 12.484 173.92 12.34 174.556 12.34C175.204 12.34 175.766 12.486 176.242 12.778C176.718 13.07 177.086 13.472 177.346 13.984C177.606 14.496 177.736 15.086 177.736 15.754C177.736 16.43 177.604 17.026 177.34 17.542C177.08 18.054 176.712 18.456 176.236 18.748C175.76 19.036 175.2 19.18 174.556 19.18ZM174.556 17.998C175.176 17.998 175.638 17.79 175.942 17.374C176.25 16.954 176.404 16.414 176.404 15.754C176.404 15.078 176.248 14.538 175.936 14.134C175.628 13.726 175.168 13.522 174.556 13.522C174.136 13.522 173.79 13.618 173.518 13.81C173.246 13.998 173.044 14.26 172.912 14.596C172.78 14.928 172.714 15.314 172.714 15.754C172.714 16.434 172.87 16.978 173.182 17.386C173.494 17.794 173.952 17.998 174.556 17.998ZM179.175 19V10.18H180.429V19H179.175ZM182.351 19V10.18H183.605V19H182.351ZM187.209 19L190.017 10.36H191.823L194.631 19H193.329L190.743 11.116H191.067L188.511 19H187.209ZM188.667 17.05V15.874H193.179V17.05H188.667ZM198.479 19.18C197.815 19.18 197.251 19.032 196.787 18.736C196.323 18.44 195.967 18.034 195.719 17.518C195.475 17.002 195.351 16.416 195.347 15.76C195.351 15.092 195.479 14.502 195.731 13.99C195.983 13.474 196.343 13.07 196.811 12.778C197.279 12.486 197.841 12.34 198.497 12.34C199.205 12.34 199.809 12.516 200.309 12.868C200.813 13.22 201.145 13.702 201.305 14.314L200.057 14.674C199.933 14.31 199.729 14.028 199.445 13.828C199.165 13.624 198.843 13.522 198.479 13.522C198.067 13.522 197.729 13.62 197.465 13.816C197.201 14.008 197.005 14.272 196.877 14.608C196.749 14.944 196.683 15.328 196.679 15.76C196.683 16.428 196.835 16.968 197.135 17.38C197.439 17.792 197.887 17.998 198.479 17.998C198.883 17.998 199.209 17.906 199.457 17.722C199.709 17.534 199.901 17.266 200.033 16.918L201.305 17.218C201.093 17.85 200.743 18.336 200.255 18.676C199.767 19.012 199.175 19.18 198.479 19.18ZM205.124 19.18C204.46 19.18 203.896 19.032 203.432 18.736C202.968 18.44 202.612 18.034 202.364 17.518C202.12 17.002 201.996 16.416 201.992 15.76C201.996 15.092 202.124 14.502 202.376 13.99C202.628 13.474 202.988 13.07 203.456 12.778C203.924 12.486 204.486 12.34 205.142 12.34C205.85 12.34 206.454 12.516 206.954 12.868C207.458 13.22 207.79 13.702 207.95 14.314L206.702 14.674C206.578 14.31 206.374 14.028 206.09 13.828C205.81 13.624 205.488 13.522 205.124 13.522C204.712 13.522 204.374 13.62 204.11 13.816C203.846 14.008 203.65 14.272 203.522 14.608C203.394 14.944 203.328 15.328 203.324 15.76C203.328 16.428 203.48 16.968 203.78 17.38C204.084 17.792 204.532 17.998 205.124 17.998C205.528 17.998 205.854 17.906 206.102 17.722C206.354 17.534 206.546 17.266 206.678 16.918L207.95 17.218C207.738 17.85 207.388 18.336 206.9 18.676C206.412 19.012 205.82 19.18 205.124 19.18ZM211.81 19.18C211.162 19.18 210.6 19.034 210.124 18.742C209.648 18.45 209.28 18.048 209.02 17.536C208.764 17.02 208.636 16.426 208.636 15.754C208.636 15.078 208.768 14.484 209.032 13.972C209.296 13.456 209.666 13.056 210.142 12.772C210.618 12.484 211.174 12.34 211.81 12.34C212.458 12.34 213.02 12.486 213.496 12.778C213.972 13.07 214.34 13.472 214.6 13.984C214.86 14.496 214.99 15.086 214.99 15.754C214.99 16.43 214.858 17.026 214.594 17.542C214.334 18.054 213.966 18.456 213.49 18.748C213.014 19.036 212.454 19.18 211.81 19.18ZM211.81 17.998C212.43 17.998 212.892 17.79 213.196 17.374C213.504 16.954 213.658 16.414 213.658 15.754C213.658 15.078 213.502 14.538 213.19 14.134C212.882 13.726 212.422 13.522 211.81 13.522C211.39 13.522 211.044 13.618 210.772 13.81C210.5 13.998 210.298 14.26 210.166 14.596C210.034 14.928 209.968 15.314 209.968 15.754C209.968 16.434 210.124 16.978 210.436 17.386C210.748 17.794 211.206 17.998 211.81 17.998ZM218.751 19.174C218.303 19.174 217.927 19.102 217.623 18.958C217.319 18.814 217.071 18.626 216.879 18.394C216.691 18.158 216.547 17.902 216.447 17.626C216.347 17.35 216.279 17.08 216.243 16.816C216.207 16.552 216.189 16.32 216.189 16.12V12.52H217.461V15.706C217.461 15.958 217.481 16.218 217.521 16.486C217.565 16.75 217.645 16.996 217.761 17.224C217.881 17.452 218.047 17.636 218.259 17.776C218.475 17.916 218.755 17.986 219.099 17.986C219.323 17.986 219.535 17.95 219.735 17.878C219.935 17.802 220.109 17.682 220.257 17.518C220.409 17.354 220.527 17.138 220.611 16.87C220.699 16.602 220.743 16.276 220.743 15.892L221.523 16.186C221.523 16.774 221.413 17.294 221.193 17.746C220.973 18.194 220.657 18.544 220.245 18.796C219.833 19.048 219.335 19.174 218.751 19.174ZM220.893 19V17.128H220.743V12.52H222.009V19H220.893ZM228.24 19V15.814C228.24 15.562 228.218 15.304 228.174 15.04C228.134 14.772 228.054 14.524 227.934 14.296C227.818 14.068 227.652 13.884 227.436 13.744C227.224 13.604 226.946 13.534 226.602 13.534C226.378 13.534 226.166 13.572 225.966 13.648C225.766 13.72 225.59 13.838 225.438 14.002C225.29 14.166 225.172 14.382 225.084 14.65C225 14.918 224.958 15.244 224.958 15.628L224.178 15.334C224.178 14.746 224.288 14.228 224.508 13.78C224.728 13.328 225.044 12.976 225.456 12.724C225.868 12.472 226.366 12.346 226.95 12.346C227.398 12.346 227.774 12.418 228.078 12.562C228.382 12.706 228.628 12.896 228.816 13.132C229.008 13.364 229.154 13.618 229.254 13.894C229.354 14.17 229.422 14.44 229.458 14.704C229.494 14.968 229.512 15.2 229.512 15.4V19H228.24ZM223.686 19V12.52H224.808V14.392H224.958V19H223.686ZM234.782 19C234.374 19.08 233.974 19.114 233.582 19.102C233.19 19.09 232.84 19.014 232.532 18.874C232.224 18.734 231.992 18.514 231.836 18.214C231.696 17.946 231.62 17.674 231.608 17.398C231.6 17.118 231.596 16.802 231.596 16.45V10.72H232.856V16.39C232.856 16.65 232.858 16.876 232.862 17.068C232.87 17.26 232.912 17.422 232.988 17.554C233.132 17.802 233.36 17.944 233.672 17.98C233.988 18.012 234.358 17.998 234.782 17.938V19ZM230.354 13.528V12.52H234.782V13.528H230.354ZM236.269 11.458V10.24H237.523V11.458H236.269ZM236.269 19V12.52H237.523V19H236.269ZM243.872 19V15.814C243.872 15.562 243.85 15.304 243.806 15.04C243.766 14.772 243.686 14.524 243.566 14.296C243.45 14.068 243.284 13.884 243.068 13.744C242.856 13.604 242.578 13.534 242.234 13.534C242.01 13.534 241.798 13.572 241.598 13.648C241.398 13.72 241.222 13.838 241.07 14.002C240.922 14.166 240.804 14.382 240.716 14.65C240.632 14.918 240.59 15.244 240.59 15.628L239.81 15.334C239.81 14.746 239.92 14.228 240.14 13.78C240.36 13.328 240.676 12.976 241.088 12.724C241.5 12.472 241.998 12.346 242.582 12.346C243.03 12.346 243.406 12.418 243.71 12.562C244.014 12.706 244.26 12.896 244.448 13.132C244.64 13.364 244.786 13.618 244.886 13.894C244.986 14.17 245.054 14.44 245.09 14.704C245.126 14.968 245.144 15.2 245.144 15.4V19H243.872ZM239.318 19V12.52H240.44V14.392H240.59V19H239.318ZM249.377 22.06C249.029 22.06 248.691 22.006 248.363 21.898C248.039 21.79 247.743 21.63 247.475 21.418C247.207 21.21 246.985 20.952 246.809 20.644L247.967 20.056C248.107 20.332 248.307 20.534 248.567 20.662C248.827 20.79 249.101 20.854 249.389 20.854C249.745 20.854 250.049 20.79 250.301 20.662C250.553 20.538 250.743 20.35 250.871 20.098C251.003 19.846 251.067 19.534 251.063 19.162V17.35H251.213V12.52H252.323V19.174C252.323 19.346 252.317 19.51 252.305 19.666C252.293 19.822 252.271 19.978 252.239 20.134C252.147 20.57 251.971 20.93 251.711 21.214C251.455 21.498 251.127 21.71 250.727 21.85C250.331 21.99 249.881 22.06 249.377 22.06ZM249.281 19.18C248.677 19.18 248.155 19.03 247.715 18.73C247.279 18.43 246.941 18.022 246.701 17.506C246.465 16.986 246.347 16.402 246.347 15.754C246.347 15.102 246.467 14.52 246.707 14.008C246.947 13.492 247.287 13.086 247.727 12.79C248.171 12.49 248.697 12.34 249.305 12.34C249.917 12.34 250.431 12.49 250.847 12.79C251.267 13.086 251.583 13.492 251.795 14.008C252.011 14.524 252.119 15.106 252.119 15.754C252.119 16.402 252.011 16.984 251.795 17.5C251.579 18.016 251.261 18.426 250.841 18.73C250.421 19.03 249.901 19.18 249.281 19.18ZM249.455 18.046C249.867 18.046 250.203 17.948 250.463 17.752C250.723 17.556 250.913 17.286 251.033 16.942C251.153 16.598 251.213 16.202 251.213 15.754C251.213 15.306 251.151 14.91 251.027 14.566C250.907 14.222 250.719 13.954 250.463 13.762C250.211 13.57 249.889 13.474 249.497 13.474C249.081 13.474 248.739 13.576 248.471 13.78C248.203 13.984 248.003 14.258 247.871 14.602C247.743 14.946 247.679 15.33 247.679 15.754C247.679 16.182 247.743 16.57 247.871 16.918C248.003 17.262 248.199 17.536 248.459 17.74C248.723 17.944 249.055 18.046 249.455 18.046Z" fill="#171717"/>
<path d="M260 1H287C294.18 1 300 6.8203 300 14C300 21.1797 294.18 27 287 27H260V1Z" fill="#E4FFF4"/>
<path d="M270.648 10.186C271.204 10.186 271.706 10.32 272.154 10.588C272.602 10.852 272.958 11.216 273.222 11.68C273.486 12.144 273.618 12.674 273.618 13.27V16.018C273.618 16.65 273.486 17.204 273.222 17.68C272.962 18.152 272.598 18.52 272.13 18.784C271.666 19.048 271.13 19.18 270.522 19.18C270.066 19.18 269.638 19.094 269.238 18.922C268.838 18.75 268.49 18.494 268.194 18.154L269.118 17.296C269.282 17.508 269.488 17.678 269.736 17.806C269.984 17.934 270.246 17.998 270.522 17.998C270.878 17.998 271.192 17.912 271.464 17.74C271.74 17.568 271.954 17.344 272.106 17.068C272.258 16.792 272.334 16.496 272.334 16.18V14.596L272.586 14.872C272.338 15.196 272.03 15.452 271.662 15.64C271.294 15.828 270.9 15.922 270.48 15.922C269.94 15.922 269.46 15.798 269.04 15.55C268.62 15.302 268.288 14.964 268.044 14.536C267.8 14.108 267.678 13.624 267.678 13.084C267.678 12.544 267.814 12.056 268.086 11.62C268.358 11.184 268.718 10.836 269.166 10.576C269.614 10.316 270.108 10.186 270.648 10.186ZM270.648 11.398C270.336 11.398 270.05 11.474 269.79 11.626C269.534 11.774 269.33 11.976 269.178 12.232C269.026 12.488 268.95 12.772 268.95 13.084C268.95 13.396 269.026 13.682 269.178 13.942C269.33 14.198 269.534 14.402 269.79 14.554C270.046 14.706 270.33 14.782 270.642 14.782C270.954 14.782 271.238 14.706 271.494 14.554C271.75 14.402 271.954 14.198 272.106 13.942C272.258 13.682 272.334 13.396 272.334 13.084C272.334 12.776 272.258 12.494 272.106 12.238C271.958 11.982 271.756 11.778 271.5 11.626C271.244 11.474 270.96 11.398 270.648 11.398ZM277.477 10.36H278.743L276.439 19H275.173L277.477 10.36ZM281.815 19V11.74L280.189 12.73V11.332L281.815 10.36H283.093V19H281.815ZM288.383 19.18C287.795 19.18 287.275 19.052 286.823 18.796C286.371 18.536 286.015 18.18 285.755 17.728C285.499 17.276 285.371 16.756 285.371 16.168V13.192C285.371 12.604 285.499 12.084 285.755 11.632C286.015 11.18 286.371 10.826 286.823 10.57C287.275 10.31 287.795 10.18 288.383 10.18C288.971 10.18 289.491 10.31 289.943 10.57C290.395 10.826 290.749 11.18 291.005 11.632C291.265 12.084 291.395 12.604 291.395 13.192V16.168C291.395 16.756 291.265 17.276 291.005 17.728C290.749 18.18 290.395 18.536 289.943 18.796C289.491 19.052 288.971 19.18 288.383 19.18ZM288.383 17.98C288.703 17.98 288.993 17.904 289.253 17.752C289.517 17.596 289.727 17.388 289.883 17.128C290.039 16.864 290.117 16.57 290.117 16.246V13.102C290.117 12.782 290.039 12.492 289.883 12.232C289.727 11.968 289.517 11.76 289.253 11.608C288.993 11.452 288.703 11.374 288.383 11.374C288.063 11.374 287.771 11.452 287.507 11.608C287.247 11.76 287.039 11.968 286.883 12.232C286.727 12.492 286.649 12.782 286.649 13.102V16.246C286.649 16.57 286.727 16.864 286.883 17.128C287.039 17.388 287.247 17.596 287.507 17.752C287.771 17.904 288.063 17.98 288.383 17.98Z" fill="#00BA70"/>
<path d="M260 1V27" stroke="#E2E2E2"/>
<rect x="0.5" y="35.5" width="161" height="27" rx="13.5" stroke="#E3E3E3"/>
<path d="M13.374 54.18C12.794 54.18 12.26 54.08 11.772 53.88C11.284 53.676 10.86 53.38 10.5 52.992C10.14 52.604 9.86 52.132 9.66 51.576C9.46 51.02 9.36 50.388 9.36 49.68C9.36 48.748 9.53 47.948 9.87 47.28C10.21 46.608 10.682 46.092 11.286 45.732C11.89 45.368 12.586 45.186 13.374 45.186C14.39 45.186 15.2 45.422 15.804 45.894C16.412 46.366 16.826 47.018 17.046 47.85L15.774 48.078C15.598 47.562 15.314 47.15 14.922 46.842C14.53 46.534 14.038 46.378 13.446 46.374C12.834 46.37 12.324 46.506 11.916 46.782C11.512 47.058 11.208 47.446 11.004 47.946C10.8 48.442 10.696 49.02 10.692 49.68C10.688 50.34 10.788 50.918 10.992 51.414C11.196 51.906 11.502 52.29 11.91 52.566C12.322 52.842 12.834 52.982 13.446 52.986C13.938 52.994 14.36 52.904 14.712 52.716C15.068 52.524 15.35 52.244 15.558 51.876C15.766 51.508 15.9 51.056 15.96 50.52H14.28V49.512H17.292C17.3 49.584 17.306 49.68 17.31 49.8C17.314 49.916 17.316 49.99 17.316 50.022C17.316 50.822 17.162 51.536 16.854 52.164C16.546 52.792 16.098 53.286 15.51 53.646C14.922 54.002 14.21 54.18 13.374 54.18ZM18.6319 54V45.36H19.8859V52.818H23.7979V54H18.6319ZM26.6213 54V45.36H30.1133C30.1973 45.36 30.3013 45.364 30.4253 45.372C30.5493 45.376 30.6673 45.388 30.7793 45.408C31.2593 45.484 31.6593 45.648 31.9792 45.9C32.3033 46.152 32.5453 46.47 32.7053 46.854C32.8653 47.238 32.9453 47.662 32.9453 48.126C32.9453 48.814 32.7693 49.408 32.4173 49.908C32.0653 50.404 31.5373 50.714 30.8333 50.838L30.3233 50.898H27.8753V54H26.6213ZM31.6733 54L29.9693 50.484L31.2353 50.16L33.1073 54H31.6733ZM27.8753 49.71H30.0653C30.1453 49.71 30.2333 49.706 30.3293 49.698C30.4293 49.69 30.5233 49.676 30.6113 49.656C30.8673 49.596 31.0733 49.486 31.2293 49.326C31.3853 49.162 31.4973 48.974 31.5653 48.762C31.6333 48.55 31.6673 48.338 31.6673 48.126C31.6673 47.914 31.6333 47.704 31.5653 47.496C31.4973 47.284 31.3853 47.098 31.2293 46.938C31.0733 46.774 30.8673 46.662 30.6113 46.602C30.5233 46.578 30.4293 46.562 30.3293 46.554C30.2333 46.546 30.1453 46.542 30.0653 46.542H27.8753V49.71ZM37.2999 54.18C36.6559 54.18 36.0899 54.04 35.6019 53.76C35.1179 53.476 34.7399 53.082 34.4679 52.578C34.1999 52.07 34.0659 51.482 34.0659 50.814C34.0659 50.106 34.1979 49.492 34.4619 48.972C34.7299 48.452 35.1019 48.05 35.5779 47.766C36.0539 47.482 36.6079 47.34 37.2399 47.34C37.8999 47.34 38.4619 47.494 38.9259 47.802C39.3899 48.106 39.7359 48.54 39.9639 49.104C40.1959 49.668 40.2879 50.338 40.2399 51.114H38.9859V50.658C38.9779 49.906 38.8339 49.35 38.5539 48.99C38.2779 48.63 37.8559 48.45 37.2879 48.45C36.6599 48.45 36.1879 48.648 35.8719 49.044C35.5559 49.44 35.3979 50.012 35.3979 50.76C35.3979 51.472 35.5559 52.024 35.8719 52.416C36.1879 52.804 36.6439 52.998 37.2399 52.998C37.6319 52.998 37.9699 52.91 38.2539 52.734C38.5419 52.554 38.7659 52.298 38.9259 51.966L40.1559 52.356C39.9039 52.936 39.5219 53.386 39.0099 53.706C38.4979 54.022 37.9279 54.18 37.2999 54.18ZM34.9899 51.114V50.136H39.6159V51.114H34.9899ZM44.3581 54.18C43.6941 54.18 43.1301 54.032 42.6661 53.736C42.2021 53.44 41.8461 53.034 41.5981 52.518C41.3541 52.002 41.2301 51.416 41.2261 50.76C41.2301 50.092 41.3581 49.502 41.6101 48.99C41.8621 48.474 42.2221 48.07 42.6901 47.778C43.1581 47.486 43.7201 47.34 44.3761 47.34C45.0841 47.34 45.6881 47.516 46.1881 47.868C46.6921 48.22 47.0241 48.702 47.1841 49.314L45.9361 49.674C45.8121 49.31 45.6081 49.028 45.3241 48.828C45.0441 48.624 44.7221 48.522 44.3581 48.522C43.9461 48.522 43.6081 48.62 43.3441 48.816C43.0801 49.008 42.8841 49.272 42.7561 49.608C42.6281 49.944 42.5621 50.328 42.5581 50.76C42.5621 51.428 42.7141 51.968 43.0141 52.38C43.3181 52.792 43.7661 52.998 44.3581 52.998C44.7621 52.998 45.0881 52.906 45.3361 52.722C45.5881 52.534 45.7801 52.266 45.9121 51.918L47.1841 52.218C46.9721 52.85 46.6221 53.336 46.1341 53.676C45.6461 54.012 45.0541 54.18 44.3581 54.18ZM51.0446 54.18C50.3966 54.18 49.8346 54.034 49.3586 53.742C48.8826 53.45 48.5146 53.048 48.2546 52.536C47.9986 52.02 47.8706 51.426 47.8706 50.754C47.8706 50.078 48.0026 49.484 48.2666 48.972C48.5306 48.456 48.9006 48.056 49.3766 47.772C49.8526 47.484 50.4086 47.34 51.0446 47.34C51.6926 47.34 52.2546 47.486 52.7306 47.778C53.2066 48.07 53.5746 48.472 53.8346 48.984C54.0946 49.496 54.2246 50.086 54.2246 50.754C54.2246 51.43 54.0926 52.026 53.8286 52.542C53.5686 53.054 53.2006 53.456 52.7246 53.748C52.2486 54.036 51.6886 54.18 51.0446 54.18ZM51.0446 52.998C51.6646 52.998 52.1266 52.79 52.4306 52.374C52.7386 51.954 52.8926 51.414 52.8926 50.754C52.8926 50.078 52.7366 49.538 52.4246 49.134C52.1166 48.726 51.6566 48.522 51.0446 48.522C50.6246 48.522 50.2786 48.618 50.0066 48.81C49.7346 48.998 49.5326 49.26 49.4006 49.596C49.2686 49.928 49.2026 50.314 49.2026 50.754C49.2026 51.434 49.3586 51.978 49.6706 52.386C49.9826 52.794 50.4406 52.998 51.0446 52.998ZM60.0911 54V50.814C60.0911 50.562 60.0691 50.304 60.0251 50.04C59.9851 49.772 59.9051 49.524 59.7851 49.296C59.6691 49.068 59.5031 48.884 59.2871 48.744C59.0751 48.604 58.7971 48.534 58.4531 48.534C58.2291 48.534 58.0171 48.572 57.8171 48.648C57.6171 48.72 57.4411 48.838 57.2891 49.002C57.1411 49.166 57.0231 49.382 56.9351 49.65C56.8511 49.918 56.8091 50.244 56.8091 50.628L56.0291 50.334C56.0291 49.746 56.1391 49.228 56.3591 48.78C56.5791 48.328 56.8951 47.976 57.3071 47.724C57.7191 47.472 58.2171 47.346 58.8011 47.346C59.2491 47.346 59.6251 47.418 59.9291 47.562C60.2331 47.706 60.4791 47.896 60.6671 48.132C60.8591 48.364 61.0051 48.618 61.1051 48.894C61.2051 49.17 61.2731 49.44 61.3091 49.704C61.3451 49.968 61.3631 50.2 61.3631 50.4V54H60.0911ZM55.5371 54V47.52H56.6591V49.392H56.8091V54H55.5371ZM65.6159 54.18C64.9519 54.18 64.3879 54.032 63.9239 53.736C63.4599 53.44 63.1039 53.034 62.8559 52.518C62.6119 52.002 62.4879 51.416 62.4839 50.76C62.4879 50.092 62.6159 49.502 62.8679 48.99C63.1199 48.474 63.4799 48.07 63.9479 47.778C64.4159 47.486 64.9779 47.34 65.6339 47.34C66.3419 47.34 66.9459 47.516 67.4459 47.868C67.9499 48.22 68.2819 48.702 68.4419 49.314L67.1939 49.674C67.0699 49.31 66.8659 49.028 66.5819 48.828C66.3019 48.624 65.9799 48.522 65.6159 48.522C65.2039 48.522 64.8659 48.62 64.6019 48.816C64.3379 49.008 64.1419 49.272 64.0139 49.608C63.8859 49.944 63.8199 50.328 63.8159 50.76C63.8199 51.428 63.9719 51.968 64.2719 52.38C64.5759 52.792 65.0239 52.998 65.6159 52.998C66.0199 52.998 66.3459 52.906 66.5939 52.722C66.8459 52.534 67.0379 52.266 67.1699 51.918L68.4419 52.218C68.2299 52.85 67.8799 53.336 67.3919 53.676C66.9039 54.012 66.3119 54.18 65.6159 54.18ZM69.6084 46.458V45.24H70.8624V46.458H69.6084ZM69.6084 54V47.52H70.8624V54H69.6084ZM72.7842 54V45.18H74.0382V54H72.7842ZM75.96 46.458V45.24H77.214V46.458H75.96ZM75.96 54V47.52H77.214V54H75.96ZM80.8458 54.18C80.3658 54.18 79.9638 54.092 79.6398 53.916C79.3158 53.736 79.0698 53.5 78.9018 53.208C78.7378 52.912 78.6558 52.588 78.6558 52.236C78.6558 51.908 78.7138 51.62 78.8298 51.372C78.9458 51.124 79.1178 50.914 79.3458 50.742C79.5738 50.566 79.8538 50.424 80.1858 50.316C80.4738 50.232 80.7998 50.158 81.1638 50.094C81.5278 50.03 81.9098 49.97 82.3098 49.914C82.7138 49.858 83.1138 49.802 83.5098 49.746L83.0538 49.998C83.0618 49.49 82.9538 49.114 82.7298 48.87C82.5098 48.622 82.1298 48.498 81.5898 48.498C81.2498 48.498 80.9378 48.578 80.6538 48.738C80.3698 48.894 80.1718 49.154 80.0598 49.518L78.8898 49.158C79.0498 48.602 79.3538 48.16 79.8018 47.832C80.2538 47.504 80.8538 47.34 81.6018 47.34C82.1818 47.34 82.6858 47.44 83.1138 47.64C83.5458 47.836 83.8618 48.148 84.0618 48.576C84.1658 48.788 84.2298 49.012 84.2538 49.248C84.2778 49.484 84.2898 49.738 84.2898 50.01V54H83.1798V52.518L83.3958 52.71C83.1278 53.206 82.7858 53.576 82.3698 53.82C81.9578 54.06 81.4498 54.18 80.8458 54.18ZM81.0678 53.154C81.4238 53.154 81.7298 53.092 81.9858 52.968C82.2418 52.84 82.4478 52.678 82.6038 52.482C82.7598 52.286 82.8618 52.082 82.9098 51.87C82.9778 51.678 83.0158 51.462 83.0238 51.222C83.0358 50.982 83.0418 50.79 83.0418 50.646L83.4498 50.796C83.0538 50.856 82.6938 50.91 82.3698 50.958C82.0458 51.006 81.7518 51.054 81.4878 51.102C81.2278 51.146 80.9958 51.2 80.7918 51.264C80.6198 51.324 80.4658 51.396 80.3298 51.48C80.1978 51.564 80.0918 51.666 80.0118 51.786C79.9358 51.906 79.8978 52.052 79.8978 52.224C79.8978 52.392 79.9398 52.548 80.0238 52.692C80.1078 52.832 80.2358 52.944 80.4078 53.028C80.5798 53.112 80.7998 53.154 81.0678 53.154ZM89.5558 54C89.1478 54.08 88.7478 54.114 88.3558 54.102C87.9638 54.09 87.6138 54.014 87.3058 53.874C86.9978 53.734 86.7658 53.514 86.6098 53.214C86.4698 52.946 86.3938 52.674 86.3818 52.398C86.3738 52.118 86.3698 51.802 86.3698 51.45V45.72H87.6298V51.39C87.6298 51.65 87.6318 51.876 87.6358 52.068C87.6438 52.26 87.6858 52.422 87.7618 52.554C87.9058 52.802 88.1338 52.944 88.4458 52.98C88.7618 53.012 89.1318 52.998 89.5558 52.938V54ZM85.1278 48.528V47.52H89.5558V48.528H85.1278ZM91.042 46.458V45.24H92.296V46.458H91.042ZM91.042 54V47.52H92.296V54H91.042ZM96.9118 54.18C96.2638 54.18 95.7018 54.034 95.2258 53.742C94.7498 53.45 94.3818 53.048 94.1218 52.536C93.8658 52.02 93.7378 51.426 93.7378 50.754C93.7378 50.078 93.8698 49.484 94.1338 48.972C94.3978 48.456 94.7678 48.056 95.2438 47.772C95.7198 47.484 96.2758 47.34 96.9118 47.34C97.5598 47.34 98.1218 47.486 98.5978 47.778C99.0738 48.07 99.4418 48.472 99.7018 48.984C99.9618 49.496 100.092 50.086 100.092 50.754C100.092 51.43 99.9598 52.026 99.6958 52.542C99.4358 53.054 99.0678 53.456 98.5918 53.748C98.1158 54.036 97.5558 54.18 96.9118 54.18ZM96.9118 52.998C97.5318 52.998 97.9938 52.79 98.2978 52.374C98.6058 51.954 98.7598 51.414 98.7598 50.754C98.7598 50.078 98.6038 49.538 98.2918 49.134C97.9838 48.726 97.5238 48.522 96.9118 48.522C96.4918 48.522 96.1458 48.618 95.8738 48.81C95.6018 48.998 95.3998 49.26 95.2678 49.596C95.1358 49.928 95.0698 50.314 95.0698 50.754C95.0698 51.434 95.2258 51.978 95.5378 52.386C95.8498 52.794 96.3078 52.998 96.9118 52.998ZM105.958 54V50.814C105.958 50.562 105.936 50.304 105.892 50.04C105.852 49.772 105.772 49.524 105.652 49.296C105.536 49.068 105.37 48.884 105.154 48.744C104.942 48.604 104.664 48.534 104.32 48.534C104.096 48.534 103.884 48.572 103.684 48.648C103.484 48.72 103.308 48.838 103.156 49.002C103.008 49.166 102.89 49.382 102.802 49.65C102.718 49.918 102.676 50.244 102.676 50.628L101.896 50.334C101.896 49.746 102.006 49.228 102.226 48.78C102.446 48.328 102.762 47.976 103.174 47.724C103.586 47.472 104.084 47.346 104.668 47.346C105.116 47.346 105.492 47.418 105.796 47.562C106.1 47.706 106.346 47.896 106.534 48.132C106.726 48.364 106.872 48.618 106.972 48.894C107.072 49.17 107.14 49.44 107.176 49.704C107.212 49.968 107.23 50.2 107.23 50.4V54H105.958ZM101.404 54V47.52H102.526V49.392H102.676V54H101.404ZM111.271 54.174C110.483 54.174 109.841 54 109.345 53.652C108.849 53.304 108.545 52.814 108.433 52.182L109.717 51.984C109.797 52.32 109.981 52.586 110.269 52.782C110.561 52.974 110.923 53.07 111.355 53.07C111.747 53.07 112.053 52.99 112.273 52.83C112.497 52.67 112.609 52.45 112.609 52.17C112.609 52.006 112.569 51.874 112.489 51.774C112.413 51.67 112.251 51.572 112.003 51.48C111.755 51.388 111.377 51.274 110.869 51.138C110.313 50.994 109.871 50.84 109.543 50.676C109.219 50.508 108.987 50.314 108.847 50.094C108.711 49.87 108.643 49.6 108.643 49.284C108.643 48.892 108.747 48.55 108.955 48.258C109.163 47.966 109.455 47.74 109.831 47.58C110.211 47.42 110.655 47.34 111.163 47.34C111.659 47.34 112.101 47.418 112.489 47.574C112.877 47.73 113.191 47.952 113.431 48.24C113.671 48.524 113.815 48.858 113.863 49.242L112.579 49.476C112.535 49.164 112.389 48.918 112.141 48.738C111.893 48.558 111.571 48.46 111.175 48.444C110.795 48.428 110.487 48.492 110.251 48.636C110.015 48.776 109.897 48.97 109.897 49.218C109.897 49.362 109.941 49.484 110.029 49.584C110.121 49.684 110.297 49.78 110.557 49.872C110.817 49.964 111.201 50.074 111.709 50.202C112.253 50.342 112.685 50.498 113.005 50.67C113.325 50.838 113.553 51.04 113.689 51.276C113.829 51.508 113.899 51.79 113.899 52.122C113.899 52.762 113.665 53.264 113.197 53.628C112.733 53.992 112.091 54.174 111.271 54.174Z" fill="#171717"/>
<path d="M121 36H148C155.18 36 161 41.8203 161 49C161 56.1797 155.18 62 148 62H121V36Z" fill="#E4FFF4"/>
<path d="M131.648 45.186C132.204 45.186 132.706 45.32 133.154 45.588C133.602 45.852 133.958 46.216 134.222 46.68C134.486 47.144 134.618 47.674 134.618 48.27V51.018C134.618 51.65 134.486 52.204 134.222 52.68C133.962 53.152 133.598 53.52 133.13 53.784C132.666 54.048 132.13 54.18 131.522 54.18C131.066 54.18 130.638 54.094 130.238 53.922C129.838 53.75 129.49 53.494 129.194 53.154L130.118 52.296C130.282 52.508 130.488 52.678 130.736 52.806C130.984 52.934 131.246 52.998 131.522 52.998C131.878 52.998 132.192 52.912 132.464 52.74C132.74 52.568 132.954 52.344 133.106 52.068C133.258 51.792 133.334 51.496 133.334 51.18V49.596L133.586 49.872C133.338 50.196 133.03 50.452 132.662 50.64C132.294 50.828 131.9 50.922 131.48 50.922C130.94 50.922 130.46 50.798 130.04 50.55C129.62 50.302 129.288 49.964 129.044 49.536C128.8 49.108 128.678 48.624 128.678 48.084C128.678 47.544 128.814 47.056 129.086 46.62C129.358 46.184 129.718 45.836 130.166 45.576C130.614 45.316 131.108 45.186 131.648 45.186ZM131.648 46.398C131.336 46.398 131.05 46.474 130.79 46.626C130.534 46.774 130.33 46.976 130.178 47.232C130.026 47.488 129.95 47.772 129.95 48.084C129.95 48.396 130.026 48.682 130.178 48.942C130.33 49.198 130.534 49.402 130.79 49.554C131.046 49.706 131.33 49.782 131.642 49.782C131.954 49.782 132.238 49.706 132.494 49.554C132.75 49.402 132.954 49.198 133.106 48.942C133.258 48.682 133.334 48.396 133.334 48.084C133.334 47.776 133.258 47.494 133.106 47.238C132.958 46.982 132.756 46.778 132.5 46.626C132.244 46.474 131.96 46.398 131.648 46.398ZM138.477 45.36H139.743L137.439 54H136.173L138.477 45.36ZM142.815 54V46.74L141.189 47.73V46.332L142.815 45.36H144.093V54H142.815ZM149.383 54.18C148.795 54.18 148.275 54.052 147.823 53.796C147.371 53.536 147.015 53.18 146.755 52.728C146.499 52.276 146.371 51.756 146.371 51.168V48.192C146.371 47.604 146.499 47.084 146.755 46.632C147.015 46.18 147.371 45.826 147.823 45.57C148.275 45.31 148.795 45.18 149.383 45.18C149.971 45.18 150.491 45.31 150.943 45.57C151.395 45.826 151.749 46.18 152.005 46.632C152.265 47.084 152.395 47.604 152.395 48.192V51.168C152.395 51.756 152.265 52.276 152.005 52.728C151.749 53.18 151.395 53.536 150.943 53.796C150.491 54.052 149.971 54.18 149.383 54.18ZM149.383 52.98C149.703 52.98 149.993 52.904 150.253 52.752C150.517 52.596 150.727 52.388 150.883 52.128C151.039 51.864 151.117 51.57 151.117 51.246V48.102C151.117 47.782 151.039 47.492 150.883 47.232C150.727 46.968 150.517 46.76 150.253 46.608C149.993 46.452 149.703 46.374 149.383 46.374C149.063 46.374 148.771 46.452 148.507 46.608C148.247 46.76 148.039 46.968 147.883 47.232C147.727 47.492 147.649 47.782 147.649 48.102V51.246C147.649 51.57 147.727 51.864 147.883 52.128C148.039 52.388 148.247 52.596 148.507 52.752C148.771 52.904 149.063 52.98 149.383 52.98Z" fill="#00BA70"/>
<path d="M121 36V62" stroke="#E2E2E2"/>
<rect x="169.5" y="35.5" width="80" height="27" rx="13.5" stroke="#E3E3E3"/>
<path d="M182.446 54.18C181.582 54.18 180.846 53.992 180.238 53.616C179.63 53.236 179.164 52.708 178.84 52.032C178.52 51.356 178.36 50.572 178.36 49.68C178.36 48.788 178.52 48.004 178.84 47.328C179.164 46.652 179.63 46.126 180.238 45.75C180.846 45.37 181.582 45.18 182.446 45.18C183.306 45.18 184.04 45.37 184.648 45.75C185.26 46.126 185.726 46.652 186.046 47.328C186.366 48.004 186.526 48.788 186.526 49.68C186.526 50.572 186.366 51.356 186.046 52.032C185.726 52.708 185.26 53.236 184.648 53.616C184.04 53.992 183.306 54.18 182.446 54.18ZM182.446 52.986C183.058 52.994 183.566 52.86 183.97 52.584C184.378 52.304 184.684 51.916 184.888 51.42C185.092 50.92 185.194 50.34 185.194 49.68C185.194 49.02 185.092 48.444 184.888 47.952C184.684 47.456 184.378 47.07 183.97 46.794C183.566 46.518 183.058 46.378 182.446 46.374C181.834 46.366 181.324 46.5 180.916 46.776C180.512 47.052 180.208 47.44 180.004 47.94C179.8 48.44 179.696 49.02 179.692 49.68C179.688 50.34 179.788 50.918 179.992 51.414C180.196 51.906 180.502 52.29 180.91 52.566C181.322 52.842 181.834 52.982 182.446 52.986ZM187.483 53.994L187.489 52.878L191.251 49.506C191.555 49.238 191.761 48.982 191.869 48.738C191.981 48.494 192.037 48.25 192.037 48.006C192.037 47.698 191.969 47.422 191.833 47.178C191.697 46.93 191.509 46.734 191.269 46.59C191.029 46.446 190.753 46.374 190.441 46.374C190.121 46.374 189.835 46.45 189.583 46.602C189.335 46.75 189.141 46.948 189.001 47.196C188.861 47.444 188.793 47.712 188.797 48H187.513C187.513 47.44 187.639 46.95 187.891 46.53C188.147 46.106 188.497 45.776 188.941 45.54C189.385 45.3 189.893 45.18 190.465 45.18C191.009 45.18 191.497 45.304 191.929 45.552C192.361 45.796 192.701 46.132 192.949 46.56C193.201 46.988 193.327 47.476 193.327 48.024C193.327 48.42 193.275 48.756 193.171 49.032C193.067 49.308 192.911 49.564 192.703 49.8C192.495 50.036 192.235 50.292 191.923 50.568L189.019 53.16L188.881 52.8H193.327V53.994H187.483ZM198.372 54.18C197.508 54.18 196.772 53.992 196.164 53.616C195.556 53.236 195.09 52.708 194.766 52.032C194.446 51.356 194.286 50.572 194.286 49.68C194.286 48.788 194.446 48.004 194.766 47.328C195.09 46.652 195.556 46.126 196.164 45.75C196.772 45.37 197.508 45.18 198.372 45.18C199.368 45.18 200.192 45.432 200.844 45.936C201.5 46.44 201.956 47.118 202.212 47.97L200.94 48.312C200.772 47.708 200.472 47.234 200.04 46.89C199.612 46.546 199.056 46.374 198.372 46.374C197.76 46.374 197.25 46.512 196.842 46.788C196.434 47.064 196.126 47.45 195.918 47.946C195.714 48.442 195.612 49.02 195.612 49.68C195.608 50.34 195.708 50.918 195.912 51.414C196.12 51.91 196.428 52.296 196.836 52.572C197.248 52.848 197.76 52.986 198.372 52.986C199.056 52.986 199.612 52.814 200.04 52.47C200.472 52.122 200.772 51.648 200.94 51.048L202.212 51.39C201.956 52.242 201.5 52.92 200.844 53.424C200.192 53.928 199.368 54.18 198.372 54.18Z" fill="#171717"/>
<path d="M209 36H236C243.18 36 249 41.8203 249 49C249 56.1797 243.18 62 236 62H209V36Z" fill="#E4FFF4"/>
<path d="M219.606 54.18C219.042 54.18 218.542 54.068 218.106 53.844C217.674 53.616 217.334 53.3 217.086 52.896C216.842 52.492 216.72 52.024 216.72 51.492C216.72 50.996 216.836 50.542 217.068 50.13C217.3 49.718 217.646 49.394 218.106 49.158L218.082 49.59C217.714 49.362 217.43 49.078 217.23 48.738C217.034 48.394 216.936 48.01 216.936 47.586C216.936 47.094 217.05 46.668 217.278 46.308C217.506 45.948 217.82 45.67 218.22 45.474C218.624 45.278 219.086 45.18 219.606 45.18C220.126 45.18 220.586 45.278 220.986 45.474C221.386 45.67 221.7 45.948 221.928 46.308C222.156 46.668 222.27 47.094 222.27 47.586C222.27 48.01 222.176 48.392 221.988 48.732C221.8 49.072 221.512 49.358 221.124 49.59L221.106 49.17C221.562 49.394 221.908 49.714 222.144 50.13C222.38 50.542 222.498 50.996 222.498 51.492C222.498 52.024 222.374 52.492 222.126 52.896C221.878 53.3 221.536 53.616 221.1 53.844C220.664 54.068 220.166 54.18 219.606 54.18ZM219.606 52.986C220.07 52.986 220.446 52.86 220.734 52.608C221.022 52.352 221.166 51.98 221.166 51.492C221.166 51.004 221.022 50.632 220.734 50.376C220.45 50.116 220.074 49.986 219.606 49.986C219.138 49.986 218.76 50.116 218.472 50.376C218.188 50.632 218.046 51.004 218.046 51.492C218.046 51.98 218.19 52.352 218.478 52.608C218.766 52.86 219.142 52.986 219.606 52.986ZM219.606 48.786C220.002 48.786 220.322 48.688 220.566 48.492C220.814 48.292 220.938 47.99 220.938 47.586C220.938 47.182 220.814 46.88 220.566 46.68C220.322 46.476 220.002 46.374 219.606 46.374C219.21 46.374 218.888 46.476 218.64 46.68C218.392 46.88 218.268 47.182 218.268 47.586C218.268 47.99 218.392 48.292 218.64 48.492C218.888 48.688 219.21 48.786 219.606 48.786ZM226.243 45.36H227.509L225.205 54H223.939L226.243 45.36ZM230.58 54V46.74L228.954 47.73V46.332L230.58 45.36H231.858V54H230.58ZM237.149 54.18C236.561 54.18 236.041 54.052 235.589 53.796C235.137 53.536 234.781 53.18 234.521 52.728C234.265 52.276 234.137 51.756 234.137 51.168V48.192C234.137 47.604 234.265 47.084 234.521 46.632C234.781 46.18 235.137 45.826 235.589 45.57C236.041 45.31 236.561 45.18 237.149 45.18C237.737 45.18 238.257 45.31 238.709 45.57C239.161 45.826 239.515 46.18 239.771 46.632C240.031 47.084 240.161 47.604 240.161 48.192V51.168C240.161 51.756 240.031 52.276 239.771 52.728C239.515 53.18 239.161 53.536 238.709 53.796C238.257 54.052 237.737 54.18 237.149 54.18ZM237.149 52.98C237.469 52.98 237.759 52.904 238.019 52.752C238.283 52.596 238.493 52.388 238.649 52.128C238.805 51.864 238.883 51.57 238.883 51.246V48.102C238.883 47.782 238.805 47.492 238.649 47.232C238.493 46.968 238.283 46.76 238.019 46.608C237.759 46.452 237.469 46.374 237.149 46.374C236.829 46.374 236.537 46.452 236.273 46.608C236.013 46.76 235.805 46.968 235.649 47.232C235.493 47.492 235.415 47.782 235.415 48.102V51.246C235.415 51.57 235.493 51.864 235.649 52.128C235.805 52.388 236.013 52.596 236.273 52.752C236.537 52.904 236.829 52.98 237.149 52.98Z" fill="#00BA70"/>
<path d="M209 36V62" stroke="#E2E2E2"/>
<rect x="257.5" y="35.5" width="163" height="27" rx="13.5" stroke="#E3E3E3"/>
<path d="M266.96 54V45.36H268.214V54H266.96ZM274.564 54V50.814C274.564 50.562 274.542 50.304 274.498 50.04C274.458 49.772 274.378 49.524 274.258 49.296C274.142 49.068 273.976 48.884 273.76 48.744C273.548 48.604 273.27 48.534 272.926 48.534C272.702 48.534 272.49 48.572 272.29 48.648C272.09 48.72 271.914 48.838 271.762 49.002C271.614 49.166 271.496 49.382 271.408 49.65C271.324 49.918 271.282 50.244 271.282 50.628L270.502 50.334C270.502 49.746 270.612 49.228 270.832 48.78C271.052 48.328 271.368 47.976 271.78 47.724C272.192 47.472 272.69 47.346 273.274 47.346C273.722 47.346 274.098 47.418 274.402 47.562C274.706 47.706 274.952 47.896 275.14 48.132C275.332 48.364 275.478 48.618 275.578 48.894C275.678 49.17 275.746 49.44 275.782 49.704C275.818 49.968 275.836 50.2 275.836 50.4V54H274.564ZM270.01 54V47.52H271.132V49.392H271.282V54H270.01ZM279.151 54L276.799 47.52H278.065L279.787 52.428L281.509 47.52H282.775L280.423 54H279.151ZM286.435 54.18C285.787 54.18 285.225 54.034 284.749 53.742C284.273 53.45 283.905 53.048 283.645 52.536C283.389 52.02 283.261 51.426 283.261 50.754C283.261 50.078 283.393 49.484 283.657 48.972C283.921 48.456 284.291 48.056 284.767 47.772C285.243 47.484 285.799 47.34 286.435 47.34C287.083 47.34 287.645 47.486 288.121 47.778C288.597 48.07 288.965 48.472 289.225 48.984C289.485 49.496 289.615 50.086 289.615 50.754C289.615 51.43 289.483 52.026 289.219 52.542C288.959 53.054 288.591 53.456 288.115 53.748C287.639 54.036 287.079 54.18 286.435 54.18ZM286.435 52.998C287.055 52.998 287.517 52.79 287.821 52.374C288.129 51.954 288.283 51.414 288.283 50.754C288.283 50.078 288.127 49.538 287.815 49.134C287.507 48.726 287.047 48.522 286.435 48.522C286.015 48.522 285.669 48.618 285.397 48.81C285.125 48.998 284.923 49.26 284.791 49.596C284.659 49.928 284.593 50.314 284.593 50.754C284.593 51.434 284.749 51.978 285.061 52.386C285.373 52.794 285.831 52.998 286.435 52.998ZM291.054 46.458V45.24H292.308V46.458H291.054ZM291.054 54V47.52H292.308V54H291.054ZM296.882 54.18C296.218 54.18 295.654 54.032 295.19 53.736C294.726 53.44 294.37 53.034 294.122 52.518C293.878 52.002 293.754 51.416 293.75 50.76C293.754 50.092 293.882 49.502 294.134 48.99C294.386 48.474 294.746 48.07 295.214 47.778C295.682 47.486 296.244 47.34 296.9 47.34C297.608 47.34 298.212 47.516 298.712 47.868C299.216 48.22 299.548 48.702 299.708 49.314L298.46 49.674C298.336 49.31 298.132 49.028 297.848 48.828C297.568 48.624 297.246 48.522 296.882 48.522C296.47 48.522 296.132 48.62 295.868 48.816C295.604 49.008 295.408 49.272 295.28 49.608C295.152 49.944 295.086 50.328 295.082 50.76C295.086 51.428 295.238 51.968 295.538 52.38C295.842 52.792 296.29 52.998 296.882 52.998C297.286 52.998 297.612 52.906 297.86 52.722C298.112 52.534 298.304 52.266 298.436 51.918L299.708 52.218C299.496 52.85 299.146 53.336 298.658 53.676C298.17 54.012 297.578 54.18 296.882 54.18ZM303.628 54.18C302.984 54.18 302.418 54.04 301.93 53.76C301.446 53.476 301.068 53.082 300.796 52.578C300.528 52.07 300.394 51.482 300.394 50.814C300.394 50.106 300.526 49.492 300.79 48.972C301.058 48.452 301.43 48.05 301.906 47.766C302.382 47.482 302.936 47.34 303.568 47.34C304.228 47.34 304.79 47.494 305.254 47.802C305.718 48.106 306.064 48.54 306.292 49.104C306.524 49.668 306.616 50.338 306.568 51.114H305.314V50.658C305.306 49.906 305.162 49.35 304.882 48.99C304.606 48.63 304.184 48.45 303.616 48.45C302.988 48.45 302.516 48.648 302.2 49.044C301.884 49.44 301.726 50.012 301.726 50.76C301.726 51.472 301.884 52.024 302.2 52.416C302.516 52.804 302.972 52.998 303.568 52.998C303.96 52.998 304.298 52.91 304.582 52.734C304.87 52.554 305.094 52.298 305.254 51.966L306.484 52.356C306.232 52.936 305.85 53.386 305.338 53.706C304.826 54.022 304.256 54.18 303.628 54.18ZM301.318 51.114V50.136H305.944V51.114H301.318ZM310.317 54V45.36H313.809C313.893 45.36 313.997 45.364 314.121 45.372C314.245 45.376 314.363 45.388 314.475 45.408C314.955 45.484 315.355 45.648 315.675 45.9C315.999 46.152 316.241 46.47 316.401 46.854C316.561 47.238 316.641 47.662 316.641 48.126C316.641 48.594 316.561 49.02 316.401 49.404C316.241 49.788 315.999 50.106 315.675 50.358C315.355 50.61 314.955 50.774 314.475 50.85C314.363 50.866 314.243 50.878 314.115 50.886C313.991 50.894 313.889 50.898 313.809 50.898H311.571V54H310.317ZM311.571 49.71H313.761C313.841 49.71 313.929 49.706 314.025 49.698C314.125 49.69 314.219 49.676 314.307 49.656C314.563 49.596 314.769 49.486 314.925 49.326C315.081 49.162 315.193 48.974 315.261 48.762C315.329 48.55 315.363 48.338 315.363 48.126C315.363 47.914 315.329 47.704 315.261 47.496C315.193 47.284 315.081 47.098 314.925 46.938C314.769 46.774 314.563 46.662 314.307 46.602C314.219 46.578 314.125 46.562 314.025 46.554C313.929 46.546 313.841 46.542 313.761 46.542H311.571V49.71ZM317.84 54V47.52H318.956V49.092L318.8 48.888C318.88 48.68 318.984 48.49 319.112 48.318C319.24 48.142 319.388 47.998 319.556 47.886C319.72 47.766 319.902 47.674 320.102 47.61C320.306 47.542 320.514 47.502 320.726 47.49C320.938 47.474 321.142 47.484 321.338 47.52V48.696C321.126 48.64 320.89 48.624 320.63 48.648C320.374 48.672 320.138 48.754 319.922 48.894C319.718 49.026 319.556 49.186 319.436 49.374C319.32 49.562 319.236 49.772 319.184 50.004C319.132 50.232 319.106 50.474 319.106 50.73V54H317.84ZM325.177 54.18C324.529 54.18 323.967 54.034 323.491 53.742C323.015 53.45 322.647 53.048 322.387 52.536C322.131 52.02 322.003 51.426 322.003 50.754C322.003 50.078 322.135 49.484 322.399 48.972C322.663 48.456 323.033 48.056 323.509 47.772C323.985 47.484 324.541 47.34 325.177 47.34C325.825 47.34 326.387 47.486 326.863 47.778C327.339 48.07 327.707 48.472 327.967 48.984C328.227 49.496 328.357 50.086 328.357 50.754C328.357 51.43 328.225 52.026 327.961 52.542C327.701 53.054 327.333 53.456 326.857 53.748C326.381 54.036 325.821 54.18 325.177 54.18ZM325.177 52.998C325.797 52.998 326.259 52.79 326.563 52.374C326.871 51.954 327.025 51.414 327.025 50.754C327.025 50.078 326.869 49.538 326.557 49.134C326.249 48.726 325.789 48.522 325.177 48.522C324.757 48.522 324.411 48.618 324.139 48.81C323.867 48.998 323.665 49.26 323.533 49.596C323.401 49.928 323.335 50.314 323.335 50.754C323.335 51.434 323.491 51.978 323.803 52.386C324.115 52.794 324.573 52.998 325.177 52.998ZM332.448 54.18C331.784 54.18 331.22 54.032 330.756 53.736C330.292 53.44 329.936 53.034 329.688 52.518C329.444 52.002 329.32 51.416 329.316 50.76C329.32 50.092 329.448 49.502 329.7 48.99C329.952 48.474 330.312 48.07 330.78 47.778C331.248 47.486 331.81 47.34 332.466 47.34C333.174 47.34 333.778 47.516 334.278 47.868C334.782 48.22 335.114 48.702 335.274 49.314L334.026 49.674C333.902 49.31 333.698 49.028 333.414 48.828C333.134 48.624 332.812 48.522 332.448 48.522C332.036 48.522 331.698 48.62 331.434 48.816C331.17 49.008 330.974 49.272 330.846 49.608C330.718 49.944 330.652 50.328 330.648 50.76C330.652 51.428 330.804 51.968 331.104 52.38C331.408 52.792 331.856 52.998 332.448 52.998C332.852 52.998 333.178 52.906 333.426 52.722C333.678 52.534 333.87 52.266 334.002 51.918L335.274 52.218C335.062 52.85 334.712 53.336 334.224 53.676C333.736 54.012 333.144 54.18 332.448 54.18ZM339.194 54.18C338.55 54.18 337.984 54.04 337.496 53.76C337.012 53.476 336.634 53.082 336.362 52.578C336.094 52.07 335.96 51.482 335.96 50.814C335.96 50.106 336.092 49.492 336.356 48.972C336.624 48.452 336.996 48.05 337.472 47.766C337.948 47.482 338.502 47.34 339.134 47.34C339.794 47.34 340.356 47.494 340.82 47.802C341.284 48.106 341.63 48.54 341.858 49.104C342.09 49.668 342.182 50.338 342.134 51.114H340.88V50.658C340.872 49.906 340.728 49.35 340.448 48.99C340.172 48.63 339.75 48.45 339.182 48.45C338.554 48.45 338.082 48.648 337.766 49.044C337.45 49.44 337.292 50.012 337.292 50.76C337.292 51.472 337.45 52.024 337.766 52.416C338.082 52.804 338.538 52.998 339.134 52.998C339.526 52.998 339.864 52.91 340.148 52.734C340.436 52.554 340.66 52.298 340.82 51.966L342.05 52.356C341.798 52.936 341.416 53.386 340.904 53.706C340.392 54.022 339.822 54.18 339.194 54.18ZM336.884 51.114V50.136H341.51V51.114H336.884ZM345.959 54.174C345.171 54.174 344.529 54 344.033 53.652C343.537 53.304 343.233 52.814 343.121 52.182L344.405 51.984C344.485 52.32 344.669 52.586 344.957 52.782C345.249 52.974 345.611 53.07 346.043 53.07C346.435 53.07 346.741 52.99 346.961 52.83C347.185 52.67 347.297 52.45 347.297 52.17C347.297 52.006 347.257 51.874 347.177 51.774C347.101 51.67 346.939 51.572 346.691 51.48C346.443 51.388 346.065 51.274 345.557 51.138C345.001 50.994 344.559 50.84 344.231 50.676C343.907 50.508 343.675 50.314 343.535 50.094C343.399 49.87 343.331 49.6 343.331 49.284C343.331 48.892 343.435 48.55 343.643 48.258C343.851 47.966 344.143 47.74 344.519 47.58C344.899 47.42 345.343 47.34 345.851 47.34C346.347 47.34 346.789 47.418 347.177 47.574C347.565 47.73 347.879 47.952 348.119 48.24C348.359 48.524 348.503 48.858 348.551 49.242L347.267 49.476C347.223 49.164 347.077 48.918 346.829 48.738C346.581 48.558 346.259 48.46 345.863 48.444C345.483 48.428 345.175 48.492 344.939 48.636C344.703 48.776 344.585 48.97 344.585 49.218C344.585 49.362 344.629 49.484 344.717 49.584C344.809 49.684 344.985 49.78 345.245 49.872C345.505 49.964 345.889 50.074 346.397 50.202C346.941 50.342 347.373 50.498 347.693 50.67C348.013 50.838 348.241 51.04 348.377 51.276C348.517 51.508 348.587 51.79 348.587 52.122C348.587 52.762 348.353 53.264 347.885 53.628C347.421 53.992 346.779 54.174 345.959 54.174ZM352.392 54.174C351.604 54.174 350.962 54 350.466 53.652C349.97 53.304 349.666 52.814 349.554 52.182L350.838 51.984C350.918 52.32 351.102 52.586 351.39 52.782C351.682 52.974 352.044 53.07 352.476 53.07C352.868 53.07 353.174 52.99 353.394 52.83C353.618 52.67 353.73 52.45 353.73 52.17C353.73 52.006 353.69 51.874 353.61 51.774C353.534 51.67 353.372 51.572 353.124 51.48C352.876 51.388 352.498 51.274 351.99 51.138C351.434 50.994 350.992 50.84 350.664 50.676C350.34 50.508 350.108 50.314 349.968 50.094C349.832 49.87 349.764 49.6 349.764 49.284C349.764 48.892 349.868 48.55 350.076 48.258C350.284 47.966 350.576 47.74 350.952 47.58C351.332 47.42 351.776 47.34 352.284 47.34C352.78 47.34 353.222 47.418 353.61 47.574C353.998 47.73 354.312 47.952 354.552 48.24C354.792 48.524 354.936 48.858 354.984 49.242L353.7 49.476C353.656 49.164 353.51 48.918 353.262 48.738C353.014 48.558 352.692 48.46 352.296 48.444C351.916 48.428 351.608 48.492 351.372 48.636C351.136 48.776 351.018 48.97 351.018 49.218C351.018 49.362 351.062 49.484 351.15 49.584C351.242 49.684 351.418 49.78 351.678 49.872C351.938 49.964 352.322 50.074 352.83 50.202C353.374 50.342 353.806 50.498 354.126 50.67C354.446 50.838 354.674 51.04 354.81 51.276C354.95 51.508 355.02 51.79 355.02 52.122C355.02 52.762 354.786 53.264 354.318 53.628C353.854 53.992 353.212 54.174 352.392 54.174ZM356.468 46.458V45.24H357.722V46.458H356.468ZM356.468 54V47.52H357.722V54H356.468ZM364.072 54V50.814C364.072 50.562 364.05 50.304 364.006 50.04C363.966 49.772 363.886 49.524 363.766 49.296C363.65 49.068 363.484 48.884 363.268 48.744C363.056 48.604 362.778 48.534 362.434 48.534C362.21 48.534 361.998 48.572 361.798 48.648C361.598 48.72 361.422 48.838 361.27 49.002C361.122 49.166 361.004 49.382 360.916 49.65C360.832 49.918 360.79 50.244 360.79 50.628L360.01 50.334C360.01 49.746 360.12 49.228 360.34 48.78C360.56 48.328 360.876 47.976 361.288 47.724C361.7 47.472 362.198 47.346 362.782 47.346C363.23 47.346 363.606 47.418 363.91 47.562C364.214 47.706 364.46 47.896 364.648 48.132C364.84 48.364 364.986 48.618 365.086 48.894C365.186 49.17 365.254 49.44 365.29 49.704C365.326 49.968 365.344 50.2 365.344 50.4V54H364.072ZM359.518 54V47.52H360.64V49.392H360.79V54H359.518ZM369.576 57.06C369.228 57.06 368.89 57.006 368.562 56.898C368.238 56.79 367.942 56.63 367.674 56.418C367.406 56.21 367.184 55.952 367.008 55.644L368.166 55.056C368.306 55.332 368.506 55.534 368.766 55.662C369.026 55.79 369.3 55.854 369.588 55.854C369.944 55.854 370.248 55.79 370.5 55.662C370.752 55.538 370.942 55.35 371.07 55.098C371.202 54.846 371.266 54.534 371.262 54.162V52.35H371.412V47.52H372.522V54.174C372.522 54.346 372.516 54.51 372.504 54.666C372.492 54.822 372.47 54.978 372.438 55.134C372.346 55.57 372.17 55.93 371.91 56.214C371.654 56.498 371.326 56.71 370.926 56.85C370.53 56.99 370.08 57.06 369.576 57.06ZM369.48 54.18C368.876 54.18 368.354 54.03 367.914 53.73C367.478 53.43 367.14 53.022 366.9 52.506C366.664 51.986 366.546 51.402 366.546 50.754C366.546 50.102 366.666 49.52 366.906 49.008C367.146 48.492 367.486 48.086 367.926 47.79C368.37 47.49 368.896 47.34 369.504 47.34C370.116 47.34 370.63 47.49 371.046 47.79C371.466 48.086 371.782 48.492 371.994 49.008C372.21 49.524 372.318 50.106 372.318 50.754C372.318 51.402 372.21 51.984 371.994 52.5C371.778 53.016 371.46 53.426 371.04 53.73C370.62 54.03 370.1 54.18 369.48 54.18ZM369.654 53.046C370.066 53.046 370.402 52.948 370.662 52.752C370.922 52.556 371.112 52.286 371.232 51.942C371.352 51.598 371.412 51.202 371.412 50.754C371.412 50.306 371.35 49.91 371.226 49.566C371.106 49.222 370.918 48.954 370.662 48.762C370.41 48.57 370.088 48.474 369.696 48.474C369.28 48.474 368.938 48.576 368.67 48.78C368.402 48.984 368.202 49.258 368.07 49.602C367.942 49.946 367.878 50.33 367.878 50.754C367.878 51.182 367.942 51.57 368.07 51.918C368.202 52.262 368.398 52.536 368.658 52.74C368.922 52.944 369.254 53.046 369.654 53.046Z" fill="#171717"/>
</g>
<defs>
<clipPath id="clip0_10172_13251">
<rect width="440" height="65" fill="white"/>
</clipPath>
</defs>
</svg>
