<svg width="325" height="65" viewBox="0 0 325 65" fill="none" xmlns="http://www.w3.org/2000/svg">
<rect x="0.5" y="0.5" width="164" height="27" rx="13.5" stroke="#E3E3E3"/>
<path d="M9.84 19V10.36H10.974L14.106 16.858L17.22 10.36H18.366V18.994H17.178V13.084L14.388 19H13.818L11.022 13.084V19H9.84ZM22.861 19.18C22.213 19.18 21.651 19.034 21.175 18.742C20.699 18.45 20.331 18.048 20.071 17.536C19.815 17.02 19.687 16.426 19.687 15.754C19.687 15.078 19.819 14.484 20.083 13.972C20.347 13.456 20.717 13.056 21.193 12.772C21.669 12.484 22.225 12.34 22.861 12.34C23.509 12.34 24.071 12.486 24.547 12.778C25.023 13.07 25.391 13.472 25.651 13.984C25.911 14.496 26.041 15.086 26.041 15.754C26.041 16.43 25.909 17.026 25.645 17.542C25.385 18.054 25.017 18.456 24.541 18.748C24.065 19.036 23.505 19.18 22.861 19.18ZM22.861 17.998C23.481 17.998 23.943 17.79 24.247 17.374C24.555 16.954 24.709 16.414 24.709 15.754C24.709 15.078 24.553 14.538 24.241 14.134C23.933 13.726 23.473 13.522 22.861 13.522C22.441 13.522 22.095 13.618 21.823 13.81C21.551 13.998 21.349 14.26 21.217 14.596C21.085 14.928 21.019 15.314 21.019 15.754C21.019 16.434 21.175 16.978 21.487 17.386C21.799 17.794 22.257 17.998 22.861 17.998ZM31.9075 19V15.814C31.9075 15.562 31.8855 15.304 31.8415 15.04C31.8015 14.772 31.7215 14.524 31.6015 14.296C31.4855 14.068 31.3195 13.884 31.1035 13.744C30.8915 13.604 30.6135 13.534 30.2695 13.534C30.0455 13.534 29.8335 13.572 29.6335 13.648C29.4335 13.72 29.2575 13.838 29.1055 14.002C28.9575 14.166 28.8395 14.382 28.7515 14.65C28.6675 14.918 28.6255 15.244 28.6255 15.628L27.8455 15.334C27.8455 14.746 27.9555 14.228 28.1755 13.78C28.3955 13.328 28.7115 12.976 29.1235 12.724C29.5355 12.472 30.0335 12.346 30.6175 12.346C31.0655 12.346 31.4415 12.418 31.7455 12.562C32.0495 12.706 32.2955 12.896 32.4835 13.132C32.6755 13.364 32.8215 13.618 32.9215 13.894C33.0215 14.17 33.0895 14.44 33.1255 14.704C33.1615 14.968 33.1795 15.2 33.1795 15.4V19H31.9075ZM27.3535 19V12.52H28.4755V14.392H28.6255V19H27.3535ZM38.4503 19C38.0423 19.08 37.6423 19.114 37.2503 19.102C36.8583 19.09 36.5083 19.014 36.2003 18.874C35.8923 18.734 35.6603 18.514 35.5043 18.214C35.3643 17.946 35.2883 17.674 35.2763 17.398C35.2683 17.118 35.2643 16.802 35.2643 16.45V10.72H36.5243V16.39C36.5243 16.65 36.5263 16.876 36.5303 17.068C36.5383 17.26 36.5803 17.422 36.6563 17.554C36.8003 17.802 37.0283 17.944 37.3403 17.98C37.6563 18.012 38.0263 17.998 38.4503 17.938V19ZM34.0223 13.528V12.52H38.4503V13.528H34.0223ZM44.3646 19V15.814C44.3646 15.562 44.3426 15.304 44.2986 15.04C44.2586 14.772 44.1786 14.524 44.0586 14.296C43.9426 14.068 43.7766 13.884 43.5606 13.744C43.3486 13.604 43.0706 13.534 42.7266 13.534C42.5026 13.534 42.2906 13.572 42.0906 13.648C41.8906 13.72 41.7146 13.838 41.5626 14.002C41.4146 14.166 41.2966 14.382 41.2086 14.65C41.1246 14.918 41.0826 15.244 41.0826 15.628L40.3026 15.334C40.3026 14.746 40.4126 14.228 40.6326 13.78C40.8526 13.328 41.1686 12.976 41.5806 12.724C41.9926 12.472 42.4906 12.346 43.0746 12.346C43.5226 12.346 43.8986 12.418 44.2026 12.562C44.5066 12.706 44.7526 12.896 44.9406 13.132C45.1326 13.364 45.2786 13.618 45.3786 13.894C45.4786 14.17 45.5466 14.44 45.5826 14.704C45.6186 14.968 45.6366 15.2 45.6366 15.4V19H44.3646ZM39.8106 19V10.36H40.9326V15.022H41.0826V19H39.8106ZM49.6017 19V10.36H55.1217V11.542H50.8557V13.966H54.4017V15.148H50.8557V17.818H55.1217V19H49.6017ZM61.1107 19V15.814C61.1107 15.562 61.0887 15.304 61.0447 15.04C61.0047 14.772 60.9247 14.524 60.8047 14.296C60.6887 14.068 60.5227 13.884 60.3067 13.744C60.0947 13.604 59.8167 13.534 59.4727 13.534C59.2487 13.534 59.0367 13.572 58.8367 13.648C58.6367 13.72 58.4607 13.838 58.3087 14.002C58.1607 14.166 58.0427 14.382 57.9547 14.65C57.8707 14.918 57.8287 15.244 57.8287 15.628L57.0487 15.334C57.0487 14.746 57.1587 14.228 57.3787 13.78C57.5987 13.328 57.9147 12.976 58.3267 12.724C58.7387 12.472 59.2367 12.346 59.8207 12.346C60.2687 12.346 60.6447 12.418 60.9487 12.562C61.2527 12.706 61.4987 12.896 61.6867 13.132C61.8787 13.364 62.0247 13.618 62.1247 13.894C62.2247 14.17 62.2927 14.44 62.3287 14.704C62.3647 14.968 62.3827 15.2 62.3827 15.4V19H61.1107ZM56.5567 19V12.52H57.6787V14.392H57.8287V19H56.5567ZM66.4374 19.18C65.8334 19.18 65.3114 19.03 64.8714 18.73C64.4354 18.43 64.0974 18.022 63.8574 17.506C63.6214 16.986 63.5034 16.402 63.5034 15.754C63.5034 15.102 63.6234 14.52 63.8634 14.008C64.1034 13.492 64.4434 13.086 64.8834 12.79C65.3274 12.49 65.8534 12.34 66.4614 12.34C67.0734 12.34 67.5874 12.49 68.0034 12.79C68.4234 13.086 68.7394 13.492 68.9514 14.008C69.1674 14.524 69.2754 15.106 69.2754 15.754C69.2754 16.402 69.1674 16.984 68.9514 17.5C68.7354 18.016 68.4174 18.426 67.9974 18.73C67.5774 19.03 67.0574 19.18 66.4374 19.18ZM66.6114 18.046C67.0234 18.046 67.3594 17.948 67.6194 17.752C67.8794 17.556 68.0694 17.286 68.1894 16.942C68.3094 16.598 68.3694 16.202 68.3694 15.754C68.3694 15.306 68.3074 14.91 68.1834 14.566C68.0634 14.222 67.8754 13.954 67.6194 13.762C67.3674 13.57 67.0454 13.474 66.6534 13.474C66.2374 13.474 65.8954 13.576 65.6274 13.78C65.3594 13.984 65.1594 14.258 65.0274 14.602C64.8994 14.946 64.8354 15.33 64.8354 15.754C64.8354 16.182 64.8994 16.57 65.0274 16.918C65.1594 17.262 65.3554 17.536 65.6154 17.74C65.8794 17.944 66.2114 18.046 66.6114 18.046ZM68.3694 19V14.338H68.2254V10.36H69.4854V19H68.3694ZM77.1726 19.18C76.3086 19.18 75.5726 18.992 74.9646 18.616C74.3566 18.236 73.8906 17.708 73.5666 17.032C73.2466 16.356 73.0866 15.572 73.0866 14.68C73.0866 13.788 73.2466 13.004 73.5666 12.328C73.8906 11.652 74.3566 11.126 74.9646 10.75C75.5726 10.37 76.3086 10.18 77.1726 10.18C78.1686 10.18 78.9926 10.432 79.6446 10.936C80.3006 11.44 80.7566 12.118 81.0126 12.97L79.7406 13.312C79.5726 12.708 79.2726 12.234 78.8406 11.89C78.4126 11.546 77.8566 11.374 77.1726 11.374C76.5606 11.374 76.0506 11.512 75.6426 11.788C75.2346 12.064 74.9266 12.45 74.7186 12.946C74.5146 13.442 74.4126 14.02 74.4126 14.68C74.4086 15.34 74.5086 15.918 74.7126 16.414C74.9206 16.91 75.2286 17.296 75.6366 17.572C76.0486 17.848 76.5606 17.986 77.1726 17.986C77.8566 17.986 78.4126 17.814 78.8406 17.47C79.2726 17.122 79.5726 16.648 79.7406 16.048L81.0126 16.39C80.7566 17.242 80.3006 17.92 79.6446 18.424C78.9926 18.928 78.1686 19.18 77.1726 19.18ZM82.4522 19V10.18H83.7062V19H82.4522ZM88.322 19.18C87.674 19.18 87.112 19.034 86.636 18.742C86.16 18.45 85.792 18.048 85.532 17.536C85.276 17.02 85.148 16.426 85.148 15.754C85.148 15.078 85.28 14.484 85.544 13.972C85.808 13.456 86.178 13.056 86.654 12.772C87.13 12.484 87.686 12.34 88.322 12.34C88.97 12.34 89.532 12.486 90.008 12.778C90.484 13.07 90.852 13.472 91.112 13.984C91.372 14.496 91.502 15.086 91.502 15.754C91.502 16.43 91.37 17.026 91.106 17.542C90.846 18.054 90.478 18.456 90.002 18.748C89.526 19.036 88.966 19.18 88.322 19.18ZM88.322 17.998C88.942 17.998 89.404 17.79 89.708 17.374C90.016 16.954 90.17 16.414 90.17 15.754C90.17 15.078 90.014 14.538 89.702 14.134C89.394 13.726 88.934 13.522 88.322 13.522C87.902 13.522 87.556 13.618 87.284 13.81C87.012 13.998 86.81 14.26 86.678 14.596C86.546 14.928 86.48 15.314 86.48 15.754C86.48 16.434 86.636 16.978 86.948 17.386C87.26 17.794 87.718 17.998 88.322 17.998ZM95.1813 19.174C94.3933 19.174 93.7513 19 93.2553 18.652C92.7593 18.304 92.4553 17.814 92.3433 17.182L93.6273 16.984C93.7073 17.32 93.8913 17.586 94.1793 17.782C94.4713 17.974 94.8333 18.07 95.2653 18.07C95.6573 18.07 95.9633 17.99 96.1833 17.83C96.4073 17.67 96.5193 17.45 96.5193 17.17C96.5193 17.006 96.4793 16.874 96.3993 16.774C96.3233 16.67 96.1613 16.572 95.9133 16.48C95.6653 16.388 95.2873 16.274 94.7793 16.138C94.2233 15.994 93.7813 15.84 93.4533 15.676C93.1293 15.508 92.8973 15.314 92.7573 15.094C92.6213 14.87 92.5533 14.6 92.5533 14.284C92.5533 13.892 92.6573 13.55 92.8653 13.258C93.0733 12.966 93.3653 12.74 93.7413 12.58C94.1213 12.42 94.5653 12.34 95.0733 12.34C95.5693 12.34 96.0113 12.418 96.3993 12.574C96.7873 12.73 97.1013 12.952 97.3413 13.24C97.5813 13.524 97.7253 13.858 97.7733 14.242L96.4893 14.476C96.4453 14.164 96.2993 13.918 96.0513 13.738C95.8033 13.558 95.4813 13.46 95.0853 13.444C94.7053 13.428 94.3973 13.492 94.1613 13.636C93.9253 13.776 93.8073 13.97 93.8073 14.218C93.8073 14.362 93.8513 14.484 93.9393 14.584C94.0313 14.684 94.2073 14.78 94.4673 14.872C94.7273 14.964 95.1113 15.074 95.6193 15.202C96.1633 15.342 96.5953 15.498 96.9153 15.67C97.2353 15.838 97.4633 16.04 97.5993 16.276C97.7393 16.508 97.8093 16.79 97.8093 17.122C97.8093 17.762 97.5753 18.264 97.1073 18.628C96.6433 18.992 96.0013 19.174 95.1813 19.174ZM101.579 19.174C101.131 19.174 100.755 19.102 100.451 18.958C100.147 18.814 99.8989 18.626 99.7069 18.394C99.5189 18.158 99.3749 17.902 99.2749 17.626C99.1749 17.35 99.1069 17.08 99.0709 16.816C99.0349 16.552 99.0169 16.32 99.0169 16.12V12.52H100.289V15.706C100.289 15.958 100.309 16.218 100.349 16.486C100.393 16.75 100.473 16.996 100.589 17.224C100.709 17.452 100.875 17.636 101.087 17.776C101.303 17.916 101.583 17.986 101.927 17.986C102.151 17.986 102.363 17.95 102.563 17.878C102.763 17.802 102.937 17.682 103.085 17.518C103.237 17.354 103.355 17.138 103.439 16.87C103.527 16.602 103.571 16.276 103.571 15.892L104.351 16.186C104.351 16.774 104.241 17.294 104.021 17.746C103.801 18.194 103.485 18.544 103.073 18.796C102.661 19.048 102.163 19.174 101.579 19.174ZM103.721 19V17.128H103.571V12.52H104.837V19H103.721ZM106.52 19V12.52H107.636V14.092L107.48 13.888C107.56 13.68 107.664 13.49 107.792 13.318C107.92 13.142 108.068 12.998 108.236 12.886C108.4 12.766 108.582 12.674 108.782 12.61C108.986 12.542 109.194 12.502 109.406 12.49C109.618 12.474 109.822 12.484 110.018 12.52V13.696C109.806 13.64 109.57 13.624 109.31 13.648C109.054 13.672 108.818 13.754 108.602 13.894C108.398 14.026 108.236 14.186 108.116 14.374C108 14.562 107.916 14.772 107.864 15.004C107.812 15.232 107.786 15.474 107.786 15.73V19H106.52ZM113.917 19.18C113.273 19.18 112.707 19.04 112.219 18.76C111.735 18.476 111.357 18.082 111.085 17.578C110.817 17.07 110.683 16.482 110.683 15.814C110.683 15.106 110.815 14.492 111.079 13.972C111.347 13.452 111.719 13.05 112.195 12.766C112.671 12.482 113.225 12.34 113.857 12.34C114.517 12.34 115.079 12.494 115.543 12.802C116.007 13.106 116.353 13.54 116.581 14.104C116.813 14.668 116.905 15.338 116.857 16.114H115.603V15.658C115.595 14.906 115.451 14.35 115.171 13.99C114.895 13.63 114.473 13.45 113.905 13.45C113.277 13.45 112.805 13.648 112.489 14.044C112.173 14.44 112.015 15.012 112.015 15.76C112.015 16.472 112.173 17.024 112.489 17.416C112.805 17.804 113.261 17.998 113.857 17.998C114.249 17.998 114.587 17.91 114.871 17.734C115.159 17.554 115.383 17.298 115.543 16.966L116.773 17.356C116.521 17.936 116.139 18.386 115.627 18.706C115.115 19.022 114.545 19.18 113.917 19.18ZM111.607 16.114V15.136H116.233V16.114H111.607Z" fill="#171717"/>
<path d="M124 1H151C158.18 1 164 6.8203 164 14C164 21.1797 158.18 27 151 27H124V1Z" fill="#E4FFF4"/>
<path d="M134.648 10.186C135.204 10.186 135.706 10.32 136.154 10.588C136.602 10.852 136.958 11.216 137.222 11.68C137.486 12.144 137.618 12.674 137.618 13.27V16.018C137.618 16.65 137.486 17.204 137.222 17.68C136.962 18.152 136.598 18.52 136.13 18.784C135.666 19.048 135.13 19.18 134.522 19.18C134.066 19.18 133.638 19.094 133.238 18.922C132.838 18.75 132.49 18.494 132.194 18.154L133.118 17.296C133.282 17.508 133.488 17.678 133.736 17.806C133.984 17.934 134.246 17.998 134.522 17.998C134.878 17.998 135.192 17.912 135.464 17.74C135.74 17.568 135.954 17.344 136.106 17.068C136.258 16.792 136.334 16.496 136.334 16.18V14.596L136.586 14.872C136.338 15.196 136.03 15.452 135.662 15.64C135.294 15.828 134.9 15.922 134.48 15.922C133.94 15.922 133.46 15.798 133.04 15.55C132.62 15.302 132.288 14.964 132.044 14.536C131.8 14.108 131.678 13.624 131.678 13.084C131.678 12.544 131.814 12.056 132.086 11.62C132.358 11.184 132.718 10.836 133.166 10.576C133.614 10.316 134.108 10.186 134.648 10.186ZM134.648 11.398C134.336 11.398 134.05 11.474 133.79 11.626C133.534 11.774 133.33 11.976 133.178 12.232C133.026 12.488 132.95 12.772 132.95 13.084C132.95 13.396 133.026 13.682 133.178 13.942C133.33 14.198 133.534 14.402 133.79 14.554C134.046 14.706 134.33 14.782 134.642 14.782C134.954 14.782 135.238 14.706 135.494 14.554C135.75 14.402 135.954 14.198 136.106 13.942C136.258 13.682 136.334 13.396 136.334 13.084C136.334 12.776 136.258 12.494 136.106 12.238C135.958 11.982 135.756 11.778 135.5 11.626C135.244 11.474 134.96 11.398 134.648 11.398ZM141.477 10.36H142.743L140.439 19H139.173L141.477 10.36ZM145.815 19V11.74L144.189 12.73V11.332L145.815 10.36H147.093V19H145.815ZM152.383 19.18C151.795 19.18 151.275 19.052 150.823 18.796C150.371 18.536 150.015 18.18 149.755 17.728C149.499 17.276 149.371 16.756 149.371 16.168V13.192C149.371 12.604 149.499 12.084 149.755 11.632C150.015 11.18 150.371 10.826 150.823 10.57C151.275 10.31 151.795 10.18 152.383 10.18C152.971 10.18 153.491 10.31 153.943 10.57C154.395 10.826 154.749 11.18 155.005 11.632C155.265 12.084 155.395 12.604 155.395 13.192V16.168C155.395 16.756 155.265 17.276 155.005 17.728C154.749 18.18 154.395 18.536 153.943 18.796C153.491 19.052 152.971 19.18 152.383 19.18ZM152.383 17.98C152.703 17.98 152.993 17.904 153.253 17.752C153.517 17.596 153.727 17.388 153.883 17.128C154.039 16.864 154.117 16.57 154.117 16.246V13.102C154.117 12.782 154.039 12.492 153.883 12.232C153.727 11.968 153.517 11.76 153.253 11.608C152.993 11.452 152.703 11.374 152.383 11.374C152.063 11.374 151.771 11.452 151.507 11.608C151.247 11.76 151.039 11.968 150.883 12.232C150.727 12.492 150.649 12.782 150.649 13.102V16.246C150.649 16.57 150.727 16.864 150.883 17.128C151.039 17.388 151.247 17.596 151.507 17.752C151.771 17.904 152.063 17.98 152.383 17.98Z" fill="#00BA70"/>
<path d="M124 1V27" stroke="#E2E2E2"/>
<rect x="172.5" y="0.5" width="164" height="27" rx="13.5" stroke="#E3E3E3"/>
<path d="M181.84 19V10.36H182.974L186.106 16.858L189.22 10.36H190.366V18.994H189.178V13.084L186.388 19H185.818L183.022 13.084V19H181.84ZM194.861 19.18C194.213 19.18 193.651 19.034 193.175 18.742C192.699 18.45 192.331 18.048 192.071 17.536C191.815 17.02 191.687 16.426 191.687 15.754C191.687 15.078 191.819 14.484 192.083 13.972C192.347 13.456 192.717 13.056 193.193 12.772C193.669 12.484 194.225 12.34 194.861 12.34C195.509 12.34 196.071 12.486 196.547 12.778C197.023 13.07 197.391 13.472 197.651 13.984C197.911 14.496 198.041 15.086 198.041 15.754C198.041 16.43 197.909 17.026 197.645 17.542C197.385 18.054 197.017 18.456 196.541 18.748C196.065 19.036 195.505 19.18 194.861 19.18ZM194.861 17.998C195.481 17.998 195.943 17.79 196.247 17.374C196.555 16.954 196.709 16.414 196.709 15.754C196.709 15.078 196.553 14.538 196.241 14.134C195.933 13.726 195.473 13.522 194.861 13.522C194.441 13.522 194.095 13.618 193.823 13.81C193.551 13.998 193.349 14.26 193.217 14.596C193.085 14.928 193.019 15.314 193.019 15.754C193.019 16.434 193.175 16.978 193.487 17.386C193.799 17.794 194.257 17.998 194.861 17.998ZM203.908 19V15.814C203.908 15.562 203.886 15.304 203.842 15.04C203.802 14.772 203.722 14.524 203.602 14.296C203.486 14.068 203.32 13.884 203.104 13.744C202.892 13.604 202.614 13.534 202.27 13.534C202.046 13.534 201.834 13.572 201.634 13.648C201.434 13.72 201.258 13.838 201.106 14.002C200.958 14.166 200.84 14.382 200.752 14.65C200.668 14.918 200.626 15.244 200.626 15.628L199.846 15.334C199.846 14.746 199.956 14.228 200.176 13.78C200.396 13.328 200.712 12.976 201.124 12.724C201.536 12.472 202.034 12.346 202.618 12.346C203.066 12.346 203.442 12.418 203.746 12.562C204.05 12.706 204.296 12.896 204.484 13.132C204.676 13.364 204.822 13.618 204.922 13.894C205.022 14.17 205.09 14.44 205.126 14.704C205.162 14.968 205.18 15.2 205.18 15.4V19H203.908ZM199.354 19V12.52H200.476V14.392H200.626V19H199.354ZM210.45 19C210.042 19.08 209.642 19.114 209.25 19.102C208.858 19.09 208.508 19.014 208.2 18.874C207.892 18.734 207.66 18.514 207.504 18.214C207.364 17.946 207.288 17.674 207.276 17.398C207.268 17.118 207.264 16.802 207.264 16.45V10.72H208.524V16.39C208.524 16.65 208.526 16.876 208.53 17.068C208.538 17.26 208.58 17.422 208.656 17.554C208.8 17.802 209.028 17.944 209.34 17.98C209.656 18.012 210.026 17.998 210.45 17.938V19ZM206.022 13.528V12.52H210.45V13.528H206.022ZM216.365 19V15.814C216.365 15.562 216.343 15.304 216.299 15.04C216.259 14.772 216.179 14.524 216.059 14.296C215.943 14.068 215.777 13.884 215.561 13.744C215.349 13.604 215.071 13.534 214.727 13.534C214.503 13.534 214.291 13.572 214.091 13.648C213.891 13.72 213.715 13.838 213.563 14.002C213.415 14.166 213.297 14.382 213.209 14.65C213.125 14.918 213.083 15.244 213.083 15.628L212.303 15.334C212.303 14.746 212.413 14.228 212.633 13.78C212.853 13.328 213.169 12.976 213.581 12.724C213.993 12.472 214.491 12.346 215.075 12.346C215.523 12.346 215.899 12.418 216.203 12.562C216.507 12.706 216.753 12.896 216.941 13.132C217.133 13.364 217.279 13.618 217.379 13.894C217.479 14.17 217.547 14.44 217.583 14.704C217.619 14.968 217.637 15.2 217.637 15.4V19H216.365ZM211.811 19V10.36H212.933V15.022H213.083V19H211.811ZM221.602 19V10.36H227.122V11.542H222.856V13.966H226.402V15.148H222.856V17.818H227.122V19H221.602ZM233.111 19V15.814C233.111 15.562 233.089 15.304 233.045 15.04C233.005 14.772 232.925 14.524 232.805 14.296C232.689 14.068 232.523 13.884 232.307 13.744C232.095 13.604 231.817 13.534 231.473 13.534C231.249 13.534 231.037 13.572 230.837 13.648C230.637 13.72 230.461 13.838 230.309 14.002C230.161 14.166 230.043 14.382 229.955 14.65C229.871 14.918 229.829 15.244 229.829 15.628L229.049 15.334C229.049 14.746 229.159 14.228 229.379 13.78C229.599 13.328 229.915 12.976 230.327 12.724C230.739 12.472 231.237 12.346 231.821 12.346C232.269 12.346 232.645 12.418 232.949 12.562C233.253 12.706 233.499 12.896 233.687 13.132C233.879 13.364 234.025 13.618 234.125 13.894C234.225 14.17 234.293 14.44 234.329 14.704C234.365 14.968 234.383 15.2 234.383 15.4V19H233.111ZM228.557 19V12.52H229.679V14.392H229.829V19H228.557ZM238.437 19.18C237.833 19.18 237.311 19.03 236.871 18.73C236.435 18.43 236.097 18.022 235.857 17.506C235.621 16.986 235.503 16.402 235.503 15.754C235.503 15.102 235.623 14.52 235.863 14.008C236.103 13.492 236.443 13.086 236.883 12.79C237.327 12.49 237.853 12.34 238.461 12.34C239.073 12.34 239.587 12.49 240.003 12.79C240.423 13.086 240.739 13.492 240.951 14.008C241.167 14.524 241.275 15.106 241.275 15.754C241.275 16.402 241.167 16.984 240.951 17.5C240.735 18.016 240.417 18.426 239.997 18.73C239.577 19.03 239.057 19.18 238.437 19.18ZM238.611 18.046C239.023 18.046 239.359 17.948 239.619 17.752C239.879 17.556 240.069 17.286 240.189 16.942C240.309 16.598 240.369 16.202 240.369 15.754C240.369 15.306 240.307 14.91 240.183 14.566C240.063 14.222 239.875 13.954 239.619 13.762C239.367 13.57 239.045 13.474 238.653 13.474C238.237 13.474 237.895 13.576 237.627 13.78C237.359 13.984 237.159 14.258 237.027 14.602C236.899 14.946 236.835 15.33 236.835 15.754C236.835 16.182 236.899 16.57 237.027 16.918C237.159 17.262 237.355 17.536 237.615 17.74C237.879 17.944 238.211 18.046 238.611 18.046ZM240.369 19V14.338H240.225V10.36H241.485V19H240.369ZM249.173 19.18C248.309 19.18 247.573 18.992 246.965 18.616C246.357 18.236 245.891 17.708 245.567 17.032C245.247 16.356 245.087 15.572 245.087 14.68C245.087 13.788 245.247 13.004 245.567 12.328C245.891 11.652 246.357 11.126 246.965 10.75C247.573 10.37 248.309 10.18 249.173 10.18C250.169 10.18 250.993 10.432 251.645 10.936C252.301 11.44 252.757 12.118 253.013 12.97L251.741 13.312C251.573 12.708 251.273 12.234 250.841 11.89C250.413 11.546 249.857 11.374 249.173 11.374C248.561 11.374 248.051 11.512 247.643 11.788C247.235 12.064 246.927 12.45 246.719 12.946C246.515 13.442 246.413 14.02 246.413 14.68C246.409 15.34 246.509 15.918 246.713 16.414C246.921 16.91 247.229 17.296 247.637 17.572C248.049 17.848 248.561 17.986 249.173 17.986C249.857 17.986 250.413 17.814 250.841 17.47C251.273 17.122 251.573 16.648 251.741 16.048L253.013 16.39C252.757 17.242 252.301 17.92 251.645 18.424C250.993 18.928 250.169 19.18 249.173 19.18ZM254.452 19V10.18H255.706V19H254.452ZM260.322 19.18C259.674 19.18 259.112 19.034 258.636 18.742C258.16 18.45 257.792 18.048 257.532 17.536C257.276 17.02 257.148 16.426 257.148 15.754C257.148 15.078 257.28 14.484 257.544 13.972C257.808 13.456 258.178 13.056 258.654 12.772C259.13 12.484 259.686 12.34 260.322 12.34C260.97 12.34 261.532 12.486 262.008 12.778C262.484 13.07 262.852 13.472 263.112 13.984C263.372 14.496 263.502 15.086 263.502 15.754C263.502 16.43 263.37 17.026 263.106 17.542C262.846 18.054 262.478 18.456 262.002 18.748C261.526 19.036 260.966 19.18 260.322 19.18ZM260.322 17.998C260.942 17.998 261.404 17.79 261.708 17.374C262.016 16.954 262.17 16.414 262.17 15.754C262.17 15.078 262.014 14.538 261.702 14.134C261.394 13.726 260.934 13.522 260.322 13.522C259.902 13.522 259.556 13.618 259.284 13.81C259.012 13.998 258.81 14.26 258.678 14.596C258.546 14.928 258.48 15.314 258.48 15.754C258.48 16.434 258.636 16.978 258.948 17.386C259.26 17.794 259.718 17.998 260.322 17.998ZM267.181 19.174C266.393 19.174 265.751 19 265.255 18.652C264.759 18.304 264.455 17.814 264.343 17.182L265.627 16.984C265.707 17.32 265.891 17.586 266.179 17.782C266.471 17.974 266.833 18.07 267.265 18.07C267.657 18.07 267.963 17.99 268.183 17.83C268.407 17.67 268.519 17.45 268.519 17.17C268.519 17.006 268.479 16.874 268.399 16.774C268.323 16.67 268.161 16.572 267.913 16.48C267.665 16.388 267.287 16.274 266.779 16.138C266.223 15.994 265.781 15.84 265.453 15.676C265.129 15.508 264.897 15.314 264.757 15.094C264.621 14.87 264.553 14.6 264.553 14.284C264.553 13.892 264.657 13.55 264.865 13.258C265.073 12.966 265.365 12.74 265.741 12.58C266.121 12.42 266.565 12.34 267.073 12.34C267.569 12.34 268.011 12.418 268.399 12.574C268.787 12.73 269.101 12.952 269.341 13.24C269.581 13.524 269.725 13.858 269.773 14.242L268.489 14.476C268.445 14.164 268.299 13.918 268.051 13.738C267.803 13.558 267.481 13.46 267.085 13.444C266.705 13.428 266.397 13.492 266.161 13.636C265.925 13.776 265.807 13.97 265.807 14.218C265.807 14.362 265.851 14.484 265.939 14.584C266.031 14.684 266.207 14.78 266.467 14.872C266.727 14.964 267.111 15.074 267.619 15.202C268.163 15.342 268.595 15.498 268.915 15.67C269.235 15.838 269.463 16.04 269.599 16.276C269.739 16.508 269.809 16.79 269.809 17.122C269.809 17.762 269.575 18.264 269.107 18.628C268.643 18.992 268.001 19.174 267.181 19.174ZM273.579 19.174C273.131 19.174 272.755 19.102 272.451 18.958C272.147 18.814 271.899 18.626 271.707 18.394C271.519 18.158 271.375 17.902 271.275 17.626C271.175 17.35 271.107 17.08 271.071 16.816C271.035 16.552 271.017 16.32 271.017 16.12V12.52H272.289V15.706C272.289 15.958 272.309 16.218 272.349 16.486C272.393 16.75 272.473 16.996 272.589 17.224C272.709 17.452 272.875 17.636 273.087 17.776C273.303 17.916 273.583 17.986 273.927 17.986C274.151 17.986 274.363 17.95 274.563 17.878C274.763 17.802 274.937 17.682 275.085 17.518C275.237 17.354 275.355 17.138 275.439 16.87C275.527 16.602 275.571 16.276 275.571 15.892L276.351 16.186C276.351 16.774 276.241 17.294 276.021 17.746C275.801 18.194 275.485 18.544 275.073 18.796C274.661 19.048 274.163 19.174 273.579 19.174ZM275.721 19V17.128H275.571V12.52H276.837V19H275.721ZM278.52 19V12.52H279.636V14.092L279.48 13.888C279.56 13.68 279.664 13.49 279.792 13.318C279.92 13.142 280.068 12.998 280.236 12.886C280.4 12.766 280.582 12.674 280.782 12.61C280.986 12.542 281.194 12.502 281.406 12.49C281.618 12.474 281.822 12.484 282.018 12.52V13.696C281.806 13.64 281.57 13.624 281.31 13.648C281.054 13.672 280.818 13.754 280.602 13.894C280.398 14.026 280.236 14.186 280.116 14.374C280 14.562 279.916 14.772 279.864 15.004C279.812 15.232 279.786 15.474 279.786 15.73V19H278.52ZM285.917 19.18C285.273 19.18 284.707 19.04 284.219 18.76C283.735 18.476 283.357 18.082 283.085 17.578C282.817 17.07 282.683 16.482 282.683 15.814C282.683 15.106 282.815 14.492 283.079 13.972C283.347 13.452 283.719 13.05 284.195 12.766C284.671 12.482 285.225 12.34 285.857 12.34C286.517 12.34 287.079 12.494 287.543 12.802C288.007 13.106 288.353 13.54 288.581 14.104C288.813 14.668 288.905 15.338 288.857 16.114H287.603V15.658C287.595 14.906 287.451 14.35 287.171 13.99C286.895 13.63 286.473 13.45 285.905 13.45C285.277 13.45 284.805 13.648 284.489 14.044C284.173 14.44 284.015 15.012 284.015 15.76C284.015 16.472 284.173 17.024 284.489 17.416C284.805 17.804 285.261 17.998 285.857 17.998C286.249 17.998 286.587 17.91 286.871 17.734C287.159 17.554 287.383 17.298 287.543 16.966L288.773 17.356C288.521 17.936 288.139 18.386 287.627 18.706C287.115 19.022 286.545 19.18 285.917 19.18ZM283.607 16.114V15.136H288.233V16.114H283.607Z" fill="#171717"/>
<path d="M296 1H323C330.18 1 336 6.8203 336 14C336 21.1797 330.18 27 323 27H296V1Z" fill="#E4FFF4"/>
<path d="M306.648 10.186C307.204 10.186 307.706 10.32 308.154 10.588C308.602 10.852 308.958 11.216 309.222 11.68C309.486 12.144 309.618 12.674 309.618 13.27V16.018C309.618 16.65 309.486 17.204 309.222 17.68C308.962 18.152 308.598 18.52 308.13 18.784C307.666 19.048 307.13 19.18 306.522 19.18C306.066 19.18 305.638 19.094 305.238 18.922C304.838 18.75 304.49 18.494 304.194 18.154L305.118 17.296C305.282 17.508 305.488 17.678 305.736 17.806C305.984 17.934 306.246 17.998 306.522 17.998C306.878 17.998 307.192 17.912 307.464 17.74C307.74 17.568 307.954 17.344 308.106 17.068C308.258 16.792 308.334 16.496 308.334 16.18V14.596L308.586 14.872C308.338 15.196 308.03 15.452 307.662 15.64C307.294 15.828 306.9 15.922 306.48 15.922C305.94 15.922 305.46 15.798 305.04 15.55C304.62 15.302 304.288 14.964 304.044 14.536C303.8 14.108 303.678 13.624 303.678 13.084C303.678 12.544 303.814 12.056 304.086 11.62C304.358 11.184 304.718 10.836 305.166 10.576C305.614 10.316 306.108 10.186 306.648 10.186ZM306.648 11.398C306.336 11.398 306.05 11.474 305.79 11.626C305.534 11.774 305.33 11.976 305.178 12.232C305.026 12.488 304.95 12.772 304.95 13.084C304.95 13.396 305.026 13.682 305.178 13.942C305.33 14.198 305.534 14.402 305.79 14.554C306.046 14.706 306.33 14.782 306.642 14.782C306.954 14.782 307.238 14.706 307.494 14.554C307.75 14.402 307.954 14.198 308.106 13.942C308.258 13.682 308.334 13.396 308.334 13.084C308.334 12.776 308.258 12.494 308.106 12.238C307.958 11.982 307.756 11.778 307.5 11.626C307.244 11.474 306.96 11.398 306.648 11.398ZM313.477 10.36H314.743L312.439 19H311.173L313.477 10.36ZM317.815 19V11.74L316.189 12.73V11.332L317.815 10.36H319.093V19H317.815ZM324.383 19.18C323.795 19.18 323.275 19.052 322.823 18.796C322.371 18.536 322.015 18.18 321.755 17.728C321.499 17.276 321.371 16.756 321.371 16.168V13.192C321.371 12.604 321.499 12.084 321.755 11.632C322.015 11.18 322.371 10.826 322.823 10.57C323.275 10.31 323.795 10.18 324.383 10.18C324.971 10.18 325.491 10.31 325.943 10.57C326.395 10.826 326.749 11.18 327.005 11.632C327.265 12.084 327.395 12.604 327.395 13.192V16.168C327.395 16.756 327.265 17.276 327.005 17.728C326.749 18.18 326.395 18.536 325.943 18.796C325.491 19.052 324.971 19.18 324.383 19.18ZM324.383 17.98C324.703 17.98 324.993 17.904 325.253 17.752C325.517 17.596 325.727 17.388 325.883 17.128C326.039 16.864 326.117 16.57 326.117 16.246V13.102C326.117 12.782 326.039 12.492 325.883 12.232C325.727 11.968 325.517 11.76 325.253 11.608C324.993 11.452 324.703 11.374 324.383 11.374C324.063 11.374 323.771 11.452 323.507 11.608C323.247 11.76 323.039 11.968 322.883 12.232C322.727 12.492 322.649 12.782 322.649 13.102V16.246C322.649 16.57 322.727 16.864 322.883 17.128C323.039 17.388 323.247 17.596 323.507 17.752C323.771 17.904 324.063 17.98 324.383 17.98Z" fill="#00BA70"/>
<path d="M296 1V27" stroke="#E2E2E2"/>
<rect x="0.5" y="35.5" width="123" height="27" rx="13.5" stroke="#E3E3E3"/>
<path d="M16.614 54.174L14.202 51.774L15.006 50.97L17.406 53.37L16.614 54.174ZM13.446 54.18C12.582 54.18 11.846 53.992 11.238 53.616C10.63 53.236 10.164 52.708 9.84 52.032C9.52 51.356 9.36 50.572 9.36 49.68C9.36 48.788 9.52 48.004 9.84 47.328C10.164 46.652 10.63 46.126 11.238 45.75C11.846 45.37 12.582 45.18 13.446 45.18C14.306 45.18 15.04 45.37 15.648 45.75C16.26 46.126 16.726 46.652 17.046 47.328C17.366 48.004 17.526 48.788 17.526 49.68C17.526 50.572 17.366 51.356 17.046 52.032C16.726 52.708 16.26 53.236 15.648 53.616C15.04 53.992 14.306 54.18 13.446 54.18ZM13.446 52.986C14.058 52.994 14.566 52.86 14.97 52.584C15.378 52.304 15.684 51.916 15.888 51.42C16.092 50.92 16.194 50.34 16.194 49.68C16.194 49.02 16.092 48.444 15.888 47.952C15.684 47.456 15.378 47.07 14.97 46.794C14.566 46.518 14.058 46.378 13.446 46.374C12.834 46.366 12.324 46.5 11.916 46.776C11.512 47.052 11.208 47.44 11.004 47.94C10.8 48.44 10.696 49.02 10.692 49.68C10.688 50.34 10.788 50.918 10.992 51.414C11.196 51.906 11.502 52.29 11.91 52.566C12.322 52.842 12.834 52.982 13.446 52.986ZM21.1648 54.174C20.7168 54.174 20.3408 54.102 20.0368 53.958C19.7328 53.814 19.4848 53.626 19.2928 53.394C19.1048 53.158 18.9608 52.902 18.8608 52.626C18.7608 52.35 18.6928 52.08 18.6568 51.816C18.6208 51.552 18.6028 51.32 18.6028 51.12V47.52H19.8748V50.706C19.8748 50.958 19.8948 51.218 19.9348 51.486C19.9788 51.75 20.0588 51.996 20.1748 52.224C20.2948 52.452 20.4608 52.636 20.6728 52.776C20.8888 52.916 21.1688 52.986 21.5128 52.986C21.7368 52.986 21.9488 52.95 22.1488 52.878C22.3488 52.802 22.5228 52.682 22.6708 52.518C22.8228 52.354 22.9408 52.138 23.0248 51.87C23.1128 51.602 23.1568 51.276 23.1568 50.892L23.9368 51.186C23.9368 51.774 23.8268 52.294 23.6068 52.746C23.3868 53.194 23.0708 53.544 22.6588 53.796C22.2468 54.048 21.7488 54.174 21.1648 54.174ZM23.3068 54V52.128H23.1568V47.52H24.4228V54H23.3068ZM26.2256 46.458V45.24H27.4796V46.458H26.2256ZM26.2256 54V47.52H27.4796V54H26.2256ZM32.0534 54.18C31.3894 54.18 30.8254 54.032 30.3614 53.736C29.8974 53.44 29.5414 53.034 29.2934 52.518C29.0494 52.002 28.9254 51.416 28.9214 50.76C28.9254 50.092 29.0534 49.502 29.3054 48.99C29.5574 48.474 29.9174 48.07 30.3854 47.778C30.8534 47.486 31.4154 47.34 32.0714 47.34C32.7794 47.34 33.3834 47.516 33.8834 47.868C34.3874 48.22 34.7194 48.702 34.8794 49.314L33.6314 49.674C33.5074 49.31 33.3034 49.028 33.0194 48.828C32.7394 48.624 32.4174 48.522 32.0534 48.522C31.6414 48.522 31.3034 48.62 31.0394 48.816C30.7754 49.008 30.5794 49.272 30.4514 49.608C30.3234 49.944 30.2574 50.328 30.2534 50.76C30.2574 51.428 30.4094 51.968 30.7094 52.38C31.0134 52.792 31.4614 52.998 32.0534 52.998C32.4574 52.998 32.7834 52.906 33.0314 52.722C33.2834 52.534 33.4754 52.266 33.6074 51.918L34.8794 52.218C34.6674 52.85 34.3174 53.336 33.8294 53.676C33.3414 54.012 32.7494 54.18 32.0534 54.18ZM36.0957 54L36.1017 45.36H37.3737V50.64L39.9177 47.52H41.5137L38.8257 50.76L41.7897 54H40.0857L37.3737 50.88V54H36.0957ZM45.4367 54.18C44.8167 54.18 44.2967 54.03 43.8767 53.73C43.4567 53.426 43.1387 53.016 42.9227 52.5C42.7067 51.984 42.5987 51.402 42.5987 50.754C42.5987 50.106 42.7047 49.524 42.9167 49.008C43.1327 48.492 43.4487 48.086 43.8647 47.79C44.2847 47.49 44.8007 47.34 45.4127 47.34C46.0207 47.34 46.5447 47.49 46.9847 47.79C47.4287 48.086 47.7707 48.492 48.0107 49.008C48.2507 49.52 48.3707 50.102 48.3707 50.754C48.3707 51.402 48.2507 51.986 48.0107 52.506C47.7747 53.022 47.4367 53.43 46.9967 53.73C46.5607 54.03 46.0407 54.18 45.4367 54.18ZM42.3887 54V45.36H43.6487V49.338H43.5047V54H42.3887ZM45.2627 53.046C45.6627 53.046 45.9927 52.944 46.2527 52.74C46.5167 52.536 46.7127 52.262 46.8407 51.918C46.9727 51.57 47.0387 51.182 47.0387 50.754C47.0387 50.33 46.9727 49.946 46.8407 49.602C46.7127 49.258 46.5147 48.984 46.2467 48.78C45.9787 48.576 45.6367 48.474 45.2207 48.474C44.8287 48.474 44.5047 48.57 44.2487 48.762C43.9967 48.954 43.8087 49.222 43.6847 49.566C43.5647 49.91 43.5047 50.306 43.5047 50.754C43.5047 51.202 43.5647 51.598 43.6847 51.942C43.8047 52.286 43.9947 52.556 44.2547 52.752C44.5147 52.948 44.8507 53.046 45.2627 53.046ZM52.5095 54.18C51.8615 54.18 51.2995 54.034 50.8235 53.742C50.3475 53.45 49.9795 53.048 49.7195 52.536C49.4635 52.02 49.3355 51.426 49.3355 50.754C49.3355 50.078 49.4675 49.484 49.7315 48.972C49.9955 48.456 50.3655 48.056 50.8415 47.772C51.3175 47.484 51.8735 47.34 52.5095 47.34C53.1575 47.34 53.7195 47.486 54.1955 47.778C54.6715 48.07 55.0395 48.472 55.2995 48.984C55.5595 49.496 55.6895 50.086 55.6895 50.754C55.6895 51.43 55.5575 52.026 55.2935 52.542C55.0335 53.054 54.6655 53.456 54.1895 53.748C53.7135 54.036 53.1535 54.18 52.5095 54.18ZM52.5095 52.998C53.1295 52.998 53.5915 52.79 53.8955 52.374C54.2035 51.954 54.3575 51.414 54.3575 50.754C54.3575 50.078 54.2015 49.538 53.8895 49.134C53.5815 48.726 53.1215 48.522 52.5095 48.522C52.0895 48.522 51.7435 48.618 51.4715 48.81C51.1995 48.998 50.9975 49.26 50.8655 49.596C50.7335 49.928 50.6675 50.314 50.6675 50.754C50.6675 51.434 50.8235 51.978 51.1355 52.386C51.4475 52.794 51.9055 52.998 52.5095 52.998ZM59.822 54.18C59.174 54.18 58.612 54.034 58.136 53.742C57.66 53.45 57.292 53.048 57.032 52.536C56.776 52.02 56.648 51.426 56.648 50.754C56.648 50.078 56.78 49.484 57.044 48.972C57.308 48.456 57.678 48.056 58.154 47.772C58.63 47.484 59.186 47.34 59.822 47.34C60.47 47.34 61.032 47.486 61.508 47.778C61.984 48.07 62.352 48.472 62.612 48.984C62.872 49.496 63.002 50.086 63.002 50.754C63.002 51.43 62.87 52.026 62.606 52.542C62.346 53.054 61.978 53.456 61.502 53.748C61.026 54.036 60.466 54.18 59.822 54.18ZM59.822 52.998C60.442 52.998 60.904 52.79 61.208 52.374C61.516 51.954 61.67 51.414 61.67 50.754C61.67 50.078 61.514 49.538 61.202 49.134C60.894 48.726 60.434 48.522 59.822 48.522C59.402 48.522 59.056 48.618 58.784 48.81C58.512 48.998 58.31 49.26 58.178 49.596C58.046 49.928 57.98 50.314 57.98 50.754C57.98 51.434 58.136 51.978 58.448 52.386C58.76 52.794 59.218 52.998 59.822 52.998ZM64.3145 54L64.3205 45.36H65.5925V50.64L68.1365 47.52H69.7325L67.0445 50.76L70.0085 54H68.3045L65.5925 50.88V54H64.3145ZM72.9743 54.174C72.1863 54.174 71.5443 54 71.0483 53.652C70.5523 53.304 70.2483 52.814 70.1363 52.182L71.4202 51.984C71.5003 52.32 71.6843 52.586 71.9723 52.782C72.2643 52.974 72.6263 53.07 73.0583 53.07C73.4503 53.07 73.7563 52.99 73.9763 52.83C74.2003 52.67 74.3123 52.45 74.3123 52.17C74.3123 52.006 74.2723 51.874 74.1923 51.774C74.1163 51.67 73.9543 51.572 73.7063 51.48C73.4583 51.388 73.0803 51.274 72.5723 51.138C72.0163 50.994 71.5743 50.84 71.2463 50.676C70.9223 50.508 70.6903 50.314 70.5503 50.094C70.4143 49.87 70.3463 49.6 70.3463 49.284C70.3463 48.892 70.4503 48.55 70.6583 48.258C70.8663 47.966 71.1583 47.74 71.5343 47.58C71.9143 47.42 72.3583 47.34 72.8663 47.34C73.3623 47.34 73.8043 47.418 74.1923 47.574C74.5803 47.73 74.8943 47.952 75.1343 48.24C75.3743 48.524 75.5183 48.858 75.5663 49.242L74.2823 49.476C74.2383 49.164 74.0923 48.918 73.8443 48.738C73.5963 48.558 73.2743 48.46 72.8783 48.444C72.4983 48.428 72.1903 48.492 71.9543 48.636C71.7183 48.776 71.6003 48.97 71.6003 49.218C71.6003 49.362 71.6443 49.484 71.7323 49.584C71.8243 49.684 72.0003 49.78 72.2603 49.872C72.5203 49.964 72.9043 50.074 73.4123 50.202C73.9563 50.342 74.3883 50.498 74.7083 50.67C75.0283 50.838 75.2563 51.04 75.3923 51.276C75.5323 51.508 75.6023 51.79 75.6023 52.122C75.6023 52.762 75.3683 53.264 74.9003 53.628C74.4363 53.992 73.7943 54.174 72.9743 54.174Z" fill="#171717"/>
<path d="M83 36H110C117.18 36 123 41.8203 123 49C123 56.1797 117.18 62 110 62H83V36Z" fill="#E4FFF4"/>
<path d="M93.606 54.18C93.042 54.18 92.542 54.068 92.106 53.844C91.674 53.616 91.334 53.3 91.086 52.896C90.842 52.492 90.72 52.024 90.72 51.492C90.72 50.996 90.836 50.542 91.068 50.13C91.3 49.718 91.646 49.394 92.106 49.158L92.082 49.59C91.714 49.362 91.43 49.078 91.23 48.738C91.034 48.394 90.936 48.01 90.936 47.586C90.936 47.094 91.05 46.668 91.278 46.308C91.506 45.948 91.82 45.67 92.22 45.474C92.624 45.278 93.086 45.18 93.606 45.18C94.126 45.18 94.586 45.278 94.986 45.474C95.386 45.67 95.7 45.948 95.928 46.308C96.156 46.668 96.27 47.094 96.27 47.586C96.27 48.01 96.176 48.392 95.988 48.732C95.8 49.072 95.512 49.358 95.124 49.59L95.106 49.17C95.562 49.394 95.908 49.714 96.144 50.13C96.38 50.542 96.498 50.996 96.498 51.492C96.498 52.024 96.374 52.492 96.126 52.896C95.878 53.3 95.536 53.616 95.1 53.844C94.664 54.068 94.166 54.18 93.606 54.18ZM93.606 52.986C94.07 52.986 94.446 52.86 94.734 52.608C95.022 52.352 95.166 51.98 95.166 51.492C95.166 51.004 95.022 50.632 94.734 50.376C94.45 50.116 94.074 49.986 93.606 49.986C93.138 49.986 92.76 50.116 92.472 50.376C92.188 50.632 92.046 51.004 92.046 51.492C92.046 51.98 92.19 52.352 92.478 52.608C92.766 52.86 93.142 52.986 93.606 52.986ZM93.606 48.786C94.002 48.786 94.322 48.688 94.566 48.492C94.814 48.292 94.938 47.99 94.938 47.586C94.938 47.182 94.814 46.88 94.566 46.68C94.322 46.476 94.002 46.374 93.606 46.374C93.21 46.374 92.888 46.476 92.64 46.68C92.392 46.88 92.268 47.182 92.268 47.586C92.268 47.99 92.392 48.292 92.64 48.492C92.888 48.688 93.21 48.786 93.606 48.786ZM100.243 45.36H101.509L99.2048 54H97.9388L100.243 45.36ZM104.58 54V46.74L102.954 47.73V46.332L104.58 45.36H105.858V54H104.58ZM111.149 54.18C110.561 54.18 110.041 54.052 109.589 53.796C109.137 53.536 108.781 53.18 108.521 52.728C108.265 52.276 108.137 51.756 108.137 51.168V48.192C108.137 47.604 108.265 47.084 108.521 46.632C108.781 46.18 109.137 45.826 109.589 45.57C110.041 45.31 110.561 45.18 111.149 45.18C111.737 45.18 112.257 45.31 112.709 45.57C113.161 45.826 113.515 46.18 113.771 46.632C114.031 47.084 114.161 47.604 114.161 48.192V51.168C114.161 51.756 114.031 52.276 113.771 52.728C113.515 53.18 113.161 53.536 112.709 53.796C112.257 54.052 111.737 54.18 111.149 54.18ZM111.149 52.98C111.469 52.98 111.759 52.904 112.019 52.752C112.283 52.596 112.493 52.388 112.649 52.128C112.805 51.864 112.883 51.57 112.883 51.246V48.102C112.883 47.782 112.805 47.492 112.649 47.232C112.493 46.968 112.283 46.76 112.019 46.608C111.759 46.452 111.469 46.374 111.149 46.374C110.829 46.374 110.537 46.452 110.273 46.608C110.013 46.76 109.805 46.968 109.649 47.232C109.493 47.492 109.415 47.782 109.415 48.102V51.246C109.415 51.57 109.493 51.864 109.649 52.128C109.805 52.388 110.013 52.596 110.273 52.752C110.537 52.904 110.829 52.98 111.149 52.98Z" fill="#00BA70"/>
<path d="M83 36V62" stroke="#E2E2E2"/>
<rect x="131.5" y="35.5" width="88" height="27" rx="13.5" stroke="#E3E3E3"/>
<path d="M144.374 54.18C143.794 54.18 143.26 54.08 142.772 53.88C142.284 53.676 141.86 53.38 141.5 52.992C141.14 52.604 140.86 52.132 140.66 51.576C140.46 51.02 140.36 50.388 140.36 49.68C140.36 48.748 140.53 47.948 140.87 47.28C141.21 46.608 141.682 46.092 142.286 45.732C142.89 45.368 143.586 45.186 144.374 45.186C145.39 45.186 146.2 45.422 146.804 45.894C147.412 46.366 147.826 47.018 148.046 47.85L146.774 48.078C146.598 47.562 146.314 47.15 145.922 46.842C145.53 46.534 145.038 46.378 144.446 46.374C143.834 46.37 143.324 46.506 142.916 46.782C142.512 47.058 142.208 47.446 142.004 47.946C141.8 48.442 141.696 49.02 141.692 49.68C141.688 50.34 141.788 50.918 141.992 51.414C142.196 51.906 142.502 52.29 142.91 52.566C143.322 52.842 143.834 52.982 144.446 52.986C144.938 52.994 145.36 52.904 145.712 52.716C146.068 52.524 146.35 52.244 146.558 51.876C146.766 51.508 146.9 51.056 146.96 50.52H145.28V49.512H148.292C148.3 49.584 148.306 49.68 148.31 49.8C148.314 49.916 148.316 49.99 148.316 50.022C148.316 50.822 148.162 51.536 147.854 52.164C147.546 52.792 147.098 53.286 146.51 53.646C145.922 54.002 145.21 54.18 144.374 54.18ZM148.678 54L151.486 45.36H153.292L156.1 54H154.798L152.212 46.116H152.536L149.979 54H148.678ZM150.136 52.05V50.874H154.648V52.05H150.136ZM156.974 54L159.782 45.36H161.588L164.396 54H163.094L160.508 46.116H160.832L158.276 54H156.974ZM158.432 52.05V50.874H162.944V52.05H158.432ZM165.473 54V45.36H168.965C169.049 45.36 169.153 45.364 169.277 45.372C169.401 45.376 169.519 45.388 169.631 45.408C170.111 45.484 170.511 45.648 170.831 45.9C171.155 46.152 171.397 46.47 171.557 46.854C171.717 47.238 171.797 47.662 171.797 48.126C171.797 48.594 171.717 49.02 171.557 49.404C171.397 49.788 171.155 50.106 170.831 50.358C170.511 50.61 170.111 50.774 169.631 50.85C169.519 50.866 169.399 50.878 169.271 50.886C169.147 50.894 169.045 50.898 168.965 50.898H166.727V54H165.473ZM166.727 49.71H168.917C168.997 49.71 169.085 49.706 169.181 49.698C169.281 49.69 169.375 49.676 169.463 49.656C169.719 49.596 169.925 49.486 170.081 49.326C170.237 49.162 170.349 48.974 170.417 48.762C170.485 48.55 170.519 48.338 170.519 48.126C170.519 47.914 170.485 47.704 170.417 47.496C170.349 47.284 170.237 47.098 170.081 46.938C169.925 46.774 169.719 46.662 169.463 46.602C169.375 46.578 169.281 46.562 169.181 46.554C169.085 46.546 168.997 46.542 168.917 46.542H166.727V49.71Z" fill="#171717"/>
<path d="M179 36H206C213.18 36 219 41.8203 219 49C219 56.1797 213.18 62 206 62H179V36Z" fill="#E4FFF4"/>
<path d="M189.606 54.18C189.042 54.18 188.542 54.068 188.106 53.844C187.674 53.616 187.334 53.3 187.086 52.896C186.842 52.492 186.72 52.024 186.72 51.492C186.72 50.996 186.836 50.542 187.068 50.13C187.3 49.718 187.646 49.394 188.106 49.158L188.082 49.59C187.714 49.362 187.43 49.078 187.23 48.738C187.034 48.394 186.936 48.01 186.936 47.586C186.936 47.094 187.05 46.668 187.278 46.308C187.506 45.948 187.82 45.67 188.22 45.474C188.624 45.278 189.086 45.18 189.606 45.18C190.126 45.18 190.586 45.278 190.986 45.474C191.386 45.67 191.7 45.948 191.928 46.308C192.156 46.668 192.27 47.094 192.27 47.586C192.27 48.01 192.176 48.392 191.988 48.732C191.8 49.072 191.512 49.358 191.124 49.59L191.106 49.17C191.562 49.394 191.908 49.714 192.144 50.13C192.38 50.542 192.498 50.996 192.498 51.492C192.498 52.024 192.374 52.492 192.126 52.896C191.878 53.3 191.536 53.616 191.1 53.844C190.664 54.068 190.166 54.18 189.606 54.18ZM189.606 52.986C190.07 52.986 190.446 52.86 190.734 52.608C191.022 52.352 191.166 51.98 191.166 51.492C191.166 51.004 191.022 50.632 190.734 50.376C190.45 50.116 190.074 49.986 189.606 49.986C189.138 49.986 188.76 50.116 188.472 50.376C188.188 50.632 188.046 51.004 188.046 51.492C188.046 51.98 188.19 52.352 188.478 52.608C188.766 52.86 189.142 52.986 189.606 52.986ZM189.606 48.786C190.002 48.786 190.322 48.688 190.566 48.492C190.814 48.292 190.938 47.99 190.938 47.586C190.938 47.182 190.814 46.88 190.566 46.68C190.322 46.476 190.002 46.374 189.606 46.374C189.21 46.374 188.888 46.476 188.64 46.68C188.392 46.88 188.268 47.182 188.268 47.586C188.268 47.99 188.392 48.292 188.64 48.492C188.888 48.688 189.21 48.786 189.606 48.786ZM196.243 45.36H197.509L195.205 54H193.939L196.243 45.36ZM200.58 54V46.74L198.954 47.73V46.332L200.58 45.36H201.858V54H200.58ZM207.149 54.18C206.561 54.18 206.041 54.052 205.589 53.796C205.137 53.536 204.781 53.18 204.521 52.728C204.265 52.276 204.137 51.756 204.137 51.168V48.192C204.137 47.604 204.265 47.084 204.521 46.632C204.781 46.18 205.137 45.826 205.589 45.57C206.041 45.31 206.561 45.18 207.149 45.18C207.737 45.18 208.257 45.31 208.709 45.57C209.161 45.826 209.515 46.18 209.771 46.632C210.031 47.084 210.161 47.604 210.161 48.192V51.168C210.161 51.756 210.031 52.276 209.771 52.728C209.515 53.18 209.161 53.536 208.709 53.796C208.257 54.052 207.737 54.18 207.149 54.18ZM207.149 52.98C207.469 52.98 207.759 52.904 208.019 52.752C208.283 52.596 208.493 52.388 208.649 52.128C208.805 51.864 208.883 51.57 208.883 51.246V48.102C208.883 47.782 208.805 47.492 208.649 47.232C208.493 46.968 208.283 46.76 208.019 46.608C207.759 46.452 207.469 46.374 207.149 46.374C206.829 46.374 206.537 46.452 206.273 46.608C206.013 46.76 205.805 46.968 205.649 47.232C205.493 47.492 205.415 47.782 205.415 48.102V51.246C205.415 51.57 205.493 51.864 205.649 52.128C205.805 52.388 206.013 52.596 206.273 52.752C206.537 52.904 206.829 52.98 207.149 52.98Z" fill="#00BA70"/>
<path d="M179 36V62" stroke="#E2E2E2"/>
<rect x="227.5" y="35.5" width="121" height="27" rx="13.5" stroke="#E3E3E3"/>
<path d="M308 36H335C342.18 36 348 41.8203 348 49C348 56.1797 342.18 62 335 62H308V36Z" fill="#E4FFF4"/>
<path d="M237.24 54L240.048 45.36H241.854L244.662 54H243.36L240.774 46.116H241.098L238.542 54H237.24ZM238.698 52.05V50.874H243.21V52.05H238.698ZM248.51 54.18C247.846 54.18 247.282 54.032 246.818 53.736C246.354 53.44 245.998 53.034 245.75 52.518C245.506 52.002 245.382 51.416 245.378 50.76C245.382 50.092 245.51 49.502 245.762 48.99C246.014 48.474 246.374 48.07 246.842 47.778C247.31 47.486 247.872 47.34 248.528 47.34C249.236 47.34 249.84 47.516 250.34 47.868C250.844 48.22 251.176 48.702 251.336 49.314L250.088 49.674C249.964 49.31 249.76 49.028 249.476 48.828C249.196 48.624 248.874 48.522 248.51 48.522C248.098 48.522 247.76 48.62 247.496 48.816C247.232 49.008 247.036 49.272 246.908 49.608C246.78 49.944 246.714 50.328 246.71 50.76C246.714 51.428 246.866 51.968 247.166 52.38C247.47 52.792 247.918 52.998 248.51 52.998C248.914 52.998 249.24 52.906 249.488 52.722C249.74 52.534 249.932 52.266 250.064 51.918L251.336 52.218C251.124 52.85 250.774 53.336 250.286 53.676C249.798 54.012 249.206 54.18 248.51 54.18ZM255.155 54.18C254.491 54.18 253.927 54.032 253.463 53.736C252.999 53.44 252.643 53.034 252.395 52.518C252.151 52.002 252.027 51.416 252.023 50.76C252.027 50.092 252.155 49.502 252.407 48.99C252.659 48.474 253.019 48.07 253.487 47.778C253.955 47.486 254.517 47.34 255.173 47.34C255.881 47.34 256.485 47.516 256.985 47.868C257.489 48.22 257.821 48.702 257.981 49.314L256.733 49.674C256.609 49.31 256.405 49.028 256.121 48.828C255.841 48.624 255.519 48.522 255.155 48.522C254.743 48.522 254.405 48.62 254.141 48.816C253.877 49.008 253.681 49.272 253.553 49.608C253.425 49.944 253.359 50.328 253.355 50.76C253.359 51.428 253.511 51.968 253.811 52.38C254.115 52.792 254.563 52.998 255.155 52.998C255.559 52.998 255.885 52.906 256.133 52.722C256.385 52.534 256.577 52.266 256.709 51.918L257.981 52.218C257.769 52.85 257.419 53.336 256.931 53.676C256.443 54.012 255.851 54.18 255.155 54.18ZM261.842 54.18C261.194 54.18 260.632 54.034 260.156 53.742C259.68 53.45 259.312 53.048 259.052 52.536C258.796 52.02 258.668 51.426 258.668 50.754C258.668 50.078 258.8 49.484 259.064 48.972C259.328 48.456 259.698 48.056 260.174 47.772C260.65 47.484 261.206 47.34 261.842 47.34C262.49 47.34 263.052 47.486 263.528 47.778C264.004 48.07 264.372 48.472 264.632 48.984C264.892 49.496 265.022 50.086 265.022 50.754C265.022 51.43 264.89 52.026 264.626 52.542C264.366 53.054 263.998 53.456 263.522 53.748C263.046 54.036 262.486 54.18 261.842 54.18ZM261.842 52.998C262.462 52.998 262.924 52.79 263.228 52.374C263.536 51.954 263.69 51.414 263.69 50.754C263.69 50.078 263.534 49.538 263.222 49.134C262.914 48.726 262.454 48.522 261.842 48.522C261.422 48.522 261.076 48.618 260.804 48.81C260.532 48.998 260.33 49.26 260.198 49.596C260.066 49.928 260 50.314 260 50.754C260 51.434 260.156 51.978 260.468 52.386C260.78 52.794 261.238 52.998 261.842 52.998ZM268.782 54.174C268.334 54.174 267.958 54.102 267.654 53.958C267.35 53.814 267.102 53.626 266.91 53.394C266.722 53.158 266.578 52.902 266.478 52.626C266.378 52.35 266.31 52.08 266.274 51.816C266.238 51.552 266.22 51.32 266.22 51.12V47.52H267.492V50.706C267.492 50.958 267.512 51.218 267.552 51.486C267.596 51.75 267.676 51.996 267.792 52.224C267.912 52.452 268.078 52.636 268.29 52.776C268.506 52.916 268.786 52.986 269.13 52.986C269.354 52.986 269.566 52.95 269.766 52.878C269.966 52.802 270.14 52.682 270.288 52.518C270.44 52.354 270.558 52.138 270.642 51.87C270.73 51.602 270.774 51.276 270.774 50.892L271.554 51.186C271.554 51.774 271.444 52.294 271.224 52.746C271.004 53.194 270.688 53.544 270.276 53.796C269.864 54.048 269.366 54.174 268.782 54.174ZM270.924 54V52.128H270.774V47.52H272.04V54H270.924ZM278.271 54V50.814C278.271 50.562 278.249 50.304 278.205 50.04C278.165 49.772 278.085 49.524 277.965 49.296C277.849 49.068 277.683 48.884 277.467 48.744C277.255 48.604 276.977 48.534 276.633 48.534C276.409 48.534 276.197 48.572 275.997 48.648C275.797 48.72 275.621 48.838 275.469 49.002C275.321 49.166 275.203 49.382 275.115 49.65C275.031 49.918 274.989 50.244 274.989 50.628L274.209 50.334C274.209 49.746 274.319 49.228 274.539 48.78C274.759 48.328 275.075 47.976 275.487 47.724C275.899 47.472 276.397 47.346 276.981 47.346C277.429 47.346 277.805 47.418 278.109 47.562C278.413 47.706 278.659 47.896 278.847 48.132C279.039 48.364 279.185 48.618 279.285 48.894C279.385 49.17 279.453 49.44 279.489 49.704C279.525 49.968 279.543 50.2 279.543 50.4V54H278.271ZM273.717 54V47.52H274.839V49.392H274.989V54H273.717ZM284.814 54C284.406 54.08 284.006 54.114 283.614 54.102C283.222 54.09 282.872 54.014 282.564 53.874C282.256 53.734 282.024 53.514 281.868 53.214C281.728 52.946 281.652 52.674 281.64 52.398C281.632 52.118 281.628 51.802 281.628 51.45V45.72H282.888V51.39C282.888 51.65 282.89 51.876 282.894 52.068C282.902 52.26 282.944 52.422 283.02 52.554C283.164 52.802 283.392 52.944 283.704 52.98C284.02 53.012 284.39 52.998 284.814 52.938V54ZM280.386 48.528V47.52H284.814V48.528H280.386ZM286.3 46.458V45.24H287.554V46.458H286.3ZM286.3 54V47.52H287.554V54H286.3ZM293.904 54V50.814C293.904 50.562 293.882 50.304 293.838 50.04C293.798 49.772 293.718 49.524 293.598 49.296C293.482 49.068 293.316 48.884 293.1 48.744C292.888 48.604 292.61 48.534 292.266 48.534C292.042 48.534 291.83 48.572 291.63 48.648C291.43 48.72 291.254 48.838 291.102 49.002C290.954 49.166 290.836 49.382 290.748 49.65C290.664 49.918 290.622 50.244 290.622 50.628L289.842 50.334C289.842 49.746 289.952 49.228 290.172 48.78C290.392 48.328 290.708 47.976 291.12 47.724C291.532 47.472 292.03 47.346 292.614 47.346C293.062 47.346 293.438 47.418 293.742 47.562C294.046 47.706 294.292 47.896 294.48 48.132C294.672 48.364 294.818 48.618 294.918 48.894C295.018 49.17 295.086 49.44 295.122 49.704C295.158 49.968 295.176 50.2 295.176 50.4V54H293.904ZM289.35 54V47.52H290.472V49.392H290.622V54H289.35ZM299.408 57.06C299.06 57.06 298.722 57.006 298.394 56.898C298.07 56.79 297.774 56.63 297.506 56.418C297.238 56.21 297.016 55.952 296.84 55.644L297.998 55.056C298.138 55.332 298.338 55.534 298.598 55.662C298.858 55.79 299.132 55.854 299.42 55.854C299.776 55.854 300.08 55.79 300.332 55.662C300.584 55.538 300.774 55.35 300.902 55.098C301.034 54.846 301.098 54.534 301.094 54.162V52.35H301.244V47.52H302.354V54.174C302.354 54.346 302.348 54.51 302.336 54.666C302.324 54.822 302.302 54.978 302.27 55.134C302.178 55.57 302.002 55.93 301.742 56.214C301.486 56.498 301.158 56.71 300.758 56.85C300.362 56.99 299.912 57.06 299.408 57.06ZM299.312 54.18C298.708 54.18 298.186 54.03 297.746 53.73C297.31 53.43 296.972 53.022 296.732 52.506C296.496 51.986 296.378 51.402 296.378 50.754C296.378 50.102 296.498 49.52 296.738 49.008C296.978 48.492 297.318 48.086 297.758 47.79C298.202 47.49 298.728 47.34 299.336 47.34C299.948 47.34 300.462 47.49 300.878 47.79C301.298 48.086 301.614 48.492 301.826 49.008C302.042 49.524 302.15 50.106 302.15 50.754C302.15 51.402 302.042 51.984 301.826 52.5C301.61 53.016 301.292 53.426 300.872 53.73C300.452 54.03 299.932 54.18 299.312 54.18ZM299.486 53.046C299.898 53.046 300.234 52.948 300.494 52.752C300.754 52.556 300.944 52.286 301.064 51.942C301.184 51.598 301.244 51.202 301.244 50.754C301.244 50.306 301.182 49.91 301.058 49.566C300.938 49.222 300.75 48.954 300.494 48.762C300.242 48.57 299.92 48.474 299.528 48.474C299.112 48.474 298.77 48.576 298.502 48.78C298.234 48.984 298.034 49.258 297.902 49.602C297.774 49.946 297.71 50.33 297.71 50.754C297.71 51.182 297.774 51.57 297.902 51.918C298.034 52.262 298.23 52.536 298.49 52.74C298.754 52.944 299.086 53.046 299.486 53.046Z" fill="#171717"/>
<path d="M318.648 45.186C319.204 45.186 319.706 45.32 320.154 45.588C320.602 45.852 320.958 46.216 321.222 46.68C321.486 47.144 321.618 47.674 321.618 48.27V51.018C321.618 51.65 321.486 52.204 321.222 52.68C320.962 53.152 320.598 53.52 320.13 53.784C319.666 54.048 319.13 54.18 318.522 54.18C318.066 54.18 317.638 54.094 317.238 53.922C316.838 53.75 316.49 53.494 316.194 53.154L317.118 52.296C317.282 52.508 317.488 52.678 317.736 52.806C317.984 52.934 318.246 52.998 318.522 52.998C318.878 52.998 319.192 52.912 319.464 52.74C319.74 52.568 319.954 52.344 320.106 52.068C320.258 51.792 320.334 51.496 320.334 51.18V49.596L320.586 49.872C320.338 50.196 320.03 50.452 319.662 50.64C319.294 50.828 318.9 50.922 318.48 50.922C317.94 50.922 317.46 50.798 317.04 50.55C316.62 50.302 316.288 49.964 316.044 49.536C315.8 49.108 315.678 48.624 315.678 48.084C315.678 47.544 315.814 47.056 316.086 46.62C316.358 46.184 316.718 45.836 317.166 45.576C317.614 45.316 318.108 45.186 318.648 45.186ZM318.648 46.398C318.336 46.398 318.05 46.474 317.79 46.626C317.534 46.774 317.33 46.976 317.178 47.232C317.026 47.488 316.95 47.772 316.95 48.084C316.95 48.396 317.026 48.682 317.178 48.942C317.33 49.198 317.534 49.402 317.79 49.554C318.046 49.706 318.33 49.782 318.642 49.782C318.954 49.782 319.238 49.706 319.494 49.554C319.75 49.402 319.954 49.198 320.106 48.942C320.258 48.682 320.334 48.396 320.334 48.084C320.334 47.776 320.258 47.494 320.106 47.238C319.958 46.982 319.756 46.778 319.5 46.626C319.244 46.474 318.96 46.398 318.648 46.398ZM325.477 45.36H326.743L324.439 54H323.173L325.477 45.36ZM329.815 54V46.74L328.189 47.73V46.332L329.815 45.36H331.093V54H329.815ZM336.383 54.18C335.795 54.18 335.275 54.052 334.823 53.796C334.371 53.536 334.015 53.18 333.755 52.728C333.499 52.276 333.371 51.756 333.371 51.168V48.192C333.371 47.604 333.499 47.084 333.755 46.632C334.015 46.18 334.371 45.826 334.823 45.57C335.275 45.31 335.795 45.18 336.383 45.18C336.971 45.18 337.491 45.31 337.943 45.57C338.395 45.826 338.749 46.18 339.005 46.632C339.265 47.084 339.395 47.604 339.395 48.192V51.168C339.395 51.756 339.265 52.276 339.005 52.728C338.749 53.18 338.395 53.536 337.943 53.796C337.491 54.052 336.971 54.18 336.383 54.18ZM336.383 52.98C336.703 52.98 336.993 52.904 337.253 52.752C337.517 52.596 337.727 52.388 337.883 52.128C338.039 51.864 338.117 51.57 338.117 51.246V48.102C338.117 47.782 338.039 47.492 337.883 47.232C337.727 46.968 337.517 46.76 337.253 46.608C336.993 46.452 336.703 46.374 336.383 46.374C336.063 46.374 335.771 46.452 335.507 46.608C335.247 46.76 335.039 46.968 334.883 47.232C334.727 47.492 334.649 47.782 334.649 48.102V51.246C334.649 51.57 334.727 51.864 334.883 52.128C335.039 52.388 335.247 52.596 335.507 52.752C335.771 52.904 336.063 52.98 336.383 52.98Z" fill="#00BA70"/>
<path d="M308 36V62" stroke="#E2E2E2"/>
</svg>
