<svg width="62" height="62" viewBox="0 0 62 62" fill="none" xmlns="http://www.w3.org/2000/svg">
<rect width="62" height="62" rx="8" fill="#034A9A"/>
<path d="M32.875 29.125C32.875 30.1196 32.4799 31.0734 31.7766 31.7766C31.0734 32.4799 30.1196 32.875 29.125 32.875C28.1304 32.875 27.1766 32.4799 26.4733 31.7766C25.7701 31.0734 25.375 30.1196 25.375 29.125C25.375 28.1304 25.7701 27.1766 26.4733 26.4733C27.1766 25.7701 28.1304 25.375 29.125 25.375C30.1196 25.375 31.0734 25.7701 31.7766 26.4733C32.4799 27.1766 32.875 28.1304 32.875 29.125ZM31 29.125C31 28.6277 30.8025 28.1508 30.4508 27.7992C30.0992 27.4475 29.6223 27.25 29.125 27.25C28.6277 27.25 28.1508 27.4475 27.7992 27.7992C27.4475 28.1508 27.25 28.6277 27.25 29.125C27.25 29.6223 27.4475 30.0992 27.7992 30.4508C28.1508 30.8025 28.6277 31 29.125 31C29.6223 31 30.0992 30.8025 30.4508 30.4508C30.8025 30.0992 31 29.6223 31 29.125ZM17.875 23.9688C17.875 22.675 18.925 21.625 20.2188 21.625H38.0312C39.325 21.625 40.375 22.675 40.375 23.9688V34.2812C40.375 35.575 39.325 36.625 38.0312 36.625H20.2188C18.925 36.625 17.875 35.575 17.875 34.2812V23.9688ZM20.2188 23.5C20.0944 23.5 19.9752 23.5494 19.8873 23.6373C19.7994 23.7252 19.75 23.8444 19.75 23.9688V25.375H20.6875C20.9361 25.375 21.1746 25.2762 21.3504 25.1004C21.5262 24.9246 21.625 24.6861 21.625 24.4375V23.5H20.2188ZM19.75 34.2812C19.75 34.54 19.96 34.75 20.2188 34.75H21.625V33.8125C21.625 33.5639 21.5262 33.3254 21.3504 33.1496C21.1746 32.9738 20.9361 32.875 20.6875 32.875H19.75V34.2812ZM23.5 33.8125V34.75H34.75V33.8125C34.75 33.0666 35.0463 32.3512 35.5738 31.8238C36.1012 31.2963 36.8166 31 37.5625 31H38.5V27.25H37.5625C36.8166 27.25 36.1012 26.9537 35.5738 26.4262C35.0463 25.8988 34.75 25.1834 34.75 24.4375V23.5H23.5V24.4375C23.5 25.1834 23.2037 25.8988 22.6762 26.4262C22.1488 26.9537 21.4334 27.25 20.6875 27.25H19.75V31H20.6875C21.4334 31 22.1488 31.2963 22.6762 31.8238C23.2037 32.3512 23.5 33.0666 23.5 33.8125ZM36.625 34.75H38.0312C38.1556 34.75 38.2748 34.7006 38.3627 34.6127C38.4506 34.5248 38.5 34.4056 38.5 34.2812V32.875H37.5625C37.3139 32.875 37.0754 32.9738 36.8996 33.1496C36.7238 33.3254 36.625 33.5639 36.625 33.8125V34.75ZM38.5 25.375V23.9688C38.5 23.8444 38.4506 23.7252 38.3627 23.6373C38.2748 23.5494 38.1556 23.5 38.0312 23.5H36.625V24.4375C36.625 24.6861 36.7238 24.9246 36.8996 25.1004C37.0754 25.2762 37.3139 25.375 37.5625 25.375H38.5ZM24.4375 40.375C23.8435 40.3752 23.2647 40.1874 22.7841 39.8384C22.3034 39.4895 21.9456 38.9973 21.7619 38.4325C22.0225 38.4775 22.2888 38.5 22.5625 38.5H38.0312C39.1501 38.5 40.2232 38.0555 41.0144 37.2644C41.8055 36.4732 42.25 35.4001 42.25 34.2812V25.5344C42.7986 25.7283 43.2735 26.0877 43.6093 26.5628C43.9451 27.038 44.1253 27.6056 44.125 28.1875V34.2812C44.125 35.0815 43.9674 35.8739 43.6611 36.6132C43.3549 37.3526 42.906 38.0243 42.3402 38.5902C41.7743 39.156 41.1026 39.6049 40.3632 39.9111C39.6239 40.2174 38.8315 40.375 38.0312 40.375H24.4375Z" fill="#F7F7F7"/>
</svg>
