<svg width="62" height="62" viewBox="0 0 62 62" fill="none" xmlns="http://www.w3.org/2000/svg">
<rect width="62" height="62" rx="8" fill="#DEAC2B"/>
<path d="M20.75 35.6875V26.3125C20.75 25.6495 21.0134 25.0136 21.4822 24.5447C21.9511 24.0759 22.587 23.8125 23.25 23.8125H33.875C34.538 23.8125 35.1739 24.0759 35.6428 24.5447C36.1116 25.0136 36.375 25.6495 36.375 26.3125V35.6875C36.375 36.3505 36.1116 36.9864 35.6428 37.4553C35.1739 37.9241 34.538 38.1875 33.875 38.1875H23.25C22.587 38.1875 21.9511 37.9241 21.4822 37.4553C21.0134 36.9864 20.75 36.3505 20.75 35.6875ZM42.21 24.7388L37.21 29.1925C37.1441 29.251 37.0913 29.3228 37.0551 29.4032C37.0189 29.4835 37.0002 29.5706 37 29.6588V31.8812C37.0002 31.9694 37.0189 32.0565 37.0551 32.1368C37.0913 32.2172 37.1441 32.289 37.21 32.3475L42.21 36.8013C42.3001 36.8812 42.4114 36.9335 42.5305 36.9517C42.6495 36.9699 42.7714 36.9534 42.8812 36.904C42.9911 36.8546 43.0844 36.7745 43.1498 36.6733C43.2152 36.5721 43.25 36.4542 43.25 36.3338V25.2062C43.25 25.0858 43.2152 24.9679 43.1498 24.8667C43.0844 24.7655 42.9911 24.6854 42.8812 24.636C42.7714 24.5866 42.6495 24.5701 42.5305 24.5883C42.4114 24.6065 42.3001 24.6588 42.21 24.7388Z" stroke="#F7F7F7" stroke-width="3" stroke-linecap="round" stroke-linejoin="round"/>
</svg>
