<svg width="62" height="62" viewBox="0 0 62 62" fill="none" xmlns="http://www.w3.org/2000/svg">
<rect width="62" height="62" rx="8" fill="#E72F2F"/>
<path d="M34.75 21C37.4022 21 39.9457 22.0536 41.8211 23.9289C43.6964 25.8043 44.75 28.3478 44.75 31C44.75 33.6522 43.6964 36.1957 41.8211 38.0711C39.9457 39.9464 37.4022 41 34.75 41C32.0978 41 29.5543 39.9464 27.6789 38.0711C25.8036 36.1957 24.75 33.6522 24.75 31C24.75 28.3478 25.8036 25.8043 27.6789 23.9289C29.5543 22.0536 32.0978 21 34.75 21ZM34.75 23.5C32.7609 23.5 30.8532 24.2902 29.4467 25.6967C28.0402 27.1032 27.25 29.0109 27.25 31C27.25 32.9891 28.0402 34.8968 29.4467 36.3033C30.8532 37.7098 32.7609 38.5 34.75 38.5C36.7391 38.5 38.6468 37.7098 40.0533 36.3033C41.4598 34.8968 42.25 32.9891 42.25 31C42.25 29.0109 41.4598 27.1032 40.0533 25.6967C38.6468 24.2902 36.7391 23.5 34.75 23.5ZM33.5 26H35.375V30.725L38.2875 33.6375L36.9625 34.9625L33.5 31.5V26ZM18.5 38.5C18.1685 38.5 17.8505 38.3683 17.6161 38.1339C17.3817 37.8995 17.25 37.5815 17.25 37.25C17.25 36.9185 17.3817 36.6005 17.6161 36.3661C17.8505 36.1317 18.1685 36 18.5 36H23.2875C23.675 36.8875 24.175 37.725 24.75 38.5H18.5ZM19.75 32.25C19.4185 32.25 19.1005 32.1183 18.8661 31.8839C18.6317 31.6495 18.5 31.3315 18.5 31C18.5 30.6685 18.6317 30.3505 18.8661 30.1161C19.1005 29.8817 19.4185 29.75 19.75 29.75H22.3125L22.25 31L22.3125 32.25H19.75ZM21 26C20.6685 26 20.3505 25.8683 20.1161 25.6339C19.8817 25.3995 19.75 25.0815 19.75 24.75C19.75 24.4185 19.8817 24.1005 20.1161 23.8661C20.3505 23.6317 20.6685 23.5 21 23.5H24.75C24.175 24.275 23.675 25.1125 23.2875 26H21Z" fill="#F7F7F7"/>
</svg>
