<svg width="62" height="62" viewBox="0 0 62 62" fill="none" xmlns="http://www.w3.org/2000/svg">
<rect width="62" height="62" rx="8" fill="#B253DE"/>
<path d="M41.7812 19.2812H20.2188C19.7002 19.2812 19.2812 19.7002 19.2812 20.2188V41.7812C19.2812 42.2998 19.7002 42.7188 20.2188 42.7188H41.7812C42.2998 42.7188 42.7188 42.2998 42.7188 41.7812V20.2188C42.7188 19.7002 42.2998 19.2812 41.7812 19.2812ZM40.6094 40.6094H21.3906V21.3906H40.6094V40.6094ZM30.4141 27.7188H35.8047C35.9336 27.7188 36.0391 27.6133 36.0391 27.4844V26.0781C36.0391 25.9492 35.9336 25.8438 35.8047 25.8438H30.4141C30.2852 25.8438 30.1797 25.9492 30.1797 26.0781V27.4844C30.1797 27.6133 30.2852 27.7188 30.4141 27.7188ZM30.4141 31.9375H35.8047C35.9336 31.9375 36.0391 31.832 36.0391 31.7031V30.2969C36.0391 30.168 35.9336 30.0625 35.8047 30.0625H30.4141C30.2852 30.0625 30.1797 30.168 30.1797 30.2969V31.7031C30.1797 31.832 30.2852 31.9375 30.4141 31.9375ZM30.4141 36.1562H35.8047C35.9336 36.1562 36.0391 36.0508 36.0391 35.9219V34.5156C36.0391 34.3867 35.9336 34.2812 35.8047 34.2812H30.4141C30.2852 34.2812 30.1797 34.3867 30.1797 34.5156V35.9219C30.1797 36.0508 30.2852 36.1562 30.4141 36.1562ZM25.9609 26.7812C25.9609 27.0921 26.0844 27.3901 26.3042 27.6099C26.5239 27.8297 26.822 27.9531 27.1328 27.9531C27.4436 27.9531 27.7417 27.8297 27.9615 27.6099C28.1812 27.3901 28.3047 27.0921 28.3047 26.7812C28.3047 26.4704 28.1812 26.1724 27.9615 25.9526C27.7417 25.7328 27.4436 25.6094 27.1328 25.6094C26.822 25.6094 26.5239 25.7328 26.3042 25.9526C26.0844 26.1724 25.9609 26.4704 25.9609 26.7812ZM25.9609 31C25.9609 31.3108 26.0844 31.6089 26.3042 31.8286C26.5239 32.0484 26.822 32.1719 27.1328 32.1719C27.4436 32.1719 27.7417 32.0484 27.9615 31.8286C28.1812 31.6089 28.3047 31.3108 28.3047 31C28.3047 30.6892 28.1812 30.3911 27.9615 30.1714C27.7417 29.9516 27.4436 29.8281 27.1328 29.8281C26.822 29.8281 26.5239 29.9516 26.3042 30.1714C26.0844 30.3911 25.9609 30.6892 25.9609 31ZM25.9609 35.2188C25.9609 35.5296 26.0844 35.8276 26.3042 36.0474C26.5239 36.2672 26.822 36.3906 27.1328 36.3906C27.4436 36.3906 27.7417 36.2672 27.9615 36.0474C28.1812 35.8276 28.3047 35.5296 28.3047 35.2188C28.3047 34.9079 28.1812 34.6099 27.9615 34.3901C27.7417 34.1703 27.4436 34.0469 27.1328 34.0469C26.822 34.0469 26.5239 34.1703 26.3042 34.3901C26.0844 34.6099 25.9609 34.9079 25.9609 35.2188Z" fill="#F7F7F7"/>
</svg>
