<svg width="62" height="62" viewBox="0 0 62 62" fill="none" xmlns="http://www.w3.org/2000/svg">
<rect width="62" height="62" rx="8" fill="#00BA70"/>
<path d="M27.25 22.2501C26.9185 22.2501 26.6005 22.3818 26.3661 22.6163C26.1317 22.8507 26 23.1686 26 23.5001C26 23.8317 26.1317 24.1496 26.3661 24.384C26.6005 24.6184 26.9185 24.7501 27.25 24.7501C27.5815 24.7501 27.8995 24.6184 28.1339 24.384C28.3683 24.1496 28.5 23.8317 28.5 23.5001C28.5 23.1686 28.3683 22.8507 28.1339 22.6163C27.8995 22.3818 27.5815 22.2501 27.25 22.2501ZM23.7125 22.2501C23.9708 21.5182 24.4497 20.8844 25.0832 20.4361C25.7168 19.9878 26.4739 19.7471 27.25 19.7471C28.0261 19.7471 28.7832 19.9878 29.4167 20.4361C30.0503 20.8844 30.5292 21.5182 30.7875 22.2501H39.75C40.0815 22.2501 40.3995 22.3818 40.6339 22.6163C40.8683 22.8507 41 23.1686 41 23.5001C41 23.8317 40.8683 24.1496 40.6339 24.384C40.3995 24.6184 40.0815 24.7501 39.75 24.7501H30.7875C30.5292 25.482 30.0503 26.1158 29.4167 26.5641C28.7832 27.0125 28.0261 27.2532 27.25 27.2532C26.4739 27.2532 25.7168 27.0125 25.0832 26.5641C24.4497 26.1158 23.9708 25.482 23.7125 24.7501H22.25C21.9185 24.7501 21.6005 24.6184 21.3661 24.384C21.1317 24.1496 21 23.8317 21 23.5001C21 23.1686 21.1317 22.8507 21.3661 22.6163C21.6005 22.3818 21.9185 22.2501 22.25 22.2501H23.7125ZM34.75 29.7501C34.4185 29.7501 34.1005 29.8818 33.8661 30.1162C33.6317 30.3507 33.5 30.6686 33.5 31.0001C33.5 31.3317 33.6317 31.6496 33.8661 31.884C34.1005 32.1184 34.4185 32.2501 34.75 32.2501C35.0815 32.2501 35.3995 32.1184 35.6339 31.884C35.8683 31.6496 36 31.3317 36 31.0001C36 30.6686 35.8683 30.3507 35.6339 30.1162C35.3995 29.8818 35.0815 29.7501 34.75 29.7501ZM31.2125 29.7501C31.4708 29.0182 31.9497 28.3844 32.5833 27.9361C33.2168 27.4878 33.9739 27.2471 34.75 27.2471C35.5261 27.2471 36.2832 27.4878 36.9167 27.9361C37.5503 28.3844 38.0292 29.0182 38.2875 29.7501H39.75C40.0815 29.7501 40.3995 29.8818 40.6339 30.1162C40.8683 30.3507 41 30.6686 41 31.0001C41 31.3317 40.8683 31.6496 40.6339 31.884C40.3995 32.1184 40.0815 32.2501 39.75 32.2501H38.2875C38.0292 32.982 37.5503 33.6158 36.9167 34.0641C36.2832 34.5125 35.5261 34.7532 34.75 34.7532C33.9739 34.7532 33.2168 34.5125 32.5833 34.0641C31.9497 33.6158 31.4708 32.982 31.2125 32.2501H22.25C21.9185 32.2501 21.6005 32.1184 21.3661 31.884C21.1317 31.6496 21 31.3317 21 31.0001C21 30.6686 21.1317 30.3507 21.3661 30.1162C21.6005 29.8818 21.9185 29.7501 22.25 29.7501H31.2125ZM27.25 37.2501C26.9185 37.2501 26.6005 37.3818 26.3661 37.6162C26.1317 37.8507 26 38.1686 26 38.5001C26 38.8317 26.1317 39.1496 26.3661 39.384C26.6005 39.6184 26.9185 39.7501 27.25 39.7501C27.5815 39.7501 27.8995 39.6184 28.1339 39.384C28.3683 39.1496 28.5 38.8317 28.5 38.5001C28.5 38.1686 28.3683 37.8507 28.1339 37.6162C27.8995 37.3818 27.5815 37.2501 27.25 37.2501ZM23.7125 37.2501C23.9708 36.5182 24.4497 35.8844 25.0832 35.4361C25.7168 34.9878 26.4739 34.7471 27.25 34.7471C28.0261 34.7471 28.7832 34.9878 29.4167 35.4361C30.0503 35.8844 30.5292 36.5182 30.7875 37.2501H39.75C40.0815 37.2501 40.3995 37.3818 40.6339 37.6162C40.8683 37.8507 41 38.1686 41 38.5001C41 38.8317 40.8683 39.1496 40.6339 39.384C40.3995 39.6184 40.0815 39.7501 39.75 39.7501H30.7875C30.5292 40.482 30.0503 41.1158 29.4167 41.5641C28.7832 42.0125 28.0261 42.2532 27.25 42.2532C26.4739 42.2532 25.7168 42.0125 25.0832 41.5641C24.4497 41.1158 23.9708 40.482 23.7125 39.7501H22.25C21.9185 39.7501 21.6005 39.6184 21.3661 39.384C21.1317 39.1496 21 38.8317 21 38.5001C21 38.1686 21.1317 37.8507 21.3661 37.6162C21.6005 37.3818 21.9185 37.2501 22.25 37.2501H23.7125Z" fill="#F7F7F7"/>
</svg>
