<svg width="62" height="62" viewBox="0 0 62 62" fill="none" xmlns="http://www.w3.org/2000/svg">
<rect width="62" height="62" rx="8" fill="#3790E3"/>
<g clip-path="url(#clip0_8184_2558)">
<path fill-rule="evenodd" clip-rule="evenodd" d="M41 19.75C41.663 19.75 42.2989 20.0134 42.7678 20.4822C43.2366 20.9511 43.5 21.587 43.5 22.25V39.75C43.5 40.413 43.2366 41.0489 42.7678 41.5178C42.2989 41.9866 41.663 42.25 41 42.25H21C20.337 42.25 19.7011 41.9866 19.2322 41.5178C18.7634 41.0489 18.5 40.413 18.5 39.75V22.25C18.5 21.587 18.7634 20.9511 19.2322 20.4822C19.7011 20.0134 20.337 19.75 21 19.75H41ZM41 22.25H21V39.75H41V22.25ZM37.25 34.75C37.5686 34.7504 37.875 34.8723 38.1067 35.0911C38.3384 35.3098 38.4778 35.6087 38.4965 35.9267C38.5151 36.2448 38.4117 36.558 38.2072 36.8023C38.0027 37.0466 37.7126 37.2036 37.3963 37.2412L37.25 37.25H24.75C24.4314 37.2496 24.125 37.1277 23.8933 36.9089C23.6616 36.6902 23.5222 36.3913 23.5035 36.0733C23.4849 35.7552 23.5883 35.442 23.7928 35.1977C23.9973 34.9534 24.2874 34.7964 24.6037 34.7587L24.75 34.75H37.25ZM28.5 24.75C29.163 24.75 29.7989 25.0134 30.2678 25.4822C30.7366 25.9511 31 26.587 31 27.25V29.75C31 30.413 30.7366 31.0489 30.2678 31.5178C29.7989 31.9866 29.163 32.25 28.5 32.25H26C25.337 32.25 24.7011 31.9866 24.2322 31.5178C23.7634 31.0489 23.5 30.413 23.5 29.75V27.25C23.5 26.587 23.7634 25.9511 24.2322 25.4822C24.7011 25.0134 25.337 24.75 26 24.75H28.5ZM37.25 29.75C37.5815 29.75 37.8995 29.8817 38.1339 30.1161C38.3683 30.3505 38.5 30.6685 38.5 31C38.5 31.3315 38.3683 31.6495 38.1339 31.8839C37.8995 32.1183 37.5815 32.25 37.25 32.25H33.5C33.1685 32.25 32.8505 32.1183 32.6161 31.8839C32.3817 31.6495 32.25 31.3315 32.25 31C32.25 30.6685 32.3817 30.3505 32.6161 30.1161C32.8505 29.8817 33.1685 29.75 33.5 29.75H37.25ZM28.5 27.25H26V29.75H28.5V27.25ZM37.25 24.75C37.5686 24.7504 37.875 24.8723 38.1067 25.0911C38.3384 25.3098 38.4778 25.6087 38.4965 25.9267C38.5151 26.2448 38.4117 26.558 38.2072 26.8023C38.0027 27.0466 37.7126 27.2036 37.3963 27.2413L37.25 27.25H33.5C33.1814 27.2496 32.875 27.1277 32.6433 26.9089C32.4116 26.6902 32.2722 26.3913 32.2535 26.0733C32.2349 25.7552 32.3383 25.442 32.5428 25.1977C32.7473 24.9534 33.0374 24.7964 33.3538 24.7587L33.5 24.75H37.25Z" fill="#F7F7F7"/>
</g>
<defs>
<clipPath id="clip0_8184_2558">
<rect width="30" height="30" fill="white" transform="translate(16 16)"/>
</clipPath>
</defs>
</svg>
