<svg xmlns="http://www.w3.org/2000/svg" width="25" height="25" viewBox="0 0 25 25" fill="none">
  <path d="M12.4996 1.70459C15.3627 1.70459 18.1086 2.84197 20.1331 4.86651C22.1576 6.89105 23.295 9.63691 23.295 12.5C23.295 15.3632 22.1576 18.109 20.1331 20.1336C18.1086 22.1581 15.3627 23.2955 12.4996 23.2955C9.63643 23.2955 6.89056 22.1581 4.86602 20.1336C2.84148 18.109 1.7041 15.3632 1.7041 12.5C1.7041 9.63691 2.84148 6.89105 4.86602 4.86651C6.89056 2.84197 9.63643 1.70459 12.4996 1.70459ZM12.4996 3.05402C11.2591 3.05402 10.0308 3.29835 8.88472 3.77306C7.73868 4.24777 6.69735 4.94355 5.82021 5.8207C4.94307 6.69784 4.24728 7.73917 3.77257 8.88521C3.29786 10.0313 3.05353 11.2596 3.05353 12.5C3.05353 13.7405 3.29786 14.9688 3.77257 16.1149C4.24728 17.2609 4.94307 18.3022 5.82021 19.1794C6.69735 20.0565 7.73868 20.7523 8.88472 21.227C10.0308 21.7017 11.2591 21.9461 12.4996 21.9461C15.0048 21.9461 17.4074 20.9509 19.1789 19.1794C20.9504 17.4079 21.9456 15.0053 21.9456 12.5C21.9456 9.99481 20.9504 7.59217 19.1789 5.8207C17.4074 4.04923 15.0048 3.05402 12.4996 3.05402ZM8.66042 15.7751C9.63581 16.7571 10.9503 17.3282 12.3338 17.3708C13.7172 17.4135 15.0644 16.9246 16.0985 16.0045L16.3387 15.7751C16.4572 15.6546 16.6167 15.583 16.7855 15.5745C16.9543 15.566 17.1202 15.6211 17.2503 15.729C17.3804 15.8369 17.4653 15.9897 17.4881 16.1571C17.511 16.3246 17.4702 16.4946 17.3737 16.6334L17.2968 16.7278L17.2658 16.7575C16.6358 17.3835 15.8887 17.8792 15.0672 18.2164C14.2456 18.5536 13.3657 18.7257 12.4776 18.7228C11.5896 18.7199 10.7108 18.5421 9.89141 18.1996C9.07206 17.8571 8.32821 17.3565 7.70233 16.7265C7.57617 16.5994 7.50565 16.4275 7.50628 16.2484C7.50692 16.0694 7.57865 15.8979 7.7057 15.7717C7.83275 15.6456 8.00472 15.5751 8.18376 15.5757C8.36281 15.5763 8.53427 15.6481 8.66042 15.7751ZM15.8731 9.12647C16.231 9.12647 16.5743 9.26864 16.8273 9.52171C17.0804 9.77477 17.2226 10.118 17.2226 10.4759C17.2226 10.8338 17.0804 11.177 16.8273 11.4301C16.5743 11.6832 16.231 11.8253 15.8731 11.8253C15.5152 11.8253 15.172 11.6832 14.9189 11.4301C14.6659 11.177 14.5237 10.8338 14.5237 10.4759C14.5237 10.118 14.6659 9.77477 14.9189 9.52171C15.172 9.26864 15.5152 9.12647 15.8731 9.12647ZM9.12598 9.12647C9.48387 9.12647 9.8271 9.26864 10.0802 9.52171C10.3332 9.77477 10.4754 10.118 10.4754 10.4759C10.4754 10.8338 10.3332 11.177 10.0802 11.4301C9.8271 11.6832 9.48387 11.8253 9.12598 11.8253C8.76809 11.8253 8.42485 11.6832 8.17179 11.4301C7.91872 11.177 7.77655 10.8338 7.77655 10.4759C7.77655 10.118 7.91872 9.77477 8.17179 9.52171C8.42485 9.26864 8.76809 9.12647 9.12598 9.12647Z" fill="#5E5E5E"/>
</svg>