<svg width="228" height="43" viewBox="0 0 228 43" fill="none" xmlns="http://www.w3.org/2000/svg">
<g clip-path="url(#clip0_7666_6344)">
<g clip-path="url(#clip1_7666_6344)">
<path d="M43.6384 0.691406H17.9442C14.6894 0.691406 12.0508 3.34105 12.0508 6.60955C12.0508 9.87806 14.6894 12.5277 17.9442 12.5277H43.6384C46.8932 12.5277 49.5318 9.87806 49.5318 6.60955C49.5318 3.34105 46.8932 0.691406 43.6384 0.691406Z" fill="url(#paint0_linear_7666_6344)"/>
<g filter="url(#filter0_d_7666_6344)">
<path d="M13.9785 21.6602L13.9785 35.744C13.9785 39.0125 16.6171 41.6621 19.8719 41.6621C23.1268 41.6621 25.7654 39.0125 25.7654 35.744V21.6602C25.7654 18.3917 23.1268 15.7421 19.8719 15.7421C16.6171 15.7421 13.9785 18.3917 13.9785 21.6602Z" fill="url(#paint1_linear_7666_6344)"/>
</g>
<g filter="url(#filter1_d_7666_6344)">
<path d="M12.0486 20.6916C12.0486 17.4231 9.40999 14.7734 6.15514 14.7734C2.9003 14.7734 0.261719 17.4231 0.261719 20.6916C0.261719 23.9601 2.9003 26.6097 6.15514 26.6097C9.40999 26.6097 12.0486 23.9601 12.0486 20.6916Z" fill="url(#paint2_linear_7666_6344)"/>
</g>
<g filter="url(#filter2_d_7666_6344)">
<path d="M32.8145 15.748H19.8798C16.6249 15.748 13.9863 18.3977 13.9863 21.6662C13.9863 24.9347 16.6249 27.5843 19.8798 27.5843H32.8145C36.0693 27.5843 38.7079 24.9347 38.7079 21.6662C38.7079 18.3977 36.0693 15.748 32.8145 15.748Z" fill="url(#paint3_linear_7666_6344)"/>
</g>
</g>
<path d="M65.8908 41.7077V19.0061H62.1895V15.3586H65.8908V13.9439C65.8908 6.97646 69.9734 2.45703 77.3776 2.45703C79.8272 2.45703 82.712 3.21976 84.0728 4.19929L82.712 7.84679C81.5694 7.03026 79.4996 6.32291 77.1592 6.32291C72.097 6.32291 70.627 9.86123 70.627 14.0531V15.3602H85.9243V41.7077H81.1881V19.0061H70.627V41.7061H65.8908V41.7077Z" fill="url(#paint4_linear_7666_6344)"/>
<path d="M90.6031 22.4899C90.6031 19.7682 90.5493 17.5369 90.3848 15.3579H94.6304L94.9026 19.7128H95.0118C96.3189 17.2078 99.3666 14.7598 103.721 14.7598C107.369 14.7598 113.031 16.9372 113.031 25.9745V41.707H108.241V26.5188C108.241 22.2732 106.662 18.7348 102.144 18.7348C98.9868 18.7348 96.5373 20.9661 95.7207 23.634C95.5023 24.2322 95.3947 25.0487 95.3947 25.8653V41.707H90.6047V22.4899H90.6031Z" fill="url(#paint5_linear_7666_6344)"/>
<path d="M123.103 7.79297V15.3602H129.963V19.0077H123.103V33.2163C123.103 36.4825 124.029 38.3339 126.697 38.3339C127.949 38.3339 128.874 38.1709 129.473 38.0079L129.691 41.6001C128.765 41.9814 127.295 42.2536 125.445 42.2536C123.214 42.2536 121.416 41.5462 120.274 40.2392C118.913 38.8245 118.423 36.4825 118.423 33.3793V19.0077H114.34V15.3602H118.423V9.04626L123.103 7.79455V7.79297Z" fill="url(#paint6_linear_7666_6344)"/>
<path d="M146.674 41.7093L146.293 38.3894H146.13C144.66 40.4576 141.829 42.3091 138.074 42.3091C132.739 42.3091 130.018 38.5524 130.018 34.7419C130.018 28.3726 135.68 24.8881 145.859 24.9435V24.3991C145.859 22.2217 145.261 18.302 139.871 18.302C137.422 18.302 134.863 19.0647 133.013 20.261L131.924 17.1041C134.102 15.6894 137.259 14.7637 140.58 14.7637C148.636 14.7637 150.597 20.261 150.597 25.5416V35.3954C150.597 37.682 150.706 39.9133 151.032 41.7109H146.677L146.674 41.7093ZM145.967 28.2634C140.742 28.1542 134.808 29.0799 134.808 34.1975C134.808 37.3007 136.876 38.7708 139.325 38.7708C142.755 38.7708 144.932 36.5933 145.695 34.3605C145.858 33.87 145.967 33.3256 145.967 32.8366V28.2634Z" fill="url(#paint7_linear_7666_6344)"/>
<path d="M155.057 3.05664H159.847V41.7075H155.057V3.05664Z" fill="url(#paint8_linear_7666_6344)"/>
<path d="M167.302 29.4032C167.411 35.8817 171.548 38.5481 176.339 38.5481C179.768 38.5481 181.837 37.9499 183.634 37.1872L184.451 40.6163C182.764 41.3791 179.878 42.2494 175.686 42.2494C167.574 42.2494 162.73 36.915 162.73 28.9665C162.73 21.0179 167.411 14.7578 175.088 14.7578C183.688 14.7578 185.975 22.325 185.975 27.1688C185.975 28.1484 185.866 28.9111 185.812 29.4001H167.304L167.302 29.4032ZM181.346 25.9741C181.4 22.9263 180.094 18.1901 174.705 18.1901C169.859 18.1901 167.737 22.6542 167.356 25.9741H181.346Z" fill="url(#paint9_linear_7666_6344)"/>
<path d="M188.642 22.4899C188.642 19.7682 188.588 17.5369 188.424 15.3579H192.669L192.942 19.7128H193.051C194.358 17.2078 197.406 14.7598 201.761 14.7598C205.408 14.7598 211.07 16.9372 211.07 25.9745V41.707H206.28V26.5188C206.28 22.2732 204.701 18.7348 200.183 18.7348C197.026 18.7348 194.576 20.9661 193.76 23.634C193.541 24.2322 193.434 25.0487 193.434 25.8653V41.707H188.644V22.4899H188.642Z" fill="url(#paint10_linear_7666_6344)"/>
<path d="M221.142 7.79297V15.3602H228V19.0077H221.142V33.2163C221.142 36.4825 222.068 38.3339 224.734 38.3339C225.986 38.3339 226.912 38.1709 227.51 38.0079L227.728 41.6001C226.802 41.9814 225.332 42.2536 223.482 42.2536C221.251 42.2536 219.454 41.5462 218.311 40.2392C216.95 38.8245 216.46 36.4825 216.46 33.3793V19.0077H212.377V15.3602H216.46V9.04626L221.14 7.79455L221.142 7.79297Z" fill="url(#paint11_linear_7666_6344)"/>
</g>
<defs>
<filter id="filter0_d_7666_6344" x="13.5038" y="15.2675" width="14.952" height="29.0848" filterUnits="userSpaceOnUse" color-interpolation-filters="sRGB">
<feFlood flood-opacity="0" result="BackgroundImageFix"/>
<feColorMatrix in="SourceAlpha" type="matrix" values="0 0 0 0 0 0 0 0 0 0 0 0 0 0 0 0 0 0 127 0" result="hardAlpha"/>
<feOffset dx="1.1077" dy="1.1077"/>
<feGaussianBlur stdDeviation="0.791215"/>
<feColorMatrix type="matrix" values="0 0 0 0 0 0 0 0 0 0 0 0 0 0 0 0 0 0 0.2 0"/>
<feBlend mode="normal" in2="BackgroundImageFix" result="effect1_dropShadow_7666_6344"/>
<feBlend mode="normal" in="SourceGraphic" in2="effect1_dropShadow_7666_6344" result="shape"/>
</filter>
<filter id="filter1_d_7666_6344" x="-0.21301" y="14.2987" width="14.952" height="15.0008" filterUnits="userSpaceOnUse" color-interpolation-filters="sRGB">
<feFlood flood-opacity="0" result="BackgroundImageFix"/>
<feColorMatrix in="SourceAlpha" type="matrix" values="0 0 0 0 0 0 0 0 0 0 0 0 0 0 0 0 0 0 127 0" result="hardAlpha"/>
<feOffset dx="1.1077" dy="1.1077"/>
<feGaussianBlur stdDeviation="0.791215"/>
<feColorMatrix type="matrix" values="0 0 0 0 0 0 0 0 0 0 0 0 0 0 0 0 0 0 0.2 0"/>
<feBlend mode="normal" in2="BackgroundImageFix" result="effect1_dropShadow_7666_6344"/>
<feBlend mode="normal" in="SourceGraphic" in2="effect1_dropShadow_7666_6344" result="shape"/>
</filter>
<filter id="filter2_d_7666_6344" x="13.5116" y="15.2733" width="27.8856" height="15.0008" filterUnits="userSpaceOnUse" color-interpolation-filters="sRGB">
<feFlood flood-opacity="0" result="BackgroundImageFix"/>
<feColorMatrix in="SourceAlpha" type="matrix" values="0 0 0 0 0 0 0 0 0 0 0 0 0 0 0 0 0 0 127 0" result="hardAlpha"/>
<feOffset dx="1.1077" dy="1.1077"/>
<feGaussianBlur stdDeviation="0.791215"/>
<feColorMatrix type="matrix" values="0 0 0 0 0 0 0 0 0 0 0 0 0 0 0 0 0 0 0.2 0"/>
<feBlend mode="normal" in2="BackgroundImageFix" result="effect1_dropShadow_7666_6344"/>
<feBlend mode="normal" in="SourceGraphic" in2="effect1_dropShadow_7666_6344" result="shape"/>
</filter>
<linearGradient id="paint0_linear_7666_6344" x1="12.0508" y1="6.60955" x2="49.5318" y2="6.60955" gradientUnits="userSpaceOnUse">
<stop stop-color="#1D5AF8"/>
<stop offset="0.19" stop-color="#3E5AF8"/>
<stop offset="0.4" stop-color="#5B5AF9"/>
<stop offset="0.61" stop-color="#715AFA"/>
<stop offset="0.81" stop-color="#7D5AFA"/>
<stop offset="1" stop-color="#825AFB"/>
</linearGradient>
<linearGradient id="paint1_linear_7666_6344" x1="14.1476" y1="28.7019" x2="42.2782" y2="28.7019" gradientUnits="userSpaceOnUse">
<stop stop-color="#1D5AF8"/>
<stop offset="0.16" stop-color="#395AF8"/>
<stop offset="0.42" stop-color="#605AFA"/>
<stop offset="0.63" stop-color="#795AFA"/>
<stop offset="0.75" stop-color="#825AFB"/>
</linearGradient>
<linearGradient id="paint2_linear_7666_6344" x1="0.261719" y1="20.6916" x2="12.0486" y2="20.6916" gradientUnits="userSpaceOnUse">
<stop stop-color="#01EDFC"/>
<stop offset="0.44" stop-color="#0EAEFA"/>
<stop offset="1" stop-color="#215AF8"/>
</linearGradient>
<linearGradient id="paint3_linear_7666_6344" x1="13.9863" y1="21.6662" x2="38.7079" y2="21.6662" gradientUnits="userSpaceOnUse">
<stop stop-color="#FF68D2"/>
<stop offset="0.16" stop-color="#EA66D9"/>
<stop offset="0.73" stop-color="#A25FF2"/>
<stop offset="1" stop-color="#865DFD"/>
</linearGradient>
<linearGradient id="paint4_linear_7666_6344" x1="60.9109" y1="22.3814" x2="226.722" y2="22.3814" gradientUnits="userSpaceOnUse">
<stop stop-color="#265AF8"/>
<stop offset="0.31" stop-color="#4D5AF9"/>
<stop offset="0.59" stop-color="#6A5AFA"/>
<stop offset="0.82" stop-color="#7B5AFA"/>
<stop offset="1" stop-color="#825AFB"/>
</linearGradient>
<linearGradient id="paint5_linear_7666_6344" x1="60.9105" y1="22.3808" x2="226.722" y2="22.3808" gradientUnits="userSpaceOnUse">
<stop stop-color="#265AF8"/>
<stop offset="0.31" stop-color="#4D5AF9"/>
<stop offset="0.59" stop-color="#6A5AFA"/>
<stop offset="0.82" stop-color="#7B5AFA"/>
<stop offset="1" stop-color="#825AFB"/>
</linearGradient>
<linearGradient id="paint6_linear_7666_6344" x1="60.9123" y1="22.3814" x2="226.724" y2="22.3814" gradientUnits="userSpaceOnUse">
<stop stop-color="#265AF8"/>
<stop offset="0.31" stop-color="#4D5AF9"/>
<stop offset="0.59" stop-color="#6A5AFA"/>
<stop offset="0.82" stop-color="#7B5AFA"/>
<stop offset="1" stop-color="#825AFB"/>
</linearGradient>
<linearGradient id="paint7_linear_7666_6344" x1="60.9114" y1="22.3831" x2="226.723" y2="22.3831" gradientUnits="userSpaceOnUse">
<stop stop-color="#265AF8"/>
<stop offset="0.31" stop-color="#4D5AF9"/>
<stop offset="0.59" stop-color="#6A5AFA"/>
<stop offset="0.82" stop-color="#7B5AFA"/>
<stop offset="1" stop-color="#825AFB"/>
</linearGradient>
<linearGradient id="paint8_linear_7666_6344" x1="60.9116" y1="22.3813" x2="226.723" y2="22.3813" gradientUnits="userSpaceOnUse">
<stop stop-color="#265AF8"/>
<stop offset="0.31" stop-color="#4D5AF9"/>
<stop offset="0.59" stop-color="#6A5AFA"/>
<stop offset="0.82" stop-color="#7B5AFA"/>
<stop offset="1" stop-color="#825AFB"/>
</linearGradient>
<linearGradient id="paint9_linear_7666_6344" x1="60.9091" y1="22.3804" x2="226.721" y2="22.3804" gradientUnits="userSpaceOnUse">
<stop stop-color="#265AF8"/>
<stop offset="0.31" stop-color="#4D5AF9"/>
<stop offset="0.59" stop-color="#6A5AFA"/>
<stop offset="0.82" stop-color="#7B5AFA"/>
<stop offset="1" stop-color="#825AFB"/>
</linearGradient>
<linearGradient id="paint10_linear_7666_6344" x1="60.9102" y1="22.3808" x2="226.722" y2="22.3808" gradientUnits="userSpaceOnUse">
<stop stop-color="#265AF8"/>
<stop offset="0.31" stop-color="#4D5AF9"/>
<stop offset="0.59" stop-color="#6A5AFA"/>
<stop offset="0.82" stop-color="#7B5AFA"/>
<stop offset="1" stop-color="#825AFB"/>
</linearGradient>
<linearGradient id="paint11_linear_7666_6344" x1="60.9115" y1="22.3814" x2="226.723" y2="22.3814" gradientUnits="userSpaceOnUse">
<stop stop-color="#265AF8"/>
<stop offset="0.31" stop-color="#4D5AF9"/>
<stop offset="0.59" stop-color="#6A5AFA"/>
<stop offset="0.82" stop-color="#7B5AFA"/>
<stop offset="1" stop-color="#825AFB"/>
</linearGradient>
<clipPath id="clip0_7666_6344">
<rect width="228" height="41.618" fill="white" transform="translate(0 0.691406)"/>
</clipPath>
<clipPath id="clip1_7666_6344">
<rect width="49.53" height="41.618" fill="white" transform="translate(0 0.691406)"/>
</clipPath>
</defs>
</svg>
