<svg width="636" height="584" viewBox="0 0 636 584" fill="none" xmlns="http://www.w3.org/2000/svg">
<g filter="url(#filter0_d_8636_1866)">
<rect x="24" y="20" width="588" height="536" rx="12" fill="url(#paint0_linear_8636_1866)"/>
<rect x="69.5" y="425.5" width="496" height="102" rx="48.5" stroke="white" stroke-opacity="0.3" stroke-dasharray="6 6"/>
<rect x="77" y="432" width="481" height="89" rx="44.5" fill="#B21450" fill-opacity="0.8"/>
<rect x="140" y="143" width="355" height="59" rx="29.5" fill="white" fill-opacity="0.12"/>
<path d="M165.6 180V165.6H168.32V180H165.6ZM178.278 180V174.9C178.278 174.653 178.265 174.34 178.238 173.96C178.211 173.573 178.128 173.187 177.988 172.8C177.848 172.413 177.618 172.09 177.298 171.83C176.985 171.57 176.538 171.44 175.958 171.44C175.725 171.44 175.475 171.477 175.208 171.55C174.941 171.623 174.691 171.767 174.458 171.98C174.225 172.187 174.031 172.493 173.878 172.9C173.731 173.307 173.658 173.847 173.658 174.52L172.098 173.78C172.098 172.927 172.271 172.127 172.618 171.38C172.965 170.633 173.485 170.03 174.178 169.57C174.878 169.11 175.758 168.88 176.818 168.88C177.665 168.88 178.355 169.023 178.888 169.31C179.421 169.597 179.835 169.96 180.128 170.4C180.428 170.84 180.641 171.3 180.768 171.78C180.895 172.253 180.971 172.687 180.998 173.08C181.025 173.473 181.038 173.76 181.038 173.94V180H178.278ZM170.898 180V169.2H173.318V172.78H173.658V180H170.898ZM186.153 180L182.233 169.2H184.953L187.513 176.68L190.073 169.2H192.793L188.873 180H186.153ZM194.4 167.7V165.3H197.12V167.7H194.4ZM194.4 180V169.2H197.12V180H194.4ZM206.198 180C205.451 180.14 204.718 180.2 203.998 180.18C203.285 180.167 202.645 180.043 202.078 179.81C201.518 179.57 201.091 179.187 200.798 178.66C200.531 178.167 200.391 177.667 200.378 177.16C200.365 176.647 200.358 176.067 200.358 175.42V166.2H203.078V175.26C203.078 175.68 203.081 176.06 203.088 176.4C203.101 176.733 203.171 177 203.298 177.2C203.538 177.58 203.921 177.787 204.448 177.82C204.975 177.853 205.558 177.827 206.198 177.74V180ZM198.518 171.3V169.2H206.198V171.3H198.518ZM212.639 180.3C211.532 180.3 210.555 180.063 209.709 179.59C208.869 179.11 208.209 178.453 207.729 177.62C207.255 176.78 207.019 175.82 207.019 174.74C207.019 173.56 207.252 172.533 207.719 171.66C208.185 170.787 208.829 170.11 209.649 169.63C210.469 169.143 211.412 168.9 212.479 168.9C213.612 168.9 214.575 169.167 215.369 169.7C216.162 170.233 216.749 170.983 217.129 171.95C217.509 172.917 217.642 174.053 217.529 175.36H214.839V174.36C214.839 173.26 214.662 172.47 214.309 171.99C213.962 171.503 213.392 171.26 212.599 171.26C211.672 171.26 210.989 171.543 210.549 172.11C210.115 172.67 209.899 173.5 209.899 174.6C209.899 175.607 210.115 176.387 210.549 176.94C210.989 177.487 211.632 177.76 212.479 177.76C213.012 177.76 213.469 177.643 213.849 177.41C214.229 177.177 214.519 176.84 214.719 176.4L217.439 177.18C217.032 178.167 216.389 178.933 215.509 179.48C214.635 180.027 213.679 180.3 212.639 180.3ZM209.059 175.36V173.34H216.219V175.36H209.059ZM227.811 180.3C227.011 180.3 226.251 180.18 225.531 179.94C224.811 179.7 224.211 179.32 223.731 178.8C223.344 178.367 223.061 177.9 222.881 177.4C222.707 176.9 222.611 176.36 222.591 175.78C222.591 175.207 222.674 174.66 222.841 174.14C223.007 173.613 223.264 173.147 223.611 172.74C223.724 172.607 223.844 172.487 223.971 172.38C224.097 172.267 224.224 172.16 224.351 172.06C223.991 171.647 223.721 171.24 223.541 170.84C223.361 170.433 223.271 169.967 223.271 169.44C223.271 168.567 223.507 167.787 223.981 167.1C224.461 166.413 225.111 165.927 225.931 165.64C226.271 165.52 226.614 165.44 226.961 165.4C227.307 165.36 227.644 165.34 227.971 165.34C228.631 165.34 229.261 165.443 229.861 165.65C230.461 165.85 230.971 166.18 231.391 166.64C231.651 166.907 231.864 167.203 232.031 167.53C232.204 167.857 232.331 168.187 232.411 168.52L229.711 169.06C229.631 168.78 229.491 168.54 229.291 168.34C229.104 168.147 228.884 168.023 228.631 167.97C228.377 167.91 228.131 167.88 227.891 167.88C227.511 167.88 227.177 167.947 226.891 168.08C226.591 168.22 226.367 168.403 226.221 168.63C226.081 168.857 226.011 169.14 226.011 169.48C226.011 169.787 226.071 170.03 226.191 170.21C226.311 170.39 226.451 170.567 226.611 170.74C226.724 170.86 226.864 171 227.031 171.16C227.204 171.32 227.384 171.487 227.571 171.66L230.871 174.72C230.871 174.607 230.871 174.473 230.871 174.32C230.871 174.167 230.871 174.027 230.871 173.9V172.26H233.231V175C233.231 175.307 233.224 175.63 233.211 175.97C233.197 176.303 233.164 176.58 233.111 176.8L234.871 178.42L233.131 180.28L231.811 179.02C231.431 179.347 231.024 179.607 230.591 179.8C230.164 179.993 229.731 180.127 229.291 180.2C229.011 180.24 228.754 180.267 228.521 180.28C228.287 180.293 228.051 180.3 227.811 180.3ZM227.931 177.72C228.084 177.72 228.231 177.713 228.371 177.7C228.511 177.687 228.651 177.667 228.791 177.64C229.004 177.6 229.197 177.543 229.371 177.47C229.551 177.39 229.711 177.3 229.851 177.2L226.331 173.96C226.191 174.02 226.064 174.093 225.951 174.18C225.844 174.267 225.751 174.36 225.671 174.46C225.564 174.607 225.481 174.777 225.421 174.97C225.361 175.163 225.331 175.38 225.331 175.62C225.331 175.907 225.374 176.157 225.461 176.37C225.554 176.577 225.664 176.767 225.791 176.94C226.011 177.22 226.331 177.42 226.751 177.54C227.171 177.66 227.564 177.72 227.931 177.72ZM245.111 180.3C244.044 180.3 243.081 180.113 242.221 179.74C241.368 179.36 240.664 178.82 240.111 178.12C239.564 177.413 239.218 176.573 239.071 175.6L241.911 175.18C242.111 176.007 242.524 176.643 243.151 177.09C243.778 177.537 244.491 177.76 245.291 177.76C245.738 177.76 246.171 177.69 246.591 177.55C247.011 177.41 247.354 177.203 247.621 176.93C247.894 176.657 248.031 176.32 248.031 175.92C248.031 175.773 248.008 175.633 247.961 175.5C247.921 175.36 247.851 175.23 247.751 175.11C247.651 174.99 247.508 174.877 247.321 174.77C247.141 174.663 246.911 174.567 246.631 174.48L242.891 173.38C242.611 173.3 242.284 173.187 241.911 173.04C241.544 172.893 241.188 172.683 240.841 172.41C240.494 172.137 240.204 171.777 239.971 171.33C239.744 170.877 239.631 170.307 239.631 169.62C239.631 168.653 239.874 167.85 240.361 167.21C240.848 166.57 241.498 166.093 242.311 165.78C243.124 165.467 244.024 165.313 245.011 165.32C246.004 165.333 246.891 165.503 247.671 165.83C248.451 166.157 249.104 166.633 249.631 167.26C250.158 167.88 250.538 168.64 250.771 169.54L247.831 170.04C247.724 169.573 247.528 169.18 247.241 168.86C246.954 168.54 246.611 168.297 246.211 168.13C245.818 167.963 245.404 167.873 244.971 167.86C244.544 167.847 244.141 167.907 243.761 168.04C243.388 168.167 243.081 168.353 242.841 168.6C242.608 168.847 242.491 169.14 242.491 169.48C242.491 169.793 242.588 170.05 242.781 170.25C242.974 170.443 243.218 170.6 243.511 170.72C243.804 170.84 244.104 170.94 244.411 171.02L246.911 171.7C247.284 171.8 247.698 171.933 248.151 172.1C248.604 172.26 249.038 172.487 249.451 172.78C249.871 173.067 250.214 173.447 250.481 173.92C250.754 174.393 250.891 174.993 250.891 175.72C250.891 176.493 250.728 177.17 250.401 177.75C250.081 178.323 249.648 178.8 249.101 179.18C248.554 179.553 247.934 179.833 247.241 180.02C246.554 180.207 245.844 180.3 245.111 180.3ZM260.049 180V174.9C260.049 174.653 260.036 174.34 260.009 173.96C259.982 173.573 259.899 173.187 259.759 172.8C259.619 172.413 259.389 172.09 259.069 171.83C258.756 171.57 258.309 171.44 257.729 171.44C257.496 171.44 257.246 171.477 256.979 171.55C256.712 171.623 256.462 171.767 256.229 171.98C255.996 172.187 255.802 172.493 255.649 172.9C255.502 173.307 255.429 173.847 255.429 174.52L253.869 173.78C253.869 172.927 254.042 172.127 254.389 171.38C254.736 170.633 255.256 170.03 255.949 169.57C256.649 169.11 257.529 168.88 258.589 168.88C259.436 168.88 260.126 169.023 260.659 169.31C261.192 169.597 261.606 169.96 261.899 170.4C262.199 170.84 262.412 171.3 262.539 171.78C262.666 172.253 262.742 172.687 262.769 173.08C262.796 173.473 262.809 173.76 262.809 173.94V180H260.049ZM252.669 180V165.6H255.089V173H255.429V180H252.669ZM269.864 180.3C268.777 180.3 267.824 180.057 267.004 179.57C266.184 179.083 265.544 178.413 265.084 177.56C264.631 176.7 264.404 175.713 264.404 174.6C264.404 173.473 264.637 172.483 265.104 171.63C265.571 170.77 266.214 170.1 267.034 169.62C267.854 169.14 268.797 168.9 269.864 168.9C270.951 168.9 271.904 169.143 272.724 169.63C273.551 170.117 274.194 170.79 274.654 171.65C275.114 172.503 275.344 173.487 275.344 174.6C275.344 175.72 275.111 176.71 274.644 177.57C274.184 178.423 273.541 179.093 272.714 179.58C271.894 180.06 270.944 180.3 269.864 180.3ZM269.864 177.76C270.737 177.76 271.387 177.467 271.814 176.88C272.247 176.287 272.464 175.527 272.464 174.6C272.464 173.64 272.244 172.873 271.804 172.3C271.371 171.727 270.724 171.44 269.864 171.44C269.271 171.44 268.784 171.573 268.404 171.84C268.024 172.107 267.741 172.477 267.554 172.95C267.374 173.423 267.284 173.973 267.284 174.6C267.284 175.567 267.501 176.337 267.934 176.91C268.374 177.477 269.017 177.76 269.864 177.76ZM277.143 180V169.2H279.543V171.84L279.283 171.5C279.423 171.127 279.61 170.787 279.843 170.48C280.076 170.173 280.363 169.92 280.703 169.72C280.963 169.56 281.246 169.437 281.553 169.35C281.86 169.257 282.176 169.2 282.503 169.18C282.83 169.153 283.156 169.16 283.483 169.2V171.74C283.183 171.647 282.833 171.617 282.433 171.65C282.04 171.677 281.683 171.767 281.363 171.92C281.043 172.067 280.773 172.263 280.553 172.51C280.333 172.75 280.166 173.037 280.053 173.37C279.94 173.697 279.883 174.067 279.883 174.48V180H277.143ZM291.465 180C290.718 180.14 289.985 180.2 289.265 180.18C288.552 180.167 287.912 180.043 287.345 179.81C286.785 179.57 286.358 179.187 286.065 178.66C285.798 178.167 285.658 177.667 285.645 177.16C285.632 176.647 285.625 176.067 285.625 175.42V166.2H288.345V175.26C288.345 175.68 288.348 176.06 288.355 176.4C288.368 176.733 288.438 177 288.565 177.2C288.805 177.58 289.188 177.787 289.715 177.82C290.242 177.853 290.825 177.827 291.465 177.74V180ZM283.785 171.3V169.2H291.465V171.3H283.785ZM293.672 180V165.3H296.392V180H293.672ZM299.19 167.7V165.3H301.91V167.7H299.19ZM299.19 180V169.2H301.91V180H299.19ZM308.728 180.3C307.368 180.3 306.268 179.993 305.428 179.38C304.594 178.76 304.088 177.887 303.908 176.76L306.688 176.34C306.801 176.847 307.051 177.243 307.438 177.53C307.831 177.817 308.328 177.96 308.928 177.96C309.421 177.96 309.801 177.867 310.068 177.68C310.334 177.487 310.468 177.22 310.468 176.88C310.468 176.667 310.414 176.497 310.308 176.37C310.201 176.237 309.961 176.107 309.588 175.98C309.221 175.853 308.648 175.687 307.868 175.48C306.988 175.253 306.284 175 305.758 174.72C305.231 174.44 304.851 174.107 304.618 173.72C304.384 173.327 304.268 172.853 304.268 172.3C304.268 171.607 304.444 171.007 304.798 170.5C305.151 169.987 305.648 169.593 306.288 169.32C306.934 169.04 307.694 168.9 308.568 168.9C309.414 168.9 310.164 169.03 310.818 169.29C311.471 169.55 311.998 169.92 312.398 170.4C312.804 170.88 313.054 171.447 313.148 172.1L310.368 172.6C310.321 172.2 310.148 171.883 309.848 171.65C309.548 171.417 309.141 171.28 308.628 171.24C308.128 171.207 307.724 171.273 307.418 171.44C307.118 171.607 306.968 171.847 306.968 172.16C306.968 172.347 307.031 172.503 307.158 172.63C307.291 172.757 307.561 172.887 307.968 173.02C308.381 173.153 309.008 173.327 309.848 173.54C310.668 173.753 311.324 174.003 311.818 174.29C312.318 174.57 312.681 174.91 312.908 175.31C313.134 175.703 313.248 176.18 313.248 176.74C313.248 177.847 312.848 178.717 312.048 179.35C311.248 179.983 310.141 180.3 308.728 180.3ZM321.525 180C320.779 180.14 320.045 180.2 319.325 180.18C318.612 180.167 317.972 180.043 317.405 179.81C316.845 179.57 316.419 179.187 316.125 178.66C315.859 178.167 315.719 177.667 315.705 177.16C315.692 176.647 315.685 176.067 315.685 175.42V166.2H318.405V175.26C318.405 175.68 318.409 176.06 318.415 176.4C318.429 176.733 318.499 177 318.625 177.2C318.865 177.58 319.249 177.787 319.775 177.82C320.302 177.853 320.885 177.827 321.525 177.74V180ZM313.845 171.3V169.2H321.525V171.3H313.845ZM333.616 180C332.869 180.14 332.136 180.2 331.416 180.18C330.703 180.167 330.063 180.043 329.496 179.81C328.936 179.57 328.509 179.187 328.216 178.66C327.949 178.167 327.809 177.667 327.796 177.16C327.783 176.647 327.776 176.067 327.776 175.42V166.2H330.496V175.26C330.496 175.68 330.499 176.06 330.506 176.4C330.519 176.733 330.589 177 330.716 177.2C330.956 177.58 331.339 177.787 331.866 177.82C332.393 177.853 332.976 177.827 333.616 177.74V180ZM325.936 171.3V169.2H333.616V171.3H325.936ZM339.897 180.3C338.81 180.3 337.857 180.057 337.037 179.57C336.217 179.083 335.577 178.413 335.117 177.56C334.663 176.7 334.437 175.713 334.437 174.6C334.437 173.473 334.67 172.483 335.137 171.63C335.603 170.77 336.247 170.1 337.067 169.62C337.887 169.14 338.83 168.9 339.897 168.9C340.983 168.9 341.937 169.143 342.757 169.63C343.583 170.117 344.227 170.79 344.687 171.65C345.147 172.503 345.377 173.487 345.377 174.6C345.377 175.72 345.143 176.71 344.677 177.57C344.217 178.423 343.573 179.093 342.747 179.58C341.927 180.06 340.977 180.3 339.897 180.3ZM339.897 177.76C340.77 177.76 341.42 177.467 341.847 176.88C342.28 176.287 342.497 175.527 342.497 174.6C342.497 173.64 342.277 172.873 341.837 172.3C341.403 171.727 340.757 171.44 339.897 171.44C339.303 171.44 338.817 171.573 338.437 171.84C338.057 172.107 337.773 172.477 337.587 172.95C337.407 173.423 337.317 173.973 337.317 174.6C337.317 175.567 337.533 176.337 337.967 176.91C338.407 177.477 339.05 177.76 339.897 177.76ZM352.476 180.3C351.402 180.3 350.506 180.05 349.786 179.55C349.066 179.05 348.522 178.37 348.156 177.51C347.796 176.65 347.616 175.68 347.616 174.6C347.616 173.52 347.796 172.55 348.156 171.69C348.516 170.83 349.046 170.15 349.746 169.65C350.446 169.15 351.309 168.9 352.336 168.9C353.369 168.9 354.269 169.147 355.036 169.64C355.802 170.133 356.396 170.81 356.816 171.67C357.242 172.523 357.456 173.5 357.456 174.6C357.456 175.68 357.246 176.65 356.826 177.51C356.412 178.37 355.832 179.05 355.086 179.55C354.339 180.05 353.469 180.3 352.476 180.3ZM347.156 184.8V169.2H349.556V176.6H349.896V184.8H347.156ZM352.036 177.88C352.622 177.88 353.102 177.733 353.476 177.44C353.849 177.147 354.126 176.753 354.306 176.26C354.486 175.76 354.576 175.207 354.576 174.6C354.576 174 354.482 173.453 354.296 172.96C354.109 172.46 353.819 172.063 353.426 171.77C353.039 171.47 352.542 171.32 351.936 171.32C351.369 171.32 350.909 171.457 350.556 171.73C350.209 172.003 349.956 172.387 349.796 172.88C349.636 173.373 349.556 173.947 349.556 174.6C349.556 175.253 349.636 175.827 349.796 176.32C349.956 176.813 350.216 177.197 350.576 177.47C350.942 177.743 351.429 177.88 352.036 177.88ZM369.04 180.3C367.6 180.3 366.357 179.987 365.31 179.36C364.27 178.733 363.467 177.857 362.9 176.73C362.34 175.603 362.06 174.293 362.06 172.8C362.06 171.307 362.34 169.997 362.9 168.87C363.467 167.743 364.27 166.867 365.31 166.24C366.357 165.613 367.6 165.3 369.04 165.3C370.693 165.3 372.08 165.71 373.2 166.53C374.327 167.35 375.12 168.46 375.58 169.86L372.84 170.62C372.573 169.747 372.123 169.07 371.49 168.59C370.857 168.103 370.04 167.86 369.04 167.86C368.127 167.86 367.363 168.063 366.75 168.47C366.143 168.877 365.687 169.45 365.38 170.19C365.073 170.93 364.92 171.8 364.92 172.8C364.92 173.8 365.073 174.67 365.38 175.41C365.687 176.15 366.143 176.723 366.75 177.13C367.363 177.537 368.127 177.74 369.04 177.74C370.04 177.74 370.857 177.497 371.49 177.01C372.123 176.523 372.573 175.847 372.84 174.98L375.58 175.74C375.12 177.14 374.327 178.25 373.2 179.07C372.08 179.89 370.693 180.3 369.04 180.3ZM380.382 180.3C379.609 180.3 378.952 180.153 378.412 179.86C377.879 179.56 377.472 179.163 377.192 178.67C376.919 178.17 376.782 177.62 376.782 177.02C376.782 176.52 376.859 176.063 377.012 175.65C377.165 175.237 377.412 174.873 377.752 174.56C378.099 174.24 378.562 173.973 379.142 173.76C379.542 173.613 380.019 173.483 380.572 173.37C381.125 173.257 381.752 173.15 382.452 173.05C383.152 172.943 383.922 172.827 384.762 172.7L383.782 173.24C383.782 172.6 383.629 172.13 383.322 171.83C383.015 171.53 382.502 171.38 381.782 171.38C381.382 171.38 380.965 171.477 380.532 171.67C380.099 171.863 379.795 172.207 379.622 172.7L377.162 171.92C377.435 171.027 377.949 170.3 378.702 169.74C379.455 169.18 380.482 168.9 381.782 168.9C382.735 168.9 383.582 169.047 384.322 169.34C385.062 169.633 385.622 170.14 386.002 170.86C386.215 171.26 386.342 171.66 386.382 172.06C386.422 172.46 386.442 172.907 386.442 173.4V180H384.062V177.78L384.402 178.24C383.875 178.967 383.305 179.493 382.692 179.82C382.085 180.14 381.315 180.3 380.382 180.3ZM380.962 178.16C381.462 178.16 381.882 178.073 382.222 177.9C382.569 177.72 382.842 177.517 383.042 177.29C383.249 177.063 383.389 176.873 383.462 176.72C383.602 176.427 383.682 176.087 383.702 175.7C383.729 175.307 383.742 174.98 383.742 174.72L384.542 174.92C383.735 175.053 383.082 175.167 382.582 175.26C382.082 175.347 381.679 175.427 381.372 175.5C381.065 175.573 380.795 175.653 380.562 175.74C380.295 175.847 380.079 175.963 379.912 176.09C379.752 176.21 379.632 176.343 379.552 176.49C379.479 176.637 379.442 176.8 379.442 176.98C379.442 177.227 379.502 177.44 379.622 177.62C379.749 177.793 379.925 177.927 380.152 178.02C380.379 178.113 380.649 178.16 380.962 178.16ZM396.002 180V174.9C396.002 174.653 395.989 174.34 395.962 173.96C395.936 173.573 395.852 173.187 395.712 172.8C395.572 172.413 395.342 172.09 395.022 171.83C394.709 171.57 394.262 171.44 393.682 171.44C393.449 171.44 393.199 171.477 392.932 171.55C392.666 171.623 392.416 171.767 392.182 171.98C391.949 172.187 391.756 172.493 391.602 172.9C391.456 173.307 391.382 173.847 391.382 174.52L389.822 173.78C389.822 172.927 389.996 172.127 390.342 171.38C390.689 170.633 391.209 170.03 391.902 169.57C392.602 169.11 393.482 168.88 394.542 168.88C395.389 168.88 396.079 169.023 396.612 169.31C397.146 169.597 397.559 169.96 397.852 170.4C398.152 170.84 398.366 171.3 398.492 171.78C398.619 172.253 398.696 172.687 398.722 173.08C398.749 173.473 398.762 173.76 398.762 173.94V180H396.002ZM388.622 180V169.2H391.042V172.78H391.382V180H388.622ZM405.142 180.3C404.148 180.3 403.278 180.05 402.532 179.55C401.785 179.05 401.202 178.37 400.782 177.51C400.368 176.65 400.162 175.68 400.162 174.6C400.162 173.5 400.372 172.523 400.792 171.67C401.218 170.81 401.815 170.133 402.582 169.64C403.348 169.147 404.248 168.9 405.282 168.9C406.308 168.9 407.172 169.15 407.872 169.65C408.572 170.15 409.102 170.83 409.462 171.69C409.822 172.55 410.002 173.52 410.002 174.6C410.002 175.68 409.818 176.65 409.452 177.51C409.092 178.37 408.552 179.05 407.832 179.55C407.112 180.05 406.215 180.3 405.142 180.3ZM405.582 177.88C406.188 177.88 406.672 177.743 407.032 177.47C407.398 177.197 407.662 176.813 407.822 176.32C407.982 175.827 408.062 175.253 408.062 174.6C408.062 173.947 407.982 173.373 407.822 172.88C407.662 172.387 407.405 172.003 407.052 171.73C406.705 171.457 406.248 171.32 405.682 171.32C405.075 171.32 404.575 171.47 404.182 171.77C403.795 172.063 403.508 172.46 403.322 172.96C403.135 173.453 403.042 174 403.042 174.6C403.042 175.207 403.132 175.76 403.312 176.26C403.492 176.753 403.768 177.147 404.142 177.44C404.515 177.733 404.995 177.88 405.582 177.88ZM408.062 180V172.6H407.722V165.6H410.462V180H408.062ZM413.062 167.7V165.3H415.782V167.7H413.062ZM413.062 180V169.2H415.782V180H413.062ZM422.76 180.3C421.766 180.3 420.896 180.05 420.15 179.55C419.403 179.05 418.82 178.37 418.4 177.51C417.986 176.65 417.78 175.68 417.78 174.6C417.78 173.5 417.99 172.523 418.41 171.67C418.836 170.81 419.433 170.133 420.2 169.64C420.966 169.147 421.866 168.9 422.9 168.9C423.926 168.9 424.79 169.15 425.49 169.65C426.19 170.15 426.72 170.83 427.08 171.69C427.44 172.55 427.62 173.52 427.62 174.6C427.62 175.68 427.436 176.65 427.07 177.51C426.71 178.37 426.17 179.05 425.45 179.55C424.73 180.05 423.833 180.3 422.76 180.3ZM423.2 177.88C423.806 177.88 424.29 177.743 424.65 177.47C425.016 177.197 425.28 176.813 425.44 176.32C425.6 175.827 425.68 175.253 425.68 174.6C425.68 173.947 425.6 173.373 425.44 172.88C425.28 172.387 425.023 172.003 424.67 171.73C424.323 171.457 423.866 171.32 423.3 171.32C422.693 171.32 422.193 171.47 421.8 171.77C421.413 172.063 421.126 172.46 420.94 172.96C420.753 173.453 420.66 174 420.66 174.6C420.66 175.207 420.75 175.76 420.93 176.26C421.11 176.753 421.386 177.147 421.76 177.44C422.133 177.733 422.613 177.88 423.2 177.88ZM425.68 180V172.6H425.34V165.6H428.08V180H425.68ZM433.48 180.3C432.706 180.3 432.05 180.153 431.51 179.86C430.976 179.56 430.57 179.163 430.29 178.67C430.016 178.17 429.88 177.62 429.88 177.02C429.88 176.52 429.956 176.063 430.11 175.65C430.263 175.237 430.51 174.873 430.85 174.56C431.196 174.24 431.66 173.973 432.24 173.76C432.64 173.613 433.116 173.483 433.67 173.37C434.223 173.257 434.85 173.15 435.55 173.05C436.25 172.943 437.02 172.827 437.86 172.7L436.88 173.24C436.88 172.6 436.726 172.13 436.42 171.83C436.113 171.53 435.6 171.38 434.88 171.38C434.48 171.38 434.063 171.477 433.63 171.67C433.196 171.863 432.893 172.207 432.72 172.7L430.26 171.92C430.533 171.027 431.046 170.3 431.8 169.74C432.553 169.18 433.58 168.9 434.88 168.9C435.833 168.9 436.68 169.047 437.42 169.34C438.16 169.633 438.72 170.14 439.1 170.86C439.313 171.26 439.44 171.66 439.48 172.06C439.52 172.46 439.54 172.907 439.54 173.4V180H437.16V177.78L437.5 178.24C436.973 178.967 436.403 179.493 435.79 179.82C435.183 180.14 434.413 180.3 433.48 180.3ZM434.06 178.16C434.56 178.16 434.98 178.073 435.32 177.9C435.666 177.72 435.94 177.517 436.14 177.29C436.346 177.063 436.486 176.873 436.56 176.72C436.7 176.427 436.78 176.087 436.8 175.7C436.826 175.307 436.84 174.98 436.84 174.72L437.64 174.92C436.833 175.053 436.18 175.167 435.68 175.26C435.18 175.347 434.776 175.427 434.47 175.5C434.163 175.573 433.893 175.653 433.66 175.74C433.393 175.847 433.176 175.963 433.01 176.09C432.85 176.21 432.73 176.343 432.65 176.49C432.576 176.637 432.54 176.8 432.54 176.98C432.54 177.227 432.6 177.44 432.72 177.62C432.846 177.793 433.023 177.927 433.25 178.02C433.476 178.113 433.746 178.16 434.06 178.16ZM448.22 180C447.473 180.14 446.74 180.2 446.02 180.18C445.307 180.167 444.667 180.043 444.1 179.81C443.54 179.57 443.113 179.187 442.82 178.66C442.553 178.167 442.413 177.667 442.4 177.16C442.387 176.647 442.38 176.067 442.38 175.42V166.2H445.1V175.26C445.1 175.68 445.103 176.06 445.11 176.4C445.123 176.733 445.193 177 445.32 177.2C445.56 177.58 445.943 177.787 446.47 177.82C446.997 177.853 447.58 177.827 448.22 177.74V180ZM440.54 171.3V169.2H448.22V171.3H440.54ZM454.661 180.3C453.554 180.3 452.577 180.063 451.731 179.59C450.891 179.11 450.231 178.453 449.751 177.62C449.277 176.78 449.041 175.82 449.041 174.74C449.041 173.56 449.274 172.533 449.741 171.66C450.207 170.787 450.851 170.11 451.671 169.63C452.491 169.143 453.434 168.9 454.501 168.9C455.634 168.9 456.597 169.167 457.391 169.7C458.184 170.233 458.771 170.983 459.151 171.95C459.531 172.917 459.664 174.053 459.551 175.36H456.861V174.36C456.861 173.26 456.684 172.47 456.331 171.99C455.984 171.503 455.414 171.26 454.621 171.26C453.694 171.26 453.011 171.543 452.571 172.11C452.137 172.67 451.921 173.5 451.921 174.6C451.921 175.607 452.137 176.387 452.571 176.94C453.011 177.487 453.654 177.76 454.501 177.76C455.034 177.76 455.491 177.643 455.871 177.41C456.251 177.177 456.541 176.84 456.741 176.4L459.461 177.18C459.054 178.167 458.411 178.933 457.531 179.48C456.657 180.027 455.701 180.3 454.661 180.3ZM451.081 175.36V173.34H458.241V175.36H451.081ZM465.629 180.3C464.269 180.3 463.169 179.993 462.329 179.38C461.495 178.76 460.989 177.887 460.809 176.76L463.589 176.34C463.702 176.847 463.952 177.243 464.339 177.53C464.732 177.817 465.229 177.96 465.829 177.96C466.322 177.96 466.702 177.867 466.969 177.68C467.235 177.487 467.369 177.22 467.369 176.88C467.369 176.667 467.315 176.497 467.209 176.37C467.102 176.237 466.862 176.107 466.489 175.98C466.122 175.853 465.549 175.687 464.769 175.48C463.889 175.253 463.185 175 462.659 174.72C462.132 174.44 461.752 174.107 461.519 173.72C461.285 173.327 461.169 172.853 461.169 172.3C461.169 171.607 461.345 171.007 461.699 170.5C462.052 169.987 462.549 169.593 463.189 169.32C463.835 169.04 464.595 168.9 465.469 168.9C466.315 168.9 467.065 169.03 467.719 169.29C468.372 169.55 468.899 169.92 469.299 170.4C469.705 170.88 469.955 171.447 470.049 172.1L467.269 172.6C467.222 172.2 467.049 171.883 466.749 171.65C466.449 171.417 466.042 171.28 465.529 171.24C465.029 171.207 464.625 171.273 464.319 171.44C464.019 171.607 463.869 171.847 463.869 172.16C463.869 172.347 463.932 172.503 464.059 172.63C464.192 172.757 464.462 172.887 464.869 173.02C465.282 173.153 465.909 173.327 466.749 173.54C467.569 173.753 468.225 174.003 468.719 174.29C469.219 174.57 469.582 174.91 469.809 175.31C470.035 175.703 470.149 176.18 470.149 176.74C470.149 177.847 469.749 178.717 468.949 179.35C468.149 179.983 467.042 180.3 465.629 180.3Z" fill="white"/>
<g filter="url(#filter1_b_8636_1866)">
<rect x="302" y="128" width="31" height="31" rx="15.5" fill="url(#paint1_linear_8636_1866)" fill-opacity="0.4"/>
<g filter="url(#filter2_d_8636_1866)">
<rect x="306.509" y="132.509" width="21.4845" height="21.4845" rx="10.7422" fill="url(#paint2_linear_8636_1866)" shape-rendering="crispEdges"/>
<path d="M317.108 148.089V141.945L315.657 142.836V141.225L317.108 140.355H318.601V148.089H317.108Z" fill="white"/>
</g>
</g>
<path d="M250.68 90V72.72H261.24V75.984H253.944V79.728H259.8V82.992H253.944V90H250.68ZM263.167 75.24V72.36H266.431V75.24H263.167ZM263.167 90V77.04H266.431V90H263.167ZM278.38 90V83.88C278.38 83.584 278.364 83.208 278.332 82.752C278.3 82.288 278.2 81.824 278.032 81.36C277.864 80.896 277.588 80.508 277.204 80.196C276.828 79.884 276.292 79.728 275.596 79.728C275.316 79.728 275.016 79.772 274.696 79.86C274.376 79.948 274.076 80.12 273.796 80.376C273.516 80.624 273.284 80.992 273.1 81.48C272.924 81.968 272.836 82.616 272.836 83.424L270.964 82.536C270.964 81.512 271.172 80.552 271.588 79.656C272.004 78.76 272.628 78.036 273.46 77.484C274.3 76.932 275.356 76.656 276.628 76.656C277.644 76.656 278.472 76.828 279.112 77.172C279.752 77.516 280.248 77.952 280.6 78.48C280.96 79.008 281.216 79.56 281.368 80.136C281.52 80.704 281.612 81.224 281.644 81.696C281.676 82.168 281.692 82.512 281.692 82.728V90H278.38ZM269.524 90V77.04H272.428V81.336H272.836V90H269.524ZM292.102 90C291.206 90.168 290.326 90.24 289.462 90.216C288.606 90.2 287.838 90.052 287.158 89.772C286.486 89.484 285.974 89.024 285.622 88.392C285.302 87.8 285.134 87.2 285.118 86.592C285.102 85.976 285.094 85.28 285.094 84.504V73.44H288.358V84.312C288.358 84.816 288.362 85.272 288.37 85.68C288.386 86.08 288.47 86.4 288.622 86.64C288.91 87.096 289.37 87.344 290.002 87.384C290.634 87.424 291.334 87.392 292.102 87.288V90ZM282.886 79.56V77.04H292.102V79.56H282.886ZM298.11 90.36C297.182 90.36 296.394 90.184 295.746 89.832C295.106 89.472 294.618 88.996 294.282 88.404C293.954 87.804 293.79 87.144 293.79 86.424C293.79 85.824 293.882 85.276 294.066 84.78C294.25 84.284 294.546 83.848 294.954 83.472C295.37 83.088 295.926 82.768 296.622 82.512C297.102 82.336 297.674 82.18 298.338 82.044C299.002 81.908 299.754 81.78 300.594 81.66C301.434 81.532 302.358 81.392 303.366 81.24L302.19 81.888C302.19 81.12 302.006 80.556 301.638 80.196C301.27 79.836 300.654 79.656 299.79 79.656C299.31 79.656 298.81 79.772 298.29 80.004C297.77 80.236 297.406 80.648 297.198 81.24L294.246 80.304C294.574 79.232 295.19 78.36 296.094 77.688C296.998 77.016 298.23 76.68 299.79 76.68C300.934 76.68 301.95 76.856 302.838 77.208C303.726 77.56 304.398 78.168 304.854 79.032C305.11 79.512 305.262 79.992 305.31 80.472C305.358 80.952 305.382 81.488 305.382 82.08V90H302.526V87.336L302.934 87.888C302.302 88.76 301.618 89.392 300.882 89.784C300.154 90.168 299.23 90.36 298.11 90.36ZM298.806 87.792C299.406 87.792 299.91 87.688 300.318 87.48C300.734 87.264 301.062 87.02 301.302 86.748C301.55 86.476 301.718 86.248 301.806 86.064C301.974 85.712 302.07 85.304 302.094 84.84C302.126 84.368 302.142 83.976 302.142 83.664L303.102 83.904C302.134 84.064 301.35 84.2 300.75 84.312C300.15 84.416 299.666 84.512 299.298 84.6C298.93 84.688 298.606 84.784 298.326 84.888C298.006 85.016 297.746 85.156 297.546 85.308C297.354 85.452 297.21 85.612 297.114 85.788C297.026 85.964 296.982 86.16 296.982 86.376C296.982 86.672 297.054 86.928 297.198 87.144C297.35 87.352 297.562 87.512 297.834 87.624C298.106 87.736 298.43 87.792 298.806 87.792ZM308.262 90V72.36H311.526V90H308.262ZM320.668 90.36C319.34 90.36 318.168 90.076 317.152 89.508C316.144 88.932 315.352 88.144 314.776 87.144C314.208 86.136 313.924 84.984 313.924 83.688C313.924 82.272 314.204 81.04 314.764 79.992C315.324 78.944 316.096 78.132 317.08 77.556C318.064 76.972 319.196 76.68 320.476 76.68C321.836 76.68 322.992 77 323.944 77.64C324.896 78.28 325.6 79.18 326.056 80.34C326.512 81.5 326.672 82.864 326.536 84.432H323.308V83.232C323.308 81.912 323.096 80.964 322.672 80.388C322.256 79.804 321.572 79.512 320.62 79.512C319.508 79.512 318.688 79.852 318.16 80.532C317.64 81.204 317.38 82.2 317.38 83.52C317.38 84.728 317.64 85.664 318.16 86.328C318.688 86.984 319.46 87.312 320.476 87.312C321.116 87.312 321.664 87.172 322.12 86.892C322.576 86.612 322.924 86.208 323.164 85.68L326.428 86.616C325.94 87.8 325.168 88.72 324.112 89.376C323.064 90.032 321.916 90.36 320.668 90.36ZM316.372 84.432V82.008H324.964V84.432H316.372ZM337.246 90V83.88C337.246 83.584 337.23 83.208 337.198 82.752C337.166 82.288 337.066 81.824 336.898 81.36C336.73 80.896 336.454 80.508 336.07 80.196C335.694 79.884 335.158 79.728 334.462 79.728C334.182 79.728 333.882 79.772 333.562 79.86C333.242 79.948 332.942 80.12 332.662 80.376C332.382 80.624 332.15 80.992 331.966 81.48C331.79 81.968 331.702 82.616 331.702 83.424L329.83 82.536C329.83 81.512 330.038 80.552 330.454 79.656C330.87 78.76 331.494 78.036 332.326 77.484C333.166 76.932 334.222 76.656 335.494 76.656C336.51 76.656 337.338 76.828 337.978 77.172C338.618 77.516 339.114 77.952 339.466 78.48C339.826 79.008 340.082 79.56 340.234 80.136C340.386 80.704 340.478 81.224 340.51 81.696C340.542 82.168 340.558 82.512 340.558 82.728V90H337.246ZM328.39 90V77.04H331.294V81.336H331.702V90H328.39ZM350.968 90C350.072 90.168 349.192 90.24 348.328 90.216C347.472 90.2 346.704 90.052 346.024 89.772C345.352 89.484 344.84 89.024 344.488 88.392C344.168 87.8 344 87.2 343.984 86.592C343.968 85.976 343.96 85.28 343.96 84.504V73.44H347.224V84.312C347.224 84.816 347.228 85.272 347.236 85.68C347.252 86.08 347.336 86.4 347.488 86.64C347.776 87.096 348.236 87.344 348.868 87.384C349.5 87.424 350.2 87.392 350.968 87.288V90ZM341.752 79.56V77.04H350.968V79.56H341.752ZM360.46 90L356.5 77.016L359.692 77.04L362.044 84.768L364.432 77.04H367.144L369.532 84.768L371.884 77.04H375.076L371.116 90H368.62L365.788 81.552L362.956 90H360.46ZM379.641 90.36C378.713 90.36 377.925 90.184 377.277 89.832C376.637 89.472 376.149 88.996 375.813 88.404C375.485 87.804 375.321 87.144 375.321 86.424C375.321 85.824 375.413 85.276 375.597 84.78C375.781 84.284 376.077 83.848 376.485 83.472C376.901 83.088 377.457 82.768 378.153 82.512C378.633 82.336 379.205 82.18 379.869 82.044C380.533 81.908 381.285 81.78 382.125 81.66C382.965 81.532 383.889 81.392 384.897 81.24L383.721 81.888C383.721 81.12 383.537 80.556 383.169 80.196C382.801 79.836 382.185 79.656 381.321 79.656C380.841 79.656 380.341 79.772 379.821 80.004C379.301 80.236 378.937 80.648 378.729 81.24L375.777 80.304C376.105 79.232 376.721 78.36 377.625 77.688C378.529 77.016 379.761 76.68 381.321 76.68C382.465 76.68 383.481 76.856 384.369 77.208C385.257 77.56 385.929 78.168 386.385 79.032C386.641 79.512 386.793 79.992 386.841 80.472C386.889 80.952 386.913 81.488 386.913 82.08V90H384.057V87.336L384.465 87.888C383.833 88.76 383.149 89.392 382.413 89.784C381.685 90.168 380.761 90.36 379.641 90.36ZM380.337 87.792C380.937 87.792 381.441 87.688 381.849 87.48C382.265 87.264 382.593 87.02 382.833 86.748C383.081 86.476 383.249 86.248 383.337 86.064C383.505 85.712 383.601 85.304 383.625 84.84C383.657 84.368 383.673 83.976 383.673 83.664L384.633 83.904C383.665 84.064 382.881 84.2 382.281 84.312C381.681 84.416 381.197 84.512 380.829 84.6C380.461 84.688 380.137 84.784 379.857 84.888C379.537 85.016 379.277 85.156 379.077 85.308C378.885 85.452 378.741 85.612 378.645 85.788C378.557 85.964 378.513 86.16 378.513 86.376C378.513 86.672 378.585 86.928 378.729 87.144C378.881 87.352 379.093 87.512 379.365 87.624C379.637 87.736 379.961 87.792 380.337 87.792ZM390.482 95.76L392.978 88.896L393.026 90.912L387.386 77.04H390.77L394.562 86.856H393.794L397.562 77.04H400.826L393.506 95.76H390.482Z" fill="white"/>
<path d="M235.68 486V468.72H238.944V475.824H246.672V468.72H249.936V486H246.672V478.872H238.944V486H235.68ZM253.065 471.24V468.36H256.329V471.24H253.065ZM253.065 486V473.04H256.329V486H253.065ZM259.447 486V473.04H262.327V476.208L262.015 475.8C262.183 475.352 262.407 474.944 262.687 474.576C262.967 474.208 263.311 473.904 263.719 473.664C264.031 473.472 264.371 473.324 264.739 473.22C265.107 473.108 265.487 473.04 265.879 473.016C266.271 472.984 266.663 472.992 267.055 473.04V476.088C266.695 475.976 266.275 475.94 265.795 475.98C265.323 476.012 264.895 476.12 264.511 476.304C264.127 476.48 263.803 476.716 263.539 477.012C263.275 477.3 263.075 477.644 262.939 478.044C262.803 478.436 262.735 478.88 262.735 479.376V486H259.447ZM274.647 486.36C273.319 486.36 272.147 486.076 271.131 485.508C270.123 484.932 269.331 484.144 268.755 483.144C268.187 482.136 267.903 480.984 267.903 479.688C267.903 478.272 268.183 477.04 268.743 475.992C269.303 474.944 270.075 474.132 271.059 473.556C272.043 472.972 273.175 472.68 274.455 472.68C275.815 472.68 276.971 473 277.923 473.64C278.875 474.28 279.579 475.18 280.035 476.34C280.491 477.5 280.651 478.864 280.515 480.432H277.287V479.232C277.287 477.912 277.075 476.964 276.651 476.388C276.235 475.804 275.551 475.512 274.599 475.512C273.487 475.512 272.667 475.852 272.139 476.532C271.619 477.204 271.359 478.2 271.359 479.52C271.359 480.728 271.619 481.664 272.139 482.328C272.667 482.984 273.439 483.312 274.455 483.312C275.095 483.312 275.643 483.172 276.099 482.892C276.555 482.612 276.903 482.208 277.143 481.68L280.407 482.616C279.919 483.8 279.147 484.72 278.091 485.376C277.043 486.032 275.895 486.36 274.647 486.36ZM270.351 480.432V478.008H278.943V480.432H270.351ZM287.309 486V468.72H290.573V486H287.309ZM302.523 486V479.88C302.523 479.584 302.507 479.208 302.475 478.752C302.443 478.288 302.343 477.824 302.175 477.36C302.007 476.896 301.731 476.508 301.347 476.196C300.971 475.884 300.435 475.728 299.739 475.728C299.459 475.728 299.159 475.772 298.839 475.86C298.519 475.948 298.219 476.12 297.939 476.376C297.659 476.624 297.427 476.992 297.243 477.48C297.067 477.968 296.979 478.616 296.979 479.424L295.107 478.536C295.107 477.512 295.315 476.552 295.731 475.656C296.147 474.76 296.771 474.036 297.603 473.484C298.443 472.932 299.499 472.656 300.771 472.656C301.787 472.656 302.615 472.828 303.255 473.172C303.895 473.516 304.391 473.952 304.743 474.48C305.103 475.008 305.359 475.56 305.511 476.136C305.663 476.704 305.755 477.224 305.787 477.696C305.819 478.168 305.835 478.512 305.835 478.728V486H302.523ZM293.667 486V473.04H296.571V477.336H296.979V486H293.667ZM313.532 486.36C311.9 486.36 310.58 485.992 309.572 485.256C308.572 484.512 307.964 483.464 307.748 482.112L311.084 481.608C311.22 482.216 311.52 482.692 311.984 483.036C312.456 483.38 313.052 483.552 313.772 483.552C314.364 483.552 314.82 483.44 315.14 483.216C315.46 482.984 315.62 482.664 315.62 482.256C315.62 482 315.556 481.796 315.428 481.644C315.3 481.484 315.012 481.328 314.564 481.176C314.124 481.024 313.436 480.824 312.5 480.576C311.444 480.304 310.6 480 309.968 479.664C309.336 479.328 308.88 478.928 308.6 478.464C308.32 477.992 308.18 477.424 308.18 476.76C308.18 475.928 308.392 475.208 308.816 474.6C309.24 473.984 309.836 473.512 310.604 473.184C311.38 472.848 312.292 472.68 313.34 472.68C314.356 472.68 315.256 472.836 316.04 473.148C316.824 473.46 317.456 473.904 317.936 474.48C318.424 475.056 318.724 475.736 318.836 476.52L315.5 477.12C315.444 476.64 315.236 476.26 314.876 475.98C314.516 475.7 314.028 475.536 313.412 475.488C312.812 475.448 312.328 475.528 311.96 475.728C311.6 475.928 311.42 476.216 311.42 476.592C311.42 476.816 311.496 477.004 311.648 477.156C311.808 477.308 312.132 477.464 312.62 477.624C313.116 477.784 313.868 477.992 314.876 478.248C315.86 478.504 316.648 478.804 317.24 479.148C317.84 479.484 318.276 479.892 318.548 480.372C318.82 480.844 318.956 481.416 318.956 482.088C318.956 483.416 318.476 484.46 317.516 485.22C316.556 485.98 315.228 486.36 313.532 486.36ZM328.889 486C327.993 486.168 327.113 486.24 326.249 486.216C325.393 486.2 324.625 486.052 323.945 485.772C323.273 485.484 322.761 485.024 322.409 484.392C322.089 483.8 321.921 483.2 321.905 482.592C321.889 481.976 321.881 481.28 321.881 480.504V469.44H325.145V480.312C325.145 480.816 325.149 481.272 325.157 481.68C325.173 482.08 325.257 482.4 325.409 482.64C325.697 483.096 326.157 483.344 326.789 483.384C327.421 483.424 328.121 483.392 328.889 483.288V486ZM319.673 475.56V473.04H328.889V475.56H319.673ZM334.898 486.36C333.97 486.36 333.182 486.184 332.534 485.832C331.894 485.472 331.406 484.996 331.07 484.404C330.742 483.804 330.578 483.144 330.578 482.424C330.578 481.824 330.67 481.276 330.854 480.78C331.038 480.284 331.334 479.848 331.742 479.472C332.158 479.088 332.714 478.768 333.41 478.512C333.89 478.336 334.462 478.18 335.126 478.044C335.79 477.908 336.542 477.78 337.382 477.66C338.222 477.532 339.146 477.392 340.154 477.24L338.978 477.888C338.978 477.12 338.794 476.556 338.426 476.196C338.058 475.836 337.442 475.656 336.578 475.656C336.098 475.656 335.598 475.772 335.078 476.004C334.558 476.236 334.194 476.648 333.986 477.24L331.034 476.304C331.362 475.232 331.978 474.36 332.882 473.688C333.786 473.016 335.018 472.68 336.578 472.68C337.722 472.68 338.738 472.856 339.626 473.208C340.514 473.56 341.186 474.168 341.642 475.032C341.898 475.512 342.05 475.992 342.098 476.472C342.146 476.952 342.17 477.488 342.17 478.08V486H339.314V483.336L339.722 483.888C339.09 484.76 338.406 485.392 337.67 485.784C336.942 486.168 336.018 486.36 334.898 486.36ZM335.594 483.792C336.194 483.792 336.698 483.688 337.106 483.48C337.522 483.264 337.85 483.02 338.09 482.748C338.338 482.476 338.506 482.248 338.594 482.064C338.762 481.712 338.858 481.304 338.882 480.84C338.914 480.368 338.93 479.976 338.93 479.664L339.89 479.904C338.922 480.064 338.138 480.2 337.538 480.312C336.938 480.416 336.454 480.512 336.086 480.6C335.718 480.688 335.394 480.784 335.114 480.888C334.794 481.016 334.534 481.156 334.334 481.308C334.142 481.452 333.998 481.612 333.902 481.788C333.814 481.964 333.77 482.16 333.77 482.376C333.77 482.672 333.842 482.928 333.986 483.144C334.138 483.352 334.35 483.512 334.622 483.624C334.894 483.736 335.218 483.792 335.594 483.792ZM353.642 486V479.88C353.642 479.584 353.626 479.208 353.594 478.752C353.562 478.288 353.462 477.824 353.294 477.36C353.126 476.896 352.85 476.508 352.466 476.196C352.09 475.884 351.554 475.728 350.858 475.728C350.578 475.728 350.278 475.772 349.958 475.86C349.638 475.948 349.338 476.12 349.058 476.376C348.778 476.624 348.546 476.992 348.362 477.48C348.186 477.968 348.098 478.616 348.098 479.424L346.226 478.536C346.226 477.512 346.434 476.552 346.85 475.656C347.266 474.76 347.89 474.036 348.722 473.484C349.562 472.932 350.618 472.656 351.89 472.656C352.906 472.656 353.734 472.828 354.374 473.172C355.014 473.516 355.51 473.952 355.862 474.48C356.222 475.008 356.478 475.56 356.63 476.136C356.782 476.704 356.874 477.224 356.906 477.696C356.938 478.168 356.954 478.512 356.954 478.728V486H353.642ZM344.786 486V473.04H347.69V477.336H348.098V486H344.786ZM367.364 486C366.468 486.168 365.588 486.24 364.724 486.216C363.868 486.2 363.1 486.052 362.42 485.772C361.748 485.484 361.236 485.024 360.884 484.392C360.564 483.8 360.396 483.2 360.38 482.592C360.364 481.976 360.356 481.28 360.356 480.504V469.44H363.62V480.312C363.62 480.816 363.624 481.272 363.632 481.68C363.648 482.08 363.732 482.4 363.884 482.64C364.172 483.096 364.632 483.344 365.264 483.384C365.896 483.424 366.596 483.392 367.364 483.288V486ZM358.148 475.56V473.04H367.364V475.56H358.148ZM370.012 486V468.36H373.276V486H370.012ZM378.049 491.76L380.545 484.896L380.593 486.912L374.953 473.04H378.337L382.129 482.856H381.361L385.129 473.04H388.393L381.073 491.76H378.049ZM395.125 486V483.12H398.389V486H395.125ZM395.125 481.68V468.72H398.389V481.68H395.125Z" fill="white"/>
<g filter="url(#filter3_b_8636_1866)">
<rect x="290" y="403" width="55" height="55" rx="27.5" fill="url(#paint3_linear_8636_1866)" fill-opacity="0.4"/>
<g filter="url(#filter4_d_8636_1866)">
<rect x="298" y="411" width="38.1176" height="38.1176" rx="19.0588" fill="url(#paint4_linear_8636_1866)" shape-rendering="crispEdges"/>
<path d="M316.4 437L320.75 428.5H317.75V423L313.25 431.5H316.4V437ZM317 440C315.617 440 314.317 439.737 313.1 439.212C311.883 438.687 310.825 437.974 309.925 437.075C309.025 436.175 308.313 435.117 307.788 433.9C307.263 432.683 307.001 431.383 307 430C307 428.617 307.263 427.317 307.788 426.1C308.313 424.883 309.026 423.825 309.925 422.925C310.825 422.025 311.883 421.313 313.1 420.788C314.317 420.263 315.617 420.001 317 420C318.383 420 319.683 420.263 320.9 420.788C322.117 421.313 323.175 422.026 324.075 422.925C324.975 423.825 325.688 424.883 326.213 426.1C326.738 427.317 327.001 428.617 327 430C327 431.383 326.737 432.683 326.212 433.9C325.687 435.117 324.974 436.175 324.075 437.075C323.175 437.975 322.117 438.688 320.9 439.213C319.683 439.738 318.383 440.001 317 440Z" fill="white"/>
</g>
</g>
<path d="M318 403L318 359" stroke="white" stroke-opacity="0.3" stroke-dasharray="6 6"/>
<path d="M318 272L318 233" stroke="white" stroke-opacity="0.3" stroke-dasharray="6 6"/>
<g filter="url(#filter5_b_8636_1866)">
<rect x="145" y="292" width="345" height="59" rx="29.5" fill="white" fill-opacity="0.12"/>
<path d="M175.84 329.3C174.773 329.3 173.81 329.113 172.95 328.74C172.097 328.36 171.393 327.82 170.84 327.12C170.293 326.413 169.947 325.573 169.8 324.6L172.64 324.18C172.84 325.007 173.253 325.643 173.88 326.09C174.507 326.537 175.22 326.76 176.02 326.76C176.467 326.76 176.9 326.69 177.32 326.55C177.74 326.41 178.083 326.203 178.35 325.93C178.623 325.657 178.76 325.32 178.76 324.92C178.76 324.773 178.737 324.633 178.69 324.5C178.65 324.36 178.58 324.23 178.48 324.11C178.38 323.99 178.237 323.877 178.05 323.77C177.87 323.663 177.64 323.567 177.36 323.48L173.62 322.38C173.34 322.3 173.013 322.187 172.64 322.04C172.273 321.893 171.917 321.683 171.57 321.41C171.223 321.137 170.933 320.777 170.7 320.33C170.473 319.877 170.36 319.307 170.36 318.62C170.36 317.653 170.603 316.85 171.09 316.21C171.577 315.57 172.227 315.093 173.04 314.78C173.853 314.467 174.753 314.313 175.74 314.32C176.733 314.333 177.62 314.503 178.4 314.83C179.18 315.157 179.833 315.633 180.36 316.26C180.887 316.88 181.267 317.64 181.5 318.54L178.56 319.04C178.453 318.573 178.257 318.18 177.97 317.86C177.683 317.54 177.34 317.297 176.94 317.13C176.547 316.963 176.133 316.873 175.7 316.86C175.273 316.847 174.87 316.907 174.49 317.04C174.117 317.167 173.81 317.353 173.57 317.6C173.337 317.847 173.22 318.14 173.22 318.48C173.22 318.793 173.317 319.05 173.51 319.25C173.703 319.443 173.947 319.6 174.24 319.72C174.533 319.84 174.833 319.94 175.14 320.02L177.64 320.7C178.013 320.8 178.427 320.933 178.88 321.1C179.333 321.26 179.767 321.487 180.18 321.78C180.6 322.067 180.943 322.447 181.21 322.92C181.483 323.393 181.62 323.993 181.62 324.72C181.62 325.493 181.457 326.17 181.13 326.75C180.81 327.323 180.377 327.8 179.83 328.18C179.283 328.553 178.663 328.833 177.97 329.02C177.283 329.207 176.573 329.3 175.84 329.3ZM188.178 329.3C187.058 329.3 186.098 329.05 185.298 328.55C184.498 328.05 183.885 327.37 183.458 326.51C183.031 325.65 182.818 324.68 182.818 323.6C182.818 322.507 183.038 321.53 183.478 320.67C183.925 319.81 184.551 319.133 185.358 318.64C186.165 318.147 187.118 317.9 188.218 317.9C189.491 317.9 190.558 318.223 191.418 318.87C192.285 319.51 192.838 320.387 193.078 321.5L190.358 322.22C190.198 321.66 189.918 321.223 189.518 320.91C189.125 320.597 188.678 320.44 188.178 320.44C187.605 320.44 187.135 320.58 186.768 320.86C186.401 321.133 186.131 321.51 185.958 321.99C185.785 322.463 185.698 323 185.698 323.6C185.698 324.54 185.905 325.303 186.318 325.89C186.738 326.47 187.358 326.76 188.178 326.76C188.791 326.76 189.258 326.62 189.578 326.34C189.898 326.06 190.138 325.66 190.298 325.14L193.078 325.72C192.771 326.867 192.191 327.75 191.338 328.37C190.485 328.99 189.431 329.3 188.178 329.3ZM202.038 329V323.9C202.038 323.653 202.025 323.34 201.998 322.96C201.971 322.573 201.888 322.187 201.748 321.8C201.608 321.413 201.378 321.09 201.058 320.83C200.745 320.57 200.298 320.44 199.718 320.44C199.485 320.44 199.235 320.477 198.968 320.55C198.701 320.623 198.451 320.767 198.218 320.98C197.985 321.187 197.791 321.493 197.638 321.9C197.491 322.307 197.418 322.847 197.418 323.52L195.858 322.78C195.858 321.927 196.031 321.127 196.378 320.38C196.725 319.633 197.245 319.03 197.938 318.57C198.638 318.11 199.518 317.88 200.578 317.88C201.425 317.88 202.115 318.023 202.648 318.31C203.181 318.597 203.595 318.96 203.888 319.4C204.188 319.84 204.401 320.3 204.528 320.78C204.655 321.253 204.731 321.687 204.758 322.08C204.785 322.473 204.798 322.76 204.798 322.94V329H202.038ZM194.658 329V314.6H197.078V322H197.418V329H194.658ZM212.013 329.3C210.906 329.3 209.93 329.063 209.083 328.59C208.243 328.11 207.583 327.453 207.103 326.62C206.63 325.78 206.393 324.82 206.393 323.74C206.393 322.56 206.626 321.533 207.093 320.66C207.56 319.787 208.203 319.11 209.023 318.63C209.843 318.143 210.786 317.9 211.853 317.9C212.986 317.9 213.95 318.167 214.743 318.7C215.536 319.233 216.123 319.983 216.503 320.95C216.883 321.917 217.016 323.053 216.903 324.36H214.213V323.36C214.213 322.26 214.036 321.47 213.683 320.99C213.336 320.503 212.766 320.26 211.973 320.26C211.046 320.26 210.363 320.543 209.923 321.11C209.49 321.67 209.273 322.5 209.273 323.6C209.273 324.607 209.49 325.387 209.923 325.94C210.363 326.487 211.006 326.76 211.853 326.76C212.386 326.76 212.843 326.643 213.223 326.41C213.603 326.177 213.893 325.84 214.093 325.4L216.813 326.18C216.406 327.167 215.763 327.933 214.883 328.48C214.01 329.027 213.053 329.3 212.013 329.3ZM208.433 324.36V322.34H215.593V324.36H208.433ZM223.141 329.3C222.148 329.3 221.278 329.05 220.531 328.55C219.784 328.05 219.201 327.37 218.781 326.51C218.368 325.65 218.161 324.68 218.161 323.6C218.161 322.5 218.371 321.523 218.791 320.67C219.218 319.81 219.814 319.133 220.581 318.64C221.348 318.147 222.248 317.9 223.281 317.9C224.308 317.9 225.171 318.15 225.871 318.65C226.571 319.15 227.101 319.83 227.461 320.69C227.821 321.55 228.001 322.52 228.001 323.6C228.001 324.68 227.818 325.65 227.451 326.51C227.091 327.37 226.551 328.05 225.831 328.55C225.111 329.05 224.214 329.3 223.141 329.3ZM223.581 326.88C224.188 326.88 224.671 326.743 225.031 326.47C225.398 326.197 225.661 325.813 225.821 325.32C225.981 324.827 226.061 324.253 226.061 323.6C226.061 322.947 225.981 322.373 225.821 321.88C225.661 321.387 225.404 321.003 225.051 320.73C224.704 320.457 224.248 320.32 223.681 320.32C223.074 320.32 222.574 320.47 222.181 320.77C221.794 321.063 221.508 321.46 221.321 321.96C221.134 322.453 221.041 323 221.041 323.6C221.041 324.207 221.131 324.76 221.311 325.26C221.491 325.753 221.768 326.147 222.141 326.44C222.514 326.733 222.994 326.88 223.581 326.88ZM226.061 329V321.6H225.721V314.6H228.461V329H226.061ZM234.881 329.32C234.034 329.32 233.344 329.177 232.811 328.89C232.278 328.603 231.861 328.24 231.561 327.8C231.268 327.36 231.058 326.903 230.931 326.43C230.804 325.95 230.728 325.513 230.701 325.12C230.674 324.727 230.661 324.44 230.661 324.26V318.2H233.421V323.3C233.421 323.547 233.434 323.863 233.461 324.25C233.488 324.63 233.571 325.013 233.711 325.4C233.851 325.787 234.078 326.11 234.391 326.37C234.711 326.63 235.161 326.76 235.741 326.76C235.974 326.76 236.224 326.723 236.491 326.65C236.758 326.577 237.008 326.437 237.241 326.23C237.474 326.017 237.664 325.707 237.811 325.3C237.964 324.887 238.041 324.347 238.041 323.68L239.601 324.42C239.601 325.273 239.428 326.073 239.081 326.82C238.734 327.567 238.211 328.17 237.511 328.63C236.818 329.09 235.941 329.32 234.881 329.32ZM238.381 329V325.42H238.041V318.2H240.781V329H238.381ZM243.376 329V314.3H246.096V329H243.376ZM253.714 329.3C252.607 329.3 251.63 329.063 250.784 328.59C249.944 328.11 249.284 327.453 248.804 326.62C248.33 325.78 248.094 324.82 248.094 323.74C248.094 322.56 248.327 321.533 248.794 320.66C249.26 319.787 249.904 319.11 250.724 318.63C251.544 318.143 252.487 317.9 253.554 317.9C254.687 317.9 255.65 318.167 256.444 318.7C257.237 319.233 257.824 319.983 258.204 320.95C258.584 321.917 258.717 323.053 258.604 324.36H255.914V323.36C255.914 322.26 255.737 321.47 255.384 320.99C255.037 320.503 254.467 320.26 253.674 320.26C252.747 320.26 252.064 320.543 251.624 321.11C251.19 321.67 250.974 322.5 250.974 323.6C250.974 324.607 251.19 325.387 251.624 325.94C252.064 326.487 252.707 326.76 253.554 326.76C254.087 326.76 254.544 326.643 254.924 326.41C255.304 326.177 255.594 325.84 255.794 325.4L258.514 326.18C258.107 327.167 257.464 327.933 256.584 328.48C255.71 329.027 254.754 329.3 253.714 329.3ZM250.134 324.36V322.34H257.294V324.36H250.134ZM268.886 329.3C268.086 329.3 267.326 329.18 266.606 328.94C265.886 328.7 265.286 328.32 264.806 327.8C264.419 327.367 264.136 326.9 263.956 326.4C263.782 325.9 263.686 325.36 263.666 324.78C263.666 324.207 263.749 323.66 263.916 323.14C264.082 322.613 264.339 322.147 264.686 321.74C264.799 321.607 264.919 321.487 265.046 321.38C265.172 321.267 265.299 321.16 265.426 321.06C265.066 320.647 264.796 320.24 264.616 319.84C264.436 319.433 264.346 318.967 264.346 318.44C264.346 317.567 264.582 316.787 265.056 316.1C265.536 315.413 266.186 314.927 267.006 314.64C267.346 314.52 267.689 314.44 268.036 314.4C268.382 314.36 268.719 314.34 269.046 314.34C269.706 314.34 270.336 314.443 270.936 314.65C271.536 314.85 272.046 315.18 272.466 315.64C272.726 315.907 272.939 316.203 273.106 316.53C273.279 316.857 273.406 317.187 273.486 317.52L270.786 318.06C270.706 317.78 270.566 317.54 270.366 317.34C270.179 317.147 269.959 317.023 269.706 316.97C269.452 316.91 269.206 316.88 268.966 316.88C268.586 316.88 268.252 316.947 267.966 317.08C267.666 317.22 267.442 317.403 267.296 317.63C267.156 317.857 267.086 318.14 267.086 318.48C267.086 318.787 267.146 319.03 267.266 319.21C267.386 319.39 267.526 319.567 267.686 319.74C267.799 319.86 267.939 320 268.106 320.16C268.279 320.32 268.459 320.487 268.646 320.66L271.946 323.72C271.946 323.607 271.946 323.473 271.946 323.32C271.946 323.167 271.946 323.027 271.946 322.9V321.26H274.306V324C274.306 324.307 274.299 324.63 274.286 324.97C274.272 325.303 274.239 325.58 274.186 325.8L275.946 327.42L274.206 329.28L272.886 328.02C272.506 328.347 272.099 328.607 271.666 328.8C271.239 328.993 270.806 329.127 270.366 329.2C270.086 329.24 269.829 329.267 269.596 329.28C269.362 329.293 269.126 329.3 268.886 329.3ZM269.006 326.72C269.159 326.72 269.306 326.713 269.446 326.7C269.586 326.687 269.726 326.667 269.866 326.64C270.079 326.6 270.272 326.543 270.446 326.47C270.626 326.39 270.786 326.3 270.926 326.2L267.406 322.96C267.266 323.02 267.139 323.093 267.026 323.18C266.919 323.267 266.826 323.36 266.746 323.46C266.639 323.607 266.556 323.777 266.496 323.97C266.436 324.163 266.406 324.38 266.406 324.62C266.406 324.907 266.449 325.157 266.536 325.37C266.629 325.577 266.739 325.767 266.866 325.94C267.086 326.22 267.406 326.42 267.826 326.54C268.246 326.66 268.639 326.72 269.006 326.72ZM286.926 329.3C285.486 329.3 284.243 328.987 283.196 328.36C282.156 327.733 281.353 326.857 280.786 325.73C280.226 324.603 279.946 323.293 279.946 321.8C279.946 320.307 280.226 318.997 280.786 317.87C281.353 316.743 282.156 315.867 283.196 315.24C284.243 314.613 285.486 314.3 286.926 314.3C288.579 314.3 289.966 314.71 291.086 315.53C292.213 316.35 293.006 317.46 293.466 318.86L290.726 319.62C290.459 318.747 290.009 318.07 289.376 317.59C288.743 317.103 287.926 316.86 286.926 316.86C286.013 316.86 285.249 317.063 284.636 317.47C284.029 317.877 283.573 318.45 283.266 319.19C282.959 319.93 282.806 320.8 282.806 321.8C282.806 322.8 282.959 323.67 283.266 324.41C283.573 325.15 284.029 325.723 284.636 326.13C285.249 326.537 286.013 326.74 286.926 326.74C287.926 326.74 288.743 326.497 289.376 326.01C290.009 325.523 290.459 324.847 290.726 323.98L293.466 324.74C293.006 326.14 292.213 327.25 291.086 328.07C289.966 328.89 288.579 329.3 286.926 329.3ZM300.128 329.3C299.041 329.3 298.088 329.057 297.268 328.57C296.448 328.083 295.808 327.413 295.348 326.56C294.895 325.7 294.668 324.713 294.668 323.6C294.668 322.473 294.901 321.483 295.368 320.63C295.835 319.77 296.478 319.1 297.298 318.62C298.118 318.14 299.061 317.9 300.128 317.9C301.215 317.9 302.168 318.143 302.988 318.63C303.815 319.117 304.458 319.79 304.918 320.65C305.378 321.503 305.608 322.487 305.608 323.6C305.608 324.72 305.375 325.71 304.908 326.57C304.448 327.423 303.805 328.093 302.978 328.58C302.158 329.06 301.208 329.3 300.128 329.3ZM300.128 326.76C301.001 326.76 301.651 326.467 302.078 325.88C302.511 325.287 302.728 324.527 302.728 323.6C302.728 322.64 302.508 321.873 302.068 321.3C301.635 320.727 300.988 320.44 300.128 320.44C299.535 320.44 299.048 320.573 298.668 320.84C298.288 321.107 298.005 321.477 297.818 321.95C297.638 322.423 297.548 322.973 297.548 323.6C297.548 324.567 297.765 325.337 298.198 325.91C298.638 326.477 299.281 326.76 300.128 326.76ZM314.767 329V323.9C314.767 323.653 314.754 323.34 314.727 322.96C314.7 322.573 314.617 322.187 314.477 321.8C314.337 321.413 314.107 321.09 313.787 320.83C313.474 320.57 313.027 320.44 312.447 320.44C312.214 320.44 311.964 320.477 311.697 320.55C311.43 320.623 311.18 320.767 310.947 320.98C310.714 321.187 310.52 321.493 310.367 321.9C310.22 322.307 310.147 322.847 310.147 323.52L308.587 322.78C308.587 321.927 308.76 321.127 309.107 320.38C309.454 319.633 309.974 319.03 310.667 318.57C311.367 318.11 312.247 317.88 313.307 317.88C314.154 317.88 314.844 318.023 315.377 318.31C315.91 318.597 316.324 318.96 316.617 319.4C316.917 319.84 317.13 320.3 317.257 320.78C317.384 321.253 317.46 321.687 317.487 322.08C317.514 322.473 317.527 322.76 317.527 322.94V329H314.767ZM307.387 329V318.2H309.807V321.78H310.147V329H307.387ZM323.907 329.3C322.913 329.3 322.043 329.05 321.297 328.55C320.55 328.05 319.967 327.37 319.547 326.51C319.133 325.65 318.927 324.68 318.927 323.6C318.927 322.5 319.137 321.523 319.557 320.67C319.983 319.81 320.58 319.133 321.347 318.64C322.113 318.147 323.013 317.9 324.047 317.9C325.073 317.9 325.937 318.15 326.637 318.65C327.337 319.15 327.867 319.83 328.227 320.69C328.587 321.55 328.767 322.52 328.767 323.6C328.767 324.68 328.583 325.65 328.217 326.51C327.857 327.37 327.317 328.05 326.597 328.55C325.877 329.05 324.98 329.3 323.907 329.3ZM324.347 326.88C324.953 326.88 325.437 326.743 325.797 326.47C326.163 326.197 326.427 325.813 326.587 325.32C326.747 324.827 326.827 324.253 326.827 323.6C326.827 322.947 326.747 322.373 326.587 321.88C326.427 321.387 326.17 321.003 325.817 320.73C325.47 320.457 325.013 320.32 324.447 320.32C323.84 320.32 323.34 320.47 322.947 320.77C322.56 321.063 322.273 321.46 322.087 321.96C321.9 322.453 321.807 323 321.807 323.6C321.807 324.207 321.897 324.76 322.077 325.26C322.257 325.753 322.533 326.147 322.907 326.44C323.28 326.733 323.76 326.88 324.347 326.88ZM326.827 329V321.6H326.487V314.6H329.227V329H326.827ZM335.647 329.32C334.8 329.32 334.11 329.177 333.577 328.89C333.043 328.603 332.627 328.24 332.327 327.8C332.033 327.36 331.823 326.903 331.697 326.43C331.57 325.95 331.493 325.513 331.467 325.12C331.44 324.727 331.427 324.44 331.427 324.26V318.2H334.187V323.3C334.187 323.547 334.2 323.863 334.227 324.25C334.253 324.63 334.337 325.013 334.477 325.4C334.617 325.787 334.843 326.11 335.157 326.37C335.477 326.63 335.927 326.76 336.507 326.76C336.74 326.76 336.99 326.723 337.257 326.65C337.523 326.577 337.773 326.437 338.007 326.23C338.24 326.017 338.43 325.707 338.577 325.3C338.73 324.887 338.807 324.347 338.807 323.68L340.367 324.42C340.367 325.273 340.193 326.073 339.847 326.82C339.5 327.567 338.977 328.17 338.277 328.63C337.583 329.09 336.707 329.32 335.647 329.32ZM339.147 329V325.42H338.807V318.2H341.547V329H339.147ZM348.701 329.3C347.581 329.3 346.621 329.05 345.821 328.55C345.021 328.05 344.408 327.37 343.981 326.51C343.555 325.65 343.341 324.68 343.341 323.6C343.341 322.507 343.561 321.53 344.001 320.67C344.448 319.81 345.075 319.133 345.881 318.64C346.688 318.147 347.641 317.9 348.741 317.9C350.015 317.9 351.081 318.223 351.941 318.87C352.808 319.51 353.361 320.387 353.601 321.5L350.881 322.22C350.721 321.66 350.441 321.223 350.041 320.91C349.648 320.597 349.201 320.44 348.701 320.44C348.128 320.44 347.658 320.58 347.291 320.86C346.925 321.133 346.655 321.51 346.481 321.99C346.308 322.463 346.221 323 346.221 323.6C346.221 324.54 346.428 325.303 346.841 325.89C347.261 326.47 347.881 326.76 348.701 326.76C349.315 326.76 349.781 326.62 350.101 326.34C350.421 326.06 350.661 325.66 350.821 325.14L353.601 325.72C353.295 326.867 352.715 327.75 351.861 328.37C351.008 328.99 349.955 329.3 348.701 329.3ZM361.682 329C360.935 329.14 360.202 329.2 359.482 329.18C358.768 329.167 358.128 329.043 357.562 328.81C357.002 328.57 356.575 328.187 356.282 327.66C356.015 327.167 355.875 326.667 355.862 326.16C355.848 325.647 355.842 325.067 355.842 324.42V315.2H358.562V324.26C358.562 324.68 358.565 325.06 358.572 325.4C358.585 325.733 358.655 326 358.782 326.2C359.022 326.58 359.405 326.787 359.932 326.82C360.458 326.853 361.042 326.827 361.682 326.74V329ZM354.002 320.3V318.2H361.682V320.3H354.002ZM367.492 329V314.6H370.212V329H367.492ZM380.17 329V323.9C380.17 323.653 380.157 323.34 380.13 322.96C380.103 322.573 380.02 322.187 379.88 321.8C379.74 321.413 379.51 321.09 379.19 320.83C378.877 320.57 378.43 320.44 377.85 320.44C377.617 320.44 377.367 320.477 377.1 320.55C376.833 320.623 376.583 320.767 376.35 320.98C376.117 321.187 375.923 321.493 375.77 321.9C375.623 322.307 375.55 322.847 375.55 323.52L373.99 322.78C373.99 321.927 374.163 321.127 374.51 320.38C374.857 319.633 375.377 319.03 376.07 318.57C376.77 318.11 377.65 317.88 378.71 317.88C379.557 317.88 380.247 318.023 380.78 318.31C381.313 318.597 381.727 318.96 382.02 319.4C382.32 319.84 382.533 320.3 382.66 320.78C382.787 321.253 382.863 321.687 382.89 322.08C382.917 322.473 382.93 322.76 382.93 322.94V329H380.17ZM372.79 329V318.2H375.21V321.78H375.55V329H372.79ZM391.605 329C390.858 329.14 390.125 329.2 389.405 329.18C388.692 329.167 388.052 329.043 387.485 328.81C386.925 328.57 386.498 328.187 386.205 327.66C385.938 327.167 385.798 326.667 385.785 326.16C385.772 325.647 385.765 325.067 385.765 324.42V315.2H388.485V324.26C388.485 324.68 388.488 325.06 388.495 325.4C388.508 325.733 388.578 326 388.705 326.2C388.945 326.58 389.328 326.787 389.855 326.82C390.382 326.853 390.965 326.827 391.605 326.74V329ZM383.925 320.3V318.2H391.605V320.3H383.925ZM398.046 329.3C396.939 329.3 395.962 329.063 395.116 328.59C394.276 328.11 393.616 327.453 393.136 326.62C392.662 325.78 392.426 324.82 392.426 323.74C392.426 322.56 392.659 321.533 393.126 320.66C393.592 319.787 394.236 319.11 395.056 318.63C395.876 318.143 396.819 317.9 397.886 317.9C399.019 317.9 399.982 318.167 400.776 318.7C401.569 319.233 402.156 319.983 402.536 320.95C402.916 321.917 403.049 323.053 402.936 324.36H400.246V323.36C400.246 322.26 400.069 321.47 399.716 320.99C399.369 320.503 398.799 320.26 398.006 320.26C397.079 320.26 396.396 320.543 395.956 321.11C395.522 321.67 395.306 322.5 395.306 323.6C395.306 324.607 395.522 325.387 395.956 325.94C396.396 326.487 397.039 326.76 397.886 326.76C398.419 326.76 398.876 326.643 399.256 326.41C399.636 326.177 399.926 325.84 400.126 325.4L402.846 326.18C402.439 327.167 401.796 327.933 400.916 328.48C400.042 329.027 399.086 329.3 398.046 329.3ZM394.466 324.36V322.34H401.626V324.36H394.466ZM404.794 329V318.2H407.194V320.84L406.934 320.5C407.074 320.127 407.26 319.787 407.494 319.48C407.727 319.173 408.014 318.92 408.354 318.72C408.614 318.56 408.897 318.437 409.204 318.35C409.51 318.257 409.827 318.2 410.154 318.18C410.48 318.153 410.807 318.16 411.134 318.2V320.74C410.834 320.647 410.484 320.617 410.084 320.65C409.69 320.677 409.334 320.767 409.014 320.92C408.694 321.067 408.424 321.263 408.204 321.51C407.984 321.75 407.817 322.037 407.704 322.37C407.59 322.697 407.534 323.067 407.534 323.48V329H404.794ZM415.556 329L411.636 318.2H414.356L416.916 325.68L419.476 318.2H422.196L418.276 329H415.556ZM423.803 316.7V314.3H426.523V316.7H423.803ZM423.803 329V318.2H426.523V329H423.803ZM434.141 329.3C433.034 329.3 432.058 329.063 431.211 328.59C430.371 328.11 429.711 327.453 429.231 326.62C428.758 325.78 428.521 324.82 428.521 323.74C428.521 322.56 428.754 321.533 429.221 320.66C429.688 319.787 430.331 319.11 431.151 318.63C431.971 318.143 432.914 317.9 433.981 317.9C435.114 317.9 436.078 318.167 436.871 318.7C437.664 319.233 438.251 319.983 438.631 320.95C439.011 321.917 439.144 323.053 439.031 324.36H436.341V323.36C436.341 322.26 436.164 321.47 435.811 320.99C435.464 320.503 434.894 320.26 434.101 320.26C433.174 320.26 432.491 320.543 432.051 321.11C431.618 321.67 431.401 322.5 431.401 323.6C431.401 324.607 431.618 325.387 432.051 325.94C432.491 326.487 433.134 326.76 433.981 326.76C434.514 326.76 434.971 326.643 435.351 326.41C435.731 326.177 436.021 325.84 436.221 325.4L438.941 326.18C438.534 327.167 437.891 327.933 437.011 328.48C436.138 329.027 435.181 329.3 434.141 329.3ZM430.561 324.36V322.34H437.721V324.36H430.561ZM442.798 329L439.498 318.18L442.158 318.2L444.118 324.64L446.108 318.2H448.368L450.358 324.64L452.318 318.2H454.978L451.678 329H449.598L447.238 321.96L444.878 329H442.798ZM460.217 329.3C458.857 329.3 457.757 328.993 456.917 328.38C456.084 327.76 455.577 326.887 455.397 325.76L458.177 325.34C458.29 325.847 458.54 326.243 458.927 326.53C459.32 326.817 459.817 326.96 460.417 326.96C460.91 326.96 461.29 326.867 461.557 326.68C461.824 326.487 461.957 326.22 461.957 325.88C461.957 325.667 461.904 325.497 461.797 325.37C461.69 325.237 461.45 325.107 461.077 324.98C460.71 324.853 460.137 324.687 459.357 324.48C458.477 324.253 457.774 324 457.247 323.72C456.72 323.44 456.34 323.107 456.107 322.72C455.874 322.327 455.757 321.853 455.757 321.3C455.757 320.607 455.934 320.007 456.287 319.5C456.64 318.987 457.137 318.593 457.777 318.32C458.424 318.04 459.184 317.9 460.057 317.9C460.904 317.9 461.654 318.03 462.307 318.29C462.96 318.55 463.487 318.92 463.887 319.4C464.294 319.88 464.544 320.447 464.637 321.1L461.857 321.6C461.81 321.2 461.637 320.883 461.337 320.65C461.037 320.417 460.63 320.28 460.117 320.24C459.617 320.207 459.214 320.273 458.907 320.44C458.607 320.607 458.457 320.847 458.457 321.16C458.457 321.347 458.52 321.503 458.647 321.63C458.78 321.757 459.05 321.887 459.457 322.02C459.87 322.153 460.497 322.327 461.337 322.54C462.157 322.753 462.814 323.003 463.307 323.29C463.807 323.57 464.17 323.91 464.397 324.31C464.624 324.703 464.737 325.18 464.737 325.74C464.737 326.847 464.337 327.717 463.537 328.35C462.737 328.983 461.63 329.3 460.217 329.3Z" fill="white"/>
<g filter="url(#filter6_b_8636_1866)">
<rect x="302" y="272" width="31" height="31" rx="15.5" fill="url(#paint5_linear_8636_1866)" fill-opacity="0.4"/>
<g filter="url(#filter7_d_8636_1866)">
<rect x="306.509" y="276.509" width="21.4845" height="21.4845" rx="10.7422" fill="url(#paint6_linear_8636_1866)" shape-rendering="crispEdges"/>
<path d="M317.108 292.089V285.945L315.657 286.836V285.225L317.108 284.355H318.601V292.089H317.108Z" fill="white"/>
</g>
</g>
</g>
</g>
<defs>
<filter id="filter0_d_8636_1866" x="0" y="0" width="636" height="584" filterUnits="userSpaceOnUse" color-interpolation-filters="sRGB">
<feFlood flood-opacity="0" result="BackgroundImageFix"/>
<feColorMatrix in="SourceAlpha" type="matrix" values="0 0 0 0 0 0 0 0 0 0 0 0 0 0 0 0 0 0 127 0" result="hardAlpha"/>
<feOffset dy="4"/>
<feGaussianBlur stdDeviation="12"/>
<feComposite in2="hardAlpha" operator="out"/>
<feColorMatrix type="matrix" values="0 0 0 0 0.219608 0 0 0 0 0.137255 0 0 0 0 0.337255 0 0 0 0.5 0"/>
<feBlend mode="normal" in2="BackgroundImageFix" result="effect1_dropShadow_8636_1866"/>
<feBlend mode="normal" in="SourceGraphic" in2="effect1_dropShadow_8636_1866" result="shape"/>
</filter>
<filter id="filter1_b_8636_1866" x="288.473" y="114.473" width="58.0545" height="58.0545" filterUnits="userSpaceOnUse" color-interpolation-filters="sRGB">
<feFlood flood-opacity="0" result="BackgroundImageFix"/>
<feGaussianBlur in="BackgroundImageFix" stdDeviation="6.76364"/>
<feComposite in2="SourceAlpha" operator="in" result="effect1_backgroundBlur_8636_1866"/>
<feBlend mode="normal" in="SourceGraphic" in2="effect1_backgroundBlur_8636_1866" result="shape"/>
</filter>
<filter id="filter2_d_8636_1866" x="299.485" y="127.827" width="35.5319" height="35.532" filterUnits="userSpaceOnUse" color-interpolation-filters="sRGB">
<feFlood flood-opacity="0" result="BackgroundImageFix"/>
<feColorMatrix in="SourceAlpha" type="matrix" values="0 0 0 0 0 0 0 0 0 0 0 0 0 0 0 0 0 0 127 0" result="hardAlpha"/>
<feOffset dy="2.34126"/>
<feGaussianBlur stdDeviation="3.51189"/>
<feComposite in2="hardAlpha" operator="out"/>
<feColorMatrix type="matrix" values="0 0 0 0 0 0 0 0 0 0 0 0 0 0 0 0 0 0 0.12 0"/>
<feBlend mode="normal" in2="BackgroundImageFix" result="effect1_dropShadow_8636_1866"/>
<feBlend mode="normal" in="SourceGraphic" in2="effect1_dropShadow_8636_1866" result="shape"/>
</filter>
<filter id="filter3_b_8636_1866" x="266" y="379" width="103" height="103" filterUnits="userSpaceOnUse" color-interpolation-filters="sRGB">
<feFlood flood-opacity="0" result="BackgroundImageFix"/>
<feGaussianBlur in="BackgroundImageFix" stdDeviation="12"/>
<feComposite in2="SourceAlpha" operator="in" result="effect1_backgroundBlur_8636_1866"/>
<feBlend mode="normal" in="SourceGraphic" in2="effect1_backgroundBlur_8636_1866" result="shape"/>
</filter>
<filter id="filter4_d_8636_1866" x="285.538" y="402.692" width="63.0408" height="63.0408" filterUnits="userSpaceOnUse" color-interpolation-filters="sRGB">
<feFlood flood-opacity="0" result="BackgroundImageFix"/>
<feColorMatrix in="SourceAlpha" type="matrix" values="0 0 0 0 0 0 0 0 0 0 0 0 0 0 0 0 0 0 127 0" result="hardAlpha"/>
<feOffset dy="4.15385"/>
<feGaussianBlur stdDeviation="6.23077"/>
<feComposite in2="hardAlpha" operator="out"/>
<feColorMatrix type="matrix" values="0 0 0 0 0 0 0 0 0 0 0 0 0 0 0 0 0 0 0.12 0"/>
<feBlend mode="normal" in2="BackgroundImageFix" result="effect1_dropShadow_8636_1866"/>
<feBlend mode="normal" in="SourceGraphic" in2="effect1_dropShadow_8636_1866" result="shape"/>
</filter>
<filter id="filter5_b_8636_1866" x="139.8" y="266.8" width="355.4" height="89.4" filterUnits="userSpaceOnUse" color-interpolation-filters="sRGB">
<feFlood flood-opacity="0" result="BackgroundImageFix"/>
<feGaussianBlur in="BackgroundImageFix" stdDeviation="2.6"/>
<feComposite in2="SourceAlpha" operator="in" result="effect1_backgroundBlur_8636_1866"/>
<feBlend mode="normal" in="SourceGraphic" in2="effect1_backgroundBlur_8636_1866" result="shape"/>
</filter>
<filter id="filter6_b_8636_1866" x="288.473" y="258.473" width="58.0545" height="58.0545" filterUnits="userSpaceOnUse" color-interpolation-filters="sRGB">
<feFlood flood-opacity="0" result="BackgroundImageFix"/>
<feGaussianBlur in="BackgroundImageFix" stdDeviation="6.76364"/>
<feComposite in2="SourceAlpha" operator="in" result="effect1_backgroundBlur_8636_1866"/>
<feBlend mode="normal" in="SourceGraphic" in2="effect1_backgroundBlur_8636_1866" result="shape"/>
</filter>
<filter id="filter7_d_8636_1866" x="299.485" y="271.827" width="35.5319" height="35.532" filterUnits="userSpaceOnUse" color-interpolation-filters="sRGB">
<feFlood flood-opacity="0" result="BackgroundImageFix"/>
<feColorMatrix in="SourceAlpha" type="matrix" values="0 0 0 0 0 0 0 0 0 0 0 0 0 0 0 0 0 0 127 0" result="hardAlpha"/>
<feOffset dy="2.34126"/>
<feGaussianBlur stdDeviation="3.51189"/>
<feComposite in2="hardAlpha" operator="out"/>
<feColorMatrix type="matrix" values="0 0 0 0 0 0 0 0 0 0 0 0 0 0 0 0 0 0 0.12 0"/>
<feBlend mode="normal" in2="BackgroundImageFix" result="effect1_dropShadow_8636_1866"/>
<feBlend mode="normal" in="SourceGraphic" in2="effect1_dropShadow_8636_1866" result="shape"/>
</filter>
<linearGradient id="paint0_linear_8636_1866" x1="383.333" y1="20" x2="296.301" y2="621.345" gradientUnits="userSpaceOnUse">
<stop stop-color="#012A59"/>
<stop offset="1" stop-color="#B21450"/>
</linearGradient>
<linearGradient id="paint1_linear_8636_1866" x1="304.543" y1="128" x2="328.588" y2="129.534" gradientUnits="userSpaceOnUse">
<stop stop-color="#C3D0DD"/>
<stop offset="1" stop-color="#BEABC1"/>
</linearGradient>
<linearGradient id="paint2_linear_8636_1866" x1="319.638" y1="132.509" x2="315.827" y2="156.513" gradientUnits="userSpaceOnUse">
<stop stop-color="#012A59"/>
<stop offset="1" stop-color="#B21450"/>
</linearGradient>
<linearGradient id="paint3_linear_8636_1866" x1="294.512" y1="403" x2="337.173" y2="405.722" gradientUnits="userSpaceOnUse">
<stop stop-color="#C3D0DD"/>
<stop offset="1" stop-color="#BEABC1"/>
</linearGradient>
<linearGradient id="paint4_linear_8636_1866" x1="321.294" y1="411" x2="314.533" y2="453.587" gradientUnits="userSpaceOnUse">
<stop stop-color="#012A59"/>
<stop offset="1" stop-color="#B21450"/>
</linearGradient>
<linearGradient id="paint5_linear_8636_1866" x1="304.543" y1="272" x2="328.588" y2="273.534" gradientUnits="userSpaceOnUse">
<stop stop-color="#C3D0DD"/>
<stop offset="1" stop-color="#BEABC1"/>
</linearGradient>
<linearGradient id="paint6_linear_8636_1866" x1="319.638" y1="276.509" x2="315.827" y2="300.513" gradientUnits="userSpaceOnUse">
<stop stop-color="#012A59"/>
<stop offset="1" stop-color="#B21450"/>
</linearGradient>
</defs>
</svg>
