<svg width="183" height="39" viewBox="0 0 183 39" fill="none" xmlns="http://www.w3.org/2000/svg">
<path d="M0.703751 38V3.09091H15.7719C18.3628 3.09091 20.6299 3.5625 22.5731 4.50568C24.5163 5.44886 26.0276 6.80682 27.1072 8.57955C28.1867 10.3523 28.7265 12.4773 28.7265 14.9545C28.7265 17.4545 28.1697 19.5625 27.056 21.2784C25.9538 22.9943 24.4026 24.2898 22.4026 25.1648C20.414 26.0398 18.0901 26.4773 15.431 26.4773H6.43102V19.1136H13.5219C14.6356 19.1136 15.5844 18.9773 16.3685 18.7045C17.164 18.4205 17.7719 17.9716 18.1924 17.358C18.6242 16.7443 18.8401 15.9432 18.8401 14.9545C18.8401 13.9545 18.6242 13.142 18.1924 12.517C17.7719 11.8807 17.164 11.4148 16.3685 11.1193C15.5844 10.8125 14.6356 10.6591 13.5219 10.6591H10.181V38H0.703751ZM21.1583 21.9773L29.8856 38H19.5901L11.0674 21.9773H21.1583ZM43.9256 38.4773C41.1301 38.4773 38.721 37.9432 36.6983 36.875C34.6869 35.7955 33.1358 34.25 32.0449 32.2386C30.9653 30.2159 30.4256 27.7955 30.4256 24.9773C30.4256 22.2727 30.971 19.9091 32.0619 17.8864C33.1528 15.8636 34.6926 14.2898 36.6813 13.1648C38.6699 12.0398 41.0165 11.4773 43.721 11.4773C45.6983 11.4773 47.4881 11.7841 49.0903 12.3977C50.6926 13.0114 52.0619 13.9034 53.1983 15.0739C54.3347 16.233 55.2097 17.642 55.8233 19.3011C56.4369 20.9602 56.7438 22.8295 56.7438 24.9091V27.0909H33.3574V21.9091H48.0847C48.0733 21.1591 47.8801 20.5 47.5051 19.9318C47.1415 19.3523 46.6472 18.9034 46.0222 18.5852C45.4085 18.2557 44.7097 18.0909 43.9256 18.0909C43.1642 18.0909 42.4653 18.2557 41.829 18.5852C41.1926 18.9034 40.6813 19.3466 40.2949 19.9148C39.9199 20.483 39.721 21.1477 39.6983 21.9091V27.5C39.6983 28.3409 39.8744 29.0909 40.2267 29.75C40.579 30.4091 41.0847 30.9261 41.7438 31.3011C42.4028 31.6761 43.1983 31.8636 44.1301 31.8636C44.7778 31.8636 45.3688 31.7727 45.9028 31.5909C46.4483 31.4091 46.9142 31.1477 47.3006 30.8068C47.6869 30.4545 47.971 30.0341 48.1528 29.5455H56.7438C56.4483 31.3636 55.7494 32.9432 54.6472 34.2841C53.5449 35.6136 52.0847 36.6477 50.2665 37.3864C48.4597 38.1136 46.346 38.4773 43.9256 38.4773ZM69.0323 3.09091V38H59.6232V3.09091H69.0323ZM72.8664 38V11.8182H82.2755V38H72.8664ZM77.5709 9.09091C76.2982 9.09091 75.2073 8.67045 74.2982 7.82955C73.3891 6.98864 72.9345 5.97727 72.9345 4.79545C72.9345 3.61364 73.3891 2.60227 74.2982 1.76136C75.2073 0.920454 76.2982 0.5 77.5709 0.5C78.855 0.5 79.9459 0.920454 80.8436 1.76136C81.7527 2.60227 82.2073 3.61364 82.2073 4.79545C82.2073 5.97727 81.7527 6.98864 80.8436 7.82955C79.9459 8.67045 78.855 9.09091 77.5709 9.09091ZM93.4049 38.4091C91.7345 38.4091 90.2572 38.1364 88.9731 37.5909C87.7004 37.0341 86.7004 36.1932 85.9731 35.0682C85.2459 33.9432 84.8822 32.5114 84.8822 30.7727C84.8822 29.3409 85.1265 28.1193 85.6152 27.108C86.1038 26.0852 86.7856 25.25 87.6606 24.6023C88.5356 23.9545 89.5527 23.4602 90.7118 23.1193C91.8822 22.7784 93.1436 22.5568 94.4959 22.4545C95.9618 22.3409 97.1379 22.2045 98.0243 22.0455C98.922 21.875 99.5697 21.642 99.9674 21.3466C100.365 21.0398 100.564 20.6364 100.564 20.1364V20.0682C100.564 19.3864 100.303 18.8636 99.7799 18.5C99.2572 18.1364 98.5868 17.9545 97.7686 17.9545C96.8709 17.9545 96.1379 18.1534 95.5697 18.5511C95.0129 18.9375 94.6777 19.5341 94.564 20.3409H85.9049C86.0186 18.75 86.5243 17.2841 87.422 15.9432C88.3311 14.5909 89.6549 13.5114 91.3936 12.7045C93.1322 11.8864 95.3027 11.4773 97.9049 11.4773C99.7799 11.4773 101.462 11.6989 102.95 12.142C104.439 12.5739 105.706 13.1818 106.752 13.9659C107.797 14.7386 108.592 15.6477 109.138 16.6932C109.695 17.7273 109.973 18.8523 109.973 20.0682V38H101.178V34.3182H100.973C100.45 35.2955 99.814 36.0852 99.064 36.6875C98.3254 37.2898 97.4788 37.7273 96.5243 38C95.5811 38.2727 94.5413 38.4091 93.4049 38.4091ZM96.4731 32.4773C97.189 32.4773 97.8595 32.3295 98.4845 32.0341C99.1209 31.7386 99.6379 31.3125 100.036 30.7557C100.433 30.1989 100.632 29.5227 100.632 28.7273V26.5455C100.382 26.6477 100.115 26.7443 99.8311 26.8352C99.5584 26.9261 99.2629 27.0114 98.9447 27.0909C98.6379 27.1705 98.3084 27.2443 97.9561 27.3125C97.6152 27.3807 97.2572 27.4432 96.8822 27.5C96.1549 27.6136 95.5584 27.8011 95.0924 28.0625C94.6379 28.3125 94.297 28.625 94.0697 29C93.8538 29.3636 93.7459 29.7727 93.7459 30.2273C93.7459 30.9545 94.0015 31.5114 94.5129 31.8977C95.0243 32.2841 95.6777 32.4773 96.4731 32.4773ZM113.372 38V3.09091H122.782V16.3864H122.918C123.259 15.5 123.759 14.6875 124.418 13.9489C125.077 13.1989 125.895 12.6023 126.872 12.1591C127.85 11.7045 128.986 11.4773 130.282 11.4773C132.009 11.4773 133.651 11.9375 135.208 12.858C136.776 13.7784 138.049 15.2273 139.026 17.2045C140.015 19.1818 140.509 21.75 140.509 24.9091C140.509 27.9318 140.037 30.4375 139.094 32.4261C138.162 34.4148 136.912 35.8977 135.344 36.875C133.787 37.8523 132.077 38.3409 130.213 38.3409C128.986 38.3409 127.89 38.142 126.924 37.7443C125.969 37.3352 125.151 36.7841 124.469 36.0909C123.799 35.3864 123.282 34.5909 122.918 33.7045H122.713V38H113.372ZM122.577 24.9091C122.577 26.1818 122.742 27.2841 123.071 28.2159C123.412 29.1364 123.89 29.8523 124.503 30.3636C125.128 30.8636 125.872 31.1136 126.736 31.1136C127.6 31.1136 128.333 30.8693 128.935 30.3807C129.549 29.8807 130.015 29.1705 130.333 28.25C130.662 27.3182 130.827 26.2045 130.827 24.9091C130.827 23.6136 130.662 22.5057 130.333 21.5852C130.015 20.6534 129.549 19.9432 128.935 19.4545C128.333 18.9545 127.6 18.7045 126.736 18.7045C125.872 18.7045 125.128 18.9545 124.503 19.4545C123.89 19.9432 123.412 20.6534 123.071 21.5852C122.742 22.5057 122.577 23.6136 122.577 24.9091ZM152.895 3.09091V38H143.486V3.09091H152.895ZM169.275 38.4773C166.479 38.4773 164.07 37.9432 162.048 36.875C160.036 35.7955 158.485 34.25 157.394 32.2386C156.315 30.2159 155.775 27.7955 155.775 24.9773C155.775 22.2727 156.32 19.9091 157.411 17.8864C158.502 15.8636 160.042 14.2898 162.031 13.1648C164.019 12.0398 166.366 11.4773 169.07 11.4773C171.048 11.4773 172.837 11.7841 174.44 12.3977C176.042 13.0114 177.411 13.9034 178.548 15.0739C179.684 16.233 180.559 17.642 181.173 19.3011C181.786 20.9602 182.093 22.8295 182.093 24.9091V27.0909H158.707V21.9091H173.434C173.423 21.1591 173.229 20.5 172.854 19.9318C172.491 19.3523 171.997 18.9034 171.372 18.5852C170.758 18.2557 170.059 18.0909 169.275 18.0909C168.514 18.0909 167.815 18.2557 167.178 18.5852C166.542 18.9034 166.031 19.3466 165.644 19.9148C165.269 20.483 165.07 21.1477 165.048 21.9091V27.5C165.048 28.3409 165.224 29.0909 165.576 29.75C165.928 30.4091 166.434 30.9261 167.093 31.3011C167.752 31.6761 168.548 31.8636 169.479 31.8636C170.127 31.8636 170.718 31.7727 171.252 31.5909C171.798 31.4091 172.264 31.1477 172.65 30.8068C173.036 30.4545 173.32 30.0341 173.502 29.5455H182.093C181.798 31.3636 181.099 32.9432 179.997 34.2841C178.894 35.6136 177.434 36.6477 175.616 37.3864C173.809 38.1136 171.695 38.4773 169.275 38.4773Z" fill="url(#paint0_linear_8088_4887)"/>
<defs>
<linearGradient id="paint0_linear_8088_4887" x1="75.7947" y1="-8" x2="50.4445" y2="35.2006" gradientUnits="userSpaceOnUse">
<stop stop-color="#012A59"/>
<stop offset="1" stop-color="#B21450"/>
</linearGradient>
</defs>
</svg>
