 <svg
      xmlns="http://www.w3.org/2000/svg"
      width="32"
      height="33"
      fill="none"
      viewBox="0 0 32 33"
    >
      <path
        fill="#5E5E5E"
        d="M26.757 13.377l-18.9-9.453A4.049 4.049 0 002.35 9.191l3.24 7.251a1.432 1.432 0 010 1.108L2.35 24.8A4.052 4.052 0 006.049 30.5a4.238 4.238 0 001.822-.432l18.9-9.453a4.051 4.051 0 000-7.238h-.014zm-1.202 4.821L6.656 27.651a1.35 1.35 0 01-1.822-1.756l3.226-7.251c.042-.097.078-.196.108-.297h9.301a1.35 1.35 0 000-2.701h-9.3c-.031-.101-.067-.2-.109-.297L4.834 8.097a1.35 1.35 0 011.822-1.755l18.9 9.452a1.35 1.35 0 010 2.404z"
      ></path>
    </svg>