<svg width="370" height="77" viewBox="0 0 370 77" fill="none" xmlns="http://www.w3.org/2000/svg">
<g clip-path="url(#clip0_8088_4869)">
<g filter="url(#filter0_f_8088_4869)">
<path d="M127.034 32C126.943 30.8636 126.517 29.9773 125.756 29.3409C125.006 28.7045 123.864 28.3864 122.33 28.3864C121.352 28.3864 120.551 28.5057 119.926 28.7443C119.313 28.9716 118.858 29.2841 118.563 29.6818C118.267 30.0795 118.114 30.5341 118.102 31.0455C118.08 31.4659 118.153 31.8466 118.324 32.1875C118.506 32.517 118.79 32.8182 119.176 33.0909C119.563 33.3523 120.057 33.5909 120.659 33.8068C121.261 34.0227 121.977 34.2159 122.807 34.3864L125.67 35C127.602 35.4091 129.256 35.9489 130.631 36.6193C132.006 37.2898 133.131 38.0795 134.006 38.9886C134.881 39.8864 135.523 40.8977 135.932 42.0227C136.352 43.1477 136.568 44.375 136.58 45.7045C136.568 48 135.994 49.9432 134.858 51.5341C133.722 53.125 132.097 54.3352 129.983 55.1648C127.881 55.9943 125.352 56.4091 122.398 56.4091C119.364 56.4091 116.716 55.9602 114.455 55.0625C112.205 54.1648 110.455 52.7841 109.205 50.9205C107.966 49.0455 107.341 46.6477 107.33 43.7273H116.33C116.386 44.7955 116.653 45.6932 117.131 46.4205C117.608 47.1477 118.278 47.6989 119.142 48.0739C120.017 48.4489 121.057 48.6364 122.261 48.6364C123.273 48.6364 124.119 48.5114 124.801 48.2614C125.483 48.0114 126 47.6648 126.352 47.2216C126.705 46.7784 126.886 46.2727 126.898 45.7045C126.886 45.1705 126.71 44.7045 126.369 44.3068C126.04 43.8977 125.494 43.5341 124.733 43.2159C123.972 42.8864 122.943 42.5795 121.648 42.2955L118.17 41.5455C115.08 40.875 112.642 39.7557 110.858 38.1875C109.085 36.608 108.205 34.4545 108.216 31.7273C108.205 29.5114 108.795 27.5739 109.989 25.9148C111.193 24.2443 112.858 22.9432 114.983 22.0114C117.119 21.0795 119.568 20.6136 122.33 20.6136C125.148 20.6136 127.585 21.0852 129.642 22.0284C131.699 22.9716 133.284 24.3011 134.398 26.017C135.523 27.7216 136.091 29.7159 136.102 32H127.034ZM147.816 49.7955L147.884 38.6136H149.111L155.452 29.8182H166.02L155.384 43.5227H152.725L147.816 49.7955ZM139.361 56V21.0909H148.77V56H139.361ZM155.52 56L149.52 45.6364L155.657 38.9545L166.293 56H155.52ZM167.51 56V29.8182H176.92V56H167.51ZM172.215 27.0909C170.942 27.0909 169.851 26.6705 168.942 25.8295C168.033 24.9886 167.579 23.9773 167.579 22.7955C167.579 21.6136 168.033 20.6023 168.942 19.7614C169.851 18.9205 170.942 18.5 172.215 18.5C173.499 18.5 174.59 18.9205 175.488 19.7614C176.397 20.6023 176.851 21.6136 176.851 22.7955C176.851 23.9773 176.397 24.9886 175.488 25.8295C174.59 26.6705 173.499 27.0909 172.215 27.0909ZM190.163 21.0909V56H180.754V21.0909H190.163ZM203.406 21.0909V56H193.997V21.0909H203.406ZM219.785 56.4773C216.99 56.4773 214.581 55.9432 212.558 54.875C210.547 53.7955 208.995 52.25 207.905 50.2386C206.825 48.2159 206.285 45.7955 206.285 42.9773C206.285 40.2727 206.831 37.9091 207.922 35.8864C209.013 33.8636 210.552 32.2898 212.541 31.1648C214.53 30.0398 216.876 29.4773 219.581 29.4773C221.558 29.4773 223.348 29.7841 224.95 30.3977C226.552 31.0114 227.922 31.9034 229.058 33.0739C230.194 34.233 231.069 35.642 231.683 37.3011C232.297 38.9602 232.603 40.8295 232.603 42.9091V45.0909H209.217V39.9091H223.944C223.933 39.1591 223.74 38.5 223.365 37.9318C223.001 37.3523 222.507 36.9034 221.882 36.5852C221.268 36.2557 220.569 36.0909 219.785 36.0909C219.024 36.0909 218.325 36.2557 217.689 36.5852C217.052 36.9034 216.541 37.3466 216.155 37.9148C215.78 38.483 215.581 39.1477 215.558 39.9091V45.5C215.558 46.3409 215.734 47.0909 216.086 47.75C216.439 48.4091 216.944 48.9261 217.603 49.3011C218.263 49.6761 219.058 49.8636 219.99 49.8636C220.638 49.8636 221.228 49.7727 221.763 49.5909C222.308 49.4091 222.774 49.1477 223.16 48.8068C223.547 48.4545 223.831 48.0341 224.013 47.5455H232.603C232.308 49.3636 231.609 50.9432 230.507 52.2841C229.405 53.6136 227.944 54.6477 226.126 55.3864C224.319 56.1136 222.206 56.4773 219.785 56.4773ZM244.96 56.3409C243.097 56.3409 241.381 55.8523 239.812 54.875C238.256 53.8977 237.006 52.4148 236.062 50.4261C235.131 48.4375 234.665 45.9318 234.665 42.9091C234.665 39.75 235.153 37.1818 236.131 35.2045C237.119 33.2273 238.392 31.7784 239.949 30.858C241.517 29.9375 243.165 29.4773 244.892 29.4773C246.187 29.4773 247.324 29.7045 248.301 30.1591C249.278 30.6023 250.097 31.1989 250.756 31.9489C251.415 32.6875 251.915 33.5 252.256 34.3864H252.392V21.0909H261.801V56H252.46V51.7045H252.256C251.892 52.5909 251.369 53.3864 250.687 54.0909C250.017 54.7841 249.199 55.3352 248.233 55.7443C247.278 56.142 246.187 56.3409 244.96 56.3409ZM248.437 49.1136C249.301 49.1136 250.04 48.8636 250.653 48.3636C251.278 47.8523 251.756 47.1364 252.085 46.2159C252.426 45.2841 252.597 44.1818 252.597 42.9091C252.597 41.6136 252.426 40.5057 252.085 39.5852C251.756 38.6534 251.278 37.9432 250.653 37.4545C250.04 36.9545 249.301 36.7045 248.437 36.7045C247.574 36.7045 246.835 36.9545 246.222 37.4545C245.619 37.9432 245.153 38.6534 244.824 39.5852C244.506 40.5057 244.347 41.6136 244.347 42.9091C244.347 44.2045 244.506 45.3182 244.824 46.25C245.153 47.1705 245.619 47.8807 246.222 48.3807C246.835 48.8693 247.574 49.1136 248.437 49.1136Z" fill="url(#paint0_linear_8088_4869)"/>
</g>
<path d="M127.034 32C126.943 30.8636 126.517 29.9773 125.756 29.3409C125.006 28.7045 123.864 28.3864 122.33 28.3864C121.352 28.3864 120.551 28.5057 119.926 28.7443C119.313 28.9716 118.858 29.2841 118.563 29.6818C118.267 30.0795 118.114 30.5341 118.102 31.0455C118.08 31.4659 118.153 31.8466 118.324 32.1875C118.506 32.517 118.79 32.8182 119.176 33.0909C119.563 33.3523 120.057 33.5909 120.659 33.8068C121.261 34.0227 121.977 34.2159 122.807 34.3864L125.67 35C127.602 35.4091 129.256 35.9489 130.631 36.6193C132.006 37.2898 133.131 38.0795 134.006 38.9886C134.881 39.8864 135.523 40.8977 135.932 42.0227C136.352 43.1477 136.568 44.375 136.58 45.7045C136.568 48 135.994 49.9432 134.858 51.5341C133.722 53.125 132.097 54.3352 129.983 55.1648C127.881 55.9943 125.352 56.4091 122.398 56.4091C119.364 56.4091 116.716 55.9602 114.455 55.0625C112.205 54.1648 110.455 52.7841 109.205 50.9205C107.966 49.0455 107.341 46.6477 107.33 43.7273H116.33C116.386 44.7955 116.653 45.6932 117.131 46.4205C117.608 47.1477 118.278 47.6989 119.142 48.0739C120.017 48.4489 121.057 48.6364 122.261 48.6364C123.273 48.6364 124.119 48.5114 124.801 48.2614C125.483 48.0114 126 47.6648 126.352 47.2216C126.705 46.7784 126.886 46.2727 126.898 45.7045C126.886 45.1705 126.71 44.7045 126.369 44.3068C126.04 43.8977 125.494 43.5341 124.733 43.2159C123.972 42.8864 122.943 42.5795 121.648 42.2955L118.17 41.5455C115.08 40.875 112.642 39.7557 110.858 38.1875C109.085 36.608 108.205 34.4545 108.216 31.7273C108.205 29.5114 108.795 27.5739 109.989 25.9148C111.193 24.2443 112.858 22.9432 114.983 22.0114C117.119 21.0795 119.568 20.6136 122.33 20.6136C125.148 20.6136 127.585 21.0852 129.642 22.0284C131.699 22.9716 133.284 24.3011 134.398 26.017C135.523 27.7216 136.091 29.7159 136.102 32H127.034ZM147.816 49.7955L147.884 38.6136H149.111L155.452 29.8182H166.02L155.384 43.5227H152.725L147.816 49.7955ZM139.361 56V21.0909H148.77V56H139.361ZM155.52 56L149.52 45.6364L155.657 38.9545L166.293 56H155.52ZM167.51 56V29.8182H176.92V56H167.51ZM172.215 27.0909C170.942 27.0909 169.851 26.6705 168.942 25.8295C168.033 24.9886 167.579 23.9773 167.579 22.7955C167.579 21.6136 168.033 20.6023 168.942 19.7614C169.851 18.9205 170.942 18.5 172.215 18.5C173.499 18.5 174.59 18.9205 175.488 19.7614C176.397 20.6023 176.851 21.6136 176.851 22.7955C176.851 23.9773 176.397 24.9886 175.488 25.8295C174.59 26.6705 173.499 27.0909 172.215 27.0909ZM190.163 21.0909V56H180.754V21.0909H190.163ZM203.406 21.0909V56H193.997V21.0909H203.406ZM219.785 56.4773C216.99 56.4773 214.581 55.9432 212.558 54.875C210.547 53.7955 208.995 52.25 207.905 50.2386C206.825 48.2159 206.285 45.7955 206.285 42.9773C206.285 40.2727 206.831 37.9091 207.922 35.8864C209.013 33.8636 210.552 32.2898 212.541 31.1648C214.53 30.0398 216.876 29.4773 219.581 29.4773C221.558 29.4773 223.348 29.7841 224.95 30.3977C226.552 31.0114 227.922 31.9034 229.058 33.0739C230.194 34.233 231.069 35.642 231.683 37.3011C232.297 38.9602 232.603 40.8295 232.603 42.9091V45.0909H209.217V39.9091H223.944C223.933 39.1591 223.74 38.5 223.365 37.9318C223.001 37.3523 222.507 36.9034 221.882 36.5852C221.268 36.2557 220.569 36.0909 219.785 36.0909C219.024 36.0909 218.325 36.2557 217.689 36.5852C217.052 36.9034 216.541 37.3466 216.155 37.9148C215.78 38.483 215.581 39.1477 215.558 39.9091V45.5C215.558 46.3409 215.734 47.0909 216.086 47.75C216.439 48.4091 216.944 48.9261 217.603 49.3011C218.263 49.6761 219.058 49.8636 219.99 49.8636C220.638 49.8636 221.228 49.7727 221.763 49.5909C222.308 49.4091 222.774 49.1477 223.16 48.8068C223.547 48.4545 223.831 48.0341 224.013 47.5455H232.603C232.308 49.3636 231.609 50.9432 230.507 52.2841C229.405 53.6136 227.944 54.6477 226.126 55.3864C224.319 56.1136 222.206 56.4773 219.785 56.4773ZM244.96 56.3409C243.097 56.3409 241.381 55.8523 239.812 54.875C238.256 53.8977 237.006 52.4148 236.062 50.4261C235.131 48.4375 234.665 45.9318 234.665 42.9091C234.665 39.75 235.153 37.1818 236.131 35.2045C237.119 33.2273 238.392 31.7784 239.949 30.858C241.517 29.9375 243.165 29.4773 244.892 29.4773C246.187 29.4773 247.324 29.7045 248.301 30.1591C249.278 30.6023 250.097 31.1989 250.756 31.9489C251.415 32.6875 251.915 33.5 252.256 34.3864H252.392V21.0909H261.801V56H252.46V51.7045H252.256C251.892 52.5909 251.369 53.3864 250.687 54.0909C250.017 54.7841 249.199 55.3352 248.233 55.7443C247.278 56.142 246.187 56.3409 244.96 56.3409ZM248.437 49.1136C249.301 49.1136 250.04 48.8636 250.653 48.3636C251.278 47.8523 251.756 47.1364 252.085 46.2159C252.426 45.2841 252.597 44.1818 252.597 42.9091C252.597 41.6136 252.426 40.5057 252.085 39.5852C251.756 38.6534 251.278 37.9432 250.653 37.4545C250.04 36.9545 249.301 36.7045 248.437 36.7045C247.574 36.7045 246.835 36.9545 246.222 37.4545C245.619 37.9432 245.153 38.6534 244.824 39.5852C244.506 40.5057 244.347 41.6136 244.347 42.9091C244.347 44.2045 244.506 45.3182 244.824 46.25C245.153 47.1705 245.619 47.8807 246.222 48.3807C246.835 48.8693 247.574 49.1136 248.437 49.1136Z" fill="url(#paint1_linear_8088_4869)"/>
</g>
<defs>
<filter id="filter0_f_8088_4869" x="103.33" y="14.5" width="162.472" height="45.9773" filterUnits="userSpaceOnUse" color-interpolation-filters="sRGB">
<feFlood flood-opacity="0" result="BackgroundImageFix"/>
<feBlend mode="normal" in="SourceGraphic" in2="BackgroundImageFix" result="shape"/>
<feGaussianBlur stdDeviation="2" result="effect1_foregroundBlur_8088_4869"/>
</filter>
<linearGradient id="paint0_linear_8088_4869" x1="172.002" y1="10" x2="144.904" y2="49.475" gradientUnits="userSpaceOnUse">
<stop stop-color="#012A59"/>
<stop offset="1" stop-color="#B21450"/>
</linearGradient>
<linearGradient id="paint1_linear_8088_4869" x1="172.002" y1="10" x2="144.904" y2="49.475" gradientUnits="userSpaceOnUse">
<stop stop-color="#012A59"/>
<stop offset="1" stop-color="#B21450"/>
</linearGradient>
<clipPath id="clip0_8088_4869">
<rect width="370" height="77" fill="white"/>
</clipPath>
</defs>
</svg>
