<svg width="275" height="39" viewBox="0 0 275 39" fill="none" xmlns="http://www.w3.org/2000/svg">
<path d="M0.704833 10.7273V3.09091H31.0457V10.7273H20.5457V38H11.2048V10.7273H0.704833ZM42.5374 38.4773C39.742 38.4773 37.3329 37.9432 35.3102 36.875C33.2988 35.7955 31.7477 34.25 30.6568 32.2386C29.5772 30.2159 29.0374 27.7955 29.0374 24.9773C29.0374 22.2727 29.5829 19.9091 30.6738 17.8864C31.7647 15.8636 33.3045 14.2898 35.2931 13.1648C37.2818 12.0398 39.6284 11.4773 42.3329 11.4773C44.3102 11.4773 46.0999 11.7841 47.7022 12.3977C49.3045 13.0114 50.6738 13.9034 51.8102 15.0739C52.9465 16.233 53.8215 17.642 54.4352 19.3011C55.0488 20.9602 55.3556 22.8295 55.3556 24.9091V27.0909H31.9693V21.9091H46.6965C46.6852 21.1591 46.492 20.5 46.117 19.9318C45.7534 19.3523 45.259 18.9034 44.634 18.5852C44.0204 18.2557 43.3215 18.0909 42.5374 18.0909C41.7761 18.0909 41.0772 18.2557 40.4409 18.5852C39.8045 18.9034 39.2931 19.3466 38.9068 19.9148C38.5318 20.483 38.3329 21.1477 38.3102 21.9091V27.5C38.3102 28.3409 38.4863 29.0909 38.8386 29.75C39.1909 30.4091 39.6965 30.9261 40.3556 31.3011C41.0147 31.6761 41.8102 31.8636 42.742 31.8636C43.3897 31.8636 43.9806 31.7727 44.5147 31.5909C45.0602 31.4091 45.5261 31.1477 45.9124 30.8068C46.2988 30.4545 46.5829 30.0341 46.7647 29.5455H55.3556C55.0602 31.3636 54.3613 32.9432 53.259 34.2841C52.1568 35.6136 50.6965 36.6477 48.8784 37.3864C47.0715 38.1136 44.9579 38.4773 42.5374 38.4773ZM70.8488 38.4773C68.0078 38.4773 65.576 37.9148 63.5533 36.7898C61.5306 35.6534 59.9794 34.0739 58.8999 32.0511C57.8203 30.017 57.2806 27.6591 57.2806 24.9773C57.2806 22.2955 57.8203 19.9432 58.8999 17.9205C59.9794 15.8864 61.5306 14.3068 63.5533 13.1818C65.576 12.0455 68.0078 11.4773 70.8488 11.4773C73.4169 11.4773 75.6385 11.9432 77.5135 12.875C79.3999 13.7955 80.8601 15.1023 81.8942 16.7955C82.9283 18.4773 83.451 20.4545 83.4624 22.7273H74.7351C74.6101 21.3523 74.2124 20.3068 73.5419 19.5909C72.8828 18.8636 72.0306 18.5 70.9851 18.5C70.1669 18.5 69.451 18.7386 68.8374 19.2159C68.2238 19.6818 67.7465 20.392 67.4056 21.3466C67.0647 22.2898 66.8942 23.4773 66.8942 24.9091C66.8942 26.3409 67.0647 27.5341 67.4056 28.4886C67.7465 29.4318 68.2238 30.142 68.8374 30.6193C69.451 31.0852 70.1669 31.3182 70.9851 31.3182C71.6783 31.3182 72.2919 31.1591 72.826 30.8409C73.3601 30.5114 73.7919 30.0341 74.1215 29.4091C74.4624 28.7727 74.6669 28 74.7351 27.0909H83.4624C83.4283 29.3977 82.8999 31.4091 81.8772 33.125C80.8544 34.8295 79.4056 36.1477 77.5306 37.0795C75.6669 38.0114 73.4397 38.4773 70.8488 38.4773ZM95.7936 23.2727V38H86.3845V3.09091H95.4527V16.7955H95.7254C96.3163 15.125 97.2993 13.8239 98.6743 12.892C100.049 11.9489 101.703 11.4773 103.634 11.4773C105.487 11.4773 107.095 11.8977 108.458 12.7386C109.833 13.5795 110.896 14.7386 111.646 16.2159C112.407 17.6932 112.782 19.3864 112.771 21.2955V38H103.362V23.2727C103.373 21.9773 103.049 20.9602 102.39 20.2216C101.742 19.483 100.816 19.1136 99.6118 19.1136C98.8504 19.1136 98.1799 19.2841 97.6004 19.625C97.0322 19.9545 96.589 20.4318 96.2709 21.0568C95.964 21.6705 95.8049 22.4091 95.7936 23.2727ZM138.354 38H124.922V3.09091H138.217C141.808 3.09091 144.911 3.78977 147.524 5.1875C150.149 6.57386 152.172 8.57386 153.592 11.1875C155.024 13.7898 155.74 16.9091 155.74 20.5455C155.74 24.1818 155.03 27.3068 153.609 29.9205C152.189 32.5227 150.178 34.5227 147.575 35.9205C144.973 37.3068 141.899 38 138.354 38ZM134.399 29.9545H138.013C139.74 29.9545 141.212 29.6761 142.428 29.1193C143.655 28.5625 144.587 27.6023 145.223 26.2386C145.871 24.875 146.195 22.9773 146.195 20.5455C146.195 18.1136 145.865 16.2159 145.206 14.8523C144.558 13.4886 143.604 12.5284 142.342 11.9716C141.092 11.4148 139.558 11.1364 137.74 11.1364H134.399V29.9545ZM159.301 38V11.8182H168.438V16.7955H168.71C169.188 14.9545 169.943 13.608 170.978 12.7557C172.023 11.9034 173.245 11.4773 174.642 11.4773C175.051 11.4773 175.455 11.5114 175.853 11.5795C176.262 11.6364 176.654 11.7216 177.029 11.8352V19.8636C176.563 19.7045 175.989 19.5852 175.307 19.5057C174.625 19.4261 174.04 19.3864 173.551 19.3864C172.631 19.3864 171.801 19.5966 171.063 20.017C170.335 20.4261 169.762 21.0057 169.341 21.7557C168.921 22.4943 168.71 23.3636 168.71 24.3636V38H159.301ZM179.154 38V11.8182H188.563V38H179.154ZM183.858 9.09091C182.586 9.09091 181.495 8.67045 180.586 7.82955C179.677 6.98864 179.222 5.97727 179.222 4.79545C179.222 3.61364 179.677 2.60227 180.586 1.76136C181.495 0.920454 182.586 0.5 183.858 0.5C185.143 0.5 186.233 0.920454 187.131 1.76136C188.04 2.60227 188.495 3.61364 188.495 4.79545C188.495 5.97727 188.04 6.98864 187.131 7.82955C186.233 8.67045 185.143 9.09091 183.858 9.09091ZM218.783 11.8182L209.988 38H199.079L190.283 11.8182H200.17L204.397 29.1364H204.67L208.897 11.8182H218.783ZM232.248 38.4773C229.453 38.4773 227.044 37.9432 225.021 36.875C223.009 35.7955 221.458 34.25 220.367 32.2386C219.288 30.2159 218.748 27.7955 218.748 24.9773C218.748 22.2727 219.294 19.9091 220.384 17.8864C221.475 15.8636 223.015 14.2898 225.004 13.1648C226.992 12.0398 229.339 11.4773 232.044 11.4773C234.021 11.4773 235.811 11.7841 237.413 12.3977C239.015 13.0114 240.384 13.9034 241.521 15.0739C242.657 16.233 243.532 17.642 244.146 19.3011C244.759 20.9602 245.066 22.8295 245.066 24.9091V27.0909H221.68V21.9091H236.407C236.396 21.1591 236.203 20.5 235.828 19.9318C235.464 19.3523 234.97 18.9034 234.345 18.5852C233.731 18.2557 233.032 18.0909 232.248 18.0909C231.487 18.0909 230.788 18.2557 230.151 18.5852C229.515 18.9034 229.004 19.3466 228.617 19.9148C228.242 20.483 228.044 21.1477 228.021 21.9091V27.5C228.021 28.3409 228.197 29.0909 228.549 29.75C228.901 30.4091 229.407 30.9261 230.066 31.3011C230.725 31.6761 231.521 31.8636 232.453 31.8636C233.1 31.8636 233.691 31.7727 234.225 31.5909C234.771 31.4091 235.237 31.1477 235.623 30.8068C236.009 30.4545 236.294 30.0341 236.475 29.5455H245.066C244.771 31.3636 244.072 32.9432 242.97 34.2841C241.867 35.6136 240.407 36.6477 238.589 37.3864C236.782 38.1136 234.669 38.4773 232.248 38.4773ZM257.355 23.2727V38H247.946V11.8182H256.878V16.7955H257.15C257.718 15.1364 258.718 13.8352 260.15 12.892C261.593 11.9489 263.275 11.4773 265.196 11.4773C267.048 11.4773 268.656 11.9034 270.02 12.7557C271.395 13.5966 272.457 14.7557 273.207 16.233C273.968 17.7102 274.343 19.3977 274.332 21.2955V38H264.923V23.2727C264.934 21.9773 264.605 20.9602 263.934 20.2216C263.275 19.483 262.355 19.1136 261.173 19.1136C260.4 19.1136 259.724 19.2841 259.145 19.625C258.576 19.9545 258.139 20.4318 257.832 21.0568C257.525 21.6705 257.366 22.4091 257.355 23.2727Z" fill="url(#paint0_linear_8088_4901)"/>
<defs>
<linearGradient id="paint0_linear_8088_4901" x1="115.274" y1="-8" x2="95.5178" y2="42.3197" gradientUnits="userSpaceOnUse">
<stop stop-color="#012A59"/>
<stop offset="1" stop-color="#B21450"/>
</linearGradient>
</defs>
</svg>
