<svg width="144" height="27" viewBox="0 0 144 27" fill="none" xmlns="http://www.w3.org/2000/svg">
<path d="M48.0434 4.52693V0.37207H35.867H30.8857V4.52693V10.5307V14.4259V22.1851V26.34H35.867H48.0434V22.1851H35.867V14.4259H46.9364V10.5307H35.867V4.52693H48.0434Z" fill="#1A3C85"/>
<path d="M15.8348 15.623C19.3383 14.374 21.2229 11.6577 21.2229 8.36758C21.2229 4.00757 17.902 0.652525 11.8996 0.39025V0.37207H0V26.34H4.98125V16.3657H10.6128L18.486 26.34H24.2974L15.8348 15.623ZM11.1303 12.4705H4.98677V4.26725H11.1497C14.429 4.29322 16.2472 6.05385 16.2472 8.36499C16.2472 10.6761 14.429 12.4368 11.1497 12.4653L11.1303 12.4705Z" fill="#1A3C85"/>
<path d="M66.848 0.37207H57.2979V26.34H66.848C74.735 26.34 81.0667 20.7543 81.0667 13.356C81.0667 5.95776 74.735 0.37207 66.848 0.37207ZM66.848 22.1851H62.2791V4.52693H66.848C72.2776 4.52693 76.1076 8.50521 76.1076 13.356C76.1076 18.2068 72.3163 22.1851 66.848 22.1851Z" fill="#1A3C85"/>
<path d="M105.779 0.37207V16.0177C105.779 20.4323 103.264 22.8343 99.5525 22.8343C95.8415 22.8343 93.3259 20.4375 93.3259 16.0177V0.37207H88.3447V16.0177C88.3447 22.8836 93.2734 26.8593 99.5525 26.8593C105.832 26.8593 110.76 22.8836 110.76 16.0177V0.37207H105.779Z" fill="#1A3C85"/>
<path d="M144.001 26.34L133.07 12.4783L130.28 8.94147L130.164 8.79346H135.975L142.617 0.37207H136.806L130.164 8.79346L123.522 0.37207H117.711L127.258 12.4783L116.327 26.34H122.139L130.164 16.1631L138.189 26.34H144.001Z" fill="#1A3C85"/>
</svg>
