<svg width="90" height="90" viewBox="0 0 90 90" fill="none" xmlns="http://www.w3.org/2000/svg">
<circle cx="45" cy="45" r="44.5" fill="#E5E6EB" stroke="#A9A9A9" stroke-dasharray="3 3"/>
<path d="M45 36.3332C43.8507 36.3332 42.7485 36.7897 41.9359 37.6024C41.1232 38.415 40.6667 39.5172 40.6667 40.6665C40.6667 41.8158 41.1232 42.918 41.9359 43.7306C42.7485 44.5433 43.8507 44.9998 45 44.9998C46.1493 44.9998 47.2515 44.5433 48.0641 43.7306C48.8768 42.918 49.3333 41.8158 49.3333 40.6665C49.3333 39.5172 48.8768 38.415 48.0641 37.6024C47.2515 36.7897 46.1493 36.3332 45 36.3332ZM38.5 40.6665C38.5 38.9426 39.1848 37.2893 40.4038 36.0703C41.6228 34.8513 43.2761 34.1665 45 34.1665C46.7239 34.1665 48.3772 34.8513 49.5962 36.0703C50.8152 37.2893 51.5 38.9426 51.5 40.6665C51.5 42.3904 50.8152 44.0437 49.5962 45.2627C48.3772 46.4817 46.7239 47.1665 45 47.1665C43.2761 47.1665 41.6228 46.4817 40.4038 45.2627C39.1848 44.0437 38.5 42.3904 38.5 40.6665ZM40.6667 51.4998C39.8047 51.4998 38.9781 51.8422 38.3686 52.4517C37.7591 53.0612 37.4167 53.8879 37.4167 54.7498C37.4167 55.0372 37.3025 55.3127 37.0994 55.5159C36.8962 55.719 36.6207 55.8332 36.3333 55.8332C36.046 55.8332 35.7705 55.719 35.5673 55.5159C35.3641 55.3127 35.25 55.0372 35.25 54.7498C35.25 53.3132 35.8207 51.9355 36.8365 50.9197C37.8523 49.9039 39.2301 49.3332 40.6667 49.3332H49.3333C50.7699 49.3332 52.1477 49.9039 53.1635 50.9197C54.1793 51.9355 54.75 53.3132 54.75 54.7498C54.75 55.0372 54.6359 55.3127 54.4327 55.5159C54.2295 55.719 53.954 55.8332 53.6667 55.8332C53.3793 55.8332 53.1038 55.719 52.9006 55.5159C52.6975 55.3127 52.5833 55.0372 52.5833 54.7498C52.5833 53.8879 52.2409 53.0612 51.6314 52.4517C51.0219 51.8422 50.1953 51.4998 49.3333 51.4998H40.6667Z" fill="#012A59"/>
</svg>
