<svg width="16" height="59" viewBox="0 0 16 59" fill="none" xmlns="http://www.w3.org/2000/svg">
<path d="M7.2929 58.7071C7.68342 59.0976 8.31659 59.0976 8.70711 58.7071L15.0711 52.3431C15.4616 51.9526 15.4616 51.3195 15.0711 50.9289C14.6805 50.5384 14.0474 50.5384 13.6569 50.9289L8 56.5858L2.34315 50.9289C1.95262 50.5384 1.31946 50.5384 0.928934 50.9289C0.53841 51.3195 0.53841 51.9526 0.928934 52.3431L7.2929 58.7071ZM7 4.37114e-08L7 2.9L9 2.9L9 -4.37114e-08L7 4.37114e-08ZM7 8.7L7 14.5L9 14.5L9 8.7L7 8.7ZM7 20.3L7 26.1L9 26.1L9 20.3L7 20.3ZM7 31.9L7 37.7L9 37.7L9 31.9L7 31.9ZM7 43.5L7 49.3L9 49.3L9 43.5L7 43.5ZM7 55.1L7 58L9 58L9 55.1L7 55.1Z" fill="#012A59" fill-opacity="0.4"/>
</svg>
