<svg width="26" height="19" viewBox="0 0 26 19" fill="none" xmlns="http://www.w3.org/2000/svg">
<path d="M17.6119 10.306C17.6119 11.2445 17.7292 11.7137 17.9639 11.7137C17.9639 11.7137 18.0812 11.6434 18.3158 11.5026C18.5035 11.3618 18.7616 11.221 19.0901 11.0802C19.4186 10.8925 19.7705 10.7987 20.1459 10.7987C21.3191 10.7987 22.2576 11.1037 22.9615 11.7137C23.7123 12.3238 24.0878 13.1685 24.0878 14.2478C24.0878 15.2332 23.7827 16.0075 23.1727 16.5706C22.6096 17.1337 22.1168 17.4622 21.6945 17.5561C21.2722 17.603 20.8733 17.6265 20.4979 17.6265C18.5739 17.6265 16.9549 17.0399 15.641 15.8667C14.3271 14.6466 13.6701 13.0746 13.6701 11.1506C13.6701 6.97419 16.8142 3.92398 23.1023 2V4.74519C21.8353 4.88597 20.5917 5.51947 19.3717 6.64571C18.1985 7.72501 17.6119 8.9451 17.6119 10.306ZM4.94181 10.306C4.94181 11.2445 5.05913 11.7137 5.29376 11.7137L5.64571 11.5026C5.83341 11.3618 6.09151 11.221 6.41999 11.0802C6.74848 10.8925 7.10042 10.7987 7.47583 10.7987C8.64899 10.7987 9.58752 11.1037 10.2914 11.7137C11.0422 12.3238 11.4176 13.1685 11.4176 14.2478C11.4176 15.2332 11.1126 16.0075 10.5026 16.5706C9.93946 17.1337 9.44674 17.4622 9.0244 17.5561C8.60206 17.603 8.20319 17.6265 7.82778 17.6265C5.9038 17.6265 4.28484 17.0399 2.97091 15.8667C1.65697 14.6466 1 13.0746 1 11.1506C1 6.97419 4.14406 3.92398 10.4322 2V4.74519C9.16518 4.88597 7.92163 5.51947 6.70155 6.64571C5.52839 7.72501 4.94181 8.9451 4.94181 10.306Z" fill="url(#paint0_linear_8521_7037)" stroke="url(#paint1_linear_8521_7037)" stroke-width="1.95526"/>
<defs>
<linearGradient id="paint0_linear_8521_7037" x1="15.1092" y1="2" x2="13.2077" y2="19.6944" gradientUnits="userSpaceOnUse">
<stop stop-color="#012A59"/>
<stop offset="1" stop-color="#B21450"/>
</linearGradient>
<linearGradient id="paint1_linear_8521_7037" x1="15.1092" y1="2" x2="13.2077" y2="19.6944" gradientUnits="userSpaceOnUse">
<stop stop-color="#012A59"/>
<stop offset="1" stop-color="#B21450"/>
</linearGradient>
</defs>
</svg>
