<svg width="440" height="208" viewBox="0 0 440 208" fill="none" xmlns="http://www.w3.org/2000/svg">
<path d="M0 12C0 5.37258 5.37258 0 12 0H428C434.627 0 440 5.37258 440 12V208H0V12Z" fill="#1F1F1F"/>
<path d="M0 175L440 132V208H0V175Z" fill="#474747"/>
<path d="M12 20C12 15.5817 15.5817 12 20 12H420C424.418 12 428 15.5817 428 20V208H12V20Z" fill="#F7F7F7"/>
<path d="M52.7441 93V85.3464H55.8374C55.9118 85.3464 56.004 85.3499 56.1138 85.357C56.2237 85.3606 56.3282 85.3712 56.4274 85.3889C56.8526 85.4562 57.2069 85.6015 57.4904 85.8247C57.7774 86.048 57.9918 86.3297 58.1335 86.6698C58.2753 87.01 58.3461 87.3856 58.3461 87.7966C58.3461 88.2112 58.2753 88.5885 58.1335 88.9287C57.9918 89.2689 57.7774 89.5506 57.4904 89.7738C57.2069 89.997 56.8526 90.1423 56.4274 90.2096C56.3282 90.2238 56.2219 90.2344 56.1085 90.2415C55.9987 90.2486 55.9083 90.2521 55.8374 90.2521H53.8549V93H52.7441ZM53.8549 89.1998H55.7949C55.8658 89.1998 55.9437 89.1962 56.0288 89.1891C56.1174 89.182 56.2006 89.1696 56.2786 89.1519C56.5054 89.0988 56.6878 89.0013 56.826 88.8596C56.9642 88.7143 57.0634 88.5478 57.1237 88.36C57.1839 88.1722 57.214 87.9844 57.214 87.7966C57.214 87.6088 57.1839 87.4228 57.1237 87.2385C57.0634 87.0507 56.9642 86.886 56.826 86.7442C56.6878 86.599 56.5054 86.4997 56.2786 86.4466C56.2006 86.4253 56.1174 86.4112 56.0288 86.4041C55.9437 86.397 55.8658 86.3934 55.7949 86.3934H53.8549V89.1998ZM59.4086 93V87.2598H60.3972V88.6523L60.259 88.4716C60.3299 88.2874 60.422 88.119 60.5354 87.9667C60.6488 87.8108 60.7799 87.6832 60.9287 87.584C61.074 87.4777 61.2352 87.3962 61.4124 87.3395C61.5931 87.2793 61.7774 87.2438 61.9651 87.2332C62.1529 87.219 62.3337 87.2279 62.5073 87.2598V88.3015C62.3195 88.2519 62.1104 88.2377 61.8801 88.259C61.6533 88.2803 61.4443 88.3529 61.2529 88.4769C61.0722 88.5939 60.9287 88.7356 60.8224 88.9021C60.7197 89.0687 60.6453 89.2547 60.5992 89.4602C60.5531 89.6622 60.5301 89.8765 60.5301 90.1033V93H59.4086ZM65.9084 93.1595C65.3344 93.1595 64.8365 93.0301 64.4149 92.7715C63.9932 92.5128 63.6672 92.1567 63.4369 91.7031C63.2101 91.246 63.0967 90.7199 63.0967 90.1246C63.0967 89.5258 63.2137 88.9996 63.4475 88.546C63.6814 88.0889 64.0092 87.7346 64.4308 87.483C64.8525 87.2279 65.345 87.1003 65.9084 87.1003C66.4824 87.1003 66.9802 87.2297 67.4019 87.4883C67.8236 87.747 68.1496 88.1031 68.3799 88.5567C68.6102 89.0102 68.7253 89.5328 68.7253 90.1246C68.7253 90.7234 68.6084 91.2514 68.3746 91.7085C68.1442 92.162 67.8182 92.5181 67.3966 92.7768C66.9749 93.0319 66.4789 93.1595 65.9084 93.1595ZM65.9084 92.1124C66.4576 92.1124 66.8669 91.9281 67.1362 91.5596C67.409 91.1876 67.5454 90.7092 67.5454 90.1246C67.5454 89.5258 67.4072 89.0474 67.1308 88.6895C66.858 88.3281 66.4505 88.1474 65.9084 88.1474C65.5363 88.1474 65.2298 88.2324 64.9889 88.4025C64.7479 88.5691 64.569 88.8011 64.4521 89.0988C64.3351 89.3929 64.2767 89.7348 64.2767 90.1246C64.2767 90.7269 64.4149 91.2088 64.6913 91.5703C64.9676 91.9317 65.3733 92.1124 65.9084 92.1124ZM70.4195 93V87.0578C70.4195 86.9125 70.4248 86.7584 70.4354 86.5954C70.4461 86.4289 70.4762 86.2659 70.5258 86.1064C70.579 85.9434 70.6658 85.7946 70.7862 85.66C70.9315 85.5005 71.091 85.3871 71.2646 85.3198C71.4382 85.2525 71.6101 85.2135 71.7801 85.2029C71.9538 85.1922 72.1132 85.1869 72.2585 85.1869H72.9813V86.1011H72.3116C72.0494 86.1011 71.8528 86.1667 71.7217 86.2978C71.5941 86.4253 71.5303 86.6078 71.5303 86.8452V93H70.4195ZM69.4681 88.1527V87.2598H72.9813V88.1527H69.4681ZM74.0975 86.319V85.2401H75.2083V86.319H74.0975ZM74.0975 93V87.2598H75.2083V93H74.0975ZM76.9133 93V85.1869H78.0241V93H76.9133ZM82.1661 93.1595C81.5956 93.1595 81.0942 93.0354 80.6619 92.7874C80.2332 92.5358 79.8984 92.1868 79.6574 91.7403C79.42 91.2903 79.3013 90.7695 79.3013 90.1777C79.3013 89.5506 79.4182 89.0067 79.6521 88.546C79.8895 88.0854 80.219 87.7293 80.6407 87.4777C81.0623 87.2261 81.5531 87.1003 82.1129 87.1003C82.6976 87.1003 83.1954 87.2368 83.6065 87.5096C84.0175 87.7789 84.324 88.1633 84.526 88.663C84.7315 89.1626 84.813 89.7561 84.7705 90.4435H83.6596V90.0395C83.6525 89.3734 83.525 88.8809 83.2769 88.562C83.0324 88.2431 82.6586 88.0836 82.1555 88.0836C81.5992 88.0836 81.181 88.259 80.9011 88.6098C80.6212 88.9606 80.4812 89.4673 80.4812 90.1299C80.4812 90.7606 80.6212 91.2496 80.9011 91.5968C81.181 91.9405 81.585 92.1124 82.1129 92.1124C82.4602 92.1124 82.7596 92.0344 83.0112 91.8785C83.2663 91.7191 83.4647 91.4923 83.6065 91.1982L84.696 91.5437C84.4728 92.0575 84.1344 92.4561 83.6809 92.7396C83.2273 93.0195 82.7224 93.1595 82.1661 93.1595ZM80.1198 90.4435V89.5771H84.2177V90.4435H80.1198ZM90.7857 93.1595C90.2365 93.1595 89.7759 93.0266 89.4038 92.7608C89.0318 92.4915 88.7501 92.1283 88.5587 91.6712C88.3674 91.2142 88.2717 90.6986 88.2717 90.1246C88.2717 89.5506 88.3656 89.035 88.5534 88.5779C88.7447 88.1208 89.0247 87.7612 89.3932 87.499C89.7652 87.2332 90.2223 87.1003 90.7645 87.1003C91.303 87.1003 91.7672 87.2332 92.157 87.499C92.5503 87.7612 92.8533 88.1208 93.0659 88.5779C93.2785 89.0315 93.3848 89.547 93.3848 90.1246C93.3848 90.6986 93.2785 91.2159 93.0659 91.6766C92.8568 92.1337 92.5574 92.4951 92.1676 92.7608C91.7814 93.0266 91.3208 93.1595 90.7857 93.1595ZM88.0857 95.5512V87.2598H89.0743V91.3896H89.2018V95.5512H88.0857ZM90.6316 92.1549C90.9859 92.1549 91.2782 92.0646 91.5086 91.8838C91.7424 91.7031 91.916 91.4604 92.0294 91.1557C92.1464 90.8474 92.2048 90.5037 92.2048 90.1246C92.2048 89.749 92.1464 89.4088 92.0294 89.1041C91.916 88.7994 91.7406 88.5567 91.5032 88.3759C91.2658 88.1952 90.9629 88.1049 90.5944 88.1049C90.2471 88.1049 89.9601 88.1899 89.7333 88.36C89.5101 88.5301 89.3436 88.7675 89.2337 89.0722C89.1274 89.3769 89.0743 89.7277 89.0743 90.1246C89.0743 90.5214 89.1274 90.8722 89.2337 91.177C89.34 91.4817 89.5083 91.7209 89.7387 91.8945C89.969 92.0681 90.2666 92.1549 90.6316 92.1549ZM94.6646 86.319V85.2401H95.7754V86.319H94.6646ZM94.6646 93V87.2598H95.7754V93H94.6646ZM99.827 93.1595C99.2389 93.1595 98.7392 93.0283 98.3282 92.7661C97.9172 92.5039 97.6018 92.1443 97.3821 91.6872C97.166 91.2301 97.0562 90.711 97.0526 90.1299C97.0562 89.5382 97.1695 89.0155 97.3928 88.562C97.616 88.1049 97.9349 87.747 98.3495 87.4883C98.764 87.2297 99.2619 87.1003 99.843 87.1003C100.47 87.1003 101.005 87.2562 101.448 87.5681C101.895 87.8799 102.189 88.3068 102.33 88.849L101.225 89.1679C101.115 88.8454 100.934 88.5956 100.683 88.4185C100.435 88.2377 100.149 88.1474 99.827 88.1474C99.4621 88.1474 99.1627 88.2342 98.9288 88.4078C98.695 88.5779 98.5213 88.8118 98.4079 89.1094C98.2946 89.4071 98.2361 89.7472 98.2325 90.1299C98.2361 90.7216 98.3707 91.2 98.6365 91.5649C98.9058 91.9299 99.3026 92.1124 99.827 92.1124C100.185 92.1124 100.474 92.0309 100.693 91.8679C100.917 91.7014 101.087 91.464 101.204 91.1557L102.33 91.4214C102.143 91.9813 101.833 92.4118 101.4 92.713C100.968 93.0106 100.444 93.1595 99.827 93.1595Z" fill="#171717"/>
<circle cx="97.1031" cy="149.076" r="44.6019" fill="#E5E6EB" stroke="#A9A9A9" stroke-width="1.00229" stroke-dasharray="3.01 3.01"/>
<path d="M97.1031 140.389C95.9512 140.389 94.8464 140.847 94.0319 141.661C93.2174 142.476 92.7598 143.58 92.7598 144.732C92.7598 145.884 93.2174 146.989 94.0319 147.804C94.8464 148.618 95.9512 149.076 97.1031 149.076C98.255 149.076 99.3597 148.618 100.174 147.804C100.989 146.989 101.446 145.884 101.446 144.732C101.446 143.58 100.989 142.476 100.174 141.661C99.3597 140.847 98.255 140.389 97.1031 140.389ZM90.5882 144.732C90.5882 143.004 91.2746 141.347 92.4964 140.126C93.7181 138.904 95.3752 138.217 97.1031 138.217C98.8309 138.217 100.488 138.904 101.71 140.126C102.932 141.347 103.618 143.004 103.618 144.732C103.618 146.46 102.932 148.117 101.71 149.339C100.488 150.561 98.8309 151.247 97.1031 151.247C95.3752 151.247 93.7181 150.561 92.4964 149.339C91.2746 148.117 90.5882 146.46 90.5882 144.732ZM92.7598 155.59C91.8959 155.59 91.0673 155.934 90.4565 156.545C89.8456 157.155 89.5024 157.984 89.5024 158.848C89.5024 159.136 89.388 159.412 89.1844 159.616C88.9807 159.819 88.7045 159.934 88.4166 159.934C88.1286 159.934 87.8524 159.819 87.6488 159.616C87.4451 159.412 87.3307 159.136 87.3307 158.848C87.3307 157.408 87.9027 156.027 88.9209 155.009C89.939 153.991 91.3199 153.419 92.7598 153.419H101.446C102.886 153.419 104.267 153.991 105.285 155.009C106.303 156.027 106.875 157.408 106.875 158.848C106.875 159.136 106.761 159.412 106.557 159.616C106.354 159.819 106.078 159.934 105.79 159.934C105.502 159.934 105.225 159.819 105.022 159.616C104.818 159.412 104.704 159.136 104.704 158.848C104.704 157.984 104.361 157.155 103.75 156.545C103.139 155.934 102.31 155.59 101.446 155.59H92.7598Z" fill="#5E5E5E"/>
<path d="M81 39L352 39" stroke="#CDCDCD" stroke-width="0.621993"/>
<circle cx="82" cy="38.9663" r="6.61801" fill="#F7F7F7" stroke="#012A59" stroke-width="0.696632"/>
<path d="M52.6827 58.1552V51.1331H55.4427C55.8881 51.1331 56.262 51.2241 56.5643 51.4062C56.8666 51.5882 57.0942 51.8239 57.247 52.1133C57.3998 52.3993 57.4762 52.7017 57.4762 53.0203C57.4762 53.4071 57.3803 53.7387 57.1885 54.0151C56.9999 54.2914 56.7447 54.48 56.4229 54.5807L56.4131 54.3418C56.8618 54.4523 57.2064 54.6685 57.4469 54.9904C57.6875 55.3089 57.8078 55.6812 57.8078 56.1071C57.8078 56.5199 57.7249 56.8792 57.5591 57.1847C57.3965 57.4903 57.1576 57.7293 56.8423 57.9016C56.5302 58.0706 56.1514 58.1552 55.7061 58.1552H52.6827ZM53.7165 57.1847H55.55C55.7808 57.1847 55.9873 57.1409 56.1693 57.0531C56.3546 56.9653 56.4993 56.8401 56.6033 56.6776C56.7106 56.5118 56.7642 56.3151 56.7642 56.0875C56.7642 55.8762 56.7171 55.6861 56.6228 55.517C56.5318 55.3447 56.3985 55.2098 56.223 55.1123C56.0507 55.0115 55.8475 54.9611 55.6134 54.9611H53.7165V57.1847ZM53.7165 54.0004H55.4281C55.6167 54.0004 55.7857 53.9631 55.9352 53.8883C56.088 53.8103 56.2083 53.6997 56.2961 53.5567C56.3871 53.4104 56.4326 53.2348 56.4326 53.03C56.4326 52.7569 56.3416 52.5326 56.1596 52.3571C55.9775 52.1815 55.7337 52.0938 55.4281 52.0938H53.7165V54.0004ZM60.2655 58.3014C59.8754 58.3014 59.5487 58.2299 59.2854 58.0869C59.022 57.9406 58.8221 57.7488 58.6855 57.5115C58.5523 57.2709 58.4856 57.0076 58.4856 56.7215C58.4856 56.4549 58.5328 56.2208 58.627 56.0193C58.7213 55.8177 58.8611 55.647 59.0464 55.5073C59.2317 55.3642 59.4593 55.2488 59.7291 55.161C59.9632 55.0928 60.2281 55.0326 60.524 54.9806C60.8198 54.9286 61.1303 54.8798 61.4554 54.8343C61.7837 54.7888 62.1088 54.7433 62.4306 54.6978L62.06 54.9026C62.0665 54.4897 61.9788 54.1841 61.7967 53.9858C61.6179 53.7842 61.3091 53.6835 60.8702 53.6835C60.5939 53.6835 60.3403 53.7485 60.1095 53.8785C59.8786 54.0053 59.7177 54.2166 59.6267 54.5125L58.6758 54.2199C58.8058 53.768 59.0529 53.4088 59.417 53.1422C59.7844 52.8756 60.272 52.7423 60.8799 52.7423C61.3513 52.7423 61.7609 52.8236 62.1088 52.9861C62.4599 53.1454 62.7167 53.399 62.8793 53.7469C62.9638 53.9192 63.0158 54.1012 63.0353 54.293C63.0548 54.4848 63.0646 54.6913 63.0646 54.9123V58.1552H62.1624V56.9507L62.338 57.1067C62.1202 57.5098 61.8422 57.8106 61.5041 58.0089C61.1693 58.2039 60.7564 58.3014 60.2655 58.3014ZM60.4459 57.4676C60.7353 57.4676 60.984 57.4172 61.192 57.3164C61.4001 57.2124 61.5675 57.0807 61.6943 56.9214C61.8211 56.7621 61.904 56.5963 61.943 56.424C61.9983 56.268 62.0292 56.0924 62.0357 55.8974C62.0454 55.7023 62.0503 55.5463 62.0503 55.4292L62.3819 55.5511C62.06 55.5999 61.7675 55.6438 61.5041 55.6828C61.2408 55.7218 61.0019 55.7608 60.7873 55.7998C60.576 55.8356 60.3874 55.8795 60.2216 55.9315C60.0818 55.9803 59.9567 56.0388 59.8461 56.1071C59.7389 56.1753 59.6527 56.2582 59.5877 56.3558C59.5259 56.4533 59.495 56.5719 59.495 56.7117C59.495 56.8483 59.5292 56.9751 59.5974 57.0921C59.6657 57.2059 59.7697 57.2969 59.9095 57.3652C60.0493 57.4334 60.2281 57.4676 60.4459 57.4676ZM66.3448 58.2966C65.7044 58.2966 65.1826 58.1552 64.7795 57.8723C64.3764 57.5895 64.1293 57.1912 64.0383 56.6776L65.0818 56.5167C65.1468 56.7898 65.2964 57.0059 65.5305 57.1652C65.7678 57.3213 66.062 57.3993 66.4131 57.3993C66.7317 57.3993 66.9804 57.3343 67.1592 57.2042C67.3412 57.0742 67.4323 56.8954 67.4323 56.6678C67.4323 56.5346 67.3997 56.4273 67.3347 56.346C67.273 56.2615 67.1413 56.1818 66.9397 56.1071C66.7382 56.0323 66.431 55.9396 66.0181 55.8291C65.5662 55.7121 65.207 55.5869 64.9404 55.4536C64.6771 55.3171 64.4885 55.1594 64.3747 54.9806C64.2642 54.7985 64.2089 54.5791 64.2089 54.3223C64.2089 54.0037 64.2935 53.7257 64.4625 53.4884C64.6316 53.2511 64.8689 53.0674 65.1745 52.9374C65.4833 52.8073 65.8442 52.7423 66.257 52.7423C66.6602 52.7423 67.0194 52.8057 67.3347 52.9325C67.6501 53.0593 67.9053 53.2397 68.1003 53.4738C68.2954 53.7046 68.4124 53.9761 68.4514 54.2881L67.4079 54.4783C67.3721 54.2248 67.2535 54.0248 67.0519 53.8785C66.8503 53.7322 66.5886 53.6526 66.2668 53.6396C65.958 53.6266 65.7076 53.6786 65.5158 53.7956C65.324 53.9094 65.2281 54.0671 65.2281 54.2686C65.2281 54.3857 65.2639 54.4848 65.3354 54.5661C65.4102 54.6474 65.5532 54.7254 65.7645 54.8002C65.9758 54.8749 66.2879 54.9643 66.7008 55.0684C67.1429 55.1822 67.494 55.3089 67.7541 55.4487C68.0142 55.5853 68.1995 55.7494 68.31 55.9413C68.4238 56.1298 68.4807 56.359 68.4807 56.6288C68.4807 57.149 68.2905 57.557 67.9101 57.8528C67.533 58.1486 67.0113 58.2966 66.3448 58.2966ZM69.6572 52.0255V51.0356H70.6764V52.0255H69.6572ZM69.6572 58.1552V52.8886H70.6764V58.1552H69.6572ZM74.3937 58.3014C73.854 58.3014 73.3956 58.1812 73.0185 57.9406C72.6414 57.7 72.3521 57.37 72.1505 56.9507C71.9522 56.5313 71.8514 56.055 71.8482 55.5219C71.8514 54.979 71.9554 54.4995 72.1603 54.0833C72.3651 53.664 72.6577 53.3356 73.038 53.0983C73.4184 52.861 73.8751 52.7423 74.4083 52.7423C74.9837 52.7423 75.4746 52.8854 75.881 53.1714C76.2906 53.4575 76.5604 53.8493 76.6905 54.3467L75.6762 54.6392C75.5754 54.3434 75.4096 54.1142 75.1788 53.9517C74.9512 53.7859 74.6895 53.703 74.3937 53.703C74.0588 53.703 73.7841 53.7826 73.5695 53.9419C73.355 54.098 73.1957 54.3125 73.0917 54.5856C72.9876 54.8587 72.934 55.1708 72.9307 55.5219C72.934 56.0648 73.0575 56.5037 73.3013 56.8385C73.5484 57.1734 73.9125 57.3408 74.3937 57.3408C74.722 57.3408 74.987 57.266 75.1885 57.1165C75.3933 56.9637 75.5494 56.7459 75.6567 56.463L76.6905 56.7069C76.5182 57.2205 76.2337 57.6155 75.8371 57.8918C75.4405 58.1649 74.9593 58.3014 74.3937 58.3014ZM79.6364 58.1552V51.1331H81.8356C81.9006 51.1331 82.0209 51.1347 82.1965 51.138C82.3753 51.1412 82.546 51.1542 82.7085 51.177C83.2579 51.2453 83.7195 51.4419 84.0934 51.767C84.4705 52.0921 84.755 52.505 84.9468 53.0056C85.1386 53.503 85.2345 54.0492 85.2345 54.6441C85.2345 55.2423 85.1386 55.7917 84.9468 56.2924C84.755 56.7898 84.4705 57.201 84.0934 57.5261C83.7195 57.8479 83.2579 58.043 82.7085 58.1113C82.546 58.134 82.3753 58.147 82.1965 58.1503C82.0209 58.1535 81.9006 58.1552 81.8356 58.1552H79.6364ZM80.6799 57.1847H81.8356C81.9462 57.1847 82.0778 57.1815 82.2306 57.175C82.3834 57.1685 82.5183 57.1555 82.6354 57.136C82.993 57.0677 83.2823 56.9133 83.5034 56.6727C83.7277 56.4289 83.8918 56.1298 83.9959 55.7755C84.0999 55.4211 84.1519 55.044 84.1519 54.6441C84.1519 54.2313 84.0983 53.8493 83.991 53.4982C83.8837 53.1438 83.7179 52.848 83.4936 52.6107C83.2725 52.3701 82.9865 52.2173 82.6354 52.1523C82.5183 52.1295 82.3818 52.1165 82.2257 52.1133C82.0729 52.1068 81.9429 52.1035 81.8356 52.1035H80.6799V57.1847ZM88.7058 58.3014C88.1824 58.3014 87.7224 58.1877 87.3258 57.9601C86.9324 57.7293 86.6252 57.4091 86.4041 56.9994C86.1863 56.5866 86.0774 56.1087 86.0774 55.5658C86.0774 54.9904 86.1847 54.4913 86.3993 54.0687C86.6171 53.6461 86.9194 53.3194 87.3063 53.0885C87.6931 52.8577 88.1434 52.7423 88.6571 52.7423C89.1935 52.7423 89.6502 52.8675 90.0273 53.1178C90.4044 53.3649 90.6857 53.7176 90.871 54.176C91.0595 54.6344 91.1343 55.1789 91.0953 55.8096H90.0761V55.439C90.0696 54.8278 89.9526 54.3759 89.725 54.0833C89.5007 53.7907 89.1577 53.6445 88.6961 53.6445C88.1857 53.6445 87.8021 53.8054 87.5452 54.1272C87.2884 54.4491 87.16 54.914 87.16 55.5219C87.16 56.1006 87.2884 56.5492 87.5452 56.8678C87.8021 57.1831 88.1727 57.3408 88.6571 57.3408C88.9756 57.3408 89.2504 57.2693 89.4812 57.1262C89.7152 56.9799 89.8973 56.7719 90.0273 56.502L91.027 56.819C90.8222 57.2904 90.5117 57.6561 90.0956 57.9162C89.6795 58.173 89.2162 58.3014 88.7058 58.3014ZM86.8284 55.8096V55.0147H90.5881V55.8096H86.8284ZM95.203 58.1552C94.8714 58.2202 94.5463 58.2478 94.2277 58.2381C93.9091 58.2283 93.6246 58.1665 93.3743 58.0527C93.124 57.939 92.9354 57.7602 92.8086 57.5163C92.6949 57.2985 92.6331 57.0775 92.6233 56.8531C92.6168 56.6256 92.6136 56.3688 92.6136 56.0827V51.4257H93.6376V56.0339C93.6376 56.2452 93.6393 56.4289 93.6425 56.5849C93.649 56.741 93.6832 56.8727 93.7449 56.9799C93.862 57.1815 94.0473 57.2969 94.3008 57.3262C94.5577 57.3522 94.8584 57.3408 95.203 57.292V58.1552ZM91.6042 53.7079V52.8886H95.203V53.7079H91.6042ZM97.8007 58.3014C97.4105 58.3014 97.0838 58.2299 96.8205 58.0869C96.5572 57.9406 96.3572 57.7488 96.2207 57.5115C96.0874 57.2709 96.0208 57.0076 96.0208 56.7215C96.0208 56.4549 96.0679 56.2208 96.1622 56.0193C96.2565 55.8177 96.3962 55.647 96.5816 55.5073C96.7669 55.3642 96.9944 55.2488 97.2643 55.161C97.4983 55.0928 97.7633 55.0326 98.0591 54.9806C98.3549 54.9286 98.6654 54.8798 98.9905 54.8343C99.3189 54.7888 99.6439 54.7433 99.9658 54.6978L99.5952 54.9026C99.6017 54.4897 99.5139 54.1841 99.3319 53.9858C99.1531 53.7842 98.8442 53.6835 98.4053 53.6835C98.129 53.6835 97.8754 53.7485 97.6446 53.8785C97.4138 54.0053 97.2529 54.2166 97.1618 54.5125L96.2109 54.2199C96.341 53.768 96.5881 53.4088 96.9522 53.1422C97.3195 52.8756 97.8072 52.7423 98.4151 52.7423C98.8865 52.7423 99.2961 52.8236 99.6439 52.9861C99.9951 53.1454 100.252 53.399 100.414 53.7469C100.499 53.9192 100.551 54.1012 100.57 54.293C100.59 54.4848 100.6 54.6913 100.6 54.9123V58.1552H99.6976V56.9507L99.8731 57.1067C99.6553 57.5098 99.3774 57.8106 99.0393 58.0089C98.7044 58.2039 98.2916 58.3014 97.8007 58.3014ZM97.9811 57.4676C98.2704 57.4676 98.5191 57.4172 98.7272 57.3164C98.9352 57.2124 99.1027 57.0807 99.2295 56.9214C99.3562 56.7621 99.4391 56.5963 99.4782 56.424C99.5334 56.268 99.5643 56.0924 99.5708 55.8974C99.5806 55.7023 99.5854 55.5463 99.5854 55.4292L99.917 55.5511C99.5952 55.5999 99.3026 55.6438 99.0393 55.6828C98.7759 55.7218 98.537 55.7608 98.3224 55.7998C98.1111 55.8356 97.9226 55.8795 97.7568 55.9315C97.617 55.9803 97.4918 56.0388 97.3813 56.1071C97.274 56.1753 97.1879 56.2582 97.1228 56.3558C97.0611 56.4533 97.0302 56.5719 97.0302 56.7117C97.0302 56.8483 97.0643 56.9751 97.1326 57.0921C97.2009 57.2059 97.3049 57.2969 97.4447 57.3652C97.5845 57.4334 97.7633 57.4676 97.9811 57.4676ZM101.964 52.0255V51.0356H102.983V52.0255H101.964ZM101.964 58.1552V52.8886H102.983V58.1552H101.964ZM104.545 58.1552V50.9868H105.564V58.1552H104.545ZM109.042 58.2966C108.402 58.2966 107.88 58.1552 107.477 57.8723C107.074 57.5895 106.827 57.1912 106.736 56.6776L107.779 56.5167C107.844 56.7898 107.994 57.0059 108.228 57.1652C108.465 57.3213 108.759 57.3993 109.11 57.3993C109.429 57.3993 109.678 57.3343 109.856 57.2042C110.039 57.0742 110.13 56.8954 110.13 56.6678C110.13 56.5346 110.097 56.4273 110.032 56.346C109.97 56.2615 109.839 56.1818 109.637 56.1071C109.435 56.0323 109.128 55.9396 108.715 55.8291C108.264 55.7121 107.904 55.5869 107.638 55.4536C107.374 55.3171 107.186 55.1594 107.072 54.9806C106.962 54.7985 106.906 54.5791 106.906 54.3223C106.906 54.0037 106.991 53.7257 107.16 53.4884C107.329 53.2511 107.566 53.0674 107.872 52.9374C108.181 52.8073 108.541 52.7423 108.954 52.7423C109.357 52.7423 109.717 52.8057 110.032 52.9325C110.347 53.0593 110.603 53.2397 110.798 53.4738C110.993 53.7046 111.11 53.9761 111.149 54.2881L110.105 54.4783C110.069 54.2248 109.951 54.0248 109.749 53.8785C109.548 53.7322 109.286 53.6526 108.964 53.6396C108.655 53.6266 108.405 53.6786 108.213 53.7956C108.021 53.9094 107.925 54.0671 107.925 54.2686C107.925 54.3857 107.961 54.4848 108.033 54.5661C108.107 54.6474 108.251 54.7254 108.462 54.8002C108.673 54.8749 108.985 54.9643 109.398 55.0684C109.84 55.1822 110.191 55.3089 110.451 55.4487C110.711 55.5853 110.897 55.7494 111.007 55.9413C111.121 56.1298 111.178 56.359 111.178 56.6288C111.178 57.149 110.988 57.557 110.607 57.8528C110.23 58.1486 109.709 58.2966 109.042 58.2966Z" fill="#012A59"/>
<circle cx="177.26" cy="38.9663" r="6.96632" fill="#D9D9D9"/>
<path d="M165.286 58.3014C164.587 58.3014 163.997 58.147 163.516 57.8382C163.034 57.5261 162.67 57.0953 162.423 56.5459C162.176 55.9965 162.053 55.3626 162.053 54.6441C162.053 53.9257 162.176 53.2917 162.423 52.7423C162.67 52.1929 163.034 51.7638 163.516 51.4549C163.997 51.1429 164.587 50.9868 165.286 50.9868C166.102 50.9868 166.768 51.1965 167.285 51.6159C167.802 52.032 168.156 52.5911 168.348 53.2934L167.617 53.4835C167.467 52.9276 167.199 52.4871 166.812 52.162C166.425 51.8369 165.916 51.6744 165.286 51.6744C164.736 51.6744 164.279 51.7995 163.915 52.0499C163.551 52.3002 163.277 52.6497 163.091 53.0983C162.909 53.5437 162.815 54.059 162.808 54.6441C162.805 55.2293 162.895 55.7446 163.077 56.19C163.262 56.6353 163.538 56.9848 163.906 57.2384C164.276 57.4887 164.736 57.6139 165.286 57.6139C165.916 57.6139 166.425 57.4513 166.812 57.1262C167.199 56.7979 167.467 56.3574 167.617 55.8047L168.348 55.9949C168.156 56.6971 167.802 57.2579 167.285 57.6773C166.768 58.0934 166.102 58.3014 165.286 58.3014ZM170.931 58.3014C170.534 58.3014 170.201 58.2299 169.931 58.0869C169.665 57.9438 169.465 57.7537 169.331 57.5163C169.198 57.279 169.131 57.0206 169.131 56.741C169.131 56.4549 169.188 56.2111 169.302 56.0095C169.419 55.8047 169.577 55.6373 169.775 55.5073C169.977 55.3772 170.209 55.2781 170.472 55.2098C170.739 55.1448 171.033 55.0879 171.355 55.0391C171.68 54.9871 171.997 54.9432 172.306 54.9075C172.618 54.8684 172.891 54.8311 173.125 54.7953L172.872 54.9513C172.881 54.4312 172.781 54.0459 172.569 53.7956C172.358 53.5453 171.991 53.4201 171.467 53.4201C171.106 53.4201 170.801 53.5014 170.55 53.664C170.303 53.8265 170.129 54.0833 170.029 54.4344L169.331 54.2296C169.452 53.7582 169.694 53.3925 170.058 53.1324C170.422 52.8724 170.895 52.7423 171.477 52.7423C171.958 52.7423 172.366 52.8333 172.701 53.0154C173.039 53.1942 173.278 53.4543 173.418 53.7956C173.483 53.9484 173.525 54.1191 173.545 54.3077C173.564 54.4962 173.574 54.688 173.574 54.8831V58.1552H172.935V56.8336L173.12 56.9117C172.942 57.3635 172.664 57.7081 172.286 57.9455C171.909 58.1828 171.457 58.3014 170.931 58.3014ZM171.014 57.6821C171.349 57.6821 171.641 57.622 171.891 57.5017C172.142 57.3814 172.343 57.2173 172.496 57.0092C172.649 56.7979 172.748 56.5606 172.794 56.2972C172.833 56.1282 172.854 55.9429 172.857 55.7413C172.86 55.5365 172.862 55.3837 172.862 55.2829L173.135 55.4244C172.891 55.4569 172.626 55.4894 172.34 55.5219C172.057 55.5544 171.778 55.5918 171.501 55.634C171.228 55.6763 170.981 55.7267 170.76 55.7852C170.611 55.8275 170.466 55.8876 170.326 55.9656C170.186 56.0404 170.071 56.1412 169.98 56.268C169.892 56.3948 169.848 56.5524 169.848 56.741C169.848 56.8938 169.886 57.0417 169.96 57.1847C170.038 57.3278 170.162 57.4464 170.331 57.5407C170.503 57.635 170.731 57.6821 171.014 57.6821ZM174.843 58.1552V52.8886H175.487V54.1565L175.36 53.9907C175.419 53.8346 175.495 53.6916 175.589 53.5616C175.684 53.4283 175.786 53.3194 175.897 53.2348C176.033 53.1146 176.192 53.0235 176.375 52.9618C176.557 52.8967 176.74 52.8594 176.926 52.8496C177.111 52.8366 177.28 52.8496 177.433 52.8886V53.5616C177.241 53.5128 177.031 53.5014 176.804 53.5274C176.576 53.5534 176.366 53.6445 176.175 53.8005C175.999 53.937 175.867 54.1012 175.78 54.293C175.692 54.4816 175.633 54.6831 175.604 54.8977C175.575 55.109 175.56 55.3187 175.56 55.5268V58.1552H174.843ZM180.491 58.3014C179.977 58.3014 179.532 58.1877 179.155 57.9601C178.781 57.7325 178.49 57.4123 178.282 56.9994C178.074 56.5866 177.97 56.1022 177.97 55.5463C177.97 54.9708 178.072 54.4734 178.277 54.0541C178.482 53.6347 178.77 53.3112 179.14 53.0837C179.514 52.8561 179.955 52.7423 180.462 52.7423C180.982 52.7423 181.426 52.8626 181.793 53.1032C182.16 53.3405 182.438 53.6818 182.627 54.1272C182.815 54.5726 182.902 55.1041 182.885 55.7218H182.154V55.4682C182.141 54.7855 181.993 54.2703 181.71 53.9224C181.431 53.5746 181.021 53.4006 180.481 53.4006C179.916 53.4006 179.482 53.5843 179.179 53.9517C178.88 54.319 178.731 54.8424 178.731 55.5219C178.731 56.1851 178.88 56.7004 179.179 57.0677C179.482 57.4318 179.909 57.6139 180.462 57.6139C180.839 57.6139 181.167 57.5277 181.447 57.3554C181.73 57.1799 181.952 56.9279 182.115 56.5996L182.783 56.858C182.575 57.3164 182.268 57.6724 181.861 57.926C181.458 58.1763 181.001 58.3014 180.491 58.3014ZM178.477 55.7218V55.122H182.5V55.7218H178.477ZM186.196 58.3014C185.682 58.3014 185.237 58.1877 184.86 57.9601C184.486 57.7325 184.195 57.4123 183.987 56.9994C183.779 56.5866 183.675 56.1022 183.675 55.5463C183.675 54.9708 183.777 54.4734 183.982 54.0541C184.187 53.6347 184.475 53.3112 184.845 53.0837C185.219 52.8561 185.66 52.7423 186.167 52.7423C186.687 52.7423 187.131 52.8626 187.498 53.1032C187.865 53.3405 188.143 53.6818 188.332 54.1272C188.521 54.5726 188.607 55.1041 188.59 55.7218H187.859V55.4682C187.846 54.7855 187.698 54.2703 187.415 53.9224C187.136 53.5746 186.726 53.4006 186.186 53.4006C185.621 53.4006 185.187 53.5843 184.884 53.9517C184.585 54.319 184.436 54.8424 184.436 55.5219C184.436 56.1851 184.585 56.7004 184.884 57.0677C185.187 57.4318 185.614 57.6139 186.167 57.6139C186.544 57.6139 186.872 57.5277 187.152 57.3554C187.435 57.1799 187.657 56.9279 187.82 56.5996L188.488 56.858C188.28 57.3164 187.973 57.6724 187.566 57.926C187.163 58.1763 186.706 58.3014 186.196 58.3014ZM184.182 55.7218V55.122H188.205V55.7218H184.182ZM189.673 58.1552V52.8886H190.316V54.1565L190.189 53.9907C190.248 53.8346 190.324 53.6916 190.419 53.5616C190.513 53.4283 190.615 53.3194 190.726 53.2348C190.862 53.1146 191.022 53.0235 191.204 52.9618C191.386 52.8967 191.57 52.8594 191.755 52.8496C191.94 52.8366 192.109 52.8496 192.262 52.8886V53.5616C192.07 53.5128 191.86 53.5014 191.633 53.5274C191.405 53.5534 191.196 53.6445 191.004 53.8005C190.828 53.937 190.697 54.1012 190.609 54.293C190.521 54.4816 190.463 54.6831 190.433 54.8977C190.404 55.109 190.389 55.3187 190.389 55.5268V58.1552H189.673Z" fill="#A9A9A9"/>
<circle cx="351.7" cy="38.9663" r="6.96632" fill="#D9D9D9"/>
<path d="M315.883 58.1552V51.1331H318.594C318.662 51.1331 318.739 51.1363 318.823 51.1429C318.911 51.1461 318.999 51.1559 319.087 51.1721C319.454 51.2274 319.764 51.3558 320.018 51.5573C320.275 51.7557 320.468 52.006 320.598 52.3083C320.732 52.6107 320.798 52.9455 320.798 53.3129C320.798 53.677 320.732 54.0102 320.598 54.3125C320.465 54.6149 320.27 54.8668 320.013 55.0684C319.759 55.2667 319.451 55.3935 319.087 55.4487C318.999 55.4617 318.911 55.4715 318.823 55.478C318.739 55.4845 318.662 55.4877 318.594 55.4877H316.6V58.1552H315.883ZM316.6 54.805H318.574C318.633 54.805 318.701 54.8018 318.779 54.7953C318.857 54.7888 318.934 54.7774 319.009 54.7612C319.249 54.7091 319.446 54.61 319.599 54.4637C319.755 54.3174 319.87 54.1435 319.945 53.9419C320.023 53.7404 320.062 53.5307 320.062 53.3129C320.062 53.095 320.023 52.8854 319.945 52.6838C319.87 52.479 319.755 52.3034 319.599 52.1571C319.446 52.0109 319.249 51.9117 319.009 51.8597C318.934 51.8434 318.857 51.8337 318.779 51.8304C318.701 51.8239 318.633 51.8207 318.574 51.8207H316.6V54.805ZM323.969 58.3014C323.455 58.3014 323.01 58.1877 322.633 57.9601C322.259 57.7325 321.968 57.4123 321.76 56.9994C321.552 56.5866 321.448 56.1022 321.448 55.5463C321.448 54.9708 321.55 54.4734 321.755 54.0541C321.96 53.6347 322.247 53.3112 322.618 53.0837C322.992 52.8561 323.432 52.7423 323.939 52.7423C324.46 52.7423 324.903 52.8626 325.271 53.1032C325.638 53.3405 325.916 53.6818 326.105 54.1272C326.293 54.5726 326.379 55.1041 326.363 55.7218H325.632V55.4682C325.619 54.7855 325.471 54.2703 325.188 53.9224C324.908 53.5746 324.499 53.4006 323.959 53.4006C323.393 53.4006 322.959 53.5843 322.657 53.9517C322.358 54.319 322.208 54.8424 322.208 55.5219C322.208 56.1851 322.358 56.7004 322.657 57.0677C322.959 57.4318 323.387 57.6139 323.939 57.6139C324.317 57.6139 324.645 57.5277 324.924 57.3554C325.207 57.1799 325.43 56.9279 325.593 56.5996L326.261 56.858C326.053 57.3164 325.745 57.6724 325.339 57.926C324.936 58.1763 324.479 58.3014 323.969 58.3014ZM321.955 55.7218V55.122H325.978V55.7218H321.955ZM327.445 58.1552V52.8886H328.089V54.1565L327.962 53.9907C328.021 53.8346 328.097 53.6916 328.191 53.5616C328.286 53.4283 328.388 53.3194 328.498 53.2348C328.635 53.1146 328.794 53.0235 328.976 52.9618C329.158 52.8967 329.342 52.8594 329.527 52.8496C329.713 52.8366 329.882 52.8496 330.035 52.8886V53.5616C329.843 53.5128 329.633 53.5014 329.405 53.5274C329.178 53.5534 328.968 53.6445 328.776 53.8005C328.601 53.937 328.469 54.1012 328.381 54.293C328.294 54.4816 328.235 54.6831 328.206 54.8977C328.177 55.109 328.162 55.3187 328.162 55.5268V58.1552H327.445ZM332.734 58.2966C332.117 58.2966 331.608 58.1633 331.208 57.8967C330.811 57.6301 330.568 57.2595 330.477 56.7849L331.208 56.663C331.286 56.9621 331.463 57.201 331.74 57.3798C332.019 57.5554 332.364 57.6431 332.773 57.6431C333.173 57.6431 333.489 57.5602 333.719 57.3944C333.95 57.2254 334.066 56.9962 334.066 56.7069C334.066 56.5443 334.028 56.4126 333.953 56.3119C333.882 56.2078 333.734 56.1119 333.51 56.0242C333.285 55.9364 332.951 55.8323 332.505 55.7121C332.027 55.582 331.653 55.452 331.384 55.3219C331.114 55.1919 330.922 55.0424 330.808 54.8733C330.694 54.701 330.637 54.4913 330.637 54.2443C330.637 53.9452 330.722 53.6835 330.891 53.4592C331.06 53.2316 331.294 53.056 331.593 52.9325C331.892 52.8057 332.24 52.7423 332.637 52.7423C333.033 52.7423 333.388 52.8073 333.7 52.9374C334.015 53.0642 334.269 53.243 334.461 53.4738C334.652 53.7046 334.766 53.9728 334.802 54.2784L334.07 54.4101C334.022 54.1012 333.867 53.8574 333.607 53.6786C333.35 53.4965 333.024 53.4023 332.627 53.3958C332.253 53.386 331.949 53.4575 331.715 53.6103C331.481 53.7599 331.364 53.9598 331.364 54.2101C331.364 54.3499 331.406 54.4702 331.491 54.571C331.575 54.6685 331.728 54.7612 331.949 54.8489C332.174 54.9367 332.492 55.0326 332.905 55.1366C333.389 55.2602 333.77 55.3902 334.046 55.5268C334.322 55.6633 334.519 55.8242 334.636 56.0095C334.753 56.1948 334.812 56.424 334.812 56.6971C334.812 57.1945 334.626 57.5862 334.256 57.8723C333.888 58.1552 333.381 58.2966 332.734 58.2966ZM338.092 58.3014C337.569 58.3014 337.122 58.1828 336.751 57.9455C336.381 57.7081 336.096 57.3798 335.898 56.9604C335.7 56.5411 335.601 56.0599 335.601 55.517C335.601 54.9643 335.701 54.48 335.903 54.0638C336.105 53.6477 336.391 53.3242 336.761 53.0934C337.135 52.8594 337.579 52.7423 338.092 52.7423C338.619 52.7423 339.068 52.861 339.438 53.0983C339.812 53.3324 340.097 53.6591 340.292 54.0785C340.49 54.4946 340.589 54.9741 340.589 55.517C340.589 56.0697 340.49 56.5557 340.292 56.9751C340.093 57.3912 339.807 57.7163 339.433 57.9503C339.06 58.1844 338.613 58.3014 338.092 58.3014ZM338.092 57.6139C338.678 57.6139 339.113 57.4204 339.399 57.0336C339.685 56.6435 339.828 56.1379 339.828 55.517C339.828 54.8798 339.684 54.3727 339.394 53.9956C339.108 53.6184 338.674 53.4299 338.092 53.4299C337.699 53.4299 337.374 53.5193 337.117 53.6981C336.864 53.8736 336.673 54.1191 336.547 54.4344C336.423 54.7465 336.361 55.1074 336.361 55.517C336.361 56.1509 336.508 56.6597 336.8 57.0433C337.093 57.4237 337.524 57.6139 338.092 57.6139ZM345.469 58.1552V55.4682C345.469 55.1757 345.441 54.9075 345.386 54.6636C345.33 54.4166 345.241 54.202 345.117 54.0199C344.997 53.8346 344.839 53.6916 344.644 53.5908C344.453 53.49 344.219 53.4396 343.942 53.4396C343.689 53.4396 343.464 53.4835 343.269 53.5713C343.077 53.6591 342.915 53.7859 342.782 53.9517C342.652 54.1142 342.552 54.3125 342.484 54.5466C342.416 54.7807 342.382 55.0472 342.382 55.3463L341.875 55.2342C341.875 54.6945 341.969 54.241 342.157 53.8736C342.346 53.5063 342.606 53.2283 342.938 53.0398C343.269 52.8512 343.65 52.7569 344.079 52.7569C344.394 52.7569 344.669 52.8057 344.903 52.9032C345.14 53.0008 345.34 53.1324 345.503 53.2982C345.668 53.464 345.802 53.6542 345.903 53.8688C346.003 54.0801 346.076 54.306 346.122 54.5466C346.167 54.7839 346.19 55.0212 346.19 55.2586V58.1552H345.469ZM341.66 58.1552V52.8886H342.309V54.1857H342.382V58.1552H341.66ZM348.962 58.3014C348.566 58.3014 348.233 58.2299 347.963 58.0869C347.696 57.9438 347.496 57.7537 347.363 57.5163C347.23 57.279 347.163 57.0206 347.163 56.741C347.163 56.4549 347.22 56.2111 347.334 56.0095C347.451 55.8047 347.608 55.6373 347.807 55.5073C348.008 55.3772 348.241 55.2781 348.504 55.2098C348.771 55.1448 349.065 55.0879 349.387 55.0391C349.712 54.9871 350.029 54.9432 350.338 54.9075C350.65 54.8684 350.923 54.8311 351.157 54.7953L350.903 54.9513C350.913 54.4312 350.812 54.0459 350.601 53.7956C350.39 53.5453 350.022 53.4201 349.499 53.4201C349.138 53.4201 348.832 53.5014 348.582 53.664C348.335 53.8265 348.161 54.0833 348.06 54.4344L347.363 54.2296C347.483 53.7582 347.725 53.3925 348.09 53.1324C348.454 52.8724 348.927 52.7423 349.509 52.7423C349.99 52.7423 350.398 52.8333 350.733 53.0154C351.071 53.1942 351.31 53.4543 351.449 53.7956C351.514 53.9484 351.557 54.1191 351.576 54.3077C351.596 54.4962 351.606 54.688 351.606 54.8831V58.1552H350.967V56.8336L351.152 56.9117C350.973 57.3635 350.695 57.7081 350.318 57.9455C349.941 58.1828 349.489 58.3014 348.962 58.3014ZM349.045 57.6821C349.38 57.6821 349.673 57.622 349.923 57.5017C350.173 57.3814 350.375 57.2173 350.528 57.0092C350.681 56.7979 350.78 56.5606 350.825 56.2972C350.864 56.1282 350.885 55.9429 350.889 55.7413C350.892 55.5365 350.894 55.3837 350.894 55.2829L351.167 55.4244C350.923 55.4569 350.658 55.4894 350.372 55.5219C350.089 55.5544 349.809 55.5918 349.533 55.634C349.26 55.6763 349.013 55.7267 348.792 55.7852C348.642 55.8275 348.498 55.8876 348.358 55.9656C348.218 56.0404 348.103 56.1412 348.012 56.268C347.924 56.3948 347.88 56.5524 347.88 56.741C347.88 56.8938 347.917 57.0417 347.992 57.1847C348.07 57.3278 348.194 57.4464 348.363 57.5407C348.535 57.635 348.763 57.6821 349.045 57.6821ZM352.973 58.1552V50.9868H353.689V58.1552H352.973ZM357.104 58.1552V51.1331H359.235C359.31 51.1331 359.436 51.1347 359.615 51.138C359.797 51.1412 359.971 51.1542 360.137 51.177C360.67 51.2518 361.115 51.4501 361.473 51.7719C361.831 52.0938 362.099 52.5034 362.278 53.0008C362.456 53.4982 362.546 54.0459 362.546 54.6441C362.546 55.2423 362.456 55.7901 362.278 56.2875C362.099 56.7849 361.831 57.1945 361.473 57.5163C361.115 57.8382 360.67 58.0365 360.137 58.1113C359.974 58.1308 359.8 58.1438 359.615 58.1503C359.43 58.1535 359.303 58.1552 359.235 58.1552H357.104ZM357.845 57.4676H359.235C359.368 57.4676 359.511 57.4643 359.664 57.4578C359.82 57.4481 359.953 57.4318 360.064 57.4091C360.473 57.3375 360.803 57.1717 361.054 56.9117C361.307 56.6516 361.493 56.3265 361.61 55.9364C361.727 55.543 361.785 55.1123 361.785 54.6441C361.785 54.1727 361.727 53.7404 361.61 53.347C361.493 52.9536 361.307 52.6285 361.054 52.3717C360.8 52.1149 360.47 51.9507 360.064 51.8792C359.953 51.8564 359.818 51.8418 359.659 51.8353C359.503 51.8256 359.362 51.8207 359.235 51.8207H357.845V57.4676ZM365.885 58.3014C365.371 58.3014 364.926 58.1877 364.549 57.9601C364.175 57.7325 363.884 57.4123 363.676 56.9994C363.468 56.5866 363.364 56.1022 363.364 55.5463C363.364 54.9708 363.466 54.4734 363.671 54.0541C363.876 53.6347 364.164 53.3112 364.534 53.0837C364.908 52.8561 365.349 52.7423 365.856 52.7423C366.376 52.7423 366.82 52.8626 367.187 53.1032C367.554 53.3405 367.832 53.6818 368.021 54.1272C368.209 54.5726 368.296 55.1041 368.279 55.7218H367.548V55.4682C367.535 54.7855 367.387 54.2703 367.104 53.9224C366.825 53.5746 366.415 53.4006 365.875 53.4006C365.31 53.4006 364.876 53.5843 364.573 53.9517C364.274 54.319 364.125 54.8424 364.125 55.5219C364.125 56.1851 364.274 56.7004 364.573 57.0677C364.876 57.4318 365.303 57.6139 365.856 57.6139C366.233 57.6139 366.561 57.5277 366.841 57.3554C367.124 57.1799 367.346 56.9279 367.509 56.5996L368.177 56.858C367.969 57.3164 367.662 57.6724 367.255 57.926C366.852 58.1763 366.395 58.3014 365.885 58.3014ZM363.871 55.7218V55.122H367.894V55.7218H363.871ZM372.229 58.1552C371.933 58.2169 371.64 58.2413 371.351 58.2283C371.065 58.2153 370.808 58.1535 370.581 58.043C370.356 57.9325 370.186 57.7602 370.069 57.5261C369.974 57.331 369.922 57.1344 369.913 56.936C369.906 56.7345 369.903 56.5053 369.903 56.2485V51.4257H370.615V56.2192C370.615 56.4403 370.616 56.6256 370.62 56.7751C370.626 56.9214 370.66 57.0515 370.722 57.1652C370.839 57.3831 371.024 57.5131 371.278 57.5554C371.535 57.5976 371.852 57.5879 372.229 57.5261V58.1552ZM368.776 53.503V52.8886H372.229V53.503H368.776ZM374.773 58.3014C374.377 58.3014 374.043 58.2299 373.774 58.0869C373.507 57.9438 373.307 57.7537 373.174 57.5163C373.04 57.279 372.974 57.0206 372.974 56.741C372.974 56.4549 373.031 56.2111 373.145 56.0095C373.262 55.8047 373.419 55.6373 373.618 55.5073C373.819 55.3772 374.052 55.2781 374.315 55.2098C374.581 55.1448 374.876 55.0879 375.198 55.0391C375.523 54.9871 375.84 54.9432 376.148 54.9075C376.46 54.8684 376.734 54.8311 376.968 54.7953L376.714 54.9513C376.724 54.4312 376.623 54.0459 376.412 53.7956C376.2 53.5453 375.833 53.4201 375.31 53.4201C374.949 53.4201 374.643 53.5014 374.393 53.664C374.146 53.8265 373.972 54.0833 373.871 54.4344L373.174 54.2296C373.294 53.7582 373.536 53.3925 373.9 53.1324C374.264 52.8724 374.737 52.7423 375.319 52.7423C375.801 52.7423 376.209 52.8333 376.543 53.0154C376.881 53.1942 377.12 53.4543 377.26 53.7956C377.325 53.9484 377.368 54.1191 377.387 54.3077C377.407 54.4962 377.416 54.688 377.416 54.8831V58.1552H376.777V56.8336L376.963 56.9117C376.784 57.3635 376.506 57.7081 376.129 57.9455C375.752 58.1828 375.3 58.3014 374.773 58.3014ZM374.856 57.6821C375.191 57.6821 375.484 57.622 375.734 57.5017C375.984 57.3814 376.186 57.2173 376.339 57.0092C376.491 56.7979 376.591 56.5606 376.636 56.2972C376.675 56.1282 376.696 55.9429 376.699 55.7413C376.703 55.5365 376.704 55.3837 376.704 55.2829L376.977 55.4244C376.734 55.4569 376.469 55.4894 376.183 55.5219C375.9 55.5544 375.62 55.5918 375.344 55.634C375.071 55.6763 374.824 55.7267 374.603 55.7852C374.453 55.8275 374.308 55.8876 374.169 55.9656C374.029 56.0404 373.913 56.1412 373.822 56.268C373.735 56.3948 373.691 56.5524 373.691 56.741C373.691 56.8938 373.728 57.0417 373.803 57.1847C373.881 57.3278 374.004 57.4464 374.173 57.5407C374.346 57.635 374.573 57.6821 374.856 57.6821ZM378.783 51.8889V51.0843H379.5V51.8889H378.783ZM378.783 58.1552V52.8886H379.5V58.1552H378.783ZM381.06 58.1552V50.9868H381.776V58.1552H381.06ZM385.204 58.2966C384.586 58.2966 384.077 58.1633 383.677 57.8967C383.281 57.6301 383.037 57.2595 382.946 56.7849L383.677 56.663C383.755 56.9621 383.932 57.201 384.209 57.3798C384.488 57.5554 384.833 57.6431 385.243 57.6431C385.642 57.6431 385.958 57.5602 386.189 57.3944C386.419 57.2254 386.535 56.9962 386.535 56.7069C386.535 56.5443 386.497 56.4126 386.423 56.3119C386.351 56.2078 386.203 56.1119 385.979 56.0242C385.755 55.9364 385.42 55.8323 384.974 55.7121C384.496 55.582 384.123 55.452 383.853 55.3219C383.583 55.1919 383.391 55.0424 383.277 54.8733C383.164 54.701 383.107 54.4913 383.107 54.2443C383.107 53.9452 383.191 53.6835 383.36 53.4592C383.529 53.2316 383.763 53.056 384.062 52.9325C384.362 52.8057 384.709 52.7423 385.106 52.7423C385.503 52.7423 385.857 52.8073 386.169 52.9374C386.484 53.0642 386.738 53.243 386.93 53.4738C387.122 53.7046 387.235 53.9728 387.271 54.2784L386.54 54.4101C386.491 54.1012 386.337 53.8574 386.076 53.6786C385.82 53.4965 385.493 53.4023 385.096 53.3958C384.722 53.386 384.418 53.4575 384.184 53.6103C383.95 53.7599 383.833 53.9598 383.833 54.2101C383.833 54.3499 383.876 54.4702 383.96 54.571C384.045 54.6685 384.197 54.7612 384.418 54.8489C384.643 54.9367 384.961 55.0326 385.374 55.1366C385.859 55.2602 386.239 55.3902 386.515 55.5268C386.792 55.6633 386.988 55.8242 387.105 56.0095C387.222 56.1948 387.281 56.424 387.281 56.6971C387.281 57.1945 387.096 57.5862 386.725 57.8723C386.358 58.1552 385.85 58.2966 385.204 58.2966Z" fill="#A9A9A9"/>
<circle cx="253.9" cy="38.9663" r="6.96632" fill="#D9D9D9"/>
<path d="M245.521 58.3014C245.03 58.3014 244.588 58.2202 244.195 58.0576C243.804 57.8918 243.481 57.6578 243.224 57.3554C242.971 57.0531 242.805 56.6938 242.727 56.2777L243.458 56.1558C243.575 56.6109 243.822 56.9686 244.199 57.2286C244.577 57.4855 245.027 57.6139 245.55 57.6139C245.895 57.6139 246.204 57.5602 246.477 57.4529C246.75 57.3424 246.964 57.1864 247.12 56.9848C247.276 56.7833 247.354 56.5443 247.354 56.268C247.354 56.0859 247.322 55.9315 247.257 55.8047C247.192 55.6747 247.106 55.5674 246.998 55.4829C246.891 55.3983 246.774 55.3284 246.647 55.2732C246.521 55.2147 246.397 55.1675 246.277 55.1318L244.497 54.6002C244.282 54.5385 244.084 54.4604 243.902 54.3662C243.72 54.2686 243.561 54.1532 243.424 54.0199C243.291 53.8834 243.187 53.7241 243.112 53.5421C243.037 53.36 243 53.1519 243 52.9179C243 52.5213 243.104 52.1783 243.312 51.8889C243.52 51.5996 243.804 51.3769 244.165 51.2209C244.526 51.0648 244.937 50.9884 245.399 50.9917C245.867 50.9917 246.285 51.0746 246.652 51.2404C247.023 51.4062 247.328 51.6435 247.569 51.9523C247.81 52.2579 247.969 52.6204 248.047 53.0398L247.296 53.1763C247.247 52.8707 247.135 52.6058 246.959 52.3815C246.784 52.1571 246.56 51.9848 246.287 51.8646C246.017 51.741 245.719 51.6776 245.394 51.6744C245.079 51.6744 244.798 51.728 244.55 51.8353C244.307 51.9393 244.113 52.0824 243.97 52.2644C243.827 52.4465 243.756 52.6545 243.756 52.8886C243.756 53.1259 243.821 53.3161 243.951 53.4592C244.084 53.6022 244.247 53.7144 244.438 53.7956C244.633 53.8769 244.822 53.9435 245.004 53.9956L246.379 54.4003C246.522 54.4393 246.69 54.4962 246.881 54.571C247.076 54.6425 247.265 54.7465 247.447 54.8831C247.632 55.0164 247.785 55.1919 247.905 55.4097C248.026 55.6275 248.086 55.9039 248.086 56.2387C248.086 56.5638 248.021 56.8548 247.891 57.1116C247.764 57.3684 247.584 57.5846 247.35 57.7602C247.119 57.9357 246.847 58.069 246.535 58.16C246.226 58.2543 245.888 58.3014 245.521 58.3014ZM249.088 58.1552L249.093 51.1331H249.814V55.4244L252.165 52.8886H253.12L250.653 55.5219L253.442 58.1552H252.399L249.814 55.6194V58.1552H249.088ZM254.028 51.8889V51.0843H254.745V51.8889H254.028ZM254.028 58.1552V52.8886H254.745V58.1552H254.028ZM256.305 58.1552V50.9868H257.022V58.1552H256.305ZM258.581 58.1552V50.9868H259.298V58.1552H258.581ZM262.725 58.2966C262.107 58.2966 261.598 58.1633 261.199 57.8967C260.802 57.6301 260.558 57.2595 260.467 56.7849L261.199 56.663C261.277 56.9621 261.454 57.201 261.73 57.3798C262.01 57.5554 262.354 57.6431 262.764 57.6431C263.164 57.6431 263.479 57.5602 263.71 57.3944C263.941 57.2254 264.056 56.9962 264.056 56.7069C264.056 56.5443 264.019 56.4126 263.944 56.3119C263.873 56.2078 263.725 56.1119 263.5 56.0242C263.276 55.9364 262.941 55.8323 262.496 55.7121C262.018 55.582 261.644 55.452 261.374 55.3219C261.104 55.1919 260.913 55.0424 260.799 54.8733C260.685 54.701 260.628 54.4913 260.628 54.2443C260.628 53.9452 260.713 53.6835 260.882 53.4592C261.051 53.2316 261.285 53.056 261.584 52.9325C261.883 52.8057 262.231 52.7423 262.627 52.7423C263.024 52.7423 263.378 52.8073 263.69 52.9374C264.006 53.0642 264.259 53.243 264.451 53.4738C264.643 53.7046 264.757 53.9728 264.793 54.2784L264.061 54.4101C264.012 54.1012 263.858 53.8574 263.598 53.6786C263.341 53.4965 263.014 53.4023 262.618 53.3958C262.244 53.386 261.94 53.4575 261.706 53.6103C261.472 53.7599 261.355 53.9598 261.355 54.2101C261.355 54.3499 261.397 54.4702 261.481 54.571C261.566 54.6685 261.719 54.7612 261.94 54.8489C262.164 54.9367 262.483 55.0326 262.896 55.1366C263.38 55.2602 263.76 55.3902 264.037 55.5268C264.313 55.6633 264.51 55.8242 264.627 56.0095C264.744 56.1948 264.802 56.424 264.802 56.6971C264.802 57.1945 264.617 57.5862 264.246 57.8723C263.879 58.1552 263.372 58.2966 262.725 58.2966Z" fill="#A9A9A9"/>
<g clip-path="url(#clip0_8759_14593)">
<path d="M184.695 94.4924V87.147H189.046V88.2131H185.761V90.2841H188.434V91.3553H185.761V94.4924H184.695ZM192.041 94.6404C191.66 94.6404 191.341 94.5791 191.082 94.4567C190.824 94.3343 190.613 94.1745 190.45 93.9772C190.29 93.7766 190.167 93.559 190.082 93.3243C189.997 93.0897 189.94 92.8601 189.909 92.6357C189.878 92.4112 189.863 92.214 189.863 92.044V88.9834H190.944V91.692C190.944 91.9062 190.961 92.1273 190.996 92.3551C191.033 92.5796 191.101 92.7887 191.2 92.9825C191.302 93.1764 191.443 93.3328 191.623 93.4518C191.807 93.5709 192.045 93.6304 192.337 93.6304C192.527 93.6304 192.708 93.5998 192.878 93.5386C193.048 93.4739 193.196 93.3719 193.322 93.2325C193.451 93.0931 193.551 92.9094 193.623 92.6816C193.697 92.4537 193.735 92.1766 193.735 91.8501L194.398 92.1001C194.398 92.6 194.304 93.0421 194.117 93.4263C193.93 93.8072 193.662 94.1048 193.311 94.319C192.961 94.5332 192.538 94.6404 192.041 94.6404ZM193.862 94.4924V92.9009H193.735V88.9834H194.811V94.4924H193.862ZM196.344 94.4924V86.994H197.41V94.4924H196.344ZM199.044 94.4924V86.994H200.11V94.4924H199.044ZM207.55 94.4924V91.7838C207.55 91.5696 207.532 91.3502 207.494 91.1258C207.46 90.8979 207.392 90.6871 207.29 90.4933C207.192 90.2994 207.051 90.143 206.867 90.024C206.687 89.905 206.45 89.8454 206.158 89.8454C205.967 89.8454 205.787 89.8778 205.617 89.9424C205.447 90.0036 205.298 90.1039 205.168 90.2433C205.042 90.3828 204.942 90.5664 204.867 90.7942C204.796 91.0221 204.76 91.2992 204.76 91.6257L204.097 91.3757C204.097 90.8758 204.191 90.4355 204.378 90.0546C204.565 89.6703 204.833 89.3711 205.184 89.1568C205.534 88.9426 205.957 88.8355 206.454 88.8355C206.835 88.8355 207.154 88.8967 207.413 89.0191C207.671 89.1415 207.88 89.303 208.04 89.5037C208.203 89.7009 208.328 89.9169 208.413 90.1515C208.498 90.3862 208.555 90.6157 208.586 90.8401C208.617 91.0646 208.632 91.2618 208.632 91.4319V94.4924H207.55ZM203.679 94.4924V88.9834H204.633V90.5749H204.76V94.4924H203.679ZM211.516 94.6455C211.108 94.6455 210.766 94.5706 210.491 94.421C210.216 94.268 210.006 94.0674 209.864 93.8191C209.724 93.5675 209.654 93.292 209.654 92.9927C209.654 92.7139 209.704 92.469 209.802 92.2582C209.901 92.0474 210.047 91.8688 210.241 91.7226C210.435 91.573 210.673 91.4523 210.955 91.3604C211.2 91.289 211.477 91.2261 211.787 91.1717C212.096 91.1173 212.421 91.0663 212.761 91.0187C213.104 90.9711 213.444 90.9235 213.781 90.8758L213.393 91.0901C213.4 90.6582 213.308 90.3385 213.118 90.1311C212.931 89.9203 212.608 89.8148 212.149 89.8148C211.86 89.8148 211.595 89.8829 211.353 90.0189C211.112 90.1515 210.943 90.3725 210.848 90.682L209.853 90.3759C209.989 89.9033 210.248 89.5275 210.629 89.2486C211.013 88.9698 211.523 88.8304 212.159 88.8304C212.652 88.8304 213.081 88.9154 213.444 89.0854C213.812 89.252 214.08 89.5173 214.25 89.8812C214.339 90.0614 214.393 90.2518 214.414 90.4525C214.434 90.6531 214.444 90.869 214.444 91.1003V94.4924H213.501V93.2325L213.684 93.3957C213.456 93.8174 213.166 94.132 212.812 94.3394C212.462 94.5434 212.03 94.6455 211.516 94.6455ZM211.705 93.7732C212.008 93.7732 212.268 93.7205 212.485 93.6151C212.703 93.5062 212.878 93.3685 213.011 93.2019C213.144 93.0353 213.23 92.8618 213.271 92.6816C213.329 92.5184 213.361 92.3347 213.368 92.1307C213.378 91.9266 213.383 91.7634 213.383 91.641L213.73 91.7685C213.393 91.8195 213.087 91.8654 212.812 91.9062C212.536 91.947 212.287 91.9879 212.062 92.0287C211.841 92.0661 211.644 92.112 211.47 92.1664C211.324 92.2174 211.193 92.2786 211.078 92.35C210.965 92.4214 210.875 92.5082 210.807 92.6102C210.743 92.7122 210.71 92.8363 210.71 92.9825C210.71 93.1254 210.746 93.258 210.817 93.3804C210.889 93.4994 210.998 93.5947 211.144 93.6661C211.29 93.7375 211.477 93.7732 211.705 93.7732ZM222.369 94.4924L222.375 91.0595C222.375 90.6616 222.273 90.3521 222.069 90.1311C221.864 89.9067 221.596 89.7944 221.263 89.7944C221.059 89.7944 220.872 89.842 220.701 89.9373C220.535 90.0291 220.399 90.1685 220.293 90.3555C220.191 90.5392 220.14 90.7704 220.14 91.0493L219.625 90.7891C219.618 90.4015 219.7 90.0614 219.87 89.7689C220.043 89.4765 220.278 89.2503 220.574 89.0905C220.87 88.9273 221.201 88.8457 221.569 88.8457C222.164 88.8457 222.625 89.0242 222.951 89.3813C223.277 89.7383 223.441 90.2127 223.441 90.8044L223.436 94.4924H222.369ZM215.764 94.4924V88.9834H216.713V90.5749H216.835V94.4924H215.764ZM219.069 94.4924L219.074 91.0799C219.074 90.6786 218.972 90.364 218.768 90.1362C218.568 89.9084 218.297 89.7944 217.957 89.7944C217.62 89.7944 217.348 89.9101 217.141 90.1413C216.937 90.3725 216.835 90.6752 216.835 91.0493L216.325 90.7228C216.325 90.3623 216.412 90.041 216.585 89.7587C216.758 89.4765 216.993 89.2537 217.289 89.0905C217.585 88.9273 217.92 88.8457 218.294 88.8457C218.685 88.8457 219.018 88.929 219.294 89.0956C219.569 89.2588 219.778 89.4884 219.921 89.7842C220.067 90.0801 220.14 90.4236 220.14 90.8146L220.135 94.4924H219.069ZM227.139 94.6455C226.591 94.6455 226.11 94.5264 225.695 94.2884C225.284 94.0469 224.962 93.712 224.731 93.2835C224.503 92.8516 224.389 92.3517 224.389 91.7838C224.389 91.1819 224.502 90.6599 224.726 90.2178C224.954 89.7757 225.27 89.434 225.675 89.1925C226.08 88.9511 226.551 88.8304 227.088 88.8304C227.649 88.8304 228.127 88.9613 228.521 89.2231C228.916 89.4816 229.21 89.8506 229.404 90.33C229.601 90.8095 229.679 91.3791 229.638 92.0389H228.572V91.6512C228.565 91.0119 228.443 90.5392 228.205 90.2331C227.97 89.9271 227.612 89.774 227.129 89.774C226.595 89.774 226.194 89.9424 225.925 90.279C225.656 90.6157 225.522 91.102 225.522 91.7379C225.522 92.3432 225.656 92.8125 225.925 93.1458C226.194 93.4756 226.581 93.6406 227.088 93.6406C227.421 93.6406 227.709 93.5658 227.95 93.4161C228.195 93.2631 228.385 93.0455 228.521 92.7632L229.567 93.0948C229.353 93.5879 229.028 93.9704 228.593 94.2425C228.157 94.5111 227.673 94.6455 227.139 94.6455ZM225.175 92.0389V91.2074H229.108V92.0389H225.175ZM231.563 90.6922L230.788 90.1311L231.563 89.1823L230.375 88.8508L230.671 87.9377L231.818 88.3866L231.757 87.147H232.716L232.655 88.3866L233.808 87.9377L234.104 88.8508L232.91 89.1823L233.685 90.1311L232.91 90.6922L232.237 89.672L231.563 90.6922Z" fill="#171717"/>
<rect x="184.299" y="100.362" width="203.401" height="29.9682" rx="2.86929" fill="white"/>
<rect x="184.299" y="100.362" width="203.401" height="29.9682" rx="2.86929" stroke="#E1E1E1" stroke-width="0.637621"/>
<path d="M193.672 119.494C193.159 119.494 192.724 119.354 192.367 119.075C192.01 118.797 191.765 118.423 191.632 117.953L192.535 117.739C192.589 117.987 192.72 118.198 192.928 118.372C193.139 118.545 193.38 118.632 193.652 118.632C193.829 118.632 194.009 118.589 194.193 118.504C194.376 118.416 194.518 118.273 194.616 118.076C194.684 117.94 194.723 117.79 194.733 117.627C194.744 117.46 194.749 117.265 194.749 117.04V112H195.667V117.04C195.667 117.251 195.665 117.44 195.662 117.606C195.662 117.773 195.645 117.933 195.611 118.086C195.58 118.236 195.519 118.389 195.427 118.545C195.244 118.868 194.997 119.108 194.688 119.264C194.382 119.417 194.043 119.494 193.672 119.494ZM199.545 119.499C198.997 119.499 198.524 119.375 198.126 119.126C197.732 118.878 197.428 118.535 197.213 118.096C196.999 117.657 196.892 117.154 196.892 116.586C196.892 116.008 197.001 115.501 197.219 115.066C197.436 114.631 197.744 114.292 198.142 114.051C198.54 113.806 199.007 113.684 199.545 113.684C200.095 113.684 200.57 113.808 200.968 114.056C201.366 114.301 201.67 114.643 201.881 115.081C202.095 115.517 202.202 116.018 202.202 116.586C202.202 117.161 202.095 117.668 201.881 118.106C201.667 118.542 201.361 118.883 200.963 119.132C200.565 119.376 200.092 119.499 199.545 119.499ZM199.545 118.637C200.116 118.637 200.541 118.446 200.82 118.065C201.099 117.685 201.238 117.192 201.238 116.586C201.238 115.964 201.097 115.469 200.815 115.102C200.532 114.731 200.109 114.546 199.545 114.546C199.16 114.546 198.844 114.633 198.596 114.806C198.348 114.979 198.162 115.219 198.04 115.525C197.917 115.831 197.856 116.185 197.856 116.586C197.856 117.205 197.999 117.702 198.285 118.076C198.57 118.45 198.99 118.637 199.545 118.637ZM207.248 119.346V116.586C207.248 116.324 207.224 116.073 207.176 115.831C207.132 115.59 207.052 115.374 206.937 115.183C206.825 114.99 206.671 114.837 206.478 114.724C206.287 114.612 206.046 114.556 205.753 114.556C205.525 114.556 205.318 114.595 205.131 114.673C204.947 114.748 204.789 114.864 204.657 115.02C204.524 115.177 204.42 115.374 204.345 115.612C204.274 115.847 204.238 116.124 204.238 116.443L203.642 116.26C203.642 115.726 203.737 115.268 203.927 114.888C204.121 114.503 204.391 114.209 204.738 114.005C205.088 113.798 205.5 113.694 205.973 113.694C206.33 113.694 206.634 113.75 206.886 113.862C207.137 113.975 207.347 114.124 207.513 114.311C207.68 114.495 207.811 114.702 207.906 114.933C208.001 115.161 208.067 115.394 208.105 115.632C208.146 115.867 208.166 116.09 208.166 116.301V119.346H207.248ZM203.32 119.346V112H204.136V116.056H204.238V119.346H203.32ZM213.415 119.346V116.586C213.415 116.324 213.391 116.073 213.343 115.831C213.299 115.59 213.219 115.374 213.104 115.183C212.992 114.99 212.838 114.837 212.645 114.724C212.454 114.612 212.213 114.556 211.92 114.556C211.692 114.556 211.485 114.595 211.298 114.673C211.114 114.748 210.956 114.864 210.824 115.02C210.691 115.177 210.587 115.374 210.512 115.612C210.441 115.847 210.405 116.124 210.405 116.443L209.809 116.26C209.809 115.726 209.904 115.268 210.094 114.888C210.288 114.503 210.558 114.209 210.905 114.005C211.255 113.798 211.667 113.694 212.14 113.694C212.497 113.694 212.801 113.75 213.053 113.862C213.304 113.975 213.514 114.124 213.68 114.311C213.847 114.495 213.978 114.702 214.073 114.933C214.168 115.161 214.234 115.394 214.272 115.632C214.313 115.867 214.333 116.09 214.333 116.301V119.346H213.415ZM209.487 119.346V113.837H210.303V115.311H210.405V119.346H209.487ZM217.702 119.346V112H219.966C220.041 112 220.172 112.002 220.359 112.006C220.546 112.009 220.725 112.023 220.895 112.046C221.463 112.121 221.937 112.329 222.318 112.669C222.702 113.005 222.991 113.434 223.185 113.954C223.379 114.474 223.476 115.047 223.476 115.673C223.476 116.299 223.379 116.872 223.185 117.392C222.991 117.912 222.702 118.343 222.318 118.683C221.937 119.019 221.463 119.225 220.895 119.3C220.725 119.32 220.545 119.334 220.354 119.341C220.167 119.344 220.038 119.346 219.966 119.346H217.702ZM218.635 118.479H219.966C220.096 118.479 220.24 118.475 220.4 118.468C220.56 118.458 220.699 118.443 220.818 118.423C221.22 118.348 221.544 118.179 221.793 117.918C222.041 117.656 222.223 117.329 222.338 116.938C222.454 116.547 222.512 116.125 222.512 115.673C222.512 115.211 222.452 114.784 222.333 114.393C222.218 114.002 222.036 113.677 221.787 113.418C221.539 113.16 221.216 112.995 220.818 112.924C220.699 112.9 220.558 112.885 220.395 112.878C220.232 112.871 220.089 112.868 219.966 112.868H218.635V118.479ZM226.992 119.499C226.445 119.499 225.972 119.375 225.574 119.126C225.18 118.878 224.875 118.535 224.661 118.096C224.447 117.657 224.34 117.154 224.34 116.586C224.34 116.008 224.448 115.501 224.666 115.066C224.884 114.631 225.192 114.292 225.589 114.051C225.987 113.806 226.455 113.684 226.992 113.684C227.543 113.684 228.017 113.808 228.415 114.056C228.813 114.301 229.118 114.643 229.328 115.081C229.543 115.517 229.65 116.018 229.65 116.586C229.65 117.161 229.543 117.668 229.328 118.106C229.114 118.542 228.808 118.883 228.41 119.132C228.012 119.376 227.54 119.499 226.992 119.499ZM226.992 118.637C227.563 118.637 227.989 118.446 228.267 118.065C228.546 117.685 228.686 117.192 228.686 116.586C228.686 115.964 228.545 115.469 228.262 115.102C227.98 114.731 227.557 114.546 226.992 114.546C226.608 114.546 226.292 114.633 226.043 114.806C225.795 114.979 225.61 115.219 225.487 115.525C225.365 115.831 225.304 116.185 225.304 116.586C225.304 117.205 225.447 117.702 225.732 118.076C226.018 118.45 226.438 118.637 226.992 118.637ZM233.16 119.499C232.619 119.499 232.147 119.38 231.742 119.142C231.341 118.9 231.028 118.565 230.803 118.137C230.579 117.705 230.467 117.202 230.467 116.627C230.467 116.025 230.577 115.505 230.798 115.066C231.019 114.624 231.327 114.284 231.722 114.046C232.12 113.804 232.585 113.684 233.119 113.684C233.674 113.684 234.145 113.811 234.532 114.066C234.923 114.321 235.216 114.685 235.41 115.158C235.607 115.631 235.692 116.193 235.665 116.846H234.747V116.52C234.736 115.843 234.599 115.338 234.333 115.005C234.068 114.668 233.674 114.5 233.15 114.5C232.589 114.5 232.162 114.68 231.87 115.041C231.577 115.401 231.431 115.918 231.431 116.591C231.431 117.241 231.577 117.744 231.87 118.101C232.162 118.458 232.579 118.637 233.119 118.637C233.483 118.637 233.799 118.553 234.068 118.387C234.337 118.22 234.548 117.98 234.701 117.668L235.573 117.969C235.359 118.455 235.036 118.832 234.604 119.101C234.175 119.366 233.694 119.499 233.16 119.499ZM231.125 116.846V116.117H235.195V116.846H231.125Z" fill="#A9A9A9"/>
<path d="M184.797 156.952V149.606H185.863V155.947H189.189V156.952H184.797ZM190.157 150.54V149.504H191.223V150.54H190.157ZM190.157 156.952V151.443H191.223V156.952H190.157ZM196.621 156.952V154.243C196.621 154.029 196.603 153.809 196.565 153.585C196.531 153.357 196.463 153.146 196.361 152.953C196.262 152.759 196.121 152.602 195.938 152.483C195.757 152.364 195.521 152.305 195.229 152.305C195.038 152.305 194.858 152.337 194.688 152.402C194.518 152.463 194.368 152.563 194.239 152.703C194.113 152.842 194.013 153.026 193.938 153.253C193.867 153.481 193.831 153.758 193.831 154.085L193.168 153.835C193.168 153.335 193.261 152.895 193.448 152.514C193.635 152.13 193.904 151.83 194.254 151.616C194.605 151.402 195.028 151.295 195.525 151.295C195.905 151.295 196.225 151.356 196.484 151.478C196.742 151.601 196.951 151.762 197.111 151.963C197.274 152.16 197.398 152.376 197.483 152.611C197.568 152.845 197.626 153.075 197.657 153.299C197.687 153.524 197.703 153.721 197.703 153.891V156.952H196.621ZM192.75 156.952V151.443H193.703V153.034H193.831V156.952H192.75ZM199.026 156.952L199.031 149.606H200.113V154.095L202.275 151.443H203.632L201.347 154.197L203.867 156.952H202.418L200.113 154.299V156.952H199.026ZM206.725 157.105C206.178 157.105 205.696 156.986 205.281 156.748C204.87 156.506 204.549 156.171 204.317 155.743C204.09 155.311 203.976 154.811 203.976 154.243C203.976 153.641 204.088 153.119 204.312 152.677C204.54 152.235 204.856 151.893 205.261 151.652C205.666 151.41 206.137 151.29 206.674 151.29C207.235 151.29 207.713 151.421 208.107 151.682C208.502 151.941 208.796 152.31 208.99 152.789C209.187 153.269 209.265 153.838 209.225 154.498H208.158V154.11C208.152 153.471 208.029 152.998 207.791 152.692C207.557 152.386 207.198 152.233 206.715 152.233C206.181 152.233 205.78 152.402 205.511 152.738C205.242 153.075 205.108 153.561 205.108 154.197C205.108 154.802 205.242 155.272 205.511 155.605C205.78 155.935 206.167 156.1 206.674 156.1C207.007 156.1 207.295 156.025 207.536 155.875C207.781 155.722 207.971 155.505 208.107 155.222L209.153 155.554C208.939 156.047 208.614 156.43 208.179 156.702C207.744 156.97 207.259 157.105 206.725 157.105ZM204.761 154.498V153.667H208.694V154.498H204.761ZM212.557 157.105C212.044 157.105 211.6 156.977 211.226 156.722C210.855 156.467 210.568 156.12 210.364 155.682C210.163 155.239 210.063 154.743 210.063 154.192C210.063 153.638 210.165 153.143 210.369 152.708C210.573 152.269 210.862 151.924 211.236 151.672C211.614 151.417 212.061 151.29 212.578 151.29C213.098 151.29 213.535 151.417 213.889 151.672C214.246 151.924 214.514 152.269 214.695 152.708C214.878 153.146 214.97 153.641 214.97 154.192C214.97 154.743 214.878 155.238 214.695 155.676C214.511 156.115 214.241 156.464 213.884 156.722C213.526 156.977 213.084 157.105 212.557 157.105ZM212.705 156.141C213.055 156.141 213.341 156.057 213.562 155.891C213.783 155.724 213.945 155.494 214.047 155.202C214.149 154.91 214.2 154.573 214.2 154.192C214.2 153.811 214.147 153.474 214.042 153.182C213.94 152.89 213.78 152.662 213.562 152.499C213.348 152.335 213.074 152.254 212.741 152.254C212.387 152.254 212.097 152.34 211.869 152.514C211.641 152.687 211.471 152.92 211.359 153.213C211.25 153.505 211.195 153.832 211.195 154.192C211.195 154.556 211.25 154.886 211.359 155.182C211.471 155.474 211.637 155.707 211.858 155.88C212.083 156.054 212.365 156.141 212.705 156.141ZM214.2 156.952V152.988H214.077V149.606H215.149V156.952H214.2ZM216.678 150.54V149.504H217.744V150.54H216.678ZM216.678 156.952V151.443H217.744V156.952H216.678ZM223.142 156.952V154.243C223.142 154.029 223.124 153.809 223.086 153.585C223.052 153.357 222.984 153.146 222.882 152.953C222.784 152.759 222.642 152.602 222.459 152.483C222.279 152.364 222.042 152.305 221.75 152.305C221.559 152.305 221.379 152.337 221.209 152.402C221.039 152.463 220.889 152.563 220.76 152.703C220.634 152.842 220.534 153.026 220.459 153.253C220.388 153.481 220.352 153.758 220.352 154.085L219.689 153.835C219.689 153.335 219.782 152.895 219.969 152.514C220.157 152.13 220.425 151.83 220.775 151.616C221.126 151.402 221.549 151.295 222.046 151.295C222.426 151.295 222.746 151.356 223.005 151.478C223.263 151.601 223.472 151.762 223.632 151.963C223.795 152.16 223.919 152.376 224.004 152.611C224.089 152.845 224.147 153.075 224.178 153.299C224.208 153.524 224.224 153.721 224.224 153.891V156.952H223.142ZM219.271 156.952V151.443H220.225V153.034H220.352V156.952H219.271ZM230.181 157.105C229.654 157.105 229.212 156.977 228.855 156.722C228.498 156.464 228.227 156.115 228.044 155.676C227.86 155.238 227.768 154.743 227.768 154.192C227.768 153.641 227.858 153.146 228.038 152.708C228.222 152.269 228.491 151.924 228.844 151.672C229.202 151.417 229.64 151.29 230.16 151.29C230.677 151.29 231.123 151.417 231.497 151.672C231.874 151.924 232.165 152.269 232.369 152.708C232.573 153.143 232.675 153.638 232.675 154.192C232.675 154.743 232.573 155.239 232.369 155.682C232.169 156.12 231.881 156.467 231.507 156.722C231.136 156.977 230.694 157.105 230.181 157.105ZM227.59 159.4V151.443H228.538V155.406H228.661V159.4H227.59ZM230.033 156.141C230.373 156.141 230.654 156.054 230.875 155.88C231.099 155.707 231.266 155.474 231.375 155.182C231.487 154.886 231.543 154.556 231.543 154.192C231.543 153.832 231.487 153.505 231.375 153.213C231.266 152.92 231.097 152.687 230.87 152.514C230.642 152.34 230.351 152.254 229.997 152.254C229.664 152.254 229.389 152.335 229.171 152.499C228.957 152.662 228.797 152.89 228.691 153.182C228.589 153.474 228.538 153.811 228.538 154.192C228.538 154.573 228.589 154.91 228.691 155.202C228.793 155.494 228.955 155.724 229.176 155.891C229.397 156.057 229.683 156.141 230.033 156.141ZM233.802 156.952V151.443H234.75V152.779L234.618 152.606C234.686 152.429 234.774 152.267 234.883 152.121C234.992 151.971 235.118 151.849 235.26 151.754C235.4 151.652 235.555 151.574 235.725 151.519C235.898 151.461 236.075 151.427 236.255 151.417C236.435 151.404 236.609 151.412 236.775 151.443V152.442C236.595 152.395 236.395 152.381 236.174 152.402C235.956 152.422 235.755 152.492 235.572 152.611C235.398 152.723 235.26 152.859 235.158 153.019C235.06 153.179 234.988 153.357 234.944 153.554C234.9 153.748 234.878 153.954 234.878 154.172V156.952H233.802ZM240.04 157.105C239.489 157.105 239.011 156.981 238.606 156.732C238.202 156.484 237.889 156.142 237.668 155.707C237.45 155.268 237.341 154.763 237.341 154.192C237.341 153.617 237.453 153.112 237.678 152.677C237.902 152.238 238.217 151.898 238.621 151.657C239.026 151.412 239.499 151.29 240.04 151.29C240.59 151.29 241.068 151.414 241.473 151.662C241.878 151.91 242.19 152.252 242.412 152.687C242.633 153.123 242.743 153.624 242.743 154.192C242.743 154.767 242.631 155.273 242.406 155.712C242.185 156.147 241.873 156.489 241.468 156.737C241.063 156.982 240.587 157.105 240.04 157.105ZM240.04 156.1C240.567 156.1 240.959 155.923 241.218 155.569C241.48 155.212 241.611 154.753 241.611 154.192C241.611 153.617 241.478 153.158 241.213 152.815C240.951 152.468 240.56 152.294 240.04 152.294C239.682 152.294 239.388 152.376 239.157 152.539C238.926 152.699 238.754 152.922 238.642 153.208C238.53 153.49 238.474 153.818 238.474 154.192C238.474 154.77 238.606 155.233 238.871 155.579C239.137 155.926 239.526 156.1 240.04 156.1ZM244.369 156.952V151.249C244.369 151.109 244.374 150.961 244.384 150.805C244.395 150.645 244.423 150.489 244.471 150.336C244.522 150.179 244.605 150.036 244.721 149.907C244.86 149.754 245.013 149.645 245.18 149.581C245.347 149.516 245.512 149.479 245.675 149.469C245.841 149.458 245.995 149.453 246.134 149.453H246.828V150.331H246.185C245.933 150.331 245.745 150.394 245.619 150.519C245.496 150.642 245.435 150.817 245.435 151.045V156.952H244.369ZM243.456 152.3V151.443H246.828V152.3H243.456ZM247.899 150.54V149.504H248.965V150.54H247.899ZM247.899 156.952V151.443H248.965V156.952H247.899ZM250.601 156.952V149.453H251.667V156.952H250.601ZM255.643 157.105C255.095 157.105 254.614 156.986 254.199 156.748C253.787 156.506 253.466 156.171 253.235 155.743C253.007 155.311 252.893 154.811 252.893 154.243C252.893 153.641 253.005 153.119 253.23 152.677C253.458 152.235 253.774 151.893 254.179 151.652C254.583 151.41 255.054 151.29 255.592 151.29C256.153 151.29 256.63 151.421 257.025 151.682C257.419 151.941 257.714 152.31 257.907 152.789C258.105 153.269 258.183 153.838 258.142 154.498H257.076V154.11C257.069 153.471 256.947 152.998 256.709 152.692C256.474 152.386 256.115 152.233 255.632 152.233C255.098 152.233 254.697 152.402 254.429 152.738C254.16 153.075 254.026 153.561 254.026 154.197C254.026 154.802 254.16 155.272 254.429 155.605C254.697 155.935 255.085 156.1 255.592 156.1C255.925 156.1 256.212 156.025 256.454 155.875C256.698 155.722 256.889 155.505 257.025 155.222L258.071 155.554C257.856 156.047 257.532 156.43 257.096 156.702C256.661 156.97 256.176 157.105 255.643 157.105ZM253.679 154.498V153.667H257.612V154.498H253.679Z" fill="#171717"/>
<rect x="184.299" y="162.821" width="203.401" height="29.9682" rx="2.86929" fill="white"/>
<rect x="184.299" y="162.821" width="203.401" height="29.9682" rx="2.86929" stroke="#E1E1E1" stroke-width="0.637621"/>
</g>
<defs>
<clipPath id="clip0_8759_14593">
<rect width="204" height="123.015" fill="white" transform="translate(184 83.4924)"/>
</clipPath>
</defs>
</svg>
