<svg width="588" height="536" viewBox="0 0 588 536" fill="none" xmlns="http://www.w3.org/2000/svg">
<rect width="588" height="536" rx="12" fill="url(#paint0_linear_8985_1496)"/>
<rect x="45.5" y="405.5" width="496" height="102" rx="48.5" stroke="white" stroke-opacity="0.3" stroke-dasharray="6 6"/>
<rect x="53" y="412" width="481" height="89" rx="44.5" fill="#B21450" fill-opacity="0.8"/>
<rect x="116" y="123" width="355" height="59" rx="29.5" fill="white" fill-opacity="0.12"/>
<path d="M141.6 160V145.6H144.32V160H141.6ZM154.278 160V154.9C154.278 154.653 154.265 154.34 154.238 153.96C154.211 153.573 154.128 153.187 153.988 152.8C153.848 152.413 153.618 152.09 153.298 151.83C152.985 151.57 152.538 151.44 151.958 151.44C151.725 151.44 151.475 151.477 151.208 151.55C150.941 151.623 150.691 151.767 150.458 151.98C150.225 152.187 150.031 152.493 149.878 152.9C149.731 153.307 149.658 153.847 149.658 154.52L148.098 153.78C148.098 152.927 148.271 152.127 148.618 151.38C148.965 150.633 149.485 150.03 150.178 149.57C150.878 149.11 151.758 148.88 152.818 148.88C153.665 148.88 154.355 149.023 154.888 149.31C155.421 149.597 155.835 149.96 156.128 150.4C156.428 150.84 156.641 151.3 156.768 151.78C156.895 152.253 156.971 152.687 156.998 153.08C157.025 153.473 157.038 153.76 157.038 153.94V160H154.278ZM146.898 160V149.2H149.318V152.78H149.658V160H146.898ZM162.153 160L158.233 149.2H160.953L163.513 156.68L166.073 149.2H168.793L164.873 160H162.153ZM170.4 147.7V145.3H173.12V147.7H170.4ZM170.4 160V149.2H173.12V160H170.4ZM182.198 160C181.451 160.14 180.718 160.2 179.998 160.18C179.285 160.167 178.645 160.043 178.078 159.81C177.518 159.57 177.091 159.187 176.798 158.66C176.531 158.167 176.391 157.667 176.378 157.16C176.365 156.647 176.358 156.067 176.358 155.42V146.2H179.078V155.26C179.078 155.68 179.081 156.06 179.088 156.4C179.101 156.733 179.171 157 179.298 157.2C179.538 157.58 179.921 157.787 180.448 157.82C180.975 157.853 181.558 157.827 182.198 157.74V160ZM174.518 151.3V149.2H182.198V151.3H174.518ZM188.639 160.3C187.532 160.3 186.555 160.063 185.709 159.59C184.869 159.11 184.209 158.453 183.729 157.62C183.255 156.78 183.019 155.82 183.019 154.74C183.019 153.56 183.252 152.533 183.719 151.66C184.185 150.787 184.829 150.11 185.649 149.63C186.469 149.143 187.412 148.9 188.479 148.9C189.612 148.9 190.575 149.167 191.369 149.7C192.162 150.233 192.749 150.983 193.129 151.95C193.509 152.917 193.642 154.053 193.529 155.36H190.839V154.36C190.839 153.26 190.662 152.47 190.309 151.99C189.962 151.503 189.392 151.26 188.599 151.26C187.672 151.26 186.989 151.543 186.549 152.11C186.115 152.67 185.899 153.5 185.899 154.6C185.899 155.607 186.115 156.387 186.549 156.94C186.989 157.487 187.632 157.76 188.479 157.76C189.012 157.76 189.469 157.643 189.849 157.41C190.229 157.177 190.519 156.84 190.719 156.4L193.439 157.18C193.032 158.167 192.389 158.933 191.509 159.48C190.635 160.027 189.679 160.3 188.639 160.3ZM185.059 155.36V153.34H192.219V155.36H185.059ZM203.811 160.3C203.011 160.3 202.251 160.18 201.531 159.94C200.811 159.7 200.211 159.32 199.731 158.8C199.344 158.367 199.061 157.9 198.881 157.4C198.707 156.9 198.611 156.36 198.591 155.78C198.591 155.207 198.674 154.66 198.841 154.14C199.007 153.613 199.264 153.147 199.611 152.74C199.724 152.607 199.844 152.487 199.971 152.38C200.097 152.267 200.224 152.16 200.351 152.06C199.991 151.647 199.721 151.24 199.541 150.84C199.361 150.433 199.271 149.967 199.271 149.44C199.271 148.567 199.507 147.787 199.981 147.1C200.461 146.413 201.111 145.927 201.931 145.64C202.271 145.52 202.614 145.44 202.961 145.4C203.307 145.36 203.644 145.34 203.971 145.34C204.631 145.34 205.261 145.443 205.861 145.65C206.461 145.85 206.971 146.18 207.391 146.64C207.651 146.907 207.864 147.203 208.031 147.53C208.204 147.857 208.331 148.187 208.411 148.52L205.711 149.06C205.631 148.78 205.491 148.54 205.291 148.34C205.104 148.147 204.884 148.023 204.631 147.97C204.377 147.91 204.131 147.88 203.891 147.88C203.511 147.88 203.177 147.947 202.891 148.08C202.591 148.22 202.367 148.403 202.221 148.63C202.081 148.857 202.011 149.14 202.011 149.48C202.011 149.787 202.071 150.03 202.191 150.21C202.311 150.39 202.451 150.567 202.611 150.74C202.724 150.86 202.864 151 203.031 151.16C203.204 151.32 203.384 151.487 203.571 151.66L206.871 154.72C206.871 154.607 206.871 154.473 206.871 154.32C206.871 154.167 206.871 154.027 206.871 153.9V152.26H209.231V155C209.231 155.307 209.224 155.63 209.211 155.97C209.197 156.303 209.164 156.58 209.111 156.8L210.871 158.42L209.131 160.28L207.811 159.02C207.431 159.347 207.024 159.607 206.591 159.8C206.164 159.993 205.731 160.127 205.291 160.2C205.011 160.24 204.754 160.267 204.521 160.28C204.287 160.293 204.051 160.3 203.811 160.3ZM203.931 157.72C204.084 157.72 204.231 157.713 204.371 157.7C204.511 157.687 204.651 157.667 204.791 157.64C205.004 157.6 205.197 157.543 205.371 157.47C205.551 157.39 205.711 157.3 205.851 157.2L202.331 153.96C202.191 154.02 202.064 154.093 201.951 154.18C201.844 154.267 201.751 154.36 201.671 154.46C201.564 154.607 201.481 154.777 201.421 154.97C201.361 155.163 201.331 155.38 201.331 155.62C201.331 155.907 201.374 156.157 201.461 156.37C201.554 156.577 201.664 156.767 201.791 156.94C202.011 157.22 202.331 157.42 202.751 157.54C203.171 157.66 203.564 157.72 203.931 157.72ZM221.111 160.3C220.044 160.3 219.081 160.113 218.221 159.74C217.368 159.36 216.664 158.82 216.111 158.12C215.564 157.413 215.218 156.573 215.071 155.6L217.911 155.18C218.111 156.007 218.524 156.643 219.151 157.09C219.778 157.537 220.491 157.76 221.291 157.76C221.738 157.76 222.171 157.69 222.591 157.55C223.011 157.41 223.354 157.203 223.621 156.93C223.894 156.657 224.031 156.32 224.031 155.92C224.031 155.773 224.008 155.633 223.961 155.5C223.921 155.36 223.851 155.23 223.751 155.11C223.651 154.99 223.508 154.877 223.321 154.77C223.141 154.663 222.911 154.567 222.631 154.48L218.891 153.38C218.611 153.3 218.284 153.187 217.911 153.04C217.544 152.893 217.188 152.683 216.841 152.41C216.494 152.137 216.204 151.777 215.971 151.33C215.744 150.877 215.631 150.307 215.631 149.62C215.631 148.653 215.874 147.85 216.361 147.21C216.848 146.57 217.498 146.093 218.311 145.78C219.124 145.467 220.024 145.313 221.011 145.32C222.004 145.333 222.891 145.503 223.671 145.83C224.451 146.157 225.104 146.633 225.631 147.26C226.158 147.88 226.538 148.64 226.771 149.54L223.831 150.04C223.724 149.573 223.528 149.18 223.241 148.86C222.954 148.54 222.611 148.297 222.211 148.13C221.818 147.963 221.404 147.873 220.971 147.86C220.544 147.847 220.141 147.907 219.761 148.04C219.388 148.167 219.081 148.353 218.841 148.6C218.608 148.847 218.491 149.14 218.491 149.48C218.491 149.793 218.588 150.05 218.781 150.25C218.974 150.443 219.218 150.6 219.511 150.72C219.804 150.84 220.104 150.94 220.411 151.02L222.911 151.7C223.284 151.8 223.698 151.933 224.151 152.1C224.604 152.26 225.038 152.487 225.451 152.78C225.871 153.067 226.214 153.447 226.481 153.92C226.754 154.393 226.891 154.993 226.891 155.72C226.891 156.493 226.728 157.17 226.401 157.75C226.081 158.323 225.648 158.8 225.101 159.18C224.554 159.553 223.934 159.833 223.241 160.02C222.554 160.207 221.844 160.3 221.111 160.3ZM236.049 160V154.9C236.049 154.653 236.036 154.34 236.009 153.96C235.982 153.573 235.899 153.187 235.759 152.8C235.619 152.413 235.389 152.09 235.069 151.83C234.756 151.57 234.309 151.44 233.729 151.44C233.496 151.44 233.246 151.477 232.979 151.55C232.712 151.623 232.462 151.767 232.229 151.98C231.996 152.187 231.802 152.493 231.649 152.9C231.502 153.307 231.429 153.847 231.429 154.52L229.869 153.78C229.869 152.927 230.042 152.127 230.389 151.38C230.736 150.633 231.256 150.03 231.949 149.57C232.649 149.11 233.529 148.88 234.589 148.88C235.436 148.88 236.126 149.023 236.659 149.31C237.192 149.597 237.606 149.96 237.899 150.4C238.199 150.84 238.412 151.3 238.539 151.78C238.666 152.253 238.742 152.687 238.769 153.08C238.796 153.473 238.809 153.76 238.809 153.94V160H236.049ZM228.669 160V145.6H231.089V153H231.429V160H228.669ZM245.864 160.3C244.777 160.3 243.824 160.057 243.004 159.57C242.184 159.083 241.544 158.413 241.084 157.56C240.631 156.7 240.404 155.713 240.404 154.6C240.404 153.473 240.637 152.483 241.104 151.63C241.571 150.77 242.214 150.1 243.034 149.62C243.854 149.14 244.797 148.9 245.864 148.9C246.951 148.9 247.904 149.143 248.724 149.63C249.551 150.117 250.194 150.79 250.654 151.65C251.114 152.503 251.344 153.487 251.344 154.6C251.344 155.72 251.111 156.71 250.644 157.57C250.184 158.423 249.541 159.093 248.714 159.58C247.894 160.06 246.944 160.3 245.864 160.3ZM245.864 157.76C246.737 157.76 247.387 157.467 247.814 156.88C248.247 156.287 248.464 155.527 248.464 154.6C248.464 153.64 248.244 152.873 247.804 152.3C247.371 151.727 246.724 151.44 245.864 151.44C245.271 151.44 244.784 151.573 244.404 151.84C244.024 152.107 243.741 152.477 243.554 152.95C243.374 153.423 243.284 153.973 243.284 154.6C243.284 155.567 243.501 156.337 243.934 156.91C244.374 157.477 245.017 157.76 245.864 157.76ZM253.143 160V149.2H255.543V151.84L255.283 151.5C255.423 151.127 255.61 150.787 255.843 150.48C256.076 150.173 256.363 149.92 256.703 149.72C256.963 149.56 257.246 149.437 257.553 149.35C257.86 149.257 258.176 149.2 258.503 149.18C258.83 149.153 259.156 149.16 259.483 149.2V151.74C259.183 151.647 258.833 151.617 258.433 151.65C258.04 151.677 257.683 151.767 257.363 151.92C257.043 152.067 256.773 152.263 256.553 152.51C256.333 152.75 256.166 153.037 256.053 153.37C255.94 153.697 255.883 154.067 255.883 154.48V160H253.143ZM267.465 160C266.718 160.14 265.985 160.2 265.265 160.18C264.552 160.167 263.912 160.043 263.345 159.81C262.785 159.57 262.358 159.187 262.065 158.66C261.798 158.167 261.658 157.667 261.645 157.16C261.632 156.647 261.625 156.067 261.625 155.42V146.2H264.345V155.26C264.345 155.68 264.348 156.06 264.355 156.4C264.368 156.733 264.438 157 264.565 157.2C264.805 157.58 265.188 157.787 265.715 157.82C266.242 157.853 266.825 157.827 267.465 157.74V160ZM259.785 151.3V149.2H267.465V151.3H259.785ZM269.672 160V145.3H272.392V160H269.672ZM275.19 147.7V145.3H277.91V147.7H275.19ZM275.19 160V149.2H277.91V160H275.19ZM284.728 160.3C283.368 160.3 282.268 159.993 281.428 159.38C280.594 158.76 280.088 157.887 279.908 156.76L282.688 156.34C282.801 156.847 283.051 157.243 283.438 157.53C283.831 157.817 284.328 157.96 284.928 157.96C285.421 157.96 285.801 157.867 286.068 157.68C286.334 157.487 286.468 157.22 286.468 156.88C286.468 156.667 286.414 156.497 286.308 156.37C286.201 156.237 285.961 156.107 285.588 155.98C285.221 155.853 284.648 155.687 283.868 155.48C282.988 155.253 282.284 155 281.758 154.72C281.231 154.44 280.851 154.107 280.618 153.72C280.384 153.327 280.268 152.853 280.268 152.3C280.268 151.607 280.444 151.007 280.798 150.5C281.151 149.987 281.648 149.593 282.288 149.32C282.934 149.04 283.694 148.9 284.568 148.9C285.414 148.9 286.164 149.03 286.818 149.29C287.471 149.55 287.998 149.92 288.398 150.4C288.804 150.88 289.054 151.447 289.148 152.1L286.368 152.6C286.321 152.2 286.148 151.883 285.848 151.65C285.548 151.417 285.141 151.28 284.628 151.24C284.128 151.207 283.724 151.273 283.418 151.44C283.118 151.607 282.968 151.847 282.968 152.16C282.968 152.347 283.031 152.503 283.158 152.63C283.291 152.757 283.561 152.887 283.968 153.02C284.381 153.153 285.008 153.327 285.848 153.54C286.668 153.753 287.324 154.003 287.818 154.29C288.318 154.57 288.681 154.91 288.908 155.31C289.134 155.703 289.248 156.18 289.248 156.74C289.248 157.847 288.848 158.717 288.048 159.35C287.248 159.983 286.141 160.3 284.728 160.3ZM297.525 160C296.779 160.14 296.045 160.2 295.325 160.18C294.612 160.167 293.972 160.043 293.405 159.81C292.845 159.57 292.419 159.187 292.125 158.66C291.859 158.167 291.719 157.667 291.705 157.16C291.692 156.647 291.685 156.067 291.685 155.42V146.2H294.405V155.26C294.405 155.68 294.409 156.06 294.415 156.4C294.429 156.733 294.499 157 294.625 157.2C294.865 157.58 295.249 157.787 295.775 157.82C296.302 157.853 296.885 157.827 297.525 157.74V160ZM289.845 151.3V149.2H297.525V151.3H289.845ZM309.616 160C308.869 160.14 308.136 160.2 307.416 160.18C306.703 160.167 306.063 160.043 305.496 159.81C304.936 159.57 304.509 159.187 304.216 158.66C303.949 158.167 303.809 157.667 303.796 157.16C303.783 156.647 303.776 156.067 303.776 155.42V146.2H306.496V155.26C306.496 155.68 306.499 156.06 306.506 156.4C306.519 156.733 306.589 157 306.716 157.2C306.956 157.58 307.339 157.787 307.866 157.82C308.393 157.853 308.976 157.827 309.616 157.74V160ZM301.936 151.3V149.2H309.616V151.3H301.936ZM315.897 160.3C314.81 160.3 313.857 160.057 313.037 159.57C312.217 159.083 311.577 158.413 311.117 157.56C310.663 156.7 310.437 155.713 310.437 154.6C310.437 153.473 310.67 152.483 311.137 151.63C311.603 150.77 312.247 150.1 313.067 149.62C313.887 149.14 314.83 148.9 315.897 148.9C316.983 148.9 317.937 149.143 318.757 149.63C319.583 150.117 320.227 150.79 320.687 151.65C321.147 152.503 321.377 153.487 321.377 154.6C321.377 155.72 321.143 156.71 320.677 157.57C320.217 158.423 319.573 159.093 318.747 159.58C317.927 160.06 316.977 160.3 315.897 160.3ZM315.897 157.76C316.77 157.76 317.42 157.467 317.847 156.88C318.28 156.287 318.497 155.527 318.497 154.6C318.497 153.64 318.277 152.873 317.837 152.3C317.403 151.727 316.757 151.44 315.897 151.44C315.303 151.44 314.817 151.573 314.437 151.84C314.057 152.107 313.773 152.477 313.587 152.95C313.407 153.423 313.317 153.973 313.317 154.6C313.317 155.567 313.533 156.337 313.967 156.91C314.407 157.477 315.05 157.76 315.897 157.76ZM328.476 160.3C327.402 160.3 326.506 160.05 325.786 159.55C325.066 159.05 324.522 158.37 324.156 157.51C323.796 156.65 323.616 155.68 323.616 154.6C323.616 153.52 323.796 152.55 324.156 151.69C324.516 150.83 325.046 150.15 325.746 149.65C326.446 149.15 327.309 148.9 328.336 148.9C329.369 148.9 330.269 149.147 331.036 149.64C331.802 150.133 332.396 150.81 332.816 151.67C333.242 152.523 333.456 153.5 333.456 154.6C333.456 155.68 333.246 156.65 332.826 157.51C332.412 158.37 331.832 159.05 331.086 159.55C330.339 160.05 329.469 160.3 328.476 160.3ZM323.156 164.8V149.2H325.556V156.6H325.896V164.8H323.156ZM328.036 157.88C328.622 157.88 329.102 157.733 329.476 157.44C329.849 157.147 330.126 156.753 330.306 156.26C330.486 155.76 330.576 155.207 330.576 154.6C330.576 154 330.482 153.453 330.296 152.96C330.109 152.46 329.819 152.063 329.426 151.77C329.039 151.47 328.542 151.32 327.936 151.32C327.369 151.32 326.909 151.457 326.556 151.73C326.209 152.003 325.956 152.387 325.796 152.88C325.636 153.373 325.556 153.947 325.556 154.6C325.556 155.253 325.636 155.827 325.796 156.32C325.956 156.813 326.216 157.197 326.576 157.47C326.942 157.743 327.429 157.88 328.036 157.88ZM345.04 160.3C343.6 160.3 342.357 159.987 341.31 159.36C340.27 158.733 339.467 157.857 338.9 156.73C338.34 155.603 338.06 154.293 338.06 152.8C338.06 151.307 338.34 149.997 338.9 148.87C339.467 147.743 340.27 146.867 341.31 146.24C342.357 145.613 343.6 145.3 345.04 145.3C346.693 145.3 348.08 145.71 349.2 146.53C350.327 147.35 351.12 148.46 351.58 149.86L348.84 150.62C348.573 149.747 348.123 149.07 347.49 148.59C346.857 148.103 346.04 147.86 345.04 147.86C344.127 147.86 343.363 148.063 342.75 148.47C342.143 148.877 341.687 149.45 341.38 150.19C341.073 150.93 340.92 151.8 340.92 152.8C340.92 153.8 341.073 154.67 341.38 155.41C341.687 156.15 342.143 156.723 342.75 157.13C343.363 157.537 344.127 157.74 345.04 157.74C346.04 157.74 346.857 157.497 347.49 157.01C348.123 156.523 348.573 155.847 348.84 154.98L351.58 155.74C351.12 157.14 350.327 158.25 349.2 159.07C348.08 159.89 346.693 160.3 345.04 160.3ZM356.382 160.3C355.609 160.3 354.952 160.153 354.412 159.86C353.879 159.56 353.472 159.163 353.192 158.67C352.919 158.17 352.782 157.62 352.782 157.02C352.782 156.52 352.859 156.063 353.012 155.65C353.165 155.237 353.412 154.873 353.752 154.56C354.099 154.24 354.562 153.973 355.142 153.76C355.542 153.613 356.019 153.483 356.572 153.37C357.125 153.257 357.752 153.15 358.452 153.05C359.152 152.943 359.922 152.827 360.762 152.7L359.782 153.24C359.782 152.6 359.629 152.13 359.322 151.83C359.015 151.53 358.502 151.38 357.782 151.38C357.382 151.38 356.965 151.477 356.532 151.67C356.099 151.863 355.795 152.207 355.622 152.7L353.162 151.92C353.435 151.027 353.949 150.3 354.702 149.74C355.455 149.18 356.482 148.9 357.782 148.9C358.735 148.9 359.582 149.047 360.322 149.34C361.062 149.633 361.622 150.14 362.002 150.86C362.215 151.26 362.342 151.66 362.382 152.06C362.422 152.46 362.442 152.907 362.442 153.4V160H360.062V157.78L360.402 158.24C359.875 158.967 359.305 159.493 358.692 159.82C358.085 160.14 357.315 160.3 356.382 160.3ZM356.962 158.16C357.462 158.16 357.882 158.073 358.222 157.9C358.569 157.72 358.842 157.517 359.042 157.29C359.249 157.063 359.389 156.873 359.462 156.72C359.602 156.427 359.682 156.087 359.702 155.7C359.729 155.307 359.742 154.98 359.742 154.72L360.542 154.92C359.735 155.053 359.082 155.167 358.582 155.26C358.082 155.347 357.679 155.427 357.372 155.5C357.065 155.573 356.795 155.653 356.562 155.74C356.295 155.847 356.079 155.963 355.912 156.09C355.752 156.21 355.632 156.343 355.552 156.49C355.479 156.637 355.442 156.8 355.442 156.98C355.442 157.227 355.502 157.44 355.622 157.62C355.749 157.793 355.925 157.927 356.152 158.02C356.379 158.113 356.649 158.16 356.962 158.16ZM372.002 160V154.9C372.002 154.653 371.989 154.34 371.962 153.96C371.936 153.573 371.852 153.187 371.712 152.8C371.572 152.413 371.342 152.09 371.022 151.83C370.709 151.57 370.262 151.44 369.682 151.44C369.449 151.44 369.199 151.477 368.932 151.55C368.666 151.623 368.416 151.767 368.182 151.98C367.949 152.187 367.756 152.493 367.602 152.9C367.456 153.307 367.382 153.847 367.382 154.52L365.822 153.78C365.822 152.927 365.996 152.127 366.342 151.38C366.689 150.633 367.209 150.03 367.902 149.57C368.602 149.11 369.482 148.88 370.542 148.88C371.389 148.88 372.079 149.023 372.612 149.31C373.146 149.597 373.559 149.96 373.852 150.4C374.152 150.84 374.366 151.3 374.492 151.78C374.619 152.253 374.696 152.687 374.722 153.08C374.749 153.473 374.762 153.76 374.762 153.94V160H372.002ZM364.622 160V149.2H367.042V152.78H367.382V160H364.622ZM381.142 160.3C380.148 160.3 379.278 160.05 378.532 159.55C377.785 159.05 377.202 158.37 376.782 157.51C376.368 156.65 376.162 155.68 376.162 154.6C376.162 153.5 376.372 152.523 376.792 151.67C377.218 150.81 377.815 150.133 378.582 149.64C379.348 149.147 380.248 148.9 381.282 148.9C382.308 148.9 383.172 149.15 383.872 149.65C384.572 150.15 385.102 150.83 385.462 151.69C385.822 152.55 386.002 153.52 386.002 154.6C386.002 155.68 385.818 156.65 385.452 157.51C385.092 158.37 384.552 159.05 383.832 159.55C383.112 160.05 382.215 160.3 381.142 160.3ZM381.582 157.88C382.188 157.88 382.672 157.743 383.032 157.47C383.398 157.197 383.662 156.813 383.822 156.32C383.982 155.827 384.062 155.253 384.062 154.6C384.062 153.947 383.982 153.373 383.822 152.88C383.662 152.387 383.405 152.003 383.052 151.73C382.705 151.457 382.248 151.32 381.682 151.32C381.075 151.32 380.575 151.47 380.182 151.77C379.795 152.063 379.508 152.46 379.322 152.96C379.135 153.453 379.042 154 379.042 154.6C379.042 155.207 379.132 155.76 379.312 156.26C379.492 156.753 379.768 157.147 380.142 157.44C380.515 157.733 380.995 157.88 381.582 157.88ZM384.062 160V152.6H383.722V145.6H386.462V160H384.062ZM389.062 147.7V145.3H391.782V147.7H389.062ZM389.062 160V149.2H391.782V160H389.062ZM398.76 160.3C397.766 160.3 396.896 160.05 396.15 159.55C395.403 159.05 394.82 158.37 394.4 157.51C393.986 156.65 393.78 155.68 393.78 154.6C393.78 153.5 393.99 152.523 394.41 151.67C394.836 150.81 395.433 150.133 396.2 149.64C396.966 149.147 397.866 148.9 398.9 148.9C399.926 148.9 400.79 149.15 401.49 149.65C402.19 150.15 402.72 150.83 403.08 151.69C403.44 152.55 403.62 153.52 403.62 154.6C403.62 155.68 403.436 156.65 403.07 157.51C402.71 158.37 402.17 159.05 401.45 159.55C400.73 160.05 399.833 160.3 398.76 160.3ZM399.2 157.88C399.806 157.88 400.29 157.743 400.65 157.47C401.016 157.197 401.28 156.813 401.44 156.32C401.6 155.827 401.68 155.253 401.68 154.6C401.68 153.947 401.6 153.373 401.44 152.88C401.28 152.387 401.023 152.003 400.67 151.73C400.323 151.457 399.866 151.32 399.3 151.32C398.693 151.32 398.193 151.47 397.8 151.77C397.413 152.063 397.126 152.46 396.94 152.96C396.753 153.453 396.66 154 396.66 154.6C396.66 155.207 396.75 155.76 396.93 156.26C397.11 156.753 397.386 157.147 397.76 157.44C398.133 157.733 398.613 157.88 399.2 157.88ZM401.68 160V152.6H401.34V145.6H404.08V160H401.68ZM409.48 160.3C408.706 160.3 408.05 160.153 407.51 159.86C406.976 159.56 406.57 159.163 406.29 158.67C406.016 158.17 405.88 157.62 405.88 157.02C405.88 156.52 405.956 156.063 406.11 155.65C406.263 155.237 406.51 154.873 406.85 154.56C407.196 154.24 407.66 153.973 408.24 153.76C408.64 153.613 409.116 153.483 409.67 153.37C410.223 153.257 410.85 153.15 411.55 153.05C412.25 152.943 413.02 152.827 413.86 152.7L412.88 153.24C412.88 152.6 412.726 152.13 412.42 151.83C412.113 151.53 411.6 151.38 410.88 151.38C410.48 151.38 410.063 151.477 409.63 151.67C409.196 151.863 408.893 152.207 408.72 152.7L406.26 151.92C406.533 151.027 407.046 150.3 407.8 149.74C408.553 149.18 409.58 148.9 410.88 148.9C411.833 148.9 412.68 149.047 413.42 149.34C414.16 149.633 414.72 150.14 415.1 150.86C415.313 151.26 415.44 151.66 415.48 152.06C415.52 152.46 415.54 152.907 415.54 153.4V160H413.16V157.78L413.5 158.24C412.973 158.967 412.403 159.493 411.79 159.82C411.183 160.14 410.413 160.3 409.48 160.3ZM410.06 158.16C410.56 158.16 410.98 158.073 411.32 157.9C411.666 157.72 411.94 157.517 412.14 157.29C412.346 157.063 412.486 156.873 412.56 156.72C412.7 156.427 412.78 156.087 412.8 155.7C412.826 155.307 412.84 154.98 412.84 154.72L413.64 154.92C412.833 155.053 412.18 155.167 411.68 155.26C411.18 155.347 410.776 155.427 410.47 155.5C410.163 155.573 409.893 155.653 409.66 155.74C409.393 155.847 409.176 155.963 409.01 156.09C408.85 156.21 408.73 156.343 408.65 156.49C408.576 156.637 408.54 156.8 408.54 156.98C408.54 157.227 408.6 157.44 408.72 157.62C408.846 157.793 409.023 157.927 409.25 158.02C409.476 158.113 409.746 158.16 410.06 158.16ZM424.22 160C423.473 160.14 422.74 160.2 422.02 160.18C421.307 160.167 420.667 160.043 420.1 159.81C419.54 159.57 419.113 159.187 418.82 158.66C418.553 158.167 418.413 157.667 418.4 157.16C418.387 156.647 418.38 156.067 418.38 155.42V146.2H421.1V155.26C421.1 155.68 421.103 156.06 421.11 156.4C421.123 156.733 421.193 157 421.32 157.2C421.56 157.58 421.943 157.787 422.47 157.82C422.997 157.853 423.58 157.827 424.22 157.74V160ZM416.54 151.3V149.2H424.22V151.3H416.54ZM430.661 160.3C429.554 160.3 428.577 160.063 427.731 159.59C426.891 159.11 426.231 158.453 425.751 157.62C425.277 156.78 425.041 155.82 425.041 154.74C425.041 153.56 425.274 152.533 425.741 151.66C426.207 150.787 426.851 150.11 427.671 149.63C428.491 149.143 429.434 148.9 430.501 148.9C431.634 148.9 432.597 149.167 433.391 149.7C434.184 150.233 434.771 150.983 435.151 151.95C435.531 152.917 435.664 154.053 435.551 155.36H432.861V154.36C432.861 153.26 432.684 152.47 432.331 151.99C431.984 151.503 431.414 151.26 430.621 151.26C429.694 151.26 429.011 151.543 428.571 152.11C428.137 152.67 427.921 153.5 427.921 154.6C427.921 155.607 428.137 156.387 428.571 156.94C429.011 157.487 429.654 157.76 430.501 157.76C431.034 157.76 431.491 157.643 431.871 157.41C432.251 157.177 432.541 156.84 432.741 156.4L435.461 157.18C435.054 158.167 434.411 158.933 433.531 159.48C432.657 160.027 431.701 160.3 430.661 160.3ZM427.081 155.36V153.34H434.241V155.36H427.081ZM441.629 160.3C440.269 160.3 439.169 159.993 438.329 159.38C437.495 158.76 436.989 157.887 436.809 156.76L439.589 156.34C439.702 156.847 439.952 157.243 440.339 157.53C440.732 157.817 441.229 157.96 441.829 157.96C442.322 157.96 442.702 157.867 442.969 157.68C443.235 157.487 443.369 157.22 443.369 156.88C443.369 156.667 443.315 156.497 443.209 156.37C443.102 156.237 442.862 156.107 442.489 155.98C442.122 155.853 441.549 155.687 440.769 155.48C439.889 155.253 439.185 155 438.659 154.72C438.132 154.44 437.752 154.107 437.519 153.72C437.285 153.327 437.169 152.853 437.169 152.3C437.169 151.607 437.345 151.007 437.699 150.5C438.052 149.987 438.549 149.593 439.189 149.32C439.835 149.04 440.595 148.9 441.469 148.9C442.315 148.9 443.065 149.03 443.719 149.29C444.372 149.55 444.899 149.92 445.299 150.4C445.705 150.88 445.955 151.447 446.049 152.1L443.269 152.6C443.222 152.2 443.049 151.883 442.749 151.65C442.449 151.417 442.042 151.28 441.529 151.24C441.029 151.207 440.625 151.273 440.319 151.44C440.019 151.607 439.869 151.847 439.869 152.16C439.869 152.347 439.932 152.503 440.059 152.63C440.192 152.757 440.462 152.887 440.869 153.02C441.282 153.153 441.909 153.327 442.749 153.54C443.569 153.753 444.225 154.003 444.719 154.29C445.219 154.57 445.582 154.91 445.809 155.31C446.035 155.703 446.149 156.18 446.149 156.74C446.149 157.847 445.749 158.717 444.949 159.35C444.149 159.983 443.042 160.3 441.629 160.3Z" fill="white"/>
<g filter="url(#filter0_b_8985_1496)">
<rect x="278" y="108" width="31" height="31" rx="15.5" fill="url(#paint1_linear_8985_1496)" fill-opacity="0.4"/>
<g filter="url(#filter1_d_8985_1496)">
<rect x="282.509" y="112.509" width="21.4845" height="21.4845" rx="10.7422" fill="url(#paint2_linear_8985_1496)" shape-rendering="crispEdges"/>
<path d="M293.108 128.09V121.945L291.658 122.837V121.226L293.108 120.355H294.601V128.09H293.108Z" fill="white"/>
</g>
</g>
<path d="M226.68 70V52.72H237.24V55.984H229.944V59.728H235.8V62.992H229.944V70H226.68ZM239.167 55.24V52.36H242.431V55.24H239.167ZM239.167 70V57.04H242.431V70H239.167ZM254.38 70V63.88C254.38 63.584 254.364 63.208 254.332 62.752C254.3 62.288 254.2 61.824 254.032 61.36C253.864 60.896 253.588 60.508 253.204 60.196C252.828 59.884 252.292 59.728 251.596 59.728C251.316 59.728 251.016 59.772 250.696 59.86C250.376 59.948 250.076 60.12 249.796 60.376C249.516 60.624 249.284 60.992 249.1 61.48C248.924 61.968 248.836 62.616 248.836 63.424L246.964 62.536C246.964 61.512 247.172 60.552 247.588 59.656C248.004 58.76 248.628 58.036 249.46 57.484C250.3 56.932 251.356 56.656 252.628 56.656C253.644 56.656 254.472 56.828 255.112 57.172C255.752 57.516 256.248 57.952 256.6 58.48C256.96 59.008 257.216 59.56 257.368 60.136C257.52 60.704 257.612 61.224 257.644 61.696C257.676 62.168 257.692 62.512 257.692 62.728V70H254.38ZM245.524 70V57.04H248.428V61.336H248.836V70H245.524ZM268.102 70C267.206 70.168 266.326 70.24 265.462 70.216C264.606 70.2 263.838 70.052 263.158 69.772C262.486 69.484 261.974 69.024 261.622 68.392C261.302 67.8 261.134 67.2 261.118 66.592C261.102 65.976 261.094 65.28 261.094 64.504V53.44H264.358V64.312C264.358 64.816 264.362 65.272 264.37 65.68C264.386 66.08 264.47 66.4 264.622 66.64C264.91 67.096 265.37 67.344 266.002 67.384C266.634 67.424 267.334 67.392 268.102 67.288V70ZM258.886 59.56V57.04H268.102V59.56H258.886ZM274.11 70.36C273.182 70.36 272.394 70.184 271.746 69.832C271.106 69.472 270.618 68.996 270.282 68.404C269.954 67.804 269.79 67.144 269.79 66.424C269.79 65.824 269.882 65.276 270.066 64.78C270.25 64.284 270.546 63.848 270.954 63.472C271.37 63.088 271.926 62.768 272.622 62.512C273.102 62.336 273.674 62.18 274.338 62.044C275.002 61.908 275.754 61.78 276.594 61.66C277.434 61.532 278.358 61.392 279.366 61.24L278.19 61.888C278.19 61.12 278.006 60.556 277.638 60.196C277.27 59.836 276.654 59.656 275.79 59.656C275.31 59.656 274.81 59.772 274.29 60.004C273.77 60.236 273.406 60.648 273.198 61.24L270.246 60.304C270.574 59.232 271.19 58.36 272.094 57.688C272.998 57.016 274.23 56.68 275.79 56.68C276.934 56.68 277.95 56.856 278.838 57.208C279.726 57.56 280.398 58.168 280.854 59.032C281.11 59.512 281.262 59.992 281.31 60.472C281.358 60.952 281.382 61.488 281.382 62.08V70H278.526V67.336L278.934 67.888C278.302 68.76 277.618 69.392 276.882 69.784C276.154 70.168 275.23 70.36 274.11 70.36ZM274.806 67.792C275.406 67.792 275.91 67.688 276.318 67.48C276.734 67.264 277.062 67.02 277.302 66.748C277.55 66.476 277.718 66.248 277.806 66.064C277.974 65.712 278.07 65.304 278.094 64.84C278.126 64.368 278.142 63.976 278.142 63.664L279.102 63.904C278.134 64.064 277.35 64.2 276.75 64.312C276.15 64.416 275.666 64.512 275.298 64.6C274.93 64.688 274.606 64.784 274.326 64.888C274.006 65.016 273.746 65.156 273.546 65.308C273.354 65.452 273.21 65.612 273.114 65.788C273.026 65.964 272.982 66.16 272.982 66.376C272.982 66.672 273.054 66.928 273.198 67.144C273.35 67.352 273.562 67.512 273.834 67.624C274.106 67.736 274.43 67.792 274.806 67.792ZM284.262 70V52.36H287.526V70H284.262ZM296.668 70.36C295.34 70.36 294.168 70.076 293.152 69.508C292.144 68.932 291.352 68.144 290.776 67.144C290.208 66.136 289.924 64.984 289.924 63.688C289.924 62.272 290.204 61.04 290.764 59.992C291.324 58.944 292.096 58.132 293.08 57.556C294.064 56.972 295.196 56.68 296.476 56.68C297.836 56.68 298.992 57 299.944 57.64C300.896 58.28 301.6 59.18 302.056 60.34C302.512 61.5 302.672 62.864 302.536 64.432H299.308V63.232C299.308 61.912 299.096 60.964 298.672 60.388C298.256 59.804 297.572 59.512 296.62 59.512C295.508 59.512 294.688 59.852 294.16 60.532C293.64 61.204 293.38 62.2 293.38 63.52C293.38 64.728 293.64 65.664 294.16 66.328C294.688 66.984 295.46 67.312 296.476 67.312C297.116 67.312 297.664 67.172 298.12 66.892C298.576 66.612 298.924 66.208 299.164 65.68L302.428 66.616C301.94 67.8 301.168 68.72 300.112 69.376C299.064 70.032 297.916 70.36 296.668 70.36ZM292.372 64.432V62.008H300.964V64.432H292.372ZM313.246 70V63.88C313.246 63.584 313.23 63.208 313.198 62.752C313.166 62.288 313.066 61.824 312.898 61.36C312.73 60.896 312.454 60.508 312.07 60.196C311.694 59.884 311.158 59.728 310.462 59.728C310.182 59.728 309.882 59.772 309.562 59.86C309.242 59.948 308.942 60.12 308.662 60.376C308.382 60.624 308.15 60.992 307.966 61.48C307.79 61.968 307.702 62.616 307.702 63.424L305.83 62.536C305.83 61.512 306.038 60.552 306.454 59.656C306.87 58.76 307.494 58.036 308.326 57.484C309.166 56.932 310.222 56.656 311.494 56.656C312.51 56.656 313.338 56.828 313.978 57.172C314.618 57.516 315.114 57.952 315.466 58.48C315.826 59.008 316.082 59.56 316.234 60.136C316.386 60.704 316.478 61.224 316.51 61.696C316.542 62.168 316.558 62.512 316.558 62.728V70H313.246ZM304.39 70V57.04H307.294V61.336H307.702V70H304.39ZM326.968 70C326.072 70.168 325.192 70.24 324.328 70.216C323.472 70.2 322.704 70.052 322.024 69.772C321.352 69.484 320.84 69.024 320.488 68.392C320.168 67.8 320 67.2 319.984 66.592C319.968 65.976 319.96 65.28 319.96 64.504V53.44H323.224V64.312C323.224 64.816 323.228 65.272 323.236 65.68C323.252 66.08 323.336 66.4 323.488 66.64C323.776 67.096 324.236 67.344 324.868 67.384C325.5 67.424 326.2 67.392 326.968 67.288V70ZM317.752 59.56V57.04H326.968V59.56H317.752ZM336.46 70L332.5 57.016L335.692 57.04L338.044 64.768L340.432 57.04H343.144L345.532 64.768L347.884 57.04H351.076L347.116 70H344.62L341.788 61.552L338.956 70H336.46ZM355.641 70.36C354.713 70.36 353.925 70.184 353.277 69.832C352.637 69.472 352.149 68.996 351.813 68.404C351.485 67.804 351.321 67.144 351.321 66.424C351.321 65.824 351.413 65.276 351.597 64.78C351.781 64.284 352.077 63.848 352.485 63.472C352.901 63.088 353.457 62.768 354.153 62.512C354.633 62.336 355.205 62.18 355.869 62.044C356.533 61.908 357.285 61.78 358.125 61.66C358.965 61.532 359.889 61.392 360.897 61.24L359.721 61.888C359.721 61.12 359.537 60.556 359.169 60.196C358.801 59.836 358.185 59.656 357.321 59.656C356.841 59.656 356.341 59.772 355.821 60.004C355.301 60.236 354.937 60.648 354.729 61.24L351.777 60.304C352.105 59.232 352.721 58.36 353.625 57.688C354.529 57.016 355.761 56.68 357.321 56.68C358.465 56.68 359.481 56.856 360.369 57.208C361.257 57.56 361.929 58.168 362.385 59.032C362.641 59.512 362.793 59.992 362.841 60.472C362.889 60.952 362.913 61.488 362.913 62.08V70H360.057V67.336L360.465 67.888C359.833 68.76 359.149 69.392 358.413 69.784C357.685 70.168 356.761 70.36 355.641 70.36ZM356.337 67.792C356.937 67.792 357.441 67.688 357.849 67.48C358.265 67.264 358.593 67.02 358.833 66.748C359.081 66.476 359.249 66.248 359.337 66.064C359.505 65.712 359.601 65.304 359.625 64.84C359.657 64.368 359.673 63.976 359.673 63.664L360.633 63.904C359.665 64.064 358.881 64.2 358.281 64.312C357.681 64.416 357.197 64.512 356.829 64.6C356.461 64.688 356.137 64.784 355.857 64.888C355.537 65.016 355.277 65.156 355.077 65.308C354.885 65.452 354.741 65.612 354.645 65.788C354.557 65.964 354.513 66.16 354.513 66.376C354.513 66.672 354.585 66.928 354.729 67.144C354.881 67.352 355.093 67.512 355.365 67.624C355.637 67.736 355.961 67.792 356.337 67.792ZM366.482 75.76L368.978 68.896L369.026 70.912L363.386 57.04H366.77L370.562 66.856H369.794L373.562 57.04H376.826L369.506 75.76H366.482Z" fill="white"/>
<path d="M211.68 466V448.72H214.944V455.824H222.672V448.72H225.936V466H222.672V458.872H214.944V466H211.68ZM229.065 451.24V448.36H232.329V451.24H229.065ZM229.065 466V453.04H232.329V466H229.065ZM235.447 466V453.04H238.327V456.208L238.015 455.8C238.183 455.352 238.407 454.944 238.687 454.576C238.967 454.208 239.311 453.904 239.719 453.664C240.031 453.472 240.371 453.324 240.739 453.22C241.107 453.108 241.487 453.04 241.879 453.016C242.271 452.984 242.663 452.992 243.055 453.04V456.088C242.695 455.976 242.275 455.94 241.795 455.98C241.323 456.012 240.895 456.12 240.511 456.304C240.127 456.48 239.803 456.716 239.539 457.012C239.275 457.3 239.075 457.644 238.939 458.044C238.803 458.436 238.735 458.88 238.735 459.376V466H235.447ZM250.647 466.36C249.319 466.36 248.147 466.076 247.131 465.508C246.123 464.932 245.331 464.144 244.755 463.144C244.187 462.136 243.903 460.984 243.903 459.688C243.903 458.272 244.183 457.04 244.743 455.992C245.303 454.944 246.075 454.132 247.059 453.556C248.043 452.972 249.175 452.68 250.455 452.68C251.815 452.68 252.971 453 253.923 453.64C254.875 454.28 255.579 455.18 256.035 456.34C256.491 457.5 256.651 458.864 256.515 460.432H253.287V459.232C253.287 457.912 253.075 456.964 252.651 456.388C252.235 455.804 251.551 455.512 250.599 455.512C249.487 455.512 248.667 455.852 248.139 456.532C247.619 457.204 247.359 458.2 247.359 459.52C247.359 460.728 247.619 461.664 248.139 462.328C248.667 462.984 249.439 463.312 250.455 463.312C251.095 463.312 251.643 463.172 252.099 462.892C252.555 462.612 252.903 462.208 253.143 461.68L256.407 462.616C255.919 463.8 255.147 464.72 254.091 465.376C253.043 466.032 251.895 466.36 250.647 466.36ZM246.351 460.432V458.008H254.943V460.432H246.351ZM263.309 466V448.72H266.573V466H263.309ZM278.523 466V459.88C278.523 459.584 278.507 459.208 278.475 458.752C278.443 458.288 278.343 457.824 278.175 457.36C278.007 456.896 277.731 456.508 277.347 456.196C276.971 455.884 276.435 455.728 275.739 455.728C275.459 455.728 275.159 455.772 274.839 455.86C274.519 455.948 274.219 456.12 273.939 456.376C273.659 456.624 273.427 456.992 273.243 457.48C273.067 457.968 272.979 458.616 272.979 459.424L271.107 458.536C271.107 457.512 271.315 456.552 271.731 455.656C272.147 454.76 272.771 454.036 273.603 453.484C274.443 452.932 275.499 452.656 276.771 452.656C277.787 452.656 278.615 452.828 279.255 453.172C279.895 453.516 280.391 453.952 280.743 454.48C281.103 455.008 281.359 455.56 281.511 456.136C281.663 456.704 281.755 457.224 281.787 457.696C281.819 458.168 281.835 458.512 281.835 458.728V466H278.523ZM269.667 466V453.04H272.571V457.336H272.979V466H269.667ZM289.532 466.36C287.9 466.36 286.58 465.992 285.572 465.256C284.572 464.512 283.964 463.464 283.748 462.112L287.084 461.608C287.22 462.216 287.52 462.692 287.984 463.036C288.456 463.38 289.052 463.552 289.772 463.552C290.364 463.552 290.82 463.44 291.14 463.216C291.46 462.984 291.62 462.664 291.62 462.256C291.62 462 291.556 461.796 291.428 461.644C291.3 461.484 291.012 461.328 290.564 461.176C290.124 461.024 289.436 460.824 288.5 460.576C287.444 460.304 286.6 460 285.968 459.664C285.336 459.328 284.88 458.928 284.6 458.464C284.32 457.992 284.18 457.424 284.18 456.76C284.18 455.928 284.392 455.208 284.816 454.6C285.24 453.984 285.836 453.512 286.604 453.184C287.38 452.848 288.292 452.68 289.34 452.68C290.356 452.68 291.256 452.836 292.04 453.148C292.824 453.46 293.456 453.904 293.936 454.48C294.424 455.056 294.724 455.736 294.836 456.52L291.5 457.12C291.444 456.64 291.236 456.26 290.876 455.98C290.516 455.7 290.028 455.536 289.412 455.488C288.812 455.448 288.328 455.528 287.96 455.728C287.6 455.928 287.42 456.216 287.42 456.592C287.42 456.816 287.496 457.004 287.648 457.156C287.808 457.308 288.132 457.464 288.62 457.624C289.116 457.784 289.868 457.992 290.876 458.248C291.86 458.504 292.648 458.804 293.24 459.148C293.84 459.484 294.276 459.892 294.548 460.372C294.82 460.844 294.956 461.416 294.956 462.088C294.956 463.416 294.476 464.46 293.516 465.22C292.556 465.98 291.228 466.36 289.532 466.36ZM304.889 466C303.993 466.168 303.113 466.24 302.249 466.216C301.393 466.2 300.625 466.052 299.945 465.772C299.273 465.484 298.761 465.024 298.409 464.392C298.089 463.8 297.921 463.2 297.905 462.592C297.889 461.976 297.881 461.28 297.881 460.504V449.44H301.145V460.312C301.145 460.816 301.149 461.272 301.157 461.68C301.173 462.08 301.257 462.4 301.409 462.64C301.697 463.096 302.157 463.344 302.789 463.384C303.421 463.424 304.121 463.392 304.889 463.288V466ZM295.673 455.56V453.04H304.889V455.56H295.673ZM310.898 466.36C309.97 466.36 309.182 466.184 308.534 465.832C307.894 465.472 307.406 464.996 307.07 464.404C306.742 463.804 306.578 463.144 306.578 462.424C306.578 461.824 306.67 461.276 306.854 460.78C307.038 460.284 307.334 459.848 307.742 459.472C308.158 459.088 308.714 458.768 309.41 458.512C309.89 458.336 310.462 458.18 311.126 458.044C311.79 457.908 312.542 457.78 313.382 457.66C314.222 457.532 315.146 457.392 316.154 457.24L314.978 457.888C314.978 457.12 314.794 456.556 314.426 456.196C314.058 455.836 313.442 455.656 312.578 455.656C312.098 455.656 311.598 455.772 311.078 456.004C310.558 456.236 310.194 456.648 309.986 457.24L307.034 456.304C307.362 455.232 307.978 454.36 308.882 453.688C309.786 453.016 311.018 452.68 312.578 452.68C313.722 452.68 314.738 452.856 315.626 453.208C316.514 453.56 317.186 454.168 317.642 455.032C317.898 455.512 318.05 455.992 318.098 456.472C318.146 456.952 318.17 457.488 318.17 458.08V466H315.314V463.336L315.722 463.888C315.09 464.76 314.406 465.392 313.67 465.784C312.942 466.168 312.018 466.36 310.898 466.36ZM311.594 463.792C312.194 463.792 312.698 463.688 313.106 463.48C313.522 463.264 313.85 463.02 314.09 462.748C314.338 462.476 314.506 462.248 314.594 462.064C314.762 461.712 314.858 461.304 314.882 460.84C314.914 460.368 314.93 459.976 314.93 459.664L315.89 459.904C314.922 460.064 314.138 460.2 313.538 460.312C312.938 460.416 312.454 460.512 312.086 460.6C311.718 460.688 311.394 460.784 311.114 460.888C310.794 461.016 310.534 461.156 310.334 461.308C310.142 461.452 309.998 461.612 309.902 461.788C309.814 461.964 309.77 462.16 309.77 462.376C309.77 462.672 309.842 462.928 309.986 463.144C310.138 463.352 310.35 463.512 310.622 463.624C310.894 463.736 311.218 463.792 311.594 463.792ZM329.642 466V459.88C329.642 459.584 329.626 459.208 329.594 458.752C329.562 458.288 329.462 457.824 329.294 457.36C329.126 456.896 328.85 456.508 328.466 456.196C328.09 455.884 327.554 455.728 326.858 455.728C326.578 455.728 326.278 455.772 325.958 455.86C325.638 455.948 325.338 456.12 325.058 456.376C324.778 456.624 324.546 456.992 324.362 457.48C324.186 457.968 324.098 458.616 324.098 459.424L322.226 458.536C322.226 457.512 322.434 456.552 322.85 455.656C323.266 454.76 323.89 454.036 324.722 453.484C325.562 452.932 326.618 452.656 327.89 452.656C328.906 452.656 329.734 452.828 330.374 453.172C331.014 453.516 331.51 453.952 331.862 454.48C332.222 455.008 332.478 455.56 332.63 456.136C332.782 456.704 332.874 457.224 332.906 457.696C332.938 458.168 332.954 458.512 332.954 458.728V466H329.642ZM320.786 466V453.04H323.69V457.336H324.098V466H320.786ZM343.364 466C342.468 466.168 341.588 466.24 340.724 466.216C339.868 466.2 339.1 466.052 338.42 465.772C337.748 465.484 337.236 465.024 336.884 464.392C336.564 463.8 336.396 463.2 336.38 462.592C336.364 461.976 336.356 461.28 336.356 460.504V449.44H339.62V460.312C339.62 460.816 339.624 461.272 339.632 461.68C339.648 462.08 339.732 462.4 339.884 462.64C340.172 463.096 340.632 463.344 341.264 463.384C341.896 463.424 342.596 463.392 343.364 463.288V466ZM334.148 455.56V453.04H343.364V455.56H334.148ZM346.012 466V448.36H349.276V466H346.012ZM354.049 471.76L356.545 464.896L356.593 466.912L350.953 453.04H354.337L358.129 462.856H357.361L361.129 453.04H364.393L357.073 471.76H354.049ZM371.125 466V463.12H374.389V466H371.125ZM371.125 461.68V448.72H374.389V461.68H371.125Z" fill="white"/>
<g filter="url(#filter2_b_8985_1496)">
<rect x="266" y="383" width="55" height="55" rx="27.5" fill="url(#paint3_linear_8985_1496)" fill-opacity="0.4"/>
<g filter="url(#filter3_d_8985_1496)">
<rect x="274" y="391" width="38.1176" height="38.1176" rx="19.0588" fill="url(#paint4_linear_8985_1496)" shape-rendering="crispEdges"/>
<path d="M292.4 417L296.75 408.5H293.75V403L289.25 411.5H292.4V417ZM293 420C291.617 420 290.317 419.737 289.1 419.212C287.883 418.687 286.825 417.974 285.925 417.075C285.025 416.175 284.313 415.117 283.788 413.9C283.263 412.683 283.001 411.383 283 410C283 408.617 283.263 407.317 283.788 406.1C284.313 404.883 285.026 403.825 285.925 402.925C286.825 402.025 287.883 401.313 289.1 400.788C290.317 400.263 291.617 400.001 293 400C294.383 400 295.683 400.263 296.9 400.788C298.117 401.313 299.175 402.026 300.075 402.925C300.975 403.825 301.688 404.883 302.213 406.1C302.738 407.317 303.001 408.617 303 410C303 411.383 302.737 412.683 302.212 413.9C301.687 415.117 300.974 416.175 300.075 417.075C299.175 417.975 298.117 418.688 296.9 419.213C295.683 419.738 294.383 420.001 293 420Z" fill="white"/>
</g>
</g>
<path d="M294 383L294 339" stroke="white" stroke-opacity="0.3" stroke-dasharray="6 6"/>
<path d="M294 252L294 213" stroke="white" stroke-opacity="0.3" stroke-dasharray="6 6"/>
<g filter="url(#filter4_b_8985_1496)">
<rect x="121" y="272" width="345" height="59" rx="29.5" fill="white" fill-opacity="0.12"/>
<path d="M151.84 309.3C150.773 309.3 149.81 309.113 148.95 308.74C148.097 308.36 147.393 307.82 146.84 307.12C146.293 306.413 145.947 305.573 145.8 304.6L148.64 304.18C148.84 305.007 149.253 305.643 149.88 306.09C150.507 306.537 151.22 306.76 152.02 306.76C152.467 306.76 152.9 306.69 153.32 306.55C153.74 306.41 154.083 306.203 154.35 305.93C154.623 305.657 154.76 305.32 154.76 304.92C154.76 304.773 154.737 304.633 154.69 304.5C154.65 304.36 154.58 304.23 154.48 304.11C154.38 303.99 154.237 303.877 154.05 303.77C153.87 303.663 153.64 303.567 153.36 303.48L149.62 302.38C149.34 302.3 149.013 302.187 148.64 302.04C148.273 301.893 147.917 301.683 147.57 301.41C147.223 301.137 146.933 300.777 146.7 300.33C146.473 299.877 146.36 299.307 146.36 298.62C146.36 297.653 146.603 296.85 147.09 296.21C147.577 295.57 148.227 295.093 149.04 294.78C149.853 294.467 150.753 294.313 151.74 294.32C152.733 294.333 153.62 294.503 154.4 294.83C155.18 295.157 155.833 295.633 156.36 296.26C156.887 296.88 157.267 297.64 157.5 298.54L154.56 299.04C154.453 298.573 154.257 298.18 153.97 297.86C153.683 297.54 153.34 297.297 152.94 297.13C152.547 296.963 152.133 296.873 151.7 296.86C151.273 296.847 150.87 296.907 150.49 297.04C150.117 297.167 149.81 297.353 149.57 297.6C149.337 297.847 149.22 298.14 149.22 298.48C149.22 298.793 149.317 299.05 149.51 299.25C149.703 299.443 149.947 299.6 150.24 299.72C150.533 299.84 150.833 299.94 151.14 300.02L153.64 300.7C154.013 300.8 154.427 300.933 154.88 301.1C155.333 301.26 155.767 301.487 156.18 301.78C156.6 302.067 156.943 302.447 157.21 302.92C157.483 303.393 157.62 303.993 157.62 304.72C157.62 305.493 157.457 306.17 157.13 306.75C156.81 307.323 156.377 307.8 155.83 308.18C155.283 308.553 154.663 308.833 153.97 309.02C153.283 309.207 152.573 309.3 151.84 309.3ZM164.178 309.3C163.058 309.3 162.098 309.05 161.298 308.55C160.498 308.05 159.885 307.37 159.458 306.51C159.031 305.65 158.818 304.68 158.818 303.6C158.818 302.507 159.038 301.53 159.478 300.67C159.925 299.81 160.551 299.133 161.358 298.64C162.165 298.147 163.118 297.9 164.218 297.9C165.491 297.9 166.558 298.223 167.418 298.87C168.285 299.51 168.838 300.387 169.078 301.5L166.358 302.22C166.198 301.66 165.918 301.223 165.518 300.91C165.125 300.597 164.678 300.44 164.178 300.44C163.605 300.44 163.135 300.58 162.768 300.86C162.401 301.133 162.131 301.51 161.958 301.99C161.785 302.463 161.698 303 161.698 303.6C161.698 304.54 161.905 305.303 162.318 305.89C162.738 306.47 163.358 306.76 164.178 306.76C164.791 306.76 165.258 306.62 165.578 306.34C165.898 306.06 166.138 305.66 166.298 305.14L169.078 305.72C168.771 306.867 168.191 307.75 167.338 308.37C166.485 308.99 165.431 309.3 164.178 309.3ZM178.038 309V303.9C178.038 303.653 178.025 303.34 177.998 302.96C177.971 302.573 177.888 302.187 177.748 301.8C177.608 301.413 177.378 301.09 177.058 300.83C176.745 300.57 176.298 300.44 175.718 300.44C175.485 300.44 175.235 300.477 174.968 300.55C174.701 300.623 174.451 300.767 174.218 300.98C173.985 301.187 173.791 301.493 173.638 301.9C173.491 302.307 173.418 302.847 173.418 303.52L171.858 302.78C171.858 301.927 172.031 301.127 172.378 300.38C172.725 299.633 173.245 299.03 173.938 298.57C174.638 298.11 175.518 297.88 176.578 297.88C177.425 297.88 178.115 298.023 178.648 298.31C179.181 298.597 179.595 298.96 179.888 299.4C180.188 299.84 180.401 300.3 180.528 300.78C180.655 301.253 180.731 301.687 180.758 302.08C180.785 302.473 180.798 302.76 180.798 302.94V309H178.038ZM170.658 309V294.6H173.078V302H173.418V309H170.658ZM188.013 309.3C186.906 309.3 185.93 309.063 185.083 308.59C184.243 308.11 183.583 307.453 183.103 306.62C182.63 305.78 182.393 304.82 182.393 303.74C182.393 302.56 182.626 301.533 183.093 300.66C183.56 299.787 184.203 299.11 185.023 298.63C185.843 298.143 186.786 297.9 187.853 297.9C188.986 297.9 189.95 298.167 190.743 298.7C191.536 299.233 192.123 299.983 192.503 300.95C192.883 301.917 193.016 303.053 192.903 304.36H190.213V303.36C190.213 302.26 190.036 301.47 189.683 300.99C189.336 300.503 188.766 300.26 187.973 300.26C187.046 300.26 186.363 300.543 185.923 301.11C185.49 301.67 185.273 302.5 185.273 303.6C185.273 304.607 185.49 305.387 185.923 305.94C186.363 306.487 187.006 306.76 187.853 306.76C188.386 306.76 188.843 306.643 189.223 306.41C189.603 306.177 189.893 305.84 190.093 305.4L192.813 306.18C192.406 307.167 191.763 307.933 190.883 308.48C190.01 309.027 189.053 309.3 188.013 309.3ZM184.433 304.36V302.34H191.593V304.36H184.433ZM199.141 309.3C198.148 309.3 197.278 309.05 196.531 308.55C195.784 308.05 195.201 307.37 194.781 306.51C194.368 305.65 194.161 304.68 194.161 303.6C194.161 302.5 194.371 301.523 194.791 300.67C195.218 299.81 195.814 299.133 196.581 298.64C197.348 298.147 198.248 297.9 199.281 297.9C200.308 297.9 201.171 298.15 201.871 298.65C202.571 299.15 203.101 299.83 203.461 300.69C203.821 301.55 204.001 302.52 204.001 303.6C204.001 304.68 203.818 305.65 203.451 306.51C203.091 307.37 202.551 308.05 201.831 308.55C201.111 309.05 200.214 309.3 199.141 309.3ZM199.581 306.88C200.188 306.88 200.671 306.743 201.031 306.47C201.398 306.197 201.661 305.813 201.821 305.32C201.981 304.827 202.061 304.253 202.061 303.6C202.061 302.947 201.981 302.373 201.821 301.88C201.661 301.387 201.404 301.003 201.051 300.73C200.704 300.457 200.248 300.32 199.681 300.32C199.074 300.32 198.574 300.47 198.181 300.77C197.794 301.063 197.508 301.46 197.321 301.96C197.134 302.453 197.041 303 197.041 303.6C197.041 304.207 197.131 304.76 197.311 305.26C197.491 305.753 197.768 306.147 198.141 306.44C198.514 306.733 198.994 306.88 199.581 306.88ZM202.061 309V301.6H201.721V294.6H204.461V309H202.061ZM210.881 309.32C210.034 309.32 209.344 309.177 208.811 308.89C208.278 308.603 207.861 308.24 207.561 307.8C207.268 307.36 207.058 306.903 206.931 306.43C206.804 305.95 206.728 305.513 206.701 305.12C206.674 304.727 206.661 304.44 206.661 304.26V298.2H209.421V303.3C209.421 303.547 209.434 303.863 209.461 304.25C209.488 304.63 209.571 305.013 209.711 305.4C209.851 305.787 210.078 306.11 210.391 306.37C210.711 306.63 211.161 306.76 211.741 306.76C211.974 306.76 212.224 306.723 212.491 306.65C212.758 306.577 213.008 306.437 213.241 306.23C213.474 306.017 213.664 305.707 213.811 305.3C213.964 304.887 214.041 304.347 214.041 303.68L215.601 304.42C215.601 305.273 215.428 306.073 215.081 306.82C214.734 307.567 214.211 308.17 213.511 308.63C212.818 309.09 211.941 309.32 210.881 309.32ZM214.381 309V305.42H214.041V298.2H216.781V309H214.381ZM219.376 309V294.3H222.096V309H219.376ZM229.714 309.3C228.607 309.3 227.63 309.063 226.784 308.59C225.944 308.11 225.284 307.453 224.804 306.62C224.33 305.78 224.094 304.82 224.094 303.74C224.094 302.56 224.327 301.533 224.794 300.66C225.26 299.787 225.904 299.11 226.724 298.63C227.544 298.143 228.487 297.9 229.554 297.9C230.687 297.9 231.65 298.167 232.444 298.7C233.237 299.233 233.824 299.983 234.204 300.95C234.584 301.917 234.717 303.053 234.604 304.36H231.914V303.36C231.914 302.26 231.737 301.47 231.384 300.99C231.037 300.503 230.467 300.26 229.674 300.26C228.747 300.26 228.064 300.543 227.624 301.11C227.19 301.67 226.974 302.5 226.974 303.6C226.974 304.607 227.19 305.387 227.624 305.94C228.064 306.487 228.707 306.76 229.554 306.76C230.087 306.76 230.544 306.643 230.924 306.41C231.304 306.177 231.594 305.84 231.794 305.4L234.514 306.18C234.107 307.167 233.464 307.933 232.584 308.48C231.71 309.027 230.754 309.3 229.714 309.3ZM226.134 304.36V302.34H233.294V304.36H226.134ZM244.886 309.3C244.086 309.3 243.326 309.18 242.606 308.94C241.886 308.7 241.286 308.32 240.806 307.8C240.419 307.367 240.136 306.9 239.956 306.4C239.782 305.9 239.686 305.36 239.666 304.78C239.666 304.207 239.749 303.66 239.916 303.14C240.082 302.613 240.339 302.147 240.686 301.74C240.799 301.607 240.919 301.487 241.046 301.38C241.172 301.267 241.299 301.16 241.426 301.06C241.066 300.647 240.796 300.24 240.616 299.84C240.436 299.433 240.346 298.967 240.346 298.44C240.346 297.567 240.582 296.787 241.056 296.1C241.536 295.413 242.186 294.927 243.006 294.64C243.346 294.52 243.689 294.44 244.036 294.4C244.382 294.36 244.719 294.34 245.046 294.34C245.706 294.34 246.336 294.443 246.936 294.65C247.536 294.85 248.046 295.18 248.466 295.64C248.726 295.907 248.939 296.203 249.106 296.53C249.279 296.857 249.406 297.187 249.486 297.52L246.786 298.06C246.706 297.78 246.566 297.54 246.366 297.34C246.179 297.147 245.959 297.023 245.706 296.97C245.452 296.91 245.206 296.88 244.966 296.88C244.586 296.88 244.252 296.947 243.966 297.08C243.666 297.22 243.442 297.403 243.296 297.63C243.156 297.857 243.086 298.14 243.086 298.48C243.086 298.787 243.146 299.03 243.266 299.21C243.386 299.39 243.526 299.567 243.686 299.74C243.799 299.86 243.939 300 244.106 300.16C244.279 300.32 244.459 300.487 244.646 300.66L247.946 303.72C247.946 303.607 247.946 303.473 247.946 303.32C247.946 303.167 247.946 303.027 247.946 302.9V301.26H250.306V304C250.306 304.307 250.299 304.63 250.286 304.97C250.272 305.303 250.239 305.58 250.186 305.8L251.946 307.42L250.206 309.28L248.886 308.02C248.506 308.347 248.099 308.607 247.666 308.8C247.239 308.993 246.806 309.127 246.366 309.2C246.086 309.24 245.829 309.267 245.596 309.28C245.362 309.293 245.126 309.3 244.886 309.3ZM245.006 306.72C245.159 306.72 245.306 306.713 245.446 306.7C245.586 306.687 245.726 306.667 245.866 306.64C246.079 306.6 246.272 306.543 246.446 306.47C246.626 306.39 246.786 306.3 246.926 306.2L243.406 302.96C243.266 303.02 243.139 303.093 243.026 303.18C242.919 303.267 242.826 303.36 242.746 303.46C242.639 303.607 242.556 303.777 242.496 303.97C242.436 304.163 242.406 304.38 242.406 304.62C242.406 304.907 242.449 305.157 242.536 305.37C242.629 305.577 242.739 305.767 242.866 305.94C243.086 306.22 243.406 306.42 243.826 306.54C244.246 306.66 244.639 306.72 245.006 306.72ZM262.926 309.3C261.486 309.3 260.243 308.987 259.196 308.36C258.156 307.733 257.353 306.857 256.786 305.73C256.226 304.603 255.946 303.293 255.946 301.8C255.946 300.307 256.226 298.997 256.786 297.87C257.353 296.743 258.156 295.867 259.196 295.24C260.243 294.613 261.486 294.3 262.926 294.3C264.579 294.3 265.966 294.71 267.086 295.53C268.213 296.35 269.006 297.46 269.466 298.86L266.726 299.62C266.459 298.747 266.009 298.07 265.376 297.59C264.743 297.103 263.926 296.86 262.926 296.86C262.013 296.86 261.249 297.063 260.636 297.47C260.029 297.877 259.573 298.45 259.266 299.19C258.959 299.93 258.806 300.8 258.806 301.8C258.806 302.8 258.959 303.67 259.266 304.41C259.573 305.15 260.029 305.723 260.636 306.13C261.249 306.537 262.013 306.74 262.926 306.74C263.926 306.74 264.743 306.497 265.376 306.01C266.009 305.523 266.459 304.847 266.726 303.98L269.466 304.74C269.006 306.14 268.213 307.25 267.086 308.07C265.966 308.89 264.579 309.3 262.926 309.3ZM276.128 309.3C275.041 309.3 274.088 309.057 273.268 308.57C272.448 308.083 271.808 307.413 271.348 306.56C270.895 305.7 270.668 304.713 270.668 303.6C270.668 302.473 270.901 301.483 271.368 300.63C271.835 299.77 272.478 299.1 273.298 298.62C274.118 298.14 275.061 297.9 276.128 297.9C277.215 297.9 278.168 298.143 278.988 298.63C279.815 299.117 280.458 299.79 280.918 300.65C281.378 301.503 281.608 302.487 281.608 303.6C281.608 304.72 281.375 305.71 280.908 306.57C280.448 307.423 279.805 308.093 278.978 308.58C278.158 309.06 277.208 309.3 276.128 309.3ZM276.128 306.76C277.001 306.76 277.651 306.467 278.078 305.88C278.511 305.287 278.728 304.527 278.728 303.6C278.728 302.64 278.508 301.873 278.068 301.3C277.635 300.727 276.988 300.44 276.128 300.44C275.535 300.44 275.048 300.573 274.668 300.84C274.288 301.107 274.005 301.477 273.818 301.95C273.638 302.423 273.548 302.973 273.548 303.6C273.548 304.567 273.765 305.337 274.198 305.91C274.638 306.477 275.281 306.76 276.128 306.76ZM290.767 309V303.9C290.767 303.653 290.754 303.34 290.727 302.96C290.7 302.573 290.617 302.187 290.477 301.8C290.337 301.413 290.107 301.09 289.787 300.83C289.474 300.57 289.027 300.44 288.447 300.44C288.214 300.44 287.964 300.477 287.697 300.55C287.43 300.623 287.18 300.767 286.947 300.98C286.714 301.187 286.52 301.493 286.367 301.9C286.22 302.307 286.147 302.847 286.147 303.52L284.587 302.78C284.587 301.927 284.76 301.127 285.107 300.38C285.454 299.633 285.974 299.03 286.667 298.57C287.367 298.11 288.247 297.88 289.307 297.88C290.154 297.88 290.844 298.023 291.377 298.31C291.91 298.597 292.324 298.96 292.617 299.4C292.917 299.84 293.13 300.3 293.257 300.78C293.384 301.253 293.46 301.687 293.487 302.08C293.514 302.473 293.527 302.76 293.527 302.94V309H290.767ZM283.387 309V298.2H285.807V301.78H286.147V309H283.387ZM299.907 309.3C298.913 309.3 298.043 309.05 297.297 308.55C296.55 308.05 295.967 307.37 295.547 306.51C295.133 305.65 294.927 304.68 294.927 303.6C294.927 302.5 295.137 301.523 295.557 300.67C295.983 299.81 296.58 299.133 297.347 298.64C298.113 298.147 299.013 297.9 300.047 297.9C301.073 297.9 301.937 298.15 302.637 298.65C303.337 299.15 303.867 299.83 304.227 300.69C304.587 301.55 304.767 302.52 304.767 303.6C304.767 304.68 304.583 305.65 304.217 306.51C303.857 307.37 303.317 308.05 302.597 308.55C301.877 309.05 300.98 309.3 299.907 309.3ZM300.347 306.88C300.953 306.88 301.437 306.743 301.797 306.47C302.163 306.197 302.427 305.813 302.587 305.32C302.747 304.827 302.827 304.253 302.827 303.6C302.827 302.947 302.747 302.373 302.587 301.88C302.427 301.387 302.17 301.003 301.817 300.73C301.47 300.457 301.013 300.32 300.447 300.32C299.84 300.32 299.34 300.47 298.947 300.77C298.56 301.063 298.273 301.46 298.087 301.96C297.9 302.453 297.807 303 297.807 303.6C297.807 304.207 297.897 304.76 298.077 305.26C298.257 305.753 298.533 306.147 298.907 306.44C299.28 306.733 299.76 306.88 300.347 306.88ZM302.827 309V301.6H302.487V294.6H305.227V309H302.827ZM311.647 309.32C310.8 309.32 310.11 309.177 309.577 308.89C309.043 308.603 308.627 308.24 308.327 307.8C308.033 307.36 307.823 306.903 307.697 306.43C307.57 305.95 307.493 305.513 307.467 305.12C307.44 304.727 307.427 304.44 307.427 304.26V298.2H310.187V303.3C310.187 303.547 310.2 303.863 310.227 304.25C310.253 304.63 310.337 305.013 310.477 305.4C310.617 305.787 310.843 306.11 311.157 306.37C311.477 306.63 311.927 306.76 312.507 306.76C312.74 306.76 312.99 306.723 313.257 306.65C313.523 306.577 313.773 306.437 314.007 306.23C314.24 306.017 314.43 305.707 314.577 305.3C314.73 304.887 314.807 304.347 314.807 303.68L316.367 304.42C316.367 305.273 316.193 306.073 315.847 306.82C315.5 307.567 314.977 308.17 314.277 308.63C313.583 309.09 312.707 309.32 311.647 309.32ZM315.147 309V305.42H314.807V298.2H317.547V309H315.147ZM324.701 309.3C323.581 309.3 322.621 309.05 321.821 308.55C321.021 308.05 320.408 307.37 319.981 306.51C319.555 305.65 319.341 304.68 319.341 303.6C319.341 302.507 319.561 301.53 320.001 300.67C320.448 299.81 321.075 299.133 321.881 298.64C322.688 298.147 323.641 297.9 324.741 297.9C326.015 297.9 327.081 298.223 327.941 298.87C328.808 299.51 329.361 300.387 329.601 301.5L326.881 302.22C326.721 301.66 326.441 301.223 326.041 300.91C325.648 300.597 325.201 300.44 324.701 300.44C324.128 300.44 323.658 300.58 323.291 300.86C322.925 301.133 322.655 301.51 322.481 301.99C322.308 302.463 322.221 303 322.221 303.6C322.221 304.54 322.428 305.303 322.841 305.89C323.261 306.47 323.881 306.76 324.701 306.76C325.315 306.76 325.781 306.62 326.101 306.34C326.421 306.06 326.661 305.66 326.821 305.14L329.601 305.72C329.295 306.867 328.715 307.75 327.861 308.37C327.008 308.99 325.955 309.3 324.701 309.3ZM337.682 309C336.935 309.14 336.202 309.2 335.482 309.18C334.768 309.167 334.128 309.043 333.562 308.81C333.002 308.57 332.575 308.187 332.282 307.66C332.015 307.167 331.875 306.667 331.862 306.16C331.848 305.647 331.842 305.067 331.842 304.42V295.2H334.562V304.26C334.562 304.68 334.565 305.06 334.572 305.4C334.585 305.733 334.655 306 334.782 306.2C335.022 306.58 335.405 306.787 335.932 306.82C336.458 306.853 337.042 306.827 337.682 306.74V309ZM330.002 300.3V298.2H337.682V300.3H330.002ZM343.492 309V294.6H346.212V309H343.492ZM356.17 309V303.9C356.17 303.653 356.157 303.34 356.13 302.96C356.103 302.573 356.02 302.187 355.88 301.8C355.74 301.413 355.51 301.09 355.19 300.83C354.877 300.57 354.43 300.44 353.85 300.44C353.617 300.44 353.367 300.477 353.1 300.55C352.833 300.623 352.583 300.767 352.35 300.98C352.117 301.187 351.923 301.493 351.77 301.9C351.623 302.307 351.55 302.847 351.55 303.52L349.99 302.78C349.99 301.927 350.163 301.127 350.51 300.38C350.857 299.633 351.377 299.03 352.07 298.57C352.77 298.11 353.65 297.88 354.71 297.88C355.557 297.88 356.247 298.023 356.78 298.31C357.313 298.597 357.727 298.96 358.02 299.4C358.32 299.84 358.533 300.3 358.66 300.78C358.787 301.253 358.863 301.687 358.89 302.08C358.917 302.473 358.93 302.76 358.93 302.94V309H356.17ZM348.79 309V298.2H351.21V301.78H351.55V309H348.79ZM367.605 309C366.858 309.14 366.125 309.2 365.405 309.18C364.692 309.167 364.052 309.043 363.485 308.81C362.925 308.57 362.498 308.187 362.205 307.66C361.938 307.167 361.798 306.667 361.785 306.16C361.772 305.647 361.765 305.067 361.765 304.42V295.2H364.485V304.26C364.485 304.68 364.488 305.06 364.495 305.4C364.508 305.733 364.578 306 364.705 306.2C364.945 306.58 365.328 306.787 365.855 306.82C366.382 306.853 366.965 306.827 367.605 306.74V309ZM359.925 300.3V298.2H367.605V300.3H359.925ZM374.046 309.3C372.939 309.3 371.962 309.063 371.116 308.59C370.276 308.11 369.616 307.453 369.136 306.62C368.662 305.78 368.426 304.82 368.426 303.74C368.426 302.56 368.659 301.533 369.126 300.66C369.592 299.787 370.236 299.11 371.056 298.63C371.876 298.143 372.819 297.9 373.886 297.9C375.019 297.9 375.982 298.167 376.776 298.7C377.569 299.233 378.156 299.983 378.536 300.95C378.916 301.917 379.049 303.053 378.936 304.36H376.246V303.36C376.246 302.26 376.069 301.47 375.716 300.99C375.369 300.503 374.799 300.26 374.006 300.26C373.079 300.26 372.396 300.543 371.956 301.11C371.522 301.67 371.306 302.5 371.306 303.6C371.306 304.607 371.522 305.387 371.956 305.94C372.396 306.487 373.039 306.76 373.886 306.76C374.419 306.76 374.876 306.643 375.256 306.41C375.636 306.177 375.926 305.84 376.126 305.4L378.846 306.18C378.439 307.167 377.796 307.933 376.916 308.48C376.042 309.027 375.086 309.3 374.046 309.3ZM370.466 304.36V302.34H377.626V304.36H370.466ZM380.794 309V298.2H383.194V300.84L382.934 300.5C383.074 300.127 383.26 299.787 383.494 299.48C383.727 299.173 384.014 298.92 384.354 298.72C384.614 298.56 384.897 298.437 385.204 298.35C385.51 298.257 385.827 298.2 386.154 298.18C386.48 298.153 386.807 298.16 387.134 298.2V300.74C386.834 300.647 386.484 300.617 386.084 300.65C385.69 300.677 385.334 300.767 385.014 300.92C384.694 301.067 384.424 301.263 384.204 301.51C383.984 301.75 383.817 302.037 383.704 302.37C383.59 302.697 383.534 303.067 383.534 303.48V309H380.794ZM391.556 309L387.636 298.2H390.356L392.916 305.68L395.476 298.2H398.196L394.276 309H391.556ZM399.803 296.7V294.3H402.523V296.7H399.803ZM399.803 309V298.2H402.523V309H399.803ZM410.141 309.3C409.034 309.3 408.058 309.063 407.211 308.59C406.371 308.11 405.711 307.453 405.231 306.62C404.758 305.78 404.521 304.82 404.521 303.74C404.521 302.56 404.754 301.533 405.221 300.66C405.688 299.787 406.331 299.11 407.151 298.63C407.971 298.143 408.914 297.9 409.981 297.9C411.114 297.9 412.078 298.167 412.871 298.7C413.664 299.233 414.251 299.983 414.631 300.95C415.011 301.917 415.144 303.053 415.031 304.36H412.341V303.36C412.341 302.26 412.164 301.47 411.811 300.99C411.464 300.503 410.894 300.26 410.101 300.26C409.174 300.26 408.491 300.543 408.051 301.11C407.618 301.67 407.401 302.5 407.401 303.6C407.401 304.607 407.618 305.387 408.051 305.94C408.491 306.487 409.134 306.76 409.981 306.76C410.514 306.76 410.971 306.643 411.351 306.41C411.731 306.177 412.021 305.84 412.221 305.4L414.941 306.18C414.534 307.167 413.891 307.933 413.011 308.48C412.138 309.027 411.181 309.3 410.141 309.3ZM406.561 304.36V302.34H413.721V304.36H406.561ZM418.798 309L415.498 298.18L418.158 298.2L420.118 304.64L422.108 298.2H424.368L426.358 304.64L428.318 298.2H430.978L427.678 309H425.598L423.238 301.96L420.878 309H418.798ZM436.217 309.3C434.857 309.3 433.757 308.993 432.917 308.38C432.084 307.76 431.577 306.887 431.397 305.76L434.177 305.34C434.29 305.847 434.54 306.243 434.927 306.53C435.32 306.817 435.817 306.96 436.417 306.96C436.91 306.96 437.29 306.867 437.557 306.68C437.824 306.487 437.957 306.22 437.957 305.88C437.957 305.667 437.904 305.497 437.797 305.37C437.69 305.237 437.45 305.107 437.077 304.98C436.71 304.853 436.137 304.687 435.357 304.48C434.477 304.253 433.774 304 433.247 303.72C432.72 303.44 432.34 303.107 432.107 302.72C431.874 302.327 431.757 301.853 431.757 301.3C431.757 300.607 431.934 300.007 432.287 299.5C432.64 298.987 433.137 298.593 433.777 298.32C434.424 298.04 435.184 297.9 436.057 297.9C436.904 297.9 437.654 298.03 438.307 298.29C438.96 298.55 439.487 298.92 439.887 299.4C440.294 299.88 440.544 300.447 440.637 301.1L437.857 301.6C437.81 301.2 437.637 300.883 437.337 300.65C437.037 300.417 436.63 300.28 436.117 300.24C435.617 300.207 435.214 300.273 434.907 300.44C434.607 300.607 434.457 300.847 434.457 301.16C434.457 301.347 434.52 301.503 434.647 301.63C434.78 301.757 435.05 301.887 435.457 302.02C435.87 302.153 436.497 302.327 437.337 302.54C438.157 302.753 438.814 303.003 439.307 303.29C439.807 303.57 440.17 303.91 440.397 304.31C440.624 304.703 440.737 305.18 440.737 305.74C440.737 306.847 440.337 307.717 439.537 308.35C438.737 308.983 437.63 309.3 436.217 309.3Z" fill="white"/>
<g filter="url(#filter5_b_8985_1496)">
<rect x="278" y="252" width="31" height="31" rx="15.5" fill="url(#paint5_linear_8985_1496)" fill-opacity="0.4"/>
<g filter="url(#filter6_d_8985_1496)">
<rect x="282.509" y="256.509" width="21.4845" height="21.4845" rx="10.7422" fill="url(#paint6_linear_8985_1496)" shape-rendering="crispEdges"/>
<path d="M293.108 272.09V265.945L291.658 266.837V265.226L293.108 264.355H294.601V272.09H293.108Z" fill="white"/>
</g>
</g>
</g>
<defs>
<filter id="filter0_b_8985_1496" x="264.473" y="94.4727" width="58.0545" height="58.0545" filterUnits="userSpaceOnUse" color-interpolation-filters="sRGB">
<feFlood flood-opacity="0" result="BackgroundImageFix"/>
<feGaussianBlur in="BackgroundImageFix" stdDeviation="6.76364"/>
<feComposite in2="SourceAlpha" operator="in" result="effect1_backgroundBlur_8985_1496"/>
<feBlend mode="normal" in="SourceGraphic" in2="effect1_backgroundBlur_8985_1496" result="shape"/>
</filter>
<filter id="filter1_d_8985_1496" x="275.486" y="107.827" width="35.5319" height="35.5319" filterUnits="userSpaceOnUse" color-interpolation-filters="sRGB">
<feFlood flood-opacity="0" result="BackgroundImageFix"/>
<feColorMatrix in="SourceAlpha" type="matrix" values="0 0 0 0 0 0 0 0 0 0 0 0 0 0 0 0 0 0 127 0" result="hardAlpha"/>
<feOffset dy="2.34126"/>
<feGaussianBlur stdDeviation="3.51189"/>
<feComposite in2="hardAlpha" operator="out"/>
<feColorMatrix type="matrix" values="0 0 0 0 0 0 0 0 0 0 0 0 0 0 0 0 0 0 0.12 0"/>
<feBlend mode="normal" in2="BackgroundImageFix" result="effect1_dropShadow_8985_1496"/>
<feBlend mode="normal" in="SourceGraphic" in2="effect1_dropShadow_8985_1496" result="shape"/>
</filter>
<filter id="filter2_b_8985_1496" x="242" y="359" width="103" height="103" filterUnits="userSpaceOnUse" color-interpolation-filters="sRGB">
<feFlood flood-opacity="0" result="BackgroundImageFix"/>
<feGaussianBlur in="BackgroundImageFix" stdDeviation="12"/>
<feComposite in2="SourceAlpha" operator="in" result="effect1_backgroundBlur_8985_1496"/>
<feBlend mode="normal" in="SourceGraphic" in2="effect1_backgroundBlur_8985_1496" result="shape"/>
</filter>
<filter id="filter3_d_8985_1496" x="261.538" y="382.692" width="63.0408" height="63.0408" filterUnits="userSpaceOnUse" color-interpolation-filters="sRGB">
<feFlood flood-opacity="0" result="BackgroundImageFix"/>
<feColorMatrix in="SourceAlpha" type="matrix" values="0 0 0 0 0 0 0 0 0 0 0 0 0 0 0 0 0 0 127 0" result="hardAlpha"/>
<feOffset dy="4.15385"/>
<feGaussianBlur stdDeviation="6.23077"/>
<feComposite in2="hardAlpha" operator="out"/>
<feColorMatrix type="matrix" values="0 0 0 0 0 0 0 0 0 0 0 0 0 0 0 0 0 0 0.12 0"/>
<feBlend mode="normal" in2="BackgroundImageFix" result="effect1_dropShadow_8985_1496"/>
<feBlend mode="normal" in="SourceGraphic" in2="effect1_dropShadow_8985_1496" result="shape"/>
</filter>
<filter id="filter4_b_8985_1496" x="115.8" y="246.8" width="355.4" height="89.4" filterUnits="userSpaceOnUse" color-interpolation-filters="sRGB">
<feFlood flood-opacity="0" result="BackgroundImageFix"/>
<feGaussianBlur in="BackgroundImageFix" stdDeviation="2.6"/>
<feComposite in2="SourceAlpha" operator="in" result="effect1_backgroundBlur_8985_1496"/>
<feBlend mode="normal" in="SourceGraphic" in2="effect1_backgroundBlur_8985_1496" result="shape"/>
</filter>
<filter id="filter5_b_8985_1496" x="264.473" y="238.473" width="58.0545" height="58.0545" filterUnits="userSpaceOnUse" color-interpolation-filters="sRGB">
<feFlood flood-opacity="0" result="BackgroundImageFix"/>
<feGaussianBlur in="BackgroundImageFix" stdDeviation="6.76364"/>
<feComposite in2="SourceAlpha" operator="in" result="effect1_backgroundBlur_8985_1496"/>
<feBlend mode="normal" in="SourceGraphic" in2="effect1_backgroundBlur_8985_1496" result="shape"/>
</filter>
<filter id="filter6_d_8985_1496" x="275.486" y="251.827" width="35.5319" height="35.5319" filterUnits="userSpaceOnUse" color-interpolation-filters="sRGB">
<feFlood flood-opacity="0" result="BackgroundImageFix"/>
<feColorMatrix in="SourceAlpha" type="matrix" values="0 0 0 0 0 0 0 0 0 0 0 0 0 0 0 0 0 0 127 0" result="hardAlpha"/>
<feOffset dy="2.34126"/>
<feGaussianBlur stdDeviation="3.51189"/>
<feComposite in2="hardAlpha" operator="out"/>
<feColorMatrix type="matrix" values="0 0 0 0 0 0 0 0 0 0 0 0 0 0 0 0 0 0 0.12 0"/>
<feBlend mode="normal" in2="BackgroundImageFix" result="effect1_dropShadow_8985_1496"/>
<feBlend mode="normal" in="SourceGraphic" in2="effect1_dropShadow_8985_1496" result="shape"/>
</filter>
<linearGradient id="paint0_linear_8985_1496" x1="359.333" y1="2.1547e-07" x2="272.301" y2="601.345" gradientUnits="userSpaceOnUse">
<stop stop-color="#012A59"/>
<stop offset="1" stop-color="#B21450"/>
</linearGradient>
<linearGradient id="paint1_linear_8985_1496" x1="280.543" y1="108" x2="304.588" y2="109.534" gradientUnits="userSpaceOnUse">
<stop stop-color="#C3D0DD"/>
<stop offset="1" stop-color="#BEABC1"/>
</linearGradient>
<linearGradient id="paint2_linear_8985_1496" x1="295.639" y1="112.509" x2="291.828" y2="136.513" gradientUnits="userSpaceOnUse">
<stop stop-color="#012A59"/>
<stop offset="1" stop-color="#B21450"/>
</linearGradient>
<linearGradient id="paint3_linear_8985_1496" x1="270.512" y1="383" x2="313.173" y2="385.722" gradientUnits="userSpaceOnUse">
<stop stop-color="#C3D0DD"/>
<stop offset="1" stop-color="#BEABC1"/>
</linearGradient>
<linearGradient id="paint4_linear_8985_1496" x1="297.294" y1="391" x2="290.533" y2="433.587" gradientUnits="userSpaceOnUse">
<stop stop-color="#012A59"/>
<stop offset="1" stop-color="#B21450"/>
</linearGradient>
<linearGradient id="paint5_linear_8985_1496" x1="280.543" y1="252" x2="304.588" y2="253.534" gradientUnits="userSpaceOnUse">
<stop stop-color="#C3D0DD"/>
<stop offset="1" stop-color="#BEABC1"/>
</linearGradient>
<linearGradient id="paint6_linear_8985_1496" x1="295.639" y1="256.509" x2="291.828" y2="280.513" gradientUnits="userSpaceOnUse">
<stop stop-color="#012A59"/>
<stop offset="1" stop-color="#B21450"/>
</linearGradient>
</defs>
</svg>
