<svg width="80" height="70" viewBox="0 0 80 70" fill="none" xmlns="http://www.w3.org/2000/svg">
<path d="M8.70711 69.7071C8.31658 70.0976 7.68342 70.0976 7.29289 69.7071L0.928932 63.3431C0.538408 62.9526 0.538408 62.3195 0.928932 61.9289C1.31946 61.5384 1.95262 61.5384 2.34315 61.9289L8 67.5858L13.6569 61.9289C14.0474 61.5384 14.6805 61.5384 15.0711 61.9289C15.4616 62.3195 15.4616 62.9526 15.0711 63.3431L8.70711 69.7071ZM80 2L77.0833 2V0L80 0V2ZM71.25 2L65.4167 2V0L71.25 0V2ZM59.5833 2L53.75 2V0L59.5833 0V2ZM47.9167 2L42.0833 2V0L47.9167 0V2ZM36.25 2L30.4167 2V0L36.25 0V2ZM24.5833 2L18.75 2V0L24.5833 0V2ZM12.9167 2L10 2V0H12.9167V2ZM10 2C9.44772 2 9 2.44772 9 3H7C7 1.34315 8.34315 0 10 0V2ZM9 3V5.75H7V3H9ZM9 11.25V16.75H7V11.25H9ZM9 22.25V27.75H7V22.25H9ZM9 33.25V38.75H7L7 33.25H9ZM9 44.25V49.75H7V44.25H9ZM9 55.25V60.75H7V55.25H9ZM9 66.25V69H7L7 66.25H9Z" fill="#012A59" fill-opacity="0.4"/>
</svg>
