<svg width="286" height="262" viewBox="0 0 286 262" fill="none" xmlns="http://www.w3.org/2000/svg">
<rect x="-44" y="222.807" width="150.697" height="30.6651" rx="15.3326" fill="white"/>
<rect x="-43.4472" y="223.36" width="149.592" height="29.5595" rx="14.7797" stroke="#E3E3E3" stroke-opacity="0.4" stroke-width="1.10564"/>
<path opacity="0.2" d="M61.2969 223.913H91.1491C99.0873 223.913 105.522 230.348 105.522 238.286C105.522 246.225 99.0873 252.66 91.1492 252.66H61.2969V223.913Z" fill="#3790E3"/>
<path d="M-26.0957 242.784C-26.7763 242.784 -27.3783 242.645 -27.9019 242.367C-28.4213 242.086 -28.8281 241.693 -29.122 241.19C-29.416 240.682 -29.563 240.086 -29.563 239.402V233.911L-28.2824 233.905V239.335C-28.2824 239.706 -28.22 240.032 -28.0952 240.314C-27.9703 240.596 -27.8032 240.831 -27.5938 241.02C-27.3844 241.21 -27.1508 241.353 -26.8931 241.449C-26.6313 241.546 -26.3655 241.594 -26.0957 241.594C-25.8219 241.594 -25.5561 241.546 -25.2984 241.449C-25.0366 241.349 -24.801 241.204 -24.5916 241.014C-24.3822 240.825 -24.2171 240.59 -24.0963 240.308C-23.9715 240.026 -23.909 239.702 -23.909 239.335V233.905H-22.6284V239.402C-22.6284 240.082 -22.7754 240.676 -23.0694 241.183C-23.3634 241.691 -23.7721 242.086 -24.2956 242.367C-24.8151 242.645 -25.4152 242.784 -26.0957 242.784ZM-20.9387 242.603V233.905H-19.6762V237.964L-16.0337 233.905H-14.4632L-18.311 238.151L-14.1793 242.603H-15.7982L-19.6762 238.447V242.603H-20.9387ZM-11.7504 242.603L-8.92342 233.905H-7.10521L-4.27822 242.603H-5.58903L-8.19251 234.666H-7.86632L-10.4396 242.603H-11.7504ZM-10.2825 240.64V239.456H-5.74004V240.64H-10.2825ZM-0.403764 242.784C-1.07225 242.784 -1.64007 242.635 -2.10721 242.337C-2.57434 242.039 -2.93275 241.63 -3.18243 241.111C-3.42808 240.592 -3.55292 240.002 -3.55694 239.341C-3.55292 238.669 -3.42405 238.075 -3.17035 237.559C-2.91664 237.04 -2.55421 236.633 -2.08304 236.339C-1.61188 236.045 -1.04608 235.898 -0.385643 235.898C0.327144 235.898 0.935229 236.075 1.43861 236.43C1.94602 236.784 2.28026 237.269 2.44134 237.885L1.18491 238.248C1.06007 237.881 0.854687 237.597 0.568767 237.396C0.286874 237.191 -0.0373034 237.088 -0.403764 237.088C-0.81855 237.088 -1.15884 237.187 -1.42462 237.384C-1.69041 237.577 -1.88773 237.843 -2.0166 238.181C-2.14546 238.52 -2.21191 238.906 -2.21594 239.341C-2.21191 240.014 -2.05888 240.557 -1.75685 240.972C-1.4508 241.387 -0.999767 241.594 -0.403764 241.594C0.00296702 241.594 0.331171 241.502 0.580848 241.316C0.834552 241.127 1.02785 240.857 1.16074 240.507L2.44134 240.809C2.22791 241.445 1.87554 241.935 1.38424 242.277C0.892944 242.615 0.296941 242.784 -0.403764 242.784ZM6.2857 242.784C5.61721 242.784 5.04939 242.635 4.58226 242.337C4.11512 242.039 3.75671 241.63 3.50703 241.111C3.26138 240.592 3.13655 240.002 3.13252 239.341C3.13655 238.669 3.26541 238.075 3.51912 237.559C3.77282 237.04 4.13525 236.633 4.60642 236.339C5.07758 236.045 5.64338 235.898 6.30382 235.898C7.01661 235.898 7.62469 236.075 8.12807 236.43C8.63548 236.784 8.96972 237.269 9.1308 237.885L7.87437 238.248C7.74953 237.881 7.54415 237.597 7.25823 237.396C6.97633 237.191 6.65216 237.088 6.2857 237.088C5.87091 237.088 5.53062 237.187 5.26484 237.384C4.99905 237.577 4.80173 237.843 4.67286 238.181C4.544 238.52 4.47755 238.906 4.47353 239.341C4.47755 240.014 4.63058 240.557 4.93261 240.972C5.23866 241.387 5.68969 241.594 6.2857 241.594C6.69243 241.594 7.02063 241.502 7.27031 241.316C7.52401 241.127 7.71731 240.857 7.8502 240.507L9.1308 240.809C8.91737 241.445 8.565 241.935 8.0737 242.277C7.58241 242.615 6.9864 242.784 6.2857 242.784ZM13.0174 242.784C12.3651 242.784 11.7993 242.637 11.32 242.343C10.8408 242.049 10.4703 241.645 10.2086 241.129C9.95084 240.61 9.82198 240.012 9.82198 239.335C9.82198 238.655 9.95487 238.056 10.2207 237.541C10.4864 237.022 10.8589 236.619 11.3382 236.333C11.8174 236.043 12.3771 235.898 13.0174 235.898C13.6698 235.898 14.2356 236.045 14.7148 236.339C15.1941 236.633 15.5645 237.038 15.8263 237.553C16.0881 238.069 16.2189 238.663 16.2189 239.335C16.2189 240.016 16.086 240.616 15.8203 241.135C15.5585 241.651 15.188 242.055 14.7088 242.349C14.2296 242.639 13.6658 242.784 13.0174 242.784ZM13.0174 241.594C13.6416 241.594 14.1068 241.385 14.4128 240.966C14.7229 240.543 14.8779 240 14.8779 239.335C14.8779 238.655 14.7209 238.111 14.4068 237.704C14.0967 237.293 13.6336 237.088 13.0174 237.088C12.5946 237.088 12.2463 237.185 11.9724 237.378C11.6986 237.567 11.4952 237.831 11.3623 238.169C11.2294 238.503 11.163 238.892 11.163 239.335C11.163 240.02 11.32 240.567 11.6341 240.978C11.9483 241.389 12.4094 241.594 13.0174 241.594ZM20.0049 242.778C19.5538 242.778 19.1753 242.706 18.8692 242.561C18.5632 242.416 18.3135 242.226 18.1202 241.993C17.9309 241.755 17.786 241.498 17.6853 241.22C17.5846 240.942 17.5162 240.67 17.4799 240.404C17.4437 240.138 17.4255 239.905 17.4255 239.704V236.079H18.7061V239.287C18.7061 239.54 18.7263 239.802 18.7666 240.072C18.8108 240.338 18.8914 240.585 19.0082 240.815C19.129 241.045 19.2961 241.23 19.5095 241.371C19.727 241.512 20.0089 241.582 20.3552 241.582C20.5807 241.582 20.7942 241.546 20.9955 241.473C21.1969 241.397 21.3721 241.276 21.5211 241.111C21.6741 240.946 21.7929 240.728 21.8774 240.459C21.966 240.189 22.0103 239.861 22.0103 239.474L22.7956 239.77C22.7956 240.362 22.6849 240.885 22.4634 241.341C22.2419 241.792 21.9238 242.144 21.509 242.398C21.0942 242.651 20.5928 242.778 20.0049 242.778ZM22.1614 242.603V240.718H22.0103V236.079H23.2849V242.603H22.1614ZM29.5578 242.603V239.395C29.5578 239.142 29.5357 238.882 29.4914 238.616C29.4511 238.346 29.3706 238.097 29.2498 237.867C29.133 237.638 28.9659 237.452 28.7484 237.311C28.535 237.171 28.2551 237.1 27.9088 237.1C27.6832 237.1 27.4698 237.138 27.2685 237.215C27.0671 237.287 26.8899 237.406 26.7369 237.571C26.5879 237.736 26.4691 237.954 26.3805 238.224C26.2959 238.493 26.2536 238.822 26.2536 239.208L25.4684 238.912C25.4684 238.32 25.5791 237.799 25.8006 237.348C26.0221 236.893 26.3402 236.538 26.755 236.285C27.1698 236.031 27.6712 235.904 28.2591 235.904C28.7101 235.904 29.0887 235.977 29.3947 236.121C29.7008 236.266 29.9485 236.458 30.1377 236.695C30.331 236.929 30.478 237.185 30.5787 237.463C30.6794 237.74 30.7478 238.012 30.7841 238.278C30.8203 238.544 30.8384 238.777 30.8384 238.979V242.603H29.5578ZM24.973 242.603V236.079H26.1026V237.964H26.2536V242.603H24.973ZM36.1449 242.603C35.7341 242.684 35.3314 242.718 34.9368 242.706C34.5421 242.694 34.1898 242.617 33.8797 242.476C33.5696 242.335 33.336 242.114 33.179 241.812C33.038 241.542 32.9615 241.268 32.9494 240.99C32.9414 240.708 32.9373 240.39 32.9373 240.036V234.267H34.2059V239.975C34.2059 240.237 34.2079 240.465 34.2119 240.658C34.22 240.851 34.2622 241.014 34.3388 241.147C34.4837 241.397 34.7133 241.54 35.0274 241.576C35.3455 241.608 35.718 241.594 36.1449 241.534V242.603ZM31.687 237.094V236.079H36.1449V237.094H31.687ZM37.6412 235.01V233.784H38.9036V235.01H37.6412ZM37.6412 242.603V236.079H38.9036V242.603H37.6412ZM45.2964 242.603V239.395C45.2964 239.142 45.2742 238.882 45.2299 238.616C45.1896 238.346 45.1091 238.097 44.9883 237.867C44.8715 237.638 44.7044 237.452 44.4869 237.311C44.2735 237.171 43.9936 237.1 43.6473 237.1C43.4218 237.1 43.2083 237.138 43.007 237.215C42.8056 237.287 42.6284 237.406 42.4754 237.571C42.3264 237.736 42.2076 237.954 42.119 238.224C42.0344 238.493 41.9922 238.822 41.9922 239.208L41.2069 238.912C41.2069 238.32 41.3176 237.799 41.5391 237.348C41.7606 236.893 42.0787 236.538 42.4935 236.285C42.9083 236.031 43.4097 235.904 43.9976 235.904C44.4487 235.904 44.8272 235.977 45.1333 236.121C45.4393 236.266 45.687 236.458 45.8763 236.695C46.0696 236.929 46.2165 237.185 46.3172 237.463C46.4179 237.74 46.4863 238.012 46.5226 238.278C46.5588 238.544 46.577 238.777 46.577 238.979V242.603H45.2964ZM40.7116 242.603V236.079H41.8412V237.964H41.9922V242.603H40.7116ZM50.8384 245.684C50.488 245.684 50.1478 245.629 49.8175 245.521C49.4913 245.412 49.1933 245.251 48.9235 245.037C48.6537 244.828 48.4302 244.568 48.253 244.258L49.4189 243.666C49.5598 243.944 49.7612 244.147 50.0229 244.276C50.2847 244.405 50.5605 244.47 50.8505 244.47C51.2089 244.47 51.5149 244.405 51.7686 244.276C52.0223 244.151 52.2136 243.962 52.3425 243.708C52.4754 243.455 52.5398 243.141 52.5358 242.766V240.942H52.6868V236.079H53.8043V242.778C53.8043 242.951 53.7983 243.116 53.7862 243.274C53.7741 243.431 53.752 243.588 53.7197 243.745C53.6271 244.184 53.4499 244.546 53.1882 244.832C52.9304 245.118 52.6002 245.331 52.1975 245.472C51.7988 245.613 51.3458 245.684 50.8384 245.684ZM50.7417 242.784C50.1337 242.784 49.6081 242.633 49.1652 242.331C48.7262 242.029 48.3859 241.618 48.1443 241.099C47.9067 240.575 47.7879 239.987 47.7879 239.335C47.7879 238.679 47.9087 238.093 48.1503 237.577C48.392 237.058 48.7343 236.649 49.1772 236.351C49.6242 236.049 50.1538 235.898 50.7659 235.898C51.382 235.898 51.8995 236.049 52.3183 236.351C52.7412 236.649 53.0593 237.058 53.2727 237.577C53.4902 238.097 53.5989 238.683 53.5989 239.335C53.5989 239.987 53.4902 240.573 53.2727 241.093C53.0553 241.612 52.7351 242.025 52.3123 242.331C51.8894 242.633 51.3659 242.784 50.7417 242.784ZM50.9169 241.643C51.3317 241.643 51.67 241.544 51.9317 241.347C52.1935 241.149 52.3848 240.877 52.5056 240.531C52.6264 240.185 52.6868 239.786 52.6868 239.335C52.6868 238.884 52.6244 238.485 52.4995 238.139C52.3787 237.793 52.1895 237.523 51.9317 237.33C51.678 237.136 51.3539 237.04 50.9592 237.04C50.5404 237.04 50.1961 237.142 49.9263 237.348C49.6565 237.553 49.4551 237.829 49.3222 238.175C49.1933 238.522 49.1289 238.908 49.1289 239.335C49.1289 239.766 49.1933 240.157 49.3222 240.507C49.4551 240.853 49.6524 241.129 49.9142 241.335C50.18 241.54 50.5142 241.643 50.9169 241.643Z" fill="#171717" fill-opacity="0.6"/>
<path d="M70.4614 234.491C71.0372 234.491 71.5527 234.626 72.0078 234.895C72.4668 235.165 72.8293 235.542 73.0951 236.025C73.3608 236.504 73.4937 237.06 73.4937 237.692V240.217C73.4937 240.902 73.3608 241.494 73.0951 241.993C72.8293 242.488 72.4548 242.871 71.9715 243.141C71.4883 243.406 70.9205 243.539 70.2681 243.539C69.8452 243.539 69.4425 243.477 69.06 243.352C68.6814 243.223 68.3311 243.012 68.0089 242.718L69.1808 241.546C69.3257 241.691 69.4929 241.804 69.6821 241.884C69.8754 241.965 70.0708 242.005 70.2681 242.005C70.5822 242.005 70.854 241.933 71.0836 241.788C71.3171 241.639 71.4963 241.447 71.6212 241.214C71.75 240.976 71.8145 240.724 71.8145 240.459V239.166L72.0923 239.468C71.8467 239.722 71.5587 239.917 71.2285 240.054C70.8983 240.187 70.558 240.253 70.2077 240.253C69.66 240.253 69.1767 240.13 68.7579 239.885C68.3431 239.639 68.017 239.303 67.7794 238.876C67.5458 238.449 67.429 237.962 67.429 237.414C67.429 236.867 67.5679 236.373 67.8458 235.934C68.1237 235.491 68.4921 235.141 68.9512 234.883C69.4103 234.621 69.9137 234.491 70.4614 234.491ZM70.4614 236.061C70.2117 236.061 69.9822 236.122 69.7727 236.242C69.5674 236.363 69.4023 236.526 69.2774 236.732C69.1566 236.937 69.0962 237.165 69.0962 237.414C69.0962 237.664 69.1566 237.893 69.2774 238.103C69.3982 238.308 69.5613 238.473 69.7667 238.598C69.9721 238.719 70.1996 238.779 70.4493 238.779C70.699 238.779 70.9265 238.719 71.1319 238.598C71.3413 238.473 71.5064 238.308 71.6272 238.103C71.752 237.893 71.8145 237.664 71.8145 237.414C71.8145 237.173 71.7541 236.949 71.6332 236.744C71.5124 236.538 71.3493 236.373 71.144 236.248C70.9386 236.124 70.7111 236.061 70.4614 236.061ZM77.3847 234.66H79.0278L76.7082 243.358H75.0651L77.3847 234.66ZM82.1114 243.358V236.448L80.4804 237.45V235.638L82.1114 234.66H83.7906V243.358H82.1114ZM89.313 243.539C88.6686 243.539 88.1048 243.404 87.6216 243.135C87.1384 242.865 86.7618 242.488 86.492 242.005C86.2222 241.522 86.0873 240.958 86.0873 240.314V237.704C86.0873 237.06 86.2222 236.496 86.492 236.013C86.7618 235.53 87.1384 235.153 87.6216 234.883C88.1048 234.613 88.6686 234.479 89.313 234.479C89.9573 234.479 90.5211 234.613 91.0043 234.883C91.4876 235.153 91.8641 235.53 92.1339 236.013C92.4037 236.496 92.5386 237.06 92.5386 237.704V240.314C92.5386 240.958 92.4037 241.522 92.1339 242.005C91.8641 242.488 91.4876 242.865 91.0043 243.135C90.5211 243.404 89.9573 243.539 89.313 243.539ZM89.313 241.981C89.6029 241.981 89.8647 241.912 90.0982 241.776C90.3318 241.639 90.517 241.453 90.654 241.22C90.7909 240.986 90.8593 240.724 90.8593 240.435V237.571C90.8593 237.281 90.7909 237.02 90.654 236.786C90.517 236.552 90.3318 236.367 90.0982 236.23C89.8647 236.093 89.6029 236.025 89.313 236.025C89.023 236.025 88.7613 236.093 88.5277 236.23C88.2941 236.367 88.1089 236.552 87.9719 236.786C87.835 237.02 87.7666 237.281 87.7666 237.571V240.435C87.7666 240.724 87.835 240.986 87.9719 241.22C88.1089 241.453 88.2941 241.639 88.5277 241.776C88.7613 241.912 89.023 241.981 89.313 241.981Z" fill="#3790E3"/>
<path d="M61.2969 223.913V252.66" stroke="#E2E2E2" stroke-width="1.10564"/>
<rect x="116.504" y="222.491" width="187.495" height="30.6651" rx="15.3326" fill="white"/>
<rect x="117.057" y="223.044" width="186.39" height="29.5595" rx="14.7797" stroke="#E3E3E3" stroke-opacity="0.4" stroke-width="1.10564"/>
<path d="M257.801 223.597H287.653C295.591 223.597 302.027 230.032 302.027 237.97C302.027 245.908 295.591 252.343 287.653 252.343H257.801V223.597Z" fill="#E4FFF4"/>
<path d="M130.337 242.287L133.164 233.588H134.983L137.81 242.287H136.499L133.895 234.349H134.221L131.648 242.287H130.337ZM131.805 240.323V239.139H136.348V240.323H131.805ZM141.684 242.468C141.015 242.468 140.448 242.319 139.981 242.021C139.513 241.723 139.155 241.314 138.905 240.795C138.66 240.275 138.535 239.685 138.531 239.025C138.535 238.352 138.664 237.758 138.917 237.243C139.171 236.723 139.534 236.317 140.005 236.023C140.476 235.729 141.042 235.582 141.702 235.582C142.415 235.582 143.023 235.759 143.526 236.113C144.034 236.468 144.368 236.953 144.529 237.569L143.273 237.931C143.148 237.565 142.942 237.281 142.657 237.08C142.375 236.874 142.05 236.772 141.684 236.772C141.269 236.772 140.929 236.87 140.663 237.068C140.397 237.261 140.2 237.527 140.071 237.865C139.942 238.203 139.876 238.59 139.872 239.025C139.876 239.697 140.029 240.241 140.331 240.656C140.637 241.07 141.088 241.278 141.684 241.278C142.091 241.278 142.419 241.185 142.669 241C142.922 240.811 143.116 240.541 143.248 240.191L144.529 240.493C144.316 241.129 143.963 241.618 143.472 241.96C142.981 242.299 142.385 242.468 141.684 242.468ZM148.373 242.468C147.705 242.468 147.137 242.319 146.67 242.021C146.203 241.723 145.844 241.314 145.595 240.795C145.349 240.275 145.224 239.685 145.22 239.025C145.224 238.352 145.353 237.758 145.607 237.243C145.861 236.723 146.223 236.317 146.694 236.023C147.165 235.729 147.731 235.582 148.392 235.582C149.104 235.582 149.712 235.759 150.216 236.113C150.723 236.468 151.057 236.953 151.219 237.569L149.962 237.931C149.837 237.565 149.632 237.281 149.346 237.08C149.064 236.874 148.74 236.772 148.373 236.772C147.959 236.772 147.618 236.87 147.353 237.068C147.087 237.261 146.889 237.527 146.761 237.865C146.632 238.203 146.565 238.59 146.561 239.025C146.565 239.697 146.718 240.241 147.02 240.656C147.326 241.07 147.777 241.278 148.373 241.278C148.78 241.278 149.108 241.185 149.358 241C149.612 240.811 149.805 240.541 149.938 240.191L151.219 240.493C151.005 241.129 150.653 241.618 150.161 241.96C149.67 242.299 149.074 242.468 148.373 242.468ZM155.105 242.468C154.453 242.468 153.887 242.321 153.408 242.027C152.929 241.733 152.558 241.328 152.296 240.813C152.039 240.293 151.91 239.695 151.91 239.019C151.91 238.338 152.043 237.74 152.308 237.225C152.574 236.705 152.947 236.302 153.426 236.017C153.905 235.727 154.465 235.582 155.105 235.582C155.758 235.582 156.323 235.729 156.803 236.023C157.282 236.317 157.652 236.721 157.914 237.237C158.176 237.752 158.307 238.346 158.307 239.019C158.307 239.699 158.174 240.299 157.908 240.819C157.646 241.334 157.276 241.739 156.797 242.033C156.317 242.323 155.754 242.468 155.105 242.468ZM155.105 241.278C155.729 241.278 156.194 241.068 156.501 240.65C156.811 240.227 156.966 239.683 156.966 239.019C156.966 238.338 156.809 237.794 156.495 237.388C156.184 236.977 155.721 236.772 155.105 236.772C154.682 236.772 154.334 236.868 154.06 237.062C153.786 237.251 153.583 237.515 153.45 237.853C153.317 238.187 153.251 238.576 153.251 239.019C153.251 239.703 153.408 240.251 153.722 240.662C154.036 241.072 154.497 241.278 155.105 241.278ZM162.093 242.462C161.642 242.462 161.263 242.389 160.957 242.244C160.651 242.099 160.401 241.91 160.208 241.677C160.019 241.439 159.874 241.181 159.773 240.903C159.672 240.625 159.604 240.354 159.568 240.088C159.531 239.822 159.513 239.588 159.513 239.387V235.763H160.794V238.97C160.794 239.224 160.814 239.486 160.854 239.756C160.899 240.021 160.979 240.269 161.096 240.499C161.217 240.728 161.384 240.913 161.597 241.054C161.815 241.195 162.097 241.266 162.443 241.266C162.668 241.266 162.882 241.23 163.083 241.157C163.285 241.081 163.46 240.96 163.609 240.795C163.762 240.629 163.881 240.412 163.965 240.142C164.054 239.872 164.098 239.544 164.098 239.158L164.883 239.454C164.883 240.046 164.773 240.569 164.551 241.024C164.33 241.475 164.011 241.828 163.597 242.081C163.182 242.335 162.681 242.462 162.093 242.462ZM164.249 242.287V240.402H164.098V235.763H165.373V242.287H164.249ZM171.646 242.287V239.079C171.646 238.825 171.623 238.566 171.579 238.3C171.539 238.03 171.458 237.78 171.338 237.551C171.221 237.321 171.054 237.136 170.836 236.995C170.623 236.854 170.343 236.784 169.996 236.784C169.771 236.784 169.558 236.822 169.356 236.898C169.155 236.971 168.978 237.09 168.825 237.255C168.676 237.42 168.557 237.637 168.468 237.907C168.384 238.177 168.341 238.505 168.341 238.892L167.556 238.596C167.556 238.004 167.667 237.482 167.888 237.031C168.11 236.576 168.428 236.222 168.843 235.968C169.258 235.714 169.759 235.588 170.347 235.588C170.798 235.588 171.176 235.66 171.482 235.805C171.789 235.95 172.036 236.141 172.225 236.379C172.419 236.613 172.566 236.868 172.666 237.146C172.767 237.424 172.836 237.696 172.872 237.962C172.908 238.227 172.926 238.461 172.926 238.662V242.287H171.646ZM167.061 242.287V235.763H168.19V237.647H168.341V242.287H167.061ZM178.233 242.287C177.822 242.367 177.419 242.401 177.025 242.389C176.63 242.377 176.277 242.301 175.967 242.16C175.657 242.019 175.424 241.797 175.267 241.495C175.126 241.225 175.049 240.952 175.037 240.674C175.029 240.392 175.025 240.074 175.025 239.719V233.951H176.294V239.659C176.294 239.921 176.296 240.148 176.3 240.342C176.308 240.535 176.35 240.698 176.426 240.831C176.571 241.081 176.801 241.223 177.115 241.26C177.433 241.292 177.806 241.278 178.233 241.217V242.287ZM173.775 236.778V235.763H178.233V236.778H173.775ZM182.103 242.462C181.31 242.462 180.663 242.287 180.164 241.936C179.664 241.586 179.358 241.093 179.246 240.456L180.538 240.257C180.619 240.595 180.804 240.863 181.094 241.06C181.388 241.254 181.752 241.35 182.187 241.35C182.582 241.35 182.89 241.27 183.112 241.109C183.337 240.948 183.45 240.726 183.45 240.444C183.45 240.279 183.41 240.146 183.329 240.046C183.253 239.941 183.089 239.842 182.84 239.75C182.59 239.657 182.21 239.542 181.698 239.405C181.138 239.26 180.693 239.105 180.363 238.94C180.037 238.771 179.803 238.576 179.662 238.354C179.526 238.129 179.457 237.857 179.457 237.539C179.457 237.144 179.562 236.8 179.771 236.506C179.981 236.212 180.275 235.984 180.653 235.823C181.036 235.662 181.483 235.582 181.994 235.582C182.493 235.582 182.938 235.66 183.329 235.817C183.72 235.974 184.036 236.198 184.277 236.488C184.519 236.774 184.664 237.11 184.712 237.496L183.42 237.732C183.375 237.418 183.228 237.17 182.979 236.989C182.729 236.808 182.405 236.709 182.006 236.693C181.624 236.677 181.314 236.741 181.076 236.886C180.838 237.027 180.72 237.223 180.72 237.472C180.72 237.617 180.764 237.74 180.852 237.841C180.945 237.941 181.122 238.038 181.384 238.131C181.646 238.223 182.032 238.334 182.544 238.463C183.091 238.604 183.526 238.761 183.849 238.934C184.171 239.103 184.4 239.307 184.537 239.544C184.678 239.778 184.749 240.062 184.749 240.396C184.749 241.04 184.513 241.546 184.042 241.912C183.575 242.279 182.928 242.462 182.103 242.462ZM188.504 242.287V233.588H192.019C192.104 233.588 192.209 233.592 192.333 233.6C192.458 233.604 192.577 233.616 192.69 233.637C193.173 233.713 193.576 233.878 193.898 234.132C194.224 234.386 194.468 234.706 194.629 235.092C194.79 235.479 194.871 235.906 194.871 236.373C194.871 237.066 194.693 237.664 194.339 238.167C193.985 238.666 193.453 238.978 192.744 239.103L192.231 239.164H189.766V242.287H188.504ZM193.59 242.287L191.874 238.747L193.149 238.421L195.034 242.287H193.59ZM189.766 237.968H191.971C192.052 237.968 192.14 237.964 192.237 237.956C192.338 237.947 192.432 237.933 192.521 237.913C192.778 237.853 192.986 237.742 193.143 237.581C193.3 237.416 193.413 237.227 193.481 237.013C193.55 236.8 193.584 236.586 193.584 236.373C193.584 236.159 193.55 235.948 193.481 235.739C193.413 235.525 193.3 235.338 193.143 235.177C192.986 235.012 192.778 234.899 192.521 234.839C192.432 234.814 192.338 234.798 192.237 234.79C192.14 234.782 192.052 234.778 191.971 234.778H189.766V237.968ZM199.255 242.468C198.606 242.468 198.036 242.327 197.545 242.045C197.058 241.759 196.677 241.362 196.404 240.855C196.134 240.344 195.999 239.752 195.999 239.079C195.999 238.366 196.132 237.748 196.397 237.225C196.667 236.701 197.042 236.296 197.521 236.01C198 235.725 198.558 235.582 199.194 235.582C199.859 235.582 200.425 235.737 200.892 236.047C201.359 236.353 201.707 236.79 201.937 237.358C202.17 237.925 202.263 238.6 202.215 239.381H200.952V238.922C200.944 238.165 200.799 237.605 200.517 237.243C200.239 236.88 199.814 236.699 199.243 236.699C198.61 236.699 198.135 236.898 197.817 237.297C197.499 237.696 197.34 238.272 197.34 239.025C197.34 239.742 197.499 240.297 197.817 240.692C198.135 241.083 198.594 241.278 199.194 241.278C199.589 241.278 199.929 241.189 200.215 241.012C200.505 240.831 200.731 240.573 200.892 240.239L202.13 240.632C201.876 241.215 201.492 241.668 200.976 241.991C200.461 242.309 199.887 242.468 199.255 242.468ZM196.929 239.381V238.396H201.586V239.381H196.929ZM206.361 242.468C205.692 242.468 205.124 242.319 204.657 242.021C204.19 241.723 203.832 241.314 203.582 240.795C203.336 240.275 203.211 239.685 203.207 239.025C203.211 238.352 203.34 237.758 203.594 237.243C203.848 236.723 204.21 236.317 204.681 236.023C205.152 235.729 205.718 235.582 206.379 235.582C207.091 235.582 207.7 235.759 208.203 236.113C208.71 236.468 209.045 236.953 209.206 237.569L207.949 237.931C207.824 237.565 207.619 237.281 207.333 237.08C207.051 236.874 206.727 236.772 206.361 236.772C205.946 236.772 205.605 236.87 205.34 237.068C205.074 237.261 204.877 237.527 204.748 237.865C204.619 238.203 204.552 238.59 204.548 239.025C204.552 239.697 204.705 240.241 205.007 240.656C205.314 241.07 205.765 241.278 206.361 241.278C206.767 241.278 207.095 241.185 207.345 241C207.599 240.811 207.792 240.541 207.925 240.191L209.206 240.493C208.992 241.129 208.64 241.618 208.149 241.96C207.657 242.299 207.061 242.468 206.361 242.468ZM213.153 242.468C212.504 242.468 211.935 242.327 211.443 242.045C210.956 241.759 210.575 241.362 210.302 240.855C210.032 240.344 209.897 239.752 209.897 239.079C209.897 238.366 210.03 237.748 210.295 237.225C210.565 236.701 210.94 236.296 211.419 236.01C211.898 235.725 212.456 235.582 213.092 235.582C213.757 235.582 214.323 235.737 214.79 236.047C215.257 236.353 215.605 236.79 215.835 237.358C216.068 237.925 216.161 238.6 216.113 239.381H214.85V238.922C214.842 238.165 214.697 237.605 214.415 237.243C214.137 236.88 213.712 236.699 213.141 236.699C212.508 236.699 212.033 236.898 211.715 237.297C211.397 237.696 211.238 238.272 211.238 239.025C211.238 239.742 211.397 240.297 211.715 240.692C212.033 241.083 212.492 241.278 213.092 241.278C213.487 241.278 213.827 241.189 214.113 241.012C214.403 240.831 214.629 240.573 214.79 240.239L216.028 240.632C215.774 241.215 215.39 241.668 214.874 241.991C214.359 242.309 213.785 242.468 213.153 242.468ZM210.827 239.381V238.396H215.484V239.381H210.827ZM217.589 234.694V233.467H218.851V234.694H217.589ZM217.589 242.287V235.763H218.851V242.287H217.589ZM222.429 242.287L220.061 235.763H221.336L223.069 240.704L224.803 235.763H226.077L223.71 242.287H222.429ZM228.642 242.468C228.159 242.468 227.754 242.379 227.428 242.202C227.102 242.021 226.854 241.783 226.685 241.489C226.52 241.191 226.438 240.865 226.438 240.511C226.438 240.18 226.496 239.891 226.613 239.641C226.73 239.391 226.903 239.18 227.132 239.007C227.362 238.829 227.644 238.686 227.978 238.578C228.268 238.493 228.596 238.419 228.963 238.354C229.329 238.29 229.714 238.229 230.116 238.173C230.523 238.117 230.926 238.06 231.324 238.004L230.865 238.258C230.873 237.746 230.765 237.368 230.539 237.122C230.318 236.872 229.935 236.747 229.391 236.747C229.049 236.747 228.735 236.828 228.449 236.989C228.163 237.146 227.964 237.408 227.851 237.774L226.673 237.412C226.834 236.852 227.14 236.407 227.591 236.077C228.046 235.747 228.65 235.582 229.404 235.582C229.987 235.582 230.495 235.682 230.926 235.884C231.361 236.081 231.679 236.395 231.88 236.826C231.985 237.039 232.049 237.265 232.073 237.502C232.098 237.74 232.11 237.996 232.11 238.27V242.287H230.992V240.795L231.21 240.988C230.94 241.487 230.596 241.86 230.177 242.105C229.762 242.347 229.25 242.468 228.642 242.468ZM228.866 241.435C229.224 241.435 229.532 241.372 229.79 241.248C230.048 241.119 230.255 240.956 230.412 240.758C230.569 240.561 230.672 240.356 230.72 240.142C230.789 239.949 230.827 239.731 230.835 239.49C230.847 239.248 230.853 239.055 230.853 238.91L231.264 239.061C230.865 239.121 230.503 239.176 230.177 239.224C229.851 239.272 229.555 239.321 229.289 239.369C229.027 239.413 228.793 239.468 228.588 239.532C228.415 239.593 228.26 239.665 228.123 239.75C227.99 239.834 227.883 239.937 227.803 240.058C227.726 240.178 227.688 240.325 227.688 240.499C227.688 240.668 227.73 240.825 227.815 240.97C227.899 241.111 228.028 241.223 228.201 241.308C228.375 241.393 228.596 241.435 228.866 241.435ZM236.741 242.468C236.117 242.468 235.593 242.317 235.17 242.015C234.747 241.709 234.427 241.296 234.21 240.776C233.992 240.257 233.884 239.671 233.884 239.019C233.884 238.366 233.99 237.78 234.204 237.261C234.421 236.741 234.739 236.333 235.158 236.035C235.581 235.733 236.101 235.582 236.717 235.582C237.329 235.582 237.856 235.733 238.299 236.035C238.746 236.333 239.091 236.741 239.332 237.261C239.574 237.776 239.695 238.362 239.695 239.019C239.695 239.671 239.574 240.259 239.332 240.783C239.095 241.302 238.754 241.713 238.311 242.015C237.872 242.317 237.349 242.468 236.741 242.468ZM233.672 242.287V233.588H234.941V237.593H234.796V242.287H233.672ZM236.566 241.326C236.968 241.326 237.301 241.223 237.562 241.018C237.828 240.813 238.025 240.537 238.154 240.191C238.287 239.84 238.354 239.45 238.354 239.019C238.354 238.592 238.287 238.205 238.154 237.859C238.025 237.513 237.826 237.237 237.556 237.031C237.286 236.826 236.942 236.723 236.523 236.723C236.129 236.723 235.803 236.82 235.545 237.013C235.291 237.207 235.102 237.476 234.977 237.823C234.856 238.169 234.796 238.568 234.796 239.019C234.796 239.47 234.856 239.868 234.977 240.215C235.098 240.561 235.289 240.833 235.551 241.03C235.813 241.228 236.151 241.326 236.566 241.326ZM241.149 242.287V233.407H242.412V242.287H241.149ZM247.119 242.468C246.471 242.468 245.901 242.327 245.41 242.045C244.922 241.759 244.542 241.362 244.268 240.855C243.998 240.344 243.863 239.752 243.863 239.079C243.863 238.366 243.996 237.748 244.262 237.225C244.532 236.701 244.906 236.296 245.385 236.01C245.865 235.725 246.422 235.582 247.059 235.582C247.723 235.582 248.289 235.737 248.756 236.047C249.223 236.353 249.572 236.79 249.801 237.358C250.035 237.925 250.127 238.6 250.079 239.381H248.816V238.922C248.808 238.165 248.663 237.605 248.382 237.243C248.104 236.88 247.679 236.699 247.107 236.699C246.475 236.699 246 236.898 245.681 237.297C245.363 237.696 245.204 238.272 245.204 239.025C245.204 239.742 245.363 240.297 245.681 240.692C246 241.083 246.459 241.278 247.059 241.278C247.453 241.278 247.794 241.189 248.08 241.012C248.369 240.831 248.595 240.573 248.756 240.239L249.994 240.632C249.741 241.215 249.356 241.668 248.841 241.991C248.325 242.309 247.751 242.468 247.119 242.468ZM244.793 239.381V238.396H249.451V239.381H244.793Z" fill="#171717" fill-opacity="0.6"/>
<path d="M266.966 234.174C267.541 234.174 268.057 234.309 268.512 234.579C268.971 234.849 269.333 235.225 269.599 235.708C269.865 236.188 269.998 236.743 269.998 237.376V239.901C269.998 240.585 269.865 241.177 269.599 241.677C269.333 242.172 268.959 242.554 268.476 242.824C267.992 243.09 267.425 243.223 266.772 243.223C266.349 243.223 265.947 243.161 265.564 243.036C265.186 242.907 264.835 242.695 264.513 242.401L265.685 241.23C265.83 241.375 265.997 241.487 266.186 241.568C266.38 241.648 266.575 241.689 266.772 241.689C267.086 241.689 267.358 241.616 267.588 241.471C267.821 241.322 268 241.131 268.125 240.897C268.254 240.66 268.319 240.408 268.319 240.142V238.85L268.596 239.152C268.351 239.405 268.063 239.601 267.733 239.738C267.402 239.87 267.062 239.937 266.712 239.937C266.164 239.937 265.681 239.814 265.262 239.568C264.847 239.323 264.521 238.987 264.284 238.56C264.05 238.133 263.933 237.646 263.933 237.098C263.933 236.55 264.072 236.057 264.35 235.618C264.628 235.175 264.996 234.825 265.455 234.567C265.914 234.305 266.418 234.174 266.966 234.174ZM266.966 235.745C266.716 235.745 266.486 235.805 266.277 235.926C266.072 236.047 265.906 236.21 265.782 236.415C265.661 236.621 265.6 236.848 265.6 237.098C265.6 237.348 265.661 237.577 265.782 237.786C265.902 237.992 266.065 238.157 266.271 238.282C266.476 238.403 266.704 238.463 266.953 238.463C267.203 238.463 267.431 238.403 267.636 238.282C267.845 238.157 268.011 237.992 268.131 237.786C268.256 237.577 268.319 237.348 268.319 237.098C268.319 236.856 268.258 236.633 268.137 236.427C268.017 236.222 267.853 236.057 267.648 235.932C267.443 235.807 267.215 235.745 266.966 235.745ZM273.889 234.343H275.532L273.212 243.042H271.569L273.889 234.343ZM278.616 243.042V236.131L276.985 237.134V235.322L278.616 234.343H280.295V243.042H278.616ZM285.817 243.223C285.173 243.223 284.609 243.088 284.126 242.818C283.643 242.548 283.266 242.172 282.996 241.689C282.726 241.205 282.591 240.642 282.591 239.997V237.388C282.591 236.743 282.726 236.18 282.996 235.696C283.266 235.213 283.643 234.837 284.126 234.567C284.609 234.297 285.173 234.162 285.817 234.162C286.461 234.162 287.025 234.297 287.508 234.567C287.992 234.837 288.368 235.213 288.638 235.696C288.908 236.18 289.043 236.743 289.043 237.388V239.997C289.043 240.642 288.908 241.205 288.638 241.689C288.368 242.172 287.992 242.548 287.508 242.818C287.025 243.088 286.461 243.223 285.817 243.223ZM285.817 241.664C286.107 241.664 286.369 241.596 286.602 241.459C286.836 241.322 287.021 241.137 287.158 240.903C287.295 240.67 287.363 240.408 287.363 240.118V237.255C287.363 236.965 287.295 236.703 287.158 236.47C287.021 236.236 286.836 236.051 286.602 235.914C286.369 235.777 286.107 235.708 285.817 235.708C285.527 235.708 285.265 235.777 285.032 235.914C284.798 236.051 284.613 236.236 284.476 236.47C284.339 236.703 284.271 236.965 284.271 237.255V240.118C284.271 240.408 284.339 240.67 284.476 240.903C284.613 241.137 284.798 241.322 285.032 241.459C285.265 241.596 285.527 241.664 285.817 241.664Z" fill="#00BA70"/>
<path d="M257.801 223.597V252.343" stroke="#E2E2E2" stroke-width="1.10564"/>
<rect x="168.904" y="179" width="150.697" height="30.6651" rx="15.3326" fill="white"/>
<rect x="169.456" y="179.553" width="149.592" height="29.5595" rx="14.7797" stroke="#E3E3E3" stroke-opacity="0.4" stroke-width="1.10564"/>
<path d="M274.2 180.106H304.053C311.991 180.106 318.426 186.541 318.426 194.479C318.426 202.417 311.991 208.852 304.053 208.852H274.2V180.106Z" fill="#F5EEE0"/>
<path d="M186.808 198.977C186.127 198.977 185.525 198.838 185.002 198.56C184.482 198.278 184.075 197.886 183.782 197.382C183.488 196.875 183.341 196.279 183.341 195.594V190.103L184.621 190.097V195.528C184.621 195.898 184.684 196.224 184.808 196.506C184.933 196.788 185.1 197.024 185.31 197.213C185.519 197.402 185.753 197.545 186.01 197.642C186.272 197.739 186.538 197.787 186.808 197.787C187.082 197.787 187.347 197.739 187.605 197.642C187.867 197.541 188.103 197.396 188.312 197.207C188.521 197.018 188.686 196.782 188.807 196.5C188.932 196.218 188.995 195.894 188.995 195.528V190.097H190.275V195.594C190.275 196.275 190.128 196.869 189.834 197.376C189.54 197.884 189.131 198.278 188.608 198.56C188.088 198.838 187.488 198.977 186.808 198.977ZM194.752 198.977C194.128 198.977 193.564 198.87 193.061 198.657C192.562 198.439 192.149 198.131 191.823 197.733C191.5 197.33 191.291 196.853 191.194 196.301L192.511 196.102C192.644 196.633 192.922 197.048 193.345 197.346C193.768 197.64 194.261 197.787 194.825 197.787C195.175 197.787 195.497 197.733 195.791 197.624C196.085 197.511 196.321 197.352 196.498 197.147C196.679 196.937 196.77 196.687 196.77 196.398C196.77 196.24 196.742 196.102 196.685 195.981C196.633 195.86 196.558 195.755 196.462 195.667C196.369 195.574 196.254 195.495 196.117 195.431C195.985 195.363 195.838 195.304 195.677 195.256L193.448 194.597C193.23 194.533 193.009 194.45 192.783 194.35C192.558 194.245 192.35 194.11 192.161 193.945C191.976 193.776 191.825 193.569 191.708 193.323C191.591 193.073 191.533 192.771 191.533 192.417C191.533 191.881 191.67 191.428 191.943 191.058C192.221 190.683 192.596 190.401 193.067 190.212C193.538 190.019 194.066 189.922 194.65 189.922C195.238 189.93 195.763 190.035 196.226 190.236C196.693 190.438 197.08 190.727 197.386 191.106C197.696 191.481 197.91 191.936 198.026 192.471L196.673 192.701C196.613 192.375 196.484 192.095 196.287 191.861C196.089 191.623 195.848 191.442 195.562 191.317C195.276 191.189 194.966 191.122 194.632 191.118C194.309 191.11 194.013 191.158 193.744 191.263C193.478 191.368 193.264 191.515 193.103 191.704C192.946 191.893 192.868 192.111 192.868 192.356C192.868 192.598 192.938 192.793 193.079 192.942C193.22 193.091 193.393 193.21 193.599 193.299C193.808 193.383 194.015 193.454 194.221 193.51L195.828 193.963C196.029 194.02 196.256 194.096 196.51 194.193C196.768 194.285 197.016 194.416 197.253 194.585C197.495 194.755 197.694 194.98 197.851 195.262C198.008 195.54 198.087 195.89 198.087 196.313C198.087 196.752 197.998 197.139 197.821 197.473C197.644 197.803 197.4 198.081 197.09 198.306C196.784 198.528 196.43 198.695 196.027 198.808C195.624 198.92 195.199 198.977 194.752 198.977ZM201.189 198.796L204.016 190.097H205.834L208.661 198.796H207.35L204.746 190.858H205.073L202.499 198.796H201.189ZM202.656 196.832V195.649H207.199V196.832H202.656ZM212.535 198.977C211.867 198.977 211.299 198.828 210.832 198.53C210.365 198.232 210.006 197.823 209.757 197.304C209.511 196.784 209.386 196.194 209.382 195.534C209.386 194.861 209.515 194.267 209.769 193.752C210.022 193.232 210.385 192.826 210.856 192.532C211.327 192.238 211.893 192.091 212.553 192.091C213.266 192.091 213.874 192.268 214.378 192.622C214.885 192.977 215.219 193.462 215.38 194.078L214.124 194.44C213.999 194.074 213.794 193.79 213.508 193.589C213.226 193.383 212.902 193.281 212.535 193.281C212.12 193.281 211.78 193.379 211.514 193.577C211.249 193.77 211.051 194.036 210.922 194.374C210.793 194.712 210.727 195.099 210.723 195.534C210.727 196.206 210.88 196.75 211.182 197.165C211.488 197.579 211.939 197.787 212.535 197.787C212.942 197.787 213.27 197.694 213.52 197.509C213.774 197.32 213.967 197.05 214.1 196.7L215.38 197.002C215.167 197.638 214.815 198.127 214.323 198.469C213.832 198.808 213.236 198.977 212.535 198.977ZM219.225 198.977C218.556 198.977 217.988 198.828 217.521 198.53C217.054 198.232 216.696 197.823 216.446 197.304C216.2 196.784 216.076 196.194 216.071 195.534C216.076 194.861 216.204 194.267 216.458 193.752C216.712 193.232 217.074 192.826 217.545 192.532C218.017 192.238 218.582 192.091 219.243 192.091C219.956 192.091 220.564 192.268 221.067 192.622C221.574 192.977 221.909 193.462 222.07 194.078L220.813 194.44C220.688 194.074 220.483 193.79 220.197 193.589C219.915 193.383 219.591 193.281 219.225 193.281C218.81 193.281 218.47 193.379 218.204 193.577C217.938 193.77 217.741 194.036 217.612 194.374C217.483 194.712 217.417 195.099 217.412 195.534C217.417 196.206 217.57 196.75 217.872 197.165C218.178 197.579 218.629 197.787 219.225 197.787C219.631 197.787 219.96 197.694 220.209 197.509C220.463 197.32 220.656 197.05 220.789 196.7L222.07 197.002C221.856 197.638 221.504 198.127 221.013 198.469C220.521 198.808 219.925 198.977 219.225 198.977ZM225.956 198.977C225.304 198.977 224.738 198.83 224.259 198.536C223.78 198.242 223.409 197.837 223.148 197.322C222.89 196.802 222.761 196.204 222.761 195.528C222.761 194.847 222.894 194.249 223.16 193.734C223.425 193.214 223.798 192.811 224.277 192.526C224.756 192.236 225.316 192.091 225.956 192.091C226.609 192.091 227.175 192.238 227.654 192.532C228.133 192.826 228.504 193.23 228.765 193.746C229.027 194.261 229.158 194.855 229.158 195.528C229.158 196.208 229.025 196.808 228.759 197.328C228.497 197.843 228.127 198.248 227.648 198.542C227.169 198.832 226.605 198.977 225.956 198.977ZM225.956 197.787C226.581 197.787 227.046 197.577 227.352 197.159C227.662 196.736 227.817 196.192 227.817 195.528C227.817 194.847 227.66 194.303 227.346 193.897C227.036 193.486 226.573 193.281 225.956 193.281C225.534 193.281 225.185 193.377 224.911 193.571C224.638 193.76 224.434 194.024 224.301 194.362C224.168 194.696 224.102 195.085 224.102 195.528C224.102 196.212 224.259 196.76 224.573 197.171C224.887 197.581 225.348 197.787 225.956 197.787ZM232.944 198.971C232.493 198.971 232.114 198.898 231.808 198.753C231.502 198.608 231.252 198.419 231.059 198.186C230.87 197.948 230.725 197.69 230.624 197.412C230.524 197.134 230.455 196.863 230.419 196.597C230.383 196.331 230.365 196.098 230.365 195.896V192.272H231.645V195.479C231.645 195.733 231.665 195.995 231.706 196.265C231.75 196.53 231.83 196.778 231.947 197.008C232.068 197.237 232.235 197.422 232.448 197.563C232.666 197.704 232.948 197.775 233.294 197.775C233.52 197.775 233.733 197.739 233.934 197.666C234.136 197.59 234.311 197.469 234.46 197.304C234.613 197.139 234.732 196.921 234.816 196.651C234.905 196.381 234.949 196.053 234.949 195.667L235.735 195.963C235.735 196.555 235.624 197.078 235.402 197.533C235.181 197.984 234.863 198.337 234.448 198.59C234.033 198.844 233.532 198.971 232.944 198.971ZM235.1 198.796V196.911H234.949V192.272H236.224V198.796H235.1ZM242.497 198.796V195.588C242.497 195.334 242.475 195.075 242.43 194.809C242.39 194.539 242.31 194.289 242.189 194.06C242.072 193.83 241.905 193.645 241.687 193.504C241.474 193.363 241.194 193.293 240.848 193.293C240.622 193.293 240.409 193.331 240.207 193.407C240.006 193.48 239.829 193.599 239.676 193.764C239.527 193.929 239.408 194.146 239.319 194.416C239.235 194.686 239.193 195.014 239.193 195.401L238.407 195.105C238.407 194.513 238.518 193.991 238.74 193.54C238.961 193.085 239.279 192.731 239.694 192.477C240.109 192.224 240.61 192.097 241.198 192.097C241.649 192.097 242.028 192.169 242.334 192.314C242.64 192.459 242.887 192.65 243.077 192.888C243.27 193.122 243.417 193.377 243.518 193.655C243.618 193.933 243.687 194.205 243.723 194.471C243.759 194.736 243.777 194.97 243.777 195.171V198.796H242.497ZM237.912 198.796V192.272H239.042V194.156H239.193V198.796H237.912ZM249.084 198.796C248.673 198.876 248.27 198.91 247.876 198.898C247.481 198.886 247.129 198.81 246.819 198.669C246.509 198.528 246.275 198.306 246.118 198.004C245.977 197.735 245.9 197.461 245.888 197.183C245.88 196.901 245.876 196.583 245.876 196.228V190.46H247.145V196.168C247.145 196.43 247.147 196.657 247.151 196.851C247.159 197.044 247.201 197.207 247.278 197.34C247.423 197.59 247.652 197.733 247.966 197.769C248.284 197.801 248.657 197.787 249.084 197.726V198.796ZM244.626 193.287V192.272H249.084V193.287H244.626ZM250.58 191.203V189.976H251.843V191.203H250.58ZM250.58 198.796V192.272H251.843V198.796H250.58ZM258.235 198.796V195.588C258.235 195.334 258.213 195.075 258.169 194.809C258.129 194.539 258.048 194.289 257.927 194.06C257.81 193.83 257.643 193.645 257.426 193.504C257.212 193.363 256.933 193.293 256.586 193.293C256.361 193.293 256.147 193.331 255.946 193.407C255.745 193.48 255.567 193.599 255.414 193.764C255.265 193.929 255.147 194.146 255.058 194.416C254.973 194.686 254.931 195.014 254.931 195.401L254.146 195.105C254.146 194.513 254.257 193.991 254.478 193.54C254.7 193.085 255.018 192.731 255.432 192.477C255.847 192.224 256.349 192.097 256.937 192.097C257.388 192.097 257.766 192.169 258.072 192.314C258.378 192.459 258.626 192.65 258.815 192.888C259.009 193.122 259.155 193.377 259.256 193.655C259.357 193.933 259.425 194.205 259.462 194.471C259.498 194.736 259.516 194.97 259.516 195.171V198.796H258.235ZM253.651 198.796V192.272H254.78V194.156H254.931V198.796H253.651ZM263.777 201.876C263.427 201.876 263.087 201.822 262.756 201.713C262.43 201.605 262.132 201.443 261.862 201.23C261.593 201.021 261.369 200.761 261.192 200.451L262.358 199.859C262.499 200.137 262.7 200.34 262.962 200.469C263.224 200.598 263.499 200.662 263.789 200.662C264.148 200.662 264.454 200.598 264.708 200.469C264.961 200.344 265.153 200.155 265.281 199.901C265.414 199.647 265.479 199.333 265.475 198.959V197.134H265.626V192.272H266.743V198.971C266.743 199.144 266.737 199.309 266.725 199.466C266.713 199.623 266.691 199.78 266.659 199.937C266.566 200.376 266.389 200.739 266.127 201.025C265.869 201.311 265.539 201.524 265.136 201.665C264.738 201.806 264.285 201.876 263.777 201.876ZM263.681 198.977C263.073 198.977 262.547 198.826 262.104 198.524C261.665 198.222 261.325 197.811 261.083 197.292C260.846 196.768 260.727 196.18 260.727 195.528C260.727 194.871 260.848 194.285 261.089 193.77C261.331 193.25 261.673 192.842 262.116 192.544C262.563 192.242 263.093 192.091 263.705 192.091C264.321 192.091 264.838 192.242 265.257 192.544C265.68 192.842 265.998 193.25 266.212 193.77C266.429 194.289 266.538 194.875 266.538 195.528C266.538 196.18 266.429 196.766 266.212 197.286C265.994 197.805 265.674 198.218 265.251 198.524C264.828 198.826 264.305 198.977 263.681 198.977ZM263.856 197.835C264.271 197.835 264.609 197.737 264.871 197.539C265.132 197.342 265.324 197.07 265.445 196.724C265.565 196.377 265.626 195.979 265.626 195.528C265.626 195.077 265.563 194.678 265.439 194.332C265.318 193.985 265.128 193.716 264.871 193.522C264.617 193.329 264.293 193.232 263.898 193.232C263.479 193.232 263.135 193.335 262.865 193.54C262.595 193.746 262.394 194.022 262.261 194.368C262.132 194.714 262.068 195.101 262.068 195.528C262.068 195.959 262.132 196.349 262.261 196.7C262.394 197.046 262.591 197.322 262.853 197.527C263.119 197.733 263.453 197.835 263.856 197.835Z" fill="#171717" fill-opacity="0.6"/>
<path d="M283.365 190.683C283.941 190.683 284.456 190.818 284.911 191.088C285.37 191.358 285.733 191.734 285.999 192.218C286.264 192.697 286.397 193.252 286.397 193.885V196.41C286.397 197.094 286.264 197.686 285.999 198.186C285.733 198.681 285.358 199.064 284.875 199.333C284.392 199.599 283.824 199.732 283.172 199.732C282.749 199.732 282.346 199.67 281.964 199.545C281.585 199.416 281.235 199.204 280.912 198.91L282.084 197.739C282.229 197.884 282.396 197.996 282.586 198.077C282.779 198.157 282.974 198.198 283.172 198.198C283.486 198.198 283.758 198.125 283.987 197.98C284.221 197.831 284.4 197.64 284.525 197.406C284.654 197.169 284.718 196.917 284.718 196.651V195.359L284.996 195.661C284.75 195.914 284.462 196.11 284.132 196.247C283.802 196.379 283.462 196.446 283.111 196.446C282.564 196.446 282.08 196.323 281.661 196.077C281.247 195.832 280.921 195.496 280.683 195.069C280.449 194.642 280.333 194.155 280.333 193.607C280.333 193.059 280.472 192.566 280.749 192.127C281.027 191.684 281.396 191.334 281.855 191.076C282.314 190.814 282.817 190.683 283.365 190.683ZM283.365 192.254C283.115 192.254 282.886 192.314 282.676 192.435C282.471 192.556 282.306 192.719 282.181 192.924C282.06 193.13 282 193.357 282 193.607C282 193.857 282.06 194.086 282.181 194.295C282.302 194.501 282.465 194.666 282.67 194.791C282.876 194.912 283.103 194.972 283.353 194.972C283.603 194.972 283.83 194.912 284.035 194.791C284.245 194.666 284.41 194.501 284.531 194.295C284.656 194.086 284.718 193.857 284.718 193.607C284.718 193.365 284.658 193.142 284.537 192.936C284.416 192.731 284.253 192.566 284.048 192.441C283.842 192.316 283.615 192.254 283.365 192.254ZM290.288 190.852H291.931L289.612 199.551H287.969L290.288 190.852ZM295.015 199.551V192.64L293.384 193.643V191.831L295.015 190.852H296.694V199.551H295.015ZM302.217 199.732C301.572 199.732 301.008 199.597 300.525 199.327C300.042 199.057 299.665 198.681 299.396 198.198C299.126 197.714 298.991 197.151 298.991 196.506V193.897C298.991 193.252 299.126 192.689 299.396 192.205C299.665 191.722 300.042 191.346 300.525 191.076C301.008 190.806 301.572 190.671 302.217 190.671C302.861 190.671 303.425 190.806 303.908 191.076C304.391 191.346 304.768 191.722 305.037 192.205C305.307 192.689 305.442 193.252 305.442 193.897V196.506C305.442 197.151 305.307 197.714 305.037 198.198C304.768 198.681 304.391 199.057 303.908 199.327C303.425 199.597 302.861 199.732 302.217 199.732ZM302.217 198.174C302.506 198.174 302.768 198.105 303.002 197.968C303.235 197.831 303.421 197.646 303.558 197.412C303.694 197.179 303.763 196.917 303.763 196.627V193.764C303.763 193.474 303.694 193.212 303.558 192.979C303.421 192.745 303.235 192.56 303.002 192.423C302.768 192.286 302.506 192.218 302.217 192.218C301.927 192.218 301.665 192.286 301.431 192.423C301.198 192.56 301.012 192.745 300.876 192.979C300.739 193.212 300.67 193.474 300.67 193.764V196.627C300.67 196.917 300.739 197.179 300.876 197.412C301.012 197.646 301.198 197.831 301.431 197.968C301.665 198.105 301.927 198.174 302.217 198.174Z" fill="#DEAC2B"/>
<path d="M274.2 180.106V208.852" stroke="#E2E2E2" stroke-width="1.10564"/>
<rect x="-44" y="179" width="208.523" height="30.6651" rx="15.3326" fill="white"/>
<rect x="-43.4472" y="179.553" width="207.417" height="29.5595" rx="14.7797" stroke="#E3E3E3" stroke-opacity="0.4" stroke-width="1.10564"/>
<path d="M119.297 180.106H149.149C157.087 180.106 163.522 186.541 163.522 194.479C163.522 202.417 157.087 208.852 149.149 208.852H119.297V180.106Z" fill="#E4FFF4"/>
<path d="M-29.563 198.796V190.097H-24.4104V191.36H-28.3005V193.812H-25.1353V195.081H-28.3005V198.796H-29.563ZM-23.2011 191.203V189.976H-21.9386V191.203H-23.2011ZM-23.2011 198.796V192.272H-21.9386V198.796H-23.2011ZM-20.8495 198.796L-18.4091 195.498L-20.7951 192.272H-19.2971L-17.6721 194.513L-16.0654 192.272H-14.5673L-16.9533 195.498L-14.5069 198.796H-16.011L-17.6721 196.482L-19.3454 198.796H-20.8495ZM-10.8839 198.977C-11.5322 198.977 -12.1021 198.836 -12.5934 198.554C-13.0806 198.268 -13.4612 197.871 -13.735 197.364C-14.0048 196.853 -14.1397 196.261 -14.1397 195.588C-14.1397 194.875 -14.0068 194.257 -13.7411 193.734C-13.4712 193.21 -13.0967 192.805 -12.6175 192.52C-12.1383 192.234 -11.5806 192.091 -10.9443 192.091C-10.2798 192.091 -9.71401 192.246 -9.24688 192.556C-8.77974 192.862 -8.4314 193.299 -8.20186 193.867C-7.96829 194.434 -7.87567 195.109 -7.92399 195.89H-9.18647V195.431C-9.19452 194.674 -9.3395 194.114 -9.62139 193.752C-9.89926 193.389 -10.3241 193.208 -10.896 193.208C-11.5282 193.208 -12.0034 193.407 -12.3215 193.806C-12.6397 194.205 -12.7987 194.781 -12.7987 195.534C-12.7987 196.251 -12.6397 196.806 -12.3215 197.201C-12.0034 197.592 -11.5443 197.787 -10.9443 197.787C-10.5496 197.787 -10.2093 197.698 -9.92342 197.521C-9.63347 197.34 -9.40796 197.082 -9.24688 196.748L-8.00856 197.141C-8.26226 197.724 -8.64685 198.178 -9.16231 198.5C-9.67777 198.818 -10.2516 198.977 -10.8839 198.977ZM-13.2095 195.89V194.906H-8.55221V195.89H-13.2095ZM-3.97733 198.977C-4.58541 198.977 -5.11094 198.826 -5.55392 198.524C-5.99287 198.222 -6.33315 197.811 -6.57477 197.292C-6.81237 196.768 -6.93117 196.18 -6.93117 195.528C-6.93117 194.871 -6.81036 194.285 -6.56873 193.77C-6.32711 193.25 -5.98481 192.842 -5.54184 192.544C-5.09483 192.242 -4.56528 192.091 -3.95317 192.091C-3.33703 192.091 -2.81955 192.242 -2.40074 192.544C-1.9779 192.842 -1.65976 193.25 -1.44633 193.77C-1.22887 194.289 -1.12014 194.875 -1.12014 195.528C-1.12014 196.18 -1.22887 196.766 -1.44633 197.286C-1.66379 197.805 -1.98394 198.218 -2.40678 198.524C-2.82962 198.826 -3.35314 198.977 -3.97733 198.977ZM-3.80215 197.835C-3.38737 197.835 -3.04909 197.737 -2.78734 197.539C-2.52558 197.342 -2.33429 197.07 -2.21348 196.724C-2.09267 196.377 -2.03227 195.979 -2.03227 195.528C-2.03227 195.077 -2.09468 194.678 -2.21952 194.332C-2.34033 193.985 -2.52961 193.716 -2.78734 193.522C-3.04104 193.329 -3.36522 193.232 -3.75987 193.232C-4.17868 193.232 -4.52299 193.335 -4.79281 193.54C-5.06262 193.746 -5.26397 194.022 -5.39686 194.368C-5.52573 194.714 -5.59016 195.101 -5.59016 195.528C-5.59016 195.959 -5.52573 196.349 -5.39686 196.7C-5.26397 197.046 -5.06665 197.322 -4.80489 197.527C-4.5391 197.733 -4.20486 197.835 -3.80215 197.835ZM-2.03227 198.796V194.102H-2.17724V190.097H-0.90872V198.796H-2.03227ZM2.59594 198.796L5.42293 190.097H7.24114L10.0681 198.796H8.75732L6.15384 190.858H6.48003L3.90675 198.796H2.59594ZM4.0638 196.832V195.649H8.60631V196.832H4.0638ZM13.6466 198.971C12.8533 198.971 12.2069 198.796 11.7076 198.445C11.2082 198.095 10.9022 197.602 10.7894 196.965L12.0821 196.766C12.1626 197.104 12.3479 197.372 12.6378 197.569C12.9318 197.763 13.2962 197.859 13.7312 197.859C14.1258 197.859 14.4339 197.779 14.6554 197.618C14.8809 197.457 14.9936 197.235 14.9936 196.953C14.9936 196.788 14.9534 196.655 14.8728 196.555C14.7963 196.45 14.6332 196.351 14.3835 196.259C14.1339 196.166 13.7533 196.051 13.2419 195.914C12.6821 195.769 12.2371 195.614 11.9069 195.449C11.5807 195.28 11.3472 195.085 11.2062 194.863C11.0693 194.638 11.0008 194.366 11.0008 194.048C11.0008 193.653 11.1055 193.309 11.3149 193.015C11.5243 192.721 11.8183 192.493 12.1969 192.332C12.5794 192.171 13.0264 192.091 13.5379 192.091C14.0372 192.091 14.4822 192.169 14.8728 192.326C15.2635 192.483 15.5796 192.707 15.8212 192.997C16.0628 193.283 16.2078 193.619 16.2561 194.005L14.9634 194.241C14.9191 193.927 14.7722 193.679 14.5225 193.498C14.2728 193.317 13.9486 193.218 13.5499 193.202C13.1674 193.186 12.8573 193.25 12.6197 193.395C12.3821 193.536 12.2633 193.732 12.2633 193.981C12.2633 194.126 12.3076 194.249 12.3962 194.35C12.4888 194.45 12.666 194.547 12.9278 194.64C13.1895 194.732 13.5761 194.843 14.0876 194.972C14.6352 195.113 15.0702 195.27 15.3923 195.443C15.7145 195.612 15.944 195.816 16.0809 196.053C16.2219 196.287 16.2924 196.571 16.2924 196.905C16.2924 197.549 16.0568 198.055 15.5856 198.421C15.1185 198.788 14.4721 198.971 13.6466 198.971ZM20.1237 198.971C19.3304 198.971 18.684 198.796 18.1847 198.445C17.6853 198.095 17.3793 197.602 17.2665 196.965L18.5592 196.766C18.6397 197.104 18.825 197.372 19.1149 197.569C19.4089 197.763 19.7733 197.859 20.2083 197.859C20.6029 197.859 20.911 197.779 21.1325 197.618C21.358 197.457 21.4707 197.235 21.4707 196.953C21.4707 196.788 21.4305 196.655 21.3499 196.555C21.2734 196.45 21.1103 196.351 20.8606 196.259C20.611 196.166 20.2304 196.051 19.719 195.914C19.1592 195.769 18.7142 195.614 18.384 195.449C18.0578 195.28 17.8243 195.085 17.6833 194.863C17.5464 194.638 17.4779 194.366 17.4779 194.048C17.4779 193.653 17.5826 193.309 17.792 193.015C18.0014 192.721 18.2954 192.493 18.674 192.332C19.0565 192.171 19.5035 192.091 20.015 192.091C20.5143 192.091 20.9593 192.169 21.3499 192.326C21.7406 192.483 22.0567 192.707 22.2983 192.997C22.5399 193.283 22.6849 193.619 22.7332 194.005L21.4405 194.241C21.3962 193.927 21.2493 193.679 20.9996 193.498C20.7499 193.317 20.4257 193.218 20.027 193.202C19.6445 193.186 19.3344 193.25 19.0968 193.395C18.8592 193.536 18.7404 193.732 18.7404 193.981C18.7404 194.126 18.7847 194.249 18.8733 194.35C18.9659 194.45 19.1431 194.547 19.4049 194.64C19.6666 194.732 20.0532 194.843 20.5647 194.972C21.1123 195.113 21.5473 195.27 21.8694 195.443C22.1916 195.612 22.4211 195.816 22.558 196.053C22.699 196.287 22.7695 196.571 22.7695 196.905C22.7695 197.549 22.5339 198.055 22.0627 198.421C21.5956 198.788 20.9492 198.971 20.1237 198.971ZM26.9995 198.977C26.3511 198.977 25.7813 198.836 25.29 198.554C24.8027 198.268 24.4222 197.871 24.1483 197.364C23.8785 196.853 23.7436 196.261 23.7436 195.588C23.7436 194.875 23.8765 194.257 24.1423 193.734C24.4121 193.21 24.7866 192.805 25.2658 192.52C25.745 192.234 26.3028 192.091 26.9391 192.091C27.6035 192.091 28.1693 192.246 28.6365 192.556C29.1036 192.862 29.4519 193.299 29.6815 193.867C29.915 194.434 30.0077 195.109 29.9593 195.89H28.6969V195.431C28.6888 194.674 28.5438 194.114 28.2619 193.752C27.9841 193.389 27.5592 193.208 26.9874 193.208C26.3551 193.208 25.8799 193.407 25.5618 193.806C25.2437 194.205 25.0846 194.781 25.0846 195.534C25.0846 196.251 25.2437 196.806 25.5618 197.201C25.8799 197.592 26.339 197.787 26.9391 197.787C27.3337 197.787 27.674 197.698 27.9599 197.521C28.2499 197.34 28.4754 197.082 28.6365 196.748L29.8748 197.141C29.6211 197.724 29.2365 198.178 28.721 198.5C28.2056 198.818 27.6317 198.977 26.9995 198.977ZM24.6738 195.89V194.906H29.3311V195.89H24.6738ZM35.0477 198.796C34.6369 198.876 34.2342 198.91 33.8396 198.898C33.4449 198.886 33.0925 198.81 32.7825 198.669C32.4724 198.528 32.2388 198.306 32.0818 198.004C31.9408 197.735 31.8643 197.461 31.8522 197.183C31.8442 196.901 31.8401 196.583 31.8401 196.228V190.46H33.1087V196.168C33.1087 196.43 33.1107 196.657 33.1147 196.851C33.1227 197.044 33.165 197.207 33.2415 197.34C33.3865 197.59 33.6161 197.733 33.9302 197.769C34.2483 197.801 34.6208 197.787 35.0477 197.726V198.796ZM30.5897 193.287V192.272H35.0477V193.287H30.5897ZM38.9179 198.971C38.1246 198.971 37.4782 198.796 36.9789 198.445C36.4795 198.095 36.1735 197.602 36.0607 196.965L37.3534 196.766C37.4339 197.104 37.6192 197.372 37.9091 197.569C38.2031 197.763 38.5675 197.859 39.0025 197.859C39.3971 197.859 39.7052 197.779 39.9267 197.618C40.1522 197.457 40.2649 197.235 40.2649 196.953C40.2649 196.788 40.2247 196.655 40.1441 196.555C40.0676 196.45 39.9045 196.351 39.6548 196.259C39.4052 196.166 39.0246 196.051 38.5132 195.914C37.9534 195.769 37.5084 195.614 37.1782 195.449C36.852 195.28 36.6184 195.085 36.4775 194.863C36.3406 194.638 36.2721 194.366 36.2721 194.048C36.2721 193.653 36.3768 193.309 36.5862 193.015C36.7956 192.721 37.0896 192.493 37.4682 192.332C37.8507 192.171 38.2977 192.091 38.8092 192.091C39.3085 192.091 39.7535 192.169 40.1441 192.326C40.5347 192.483 40.8509 192.707 41.0925 192.997C41.3341 193.283 41.4791 193.619 41.5274 194.005L40.2347 194.241C40.1904 193.927 40.0434 193.679 39.7938 193.498C39.5441 193.317 39.2199 193.218 38.8212 193.202C38.4387 193.186 38.1286 193.25 37.891 193.395C37.6534 193.536 37.5346 193.732 37.5346 193.981C37.5346 194.126 37.5789 194.249 37.6675 194.35C37.7601 194.45 37.9373 194.547 38.1991 194.64C38.4608 194.732 38.8474 194.843 39.3589 194.972C39.9065 195.113 40.3414 195.27 40.6636 195.443C40.9858 195.612 41.2153 195.816 41.3522 196.053C41.4932 196.287 41.5637 196.571 41.5637 196.905C41.5637 197.549 41.3281 198.055 40.8569 198.421C40.3898 198.788 39.7434 198.971 38.9179 198.971ZM44.7148 198.796L47.5417 190.097H49.36L52.1869 198.796H50.8761L48.2727 190.858H48.5988L46.0256 198.796H44.7148ZM46.1826 196.832V195.649H50.7251V196.832H46.1826ZM56.0614 198.977C55.3929 198.977 54.8251 198.828 54.358 198.53C53.8908 198.232 53.5324 197.823 53.2827 197.304C53.0371 196.784 52.9123 196.194 52.9082 195.534C52.9123 194.861 53.0411 194.267 53.2948 193.752C53.5485 193.232 53.911 192.826 54.3821 192.532C54.8533 192.238 55.4191 192.091 56.0795 192.091C56.7923 192.091 57.4004 192.268 57.9038 192.622C58.4112 192.977 58.7454 193.462 58.9065 194.078L57.6501 194.44C57.5252 194.074 57.3199 193.79 57.0339 193.589C56.752 193.383 56.4279 193.281 56.0614 193.281C55.6466 193.281 55.3063 193.379 55.0405 193.577C54.7748 193.77 54.5774 194.036 54.4486 194.374C54.3197 194.712 54.2533 195.099 54.2492 195.534C54.2533 196.206 54.4063 196.75 54.7083 197.165C55.0144 197.579 55.4654 197.787 56.0614 197.787C56.4681 197.787 56.7963 197.694 57.046 197.509C57.2997 197.32 57.493 197.05 57.6259 196.7L58.9065 197.002C58.6931 197.638 58.3407 198.127 57.8494 198.469C57.3581 198.808 56.7621 198.977 56.0614 198.977ZM62.7509 198.977C62.0824 198.977 61.5146 198.828 61.0474 198.53C60.5803 198.232 60.2219 197.823 59.9722 197.304C59.7266 196.784 59.6017 196.194 59.5977 195.534C59.6017 194.861 59.7306 194.267 59.9843 193.752C60.238 193.232 60.6004 192.826 61.0716 192.532C61.5428 192.238 62.1086 192.091 62.769 192.091C63.4818 192.091 64.0899 192.268 64.5932 192.622C65.1006 192.977 65.4349 193.462 65.596 194.078L64.3395 194.44C64.2147 194.074 64.0093 193.79 63.7234 193.589C63.4415 193.383 63.1173 193.281 62.7509 193.281C62.3361 193.281 61.9958 193.379 61.73 193.577C61.4642 193.77 61.2669 194.036 61.138 194.374C61.0092 194.712 60.9427 195.099 60.9387 195.534C60.9427 196.206 61.0957 196.75 61.3978 197.165C61.7038 197.579 62.1549 197.787 62.7509 197.787C63.1576 197.787 63.4858 197.694 63.7355 197.509C63.9892 197.32 64.1825 197.05 64.3154 196.7L65.596 197.002C65.3825 197.638 65.0302 198.127 64.5389 198.469C64.0476 198.808 63.4516 198.977 62.7509 198.977ZM69.4826 198.977C68.8302 198.977 68.2644 198.83 67.7852 198.536C67.306 198.242 66.9355 197.837 66.6737 197.322C66.416 196.802 66.2871 196.204 66.2871 195.528C66.2871 194.847 66.42 194.249 66.6858 193.734C66.9516 193.214 67.3241 192.811 67.8033 192.526C68.2825 192.236 68.8423 192.091 69.4826 192.091C70.135 192.091 70.7008 192.238 71.18 192.532C71.6592 192.826 72.0297 193.23 72.2915 193.746C72.5532 194.261 72.6841 194.855 72.6841 195.528C72.6841 196.208 72.5512 196.808 72.2854 197.328C72.0237 197.843 71.6532 198.248 71.174 198.542C70.6947 198.832 70.131 198.977 69.4826 198.977ZM69.4826 197.787C70.1068 197.787 70.5719 197.577 70.878 197.159C71.1881 196.736 71.3431 196.192 71.3431 195.528C71.3431 194.847 71.186 194.303 70.8719 193.897C70.5619 193.486 70.0987 193.281 69.4826 193.281C69.0598 193.281 68.7114 193.377 68.4376 193.571C68.1638 193.76 67.9604 194.024 67.8275 194.362C67.6946 194.696 67.6282 195.085 67.6282 195.528C67.6282 196.212 67.7852 196.76 68.0993 197.171C68.4134 197.581 68.8745 197.787 69.4826 197.787ZM76.47 198.971C76.019 198.971 75.6405 198.898 75.3344 198.753C75.0283 198.608 74.7787 198.419 74.5854 198.186C74.3961 197.948 74.2511 197.69 74.1505 197.412C74.0498 197.134 73.9813 196.863 73.9451 196.597C73.9088 196.331 73.8907 196.098 73.8907 195.896V192.272H75.1713V195.479C75.1713 195.733 75.1914 195.995 75.2317 196.265C75.276 196.53 75.3566 196.778 75.4733 197.008C75.5941 197.237 75.7613 197.422 75.9747 197.563C76.1922 197.704 76.4741 197.775 76.8204 197.775C77.0459 197.775 77.2593 197.739 77.4607 197.666C77.662 197.59 77.8372 197.469 77.9862 197.304C78.1392 197.139 78.258 196.921 78.3426 196.651C78.4312 196.381 78.4755 196.053 78.4755 195.667L79.2608 195.963C79.2608 196.555 79.15 197.078 78.9285 197.533C78.7071 197.984 78.3889 198.337 77.9741 198.59C77.5593 198.844 77.058 198.971 76.47 198.971ZM78.6265 198.796V196.911H78.4755V192.272H79.7501V198.796H78.6265ZM86.023 198.796V195.588C86.023 195.334 86.0009 195.075 85.9566 194.809C85.9163 194.539 85.8357 194.289 85.7149 194.06C85.5982 193.83 85.431 193.645 85.2136 193.504C85.0001 193.363 84.7203 193.293 84.3739 193.293C84.1484 193.293 83.935 193.331 83.7336 193.407C83.5323 193.48 83.3551 193.599 83.2021 193.764C83.0531 193.929 82.9343 194.146 82.8457 194.416C82.7611 194.686 82.7188 195.014 82.7188 195.401L81.9335 195.105C81.9335 194.513 82.0443 193.991 82.2658 193.54C82.4873 193.085 82.8054 192.731 83.2202 192.477C83.635 192.224 84.1363 192.097 84.7243 192.097C85.1753 192.097 85.5539 192.169 85.8599 192.314C86.166 192.459 86.4136 192.65 86.6029 192.888C86.7962 193.122 86.9432 193.377 87.0439 193.655C87.1445 193.933 87.213 194.205 87.2492 194.471C87.2855 194.736 87.3036 194.97 87.3036 195.171V198.796H86.023ZM81.4382 198.796V192.272H82.5678V194.156H82.7188V198.796H81.4382ZM92.6101 198.796C92.1993 198.876 91.7966 198.91 91.4019 198.898C91.0073 198.886 90.6549 198.81 90.3448 198.669C90.0348 198.528 89.8012 198.306 89.6441 198.004C89.5032 197.735 89.4267 197.461 89.4146 197.183C89.4065 196.901 89.4025 196.583 89.4025 196.228V190.46H90.671V196.168C90.671 196.43 90.6731 196.657 90.6771 196.851C90.6851 197.044 90.7274 197.207 90.8039 197.34C90.9489 197.59 91.1784 197.733 91.4926 197.769C91.8107 197.801 92.1832 197.787 92.6101 197.726V198.796ZM88.1521 193.287V192.272H92.6101V193.287H88.1521ZM94.1063 191.203V189.976H95.3688V191.203H94.1063ZM94.1063 198.796V192.272H95.3688V198.796H94.1063ZM101.762 198.796V195.588C101.762 195.334 101.739 195.075 101.695 194.809C101.655 194.539 101.574 194.289 101.453 194.06C101.337 193.83 101.17 193.645 100.952 193.504C100.739 193.363 100.459 193.293 100.112 193.293C99.8869 193.293 99.6735 193.331 99.4721 193.407C99.2708 193.48 99.0936 193.599 98.9406 193.764C98.7916 193.929 98.6728 194.146 98.5842 194.416C98.4996 194.686 98.4573 195.014 98.4573 195.401L97.6721 195.105C97.6721 194.513 97.7828 193.991 98.0043 193.54C98.2258 193.085 98.5439 192.731 98.9587 192.477C99.3735 192.224 99.8748 192.097 100.463 192.097C100.914 192.097 101.292 192.169 101.598 192.314C101.904 192.459 102.152 192.65 102.341 192.888C102.535 193.122 102.682 193.377 102.782 193.655C102.883 193.933 102.952 194.205 102.988 194.471C103.024 194.736 103.042 194.97 103.042 195.171V198.796H101.762ZM97.1767 198.796V192.272H98.3063V194.156H98.4573V198.796H97.1767ZM107.304 201.876C106.953 201.876 106.613 201.822 106.283 201.713C105.957 201.605 105.659 201.443 105.389 201.23C105.119 201.021 104.895 200.761 104.718 200.451L105.884 199.859C106.025 200.137 106.226 200.34 106.488 200.469C106.75 200.598 107.026 200.662 107.316 200.662C107.674 200.662 107.98 200.598 108.234 200.469C108.488 200.344 108.679 200.155 108.808 199.901C108.941 199.647 109.005 199.333 109.001 198.959V197.134H109.152V192.272H110.269V198.971C110.269 199.144 110.263 199.309 110.251 199.466C110.239 199.623 110.217 199.78 110.185 199.937C110.092 200.376 109.915 200.739 109.653 201.025C109.396 201.311 109.065 201.524 108.663 201.665C108.264 201.806 107.811 201.876 107.304 201.876ZM107.207 198.977C106.599 198.977 106.073 198.826 105.63 198.524C105.191 198.222 104.851 197.811 104.609 197.292C104.372 196.768 104.253 196.18 104.253 195.528C104.253 194.871 104.374 194.285 104.616 193.77C104.857 193.25 105.199 192.842 105.642 192.544C106.089 192.242 106.619 192.091 107.231 192.091C107.847 192.091 108.365 192.242 108.783 192.544C109.206 192.842 109.524 193.25 109.738 193.77C109.955 194.289 110.064 194.875 110.064 195.528C110.064 196.18 109.955 196.766 109.738 197.286C109.52 197.805 109.2 198.218 108.777 198.524C108.355 198.826 107.831 198.977 107.207 198.977ZM107.382 197.835C107.797 197.835 108.135 197.737 108.397 197.539C108.659 197.342 108.85 197.07 108.971 196.724C109.092 196.377 109.152 195.979 109.152 195.528C109.152 195.077 109.09 194.678 108.965 194.332C108.844 193.985 108.655 193.716 108.397 193.522C108.143 193.329 107.819 193.232 107.424 193.232C107.006 193.232 106.661 193.335 106.391 193.54C106.122 193.746 105.92 194.022 105.787 194.368C105.659 194.714 105.594 195.101 105.594 195.528C105.594 195.959 105.659 196.349 105.787 196.7C105.92 197.046 106.118 197.322 106.379 197.527C106.645 197.733 106.979 197.835 107.382 197.835Z" fill="#171717" fill-opacity="0.6"/>
<path d="M128.461 190.683C129.037 190.683 129.552 190.818 130.008 191.088C130.467 191.358 130.829 191.734 131.095 192.218C131.361 192.697 131.493 193.252 131.493 193.885V196.41C131.493 197.094 131.361 197.686 131.095 198.186C130.829 198.681 130.455 199.064 129.971 199.333C129.488 199.599 128.92 199.732 128.268 199.732C127.845 199.732 127.442 199.67 127.06 199.545C126.681 199.416 126.331 199.204 126.009 198.91L127.181 197.739C127.326 197.884 127.493 197.996 127.682 198.077C127.875 198.157 128.071 198.198 128.268 198.198C128.582 198.198 128.854 198.125 129.083 197.98C129.317 197.831 129.496 197.64 129.621 197.406C129.75 197.169 129.814 196.917 129.814 196.651V195.359L130.092 195.661C129.846 195.914 129.559 196.11 129.228 196.247C128.898 196.379 128.558 196.446 128.207 196.446C127.66 196.446 127.177 196.323 126.758 196.077C126.343 195.832 126.017 195.496 125.779 195.069C125.546 194.642 125.429 194.155 125.429 193.607C125.429 193.059 125.568 192.566 125.846 192.127C126.123 191.684 126.492 191.334 126.951 191.076C127.41 190.814 127.913 190.683 128.461 190.683ZM128.461 192.254C128.211 192.254 127.982 192.314 127.773 192.435C127.567 192.556 127.402 192.719 127.277 192.924C127.156 193.13 127.096 193.357 127.096 193.607C127.096 193.857 127.156 194.086 127.277 194.295C127.398 194.501 127.561 194.666 127.766 194.791C127.972 194.912 128.199 194.972 128.449 194.972C128.699 194.972 128.926 194.912 129.132 194.791C129.341 194.666 129.506 194.501 129.627 194.295C129.752 194.086 129.814 193.857 129.814 193.607C129.814 193.365 129.754 193.142 129.633 192.936C129.512 192.731 129.349 192.566 129.144 192.441C128.938 192.316 128.711 192.254 128.461 192.254ZM135.384 190.852H137.028L134.708 199.551H133.065L135.384 190.852ZM140.111 199.551V192.64L138.48 193.643V191.831L140.111 190.852H141.79V199.551H140.111ZM147.313 199.732C146.668 199.732 146.105 199.597 145.621 199.327C145.138 199.057 144.762 198.681 144.492 198.198C144.222 197.714 144.087 197.151 144.087 196.506V193.897C144.087 193.252 144.222 192.689 144.492 192.205C144.762 191.722 145.138 191.346 145.621 191.076C146.105 190.806 146.668 190.671 147.313 190.671C147.957 190.671 148.521 190.806 149.004 191.076C149.487 191.346 149.864 191.722 150.134 192.205C150.403 192.689 150.538 193.252 150.538 193.897V196.506C150.538 197.151 150.403 197.714 150.134 198.198C149.864 198.681 149.487 199.057 149.004 199.327C148.521 199.597 147.957 199.732 147.313 199.732ZM147.313 198.174C147.603 198.174 147.864 198.105 148.098 197.968C148.332 197.831 148.517 197.646 148.654 197.412C148.791 197.179 148.859 196.917 148.859 196.627V193.764C148.859 193.474 148.791 193.212 148.654 192.979C148.517 192.745 148.332 192.56 148.098 192.423C147.864 192.286 147.603 192.218 147.313 192.218C147.023 192.218 146.761 192.286 146.527 192.423C146.294 192.56 146.109 192.745 145.972 192.979C145.835 193.212 145.766 193.474 145.766 193.764V196.627C145.766 196.917 145.835 197.179 145.972 197.412C146.109 197.646 146.294 197.831 146.527 197.968C146.761 198.105 147.023 198.174 147.313 198.174Z" fill="#00BA70"/>
<path d="M119.297 180.106V208.852" stroke="#E2E2E2" stroke-width="1.10564"/>
<rect x="30.4324" y="0.432432" width="223.135" height="159.135" rx="3.89189" fill="white"/>
<rect x="30.4324" y="0.432432" width="223.135" height="159.135" rx="3.89189" stroke="#EFEFEF" stroke-width="0.864865"/>
<rect x="66.5041" y="20.5311" width="25.5324" height="25.5324" rx="1.44725" fill="#FFF5E2"/>
<rect x="66.5041" y="20.5311" width="25.5324" height="25.5324" rx="1.44725" stroke="#FFDEA5" stroke-width="0.413499"/>
<path d="M79.5993 24.8641C79.7598 24.8642 79.9172 24.9127 80.0538 25.0043C80.1903 25.0958 80.3007 25.2267 80.3725 25.3823L80.9986 26.738H86.1878C86.4172 26.738 86.6372 26.8367 86.7994 27.0124C86.9616 27.1881 87.0527 27.4265 87.0527 27.6749V37.9813C87.0527 38.2297 86.9616 38.4681 86.7994 38.6438C86.6372 38.8195 86.4172 38.9182 86.1878 38.9182H80.6682C80.5077 38.9181 80.3503 38.8696 80.2137 38.7781C80.0772 38.6866 79.9668 38.5557 79.8951 38.4001L79.2689 37.0443H73.2148V42.6659H71.4851V24.8641H79.5993ZM79.0648 26.738H73.2148V35.1704H80.3379L81.2027 37.0443H85.3229V28.6119H79.9296L79.0648 26.738Z" fill="#FFB637"/>
<path d="M100.885 39.0049C99.8888 39.0049 99.0355 38.7881 98.3252 38.3546C97.6148 37.9164 97.0682 37.3075 96.6854 36.528C96.3071 35.7484 96.118 34.8444 96.118 33.8157C96.118 32.7871 96.3071 31.8831 96.6854 31.1035C97.0682 30.324 97.6148 29.7174 98.3252 29.2838C99.0355 28.8457 99.8888 28.6266 100.885 28.6266C102.034 28.6266 102.991 28.9148 103.757 29.4914C104.522 30.0634 105.06 30.836 105.369 31.8093L103.687 32.2728C103.494 31.6224 103.164 31.1151 102.698 30.7507C102.232 30.3817 101.628 30.1971 100.885 30.1971C100.216 30.1971 99.6582 30.3471 99.2108 30.6469C98.768 30.9467 98.4335 31.3688 98.2075 31.913C97.9861 32.4527 97.8731 33.0869 97.8685 33.8157C97.8685 34.5445 97.9792 35.1811 98.2006 35.7254C98.4266 36.265 98.7633 36.6848 99.2108 36.9846C99.6582 37.2844 100.216 37.4343 100.885 37.4343C101.628 37.4343 102.232 37.2498 102.698 36.8808C103.164 36.5118 103.494 36.0044 103.687 35.3587L105.369 35.8222C105.06 36.7955 104.522 37.5704 103.757 38.147C102.991 38.7189 102.034 39.0049 100.885 39.0049ZM108.977 39.0049C108.438 39.0049 107.981 38.9035 107.607 38.7005C107.234 38.4929 106.95 38.2185 106.756 37.8771C106.567 37.5358 106.473 37.1599 106.473 36.7494C106.473 36.3896 106.533 36.0667 106.653 35.7807C106.772 35.4901 106.957 35.241 107.206 35.0335C107.455 34.8213 107.778 34.6483 108.175 34.5146C108.474 34.4177 108.825 34.33 109.226 34.2516C109.632 34.1732 110.07 34.1017 110.541 34.0371C111.016 33.968 111.512 33.8942 112.029 33.8157L111.433 34.1548C111.438 33.6382 111.323 33.2576 111.088 33.0131C110.852 32.7687 110.456 32.6464 109.897 32.6464C109.561 32.6464 109.236 32.7249 108.922 32.8817C108.608 33.0385 108.389 33.3084 108.265 33.6912L106.742 33.2138C106.927 32.5819 107.278 32.0745 107.794 31.6916C108.315 31.3088 109.016 31.1174 109.897 31.1174C110.562 31.1174 111.145 31.2258 111.648 31.4426C112.155 31.6593 112.531 32.0145 112.776 32.5081C112.91 32.771 112.99 33.0408 113.018 33.3176C113.046 33.5897 113.059 33.8872 113.059 34.2101V38.7974H111.6V37.1783L111.842 37.4413C111.505 37.9809 111.111 38.3776 110.659 38.6313C110.211 38.8804 109.651 39.0049 108.977 39.0049ZM109.309 37.6765C109.688 37.6765 110.01 37.6096 110.278 37.4758C110.546 37.3421 110.758 37.1783 110.915 36.9846C111.076 36.7909 111.184 36.6087 111.24 36.438C111.327 36.2258 111.376 35.9837 111.385 35.7115C111.399 35.4348 111.406 35.2111 111.406 35.0404L111.918 35.1926C111.415 35.271 110.984 35.3402 110.624 35.4002C110.264 35.4601 109.955 35.5178 109.697 35.5731C109.439 35.6239 109.21 35.6815 109.012 35.7461C108.818 35.8153 108.654 35.896 108.521 35.9883C108.387 36.0805 108.283 36.1866 108.209 36.3066C108.14 36.4265 108.105 36.5672 108.105 36.7286C108.105 36.9131 108.152 37.0769 108.244 37.2198C108.336 37.3582 108.47 37.4689 108.645 37.552C108.825 37.635 109.046 37.6765 109.309 37.6765ZM120.029 38.7974V35.1995C120.029 34.9643 120.013 34.7037 119.981 34.4177C119.948 34.1317 119.872 33.8573 119.752 33.5943C119.637 33.3268 119.462 33.1077 119.227 32.937C118.996 32.7664 118.682 32.681 118.286 32.681C118.073 32.681 117.864 32.7156 117.656 32.7848C117.448 32.854 117.259 32.9739 117.089 33.1446C116.923 33.3107 116.789 33.5413 116.687 33.8365C116.586 34.1271 116.535 34.5007 116.535 34.9574L115.546 34.5353C115.546 33.8988 115.668 33.3222 115.912 32.8056C116.161 32.289 116.526 31.8784 117.006 31.574C117.485 31.265 118.076 31.1104 118.777 31.1104C119.33 31.1104 119.787 31.2027 120.147 31.3872C120.507 31.5717 120.793 31.8069 121.005 32.0929C121.217 32.3789 121.374 32.6833 121.475 33.0062C121.577 33.3291 121.641 33.6358 121.669 33.9264C121.701 34.2124 121.717 34.4454 121.717 34.6253V38.7974H120.029ZM114.847 38.7974V31.3249H116.334V33.6428H116.535V38.7974H114.847ZM126.397 39.0049C125.71 39.0049 125.11 38.832 124.598 38.486C124.086 38.1401 123.69 37.6696 123.408 37.0746C123.127 36.4795 122.986 35.8084 122.986 35.0611C122.986 34.3047 123.127 33.6312 123.408 33.0408C123.694 32.4458 124.098 31.9776 124.619 31.6363C125.14 31.2903 125.754 31.1174 126.459 31.1174C127.17 31.1174 127.765 31.2903 128.245 31.6363C128.729 31.9776 129.096 32.4458 129.345 33.0408C129.594 33.6358 129.718 34.3093 129.718 35.0611C129.718 35.8038 129.594 36.4749 129.345 37.0746C129.096 37.6696 128.724 38.1401 128.231 38.486C127.737 38.832 127.126 39.0049 126.397 39.0049ZM126.653 37.5104C127.101 37.5104 127.46 37.409 127.733 37.206C128.009 36.9984 128.21 36.7102 128.334 36.3411C128.464 35.9721 128.528 35.5455 128.528 35.0611C128.528 34.5722 128.464 34.1455 128.334 33.7811C128.21 33.4121 128.014 33.1262 127.746 32.9232C127.479 32.7156 127.133 32.6118 126.709 32.6118C126.261 32.6118 125.892 32.7226 125.601 32.944C125.311 33.1608 125.096 33.456 124.958 33.8296C124.82 34.1986 124.75 34.6091 124.75 35.0611C124.75 35.5178 124.817 35.9329 124.951 36.3066C125.089 36.6756 125.299 36.9685 125.581 37.1853C125.862 37.402 126.22 37.5104 126.653 37.5104ZM128.528 38.7974V33.5528H128.321V28.8341H130.002V38.7974H128.528ZM132.08 30.1902V28.6611H133.748V30.1902H132.08ZM132.08 38.7974V31.3249H133.748V38.7974H132.08ZM138.816 39.0049C138.129 39.0049 137.529 38.832 137.017 38.486C136.505 38.1401 136.108 37.6696 135.827 37.0746C135.546 36.4795 135.405 35.8084 135.405 35.0611C135.405 34.3047 135.546 33.6312 135.827 33.0408C136.113 32.4458 136.517 31.9776 137.038 31.6363C137.559 31.2903 138.173 31.1174 138.878 31.1174C139.589 31.1174 140.184 31.2903 140.663 31.6363C141.148 31.9776 141.514 32.4458 141.764 33.0408C142.013 33.6358 142.137 34.3093 142.137 35.0611C142.137 35.8038 142.013 36.4749 141.764 37.0746C141.514 37.6696 141.143 38.1401 140.65 38.486C140.156 38.832 139.545 39.0049 138.816 39.0049ZM139.072 37.5104C139.519 37.5104 139.879 37.409 140.151 37.206C140.428 36.9984 140.629 36.7102 140.753 36.3411C140.883 35.9721 140.947 35.5455 140.947 35.0611C140.947 34.5722 140.883 34.1455 140.753 33.7811C140.629 33.4121 140.433 33.1262 140.165 32.9232C139.898 32.7156 139.552 32.6118 139.127 32.6118C138.68 32.6118 138.311 32.7226 138.02 32.944C137.73 33.1608 137.515 33.456 137.377 33.8296C137.239 34.1986 137.169 34.6091 137.169 35.0611C137.169 35.5178 137.236 35.9329 137.37 36.3066C137.508 36.6756 137.718 36.9685 138 37.1853C138.281 37.402 138.638 37.5104 139.072 37.5104ZM140.947 38.7974V33.5528H140.74V28.8341H142.421V38.7974H140.947ZM146.45 39.0049C145.911 39.0049 145.454 38.9035 145.08 38.7005C144.707 38.4929 144.423 38.2185 144.229 37.8771C144.04 37.5358 143.946 37.1599 143.946 36.7494C143.946 36.3896 144.006 36.0667 144.125 35.7807C144.245 35.4901 144.43 35.241 144.679 35.0335C144.928 34.8213 145.251 34.6483 145.648 34.5146C145.947 34.4177 146.298 34.33 146.699 34.2516C147.105 34.1732 147.543 34.1017 148.014 34.0371C148.489 33.968 148.985 33.8942 149.501 33.8157L148.906 34.1548C148.911 33.6382 148.796 33.2576 148.561 33.0131C148.325 32.7687 147.929 32.6464 147.37 32.6464C147.034 32.6464 146.709 32.7249 146.395 32.8817C146.081 33.0385 145.862 33.3084 145.738 33.6912L144.215 33.2138C144.4 32.5819 144.75 32.0745 145.267 31.6916C145.788 31.3088 146.489 31.1174 147.37 31.1174C148.035 31.1174 148.618 31.2258 149.121 31.4426C149.628 31.6593 150.004 32.0145 150.249 32.5081C150.382 32.771 150.463 33.0408 150.491 33.3176C150.519 33.5897 150.532 33.8872 150.532 34.2101V38.7974H149.073V37.1783L149.315 37.4413C148.978 37.9809 148.584 38.3776 148.132 38.6313C147.684 38.8804 147.124 39.0049 146.45 39.0049ZM146.782 37.6765C147.161 37.6765 147.483 37.6096 147.751 37.4758C148.019 37.3421 148.231 37.1783 148.388 36.9846C148.549 36.7909 148.657 36.6087 148.713 36.438C148.8 36.2258 148.849 35.9837 148.858 35.7115C148.872 35.4348 148.879 35.2111 148.879 35.0404L149.391 35.1926C148.888 35.271 148.457 35.3402 148.097 35.4002C147.737 35.4601 147.428 35.5178 147.17 35.5731C146.911 35.6239 146.683 35.6815 146.485 35.7461C146.291 35.8153 146.127 35.896 145.994 35.9883C145.86 36.0805 145.756 36.1866 145.682 36.3066C145.613 36.4265 145.578 36.5672 145.578 36.7286C145.578 36.9131 145.625 37.0769 145.717 37.2198C145.809 37.3582 145.943 37.4689 146.118 37.552C146.298 37.635 146.519 37.6765 146.782 37.6765ZM156.713 38.7974C156.22 38.8896 155.735 38.9288 155.26 38.915C154.79 38.9058 154.368 38.8204 153.994 38.659C153.621 38.4929 153.337 38.2323 153.143 37.8771C152.973 37.5543 152.883 37.2245 152.873 36.8877C152.864 36.551 152.86 36.1705 152.86 35.7461V29.2493H154.52V35.6493C154.52 35.9491 154.522 36.212 154.527 36.438C154.536 36.664 154.585 36.8485 154.672 36.9915C154.838 37.2683 155.104 37.4228 155.468 37.4551C155.832 37.4874 156.247 37.4689 156.713 37.3997V38.7974ZM151.503 32.6326V31.3249H156.713V32.6326H151.503ZM161.339 39.0049C160.583 39.0049 159.918 38.8412 159.346 38.5137C158.774 38.1862 158.327 37.7318 158.004 37.1507C157.686 36.5695 157.527 35.9006 157.527 35.1442C157.527 34.3277 157.683 33.6197 157.997 33.0201C158.311 32.4158 158.747 31.9476 159.305 31.6155C159.863 31.2834 160.509 31.1174 161.242 31.1174C162.017 31.1174 162.674 31.2996 163.214 31.664C163.758 32.0237 164.162 32.5334 164.425 33.193C164.688 33.8526 164.787 34.6299 164.722 35.5247H163.069V34.9158C163.064 34.104 162.921 33.5113 162.64 33.1377C162.358 32.7641 161.916 32.5773 161.311 32.5773C160.629 32.5773 160.121 32.7894 159.789 33.2138C159.457 33.6335 159.291 34.2493 159.291 35.0611C159.291 35.8176 159.457 36.4034 159.789 36.8186C160.121 37.2337 160.606 37.4413 161.242 37.4413C161.653 37.4413 162.006 37.3513 162.301 37.1714C162.601 36.9869 162.831 36.7217 162.993 36.3757L164.639 36.8739C164.353 37.5473 163.911 38.0709 163.311 38.4445C162.716 38.8181 162.059 39.0049 161.339 39.0049ZM158.765 35.5247V34.2655H163.906V35.5247H158.765ZM166.474 32.3766L166.571 31.657C166.783 31.6755 166.951 31.6409 167.076 31.5533C167.2 31.461 167.283 31.3342 167.325 31.1727C167.371 31.0067 167.382 30.8198 167.359 30.6123H166.474V28.8341H168.183V30.6815C168.183 31.2857 168.04 31.7424 167.754 32.0514C167.468 32.3605 167.041 32.4689 166.474 32.3766ZM171.976 39.0049C171.053 39.0049 170.304 38.7974 169.727 38.3822C169.15 37.9671 168.8 37.3836 168.675 36.6317L170.377 36.3688C170.465 36.7378 170.659 37.0284 170.959 37.2406C171.258 37.4528 171.637 37.5589 172.093 37.5589C172.495 37.5589 172.804 37.4805 173.02 37.3236C173.242 37.1622 173.353 36.9431 173.353 36.6663C173.353 36.4957 173.311 36.3596 173.228 36.2581C173.15 36.152 172.974 36.0506 172.702 35.9537C172.43 35.8568 172.013 35.7346 171.45 35.587C170.822 35.4209 170.324 35.2433 169.955 35.0542C169.586 34.8605 169.321 34.6322 169.16 34.3693C168.998 34.1063 168.917 33.7881 168.917 33.4144C168.917 32.9486 169.04 32.5427 169.284 32.1967C169.529 31.8508 169.87 31.5855 170.308 31.401C170.746 31.2119 171.263 31.1174 171.858 31.1174C172.439 31.1174 172.954 31.2073 173.401 31.3872C173.853 31.5671 174.217 31.8231 174.494 32.1552C174.771 32.4873 174.942 32.8771 175.006 33.3245L173.304 33.6289C173.263 33.3107 173.117 33.0593 172.868 32.8748C172.624 32.6903 172.296 32.5865 171.886 32.5634C171.494 32.5404 171.178 32.6003 170.938 32.7433C170.698 32.8817 170.578 33.0777 170.578 33.3314C170.578 33.4744 170.626 33.5966 170.723 33.6981C170.82 33.7996 171.014 33.9011 171.305 34.0026C171.6 34.104 172.038 34.2286 172.619 34.3762C173.214 34.5284 173.689 34.7037 174.044 34.902C174.404 35.0957 174.662 35.3287 174.819 35.6008C174.981 35.873 175.061 36.2028 175.061 36.5902C175.061 37.3421 174.787 37.9325 174.238 38.3615C173.694 38.7904 172.94 39.0049 171.976 39.0049ZM183.035 39.0049C182.306 39.0049 181.649 38.8781 181.063 38.6244C180.482 38.3707 180.002 38.0086 179.624 37.5381C179.25 37.063 179.013 36.5003 178.911 35.8499L180.641 35.587C180.789 36.1774 181.091 36.634 181.547 36.9569C182.009 37.2798 182.539 37.4413 183.139 37.4413C183.494 37.4413 183.828 37.3859 184.142 37.2752C184.456 37.1645 184.709 37.0031 184.903 36.7909C185.101 36.5787 185.201 36.3181 185.201 36.009C185.201 35.8707 185.178 35.7438 185.131 35.6285C185.085 35.5086 185.016 35.4025 184.924 35.3102C184.836 35.218 184.721 35.1349 184.578 35.0611C184.44 34.9827 184.278 34.9158 184.094 34.8605L181.52 34.0994C181.298 34.0348 181.058 33.9495 180.8 33.8434C180.546 33.7327 180.304 33.5828 180.074 33.3937C179.848 33.2 179.661 32.9555 179.513 32.6603C179.37 32.3605 179.299 31.9915 179.299 31.5533C179.299 30.9121 179.46 30.3747 179.783 29.9411C180.111 29.5029 180.549 29.1755 181.098 28.9587C181.651 28.7419 182.265 28.6358 182.938 28.6404C183.621 28.645 184.23 28.7626 184.765 28.9933C185.3 29.2193 185.747 29.5491 186.107 29.9827C186.467 30.4162 186.72 30.9398 186.868 31.5533L185.076 31.8646C185.002 31.514 184.859 31.2165 184.647 30.9721C184.44 30.723 184.184 30.5339 183.879 30.4047C183.579 30.2756 183.259 30.2064 182.917 30.1971C182.585 30.1925 182.276 30.2433 181.99 30.3494C181.709 30.4508 181.481 30.5984 181.305 30.7922C181.135 30.9859 181.049 31.2119 181.049 31.4702C181.049 31.7147 181.123 31.9153 181.271 32.0722C181.418 32.2244 181.6 32.3466 181.817 32.4389C182.039 32.5265 182.262 32.6003 182.488 32.6603L184.273 33.1584C184.518 33.223 184.792 33.3107 185.097 33.4214C185.401 33.5321 185.694 33.6866 185.976 33.8849C186.257 34.0833 186.488 34.3439 186.667 34.6668C186.852 34.9897 186.944 35.4002 186.944 35.8983C186.944 36.4149 186.836 36.8693 186.619 37.2614C186.407 37.6488 186.119 37.9717 185.754 38.23C185.39 38.4883 184.972 38.682 184.502 38.8112C184.036 38.9404 183.547 39.0049 183.035 39.0049ZM191.687 39.0049C190.916 39.0049 190.259 38.8343 189.715 38.4929C189.171 38.147 188.753 37.6765 188.463 37.0815C188.177 36.4864 188.031 35.813 188.027 35.0611C188.031 34.2955 188.181 33.6174 188.476 33.027C188.776 32.432 189.201 31.9661 189.749 31.6294C190.298 31.288 190.951 31.1174 191.708 31.1174C192.556 31.1174 193.274 31.3318 193.859 31.7608C194.45 32.1852 194.835 32.7664 195.015 33.5044L193.354 33.9541C193.225 33.5528 193.011 33.2415 192.711 33.0201C192.411 32.794 192.07 32.681 191.687 32.681C191.253 32.681 190.896 32.7848 190.614 32.9924C190.333 33.1953 190.125 33.4767 189.992 33.8365C189.858 34.1963 189.791 34.6045 189.791 35.0611C189.791 35.7715 189.95 36.3458 190.268 36.784C190.587 37.2222 191.059 37.4413 191.687 37.4413C192.13 37.4413 192.478 37.3398 192.732 37.1368C192.99 36.9339 193.184 36.641 193.313 36.2581L195.015 36.6387C194.784 37.3997 194.381 37.9855 193.804 38.3961C193.227 38.802 192.522 39.0049 191.687 39.0049ZM199.499 39.0049C198.752 39.0049 198.099 38.8366 197.541 38.4998C196.983 38.1631 196.549 37.6996 196.24 37.1091C195.936 36.5141 195.783 35.8315 195.783 35.0611C195.783 34.277 195.94 33.5897 196.254 32.9993C196.568 32.4089 197.003 31.9476 197.562 31.6155C198.12 31.2834 198.765 31.1174 199.499 31.1174C200.251 31.1174 200.906 31.2857 201.464 31.6224C202.022 31.9592 202.456 32.425 202.765 33.0201C203.074 33.6105 203.228 34.2908 203.228 35.0611C203.228 35.8361 203.071 36.521 202.758 37.1161C202.449 37.7065 202.015 38.17 201.457 38.5068C200.899 38.8389 200.246 39.0049 199.499 39.0049ZM199.499 37.4413C200.163 37.4413 200.657 37.2198 200.98 36.777C201.302 36.3342 201.464 35.7623 201.464 35.0611C201.464 34.337 201.3 33.7604 200.973 33.3314C200.645 32.8978 200.154 32.681 199.499 32.681C199.051 32.681 198.682 32.7825 198.392 32.9855C198.106 33.1838 197.894 33.4629 197.755 33.8227C197.617 34.1778 197.548 34.5907 197.548 35.0611C197.548 35.7853 197.711 36.3642 198.039 36.7978C198.371 37.2268 198.858 37.4413 199.499 37.4413ZM204.753 38.7974V31.3249H206.226V33.1446L206.046 32.9094C206.139 32.6603 206.261 32.4343 206.413 32.2313C206.57 32.0237 206.757 31.8531 206.974 31.7193C207.158 31.5948 207.361 31.4979 207.582 31.4287C207.808 31.3549 208.039 31.3111 208.274 31.2973C208.51 31.2788 208.738 31.288 208.959 31.3249V32.8817C208.738 32.8171 208.482 32.7964 208.191 32.8194C207.905 32.8425 207.647 32.9232 207.416 33.0616C207.186 33.1861 206.997 33.3453 206.849 33.539C206.706 33.7327 206.6 33.9541 206.531 34.2032C206.462 34.4477 206.427 34.7129 206.427 34.9989V38.7974H204.753ZM213.542 39.0049C212.785 39.0049 212.121 38.8412 211.549 38.5137C210.977 38.1862 210.53 37.7318 210.207 37.1507C209.889 36.5695 209.729 35.9006 209.729 35.1442C209.729 34.3277 209.886 33.6197 210.2 33.0201C210.514 32.4158 210.949 31.9476 211.508 31.6155C212.066 31.2834 212.711 31.1174 213.445 31.1174C214.22 31.1174 214.877 31.2996 215.417 31.664C215.961 32.0237 216.365 32.5334 216.628 33.193C216.89 33.8526 216.99 34.6299 216.925 35.5247H215.271V34.9158C215.267 34.104 215.124 33.5113 214.842 33.1377C214.561 32.7641 214.118 32.5773 213.514 32.5773C212.831 32.5773 212.324 32.7894 211.992 33.2138C211.66 33.6335 211.494 34.2493 211.494 35.0611C211.494 35.8176 211.66 36.4034 211.992 36.8186C212.324 37.2337 212.808 37.4413 213.445 37.4413C213.855 37.4413 214.208 37.3513 214.503 37.1714C214.803 36.9869 215.034 36.7217 215.195 36.3757L216.842 36.8739C216.556 37.5473 216.113 38.0709 215.514 38.4445C214.919 38.8181 214.261 39.0049 213.542 39.0049ZM210.968 35.5247V34.2655H216.109V35.5247H210.968Z" fill="#171717" fill-opacity="0.6"/>
<g opacity="0.8" filter="url(#filter0_f_8985_1826)">
<path d="M177.38 98.0997C177.38 117.968 161.056 134.183 140.785 134.183C120.513 134.183 104.189 117.968 104.189 98.0997C104.189 78.2319 120.513 62.0168 140.785 62.0168C161.056 62.0168 177.38 78.2319 177.38 98.0997Z" stroke="#CDCDCD" stroke-width="10.3784"/>
<path fill-rule="evenodd" clip-rule="evenodd" d="M119.266 132.948C125.021 136.5 131.735 138.714 138.989 139.125C162.028 140.429 181.775 123.039 183.096 100.282C184.416 77.5256 166.81 58.0204 143.771 56.716C131.833 56.0401 120.779 60.3836 112.714 67.8922C115.723 69.7493 118.47 71.9721 120.894 74.4938C126.826 69.4672 134.676 66.5961 143.169 67.077C160.606 68.0641 173.715 82.7805 172.734 99.6955C171.752 116.611 157.026 129.751 139.59 128.764C134.636 128.483 130.031 127.095 125.999 124.862C124.104 127.839 121.837 130.554 119.266 132.948Z" fill="#00BA70"/>
<path d="M126.004 90.3051C126.994 90.3051 127.879 90.5369 128.661 91.0004C129.45 91.464 130.072 92.1109 130.529 92.9412C130.986 93.7645 131.214 94.7193 131.214 95.8056V100.144C131.214 101.32 130.986 102.337 130.529 103.195C130.072 104.046 129.429 104.703 128.599 105.167C127.768 105.624 126.793 105.852 125.672 105.852C124.946 105.852 124.254 105.745 123.596 105.53C122.946 105.309 122.344 104.946 121.791 104.44L123.804 102.427C124.053 102.676 124.34 102.87 124.665 103.008C124.997 103.147 125.333 103.216 125.672 103.216C126.212 103.216 126.679 103.091 127.073 102.842C127.474 102.586 127.782 102.257 127.997 101.856C128.218 101.448 128.329 101.016 128.329 100.559V98.3379L128.806 98.8569C128.384 99.2927 127.89 99.6283 127.322 99.8636C126.755 100.092 126.17 100.206 125.568 100.206C124.627 100.206 123.797 99.995 123.077 99.573C122.365 99.1509 121.804 98.5732 121.396 97.8398C120.995 97.1064 120.794 96.2692 120.794 95.3282C120.794 94.3872 121.033 93.5397 121.51 92.7855C121.988 92.0244 122.621 91.4225 123.41 90.9797C124.198 90.5299 125.063 90.3051 126.004 90.3051ZM126.004 93.0034C125.575 93.0034 125.181 93.1072 124.821 93.3148C124.468 93.5224 124.184 93.8026 123.97 94.1554C123.762 94.5083 123.659 94.8992 123.659 95.3282C123.659 95.7572 123.762 96.1516 123.97 96.5113C124.178 96.8642 124.458 97.1479 124.811 97.3624C125.163 97.5699 125.554 97.6737 125.983 97.6737C126.412 97.6737 126.803 97.5699 127.156 97.3624C127.516 97.1479 127.8 96.8642 128.007 96.5113C128.222 96.1516 128.329 95.7572 128.329 95.3282C128.329 94.9131 128.225 94.5291 128.018 94.1762C127.81 93.8233 127.53 93.5397 127.177 93.3252C126.824 93.1107 126.433 93.0034 126.004 93.0034ZM139.124 105.852C138.114 105.852 137.214 105.648 136.425 105.24C135.644 104.824 135.028 104.257 134.578 103.538C134.135 102.811 133.914 101.984 133.914 101.057C133.914 100.268 134.09 99.5245 134.443 98.8257C134.803 98.1269 135.318 97.5561 135.99 97.1133L135.927 97.9851C135.422 97.4938 135.024 96.9749 134.734 96.4283C134.45 95.8817 134.308 95.2659 134.308 94.581C134.308 93.7161 134.512 92.9619 134.921 92.3185C135.336 91.675 135.903 91.1768 136.623 90.824C137.349 90.4642 138.183 90.2843 139.124 90.2843C140.065 90.2843 140.895 90.4642 141.615 90.824C142.341 91.1768 142.909 91.675 143.317 92.3185C143.732 92.9619 143.939 93.7161 143.939 94.581C143.939 95.2659 143.805 95.8817 143.535 96.4283C143.265 96.968 142.853 97.4938 142.3 98.0058V97.134C142.957 97.5492 143.462 98.1096 143.815 98.8153C144.175 99.5211 144.355 100.268 144.355 101.057C144.355 101.984 144.13 102.811 143.68 103.538C143.23 104.257 142.611 104.824 141.822 105.24C141.033 105.648 140.134 105.852 139.124 105.852ZM139.124 103.195C139.788 103.195 140.328 103.015 140.743 102.655C141.158 102.296 141.366 101.763 141.366 101.057C141.366 100.358 141.158 99.8255 140.743 99.4588C140.328 99.0852 139.788 98.8984 139.124 98.8984C138.46 98.8984 137.923 99.0852 137.515 99.4588C137.107 99.8255 136.903 100.358 136.903 101.057C136.903 101.763 137.107 102.296 137.515 102.655C137.923 103.015 138.46 103.195 139.124 103.195ZM139.124 96.2207C139.664 96.2207 140.103 96.0893 140.442 95.8264C140.781 95.5565 140.95 95.1414 140.95 94.581C140.95 94.0205 140.781 93.6054 140.442 93.3356C140.103 93.0588 139.664 92.9204 139.124 92.9204C138.584 92.9204 138.145 93.0588 137.806 93.3356C137.467 93.6054 137.297 94.0205 137.297 94.581C137.297 95.1414 137.467 95.5565 137.806 95.8264C138.145 96.0893 138.584 96.2207 139.124 96.2207ZM149.337 105.541L147.469 103.672L160.546 90.5957L162.414 92.4845L149.337 105.541ZM159.3 105.852C158.615 105.852 157.989 105.686 157.422 105.354C156.861 105.015 156.412 104.565 156.073 104.005C155.734 103.437 155.564 102.808 155.564 102.116C155.564 101.438 155.737 100.815 156.083 100.248C156.429 99.6802 156.886 99.227 157.453 98.888C158.02 98.549 158.636 98.3794 159.3 98.3794C159.985 98.3794 160.612 98.549 161.179 98.888C161.746 99.2201 162.196 99.6698 162.528 100.237C162.867 100.798 163.037 101.424 163.037 102.116C163.037 102.808 162.867 103.437 162.528 104.005C162.196 104.565 161.746 105.015 161.179 105.354C160.612 105.686 159.985 105.852 159.3 105.852ZM159.3 103.465C159.543 103.465 159.764 103.403 159.965 103.278C160.172 103.154 160.338 102.991 160.463 102.79C160.587 102.583 160.65 102.358 160.65 102.116C160.65 101.874 160.587 101.652 160.463 101.451C160.338 101.244 160.172 101.078 159.965 100.953C159.764 100.829 159.543 100.766 159.3 100.766C159.058 100.766 158.833 100.829 158.626 100.953C158.425 101.078 158.263 101.244 158.138 101.451C158.013 101.652 157.951 101.874 157.951 102.116C157.951 102.358 158.013 102.583 158.138 102.79C158.263 102.991 158.425 103.154 158.626 103.278C158.833 103.403 159.058 103.465 159.3 103.465ZM150.583 97.7567C149.898 97.7567 149.271 97.5907 148.704 97.2586C148.137 96.9196 147.684 96.4698 147.345 95.9094C147.012 95.342 146.846 94.7124 146.846 94.0205C146.846 93.3425 147.019 92.7198 147.365 92.1524C147.711 91.5851 148.168 91.1319 148.735 90.7928C149.303 90.4538 149.918 90.2843 150.583 90.2843C151.268 90.2843 151.89 90.4538 152.451 90.7928C153.018 91.125 153.471 91.5747 153.81 92.142C154.149 92.7025 154.319 93.3286 154.319 94.0205C154.319 94.7124 154.149 95.342 153.81 95.9094C153.471 96.4698 153.018 96.9196 152.451 97.2586C151.89 97.5907 151.268 97.7567 150.583 97.7567ZM150.583 95.3697C150.825 95.3697 151.046 95.3074 151.247 95.1829C151.454 95.0584 151.62 94.8958 151.745 94.6951C151.869 94.4876 151.932 94.2627 151.932 94.0205C151.932 93.7784 151.869 93.557 151.745 93.3563C151.62 93.1487 151.454 92.9827 151.247 92.8581C151.046 92.7336 150.825 92.6713 150.583 92.6713C150.34 92.6713 150.116 92.7336 149.908 92.8581C149.707 92.9827 149.545 93.1487 149.42 93.3563C149.296 93.557 149.233 93.7784 149.233 94.0205C149.233 94.2627 149.296 94.4876 149.42 94.6951C149.545 94.8958 149.707 95.0584 149.908 95.1829C150.116 95.3074 150.34 95.3697 150.583 95.3697Z" fill="#00BA70"/>
</g>
<path d="M177.137 96.2889C177.137 116.157 160.813 132.372 140.542 132.372C120.27 132.372 103.946 116.157 103.946 96.2889C103.946 76.4211 120.27 60.206 140.542 60.206C160.813 60.206 177.137 76.4211 177.137 96.2889Z" stroke="#CDCDCD" stroke-width="10.3784"/>
<path fill-rule="evenodd" clip-rule="evenodd" d="M119.023 131.137C124.778 134.689 131.492 136.903 138.745 137.314C161.785 138.618 181.532 121.228 182.852 98.4714C184.173 75.7148 166.567 56.2096 143.527 54.9052C131.59 54.2293 120.535 58.5728 112.471 66.0814C115.48 67.9385 118.227 70.1613 120.651 72.683C126.583 67.6564 134.433 64.7853 142.926 65.2662C160.363 66.2533 173.472 80.9698 172.491 97.8847C171.509 114.8 156.783 127.94 139.347 126.953C134.392 126.673 129.788 125.284 125.756 123.051C123.861 126.028 121.594 128.743 119.023 131.137Z" fill="#00BA70"/>
<path d="M125.761 88.4943C126.75 88.4943 127.636 88.7261 128.418 89.1896C129.207 89.6532 129.829 90.3001 130.286 91.1304C130.743 91.9537 130.971 92.9085 130.971 93.9948V98.333C130.971 99.5092 130.743 100.526 130.286 101.384C129.829 102.235 129.186 102.893 128.356 103.356C127.525 103.813 126.55 104.041 125.429 104.041C124.702 104.041 124.01 103.934 123.353 103.719C122.703 103.498 122.101 103.135 121.547 102.63L123.561 100.616C123.81 100.865 124.097 101.059 124.422 101.197C124.754 101.336 125.09 101.405 125.429 101.405C125.969 101.405 126.436 101.28 126.83 101.031C127.231 100.775 127.539 100.447 127.754 100.045C127.975 99.6372 128.086 99.2048 128.086 98.7481V96.5271L128.563 97.0461C128.141 97.482 127.646 97.8175 127.079 98.0528C126.512 98.2811 125.927 98.3952 125.325 98.3952C124.384 98.3952 123.554 98.1842 122.834 97.7622C122.122 97.3401 121.561 96.7624 121.153 96.029C120.752 95.2956 120.551 94.4584 120.551 93.5174C120.551 92.5764 120.79 91.7289 121.267 90.9747C121.745 90.2136 122.378 89.6117 123.166 89.1689C123.955 88.7191 124.82 88.4943 125.761 88.4943ZM125.761 91.1927C125.332 91.1927 124.938 91.2964 124.578 91.504C124.225 91.7116 123.941 91.9918 123.727 92.3447C123.519 92.6975 123.415 93.0884 123.415 93.5174C123.415 93.9464 123.519 94.3408 123.727 94.7005C123.934 95.0534 124.215 95.3371 124.567 95.5516C124.92 95.7591 125.311 95.8629 125.74 95.8629C126.169 95.8629 126.56 95.7591 126.913 95.5516C127.273 95.3371 127.556 95.0534 127.764 94.7005C127.978 94.3408 128.086 93.9464 128.086 93.5174C128.086 93.1023 127.982 92.7183 127.774 92.3654C127.567 92.0125 127.287 91.7289 126.934 91.5144C126.581 91.2999 126.19 91.1927 125.761 91.1927ZM138.881 104.041C137.871 104.041 136.971 103.837 136.182 103.429C135.4 103.014 134.785 102.446 134.335 101.727C133.892 101 133.671 100.173 133.671 99.2463C133.671 98.4575 133.847 97.7137 134.2 97.0149C134.56 96.3161 135.075 95.7453 135.746 95.3025L135.684 96.1743C135.179 95.683 134.781 95.1641 134.491 94.6175C134.207 94.0709 134.065 93.4551 134.065 92.7702C134.065 91.9053 134.269 91.1511 134.677 90.5077C135.093 89.8642 135.66 89.3661 136.38 89.0132C137.106 88.6534 137.94 88.4735 138.881 88.4735C139.822 88.4735 140.652 88.6534 141.372 89.0132C142.098 89.3661 142.665 89.8642 143.074 90.5077C143.489 91.1511 143.696 91.9053 143.696 92.7702C143.696 93.4551 143.561 94.0709 143.292 94.6175C143.022 95.1572 142.61 95.683 142.056 96.195V95.3232C142.714 95.7384 143.219 96.2988 143.572 97.0045C143.932 97.7103 144.111 98.4575 144.111 99.2463C144.111 100.173 143.887 101 143.437 101.727C142.987 102.446 142.368 103.014 141.579 103.429C140.79 103.837 139.891 104.041 138.881 104.041ZM138.881 101.384C139.545 101.384 140.085 101.204 140.5 100.845C140.915 100.485 141.122 99.952 141.122 99.2463C141.122 98.5475 140.915 98.0147 140.5 97.648C140.085 97.2744 139.545 97.0876 138.881 97.0876C138.216 97.0876 137.68 97.2744 137.272 97.648C136.864 98.0147 136.66 98.5475 136.66 99.2463C136.66 99.952 136.864 100.485 137.272 100.845C137.68 101.204 138.216 101.384 138.881 101.384ZM138.881 94.41C139.42 94.41 139.86 94.2785 140.199 94.0156C140.538 93.7457 140.707 93.3306 140.707 92.7702C140.707 92.2097 140.538 91.7946 140.199 91.5248C139.86 91.248 139.42 91.1096 138.881 91.1096C138.341 91.1096 137.902 91.248 137.563 91.5248C137.224 91.7946 137.054 92.2097 137.054 92.7702C137.054 93.3306 137.224 93.7457 137.563 94.0156C137.902 94.2785 138.341 94.41 138.881 94.41ZM149.094 103.73L147.226 101.862L160.303 88.7849L162.171 90.6737L149.094 103.73ZM159.057 104.041C158.372 104.041 157.746 103.875 157.179 103.543C156.618 103.204 156.169 102.754 155.83 102.194C155.491 101.626 155.321 100.997 155.321 100.305C155.321 99.6268 155.494 99.0041 155.84 98.4368C156.186 97.8694 156.643 97.4162 157.21 97.0772C157.777 96.7382 158.393 96.5687 159.057 96.5687C159.742 96.5687 160.368 96.7382 160.936 97.0772C161.503 97.4093 161.953 97.859 162.285 98.4264C162.624 98.9868 162.793 99.613 162.793 100.305C162.793 100.997 162.624 101.626 162.285 102.194C161.953 102.754 161.503 103.204 160.936 103.543C160.368 103.875 159.742 104.041 159.057 104.041ZM159.057 101.654C159.299 101.654 159.521 101.592 159.721 101.467C159.929 101.343 160.095 101.18 160.22 100.979C160.344 100.772 160.406 100.547 160.406 100.305C160.406 100.063 160.344 99.8413 160.22 99.6407C160.095 99.4331 159.929 99.267 159.721 99.1425C159.521 99.018 159.299 98.9557 159.057 98.9557C158.815 98.9557 158.59 99.018 158.383 99.1425C158.182 99.267 158.019 99.4331 157.895 99.6407C157.77 99.8413 157.708 100.063 157.708 100.305C157.708 100.547 157.77 100.772 157.895 100.979C158.019 101.18 158.182 101.343 158.383 101.467C158.59 101.592 158.815 101.654 159.057 101.654ZM150.339 95.946C149.654 95.946 149.028 95.7799 148.461 95.4478C147.894 95.1088 147.44 94.659 147.101 94.0986C146.769 93.5312 146.603 92.9016 146.603 92.2097C146.603 91.5317 146.776 90.909 147.122 90.3416C147.468 89.7743 147.925 89.3211 148.492 88.9821C149.059 88.643 149.675 88.4735 150.339 88.4735C151.024 88.4735 151.647 88.643 152.208 88.9821C152.775 89.3142 153.228 89.7639 153.567 90.3312C153.906 90.8917 154.076 91.5178 154.076 92.2097C154.076 92.9016 153.906 93.5312 153.567 94.0986C153.228 94.659 152.775 95.1088 152.208 95.4478C151.647 95.7799 151.024 95.946 150.339 95.946ZM150.339 93.5589C150.582 93.5589 150.803 93.4967 151.004 93.3721C151.211 93.2476 151.377 93.085 151.502 92.8843C151.626 92.6768 151.689 92.4519 151.689 92.2097C151.689 91.9676 151.626 91.7462 151.502 91.5455C151.377 91.338 151.211 91.1719 151.004 91.0474C150.803 90.9228 150.582 90.8605 150.339 90.8605C150.097 90.8605 149.872 90.9228 149.665 91.0474C149.464 91.1719 149.302 91.338 149.177 91.5455C149.052 91.7462 148.99 91.9676 148.99 92.2097C148.99 92.4519 149.052 92.6768 149.177 92.8843C149.302 93.085 149.464 93.2476 149.665 93.3721C149.872 93.4967 150.097 93.5589 150.339 93.5589Z" fill="#00BA70"/>
<defs>
<filter id="filter0_f_8985_1826" x="89.0002" y="46.6472" width="104.165" height="102.724" filterUnits="userSpaceOnUse" color-interpolation-filters="sRGB">
<feFlood flood-opacity="0" result="BackgroundImageFix"/>
<feBlend mode="normal" in="SourceGraphic" in2="BackgroundImageFix" result="shape"/>
<feGaussianBlur stdDeviation="5" result="effect1_foregroundBlur_8985_1826"/>
</filter>
</defs>
</svg>
