<svg width="80" height="66" viewBox="0 0 80 66" fill="none" xmlns="http://www.w3.org/2000/svg">
<path d="M71.2929 65.7071C71.6834 66.0976 72.3166 66.0976 72.7071 65.7071L79.0711 59.3431C79.4616 58.9526 79.4616 58.3195 79.0711 57.9289C78.6805 57.5384 78.0474 57.5384 77.6569 57.9289L72 63.5858L66.3431 57.9289C65.9526 57.5384 65.3195 57.5384 64.9289 57.9289C64.5384 58.3195 64.5384 58.9526 64.9289 59.3431L71.2929 65.7071ZM0 2L2.91666 2V0L0 0V2ZM8.75 2L14.5833 2V0L8.75 0V2ZM20.4167 2L26.25 2V0L20.4167 0V2ZM32.0833 2L37.9167 2V0L32.0833 0V2ZM43.75 2L49.5833 2V0L43.75 0V2ZM55.4167 2L61.25 2V0L55.4167 0V2ZM67.0833 2L70 2V0H67.0833V2ZM70 2C70.5523 2 71 2.44772 71 3H73C73 1.34315 71.6569 0 70 0V2ZM71 3V6.1H73V3H71ZM71 12.3V18.5H73V12.3H71ZM71 24.7V30.9H73V24.7H71ZM71 37.1V43.3H73V37.1H71ZM71 49.5V55.7H73V49.5H71ZM71 61.9V65H73V61.9H71Z" fill="#012A59" fill-opacity="0.4"/>
</svg>
