<svg width="168" height="83" viewBox="0 0 168 83" fill="none" xmlns="http://www.w3.org/2000/svg">
<path d="M99.6818 7.24487L99.0848 8.04707L99.6818 7.24487ZM168 74.2871L156.938 70.9765L159.602 82.2119L168 74.2871ZM0.0859117 7.65038C0.50009 8.584 0.923581 9.49963 1.35606 10.3975L3.15793 9.52961C2.73463 8.65077 2.3199 7.75411 1.91409 6.83935L0.0859117 7.65038ZM4.08816 15.6303C5.08395 17.392 6.11751 19.0752 7.18569 20.6825L8.85138 19.5754C7.81033 18.009 6.80186 16.3668 5.82925 14.6461L4.08816 15.6303ZM10.6803 25.5206C11.9348 27.1187 13.2272 28.6271 14.5531 30.049L16.0158 28.685C14.729 27.305 13.4734 25.8397 12.2534 24.2857L10.6803 25.5206ZM18.8069 34.2194C20.316 35.5696 21.8589 36.8216 23.4303 37.9794L24.6167 36.3694C23.0963 35.249 21.6025 34.037 20.1405 32.7289L18.8069 34.2194ZM28.3965 41.2782C30.1297 42.3106 31.8882 43.2404 33.6651 44.0727L34.5134 42.2616C32.7957 41.457 31.0958 40.5581 29.4201 39.5599L28.3965 41.2782ZM39.1845 46.3322C41.0793 47.0007 42.9863 47.5678 44.8977 48.0394L45.3768 46.0977C43.5271 45.6412 41.6823 45.0926 39.85 44.4461L39.1845 46.3322ZM50.7459 49.1904C52.7284 49.4842 54.7068 49.6821 56.6727 49.7907L56.783 47.7937C54.8769 47.6884 52.9595 47.4966 51.0392 47.212L50.7459 49.1904ZM62.631 49.8518C64.6386 49.7828 66.6233 49.6248 68.5754 49.3852L68.3316 47.4001C66.4368 47.6327 64.5105 47.7861 62.5624 47.8529L62.631 49.8518ZM74.455 48.401C76.4281 47.9812 78.3546 47.4794 80.2232 46.904L79.6346 44.9926C77.8229 45.5504 75.9539 46.0373 74.0388 46.4447L74.455 48.401ZM85.826 44.8911C87.7135 44.1104 89.5197 43.2529 91.23 42.3294L90.2797 40.5695C88.6318 41.4594 86.8877 42.2876 85.0616 43.0429L85.826 44.8911ZM96.3309 39.1804C98.0302 37.9812 99.5871 36.7091 100.978 35.3793L99.5964 33.9336C98.2828 35.1891 96.8035 36.3991 95.1778 37.5463L96.3309 39.1804ZM104.946 30.7888C106.173 29.0202 107.115 27.1818 107.721 25.3035L105.818 24.6896C105.281 26.3548 104.434 28.0179 103.303 29.6491L104.946 30.7888ZM108.435 19.12C108.24 17.1094 107.613 15.1217 106.519 13.1981L104.781 14.1864C105.741 15.8756 106.277 17.5936 106.444 19.3133L108.435 19.12ZM102.66 8.41893C101.937 7.7454 101.143 7.08614 100.279 6.44267L99.0848 8.04707C99.8945 8.64976 100.631 9.26237 101.297 9.88264L102.66 8.41893ZM100.279 6.44267C99.3929 5.78326 98.5179 5.17802 97.6543 4.62532L96.5762 6.30986C97.3981 6.8359 98.2345 7.41423 99.0848 8.04707L100.279 6.44267ZM92.1685 1.74047C90.0458 0.874274 88.0059 0.342608 86.0607 0.120561L85.8339 2.10766C87.5776 2.30671 89.4399 2.78713 91.4129 3.59223L92.1685 1.74047ZM79.6964 0.560395C77.5777 1.13704 75.661 2.14134 73.9696 3.49424L75.2189 5.05607C76.7086 3.86449 78.3813 2.99108 80.2216 2.4902L79.6964 0.560395ZM69.7589 8.25325C68.6712 9.95632 67.7703 11.8675 67.0655 13.9358L68.9586 14.5809C69.6174 12.6477 70.4518 10.8839 71.4445 9.32984L69.7589 8.25325ZM65.622 20.0207C65.3335 22.0077 65.1942 24.0818 65.2114 26.214L67.2113 26.1979C67.1949 24.1628 67.328 22.1902 67.6012 20.308L65.622 20.0207ZM65.6852 32.3894C65.9737 34.392 66.3958 36.4214 66.9574 38.4562L68.8854 37.9241C68.346 35.9701 67.9412 34.0232 67.6647 32.1042L65.6852 32.3894ZM68.9645 44.3094C69.735 46.179 70.6293 48.0364 71.6523 49.865L73.3977 48.8885C72.414 47.1301 71.5542 45.3443 70.8137 43.5473L68.9645 44.3094ZM74.9797 55.0658C76.1674 56.7013 77.4704 58.2978 78.8927 59.8416L80.3637 58.4865C78.9945 57.0003 77.7406 55.464 76.5981 53.8907L74.9797 55.0658ZM83.3266 64.1346C84.8488 65.4501 86.4747 66.71 88.2071 67.9036L89.3419 66.2567C87.6695 65.1044 86.1014 63.8893 84.6343 62.6214L83.3266 64.1346ZM93.4556 71.1286C95.2125 72.0877 97.0587 72.984 98.9964 73.81L99.7806 71.9701C97.9016 71.1692 96.1135 70.3009 94.4139 69.3732L93.4556 71.1286ZM104.765 75.9657C106.671 76.584 108.653 77.139 110.712 77.6253L111.172 75.6788C109.164 75.2048 107.235 74.6644 105.382 74.0633L104.765 75.9657ZM116.709 78.8069C118.662 79.1189 120.676 79.373 122.753 79.5652L122.937 77.5737C120.903 77.3854 118.933 77.1369 117.025 76.832L116.709 78.8069ZM128.879 79.9435C130.877 80.0077 132.928 80.0177 135.033 79.9708L134.989 77.9713C132.919 78.0175 130.904 78.0075 128.943 77.9445L128.879 79.9435ZM141.069 79.6879C143.07 79.5465 145.115 79.356 147.205 79.1142L146.975 77.1274C144.914 77.3659 142.898 77.5536 140.928 77.6929L141.069 79.6879ZM153.204 78.2973C155.173 77.9898 157.181 77.6386 159.226 77.2421L158.845 75.2787C156.823 75.6706 154.84 76.0176 152.895 76.3213L153.204 78.2973Z" fill="white" fill-opacity="0.4"/>
</svg>
