<svg width="19" height="19" viewBox="0 0 19 19" fill="none" xmlns="http://www.w3.org/2000/svg">
<g id="Icon/S/Jobs">
<path id="Vector" fill-rule="evenodd" clip-rule="evenodd" d="M13.4583 4.88971C13.4583 4.22276 13.2081 3.58314 12.7627 3.11154C12.3173 2.63994 11.7132 2.375 11.0833 2.375H7.91667C7.28678 2.375 6.68269 2.63994 6.23729 3.11154C5.79189 3.58314 5.54167 4.22276 5.54167 4.88971H4.75C4.12011 4.88971 3.51602 5.15465 3.07062 5.62625C2.62522 6.09785 2.375 6.73747 2.375 7.40441V14.1103C2.375 14.7772 2.62522 15.4169 3.07062 15.8885C3.51602 16.3601 4.12011 16.625 4.75 16.625H14.25C14.8799 16.625 15.484 16.3601 15.9294 15.8885C16.3748 15.4169 16.625 14.7772 16.625 14.1103V7.40441C16.625 6.73747 16.3748 6.09785 15.9294 5.62625C15.484 5.15465 14.8799 4.88971 14.25 4.88971H13.4583ZM11.0833 4.05147H7.91667C7.7067 4.05147 7.50534 4.13978 7.35687 4.29698C7.20841 4.45418 7.125 4.66739 7.125 4.88971H11.875C11.875 4.66739 11.7916 4.45418 11.6431 4.29698C11.4947 4.13978 11.2933 4.05147 11.0833 4.05147ZM4.75 6.56618H14.25C14.46 6.56618 14.6613 6.65449 14.8098 6.81169C14.9583 6.96889 15.0417 7.1821 15.0417 7.40441V14.1103C15.0417 14.3326 14.9583 14.5458 14.8098 14.703C14.6613 14.8602 14.46 14.9485 14.25 14.9485H4.75C4.54004 14.9485 4.33867 14.8602 4.19021 14.703C4.04174 14.5458 3.95833 14.3326 3.95833 14.1103V7.40441C3.95833 7.1821 4.04174 6.96889 4.19021 6.81169C4.33867 6.65449 4.54004 6.56618 4.75 6.56618Z" fill="#5E5E5E"/>
</g>
</svg>
