<svg width="19" height="19" viewBox="0 0 19 19" fill="none" xmlns="http://www.w3.org/2000/svg">
<g id="Icon/S/Location">
<g id="Vector">
<path fill-rule="evenodd" clip-rule="evenodd" d="M9.5 1.48438C11.1535 1.48438 12.7392 2.18813 13.9084 3.44081C15.0775 4.69349 15.7344 6.3925 15.7344 8.16406C15.7344 10.4455 14.5734 12.3129 13.3501 13.6525C12.7388 14.3145 12.0719 14.9147 11.3578 15.4457L11.0627 15.6609L10.9242 15.7596L10.6631 15.9377L10.4303 16.0899L10.1421 16.2695C9.94646 16.3888 9.72516 16.4516 9.5 16.4516C9.27484 16.4516 9.05354 16.3888 8.85786 16.2695L8.56969 16.0899L8.20948 15.8524L8.07648 15.7596L7.79247 15.557C7.02217 14.9984 6.30458 14.3605 5.64993 13.6525C4.4266 12.3114 3.26562 10.4455 3.26562 8.16406C3.26562 6.3925 3.92246 4.69349 5.09163 3.44081C6.2608 2.18813 7.84654 1.48438 9.5 1.48438ZM9.5 2.96875C8.21398 2.96875 6.98063 3.51611 6.07127 4.49042C5.16191 5.46473 4.65104 6.78618 4.65104 8.16406C4.65104 9.88742 5.53217 11.4 6.63981 12.6142C7.11613 13.1307 7.63089 13.6048 8.17901 14.0318L8.49627 14.2738C8.59879 14.3502 8.69715 14.4214 8.79205 14.4875L9.06221 14.673L9.29981 14.8282L9.5 14.9536L9.81518 14.7539L10.0694 14.5832C10.2045 14.4912 10.35 14.388 10.5037 14.2738L10.821 14.0318C11.3691 13.6048 11.8839 13.1307 12.3602 12.6142C13.4678 11.4007 14.349 9.88742 14.349 8.16406C14.349 6.78618 13.8381 5.46473 12.9287 4.49042C12.0194 3.51611 10.786 2.96875 9.5 2.96875ZM9.5 5.19531C10.2349 5.19531 10.9396 5.50809 11.4593 6.06484C11.9789 6.62159 12.2708 7.3767 12.2708 8.16406C12.2708 8.95142 11.9789 9.70654 11.4593 10.2633C10.9396 10.82 10.2349 11.1328 9.5 11.1328C8.76513 11.1328 8.06036 10.82 7.54073 10.2633C7.02109 9.70654 6.72917 8.95142 6.72917 8.16406C6.72917 7.3767 7.02109 6.62159 7.54073 6.06484C8.06036 5.50809 8.76513 5.19531 9.5 5.19531ZM9.5 6.67969C9.13256 6.67969 8.78018 6.83608 8.52036 7.11445C8.26055 7.39283 8.11458 7.77038 8.11458 8.16406C8.11458 8.55774 8.26055 8.9353 8.52036 9.21367C8.78018 9.49205 9.13256 9.64844 9.5 9.64844C9.86744 9.64844 10.2198 9.49205 10.4796 9.21367C10.7395 8.9353 10.8854 8.55774 10.8854 8.16406C10.8854 7.77038 10.7395 7.39283 10.4796 7.11445C10.2198 6.83608 9.86744 6.67969 9.5 6.67969Z" fill="#5E5E5E"/>
</g>
</g>
</svg>
