<svg width="19" height="19" viewBox="0 0 19 19" fill="none" xmlns="http://www.w3.org/2000/svg">
<g id="Icon/S/Rupees">
<rect width="19" height="19" fill="white"/>
<path id="Vector" d="M14.75 5.04688V3.5625H6.4375V5.04688H9.08239C10.0663 5.04688 10.8968 5.66883 11.2096 6.53125H6.4375V8.01562H11.2096C11.0545 8.44849 10.7667 8.82358 10.3858 9.08936C10.005 9.35514 9.54962 9.49859 9.08239 9.5H6.4375V11.2916L10.6587 15.4375H12.7958L8.26172 10.9844H9.08239C9.9529 10.9832 10.7964 10.6873 11.4706 10.1465C12.1449 9.60572 12.6086 8.85313 12.7837 8.01562H14.75V6.53125H12.7837C12.6679 5.99109 12.4292 5.48364 12.0855 5.04688H14.75Z" fill="#5E5E5E"/>
</g>
</svg>
